<svg width="280" height="210" viewBox="0 0 280 210" fill="none" xmlns="http://www.w3.org/2000/svg">
<path d="M180.028 52.7692C189.301 96.0942 243.732 90.3535 254.598 124.008C261.892 146.6 250.626 173.645 232.095 188.446C159.873 246.133 -20.5726 183.982 46.2963 50.252C72.9547 -3.06194 162.271 -30.1863 180.028 52.7692Z" fill="url(#paint0_linear)"/>
<path d="M236.278 48.6039C236.278 59.0341 227.839 67.4893 217.429 67.4893C207.019 67.4893 198.58 59.0341 198.58 48.6039C198.58 38.174 207.019 29.7186 217.429 29.7186C227.839 29.7186 236.278 38.174 236.278 48.6039Z" fill="url(#paint1_linear)"/>
<path d="M217.431 20.814C202.137 20.814 189.695 33.2805 189.695 48.6038C189.695 63.927 202.137 76.3936 217.431 76.3936C232.725 76.3936 245.167 63.927 245.167 48.6038C245.167 33.2805 232.725 20.814 217.431 20.814ZM217.431 77.6982C201.419 77.6982 188.393 64.6464 188.393 48.6038C188.393 32.5608 201.419 19.5093 217.431 19.5093C233.442 19.5093 246.469 32.5608 246.469 48.6038C246.469 64.6464 233.442 77.6982 217.431 77.6982Z" fill="url(#paint2_linear)"/>
<path d="M280 156.892C280 161.936 275.919 166.024 270.885 166.024C265.848 166.024 261.77 161.936 261.77 156.892C261.77 151.848 265.848 147.759 270.885 147.759C275.919 147.759 280 151.848 280 156.892Z" fill="url(#paint3_linear)"/>
<path d="M28.4197 88.0039C28.4197 93.0478 24.3388 97.1367 19.3046 97.1367C14.2704 97.1367 10.1895 93.0478 10.1895 88.0039C10.1895 82.96 14.2704 78.8711 19.3046 78.8711C24.3388 78.8711 28.4197 82.96 28.4197 88.0039Z" fill="url(#paint4_linear)"/>
<path d="M17.6769 149.096C8.6478 149.096 1.30216 156.456 1.30216 165.503C1.30216 174.549 8.6478 181.909 17.6769 181.909C26.7058 181.909 34.0516 174.549 34.0516 165.503C34.0516 156.456 26.7058 149.096 17.6769 149.096ZM17.6769 183.214C7.92986 183.214 0 175.269 0 165.503C0 155.737 7.92986 147.792 17.6769 147.792C27.4238 147.792 35.3537 155.737 35.3537 165.503C35.3537 175.269 27.4238 183.214 17.6769 183.214Z" fill="url(#paint5_linear)"/>
<path d="M80.8499 56.1363C101.441 35.5458 95.5453 22.642 109.636 13.1079C131.316 -1.56087 171.78 11.0602 195.652 31.2359C224.889 55.9477 239.973 101.071 222.79 141.892C204.489 185.364 156.34 207.93 113.374 201.13C75.0059 195.057 37.2903 165.013 33.5097 128.98C33.1018 125.075 31.2921 103.962 43.9739 85.7601C54.457 70.7155 64.5275 72.4592 80.8499 56.1363Z" fill="#FFF4E9"/>
<path d="M83.5185 18.9097L213.742 18.5326C216.36 18.5326 218.417 20.7642 218.184 23.3562L209.07 125.398C208.866 127.684 206.937 129.436 204.627 129.436L44.2185 129.412C41.6001 129.412 39.5177 126.949 39.7502 124.357L48.8672 22.9462C49.0711 20.6605 50.9258 18.6599 53.2359 18.6599L83.5185 18.9097Z" fill="#FEC99E"/>
<path d="M77.308 18.9092H207.51C210.129 18.9092 212.185 21.1408 211.952 23.7328L202.88 125.047C202.674 127.333 200.748 129.085 198.438 129.085H38.0247C35.4063 129.085 33.35 126.853 33.5824 124.262L42.6567 22.9458C42.8607 20.6601 44.7889 18.9092 47.099 18.9092H77.308Z" fill="white"/>
<path d="M58.6625 129.439H38.0259C36.6787 129.439 35.3838 128.873 34.473 127.885C33.5622 126.897 33.1092 125.565 33.2302 124.231L42.3021 22.9162C42.5251 20.4301 44.5885 18.5568 47.1002 18.5568H77.3092C77.5061 18.5568 77.665 18.7147 77.665 18.9102C77.665 19.1058 77.5061 19.2637 77.3092 19.2637H47.1002C44.9585 19.2637 43.2011 20.8614 43.0113 22.9798L33.9394 124.294C33.8374 125.431 34.224 126.566 34.9971 127.408C35.7727 128.25 36.878 128.733 38.0259 128.733H58.6625C58.8593 128.733 59.0183 128.891 59.0183 129.086C59.0183 129.281 58.8593 129.439 58.6625 129.439Z" fill="#333A43"/>
<path d="M208.279 65.1191C208.268 65.1191 208.258 65.1168 208.246 65.1168C208.052 65.1003 207.907 64.9283 207.924 64.7327L211.6 23.7002C211.702 22.5644 211.315 21.4286 210.54 20.5874C209.764 19.7461 208.661 19.2631 207.511 19.2631H77.3089C77.112 19.2631 76.9531 19.1052 76.9531 18.9096C76.9531 18.714 77.112 18.5561 77.3089 18.5561H207.511C208.861 18.5561 210.156 19.1217 211.064 20.1114C211.975 21.0987 212.428 22.4301 212.309 23.7638L208.633 64.7963C208.616 64.9801 208.462 65.1191 208.279 65.1191Z" fill="#333A43"/>
<path d="M80.6787 8.18802H203.611C206.085 8.18802 208.025 10.4196 207.807 13.0093L199.238 114.325C199.046 116.611 197.227 118.363 195.045 118.363H43.5893C41.1155 118.363 39.1754 116.132 39.396 113.54L47.9628 12.2246C48.1549 9.93887 49.974 8.18802 52.156 8.18802H80.6787Z" fill="#FFF4E9"/>
<path d="M207.241 19.7666L207.805 13.0578C208.026 10.4658 206.086 8.2201 203.612 8.2201H80.6793H52.1566C49.9746 8.2201 48.1555 9.98742 47.9633 12.2732L47.3301 19.7666H207.241Z" fill="#FB9946"/>
<path d="M188.168 13.828C188.168 15.0604 187.163 16.0596 185.92 16.0596C184.679 16.0596 183.674 15.0604 183.674 13.828C183.674 12.5956 184.679 11.5965 185.92 11.5965C187.163 11.5965 188.168 12.5956 188.168 13.828Z" fill="#FFF4E9"/>
<path d="M194.377 13.9608C194.377 15.1933 193.371 16.1924 192.131 16.1924C190.89 16.1924 189.885 15.1933 189.885 13.9608C189.885 12.7284 190.89 11.7293 192.131 11.7293C193.371 11.7293 194.377 12.7284 194.377 13.9608Z" fill="#FFF4E9"/>
<path d="M200.455 13.9608C200.455 15.1933 199.449 16.1924 198.209 16.1924C196.968 16.1924 195.963 15.1933 195.963 13.9608C195.963 12.7284 196.968 11.7293 198.209 11.7293C199.449 11.7293 200.455 12.7284 200.455 13.9608Z" fill="#FFF4E9"/>
<path d="M84.9106 52.6963H50.2285L52.7497 24.4804H87.4318L84.9106 52.6963Z" fill="#FEC99E"/>
<path d="M122.922 52.8887H88.2422L90.7634 24.6728H125.443L122.922 52.8887Z" fill="#FEC99E"/>
<path d="M161.17 52.6963H126.488L129.009 24.4804H163.692L161.17 52.6963Z" fill="#FEC99E"/>
<path d="M155.824 114.734H44.8828L49.1306 67.1937H160.072L155.824 114.734Z" fill="#FEC99E"/>
<path d="M160.117 64.4844H49.1758L49.9513 55.7868H160.895L160.117 64.4844Z" fill="#FEC99E"/>
<path d="M194.013 114.967H159.859L167.686 24.0082H201.839L194.013 114.967Z" fill="#FEC99E"/>
<path d="M56.4712 106.124C54.5169 106.655 52.5009 105.512 51.9649 103.569C51.4312 101.627 52.5792 99.6205 54.5335 99.0887C56.4878 98.5569 58.5062 99.7004 59.0398 101.643C59.5758 103.586 58.4255 105.592 56.4712 106.124ZM62.8014 101.354L62.4243 99.9874L60.8684 100.058C60.7261 99.757 60.5577 99.4716 60.3704 99.2049L61.1934 97.8938L60.1806 96.8977L58.869 97.7314C58.5963 97.5452 58.3069 97.3819 58.0081 97.2434L58.0603 95.6966L56.6823 95.3373L55.9684 96.7094C55.6411 96.684 55.309 96.6865 54.9746 96.7165L54.2441 95.3505L52.8685 95.7246L52.9397 97.2705C52.6361 97.4138 52.3515 97.5796 52.0811 97.7672L50.7624 96.9488L49.7615 97.956L50.6011 99.2598C50.4138 99.5312 50.2477 99.8178 50.1102 100.116L48.5543 100.063L48.1914 101.433L49.5718 102.144C49.5457 102.469 49.548 102.8 49.5789 103.131L48.2057 103.858L48.5827 105.225L50.1362 105.155C50.2809 105.456 50.447 105.741 50.6367 106.007L49.8137 107.318L50.8264 108.315L52.138 107.481C52.4108 107.667 52.6977 107.83 52.999 107.969L52.9444 109.516L54.3224 109.875L55.0387 108.503C55.366 108.528 55.698 108.526 56.03 108.496L56.7629 109.862L58.1362 109.488L58.065 107.942C58.3686 107.799 58.6556 107.633 58.9236 107.445L60.2423 108.263L61.2455 107.256L60.4059 105.952C60.5933 105.681 60.757 105.394 60.8969 105.096L62.4527 105.149L62.8133 103.779L61.4329 103.068C61.459 102.743 61.4566 102.413 61.4258 102.081L62.8014 101.354Z" fill="white"/>
<path d="M160.6 165.648C157.559 163.18 154.367 160.879 151.098 158.684C144.462 154.229 137.468 150.246 130.4 146.387C126.683 144.357 122.822 142.521 119.011 140.631C115.178 138.731 111.333 136.848 107.489 134.966C103.976 133.246 100.461 131.526 96.9535 129.796C88.982 103.02 80.3252 72.6634 82.0447 72.6634L212.754 68.9968C215.833 68.9968 217.896 71.4851 217.356 74.5414L201.517 164.275C200.976 167.333 198.035 169.819 194.959 169.819H165.87C164.155 168.384 162.336 167.058 160.6 165.648Z" fill="#FB9946"/>
<path d="M78.3132 69.3124H210.045C212.953 69.3124 214.895 71.6524 214.385 74.5413L198.547 164.275C198.037 167.164 195.267 169.506 192.359 169.506H60.627C57.7193 169.506 55.7744 167.164 56.2843 164.275L72.1253 74.5413C72.6352 71.6524 75.4054 69.3124 78.3132 69.3124Z" fill="#FEC99E"/>
<path d="M60.1688 142.641C60.1474 142.641 60.1284 142.639 60.1071 142.636C59.9126 142.602 59.7845 142.419 59.8177 142.226L71.7761 74.4803C72.3145 71.4358 75.246 68.9591 78.315 68.9591H210.047C211.543 68.9591 212.86 69.5365 213.747 70.5874C214.653 71.6596 215.006 73.0852 214.738 74.6028L208.811 108.177C208.778 108.369 208.593 108.497 208.401 108.464C208.206 108.43 208.076 108.247 208.112 108.054L214.036 74.4803C214.269 73.1724 213.972 71.9518 213.204 71.0422C212.452 70.1538 211.33 69.6661 210.047 69.6661H78.315C75.5757 69.6661 72.9572 71.8811 72.4781 74.6028L60.5174 142.348C60.4889 142.52 60.3371 142.641 60.1688 142.641Z" fill="#333A43"/>
<path d="M39.8371 169.559H193.036C195.078 169.559 196.738 171.235 196.738 173.39C196.738 175.544 195.078 177.22 193.036 177.22H159.373H140.886H39.8371C37.7926 177.22 36.1348 175.547 36.1348 173.39C36.1348 171.232 37.7926 169.559 39.8371 169.559Z" fill="#FB9946"/>
<path d="M140.886 177.572H39.8374C37.5628 177.572 35.7793 175.734 35.7793 173.388C35.7793 171.042 37.5628 169.204 39.8374 169.204H159.374L164.926 169.36C165.123 169.365 165.279 169.528 165.272 169.723C165.268 169.915 165.109 170.067 164.916 170.067C164.914 170.067 164.909 170.067 164.907 170.066L159.364 169.911L39.8374 169.911C37.9613 169.911 36.4908 171.438 36.4908 173.388C36.4908 175.338 37.9613 176.865 39.8374 176.865H159.374L166.176 176.743C166.37 176.738 166.534 176.895 166.539 177.09C166.541 177.285 166.385 177.446 166.188 177.45L159.381 177.572H140.886Z" fill="#333A43"/>
<path d="M81.5619 72.7722H206.06C208.806 72.7722 210.644 74.9519 210.163 77.6405L195.193 161.177C194.711 163.867 192.093 166.047 189.344 166.047H64.8458C62.0993 166.047 60.2612 163.867 60.7426 161.177L75.7131 77.6405C76.1946 74.9519 78.813 72.7722 81.5619 72.7722Z" fill="white"/>
<path d="M209.514 81.2695L210.164 77.6477C210.646 74.959 208.808 72.7864 206.061 72.7864H81.5631C78.8142 72.7864 76.1958 74.959 75.7143 77.6477L75.0645 81.2695H209.514Z" fill="#FB9946"/>
<path d="M193.465 76.9022C193.465 78.1347 192.46 79.1338 191.219 79.1338C189.979 79.1338 188.971 78.1347 188.971 76.9022C188.971 75.6698 189.979 74.6707 191.219 74.6707C192.46 74.6707 193.465 75.6698 193.465 76.9022Z" fill="#FFF4E9"/>
<path d="M199.672 77.0351C199.672 78.2675 198.666 79.2666 197.426 79.2666C196.185 79.2666 195.18 78.2675 195.18 77.0351C195.18 75.8026 196.185 74.8035 197.426 74.8035C198.666 74.8035 199.672 75.8026 199.672 77.0351Z" fill="#FFF4E9"/>
<path d="M205.75 77.0351C205.75 78.2675 204.744 79.2666 203.504 79.2666C202.263 79.2666 201.258 78.2675 201.258 77.0351C201.258 75.8026 202.263 74.8035 203.504 74.8035C204.744 74.8035 205.75 75.8026 205.75 77.0351Z" fill="#FFF4E9"/>
<path d="M151.637 140.416H70.6797L81.0442 85.7554H161.881L151.637 140.416Z" fill="#FFF4E9"/>
<path d="M147.232 161.86H66.4121L70.0267 144.423H150.846L147.232 161.86Z" fill="#FFF4E9"/>
<path d="M202.098 101.858H162.227L165.315 85.5114H205.186L202.098 101.858Z" fill="#FFF4E9"/>
<path d="M198.696 122.234H158.822L161.913 105.888H201.784L198.696 122.234Z" fill="#FFF4E9"/>
<path d="M195.041 141.718H155.17L158.258 125.371H198.129L195.041 141.718Z" fill="#FFF4E9"/>
<path d="M191.163 162.094H151.291L154.381 145.747H194.253L191.163 162.094Z" fill="#FFF4E9"/>
<path d="M215.594 202.388H171.937C170.057 202.388 168.724 200.877 168.961 199.013L179.712 114.639C179.949 112.776 181.666 111.265 183.547 111.265L225.013 110.784C229.773 110.784 230.418 112.776 230.181 114.639L219.432 199.013C219.195 200.877 217.477 202.388 215.594 202.388Z" fill="#333A43"/>
<path d="M212.968 202.388H169.311C167.428 202.388 166.095 200.873 166.334 199.004L177.083 114.36C177.32 112.49 179.038 110.975 180.918 110.975H224.578C226.458 110.975 227.791 112.49 227.554 114.36L216.803 199.004C216.566 200.873 214.849 202.388 212.968 202.388Z" fill="#FEC99E"/>
<path d="M202.203 115.28C201.496 115.28 200.998 114.713 201.086 114.012C201.176 113.312 201.819 112.745 202.523 112.745C203.228 112.745 203.728 113.312 203.638 114.012C203.55 114.713 202.908 115.28 202.203 115.28Z" fill="#FFF4E9"/>
<path d="M168.821 199.119L179.086 118.299C179.14 117.868 179.539 117.518 179.973 117.518H223.864C224.298 117.518 224.607 117.868 224.552 118.299L214.287 199.119C214.233 199.55 213.837 199.901 213.4 199.901H169.509C169.074 199.901 168.766 199.55 168.821 199.119Z" fill="white"/>
<path d="M223.958 122.507L224.554 117.848C224.608 117.416 224.3 117.087 223.866 117.087H179.974C179.54 117.087 179.142 117.416 179.087 117.848L178.494 122.507H223.958Z" fill="#FB9946"/>
<path d="M223.124 118.227C223.124 118.532 222.875 118.778 222.569 118.778C222.263 118.778 222.014 118.532 222.014 118.227C222.014 117.923 222.263 117.676 222.569 117.676C222.875 117.676 223.124 117.923 223.124 118.227Z" fill="#FFF4E9"/>
<path d="M222.963 119.853C222.963 120.158 222.716 120.404 222.408 120.404C222.102 120.404 221.855 120.158 221.855 119.853C221.855 119.549 222.102 119.302 222.408 119.302C222.716 119.302 222.963 119.549 222.963 119.853Z" fill="#FFF4E9"/>
<path d="M222.781 121.455C222.781 121.759 222.535 122.006 222.226 122.006C221.92 122.006 221.674 121.759 221.674 121.455C221.674 121.15 221.92 120.904 222.226 120.904C222.535 120.904 222.781 121.15 222.781 121.455Z" fill="#FFF4E9"/>
<path d="M219.035 147.951H177.473L180.433 124.826H221.995L219.035 147.951Z" fill="#FFF4E9"/>
<path d="M215.617 172.802H174.055L177.015 149.677H218.577L215.617 172.802Z" fill="#FFF4E9"/>
<path d="M212.627 198.031H171.064L174.024 174.906H215.587L212.627 198.031Z" fill="#FFF4E9"/>
<path d="M212.968 202.741H169.311C168.301 202.741 167.4 202.35 166.769 201.638C166.133 200.922 165.853 199.97 165.982 198.959L170.934 159.956C170.96 159.762 171.138 159.626 171.332 159.649C171.527 159.674 171.664 159.851 171.641 160.044L166.686 199.046C166.584 199.855 166.802 200.609 167.303 201.172C167.796 201.728 168.51 202.034 169.311 202.034H212.968C214.674 202.034 216.237 200.653 216.45 198.959L227.201 114.315C227.303 113.508 227.085 112.754 226.585 112.191C226.091 111.635 225.377 111.329 224.578 111.329H180.919C179.214 111.329 177.653 112.708 177.437 114.404L174.359 138.644C174.335 138.837 174.155 138.973 173.96 138.95C173.766 138.925 173.628 138.749 173.652 138.555L176.73 114.315C176.989 112.279 178.87 110.622 180.919 110.622H224.578C225.586 110.622 226.487 111.013 227.118 111.723C227.756 112.441 228.036 113.393 227.906 114.404L217.157 199.046C216.898 201.085 215.02 202.741 212.968 202.741Z" fill="#333A43"/>
<path d="M142.264 110.232C142.264 113.944 139.237 116.952 135.502 116.952H119.967C116.231 116.952 113.202 113.944 113.202 110.232V110.177C113.202 106.466 116.231 103.457 119.967 103.457H135.502C139.237 103.457 142.264 106.466 142.264 110.177V110.232ZM146.212 110.205C146.212 104.831 141.83 100.476 136.42 100.476H119.046C113.639 100.476 109.256 104.831 109.256 110.205C109.256 115.578 113.639 119.934 119.046 119.934H136.42C141.83 119.934 146.212 115.578 146.212 110.205Z" fill="#333A43"/>
<path d="M120.335 109.656C120.335 113.434 117.252 116.496 113.45 116.496H98.3608C94.5589 116.496 91.4756 113.434 91.4756 109.656C91.4756 105.879 94.5589 102.817 98.3608 102.817H113.45C117.252 102.817 120.335 105.879 120.335 109.656ZM114.572 99.7433H97.4761C92.0496 99.7433 87.6523 104.113 87.6523 109.503C87.6523 114.894 92.0496 119.264 97.4761 119.264H114.572C119.996 119.264 124.396 114.894 124.396 109.503C124.396 104.113 119.996 99.7433 114.572 99.7433Z" fill="#FB9946"/>
<path d="M119.938 103.411H125.106C124.665 102.38 124.215 101.351 123.733 100.337H119.132C115.686 100.337 112.657 102.102 110.904 104.77C112.085 105.218 113.01 106.065 113.999 106.794C115.195 104.77 117.405 103.411 119.938 103.411Z" fill="#333A43"/>
<path d="M53.0828 193.706C53.0828 193.706 50.3078 199.272 47.1889 201.949C46.6624 202.399 45.8418 202.152 45.6473 201.49C45.5335 201.106 45.422 200.594 45.3295 199.916C44.988 197.374 47.2886 190.754 47.2886 190.754L48.3132 190.426C48.6737 190.311 49.0531 190.53 49.1338 190.897L49.2405 191.393L50.4715 190.315C50.7537 190.07 51.183 190.106 51.4154 190.398C51.8874 190.991 52.6179 192.097 53.0828 193.706Z" fill="#FB9946"/>
<path d="M46.3212 201.633C46.2311 201.633 46.1386 201.6 46.0698 201.529C45.9299 201.392 45.9299 201.169 46.0698 201.03C49.191 197.915 51.8118 193.024 51.8379 192.975C51.9304 192.802 52.1462 192.736 52.3194 192.828C52.4925 192.919 52.5589 193.133 52.4688 193.305C52.3597 193.509 49.7697 198.339 46.5726 201.529C46.5038 201.597 46.4113 201.633 46.3212 201.633Z" fill="#333A43"/>
<path d="M47.6752 197.286C47.6372 197.286 47.6016 197.28 47.5637 197.268L45.9058 196.726C45.7185 196.665 45.6165 196.465 45.6781 196.279C45.7398 196.094 45.9414 195.993 46.1288 196.054L47.7866 196.597C47.974 196.658 48.0736 196.857 48.012 197.043C47.9645 197.192 47.8246 197.286 47.6752 197.286Z" fill="#333A43"/>
<path d="M48.7638 195.526C48.7258 195.526 48.6902 195.521 48.6523 195.509L46.5675 194.827C46.3825 194.766 46.2806 194.566 46.3422 194.38C46.4039 194.195 46.6055 194.095 46.7905 194.155L48.8753 194.837C49.0603 194.898 49.1622 195.098 49.1006 195.284C49.0531 195.432 48.9132 195.526 48.7638 195.526Z" fill="#333A43"/>
<path d="M75.7563 151.9C75.5428 151.676 60.3328 145.148 54.1164 143.76C47.8977 142.371 45.5828 142.358 43.4672 145.888C41.3516 149.418 53.6563 168.68 53.6563 168.68L79.8357 161.9L75.7563 151.9Z" fill="#333A43"/>
<path d="M61.022 159.573C60.8868 159.573 60.7563 159.495 60.697 159.364C57.8106 152.962 53.0481 148.393 53.0007 148.347C52.8584 148.212 52.8537 147.989 52.9888 147.847C53.1264 147.706 53.3517 147.702 53.4941 147.836C53.5415 147.883 58.4036 152.548 61.3469 159.075C61.4276 159.253 61.3469 159.462 61.1667 159.542C61.1192 159.563 61.0694 159.573 61.022 159.573Z" fill="white"/>
<path d="M88.2012 160.528C88.2012 160.528 87.511 167.548 85.9836 169.008C84.4538 170.468 66.1177 169.008 66.1177 169.008C66.1177 169.008 64.6591 171.38 63.7081 177.72C62.7546 184.059 61.6921 192.594 60.1149 194.677L46.3848 191.731C46.3848 191.731 50.9385 164.574 54.1025 160.881C57.264 157.187 80.2795 156.607 80.2795 156.607L88.2012 160.528Z" fill="#333A43"/>
<path d="M52.5113 164.564C52.4733 164.564 52.433 164.558 52.3951 164.545C52.2101 164.481 52.1105 164.279 52.1769 164.095C52.7793 162.372 53.32 161.245 53.83 160.651C56.0096 158.104 70.3184 156.84 76.3687 156.415C76.5632 156.398 76.734 156.548 76.7482 156.742C76.7625 156.937 76.613 157.106 76.4185 157.12C66.8343 157.793 56.0096 159.195 54.3707 161.109C53.9272 161.628 53.4126 162.711 52.8481 164.327C52.7959 164.473 52.6583 164.564 52.5113 164.564Z" fill="white"/>
<path d="M70.7911 147.76C70.7223 147.543 63.6806 136.892 63.6806 136.892L61.9824 138.125L68.417 148.092L70.7911 147.76Z" fill="#FB9946"/>
<path d="M95.0341 159.176C95.0341 159.176 97.4984 155.754 96.488 148.091C95.48 140.428 93.011 136.449 90.4282 135.541C87.8477 134.632 77.2246 136.292 76.3945 149.167L95.0341 159.176Z" fill="white"/>
<path d="M76.7633 148.965L94.9025 158.706C95.4195 157.775 96.9564 154.383 96.1358 148.138C95.2512 141.432 93.0739 136.848 90.3084 135.875C89.0182 135.421 85.7025 135.671 82.6832 137.65C80.238 139.253 77.2424 142.513 76.7633 148.965ZM95.0329 159.53C94.976 159.53 94.9167 159.517 94.8646 159.488L76.225 149.479C76.1016 149.414 76.0305 149.283 76.0376 149.146C76.4835 142.254 79.683 138.77 82.2919 137.06C85.5127 134.949 89.1226 134.707 90.548 135.208C93.6147 136.288 95.9081 140.967 96.8402 148.046C97.8553 155.759 95.4267 159.238 95.3223 159.383C95.2535 159.478 95.1444 159.53 95.0329 159.53Z" fill="#333A43"/>
<path d="M87.6126 153.995C87.6031 153.995 87.5936 153.995 87.5865 153.994C87.3896 153.981 87.2426 153.812 87.2568 153.617L87.7667 146.43C87.781 146.235 87.9517 146.086 88.1486 146.102C88.3431 146.116 88.4925 146.285 88.4783 146.48L87.966 153.667C87.9541 153.853 87.7976 153.995 87.6126 153.995Z" fill="#333A43"/>
<path d="M95.9282 157.206C95.9282 157.206 95.034 163.642 85.9811 161.488C76.9281 159.333 72.2083 150.972 72.2083 150.972C72.2083 150.972 66.9359 149.853 67.1138 146.455C67.1138 146.455 68.8784 146.925 70.3797 146.455C71.881 145.985 73.5033 146.465 74.1294 147.047C78.4104 151.036 92.0836 152.232 95.9282 157.206Z" fill="white"/>
<path d="M67.484 146.893C67.7662 149.629 72.237 150.616 72.2844 150.626C72.384 150.647 72.4694 150.71 72.5192 150.798C72.5666 150.881 77.2746 159.052 86.0667 161.143C89.1903 161.887 91.6474 161.673 93.3669 160.507C94.9797 159.411 95.4446 157.783 95.5513 157.298C93.4689 154.752 88.6092 153.21 83.9084 151.719C79.7886 150.412 75.8966 149.177 73.8877 147.304C73.3564 146.809 71.8812 146.356 70.489 146.791C69.3672 147.142 68.1338 147.008 67.484 146.893ZM89.4037 162.283C88.3364 162.283 87.1672 162.133 85.9006 161.831C77.4406 159.818 72.652 152.387 71.9808 151.281C71.0653 151.058 66.5851 149.791 66.763 146.436C66.7677 146.329 66.8223 146.231 66.9077 146.169C66.9954 146.106 67.1045 146.085 67.2089 146.113C67.2255 146.117 68.8952 146.549 70.2755 146.117C71.8362 145.628 73.6197 146.085 74.3739 146.789C76.2666 148.552 80.0827 149.763 84.1242 151.045C89.0053 152.594 94.0524 154.195 96.213 156.99C96.2723 157.065 96.296 157.16 96.2842 157.254C96.2699 157.35 95.9308 159.622 93.7678 161.091C92.5961 161.885 91.1351 162.283 89.4037 162.283Z" fill="#333A43"/>
<path d="M70.3479 148.26C67.8291 148.26 66.9326 147.377 66.8947 147.337C66.7571 147.197 66.7595 146.973 66.8994 146.837C67.0393 146.702 67.2623 146.703 67.3999 146.84C67.4212 146.861 68.2893 147.643 70.7772 147.544C70.9741 147.542 71.1377 147.688 71.1448 147.883C71.1543 148.078 71.0002 148.243 70.8057 148.25C70.6468 148.256 70.495 148.26 70.3479 148.26Z" fill="#333A43"/>
<path d="M70.6136 149.505C68.2727 149.505 67.4639 148.662 67.3762 148.564C67.2481 148.417 67.2623 148.194 67.4117 148.065C67.5564 147.938 67.7794 147.952 67.9098 148.095C67.9288 148.116 68.6522 148.835 70.7844 148.796C70.9765 148.787 71.1425 148.948 71.1473 149.143C71.1496 149.338 70.9931 149.5 70.7962 149.503C70.7346 149.504 70.6729 149.505 70.6136 149.505Z" fill="#333A43"/>
<path d="M86.3136 129.577C86.38 129.701 89.2759 134.619 89.2759 134.619L91.273 135.953C90.5377 136.509 89.2356 137.346 87.4165 137.825C85.5594 138.314 83.9822 138.214 83.0596 138.087C83.1402 137.837 83.2754 137.51 83.5078 137.169C83.8778 136.631 84.3166 136.311 84.5965 136.14C84.0012 135.123 83.4059 134.107 82.8105 133.09L86.3136 129.577Z" fill="white"/>
<path d="M83.5593 137.79C84.8235 137.911 86.0876 137.808 87.3233 137.483C88.5211 137.168 89.6381 136.658 90.6509 135.963L89.0784 134.912C89.0334 134.883 88.9954 134.843 88.9693 134.797C88.7226 134.381 86.8988 131.283 86.2371 130.154L83.2534 133.146L84.9041 135.962C85.0014 136.128 84.9468 136.341 84.7832 136.441C84.3871 136.682 84.0574 136.994 83.8013 137.368C83.7088 137.502 83.6281 137.643 83.5593 137.79ZM84.5863 138.546C84.0622 138.546 83.5356 138.51 83.0091 138.437C82.9071 138.423 82.8146 138.364 82.7577 138.276C82.7008 138.187 82.6889 138.079 82.7197 137.98C82.8336 137.62 82.9996 137.28 83.2131 136.97C83.4621 136.607 83.7657 136.293 84.1215 136.032L82.5016 133.268C82.4209 133.129 82.4423 132.954 82.5561 132.841L86.0592 129.328C86.1374 129.249 86.2513 129.212 86.3628 129.227C86.4719 129.243 86.5691 129.31 86.6237 129.408C86.6972 129.537 88.7155 132.967 89.5409 134.371L91.4715 135.659C91.5664 135.723 91.6257 135.828 91.628 135.942C91.6328 136.056 91.5806 136.165 91.4881 136.234C90.2951 137.135 88.9551 137.785 87.5059 138.167C86.5454 138.419 85.5682 138.546 84.5863 138.546Z" fill="#333A43"/>
<path d="M77.5415 126.437C78.8768 125.348 80.4516 126.485 82.0099 125.15C82.7238 124.538 82.7878 123.96 83.6464 123.625C84.2132 123.403 85.2236 123.251 85.8971 123.76C86.7534 124.409 86.1225 125.421 86.8174 127.69C87.306 129.284 87.9819 129.977 87.6024 130.536C87.2182 131.102 86.3264 130.689 85.8592 131.276C85.2568 132.034 86.3573 133.221 86.0134 134.292C85.7786 135.028 84.652 136.08 81.8201 136.432C81.6636 135.98 81.2889 135.087 81.0422 134.214C80.2785 131.479 80.6935 130.433 80.0057 130.08C78.9503 129.539 77.679 131.21 76.894 130.706C76.0805 130.182 76.1706 127.555 77.5415 126.437Z" fill="#333A43"/>
<path d="M83.0761 127.775L82.8104 128.578C82.8104 128.578 83.8469 131.104 84.0319 132.058C84.2169 133.013 81.2854 133.807 81.2854 133.807L80.8253 133.468L80.007 133.671C80.007 133.671 80.0331 130.891 79.2812 129.036C79.2812 129.036 80.6664 127.368 83.0761 127.775Z" fill="white"/>
<path d="M82.7705 127.957C82.7112 127.995 82.678 128.04 82.6591 128.06C82.6282 128.085 82.6425 128.073 82.5381 128.073C82.3768 128.071 82.2179 128.06 82.059 128.078C81.7412 128.093 81.4305 128.163 81.1293 128.261C80.8257 128.358 80.5387 128.498 80.2683 128.67C80.1355 128.756 80.0074 128.849 79.8841 128.95C79.7655 129.047 79.6398 129.166 79.5544 129.261L79.6113 128.905V128.905C79.8983 129.688 80.043 130.485 80.1379 131.281C80.1829 131.679 80.2162 132.077 80.2351 132.475C80.2541 132.874 80.2612 133.268 80.2541 133.673L79.9458 133.432L80.7379 133.125C80.8281 133.09 80.9277 133.105 81.0012 133.158L81.0368 133.184V133.184L81.4969 133.522L81.1909 133.465C81.7365 133.309 82.2962 133.111 82.799 132.865C83.2852 132.626 83.8283 132.262 83.6528 132.007C83.52 131.47 83.316 130.907 83.1168 130.358C82.9128 129.807 82.6994 129.255 82.4788 128.711C82.4456 128.633 82.4432 128.551 82.4669 128.476L82.4693 128.467C82.5262 128.283 82.6306 128.15 82.7705 127.957ZM83.3801 127.592C83.3421 127.934 83.2686 128.337 83.1453 128.689L83.1358 128.444C83.3635 128.999 83.5793 129.553 83.7856 130.115C83.9896 130.681 84.1936 131.234 84.3477 131.849L84.3738 131.967C84.3786 131.982 84.3833 132.016 84.3857 132.049L84.3928 132.147C84.3904 132.277 84.3596 132.405 84.3098 132.506C84.2126 132.714 84.0774 132.852 83.9469 132.971C83.6789 133.202 83.3967 133.357 83.1144 133.498C82.5476 133.774 81.9784 133.975 81.3783 134.148C81.2716 134.178 81.1601 134.155 81.0771 134.095L81.0724 134.091L80.6122 133.752V133.752L80.9111 133.811L80.0667 133.91V133.91L80.0406 133.913C79.9031 133.929 79.775 133.83 79.7584 133.692V133.669C79.7489 133.288 79.7228 132.897 79.6849 132.513C79.6493 132.127 79.6019 131.743 79.5402 131.362C79.4145 130.603 79.239 129.851 78.9496 129.168V129.168L78.9449 129.155C78.8975 129.035 78.9259 128.903 79.0066 128.811C79.1512 128.646 79.2817 128.53 79.4287 128.406C79.5734 128.286 79.7276 128.176 79.8841 128.075C80.2019 127.872 80.5435 127.707 80.9016 127.591C81.2597 127.473 81.6345 127.392 82.0116 127.373C82.1989 127.352 82.3863 127.363 82.576 127.367C82.6448 127.363 82.8298 127.385 82.9721 127.427C83.1239 127.468 83.2639 127.534 83.3801 127.592Z" fill="#333A43"/>
<path d="M84.0664 130.005C84.0664 130.005 83.8103 128.158 84.6807 128.22C85.5511 128.281 85.7812 130.321 84.0664 130.005Z" fill="white"/>
<path d="M84.6446 128.691C84.5568 128.759 84.4904 129.128 84.5046 129.562C84.6161 129.55 84.7228 129.513 84.7869 129.431C84.8889 129.304 84.9007 129.064 84.8153 128.872C84.7703 128.767 84.7015 128.694 84.6446 128.691ZM84.405 130.51C84.2746 130.51 84.1346 130.497 83.9781 130.469C83.7765 130.432 83.6223 130.271 83.5962 130.07C83.563 129.829 83.4231 128.603 83.952 128.042C84.1489 127.833 84.4193 127.73 84.7133 127.75C85.1284 127.78 85.4913 128.057 85.6834 128.492C85.9134 129.012 85.8542 129.611 85.5316 130.016C85.3727 130.216 85.0312 130.51 84.405 130.51Z" fill="#333A43"/>
<path d="M99.3124 193.413C99.2697 193.413 99.227 193.406 99.1843 193.39C97.8585 192.893 96.5185 192.359 95.2022 191.802C95.0195 191.725 94.9365 191.516 95.0124 191.334C95.0907 191.152 95.3018 191.068 95.4844 191.145C96.7912 191.698 98.1218 192.228 99.4381 192.721C99.6255 192.791 99.718 192.997 99.6492 193.182C99.5947 193.325 99.4571 193.413 99.3124 193.413Z" fill="#333A43"/>
<path d="M132.579 199.571C130.884 199.571 129.178 199.524 127.466 199.425C117.958 198.886 108.442 196.853 99.1851 193.386C99.0025 193.317 98.9076 193.114 98.9788 192.931C99.0476 192.748 99.2515 192.656 99.4365 192.725C117.841 199.618 137.577 200.721 155.004 195.834C155.192 195.781 155.389 195.89 155.443 196.078C155.495 196.266 155.386 196.461 155.196 196.514C147.946 198.547 140.359 199.571 132.579 199.571Z" fill="#333A43"/>
<path d="M130.947 194.703C122.698 194.703 114.283 193.465 106.034 191.005C105.846 190.949 105.74 190.752 105.797 190.565C105.853 190.378 106.05 190.271 106.24 190.328C119.852 194.388 133.921 195.093 146.925 192.367C147.115 192.327 147.305 192.449 147.345 192.64C147.388 192.831 147.264 193.019 147.072 193.059C141.835 194.157 136.428 194.703 130.947 194.703Z" fill="#333A43"/>
<path d="M92.0874 188.532C91.7696 188.532 91.4684 188.65 91.236 188.867C90.9917 189.094 90.8494 189.402 90.8375 189.734C90.8257 190.066 90.9466 190.382 91.1743 190.626C91.402 190.868 91.7127 191.009 92.0471 191.02C92.3839 191.032 92.6994 190.913 92.9437 190.686C93.1879 190.459 93.3303 190.152 93.3397 189.82C93.3635 189.134 92.8227 188.557 92.1325 188.533C92.1183 188.533 92.104 188.532 92.0874 188.532ZM92.0898 191.728C92.0685 191.728 92.0447 191.727 92.021 191.727C91.4969 191.709 91.0107 191.489 90.6549 191.108C90.2968 190.727 90.1094 190.23 90.126 189.709C90.145 189.189 90.3656 188.706 90.7498 188.35C91.134 187.994 91.6321 187.808 92.1562 187.827C93.2401 187.864 94.0892 188.769 94.0513 189.844C94.0157 190.896 93.1429 191.728 92.0898 191.728Z" fill="#333A43"/>
<path d="M219.35 99.2588C219.153 99.2588 218.994 99.1004 218.994 98.9053V97.0772C218.994 96.8821 219.153 96.7237 219.35 96.7237C219.547 96.7237 219.706 96.8821 219.706 97.0772V98.9053C219.706 99.1004 219.547 99.2588 219.35 99.2588Z" fill="#333A43"/>
<path d="M219.35 103.518C219.153 103.518 218.994 103.359 218.994 103.164V101.336C218.994 101.141 219.153 100.983 219.35 100.983C219.547 100.983 219.706 101.141 219.706 101.336V103.164C219.706 103.359 219.547 103.518 219.35 103.518Z" fill="#333A43"/>
<path d="M218.13 100.475H216.289C216.093 100.475 215.934 100.316 215.934 100.121C215.934 99.9258 216.093 99.7677 216.289 99.7677H218.13C218.324 99.7677 218.486 99.9258 218.486 100.121C218.486 100.316 218.324 100.475 218.13 100.475Z" fill="#333A43"/>
<path d="M222.415 100.475H220.575C220.378 100.475 220.219 100.316 220.219 100.121C220.219 99.9258 220.378 99.7677 220.575 99.7677H222.415C222.612 99.7677 222.771 99.9258 222.771 100.121C222.771 100.316 222.612 100.475 222.415 100.475Z" fill="#333A43"/>
<path d="M98.3929 129.422C98.196 129.422 98.0371 129.264 98.0371 129.068V127.24C98.0371 127.045 98.196 126.887 98.3929 126.887C98.5897 126.887 98.7486 127.045 98.7486 127.24V129.068C98.7486 129.264 98.5897 129.422 98.3929 129.422Z" fill="#333A43"/>
<path d="M98.3929 133.68C98.196 133.68 98.0371 133.521 98.0371 133.326V131.498C98.0371 131.303 98.196 131.145 98.3929 131.145C98.5897 131.145 98.7486 131.303 98.7486 131.498V133.326C98.7486 133.521 98.5897 133.68 98.3929 133.68Z" fill="#333A43"/>
<path d="M97.1728 130.637H95.3323C95.1355 130.637 94.9766 130.479 94.9766 130.283C94.9766 130.088 95.1355 129.93 95.3323 129.93H97.1728C97.3673 129.93 97.5286 130.088 97.5286 130.283C97.5286 130.479 97.3673 130.637 97.1728 130.637Z" fill="#333A43"/>
<path d="M101.456 130.637H99.6155C99.4187 130.637 99.2598 130.479 99.2598 130.283C99.2598 130.088 99.4187 129.93 99.6155 129.93H101.456C101.653 129.93 101.812 130.088 101.812 130.283C101.812 130.479 101.653 130.637 101.456 130.637Z" fill="#333A43"/>
<defs>
<linearGradient id="paint0_linear" x1="144.27" y1="210" x2="144.27" y2="0.00038147" gradientUnits="userSpaceOnUse">
<stop stop-color="#FFEDEF"/>
<stop offset="1" stop-color="#FFE6D1"/>
</linearGradient>
<linearGradient id="paint1_linear" x1="217.429" y1="67.4893" x2="217.429" y2="29.7186" gradientUnits="userSpaceOnUse">
<stop stop-color="#FFEDEF"/>
<stop offset="1" stop-color="#FFE6D1"/>
</linearGradient>
<linearGradient id="paint2_linear" x1="217.431" y1="77.6982" x2="217.431" y2="19.5093" gradientUnits="userSpaceOnUse">
<stop stop-color="#FFEDEF"/>
<stop offset="1" stop-color="#FFE6D1"/>
</linearGradient>
<linearGradient id="paint3_linear" x1="270.885" y1="166.024" x2="270.885" y2="147.759" gradientUnits="userSpaceOnUse">
<stop stop-color="#FFEDEF"/>
<stop offset="1" stop-color="#FFE6D1"/>
</linearGradient>
<linearGradient id="paint4_linear" x1="19.3046" y1="97.1367" x2="19.3046" y2="78.8711" gradientUnits="userSpaceOnUse">
<stop stop-color="#FFEDEF"/>
<stop offset="1" stop-color="#FFE6D1"/>
</linearGradient>
<linearGradient id="paint5_linear" x1="17.6769" y1="183.214" x2="17.6769" y2="147.792" gradientUnits="userSpaceOnUse">
<stop stop-color="#FFEDEF"/>
<stop offset="1" stop-color="#FFE6D1"/>
</linearGradient>
</defs>
</svg>
