<svg width="280" height="210" viewBox="0 0 280 210" fill="none" xmlns="http://www.w3.org/2000/svg">
<path d="M99.9724 52.7692C90.6986 96.0942 36.2682 90.3535 25.4016 124.008C18.1079 146.6 29.3743 173.645 47.9051 188.446C120.127 246.133 300.573 183.982 233.704 50.252C207.045 -3.06194 117.729 -30.1863 99.9724 52.7692Z" fill="url(#paint0_linear)"/>
<path d="M43.7223 48.6039C43.7223 59.0341 52.1611 67.4893 62.5711 67.4893C72.9811 67.4893 81.4199 59.0341 81.4199 48.6039C81.4199 38.174 72.9811 29.7186 62.5711 29.7186C52.1611 29.7186 43.7223 38.174 43.7223 48.6039Z" fill="url(#paint1_linear)"/>
<path d="M62.5692 20.814C77.8631 20.814 90.3053 33.2805 90.3053 48.6038C90.3053 63.927 77.8631 76.3936 62.5692 76.3936C47.2753 76.3936 34.8331 63.927 34.8331 48.6038C34.8331 33.2805 47.2753 20.814 62.5692 20.814ZM62.5692 77.6982C78.5808 77.6982 91.6074 64.6464 91.6074 48.6038C91.6074 32.5608 78.5808 19.5093 62.5692 19.5093C46.5575 19.5093 33.5309 32.5608 33.5309 48.6038C33.5309 64.6464 46.5575 77.6982 62.5692 77.6982Z" fill="url(#paint2_linear)"/>
<path d="M0.000183105 156.892C0.000183105 161.936 4.08116 166.024 9.11533 166.024C14.1521 166.024 18.2305 161.936 18.2305 156.892C18.2305 151.848 14.1521 147.759 9.11533 147.759C4.08116 147.759 0.000183105 151.848 0.000183105 156.892Z" fill="url(#paint3_linear)"/>
<path d="M251.58 88.0049C251.58 93.0488 255.661 97.1377 260.695 97.1377C265.73 97.1377 269.811 93.0488 269.811 88.0049C269.811 82.961 265.73 78.8721 260.695 78.8721C255.661 78.8721 251.58 82.961 251.58 88.0049Z" fill="url(#paint4_linear)"/>
<path d="M262.323 149.096C271.352 149.096 278.698 156.456 278.698 165.503C278.698 174.549 271.352 181.909 262.323 181.909C253.294 181.909 245.948 174.549 245.948 165.503C245.948 156.456 253.294 149.096 262.323 149.096ZM262.323 183.214C272.07 183.214 280 175.269 280 165.503C280 155.737 272.07 147.792 262.323 147.792C252.576 147.792 244.646 155.737 244.646 165.503C244.646 175.269 252.576 183.214 262.323 183.214Z" fill="url(#paint5_linear)"/>
<path d="M174.399 75.8127L156.559 73.0433C150.252 72.0634 145.139 66.1865 145.139 59.9172V21.2299C145.139 14.9605 150.252 10.6707 156.559 11.6506L174.399 14.4225C180.706 15.3999 185.819 21.2768 185.819 27.5486V66.2334C185.819 72.5052 180.706 76.7926 174.399 75.8127Z" fill="#FEC99E"/>
<path d="M228.514 84.2171L210.677 81.4472C204.367 80.4675 199.254 74.5914 199.254 68.322V29.6348C199.254 23.3654 204.367 19.0756 210.677 20.0555L228.514 22.8249C234.822 23.8048 239.935 29.6817 239.935 35.951V74.6383C239.935 80.9081 234.822 85.1967 228.514 84.2171Z" fill="#FEC99E"/>
<path d="M172.569 75.9241L154.732 73.1547C148.422 72.1748 143.309 66.2979 143.309 60.0286V21.3413C143.309 15.0719 148.422 10.7821 154.732 11.762L172.569 14.5314C178.876 15.5113 183.989 21.3882 183.989 27.6575V66.3448C183.989 72.6141 178.876 76.9039 172.569 75.9241Z" fill="white"/>
<path d="M162.495 29.2486L162.38 29.2289L155.959 31.6576L154.99 27.7455L163.063 24.7342L167.327 25.3957V61.8838L162.495 61.1334V29.2486Z" fill="#FEC99E"/>
<path d="M226.684 84.3275L208.847 81.5574C202.539 80.578 197.424 74.7023 197.424 68.4305V29.7432C197.424 23.4739 202.539 19.1865 208.847 20.1664L226.684 22.9358C232.992 23.9157 238.105 29.7926 238.105 36.0619V74.7492C238.105 81.0183 232.992 85.3069 226.684 84.3275Z" fill="white"/>
<path d="M210.243 50.474C210.243 59.9595 213.201 65.8092 217.748 66.5151C222.866 67.3099 225.309 61.7934 225.309 52.4757C225.309 43.4938 222.978 37.2368 217.805 36.4346C213.43 35.7558 210.243 40.5368 210.243 50.474ZM230.313 53.0286C230.313 65.434 225.65 71.5577 217.465 70.2866C210.244 69.166 205.356 61.7267 205.242 49.6397C205.242 37.4022 210.586 31.4957 218.091 32.6607C225.878 33.8701 230.313 41.4081 230.313 53.0286Z" fill="#FEC99E"/>
<path d="M194.14 39.3667C194.14 41.2204 192.627 42.489 190.763 42.2002C188.895 41.909 187.383 40.1713 187.383 38.3177C187.383 36.464 188.895 35.1953 190.763 35.4841C192.627 35.7729 194.14 37.513 194.14 39.3667Z" fill="#FEC99E"/>
<path d="M194.14 57.6405C194.14 59.4966 192.627 60.7653 190.763 60.474C188.895 60.1852 187.383 58.4476 187.383 56.5915C187.383 54.7378 188.895 53.4691 190.763 53.7579C192.627 54.0492 194.14 55.7868 194.14 57.6405Z" fill="#FEC99E"/>
<path d="M171.614 86.5825L140.447 81.7427C139.675 81.6228 139.049 80.9031 139.049 80.1349V76.8591C139.049 76.0915 139.675 75.5657 140.447 75.6867L171.614 80.5259C172.389 80.6459 173.015 81.3656 173.015 82.1335V85.4093C173.015 86.1772 172.389 86.7027 171.614 86.5825Z" fill="#FEC99E"/>
<path d="M184.046 88.5133L177.237 87.4556C176.464 87.3357 175.836 86.6159 175.836 85.8478V82.5722C175.836 81.8041 176.464 81.2791 177.237 81.3988L184.046 82.4564C184.818 82.5764 185.444 83.2961 185.444 84.0643V87.3399C185.444 88.108 184.818 88.633 184.046 88.5133Z" fill="white"/>
<path d="M171.614 96.4928L140.447 91.6528C139.675 91.5328 139.049 90.8131 139.049 90.0452V86.7693C139.049 86.0015 139.675 85.476 140.447 85.5962L171.614 90.4359C172.389 90.5559 173.015 91.2756 173.015 92.0437V95.3194C173.015 96.0875 172.389 96.6125 171.614 96.4928Z" fill="#FEC99E"/>
<path d="M184.046 98.4224L177.237 97.365C176.464 97.2448 175.836 96.5251 175.836 95.7572V92.4816C175.836 91.7135 176.464 91.1882 177.237 91.3082L184.046 92.3656C184.818 92.4855 185.444 93.2055 185.444 93.9734V97.2492C185.444 98.0171 184.818 98.5423 184.046 98.4224Z" fill="white"/>
<path d="M171.614 106.403L140.447 101.563C139.675 101.443 139.049 100.723 139.049 99.9553V96.6794C139.049 95.9116 139.675 95.3863 140.447 95.5063L171.614 100.346C172.389 100.466 173.015 101.186 173.015 101.954V105.23C173.015 105.998 172.389 106.523 171.614 106.403Z" fill="#FEC99E"/>
<path d="M184.046 108.333L177.237 107.275C176.464 107.155 175.836 106.435 175.836 105.667V102.392C175.836 101.624 176.464 101.098 177.237 101.218L184.046 102.276C184.818 102.396 185.444 103.116 185.444 103.884V107.159C185.444 107.927 184.818 108.453 184.046 108.333Z" fill="white"/>
<path d="M209.8 92.5114L240.968 97.3511C241.74 97.4711 242.368 96.9458 242.368 96.1777V92.9021C242.368 92.134 241.74 91.4142 240.968 91.2943L209.8 86.4545C209.028 86.3346 208.402 86.8598 208.402 87.6277V90.9036C208.402 91.6714 209.028 92.3912 209.8 92.5114Z" fill="#FEC99E"/>
<path d="M197.371 90.5826L204.18 91.6402C204.953 91.7599 205.578 91.2347 205.578 90.4668V87.1912C205.578 86.4231 204.953 85.7033 204.18 85.5834L197.371 84.5257C196.596 84.4058 195.971 84.931 195.971 85.6992V88.9748C195.971 89.7429 196.596 90.4626 197.371 90.5826Z" fill="white"/>
<path d="M209.8 102.422L240.968 107.262C241.74 107.382 242.368 106.857 242.368 106.089V102.813C242.368 102.045 241.74 101.325 240.968 101.205L209.8 96.3657C209.028 96.2457 208.402 96.771 208.402 97.5388V100.815C208.402 101.583 209.028 102.303 209.8 102.422Z" fill="#FEC99E"/>
<path d="M197.371 100.493L204.18 101.55C204.953 101.67 205.578 101.145 205.578 100.377V97.1013C205.578 96.3334 204.953 95.6134 204.18 95.4935L197.371 94.4361C196.596 94.3161 195.971 94.8414 195.971 95.6095V98.8851C195.971 99.653 196.596 100.373 197.371 100.493Z" fill="white"/>
<path d="M209.8 112.334L240.968 117.173C241.74 117.294 242.368 116.768 242.368 116V112.724C242.368 111.956 241.74 111.237 240.968 111.117L209.8 106.277C209.028 106.157 208.402 106.682 208.402 107.45V110.726C208.402 111.494 209.028 112.214 209.8 112.334Z" fill="#FEC99E"/>
<path d="M197.371 110.402L204.18 111.459C204.953 111.579 205.578 111.054 205.578 110.286V107.01C205.578 106.243 204.953 105.523 204.18 105.403L197.371 104.345C196.596 104.225 195.971 104.751 195.971 105.518V108.794C195.971 109.562 196.596 110.282 197.371 110.402Z" fill="white"/>
<path d="M190.708 110.741C190.502 110.741 190.336 110.575 190.336 110.371V82.1883C190.336 81.9839 190.502 81.8181 190.708 81.8181C190.915 81.8181 191.081 81.9839 191.081 82.1883V110.371C191.081 110.575 190.915 110.741 190.708 110.741Z" fill="white"/>
<path d="M246.814 127.133H232.692V130.825L178.897 122.874C177.117 122.611 175.299 122.794 173.608 123.407L58.511 165.129V161.979H49.7773V170.104H49.7823C49.832 171.152 50.5273 172.17 51.8087 172.396L129.972 186.199C132.917 186.72 135.954 186.342 138.676 185.116L245.426 137.059C246.521 136.567 246.938 135.51 246.78 134.547H246.814V127.133Z" fill="#333A43"/>
<path d="M52.2491 164.922L130.085 178.726C133.017 179.246 136.039 178.868 138.751 177.642L245.05 129.585C247.183 128.62 246.741 125.485 244.421 125.14L178.801 115.4C177.028 115.137 175.218 115.32 173.534 115.933L51.8369 160.236C49.4878 161.091 49.7857 164.485 52.2491 164.922Z" fill="white"/>
<path d="M177.224 115.655C176.012 115.655 174.803 115.866 173.663 116.281L51.9656 160.584C50.8631 160.985 50.5452 161.977 50.6097 162.704C50.6743 163.431 51.1586 164.353 52.3158 164.558L130.149 178.362C133.019 178.871 135.942 178.506 138.597 177.306L244.895 129.249C245.889 128.799 246.132 127.855 246.038 127.182C245.941 126.51 245.447 125.668 244.366 125.507L178.746 115.767C178.242 115.692 177.733 115.655 177.224 115.655ZM132.679 179.326C131.793 179.326 130.904 179.248 130.017 179.091L52.1841 165.287C50.8903 165.058 49.9815 164.069 49.8673 162.769C49.753 161.468 50.4756 160.337 51.7098 159.889L173.407 115.586C175.143 114.954 177.025 114.763 178.855 115.035L244.476 124.775C245.7 124.956 246.601 125.861 246.775 127.079C246.946 128.297 246.328 129.414 245.203 129.923L138.905 177.98C136.93 178.873 134.815 179.326 132.679 179.326Z" fill="#333A43"/>
<path d="M132.661 176.184C131.963 176.184 131.258 176.122 130.57 175.999L53.959 162.413L174.489 118.535C175.366 118.216 176.282 118.054 177.216 118.054C177.606 118.054 178 118.083 178.385 118.141L242.56 127.666L137.593 175.121C136.033 175.826 134.374 176.184 132.661 176.184Z" fill="#FEC99E"/>
<path d="M231.364 131.256L141.778 171.135C140.991 171.486 139.655 171.648 138.838 171.49L71.6632 158.52C70.9928 158.391 71.0995 158.058 71.9016 157.769L169.549 122.466C170.112 122.262 171.115 122.167 171.749 122.258L231.027 130.703C231.697 130.798 231.846 131.041 231.364 131.256Z" fill="#FB9946"/>
<path d="M71.8663 158.182L138.912 171.127C139.647 171.27 140.916 171.115 141.629 170.798L230.899 131.059L171.698 122.624C171.127 122.544 170.181 122.632 169.677 122.815L72.0302 158.117C71.9681 158.14 71.9135 158.162 71.8663 158.182ZM139.563 171.921C139.274 171.921 139.004 171.9 138.77 171.854L71.5956 158.884C71.0121 158.772 70.8705 158.5 70.8531 158.291C70.8134 157.769 71.5385 157.507 71.7769 157.421L169.421 122.119C170.042 121.895 171.11 121.792 171.805 121.892L231.083 130.337C231.297 130.367 231.95 130.46 232.017 130.932C232.044 131.121 231.977 131.39 231.518 131.594L141.934 171.474C141.303 171.754 140.367 171.921 139.563 171.921Z" fill="white"/>
<path d="M191.392 149.627L125.58 138.839L125.702 138.108L191.513 148.896L191.392 149.627Z" fill="white"/>
<path d="M161.096 141.072C157.15 141.072 152.543 141.81 149.735 142.986C148.041 143.694 147.495 144.349 147.547 144.725C147.609 145.17 148.557 145.8 151.033 146.109C155.516 146.668 162.064 145.848 165.627 144.28C167.172 143.6 167.664 142.979 167.612 142.625C167.542 142.17 166.564 141.532 164.026 141.23C163.124 141.123 162.134 141.072 161.096 141.072ZM154.108 147.023C152.988 147.023 151.917 146.965 150.939 146.844C148.376 146.523 146.948 145.826 146.809 144.826C146.725 144.214 147.112 143.28 149.447 142.303C153.154 140.751 159.598 139.957 164.115 140.495C166.733 140.806 168.195 141.505 168.349 142.515C168.478 143.372 167.664 144.194 165.928 144.957C163.04 146.228 158.255 147.023 154.108 147.023Z" fill="white"/>
<path d="M118.577 167.856L118.289 167.173L126.138 163.917L99.9449 158.933L90.7643 162.439L90.4961 161.748L99.8754 158.166L99.9797 158.186L128.711 163.652L118.577 167.856Z" fill="white"/>
<path d="M114.516 166.902L114.233 166.218L118.207 164.591L100.178 161.118L94.6926 163.238L94.4219 162.548L100.109 160.351L100.215 160.371L120.789 164.334L114.516 166.902Z" fill="white"/>
<path d="M105.877 167.077L95.9121 165.105L99.8729 163.551L100.146 164.239L98.5394 164.87L105.803 166.308L108.599 165.182L108.877 165.868L105.877 167.077Z" fill="white"/>
<path d="M212.932 128.176H212.935H212.932ZM183.292 126.901L206.848 130.298L212.56 127.93V101.165C212.56 100.444 212.016 99.8424 211.293 99.7662L190.059 97.5304C189.659 97.4902 189.259 97.6176 188.961 97.8839C188.663 98.1502 188.495 98.5315 188.495 98.9297V124.916L183.292 126.901ZM206.945 131.061L180.359 127.226L187.75 124.407V98.9297C187.75 98.3217 188.01 97.74 188.465 97.3335C188.919 96.9267 189.528 96.731 190.136 96.7944L211.373 99.0301C212.475 99.1459 213.305 100.064 213.305 101.165V128.423L206.945 131.061Z" fill="#333A43"/>
<path d="M205.56 129.475L205.458 129.46L186.543 126.758L191.599 124.806L191.867 125.497L189.458 126.427L205.463 128.713L208.771 127.36L209.054 128.045L205.56 129.475Z" fill="white"/>
<path d="M75.1756 159.609L75.0117 158.887C75.8113 158.707 76.5414 158.497 77.1796 158.264C78.8682 157.647 79.201 157.132 79.1885 156.985C79.1786 156.889 78.9179 156.598 77.8402 156.416C77.6663 156.387 77.4751 156.361 77.274 156.341L77.3485 155.604C77.567 155.626 77.7731 155.654 77.9643 155.686C79.2109 155.896 79.8739 156.31 79.9286 156.917C79.9981 157.642 79.1587 158.329 77.4378 158.959C76.7698 159.203 76.0075 159.422 75.1756 159.609Z" fill="white"/>
<path d="M167.907 124.468C167.281 124.468 166.685 124.436 166.154 124.37C165.977 124.348 165.814 124.322 165.662 124.294L165.796 123.566C165.935 123.592 166.087 123.615 166.248 123.635C168.386 123.903 171.609 123.579 173.43 122.915C173.921 122.734 174.17 122.579 174.289 122.481L174.761 123.054C174.522 123.249 174.16 123.436 173.686 123.61C172.225 124.143 169.916 124.468 167.907 124.468Z" fill="white"/>
<path d="M228.142 132.94C227.926 132.931 227.715 132.917 227.506 132.899C226.198 132.785 224.601 132.468 224.422 131.601C224.358 131.29 224.459 130.825 225.304 130.376C225.669 130.182 226.143 130.005 226.707 129.85L226.905 130.564C226.394 130.704 225.972 130.861 225.654 131.03C225.217 131.263 225.147 131.43 225.152 131.453C225.172 131.554 225.669 131.996 227.571 132.161C227.77 132.178 227.971 132.192 228.174 132.201L228.142 132.94Z" fill="white"/>
<path d="M134.634 170.941L134.207 170.335C134.644 170.029 135.228 169.739 135.94 169.472C138.918 168.354 143.266 167.953 145.844 168.559C146.047 168.607 146.236 168.661 146.407 168.718L146.169 169.419C146.02 169.369 145.854 169.322 145.672 169.28C143.261 168.713 139.015 169.109 136.204 170.164C135.55 170.409 135.022 170.671 134.634 170.941Z" fill="white"/>
<path d="M190.87 123.804C190.735 123.804 190.606 123.731 190.539 123.605C190.445 123.423 190.514 123.199 190.698 123.105L195.352 120.694C195.235 118.568 194.21 102.711 189.581 98.9371C189.422 98.8076 189.399 98.5743 189.531 98.4163C189.66 98.2581 189.896 98.2352 190.055 98.365C195.248 102.6 196.075 120.152 196.107 120.897L196.117 121.132L191.041 123.762C190.986 123.79 190.927 123.804 190.87 123.804Z" fill="#333A43"/>
<path d="M214.751 127.072C214.617 127.072 214.485 127 214.421 126.873C214.324 126.692 214.396 126.468 214.577 126.374L219.233 123.963C219.114 121.837 218.091 105.98 213.462 102.206C213.303 102.076 213.281 101.843 213.41 101.685C213.542 101.527 213.777 101.504 213.934 101.634C219.129 105.869 219.956 123.42 219.988 124.165L219.998 124.401L214.922 127.03C214.868 127.059 214.808 127.072 214.751 127.072Z" fill="#333A43"/>
<path d="M91.0167 68.2425C90.9298 68.2425 90.8404 68.2104 90.7683 68.1462C90.6144 68.008 90.6044 67.7735 90.741 67.623C91.4189 66.8775 92.1441 66.1691 92.894 65.5151C93.048 65.3793 93.2839 65.3966 93.418 65.5496C93.5545 65.7027 93.5396 65.9371 93.3857 66.0729C92.6556 66.7072 91.9528 67.3959 91.2948 68.1191C91.2203 68.2005 91.1185 68.2425 91.0167 68.2425ZM87.55 73.0432C87.4879 73.0432 87.4234 73.0284 87.3663 72.9963C87.1875 72.8951 87.1229 72.6705 87.2247 72.4928C87.7164 71.6215 88.2627 70.77 88.8463 69.9604C88.9655 69.7925 89.1989 69.7555 89.3653 69.874C89.5342 69.9949 89.5714 70.2245 89.4522 70.3923C88.8835 71.1797 88.3521 72.0066 87.8728 72.8556C87.8058 72.9766 87.6791 73.0432 87.55 73.0432ZM85.2207 78.4832C85.1835 78.4832 85.1487 78.4783 85.1115 78.4684C84.9153 78.4092 84.8035 78.2019 84.8631 78.0069C85.1512 77.0541 85.4964 76.1038 85.8912 75.1856C85.9707 74.9956 86.1892 74.9092 86.3804 74.9882C86.5691 75.0696 86.6585 75.2868 86.5766 75.4744C86.1942 76.3704 85.8564 77.2935 85.5758 78.2191C85.5286 78.3796 85.3797 78.4832 85.2207 78.4832ZM84.1579 84.2994C84.1504 84.2994 84.143 84.2991 84.1355 84.2986C83.9294 84.2853 83.773 84.1093 83.7879 83.9052C83.8524 82.9145 83.9766 81.9119 84.1554 80.9248C84.1926 80.7234 84.3863 80.5896 84.59 80.6269C84.7911 80.6634 84.9252 80.8562 84.888 81.0574C84.7141 82.0165 84.5924 82.9907 84.5304 83.9529C84.5179 84.1488 84.3541 84.2994 84.1579 84.2994ZM113.026 84.6163C112.889 84.6163 112.758 84.5425 112.693 84.4142C112.599 84.2318 112.673 84.0089 112.857 83.9161C113.84 83.4185 114.846 83.1374 115.849 83.0801C116.065 83.0687 116.232 83.2242 116.244 83.4283C116.254 83.6327 116.098 83.8077 115.894 83.8191C114.993 83.8704 114.084 84.1251 113.195 84.5761C113.14 84.6032 113.083 84.6163 113.026 84.6163ZM121.178 86.06C121.079 86.06 120.982 86.0208 120.908 85.9437C120.227 85.2255 119.457 84.6763 118.626 84.311C118.437 84.2285 118.352 84.0099 118.434 83.8228C118.519 83.6357 118.737 83.5513 118.926 83.6337C119.85 84.0388 120.699 84.6452 121.449 85.4355C121.591 85.5844 121.583 85.8186 121.434 85.9588C121.362 86.0264 121.27 86.06 121.178 86.06ZM108.68 88.5877C108.608 88.5877 108.534 88.5662 108.469 88.5213C108.3 88.4046 108.258 88.1738 108.375 88.006C108.978 87.1433 109.646 86.3673 110.359 85.6991C110.508 85.5589 110.744 85.5651 110.885 85.714C111.027 85.8628 111.019 86.097 110.87 86.2375C110.195 86.8708 109.562 87.6081 108.988 88.4288C108.914 88.5322 108.799 88.5877 108.68 88.5877ZM84.4633 90.2025C84.2845 90.2025 84.1281 90.0741 84.0958 89.8929C83.9319 88.9029 83.8202 87.8988 83.768 86.9086C83.7581 86.7045 83.917 86.5302 84.1206 86.5196C84.3243 86.5085 84.5031 86.666 84.513 86.8701C84.5627 87.8327 84.6694 88.8086 84.8308 89.7715C84.8656 89.9732 84.729 90.1639 84.5254 90.1973C84.5055 90.2007 84.4832 90.2025 84.4633 90.2025ZM123.609 91.3596C123.423 91.3596 123.264 91.2233 123.239 91.0365C123.167 90.4801 123.056 89.9364 122.904 89.4205C122.792 89.0404 122.651 88.662 122.485 88.2957C122.4 88.1094 122.482 87.8902 122.671 87.806C122.857 87.7216 123.078 87.8048 123.163 87.9912C123.344 88.3885 123.498 88.7998 123.619 89.2129C123.781 89.7658 123.902 90.3478 123.979 90.9424C124.004 91.1453 123.86 91.3307 123.657 91.3568C123.639 91.3586 123.624 91.3596 123.609 91.3596ZM106.093 93.9028C106.055 93.9028 106.016 93.8969 105.976 93.8841C105.782 93.8197 105.675 93.6101 105.74 93.4159C106.058 92.4614 106.438 91.5227 106.867 90.6268C106.954 90.4421 107.178 90.3639 107.364 90.4515C107.548 90.5391 107.627 90.7603 107.54 90.9449C107.123 91.8135 106.756 92.7235 106.448 93.6494C106.395 93.8046 106.249 93.9028 106.093 93.9028ZM86.0824 95.891C85.9359 95.891 85.7968 95.8036 85.7372 95.6597C85.3598 94.7356 85.0295 93.7807 84.7589 92.8213C84.7017 92.6245 84.8159 92.4199 85.0146 92.3644C85.2133 92.3079 85.4194 92.4229 85.474 92.6199C85.7397 93.5531 86.0601 94.4824 86.4276 95.3816C86.5046 95.5711 86.4127 95.7871 86.2215 95.8636C86.1768 95.8824 86.1296 95.891 86.0824 95.891ZM123.13 97.2298C123.1 97.2298 123.071 97.2263 123.041 97.2189C122.84 97.1688 122.72 96.9677 122.77 96.7695C123.021 95.7745 123.19 94.8129 123.274 93.911C123.294 93.7074 123.473 93.5585 123.679 93.5763C123.885 93.5951 124.034 93.7752 124.017 93.9791C123.93 94.9183 123.753 95.9179 123.493 96.9499C123.451 97.1177 123.297 97.2298 123.13 97.2298ZM104.891 99.6914C104.881 99.6914 104.868 99.6909 104.858 99.6899C104.652 99.6714 104.501 99.4914 104.521 99.2876C104.613 98.2867 104.759 97.2875 104.96 96.318C105.002 96.1176 105.199 95.9895 105.4 96.0297C105.601 96.0709 105.73 96.2667 105.69 96.4671C105.494 97.4095 105.35 98.381 105.263 99.3547C105.246 99.5467 105.082 99.6914 104.891 99.6914ZM88.9108 101.092C88.7941 101.092 88.6774 101.036 88.6054 100.933C88.0342 100.117 87.5028 99.2565 87.0236 98.3751C86.9267 98.1951 86.9938 97.9705 87.175 97.8735C87.3538 97.7758 87.5823 97.8434 87.6792 98.0231C88.146 98.8805 88.6625 99.7173 89.2163 100.51C89.333 100.678 89.2933 100.909 89.1244 101.025C89.0598 101.07 88.9853 101.092 88.9108 101.092ZM121.017 102.753C120.957 102.753 120.895 102.739 120.841 102.709C120.659 102.612 120.59 102.388 120.689 102.207C121.129 101.391 121.536 100.498 121.891 99.5544C121.963 99.3628 122.179 99.2661 122.37 99.3382C122.564 99.41 122.661 99.6235 122.589 99.8148C122.221 100.789 121.802 101.712 121.345 102.558C121.278 102.682 121.149 102.753 121.017 102.753ZM92.8443 105.523C92.7574 105.523 92.668 105.492 92.596 105.429C92.0422 104.936 91.5009 104.411 90.9918 103.87C90.813 103.681 90.6392 103.49 90.4678 103.296C90.3313 103.143 90.3462 102.909 90.5001 102.774C90.6541 102.638 90.89 102.654 91.0266 102.807C91.1929 102.995 91.3618 103.18 91.5356 103.363C92.0298 103.889 92.5538 104.398 93.0927 104.877C93.2466 105.014 93.259 105.248 93.1224 105.4C93.048 105.482 92.9462 105.523 92.8443 105.523ZM104.985 105.603C104.801 105.603 104.64 105.466 104.617 105.278C104.496 104.283 104.426 103.276 104.409 102.286C104.406 102.081 104.57 101.913 104.776 101.909C104.779 101.909 104.781 101.909 104.781 101.909C104.985 101.909 105.151 102.071 105.154 102.273C105.171 103.238 105.238 104.219 105.358 105.189C105.38 105.392 105.236 105.576 105.032 105.601C105.015 105.602 105 105.603 104.985 105.603ZM117.342 107.372C117.235 107.372 117.131 107.328 117.056 107.241C116.925 107.085 116.944 106.852 117.101 106.72C117.461 106.416 117.806 106.092 118.131 105.755C118.469 105.405 118.797 105.029 119.102 104.637C119.229 104.476 119.465 104.448 119.626 104.573C119.788 104.699 119.818 104.932 119.691 105.093C119.368 105.505 119.023 105.899 118.67 106.268C118.328 106.622 117.963 106.964 117.583 107.284C117.513 107.343 117.426 107.372 117.342 107.372ZM97.7314 108.886C97.6743 108.886 97.6147 108.873 97.5601 108.845C96.676 108.39 95.8044 107.867 94.97 107.292C94.8011 107.175 94.7589 106.945 94.8756 106.776C94.9923 106.608 95.2258 106.567 95.3946 106.683C96.2017 107.241 97.046 107.747 97.9027 108.187C98.0865 108.281 98.1585 108.504 98.0641 108.686C97.9971 108.813 97.868 108.886 97.7314 108.886ZM112.167 110.236C112.01 110.236 111.864 110.138 111.811 109.983C111.747 109.789 111.854 109.58 112.047 109.515C112.979 109.205 113.875 108.815 114.712 108.355C114.891 108.257 115.119 108.321 115.219 108.5C115.318 108.679 115.253 108.904 115.072 109.003C114.195 109.485 113.257 109.893 112.283 110.217C112.246 110.23 112.204 110.236 112.167 110.236ZM103.341 110.825C103.319 110.825 103.296 110.823 103.274 110.818C102.293 110.637 101.307 110.374 100.344 110.039C100.148 109.972 100.046 109.76 100.113 109.567C100.182 109.375 100.393 109.273 100.59 109.34C101.518 109.663 102.467 109.916 103.411 110.091C103.612 110.128 103.746 110.322 103.709 110.523C103.674 110.7 103.517 110.825 103.341 110.825ZM106.294 111.373C106.137 111.373 105.993 111.275 105.941 111.12C105.623 110.176 105.35 109.204 105.131 108.232C105.084 108.033 105.211 107.834 105.412 107.79C105.613 107.743 105.812 107.87 105.857 108.069C106.033 108.848 106.244 109.625 106.485 110.388C107.396 110.393 108.315 110.329 109.216 110.192C109.418 110.165 109.609 110.301 109.641 110.503C109.671 110.705 109.532 110.894 109.328 110.925C108.442 111.058 107.54 111.127 106.644 111.129C106.607 111.231 106.525 111.316 106.413 111.354C106.373 111.367 106.333 111.373 106.294 111.373ZM108.75 116.76C108.621 116.76 108.496 116.694 108.427 116.576L108.313 116.383C107.853 115.587 107.426 114.755 107.041 113.911C106.957 113.725 107.041 113.506 107.227 113.421C107.416 113.338 107.637 113.42 107.722 113.606C108.094 114.429 108.511 115.238 108.958 116.014L109.07 116.203C109.174 116.38 109.115 116.606 108.936 116.709C108.876 116.744 108.812 116.76 108.75 116.76ZM112.229 121.557C112.127 121.557 112.023 121.514 111.948 121.43C111.285 120.675 110.654 119.887 110.073 119.087C109.952 118.921 109.989 118.69 110.155 118.57C110.322 118.45 110.555 118.488 110.677 118.653C111.245 119.435 111.861 120.205 112.509 120.943C112.646 121.097 112.628 121.33 112.475 121.465C112.405 121.526 112.316 121.557 112.229 121.557ZM116.527 125.65C116.445 125.65 116.363 125.623 116.294 125.568C115.509 124.94 114.749 124.276 114.032 123.593C113.883 123.452 113.878 123.218 114.019 123.07C114.163 122.922 114.397 122.917 114.546 123.058C115.248 123.726 115.993 124.377 116.761 124.991C116.922 125.119 116.947 125.352 116.818 125.512C116.743 125.603 116.636 125.65 116.527 125.65ZM121.449 128.977C121.387 128.977 121.325 128.962 121.265 128.929C120.394 128.436 119.534 127.903 118.712 127.347C118.541 127.233 118.496 127.002 118.613 126.833C118.73 126.664 118.961 126.62 119.13 126.735C119.937 127.28 120.781 127.802 121.635 128.285C121.812 128.386 121.876 128.613 121.774 128.79C121.705 128.91 121.578 128.977 121.449 128.977ZM152.85 130.903C152.718 130.903 152.589 130.833 152.522 130.71C152.425 130.53 152.492 130.305 152.671 130.208C153.535 129.743 154.367 129.22 155.147 128.654C155.313 128.533 155.544 128.569 155.666 128.734C155.788 128.899 155.753 129.131 155.586 129.252C154.779 129.838 153.92 130.378 153.026 130.859C152.972 130.889 152.91 130.903 152.85 130.903ZM126.835 131.504C126.791 131.504 126.746 131.496 126.701 131.48C125.767 131.124 124.836 130.73 123.935 130.307C123.749 130.22 123.669 129.999 123.756 129.814C123.845 129.629 124.066 129.551 124.253 129.638C125.137 130.053 126.051 130.439 126.967 130.788C127.161 130.861 127.255 131.075 127.183 131.266C127.126 131.414 126.984 131.504 126.835 131.504ZM147.312 133.05C147.146 133.05 146.994 132.939 146.95 132.773C146.9 132.575 147.019 132.373 147.218 132.321C148.176 132.075 149.118 131.774 150.012 131.429C150.203 131.355 150.419 131.449 150.493 131.64C150.568 131.83 150.473 132.045 150.282 132.119C149.358 132.475 148.392 132.784 147.404 133.038C147.374 133.046 147.342 133.05 147.312 133.05ZM132.542 133.189C132.517 133.189 132.49 133.186 132.465 133.181C131.68 133.015 130.89 132.821 130.121 132.605C129.929 132.552 129.738 132.497 129.549 132.441C129.351 132.383 129.239 132.176 129.299 131.981C129.356 131.785 129.564 131.672 129.761 131.731C129.949 131.786 130.135 131.84 130.322 131.893C131.077 132.104 131.851 132.294 132.619 132.456C132.82 132.499 132.949 132.696 132.907 132.895C132.87 133.069 132.713 133.189 132.542 133.189ZM141.427 133.924C141.228 133.924 141.064 133.77 141.054 133.572C141.044 133.368 141.203 133.194 141.407 133.184C142.398 133.136 143.381 133.04 144.337 132.9C144.541 132.87 144.73 133.009 144.759 133.212C144.789 133.415 144.65 133.603 144.447 133.632C143.468 133.776 142.457 133.874 141.444 133.924C141.439 133.924 141.432 133.924 141.427 133.924ZM138.447 133.935C138.442 133.935 138.437 133.935 138.432 133.934C137.441 133.893 136.431 133.808 135.432 133.681C135.229 133.655 135.085 133.47 135.109 133.267C135.134 133.064 135.321 132.922 135.527 132.947C136.505 133.071 137.491 133.154 138.462 133.194C138.668 133.203 138.827 133.375 138.819 133.58C138.812 133.779 138.646 133.935 138.447 133.935Z" fill="#FEC99E"/>
<path d="M69.2371 177.418L66.359 186.83L62.1523 185.625L65.2118 175.733L69.2371 177.418Z" fill="white"/>
<path d="M62.6212 185.374L66.1127 186.374L68.7871 177.63L65.4496 176.234L62.6212 185.374ZM66.6118 187.287L61.6875 185.877L64.9778 175.233L69.6935 177.207L66.6118 187.287Z" fill="#333A43"/>
<path d="M66.7487 185.411L62.552 184.088C62.254 183.994 61.9287 184.087 61.73 184.325C61.0695 185.107 59.6416 186.971 59.1077 188.997C58.9612 189.55 59.2816 190.121 59.8304 190.294L65.7927 192.173C67.1038 192.586 68.4547 192.856 69.823 192.979C69.823 192.979 74.2283 193.442 74.2805 192.047C74.355 190.044 71.3875 189.644 70.9877 189.239C69.4629 187.687 67.8662 186.238 67.2801 185.713C67.1262 185.575 66.9449 185.473 66.7487 185.411Z" fill="white"/>
<path d="M62.3199 184.422C62.2032 184.422 62.0939 184.472 62.0169 184.563C61.4234 185.265 59.9906 187.113 59.4691 189.09C59.3747 189.453 59.5808 189.827 59.9434 189.941L65.9057 191.82C67.187 192.224 68.5181 192.49 69.8566 192.611C71.0709 192.738 73.2065 192.749 73.795 192.241C73.8919 192.156 73.9068 192.086 73.9093 192.033C73.954 190.82 72.536 190.285 71.5973 189.931C71.1677 189.769 70.8846 189.662 70.7232 189.497C69.2134 187.962 67.639 186.531 67.0306 185.987C66.9164 185.885 66.7848 185.81 66.6382 185.764L62.4415 184.441C62.4018 184.429 62.3596 184.422 62.3199 184.422ZM71.3515 193.426C70.5792 193.426 69.9336 193.363 69.7846 193.348C68.3964 193.222 67.0132 192.946 65.6822 192.526L59.7199 190.647C58.9774 190.413 58.5528 189.647 58.7489 188.903C59.3077 186.781 60.82 184.828 61.4457 184.087C61.7437 183.733 62.223 183.596 62.665 183.735L66.8617 185.058C67.1125 185.136 67.336 185.264 67.5297 185.438C68.1431 185.986 69.7299 187.429 71.2546 188.98C71.3192 189.034 71.6197 189.148 71.8606 189.238C72.9308 189.641 74.7188 190.316 74.6542 192.061C74.6443 192.344 74.5152 192.6 74.2842 192.801C73.6932 193.31 72.4044 193.426 71.3515 193.426Z" fill="#333A43"/>
<path d="M66.5637 189.698C66.4544 189.698 66.3477 189.651 66.2732 189.56C66.144 189.4 66.1714 189.167 66.3303 189.039L68.8012 187.071C68.9626 186.943 69.196 186.969 69.3251 187.128C69.4542 187.288 69.4269 187.521 69.268 187.648L66.7971 189.617C66.7276 189.672 66.6456 189.698 66.5637 189.698Z" fill="#333A43"/>
<path d="M67.8789 191.161C67.7721 191.161 67.6628 191.114 67.5883 191.023C67.4617 190.863 67.4865 190.63 67.648 190.502L70.1163 188.534C70.2777 188.406 70.5112 188.432 70.6403 188.591C70.7694 188.751 70.7446 188.984 70.5832 189.111L68.1123 191.08C68.0428 191.135 67.9608 191.161 67.8789 191.161Z" fill="#333A43"/>
<path d="M93.0665 179.778L92.8654 186.495L88.1074 186.493L88.4402 179.48L93.0665 179.778Z" fill="white"/>
<path d="M88.4966 186.122L92.502 186.123L92.6808 180.123L88.7945 179.872L88.4966 186.122ZM93.2272 186.864L87.7168 186.862L88.0868 179.084L93.4482 179.43L93.2272 186.864Z" fill="#333A43"/>
<path d="M92.6786 186.393L88.2609 186.391C87.948 186.391 87.6649 186.579 87.5457 186.87C87.1533 187.825 86.3562 190.059 86.4605 192.178C86.4903 192.757 86.9695 193.211 87.5481 193.211L100.511 193.216C101.104 193.216 101.559 192.67 101.44 192.084C101.298 191.382 100.804 190.459 99.3834 189.629C97.0839 188.285 94.1909 186.94 93.2795 186.524C93.0908 186.438 92.8847 186.393 92.6786 186.393Z" fill="white"/>
<path d="M88.2605 186.762C88.0966 186.762 87.9525 186.86 87.8905 187.011C87.5378 187.87 86.7283 190.091 86.8326 192.16C86.8525 192.542 87.1653 192.841 87.5478 192.842L100.51 192.846C100.682 192.846 100.843 192.77 100.955 192.636C101.064 192.502 101.109 192.328 101.074 192.158C100.905 191.333 100.257 190.569 99.1943 189.949C96.8923 188.603 93.9645 187.246 93.1227 186.861C92.9836 186.797 92.8322 186.764 92.6782 186.764L88.2605 186.762ZM100.51 193.587C100.51 193.587 100.51 193.587 100.508 193.587L87.5478 193.582C86.768 193.582 86.1273 192.973 86.0901 192.197C85.9784 189.98 86.8301 187.636 87.2001 186.731C87.3764 186.3 87.7936 186.022 88.2605 186.022L92.6782 186.024C92.9414 186.024 93.1947 186.079 93.4356 186.188C94.2849 186.576 97.24 187.947 99.5717 189.31C101.151 190.233 101.658 191.288 101.804 192.011C101.884 192.399 101.784 192.798 101.531 193.105C101.278 193.411 100.905 193.587 100.51 193.587Z" fill="#333A43"/>
<path d="M93.6951 190.603C93.623 190.603 93.5535 190.583 93.489 190.541C93.3176 190.429 93.2704 190.199 93.3846 190.028L95.1478 187.377C95.2595 187.206 95.4905 187.159 95.6643 187.272C95.8356 187.385 95.8828 187.614 95.7686 187.785L94.0055 190.436C93.9334 190.544 93.8143 190.603 93.6951 190.603Z" fill="#333A43"/>
<path d="M95.3983 191.614C95.3288 191.614 95.2567 191.595 95.1946 191.553C95.0233 191.44 94.9761 191.21 95.0879 191.04L96.851 188.389C96.9652 188.218 97.1961 188.171 97.3675 188.284C97.5388 188.396 97.586 188.626 97.4743 188.797L95.7112 191.448C95.6392 191.556 95.52 191.614 95.3983 191.614Z" fill="#333A43"/>
<path d="M73.1221 122.633C73.1221 122.633 70.9517 128.023 70.5295 133.548C70.1074 139.073 64.3363 172.425 62.6055 180.829C62.6055 180.829 66.4793 182.983 68.6869 182.63C68.6869 182.63 81.1579 157.945 83.1892 139.557C85.2205 121.168 84.627 122.637 84.627 122.637L73.1221 122.633Z" fill="#333A43"/>
<path d="M76.9523 124.703C76.9523 124.703 76.252 134.664 79.7285 141.706C83.2051 148.748 87.3795 176.123 87.0889 183.084C87.0889 183.084 91.4918 184.242 93.5802 183.43C93.5802 183.43 99.9026 143.971 91.8494 124.569L76.9523 124.703Z" fill="#333A43"/>
<path d="M81.8457 149.53C81.6719 149.53 81.5155 149.406 81.4807 149.227C81.4757 149.199 80.9343 146.354 79.6381 144.074C77.649 140.578 76.9239 136.372 76.8941 136.195C76.8593 135.993 76.9959 135.803 77.1995 135.769C77.4007 135.735 77.5944 135.871 77.6266 136.073C77.6341 136.115 78.3617 140.33 80.2862 143.71C81.6445 146.1 82.1909 148.971 82.2133 149.093C82.2505 149.294 82.1164 149.487 81.9153 149.524C81.8929 149.528 81.8705 149.53 81.8457 149.53Z" fill="#FFF4E9"/>
<path d="M77.2986 100.423L75.23 98.1421C74.3385 95.8787 71.8527 93.9186 69.7668 92.6507C61.1126 87.3928 62.3294 77.4108 62.2773 73.3703L58.9845 73.8762C58.9845 73.8762 50.8767 94.8383 70.8371 104.857L77.2986 100.423Z" fill="white"/>
<path d="M59.2616 74.2074C58.9065 75.2218 57.3867 79.9658 57.799 85.6077C58.4148 94.0039 62.7903 100.334 70.8088 104.425L76.7388 100.356L74.9558 98.388C74.926 98.355 74.9012 98.3169 74.8838 98.2752C73.9451 95.8914 71.154 93.9247 69.5746 92.9643C61.6555 88.1537 61.8094 79.4889 61.8939 74.8343C61.8988 74.4567 61.9063 74.1136 61.9088 73.8001L59.2616 74.2074ZM70.8386 105.226C70.7815 105.226 70.7244 105.212 70.6697 105.186C60.2028 99.9319 57.4886 91.6539 57.054 85.6344C56.5871 79.1342 58.5539 73.9581 58.6383 73.7409C58.6855 73.6175 58.7948 73.5286 58.9289 73.5089L62.2217 73.0004C62.3285 72.9856 62.4377 73.0152 62.5197 73.0843C62.6016 73.1534 62.6488 73.2546 62.6513 73.3632C62.6562 73.7977 62.6488 74.3061 62.6389 74.8467C62.5569 79.3542 62.4079 87.743 69.962 92.3327C71.6084 93.3331 74.5113 95.3857 75.5518 97.9415L77.5757 100.173C77.6477 100.252 77.6825 100.358 77.6701 100.464C77.6577 100.57 77.6005 100.665 77.5111 100.726L71.0497 105.16C70.9876 105.203 70.9131 105.226 70.8386 105.226Z" fill="#333A43"/>
<path d="M60.1358 74.2774C59.9495 74.2207 59.7583 74.1367 59.5646 74.0257C58.6235 73.4851 57.4117 71.7573 57.8984 70.6318C58.5987 69.0201 62.326 69.3582 63.0238 70.7898C63.8706 72.525 62.0231 74.8624 60.1358 74.2774Z" fill="white"/>
<path d="M60.1959 69.9301C60.1661 69.9301 60.1338 69.9301 60.1015 69.9326C59.1578 69.9523 58.4625 70.2683 58.2415 70.7767C57.8616 71.6554 58.912 73.2228 59.7513 73.7041C59.9152 73.7979 60.0841 73.8719 60.248 73.9238C61.0724 74.178 61.8298 73.7337 62.2644 73.2327C62.8604 72.5415 63.0292 71.6456 62.689 70.9495C62.4059 70.3695 61.3233 69.9301 60.1959 69.9301ZM60.7322 74.7383C60.4963 74.7383 60.2579 74.7037 60.0245 74.6297C59.8085 74.563 59.5924 74.4668 59.3789 74.3458C58.3905 73.7781 56.9502 71.8825 57.5561 70.4855C57.8963 69.7031 58.8425 69.2193 60.0866 69.1921C61.3183 69.1699 62.8604 69.6019 63.3595 70.6262C63.8288 71.5888 63.6203 72.8007 62.8281 73.7164C62.2545 74.3754 61.4946 74.7383 60.7322 74.7383Z" fill="#333A43"/>
<path d="M110.187 93.3795C119.211 99.2372 114.106 117.663 100.15 111.227L99.2285 101.891C111.292 107.062 110.463 99.9692 107.331 92.327L110.187 93.3795Z" fill="white"/>
<path d="M100.499 110.979C105.853 113.371 110.486 112.204 112.922 107.837C115.339 103.51 114.743 96.8115 110.017 93.7126L107.986 92.964C110.027 98.1945 110.238 101.501 108.636 103.062C107.131 104.527 104.194 104.336 99.6593 102.475L100.499 110.979ZM105.617 112.932C103.95 112.932 102.073 112.523 99.992 111.563C99.8728 111.508 99.7909 111.394 99.7785 111.263L98.8571 101.928C98.8447 101.797 98.9019 101.67 99.0087 101.593C99.1154 101.516 99.2545 101.499 99.3737 101.552C103.866 103.477 106.806 103.808 108.115 102.534C109.535 101.15 109.155 97.7635 106.985 92.4672C106.93 92.3312 106.96 92.1754 107.062 92.0698C107.166 91.9644 107.323 91.9288 107.459 91.9804L110.315 93.0329C110.34 93.0425 110.365 93.0546 110.389 93.0699C115.495 96.3845 116.158 103.567 113.575 108.196C112.135 110.776 109.438 112.932 105.617 112.932Z" fill="#333A43"/>
<path d="M108.208 93.5041C108.004 93.4407 107.793 93.3496 107.58 93.2269C106.549 92.6353 105.223 90.7429 105.757 89.5095C106.522 87.743 110.607 88.1134 111.372 89.6823C112.298 91.5826 110.277 94.1448 108.208 93.5041Z" fill="white"/>
<path d="M108.271 88.7069C108.237 88.7069 108.202 88.7072 108.167 88.7079C107.119 88.7311 106.344 89.085 106.099 89.6554C105.666 90.6509 106.816 92.3602 107.765 92.9061C107.951 93.012 108.135 93.094 108.316 93.15V93.1502C109.237 93.4341 110.079 92.9404 110.563 92.3823C111.229 91.6152 111.413 90.6186 111.035 89.8435C110.72 89.1966 109.518 88.7069 108.271 88.7069ZM108.86 93.9727C108.604 93.9727 108.346 93.9349 108.095 93.8569C107.862 93.7846 107.626 93.6807 107.392 93.5471C106.322 92.932 104.758 90.876 105.413 89.3622C105.778 88.5186 106.804 87.9973 108.152 87.9677C109.481 87.9442 111.164 88.4117 111.706 89.5204C112.212 90.5615 111.986 91.8746 111.127 92.8654C110.509 93.5817 109.684 93.9727 108.86 93.9727Z" fill="#333A43"/>
<path d="M101.356 102.119C101.346 101.87 101.227 101.64 101.033 101.482C100.333 100.916 97.7952 99.6561 95.6125 98.4148C93.2037 97.0442 91.0681 96.1842 88.2918 96.2183L78.8951 95.7116C76.2753 95.6995 74.7704 95.212 72.5926 93.93C70.0498 92.4325 68.4381 90.3175 67.7974 89.6197C67.6782 89.4918 67.4721 89.521 67.3902 89.6742L61.9121 100.093C61.9121 100.093 66.1461 103.937 71.7334 108.208C71.9122 108.344 72.1456 112.593 72.1208 112.815L70.3726 128.664C70.2261 129.764 95.0289 131.536 94.9569 130.388C94.7259 126.687 93.4197 123.612 93.971 111.966C93.9909 111.549 94.3758 111.244 94.788 111.324C95.9775 111.553 98.3713 112.006 100.793 112.415C101.346 112.509 101.845 112.067 101.818 111.509L101.356 102.119Z" fill="#FB9946"/>
<path d="M70.7411 128.693V128.704C70.7411 128.7 70.7411 128.697 70.7411 128.693ZM70.7584 128.538C71.5432 128.901 75.8094 129.514 82.6284 129.998C89.4102 130.479 93.7112 130.474 94.5704 130.224C94.5034 129.302 94.3718 128.406 94.2203 127.38C93.7882 124.463 93.1947 120.467 93.597 111.949C93.6119 111.641 93.7609 111.355 94.0042 111.165C94.2451 110.977 94.5556 110.903 94.856 110.96C96.0604 111.193 98.4419 111.643 100.853 112.05C101.005 112.076 101.159 112.032 101.275 111.931C101.389 111.828 101.452 111.681 101.444 111.527L100.985 102.137C100.985 102.137 100.985 102.137 100.985 102.137C100.977 101.994 100.908 101.86 100.796 101.77C100.381 101.433 99.1645 100.777 97.8757 100.082C97.0686 99.6457 96.2318 99.1947 95.4272 98.7364C93.1177 97.423 91.0269 96.5451 88.2953 96.5888L78.8738 96.0813C76.316 96.0702 74.7391 95.6249 72.4024 94.2489C70.1799 92.9414 68.67 91.1949 67.8605 90.2565C67.7785 90.1622 67.704 90.0763 67.637 90.001L62.3725 100.01C63.2987 100.838 67.1478 104.237 71.9579 107.915C72.1143 108.034 72.2087 108.105 72.3726 110.454C72.4346 111.337 72.5092 112.677 72.4893 112.856L70.7584 128.538ZM91.6427 131.13C88.3921 131.13 83.8974 130.829 82.6657 130.743C81.5283 130.663 71.5059 129.934 70.2568 129.103C70.0011 128.933 69.9861 128.725 70.001 128.616L71.7493 112.775C71.7642 112.469 71.5655 109.056 71.424 108.44C65.9285 104.232 61.702 100.405 61.6598 100.366C61.5331 100.253 61.5008 100.07 61.5803 99.9214L67.0584 89.5029C67.1527 89.323 67.3315 89.2001 67.5327 89.1744C67.7313 89.149 67.935 89.222 68.0691 89.3706C68.1659 89.4755 68.2851 89.6123 68.4242 89.7739C69.2089 90.68 70.6666 92.3666 72.7823 93.6116C75.0148 94.9261 76.4427 95.3302 78.8961 95.3413L88.3102 95.8488C91.1833 95.8021 93.381 96.7201 95.7972 98.0937C96.5943 98.5478 97.4262 98.997 98.2308 99.4307C99.609 100.174 100.796 100.816 101.268 101.195C101.543 101.418 101.71 101.748 101.727 102.101L102.189 111.491C102.209 111.871 102.055 112.233 101.769 112.484C101.484 112.736 101.104 112.844 100.729 112.78C98.3102 112.372 95.9238 111.92 94.7145 111.687C94.5953 111.664 94.5059 111.715 94.4637 111.748C94.3892 111.805 94.347 111.889 94.342 111.984C93.9422 120.43 94.5282 124.385 94.9554 127.272C95.1217 128.384 95.2633 129.345 95.3278 130.365C95.3328 130.453 95.3179 130.672 95.0547 130.822C94.6549 131.051 93.3139 131.13 91.6427 131.13Z" fill="#333A43"/>
<path d="M81.2614 89.1479L80.4991 96.6393C80.3923 97.5565 81.0925 98.3703 82.0213 98.4063L84.2686 98.4929C85.18 98.528 85.9324 97.8008 85.925 96.8962L85.8703 89.7428L81.2614 89.1479Z" fill="white"/>
<path d="M81.5931 89.5632L80.868 96.6754C80.8282 97.021 80.9301 97.3515 81.1535 97.6112C81.377 97.8713 81.6899 98.0216 82.0351 98.0349L84.2825 98.1218C84.6202 98.1359 84.9381 98.0135 85.1814 97.7802C85.4223 97.547 85.5539 97.2335 85.5514 96.8983L85.4993 90.0672L81.5931 89.5632ZM84.3321 98.8633C84.3073 98.8633 84.28 98.8628 84.2527 98.8618L82.0053 98.7749C81.459 98.7537 80.9425 98.5051 80.5874 98.0929C80.2323 97.6805 80.0659 97.1348 80.128 96.5952L80.8903 89.1095C80.9003 89.0103 80.9499 88.919 81.0294 88.8568C81.1088 88.7946 81.2082 88.7659 81.3075 88.7798L85.9165 89.3744C86.1027 89.3983 86.2418 89.5538 86.2418 89.7387L86.2964 96.8921C86.3014 97.4319 86.0903 97.9362 85.7004 98.3116C85.3279 98.669 84.8462 98.8633 84.3321 98.8633Z" fill="#333A43"/>
<path d="M84.8874 79.9266C83.0821 80.1692 82.8363 82.1964 80.6758 82.4338C79.6875 82.5427 79.1908 82.1773 78.3143 82.5955C77.7332 82.8724 76.8889 83.5393 76.8019 84.4225C76.6902 85.5473 77.9318 85.7904 79.1983 87.9558C80.0873 89.4764 80.1419 90.4944 80.8497 90.6047C81.5648 90.7162 81.8852 89.7339 82.6749 89.7973C83.7004 89.8795 83.832 91.5782 84.9123 92.0849C85.5927 92.4045 87.0206 92.3386 89.0345 90.8404C89.3598 90.5978 89.4666 90.1577 89.2853 89.7949C89.0519 89.3301 88.7539 88.7444 88.4236 88.2083C86.8467 85.6539 85.7318 85.2224 85.9528 84.4395C86.2905 83.2397 88.5055 83.4631 88.6769 82.498C88.8532 81.4956 86.7449 79.677 84.8874 79.9266Z" fill="#333A43"/>
<path d="M82.4023 84.8093C82.4023 84.8093 83.9892 88.1246 84.5976 88.9532C85.2084 89.7816 87.9325 88.1002 87.9325 88.1002L87.9996 87.5031L88.3249 87.2923C88.4267 87.2269 88.4913 87.1196 88.5037 87.0003C88.5161 86.8811 88.4739 86.7629 88.387 86.6785C87.7314 86.0308 86.3383 84.5607 85.6604 83.1304C85.6604 83.1304 83.8178 82.6646 82.4023 84.8093Z" fill="white"/>
<path d="M82.8315 84.8414C83.1767 85.5562 84.3984 88.0548 84.9 88.7338C85.0987 89.0063 86.3751 88.5924 87.582 87.8779L87.6291 87.461C87.6416 87.3511 87.7036 87.2524 87.7955 87.1919L88.1208 86.9814L88.1258 86.9409C87.4032 86.2298 86.1193 84.8572 85.4091 83.4646C84.9919 83.4222 83.8323 83.455 82.8315 84.8414ZM85.1757 89.5479C84.8106 89.5479 84.4978 89.4427 84.2966 89.1707C83.6733 88.3241 82.1312 85.1043 82.0642 84.9678C82.0095 84.8508 82.0195 84.7136 82.0915 84.6055C83.6336 82.2673 85.6649 82.7491 85.7518 82.7708C85.8586 82.7985 85.948 82.872 85.9977 82.9722C86.6582 84.372 88.0736 85.846 88.6498 86.4149C88.8161 86.5788 88.8981 86.8054 88.8732 87.0369C88.8509 87.2694 88.7242 87.4753 88.5281 87.6022L88.3493 87.7172L88.3021 88.1407C88.2897 88.2533 88.2251 88.3542 88.1283 88.4142C87.6068 88.7353 86.1888 89.5479 85.1757 89.5479Z" fill="#333A43"/>
<path d="M82.9759 87.5033C82.9759 87.5033 81.7243 85.9784 81.1457 86.6917C80.5671 87.405 81.99 89.0491 82.9759 87.5033Z" fill="white"/>
<path d="M148.626 49.5749C146.732 56.064 142.945 61.5015 138.03 65.4556C133.985 68.7113 129.185 70.9697 124.052 71.9817C119.172 72.9492 113.98 72.7986 108.867 71.3226C106.801 70.7278 104.849 69.9478 103.006 69C96.7583 65.7839 91.8986 60.6746 88.9385 54.6176C86.2715 49.1578 85.1541 42.9304 85.976 36.629C86.1846 35.0271 89.1347 31.9862 89.6041 30.3794C90.7489 26.4549 91.2356 24.1125 92.9614 21.3999C93.3414 20.8026 93.4035 19.9511 93.9721 19.3266C100.339 12.3069 109.656 8.34536 119.368 8.8316C119.416 8.83407 119.46 8.83654 119.508 8.839C121.909 8.95748 123.816 11.7589 126.23 12.455C129.528 13.4053 133.064 12.4328 135.763 14.2445C135.835 14.2938 135.909 14.3432 135.981 14.3926C141.981 18.4874 146.347 24.4729 148.457 31.2556C150.054 36.355 150.377 41.8987 149.173 47.4276C149.014 48.1434 148.832 48.8641 148.626 49.5749Z" fill="white"/>
<path d="M149.173 47.4277L142.773 38.352L148.458 31.2558C150.054 36.3552 150.377 41.8989 149.173 47.4277Z" fill="#333A43"/>
<path d="M135.982 14.3927L125.505 17.752L119.369 8.83171C121.815 8.94278 124.286 9.34757 126.747 10.0584C130.134 11.0334 133.226 12.5094 135.982 14.3927Z" fill="#333A43"/>
<path d="M97.0494 27.5433L85.9766 36.6289C86.1852 35.027 86.5179 33.4103 86.9872 31.8059C88.3853 27.0151 90.8214 22.7895 93.9727 19.3265L97.0494 27.5433Z" fill="#333A43"/>
<path d="M103.007 69C96.7592 65.7839 91.8995 60.6746 88.9395 54.6175L101.088 56.7846L103.007 69Z" fill="#333A43"/>
<path d="M138.029 65.4564C133.984 68.712 129.184 70.9704 124.051 71.9824L127.808 64.2618L138.029 65.4564Z" fill="#333A43"/>
<path d="M107.319 48.3687L106.914 31.5254L122.529 25.7423L132.579 39.0387L123.199 52.9473L107.319 48.3687Z" fill="#333A43"/>
<path d="M98.3669 59.3408C98.2874 59.3408 98.2104 59.3161 98.1459 59.2618C97.9994 59.1409 97.9795 58.9237 98.1012 58.7781L111.096 43.2602C111.22 43.1146 111.436 43.0948 111.585 43.2158C111.732 43.3367 111.752 43.5539 111.628 43.6995L98.6326 59.2174C98.563 59.2989 98.4662 59.3408 98.3669 59.3408Z" fill="#333A43"/>
<path d="M128.988 68.5459C128.847 68.5459 128.715 68.4595 128.663 68.3188L121.491 49.0468C121.427 48.8666 121.519 48.6691 121.697 48.6025C121.876 48.5358 122.075 48.6272 122.142 48.8074L129.311 68.0819C129.378 68.2596 129.286 68.4571 129.108 68.5237C129.068 68.5385 129.028 68.5459 128.988 68.5459Z" fill="#333A43"/>
<path d="M129.998 39.2852C129.814 39.2852 129.66 39.142 129.653 38.9569C129.645 38.7668 129.792 38.6064 129.983 38.5965L147.512 37.8536C147.517 37.8536 147.522 37.8536 147.527 37.8536C147.711 37.8536 147.865 37.9968 147.872 38.1819C147.88 38.3719 147.733 38.5324 147.542 38.5398L130.013 39.2852C130.008 39.2852 130.003 39.2852 129.998 39.2852Z" fill="#333A43"/>
<path d="M121.078 29.2314C121.034 29.2314 120.989 29.224 120.947 29.2068C120.771 29.1352 120.686 28.9328 120.758 28.7575L126.648 14.3726C126.72 14.1949 126.922 14.111 127.1 14.1825C127.277 14.2541 127.361 14.4541 127.289 14.6318L121.399 29.0167C121.344 29.15 121.215 29.2314 121.078 29.2314Z" fill="#333A43"/>
<path d="M110.631 34.0762C110.587 34.0762 110.542 34.0663 110.497 34.049L91.8851 26.2518C91.7088 26.1778 91.6268 25.9754 91.7013 25.8002C91.7758 25.6249 91.977 25.5435 92.1533 25.6175L110.765 33.4147C110.942 33.4887 111.026 33.6887 110.952 33.8639C110.894 33.9947 110.768 34.0762 110.631 34.0762Z" fill="#333A43"/>
<path d="M118.171 9.34382C104.486 9.34382 91.8488 18.2715 87.8507 31.9752C83.0034 48.584 92.6558 66.0172 109.366 70.8352C117.461 73.1702 125.986 72.2298 133.371 68.1917C140.754 64.1512 146.115 57.4968 148.462 49.4503C153.309 32.8391 143.657 15.4083 126.947 10.5903C124.022 9.74614 121.072 9.34382 118.171 9.34382ZM118.204 72.832C115.181 72.832 112.142 72.4075 109.16 71.5461C92.0549 66.6145 82.174 48.7716 87.1355 31.7678C92.0971 14.7666 110.049 4.94788 127.156 9.87944C135.44 12.2687 142.296 17.7211 146.456 25.2344C150.615 32.7453 151.581 41.4187 149.177 49.6552L148.82 49.5515L149.177 49.6552C146.776 57.8917 141.288 64.7041 133.729 68.8384C128.892 71.4844 123.575 72.832 118.204 72.832Z" fill="#333A43"/>
<path d="M197.882 190.767L197.887 196.175C197.889 197.813 195.982 199.456 192.15 200.727C184.489 203.268 171.989 203.376 163.98 200.999C163.848 200.96 163.717 200.921 163.588 200.881C159.53 199.611 157.494 197.923 157.491 196.231L157.486 190.823C157.489 192.516 159.528 194.204 163.585 195.473C163.714 195.514 163.843 195.553 163.975 195.592C171.984 197.969 184.487 197.862 192.148 195.32C195.977 194.049 197.884 192.406 197.882 190.767Z" fill="#FB9946"/>
<path d="M191.39 185.997C191.524 186.036 191.653 186.076 191.782 186.116C199.771 188.615 199.932 192.735 192.147 195.318C184.486 197.86 171.983 197.967 163.975 195.591C163.843 195.552 163.714 195.512 163.585 195.472C155.599 192.973 155.435 188.853 163.22 186.27C170.881 183.728 183.381 183.62 191.39 185.997Z" fill="#FEC99E"/>
<path d="M193.538 184.38L193.543 189.788C193.545 191.426 191.638 193.069 187.806 194.34C180.146 196.882 167.645 196.989 159.636 194.612C159.505 194.573 159.373 194.534 159.244 194.493C155.186 193.224 153.15 191.536 153.148 189.844L153.143 184.436C153.145 186.128 155.184 187.816 159.242 189.086C159.371 189.126 159.5 189.166 159.631 189.205C167.64 191.581 180.143 191.474 187.804 188.933C191.633 187.662 193.54 186.019 193.538 184.38Z" fill="#FB9946"/>
<path d="M187.048 179.611C187.18 179.65 187.311 179.69 187.44 179.731C195.429 182.229 195.59 186.349 187.805 188.933C180.145 191.475 167.641 191.582 159.633 189.205C159.501 189.166 159.372 189.126 159.243 189.086C151.257 186.587 151.093 182.467 158.878 179.884C166.539 177.343 179.039 177.235 187.048 179.611Z" fill="#FEC99E"/>
<path d="M197.173 176.586L197.178 181.994C197.18 183.632 195.273 185.275 191.441 186.546C183.78 189.088 171.28 189.195 163.271 186.818C163.139 186.779 163.008 186.74 162.879 186.699C158.821 185.43 156.785 183.742 156.782 182.05L156.777 176.642C156.78 178.335 158.819 180.022 162.876 181.292C163.005 181.332 163.135 181.372 163.266 181.411C171.275 183.788 183.778 183.68 191.439 181.139C195.268 179.868 197.175 178.225 197.173 176.586Z" fill="#FB9946"/>
<path d="M157.154 178.527L157.156 182.049C157.156 183.62 159.284 185.186 162.992 186.346C163.121 186.386 163.248 186.425 163.379 186.463C171.276 188.808 183.814 188.687 191.326 186.195C194.81 185.038 196.809 183.507 196.806 181.994L196.804 178.471C195.873 179.614 194.087 180.65 191.557 181.49C183.792 184.065 171.318 184.187 163.161 181.766C163.027 181.726 162.895 181.686 162.763 181.645C160.039 180.792 158.127 179.721 157.154 178.527ZM176.903 188.912C171.994 188.912 167.082 188.336 163.166 187.173C163.032 187.133 162.9 187.094 162.771 187.053C158.671 185.77 156.414 183.994 156.411 182.05L156.406 176.643C156.406 176.643 156.406 176.643 156.406 176.643C156.406 176.438 156.573 176.272 156.779 176.272C156.985 176.272 157.151 176.437 157.151 176.642C157.154 178.212 159.282 179.779 162.989 180.939C163.116 180.979 163.245 181.017 163.374 181.056C171.271 183.4 183.809 183.279 191.321 180.787C194.805 179.631 196.804 178.1 196.802 176.587C196.802 176.382 196.968 176.216 197.174 176.216C197.38 176.216 197.546 176.381 197.546 176.586C197.546 176.587 197.546 176.588 197.546 176.589L197.551 181.993C197.554 183.873 195.426 185.615 191.562 186.897C187.524 188.236 182.215 188.912 176.903 188.912Z" fill="#333A43"/>
<path d="M190.682 171.817C190.813 171.857 190.945 171.896 191.074 171.937C199.063 174.435 199.224 178.555 191.439 181.139C183.778 183.68 171.275 183.788 163.267 181.411C163.135 181.372 163.006 181.333 162.877 181.292C154.888 178.794 154.727 174.673 162.512 172.09C170.172 169.549 182.673 169.441 190.682 171.817Z" fill="white"/>
<path d="M177.072 170.49C171.805 170.49 166.538 171.145 162.632 172.441C159.135 173.601 157.139 175.137 157.151 176.655C157.164 178.221 159.292 179.783 162.989 180.939C163.116 180.979 163.245 181.018 163.374 181.056C171.271 183.4 183.809 183.28 191.321 180.788C194.817 179.628 196.814 178.092 196.802 176.574C196.789 175.008 194.661 173.446 190.963 172.29C190.834 172.25 190.708 172.211 190.576 172.172C186.787 171.048 181.929 170.49 177.072 170.49ZM176.898 183.505C171.989 183.505 167.079 182.929 163.161 181.766C163.027 181.726 162.895 181.686 162.764 181.645C158.681 180.368 156.424 178.598 156.406 176.661C156.389 174.774 158.517 173.026 162.396 171.739C170.159 169.163 182.632 169.042 190.79 171.463C190.924 171.502 191.055 171.542 191.187 171.583C195.272 172.861 197.529 174.631 197.547 176.568C197.564 178.455 195.436 180.203 191.557 181.49C187.522 182.829 182.212 183.505 176.898 183.505Z" fill="#333A43"/>
<path d="M188.252 173.508L188.414 177.509C188.425 177.764 187.741 178.024 186.885 178.091C186.77 178.1 186.657 178.105 186.549 178.106L186.591 178.1C186.091 178.109 185.671 178.045 185.466 177.927C185.352 177.873 185.291 177.806 185.288 177.731L185.22 176.068C185.211 175.857 184.857 175.679 184.223 175.569C183.879 175.51 183.484 175.474 183.042 175.462L183.046 175.553L183.142 177.918C183.152 178.174 182.469 178.434 181.618 178.5C181.505 178.509 181.395 178.513 181.289 178.515L181.289 178.515C180.896 178.52 180.556 178.477 180.332 178.398L180.332 178.398L180.306 178.389L180.292 178.384L180.272 178.375L180.255 178.368L180.239 178.36L180.221 178.351L180.207 178.344L180.188 178.334L180.178 178.327L180.154 178.312L180.151 178.31L180.127 178.291L180.124 178.288L180.106 178.272L180.101 178.266L180.089 178.252L180.083 178.245L180.074 178.231L180.07 178.224L180.063 178.21L180.06 178.202L180.056 178.187L180.054 178.181L180.051 178.158L179.951 175.715L179.841 175.737C179.493 175.808 179.176 175.891 178.898 175.982C178.283 176.19 177.945 176.421 177.953 176.633L178.021 178.295C178.031 178.548 177.348 178.809 176.492 178.875C176.379 178.884 176.27 178.889 176.165 178.89L176.168 178.889C175.601 178.898 175.146 178.805 174.989 178.651L174.987 178.65L174.975 178.636L174.969 178.63L174.961 178.618L174.955 178.61L174.948 178.598L174.943 178.588L174.939 178.578L174.935 178.565L174.933 178.557L174.93 178.535L174.887 177.456C174.745 177.157 174.115 176.571 172.956 176.575C172.45 176.577 171.903 176.581 171.374 176.586C168.321 176.605 166.55 176.611 165.691 176.458C165.33 176.395 165.143 176.28 165.137 176.151C165.133 176.044 165.246 175.928 165.494 175.821L165.539 175.803C165.759 175.716 166.038 175.65 166.339 175.607L166.325 175.607C166.775 175.542 167.266 175.535 167.651 175.6C168.177 175.659 170.6 175.643 172.047 175.632C172.588 175.629 173.141 175.624 173.67 175.622C174.212 175.621 174.861 175.652 175.497 175.765L175.494 175.766C175.618 175.788 175.743 175.811 175.868 175.84C176.144 175.701 176.48 175.565 176.869 175.435C177.728 175.149 178.772 174.917 179.912 174.755L179.888 174.157L179.889 174.134L179.89 174.127L179.894 174.112L179.897 174.103L179.902 174.089L179.906 174.081L179.913 174.066L179.918 174.058L179.929 174.042L179.934 174.036L179.95 174.017L179.953 174.014L179.975 173.991L179.977 173.99L180 173.97L180.01 173.961L180.028 173.948L180.041 173.939L180.058 173.928L180.074 173.917L180.091 173.907L180.11 173.896L180.123 173.889C180.337 173.771 180.682 173.67 181.089 173.611C181.195 173.596 181.305 173.584 181.418 173.575C182.268 173.509 182.969 173.662 182.979 173.917L183.003 174.508C183.538 174.499 184.053 174.507 184.54 174.533L184.54 174.534C184.764 174.546 184.982 174.561 185.195 174.58L185.161 173.748L185.162 173.725L185.163 173.718L185.166 173.702L185.169 173.694L185.174 173.68L185.178 173.672L185.186 173.657L185.191 173.649L185.202 173.633L185.206 173.626L185.221 173.61L185.226 173.604L185.247 173.582L185.254 173.577L185.272 173.561L185.286 173.55L185.3 173.54L185.317 173.527L185.328 173.52L185.35 173.506L185.358 173.501C185.569 173.373 185.93 173.264 186.362 173.202L186.36 173.202C186.465 173.187 186.573 173.175 186.685 173.166C187.541 173.1 188.241 173.252 188.252 173.508Z" fill="#FB9946"/>
<path d="M243.386 190.208L243.391 195.882C243.393 197.602 241.392 199.326 237.374 200.66C229.333 203.327 216.214 203.44 207.808 200.946C207.672 200.905 207.535 200.863 207.398 200.821C203.14 199.488 201.002 197.717 200.999 195.941L200.994 190.267C200.997 192.042 203.137 193.814 207.394 195.146C207.53 195.188 207.667 195.23 207.803 195.271C216.209 197.765 229.328 197.652 237.369 194.985C241.389 193.651 243.388 191.927 243.386 190.208Z" fill="#FB9946"/>
<path d="M236.574 185.204C236.713 185.245 236.85 185.286 236.986 185.329C245.37 187.951 245.539 192.275 237.369 194.986C229.328 197.653 216.209 197.766 207.803 195.272C207.667 195.231 207.53 195.189 207.393 195.147C199.012 192.525 198.841 188.201 207.013 185.49C215.052 182.823 228.171 182.71 236.574 185.204Z" fill="#FEC99E"/>
<path d="M244.56 182.339L244.563 188.013C244.565 189.733 242.566 191.457 238.546 192.791C230.505 195.458 217.386 195.571 208.98 193.077C208.843 193.035 208.707 192.994 208.57 192.952C204.314 191.62 202.173 189.848 202.171 188.072L202.166 182.398C202.168 184.174 204.309 185.945 208.568 187.277C208.702 187.319 208.839 187.361 208.978 187.402C217.381 189.896 230.5 189.783 238.541 187.116C242.561 185.782 244.563 184.058 244.56 182.339Z" fill="#FB9946"/>
<path d="M237.746 177.333C237.885 177.374 238.021 177.416 238.158 177.458C246.541 180.08 246.713 184.404 238.54 187.115C230.5 189.782 217.381 189.895 208.977 187.401C208.838 187.36 208.702 187.318 208.567 187.276C200.184 184.654 200.013 180.33 208.185 177.619C216.223 174.952 229.342 174.839 237.746 177.333Z" fill="#FEC99E"/>
<path d="M241.198 174.406L241.203 180.081C241.206 181.8 239.204 183.524 235.184 184.858C227.146 187.525 214.024 187.638 205.621 185.144C205.482 185.103 205.345 185.061 205.211 185.019C200.952 183.687 198.812 181.915 198.809 180.14L198.807 174.465C198.809 176.241 200.947 178.012 205.206 179.344C205.34 179.387 205.477 179.428 205.616 179.469C214.019 181.963 227.141 181.851 235.179 179.183C239.199 177.85 241.201 176.126 241.198 174.406Z" fill="#FB9946"/>
<path d="M234.387 169.401C234.526 169.442 234.66 169.484 234.797 169.526C243.18 172.149 243.352 176.472 235.179 179.183C227.141 181.851 214.019 181.963 205.616 179.469C205.477 179.428 205.34 179.387 205.206 179.344C196.825 176.722 196.654 172.398 204.824 169.687C212.862 167.02 225.981 166.907 234.387 169.401Z" fill="#FEC99E"/>
<path d="M245.362 167.873L245.367 173.548C245.37 175.267 243.368 176.991 239.348 178.325C231.307 180.992 218.188 181.105 209.785 178.61C209.646 178.569 209.509 178.528 209.373 178.486C205.116 177.154 202.976 175.382 202.973 173.606L202.971 167.932C202.973 169.708 205.111 171.479 209.37 172.811C209.504 172.854 209.641 172.895 209.78 172.936C218.183 175.43 231.305 175.318 239.343 172.65C243.363 171.317 245.365 169.592 245.362 167.873Z" fill="#FB9946"/>
<path d="M238.552 162.868C238.691 162.909 238.825 162.95 238.962 162.993C247.345 165.615 247.517 169.939 239.344 172.65C231.306 175.317 218.184 175.43 209.781 172.936C209.642 172.895 209.505 172.853 209.371 172.811C200.988 170.189 200.819 165.865 208.989 163.154C217.027 160.487 230.146 160.374 238.552 162.868Z" fill="#FEC99E"/>
<path d="M240.439 161.401L240.444 167.076C240.446 168.796 238.445 170.52 234.424 171.853C226.386 174.521 213.264 174.633 204.861 172.139C204.722 172.098 204.585 172.057 204.451 172.014C200.192 170.682 198.054 168.911 198.052 167.135L198.047 161.46C198.049 163.236 200.187 165.007 204.446 166.34C204.583 166.382 204.719 166.423 204.856 166.464C213.262 168.959 226.381 168.846 234.422 166.179C238.44 164.845 240.441 163.121 240.439 161.401Z" fill="#FB9946"/>
<path d="M233.627 156.396C233.766 156.437 233.903 156.479 234.039 156.521C242.42 159.144 242.591 163.467 234.422 166.179C226.381 168.846 213.262 168.958 204.856 166.464C204.719 166.423 204.583 166.382 204.446 166.339C196.065 163.717 195.894 159.394 204.066 156.682C212.104 154.015 225.224 153.902 233.627 156.396Z" fill="#FEC99E"/>
<path d="M244.025 154.106L244.028 159.781C244.03 161.501 242.031 163.224 238.011 164.559C229.97 167.226 216.851 167.338 208.445 164.844C208.308 164.803 208.172 164.762 208.035 164.719C203.779 163.387 201.638 161.616 201.636 159.84L201.631 154.165C201.633 155.941 203.774 157.712 208.033 159.045C208.167 159.087 208.303 159.129 208.442 159.17C216.846 161.664 229.967 161.551 238.006 158.884C242.026 157.55 244.028 155.826 244.025 154.106Z" fill="#FB9946"/>
<path d="M202.005 156.092L202.008 159.84C202.01 161.497 204.248 163.147 208.146 164.366C208.28 164.408 208.415 164.449 208.551 164.49C216.843 166.95 230.004 166.824 237.891 164.208C241.556 162.991 243.657 161.378 243.655 159.782L243.652 156.033C242.689 157.246 240.806 158.346 238.124 159.235C229.979 161.938 216.895 162.065 208.335 159.525C208.194 159.483 208.057 159.441 207.92 159.398C205.032 158.495 203.016 157.358 202.005 156.092ZM222.75 167.023C217.6 167.023 212.447 166.419 208.338 165.199C208.199 165.158 208.062 165.116 207.923 165.073C203.632 163.73 201.265 161.872 201.263 159.841L201.258 154.166C201.258 154.166 201.258 154.166 201.258 154.166C201.258 153.961 201.424 153.795 201.63 153.795C201.836 153.795 202.003 153.96 202.003 154.165C202.005 155.822 204.243 157.472 208.144 158.692C208.275 158.734 208.412 158.775 208.546 158.815C216.84 161.276 230.002 161.149 237.888 158.533C241.551 157.317 243.652 155.704 243.652 154.107C243.652 153.903 243.818 153.737 244.022 153.736C244.025 153.736 244.025 153.736 244.025 153.736C244.228 153.736 244.397 153.902 244.397 154.106C244.397 154.107 244.397 154.108 244.397 154.109L244.399 159.781C244.402 161.745 242.175 163.567 238.127 164.91C233.893 166.315 228.323 167.023 222.75 167.023Z" fill="#333A43"/>
<path d="M237.214 149.101C237.351 149.143 237.487 149.184 237.624 149.227C246.007 151.849 246.179 156.172 238.006 158.884C229.968 161.551 216.846 161.663 208.443 159.169C208.304 159.128 208.167 159.087 208.033 159.045C199.65 156.422 199.481 152.099 207.651 149.388C215.689 146.721 228.808 146.608 237.214 149.101Z" fill="white"/>
<path d="M222.926 147.692C217.396 147.692 211.868 148.379 207.768 149.74C204.091 150.96 201.99 152.578 202.005 154.179C202.017 155.831 204.255 157.476 208.143 158.693C208.275 158.734 208.412 158.775 208.546 158.816C216.84 161.277 230.001 161.15 237.888 158.534C241.563 157.314 243.664 155.696 243.652 154.094C243.637 152.442 241.399 150.797 237.51 149.581C237.376 149.539 237.242 149.498 237.106 149.457C233.128 148.277 228.027 147.692 222.926 147.692ZM222.745 161.35C217.597 161.35 212.444 160.745 208.335 159.525C208.193 159.484 208.057 159.442 207.92 159.399C203.641 158.061 201.277 156.209 201.26 154.185C201.242 152.214 203.47 150.385 207.533 149.038C215.675 146.336 228.76 146.208 237.317 148.748C237.458 148.789 237.597 148.831 237.734 148.874C242.013 150.213 244.377 152.064 244.397 154.088C244.411 156.06 242.184 157.888 238.124 159.236C233.89 160.641 228.32 161.35 222.745 161.35Z" fill="#333A43"/>
<path d="M230.785 151.355L224.721 149.888C224.335 149.794 223.584 149.935 223.043 150.202C222.97 150.238 222.905 150.275 222.847 150.311L222.878 150.299C222.608 150.465 222.491 150.63 222.565 150.741C222.59 150.799 222.662 150.844 222.776 150.871L225.295 151.48C225.616 151.558 225.707 151.741 225.551 151.995C225.465 152.132 225.317 152.279 225.108 152.433L224.97 152.4L221.386 151.533C221 151.44 220.25 151.58 219.712 151.845C219.64 151.881 219.577 151.916 219.519 151.952V151.952C219.31 152.083 219.202 152.214 219.207 152.317V152.318L219.209 152.33L219.21 152.336L219.212 152.346L219.215 152.354L219.218 152.363L219.223 152.372L219.226 152.379L219.233 152.389L219.237 152.395L219.249 152.409L219.25 152.41L219.267 152.425L219.27 152.427L219.286 152.439L219.292 152.443L219.307 152.452L219.316 152.456L219.331 152.464L219.341 152.468L219.358 152.475L219.368 152.479L219.39 152.486L219.399 152.489L219.432 152.498L223.135 153.393L223.044 153.423C222.756 153.516 222.466 153.594 222.183 153.657C221.548 153.792 221.02 153.825 220.699 153.748L218.179 153.138C217.796 153.046 217.045 153.186 216.503 153.453C216.433 153.488 216.369 153.523 216.313 153.559L216.315 153.558C216.011 153.747 215.922 153.935 216.075 154.042L216.077 154.043L216.092 154.052L216.098 154.056L216.112 154.063L216.123 154.068L216.137 154.074L216.149 154.079L216.163 154.085L216.181 154.091L216.193 154.094L216.224 154.103L217.859 154.498C218.247 154.652 218.823 155.072 218.222 155.464C217.959 155.635 217.672 155.819 217.394 155.997C215.797 157.027 214.879 157.625 214.673 157.971C214.584 158.116 214.665 158.22 214.861 158.267C215.023 158.306 215.258 158.309 215.55 158.262L215.601 158.253C215.848 158.21 216.093 158.138 216.313 158.051L216.306 158.056C216.637 157.926 216.9 157.762 216.997 157.609C217.176 157.409 218.445 156.592 219.204 156.105C219.487 155.923 219.778 155.737 220.053 155.558C220.333 155.374 220.618 155.143 220.771 154.887L220.768 154.888C220.798 154.838 220.826 154.787 220.845 154.735C221.201 154.69 221.582 154.624 221.982 154.538C222.863 154.347 223.754 154.075 224.589 153.745L225.495 153.964L225.53 153.972L225.541 153.974L225.567 153.978L225.581 153.98L225.606 153.984L225.621 153.985L225.647 153.988L225.663 153.989L225.692 153.991L225.704 153.991L225.741 153.993H225.748L225.795 153.993H225.798L225.84 153.992L225.858 153.991L225.887 153.99L225.908 153.989L225.934 153.987L225.959 153.985L225.983 153.984L226.01 153.981L226.027 153.979C226.318 153.948 226.651 153.866 226.949 153.749V153.749C227.027 153.718 227.102 153.685 227.173 153.65C227.712 153.385 227.837 153.093 227.45 153L226.554 152.783C226.844 152.605 227.095 152.427 227.305 152.253L227.303 152.252C227.399 152.172 227.488 152.093 227.569 152.014L228.83 152.319L228.865 152.327L228.876 152.329L228.902 152.333L228.916 152.335L228.941 152.338L228.955 152.34L228.982 152.342L228.997 152.344L229.026 152.345L229.039 152.346L229.073 152.347L229.084 152.348L229.129 152.348L229.14 152.348L229.173 152.347L229.198 152.346L229.22 152.345L229.248 152.344L229.265 152.342L229.299 152.34L229.31 152.339C229.614 152.313 229.968 152.228 230.285 152.104L230.284 152.104C230.36 152.074 230.434 152.042 230.505 152.007C231.046 151.74 231.172 151.448 230.785 151.355Z" fill="#FB9946"/>
<path d="M71.5869 50.3897C72.3319 50.9475 73.3947 50.7969 73.9584 50.0565C74.5196 49.3135 74.3706 48.2571 73.6256 47.6993C72.8782 47.139 71.8153 47.2896 71.2541 48.0325C70.6904 48.773 70.8394 49.8319 71.5869 50.3897ZM72.6 51.4658C72.091 51.4658 71.577 51.3079 71.1374 50.9796C70.0647 50.1774 69.8486 48.6545 70.6581 47.5858C71.4677 46.517 72.9999 46.3047 74.0726 47.1069C75.1454 47.9116 75.3615 49.4345 74.5519 50.5007C74.0726 51.1326 73.34 51.4658 72.6 51.4658Z" fill="#333A43"/>
<path d="M76.5908 38.4373C75.9749 37.9757 75.8533 37.1094 76.3152 36.4997C76.7795 35.8876 77.6511 35.7666 78.2645 36.2257C78.8779 36.6848 79.002 37.5512 78.5377 38.1633C78.0758 38.773 77.2042 38.8964 76.5908 38.4373Z" fill="#FEC99E"/>
<path d="M73.9047 61.5752C73.7209 61.5752 73.562 61.4419 73.5372 61.2568C73.5074 61.0544 73.6489 60.8668 73.8525 60.8372L75.2084 60.6471C75.412 60.62 75.6007 60.7607 75.6281 60.9631C75.6579 61.1655 75.5163 61.353 75.3127 61.3802L73.9568 61.5727C73.9395 61.5727 73.9221 61.5752 73.9047 61.5752Z" fill="#333A43"/>
<path d="M69.1606 62.2393C68.9793 62.2393 68.8203 62.106 68.793 61.9209C68.7632 61.7185 68.9048 61.5333 69.1109 61.5037L70.4643 61.3137C70.6654 61.2865 70.8566 61.4247 70.8864 61.6271C70.9137 61.8295 70.7722 62.0171 70.5686 62.0467L69.2127 62.2368C69.1953 62.2393 69.1779 62.2393 69.1606 62.2393Z" fill="#333A43"/>
<path d="M71.9742 60.1289C71.7929 60.1289 71.6315 59.9956 71.6067 59.8105L71.4155 58.4628C71.3882 58.2604 71.5297 58.0729 71.7334 58.0457C71.9345 58.0161 72.1257 58.1593 72.153 58.3617L72.3442 59.7068C72.3715 59.9092 72.23 60.0968 72.0264 60.1264C72.009 60.1289 71.9916 60.1289 71.9742 60.1289Z" fill="#333A43"/>
<path d="M72.6383 64.8428C72.457 64.8428 72.2956 64.7095 72.2707 64.5244L72.0795 63.1767C72.0522 62.9743 72.1937 62.7867 72.3974 62.7596C72.5985 62.73 72.7897 62.8707 72.8171 63.0755L73.0082 64.4207C73.0356 64.6231 72.894 64.8107 72.6904 64.8403C72.673 64.8428 72.6557 64.8428 72.6383 64.8428Z" fill="#333A43"/>
<path d="M231.085 18.5459C231.061 18.5459 231.038 18.5434 231.013 18.541C230.812 18.5015 230.678 18.3065 230.718 18.1065L232.702 7.9497C232.742 7.74977 232.938 7.61896 233.139 7.65845C233.34 7.69795 233.472 7.89048 233.435 8.09288L231.45 18.2472C231.416 18.4249 231.259 18.5459 231.085 18.5459Z" fill="#333A43"/>
<path d="M236.014 21.1152C235.95 21.1152 235.883 21.098 235.823 21.0609C235.647 20.9573 235.59 20.7277 235.696 20.5525L243.961 6.92037C244.068 6.74512 244.296 6.68834 244.472 6.79447C244.649 6.90061 244.706 7.1277 244.599 7.30295L236.335 20.9351C236.263 21.0511 236.141 21.1152 236.014 21.1152Z" fill="#333A43"/>
<path d="M238.956 24.3516C238.849 24.3516 238.742 24.3071 238.67 24.2208C238.536 24.0628 238.558 23.8308 238.715 23.6975L246.12 17.5244C246.279 17.3936 246.512 17.4133 246.644 17.5688C246.778 17.7268 246.756 17.9588 246.599 18.0921L239.194 24.2652C239.125 24.3244 239.04 24.3516 238.956 24.3516Z" fill="#333A43"/>
<defs>
<linearGradient id="paint0_linear" x1="135.73" y1="210" x2="135.73" y2="0.00038147" gradientUnits="userSpaceOnUse">
<stop stop-color="#FFEDEF"/>
<stop offset="1" stop-color="#FFE6D1"/>
</linearGradient>
<linearGradient id="paint1_linear" x1="62.5711" y1="67.4893" x2="62.5711" y2="29.7186" gradientUnits="userSpaceOnUse">
<stop stop-color="#FFEDEF"/>
<stop offset="1" stop-color="#FFE6D1"/>
</linearGradient>
<linearGradient id="paint2_linear" x1="62.5692" y1="77.6982" x2="62.5692" y2="19.5093" gradientUnits="userSpaceOnUse">
<stop stop-color="#FFEDEF"/>
<stop offset="1" stop-color="#FFE6D1"/>
</linearGradient>
<linearGradient id="paint3_linear" x1="9.11533" y1="166.024" x2="9.11533" y2="147.759" gradientUnits="userSpaceOnUse">
<stop stop-color="#FFEDEF"/>
<stop offset="1" stop-color="#FFE6D1"/>
</linearGradient>
<linearGradient id="paint4_linear" x1="260.695" y1="97.1377" x2="260.695" y2="78.8721" gradientUnits="userSpaceOnUse">
<stop stop-color="#FFEDEF"/>
<stop offset="1" stop-color="#FFE6D1"/>
</linearGradient>
<linearGradient id="paint5_linear" x1="262.323" y1="183.214" x2="262.323" y2="147.792" gradientUnits="userSpaceOnUse">
<stop stop-color="#FFEDEF"/>
<stop offset="1" stop-color="#FFE6D1"/>
</linearGradient>
</defs>
</svg>
