<svg width="24" height="12" viewBox="0 0 24 12" fill="none" xmlns="http://www.w3.org/2000/svg">
<path d="M23.0625 5.06246H3.20824L6.49717 1.78946C6.86416 1.42421 6.86556 0.830637 6.50031 0.463653C6.13507 0.0966225 5.54144 0.0952634 5.17446 0.460466L0.27583 5.33546C0.275502 5.33574 0.275268 5.33607 0.274987 5.33635C-0.0910603 5.7016 -0.0922322 6.2971 0.274893 6.66357C0.275221 6.66385 0.275455 6.66418 0.275737 6.66446L5.17436 11.5395C5.5413 11.9046 6.13492 11.9033 6.50022 11.5363C6.86547 11.1693 6.86407 10.5757 6.49708 10.2105L3.20824 6.93746H23.0625C23.5803 6.93746 24 6.51774 24 5.99996C24 5.48218 23.5803 5.06246 23.0625 5.06246Z" fill="#23282E"/>
</svg>
