<svg width="24" height="12" viewBox="0 0 24 12" fill="none" xmlns="http://www.w3.org/2000/svg">
<path d="M23.0625 5.06249H3.20824L6.49717 1.78949C6.86416 1.42424 6.86556 0.830668 6.50031 0.463684C6.13507 0.096653 5.54144 0.095294 5.17446 0.460497L0.27583 5.33549C0.275502 5.33577 0.275268 5.3361 0.274987 5.33638C-0.0910603 5.70163 -0.0922322 6.29713 0.274893 6.6636C0.275221 6.66388 0.275455 6.66421 0.275737 6.66449L5.17436 11.5395C5.5413 11.9046 6.13492 11.9034 6.50022 11.5363C6.86547 11.1693 6.86407 10.5757 6.49708 10.2105L3.20824 6.93749H23.0625C23.5803 6.93749 24 6.51777 24 5.99999C24 5.48221 23.5803 5.06249 23.0625 5.06249Z" fill="#23282E"/>
</svg>
