<svg width="24" height="12" viewBox="0 0 24 12" fill="none" xmlns="http://www.w3.org/2000/svg">
<path d="M0.937483 6.93751L20.7918 6.93751L17.5028 10.2105C17.1358 10.5758 17.1344 11.1693 17.4997 11.5363C17.8649 11.9033 18.4586 11.9047 18.8255 11.5395L23.7242 6.66451C23.7245 6.66423 23.7247 6.6639 23.725 6.66362C24.0911 6.29837 24.0922 5.70287 23.7251 5.3364C23.7248 5.33612 23.7245 5.33579 23.7243 5.33551L18.8256 0.460518C18.4587 0.0953627 17.8651 0.0966282 17.4998 0.463705C17.1345 0.830689 17.1359 1.42427 17.5029 1.78952L20.7918 5.06251L0.937483 5.06251C0.419703 5.06251 -1.71661e-05 5.48223 -1.71661e-05 6.00001C-1.71661e-05 6.51779 0.419703 6.93751 0.937483 6.93751Z" fill="#E25569"/>
</svg>
