<svg width="134" height="40" viewBox="0 0 134 40" fill="none" xmlns="http://www.w3.org/2000/svg">
<path fill-rule="evenodd" clip-rule="evenodd" d="M0.395508 34.8707C0.602471 34.799 0.631524 34.5881 0.720647 34.4333C4.75495 27.4394 8.78529 20.4429 12.8146 13.4451C12.9454 13.2187 13.083 13.0058 13.289 12.8335C18.0326 8.85926 22.7733 4.87909 27.5143 0.901231C27.5665 0.856669 27.6246 0.819704 27.6926 0.769531C27.7612 0.972864 27.62 1.10259 27.5533 1.24584C22.3848 12.3535 17.213 23.4612 12.0416 34.567C11.935 34.7954 11.8703 35.0202 11.5072 35.0182C7.87261 34.9967 4.23836 35.0004 0.603796 34.9948C0.534148 34.9948 0.465488 34.9832 0.39584 34.9753C0.39551 34.9403 0.395508 34.9053 0.395508 34.8707Z" fill="#0088D5"/>
<path fill-rule="evenodd" clip-rule="evenodd" d="M29.4944 3.33984C36.4371 15.3748 43.3035 27.2763 50.2 39.228C37.5165 39.228 24.9069 39.228 12.2966 39.228C12.2937 39.2125 12.2907 39.197 12.2891 39.1815C19.9335 37.8265 27.5803 36.4735 35.3039 35.1046C34.1503 33.7301 33.0564 32.4273 31.9638 31.1244C29.1402 27.7523 26.317 24.3798 23.4915 21.0097C23.3327 20.8199 23.2116 20.669 23.3212 20.3689C25.369 14.7496 27.4017 9.12228 29.4944 3.33984Z" fill="#0088D5"/>
<path fill-rule="evenodd" clip-rule="evenodd" d="M102.611 32.7489C101.788 33.9084 100.825 34.799 99.4833 35.2073C97.9094 35.6873 96.3491 35.5886 94.8568 34.9113C93.2443 34.1795 92.497 32.7799 92.1333 31.1308C91.9725 30.397 91.9128 29.6556 91.9118 28.9047C91.9068 25.7917 91.9012 22.6793 91.8702 19.5643C91.8662 19.119 91.9999 18.9932 92.4287 19.0239C92.9476 19.0589 93.4731 19.0553 93.993 19.0239C94.3627 19.0028 94.4587 19.1325 94.4587 19.4926C94.4587 22.3789 94.4782 25.2672 94.4954 28.1531C94.4993 28.9179 94.5128 29.6787 94.7093 30.4297C95.074 31.8312 95.8292 32.8746 97.306 33.1823C98.938 33.5209 100.394 33.1707 101.47 31.8061C102.186 30.8981 102.579 29.8603 102.575 28.6776C102.565 25.6867 102.593 22.6941 102.568 19.7032C102.563 19.1787 102.72 19.0549 103.207 19.0936C103.742 19.1361 104.285 19.1186 104.823 19.0975C105.129 19.086 105.248 19.1596 105.247 19.4963C105.237 24.5565 105.237 29.6187 105.247 34.6785C105.248 35 105.156 35.1007 104.835 35.0892C104.227 35.0641 103.617 35.0621 103.009 35.0892C102.676 35.1027 102.595 34.9826 102.606 34.6706C102.626 34.0306 102.611 33.3896 102.611 32.7489Z" fill="#0088D5"/>
<path fill-rule="evenodd" clip-rule="evenodd" d="M79.4982 32.8912C82.3729 32.8912 85.1525 32.8912 87.9305 32.8912C88.8247 32.8912 88.8247 32.8912 88.8247 33.793C88.8247 35.0823 88.8247 35.0823 87.5377 35.0823C83.816 35.0823 80.0953 35.0843 76.3749 35.0764C76.1455 35.0764 75.7972 35.2176 75.7061 34.9754C75.5909 34.6674 75.618 34.306 75.8649 33.994C76.2851 33.4616 76.6683 32.9021 77.0661 32.3542C79.6408 28.8117 82.2164 25.2712 84.7871 21.7267C84.8822 21.5967 85.0987 21.4633 84.9944 21.297C84.9033 21.1497 84.6739 21.2349 84.5065 21.2349C82.0382 21.2234 79.5691 21.2118 77.1001 21.2194C76.7264 21.2214 76.5155 21.1745 76.5677 20.7256C76.6317 20.18 76.3336 19.4673 76.6779 19.1247C76.9974 18.8071 77.7038 19.0355 78.2382 19.0355C81.5592 19.0276 84.8802 19.0293 88.2019 19.0395C88.4418 19.0395 88.7884 18.8824 88.9122 19.1593C89.0574 19.4825 88.9317 19.8155 88.7032 20.1232C87.681 21.5072 86.6805 22.9071 85.6747 24.3007C83.7223 27.0068 81.7711 29.7131 79.821 32.4195C79.7305 32.5446 79.6464 32.674 79.4982 32.8912Z" fill="#0088D5"/>
<path fill-rule="evenodd" clip-rule="evenodd" d="M112.972 22.1245C113.383 21.2805 113.835 20.5335 114.464 19.8905C115.574 18.758 116.929 18.5662 118.41 18.8336C118.629 18.8722 118.77 18.9573 118.761 19.2399C118.737 20.0027 118.753 20.7672 118.753 21.5977C117.948 21.2204 117.16 21.0131 116.306 21.1758C115.384 21.3501 114.649 21.8013 114.149 22.5869C113.426 23.7195 113.004 24.9527 113.002 26.3156C112.996 29.0622 112.972 31.8095 112.984 34.5562C112.985 35.0014 112.854 35.1216 112.428 35.0906C111.892 35.0539 111.35 35.0596 110.814 35.0886C110.456 35.1081 110.387 34.9704 110.388 34.643C110.397 32.2079 110.386 29.7746 110.384 27.3412C110.383 24.7318 110.392 22.1242 110.374 19.5168C110.372 19.1277 110.47 18.9999 110.866 19.025C111.419 19.0583 111.979 19.0524 112.534 19.027C112.877 19.0115 112.987 19.124 112.979 19.4686C112.958 20.3529 112.972 21.2379 112.972 22.1245Z" fill="#0088D5"/>
<path d="M74.6362 34.6651C73.6975 32.2205 72.7567 29.7772 71.816 27.3322C69.9936 22.5896 68.1669 17.8469 66.355 13.1003C66.2157 12.7345 66.0415 12.5853 65.6427 12.6124C65.0882 12.651 64.5277 12.655 63.9741 12.6124C63.5328 12.5794 63.3526 12.7497 63.1998 13.1544C61.0664 18.8012 58.9139 24.44 56.7671 30.0812C56.1448 31.7167 55.5283 33.3527 54.874 35.0813C55.7547 35.0813 56.5532 35.0658 57.3507 35.0889C57.6817 35.0985 57.828 34.9994 57.9402 34.6743C58.5673 32.8549 59.2325 31.0487 59.8646 29.2292C59.9702 28.9252 60.092 28.7935 60.4376 28.7955C63.3239 28.811 66.2101 28.811 69.0964 28.7955C69.4334 28.7935 69.5783 28.9061 69.6905 29.2121C70.3593 31.0351 71.0456 32.8532 71.7328 34.6707C71.7939 34.8334 71.7833 35.0774 72.0553 35.0793C72.9488 35.0813 73.841 35.0793 74.7818 35.0793C74.7154 34.8895 74.6788 34.7773 74.6362 34.6651ZM61.9788 26.405C60.8878 26.403 60.8878 26.3954 61.2711 25.3501C62.296 22.547 63.3219 19.7456 64.3442 16.9428C64.5214 16.4586 64.6317 15.9555 64.7218 15.394C65.8649 19.1478 67.3707 22.7077 68.6389 26.407C66.3887 26.407 64.1837 26.4109 61.9788 26.405Z" fill="#0088D5"/>
<path d="M133.979 23.5987C133.979 23.4614 133.973 23.3178 133.935 23.1864C133.532 21.7964 132.814 20.6137 131.622 19.7558C128.559 17.5528 123.985 18.488 121.881 21.7964C120.07 24.646 119.944 27.7277 120.95 30.8619C121.742 33.3283 123.503 34.8728 126.049 35.3355C128.324 35.7501 130.541 35.4286 132.617 34.31C133.092 34.0525 133.304 33.7581 133.242 33.2161C133.194 32.8058 133.217 32.3839 133.232 31.9657C133.246 31.598 133.13 31.5864 132.861 31.7815C131.604 32.6915 130.19 33.15 128.646 33.2666C125.328 33.5181 123.208 31.4006 123.004 28.1793C122.98 27.8231 123.075 27.699 123.452 27.703C125.139 27.7225 126.827 27.7106 128.513 27.7106C128.513 27.7046 128.513 27.701 128.513 27.695C130.181 27.695 131.85 27.6855 133.519 27.7026C133.873 27.7066 133.997 27.627 133.989 27.2498C133.966 26.0341 133.982 24.8164 133.979 23.5987ZM130.557 25.5191C129.48 25.5191 128.404 25.5191 127.327 25.5191C126.025 25.5191 124.723 25.5115 123.421 25.5251C123.091 25.529 123.018 25.4554 123.089 25.1108C123.36 23.8103 123.941 22.6853 124.954 21.8258C126.183 20.7824 127.617 20.589 129.109 21.0749C130.637 21.5703 131.277 22.8306 131.576 24.2922C131.825 25.5152 131.801 25.5191 130.557 25.5191Z" fill="#0089D5"/>
</svg>
