<svg width="22" height="22" viewBox="0 0 22 22" fill="none" xmlns="http://www.w3.org/2000/svg">
<path d="M7.33398 14.6666V10.9999C7.33398 10.0275 7.72029 9.09483 8.40793 8.40719C9.09556 7.71956 10.0282 7.33325 11.0007 7.33325C11.9731 7.33325 12.9057 7.71956 13.5934 8.40719C14.281 9.09483 14.6673 10.0275 14.6673 10.9999V14.6666" stroke="#23282E" stroke-width="1.5" stroke-linecap="round" stroke-linejoin="round"/>
<path d="M16.8667 5.13333L16.225 5.775M2.75 11H3.66667H2.75ZM11 2.75V3.66667V2.75ZM18.3333 11H19.25H18.3333ZM5.13333 5.13333L5.775 5.775L5.13333 5.13333Z" stroke="#23282E" stroke-width="1.5" stroke-linecap="round" stroke-linejoin="round"/>
<path d="M15.5833 14.6667H6.41667C5.91041 14.6667 5.5 15.0772 5.5 15.5834V17.4167C5.5 17.923 5.91041 18.3334 6.41667 18.3334H15.5833C16.0896 18.3334 16.5 17.923 16.5 17.4167V15.5834C16.5 15.0772 16.0896 14.6667 15.5833 14.6667Z" stroke="#23282E" stroke-width="1.5" stroke-linecap="round" stroke-linejoin="round"/>
</svg>
