<svg width="40" height="40" viewBox="0 0 40 40" fill="none" xmlns="http://www.w3.org/2000/svg">
<rect width="40" height="40" rx="6" fill="#E25569"/>
<g clip-path="url(#clip0)">
<path d="M24.4296 13.8276L25.7592 14.2409L26.1725 15.5705C26.2487 15.8155 26.4755 15.9826 26.7321 15.9825C26.9203 15.9825 27.0996 15.8916 27.2104 15.7349L28.0144 14.5981C28.0144 14.5981 29.4116 14.6159 29.4141 14.6159C29.6343 14.6159 29.8361 14.4925 29.9362 14.296C30.0374 14.0973 30.0171 13.8583 29.8837 13.6796L29.051 12.5637L29.4981 11.2451C29.5697 11.0339 29.5152 10.8003 29.3575 10.6426C29.1998 10.4848 28.9663 10.4304 28.755 10.502L27.4364 10.9491L26.3206 10.1164C26.1418 9.98296 25.9028 9.96261 25.7041 10.0639C25.5054 10.1651 25.3814 10.3704 25.3843 10.5934L25.4021 11.9857L24.2652 12.7896C24.0831 12.9184 23.9899 13.1394 24.0248 13.3597C24.0597 13.58 24.2166 13.7614 24.4296 13.8276ZM26.3302 12.7646C26.4876 12.6533 26.5802 12.4716 26.5778 12.2787L26.5712 11.7656L26.9824 12.0725C27.137 12.1879 27.3384 12.2197 27.521 12.1578L28.0071 11.993L27.8422 12.479C27.7803 12.6617 27.8122 12.8631 27.9276 13.0176L28.2345 13.4289C28.2345 13.4289 27.7163 13.4223 27.7138 13.4223C27.5238 13.4223 27.3453 13.5145 27.2354 13.6699L26.9391 14.0889L26.7868 13.5989C26.7296 13.4147 26.5854 13.2705 26.4012 13.2132L25.9112 13.0609L26.3302 12.7646Z" fill="white"/>
<path d="M21.2703 18.7682C21.4991 18.997 21.8701 18.997 22.0989 18.7682L24.5849 16.2822C24.8137 16.0534 24.8137 15.6824 24.5849 15.4536C24.3561 15.2248 23.9851 15.2248 23.7562 15.4536L21.2703 17.9395C21.0414 18.1683 21.0414 18.5393 21.2703 18.7682Z" fill="white"/>
<path d="M17.6562 15.8984C17.9798 15.8984 18.2422 15.6361 18.2422 15.3125V10.5859C18.2422 10.2623 17.9798 10 17.6562 10C17.3327 10 17.0703 10.2623 17.0703 10.5859V15.3125C17.0703 15.6361 17.3327 15.8984 17.6562 15.8984Z" fill="white"/>
<path d="M29.9829 23.6567C30.0608 23.3427 29.8693 23.0249 29.5552 22.947L24.8286 21.7752C24.5147 21.6973 24.1968 21.8888 24.1189 22.2029C24.0411 22.517 24.2325 22.8347 24.5466 22.9126L29.2732 24.0845C29.5872 24.1623 29.905 23.9708 29.9829 23.6567Z" fill="white"/>
<path d="M11.7578 29.9998C11.9871 29.9998 12.2105 29.9562 12.4226 29.8696L23.7378 25.2295C24.1235 25.0713 24.2264 24.5696 23.9298 24.273C23.5783 23.9215 16.4078 16.751 15.7268 16.07C15.4318 15.7751 14.9294 15.8741 14.7704 16.262L10.1299 27.5781C10.0437 27.7891 10 28.0125 10 28.242C10 29.2113 10.7885 29.9998 11.7578 29.9998ZM11.9789 28.785C11.909 28.8135 11.8346 28.828 11.7578 28.828C11.4347 28.828 11.1719 28.5651 11.1719 28.242C11.1719 28.1652 11.1863 28.0908 11.2144 28.0219L11.3805 27.617H14.827L11.9789 28.785ZM17.6847 26.4452H11.861L12.8221 24.1014H22.101L22.4788 24.4793L17.6847 26.4452ZM14.2638 20.5859H18.5854L20.9291 22.9296H13.3027L14.2638 20.5859ZM15.5206 17.5211L17.4135 19.414H14.7443L15.5206 17.5211Z" fill="white"/>
<path d="M24.6875 19.4138C25.0111 19.4138 25.2734 19.1515 25.2734 18.8279C25.2734 18.5043 25.0111 18.2419 24.6875 18.2419C24.3639 18.2419 24.1016 18.5043 24.1016 18.8279C24.1016 19.1515 24.3639 19.4138 24.6875 19.4138Z" fill="white"/>
<path d="M20 17.0701C20.3236 17.0701 20.5859 16.8077 20.5859 16.4841C20.5859 16.1605 20.3236 15.8982 20 15.8982C19.6764 15.8982 19.4141 16.1605 19.4141 16.4841C19.4141 16.8077 19.6764 17.0701 20 17.0701Z" fill="white"/>
<path d="M29.4141 18.2422H28.8281V17.6563C28.8281 17.3327 28.5658 17.0703 28.2422 17.0703C27.9186 17.0703 27.6562 17.3327 27.6562 17.6563V18.2422H27.0703C26.7467 18.2422 26.4844 18.5045 26.4844 18.8281C26.4844 19.1517 26.7467 19.4141 27.0703 19.4141H27.6562V20C27.6562 20.3236 27.9186 20.586 28.2422 20.586C28.5658 20.586 28.8281 20.3236 28.8281 20V19.4141H29.4141C29.7377 19.4141 30 19.1517 30 18.8281C30 18.5045 29.7377 18.2422 29.4141 18.2422Z" fill="white"/>
<path d="M20 12.3438H20.5859V12.9297C20.5859 13.2533 20.8483 13.5156 21.1719 13.5156C21.4955 13.5156 21.7578 13.2533 21.7578 12.9297V12.3438H22.3438C22.6673 12.3438 22.9297 12.0814 22.9297 11.7578C22.9297 11.4342 22.6673 11.1719 22.3438 11.1719H21.7578V10.5859C21.7578 10.2623 21.4955 10 21.1719 10C20.8483 10 20.5859 10.2623 20.5859 10.5859V11.1719H20C19.6764 11.1719 19.4141 11.4342 19.4141 11.7578C19.4141 12.0814 19.6764 12.3438 20 12.3438Z" fill="white"/>
</g>
<defs>
<clipPath id="clip0">
<rect width="20" height="20" fill="white" transform="translate(10 10)"/>
</clipPath>
</defs>
</svg>
