<svg width="40" height="40" viewBox="0 0 40 40" fill="none" xmlns="http://www.w3.org/2000/svg">
<rect width="40" height="40" rx="6" fill="#E25569"/>
<g clip-path="url(#clip0)">
<path d="M28.1364 26.3109C28.4236 25.9218 28.5938 25.4414 28.5938 24.9219C28.5938 23.6295 27.5423 22.5781 26.25 22.5781C24.9577 22.5781 23.9062 23.6295 23.9062 24.9219C23.9062 25.4414 24.0764 25.9218 24.3636 26.3109C24.0552 26.437 23.7731 26.6141 23.5275 26.8318C23.2416 26.0641 22.6425 25.4482 21.8864 25.139C22.1736 24.75 22.3438 24.2696 22.3438 23.75C22.3438 22.4577 21.2923 21.4062 20 21.4062C18.7077 21.4062 17.6562 22.4577 17.6562 23.75C17.6562 24.2696 17.8264 24.75 18.1136 25.139C17.3575 25.4482 16.7584 26.0641 16.4725 26.8318C16.2269 26.6141 15.9448 26.437 15.6364 26.3109C15.9236 25.9218 16.0938 25.4414 16.0938 24.9219C16.0938 23.6295 15.0423 22.5781 13.75 22.5781C12.4577 22.5781 11.4062 23.6295 11.4062 24.9219C11.4062 25.4414 11.5764 25.9218 11.8636 26.3109C10.7945 26.748 10.0391 27.7989 10.0391 29.0234V29.4141C10.0391 29.7377 10.3014 30 10.625 30H29.375C29.6986 30 29.9609 29.7377 29.9609 29.4141V29.0234C29.9609 27.7989 29.2055 26.748 28.1364 26.3109ZM13.75 23.75C14.3962 23.75 14.9219 24.2757 14.9219 24.9219C14.9219 25.568 14.3962 26.0938 13.75 26.0938C13.1038 26.0938 12.5781 25.568 12.5781 24.9219C12.5781 24.2757 13.1038 23.75 13.75 23.75ZM11.2217 28.8281C11.3192 27.9504 12.0655 27.2656 12.9688 27.2656H14.5312C15.4345 27.2656 16.1808 27.9504 16.2783 28.8281H11.2217ZM20 22.5781C20.6462 22.5781 21.1719 23.1038 21.1719 23.75C21.1719 24.3962 20.6462 24.9219 20 24.9219C19.3538 24.9219 18.8281 24.3962 18.8281 23.75C18.8281 23.1038 19.3538 22.5781 20 22.5781ZM22.5391 28.8281H17.4609V27.8516C17.4609 26.8823 18.2495 26.0938 19.2188 26.0938H20.7812C21.7505 26.0938 22.5391 26.8823 22.5391 27.8516V28.8281ZM26.25 23.75C26.8962 23.75 27.4219 24.2757 27.4219 24.9219C27.4219 25.568 26.8962 26.0938 26.25 26.0938C25.6038 26.0938 25.0781 25.568 25.0781 24.9219C25.0781 24.2757 25.6038 23.75 26.25 23.75ZM23.7217 28.8281C23.8192 27.9504 24.5655 27.2656 25.4688 27.2656H27.0312C27.9345 27.2656 28.6808 27.9504 28.7783 28.8281H23.7217Z" fill="white"/>
<path d="M29.8282 10.6081C29.7184 10.4983 29.5694 10.4366 29.4141 10.4366C29.4139 10.4366 29.4138 10.4366 29.4137 10.4366L23.8434 10.4403L23.5777 10.3268C22.5235 9.87661 21.3215 9.8925 20.2798 10.3707C20.1843 10.4145 20.0909 10.4618 19.9995 10.5125C19.9077 10.4613 19.8144 10.4139 19.7201 10.3707C18.6784 9.89254 17.4764 9.87661 16.4223 10.3269L16.1564 10.4404L10.5859 10.4366C10.2623 10.4366 10 10.699 10 11.0226V16.882C10 17.2056 10.2623 17.4679 10.5859 17.4679H14.6798L15.7739 18.562C16.9027 19.6909 18.4036 20.3125 20 20.3125C21.5964 20.3125 23.0973 19.6908 24.2261 18.562L25.3202 17.4679H29.4141C29.7377 17.4679 30 17.2056 30 16.882V11.0226C30 10.8671 29.9382 10.718 29.8282 10.6081ZM20 19.1406C18.7166 19.1406 17.51 18.6409 16.6025 17.7334L15.3368 16.4677C15.2269 16.3578 15.0779 16.296 14.9225 16.296H11.1719V11.6085L16.2763 11.6123C16.3554 11.6123 16.4337 11.5963 16.5065 11.5652L16.8826 11.4045C17.5442 11.122 18.2877 11.0973 18.9627 11.3285L17.0617 13.2293C16.6559 13.6351 16.4324 14.1747 16.4324 14.7486V15.6445C16.4324 16.6138 17.2209 17.4023 18.1902 17.4023C19.1595 17.4023 19.948 16.6138 19.948 15.6445V15.3149L19.9999 15.263L22.9025 18.1656C22.0716 18.798 21.0622 19.1406 20 19.1406ZM28.8281 16.296H25.0775C24.9221 16.296 24.773 16.3577 24.6632 16.4677L23.7625 17.3683L22.0721 15.6779C22.697 15.5897 23.2742 15.3032 23.7288 14.8486C23.9576 14.6198 23.9576 14.2488 23.7288 14.02C23.5 13.7912 23.129 13.7912 22.9002 14.02C22.5678 14.3524 22.1264 14.5354 21.6572 14.5354C21.188 14.5354 20.7466 14.3523 20.4143 14.02C20.3044 13.9101 20.1554 13.8484 19.9999 13.8484C19.8445 13.8484 19.6955 13.9101 19.5856 14.02L18.9478 14.6578C18.8379 14.7677 18.7762 14.9167 18.7762 15.0721V15.6445C18.7762 15.9675 18.5133 16.2304 18.1902 16.2304C17.8671 16.2304 17.6043 15.9675 17.6043 15.6445V14.7485C17.6043 14.4876 17.7059 14.2424 17.8903 14.058L19.9278 12.0207C20.0457 11.9028 20.3411 11.679 20.3571 11.6667C20.4873 11.5789 20.6248 11.5018 20.7687 11.4357C21.5107 11.0952 22.3667 11.0838 23.1175 11.4045L23.4937 11.5652C23.5664 11.5962 23.6447 11.6122 23.7238 11.6122C23.7239 11.6122 28.8282 11.6088 28.8282 11.6088V16.296H28.8281Z" fill="white"/>
</g>
<defs>
<clipPath id="clip0">
<rect width="20" height="20" fill="white" transform="translate(10 10)"/>
</clipPath>
</defs>
</svg>
