<svg width="249" height="220" viewBox="0 0 249 220" fill="none" xmlns="http://www.w3.org/2000/svg">
<path d="M124.18 0C128.758 2.53775e-05 133.286 0.947428 137.48 2.78261C141.674 4.61778 145.442 7.30102 148.548 10.6635C151.655 14.026 154.032 17.9949 155.529 22.3207C157.027 26.6464 157.613 31.2354 157.251 35.7987L149.087 138.824C148.591 145.09 145.753 150.939 141.136 155.205C136.52 159.471 130.466 161.84 124.18 161.84C117.895 161.839 111.84 159.47 107.223 155.204C102.607 150.939 99.7666 145.09 99.2693 138.824L91.1088 35.7987C90.7468 31.2354 91.3332 26.6464 92.831 22.3207C94.3288 17.9949 96.7056 14.026 99.8119 10.6635C102.918 7.30102 106.687 4.61778 110.881 2.78261C115.074 0.947428 119.602 2.53775e-05 124.18 0ZM163.855 30.8382L161.687 54.0797C186.102 57.5199 209.894 64.458 232.331 74.6804C235.066 75.9115 238.172 76.039 240.999 75.0365C243.827 74.034 246.158 71.9788 247.507 69.2993C248.215 67.892 248.631 66.3558 248.73 64.7834C248.829 63.211 248.608 61.6349 248.081 60.15C247.555 58.6652 246.733 57.3023 245.665 56.1435C244.598 54.9848 243.307 54.0541 241.87 53.4076C217.101 42.132 190.819 34.5289 163.855 30.8382ZM85.0166 31.1938C81.2182 31.7315 77.4227 32.3414 73.6301 33.0236C43.2254 38.5174 19.8626 47.5148 6.85433 53.3295C5.3796 53.9949 4.05974 54.9603 2.97893 56.1642C1.89813 57.3682 1.08011 58.7841 0.57707 60.3218C0.0740247 61.8595 -0.103005 63.4852 0.05727 65.0951C0.217545 66.705 0.711605 68.2639 1.50794 69.6722C2.93195 72.2057 5.25139 74.1155 8.01107 75.0269C10.7707 75.9382 13.7714 75.7852 16.4241 74.598C29.7836 68.6316 52.1491 60.5404 78.6469 55.8401C81.4943 55.3371 84.3416 54.8804 87.189 54.4699L85.0166 31.1938ZM89.2313 76.2891C74.0989 78.9558 59.3062 83.2803 45.1203 89.1846C43.6069 89.8209 42.2451 90.7699 41.1243 91.9694C40.0034 93.169 39.1489 94.5919 38.6166 96.1449C38.0843 97.6979 37.8864 99.3459 38.0358 100.981C38.1851 102.616 38.6785 104.201 39.4834 105.631C40.8869 108.125 43.1594 110.015 45.8674 110.941C48.5753 111.866 51.5292 111.762 54.1654 110.648C66.1588 105.67 78.6413 101.964 91.408 99.5912L89.2313 76.2891ZM159.628 76.0072L157.46 99.3137C170.229 101.709 182.691 105.521 194.616 110.679C197.337 111.845 200.401 111.93 203.183 110.918C205.965 109.905 208.257 107.871 209.592 105.228C210.313 103.814 210.738 102.268 210.84 100.684C210.941 99.1003 210.718 97.5124 210.184 96.018C209.649 94.5236 208.815 93.1542 207.732 91.994C206.649 90.8338 205.34 89.9073 203.886 89.2713C189.703 83.1333 174.848 78.6801 159.628 76.0029V76.0072ZM93.4677 121.619C88.9364 122.789 84.9169 124.086 81.5217 125.33C79.938 125.911 78.4994 126.829 77.3055 128.021C76.1117 129.213 75.1911 130.65 74.6076 132.233C74.024 133.816 73.7914 135.507 73.9258 137.188C74.0603 138.87 74.5586 140.502 75.3862 141.972C76.7364 144.381 78.8998 146.23 81.489 147.189C84.0782 148.148 86.9242 148.154 89.5175 147.206C91.33 146.542 93.3896 145.849 95.6661 145.176L93.4677 121.619ZM155.37 121.501L153.154 145.09C155.157 145.7 157.181 146.391 159.224 147.162C161.912 148.18 164.881 148.167 167.56 147.126C170.238 146.086 172.437 144.091 173.733 141.525C174.47 140.074 174.894 138.484 174.978 136.858C175.062 135.232 174.804 133.607 174.22 132.087C173.635 130.567 172.739 129.187 171.588 128.036C170.436 126.885 169.056 125.988 167.537 125.404C163.553 123.887 159.492 122.585 155.37 121.501ZM124.18 173.352C119.568 173.355 115.06 174.725 111.226 177.289C107.392 179.854 104.404 183.497 102.641 187.76C100.878 192.022 100.418 196.711 101.319 201.234C102.221 205.758 104.443 209.913 107.705 213.173C110.968 216.434 115.124 218.654 119.648 219.553C124.172 220.452 128.861 219.989 133.122 218.223C137.383 216.458 141.025 213.468 143.587 209.633C146.149 205.798 147.517 201.289 147.517 196.676C147.518 193.612 146.914 190.578 145.741 187.747C144.569 184.916 142.85 182.344 140.682 180.178C138.515 178.012 135.942 176.294 133.11 175.123C130.279 173.952 127.244 173.35 124.18 173.352Z" fill="url(#paint0_linear)"/>
<path d="M116.537 48.2343C116.616 49.227 116.398 50.2207 115.911 51.0897C115.425 51.9587 114.692 52.6639 113.805 53.1161C112.917 53.5683 111.916 53.7472 110.927 53.6302C109.938 53.5132 109.006 53.1055 108.249 52.4588C107.492 51.812 106.943 50.9552 106.673 49.9967C106.403 49.0382 106.423 48.0211 106.731 47.0741C107.039 46.1271 107.621 45.2927 108.403 44.6764C109.185 44.0602 110.133 43.6898 111.126 43.612C112.456 43.5079 113.773 43.9363 114.788 44.803C115.803 45.6698 116.432 46.904 116.537 48.2343Z" fill="#2E3D5E"/>
<path d="M141.697 48.2343C141.776 49.227 141.558 50.2207 141.072 51.0897C140.585 51.9587 139.852 52.6639 138.965 53.1161C138.078 53.5683 137.076 53.7472 136.087 53.6302C135.098 53.5132 134.166 53.1055 133.409 52.4588C132.652 51.812 132.104 50.9552 131.833 49.9967C131.563 49.0382 131.583 48.0211 131.891 47.0741C132.199 46.1271 132.781 45.2927 133.563 44.6764C134.346 44.0602 135.293 43.6898 136.286 43.612C137.616 43.5079 138.934 43.9363 139.948 44.803C140.963 45.6698 141.592 46.904 141.697 48.2343Z" fill="#2E3D5E"/>
<path d="M116.145 68.3712C115.728 68.366 115.321 68.2407 114.974 68.0102C114.626 67.7797 114.352 67.4538 114.185 67.0717C114.018 66.6895 113.965 66.2672 114.032 65.8555C114.099 65.4438 114.283 65.0601 114.563 64.7505C114.727 64.5771 118.582 60.5055 124.189 60.3104C127.736 60.189 131.105 61.6112 134.218 64.5034C134.571 64.9078 134.761 65.4287 134.752 65.9653C134.743 66.5019 134.535 67.016 134.169 67.4083C133.802 67.8005 133.304 68.0429 132.769 68.0886C132.234 68.1343 131.701 67.9801 131.274 67.6557C124.306 61.1516 118.365 67.0096 117.715 67.6947C117.513 67.908 117.269 68.0779 117 68.1942C116.73 68.3105 116.439 68.3707 116.145 68.3712Z" fill="#2E3D5E"/>
<defs>
<linearGradient id="paint0_linear" x1="124" y1="299" x2="124" y2="4.20336e-06" gradientUnits="userSpaceOnUse">
<stop stop-color="#ECA3A9"/>
<stop offset="0.0887661" stop-color="#F5989F"/>
<stop offset="0.2454" stop-color="#E6737B"/>
<stop offset="0.4514" stop-color="#DB6C74"/>
<stop offset="0.6991" stop-color="#EE838B"/>
<stop offset="0.9793" stop-color="#F0B1B7"/>
<stop offset="1" stop-color="#F6B3B5"/>
</linearGradient>
</defs>
</svg>
