<svg width="316" height="324" viewBox="0 0 316 324" fill="none" xmlns="http://www.w3.org/2000/svg">
<path d="M306.511 43.3647L303.813 33.5212L292.68 34.0152C291.654 31.8489 290.438 29.7966 289.108 27.8583L294.998 18.4328L287.74 11.2497L278.354 17.2547C276.416 15.9245 274.326 14.7463 272.198 13.7201L272.578 2.5844L262.698 0L257.568 9.88153C255.212 9.6915 252.856 9.7295 250.462 9.91953L245.218 0.0760106L235.376 2.77443L235.87 13.9101C233.704 14.9363 231.652 16.1525 229.714 17.4827L220.29 11.5918L213.108 18.8509L219.112 28.2384C217.782 30.1767 216.604 32.267 215.616 34.3953L204.482 34.0152L201.898 43.8968L211.778 49.0276C211.588 51.3839 211.626 53.7403 211.816 56.1347L201.974 61.3795L204.672 71.223L215.806 70.7289C216.832 72.8952 218.048 74.9476 219.378 76.8859L213.488 86.3113L220.746 93.4944L230.132 87.4895C232.07 88.8197 234.16 89.9979 236.288 91.024L235.908 102.16L245.788 104.744L250.918 94.8626C253.274 95.0527 255.63 95.0147 258.024 94.8246L263.268 104.668L273.11 101.97L272.616 90.834C274.782 89.8079 276.834 88.5917 278.772 87.2615L288.196 93.1524L295.378 85.8933L289.374 76.5058C290.704 74.5675 291.882 72.4772 292.87 70.3489L304.003 70.7289L306.587 60.8474L296.708 55.7166C296.898 53.3602 296.86 51.0039 296.67 48.6095L306.511 43.3647ZM261.216 77.722C247.232 81.5606 232.792 73.3133 228.954 59.3272C225.116 45.341 233.362 30.8988 247.346 27.0602C261.33 23.2216 275.77 31.4689 279.608 45.455C283.446 59.4412 275.2 73.8834 261.216 77.722Z" fill="#FEC99E"/>
<path d="M125.67 17.3307C118.792 19.459 88.3165 29.4165 57.8788 55.8306C50.5069 62.2156 20.7152 88.0976 7.98533 122.873C-13.7125 182.048 12.2413 272.084 86.9106 308.266C173.892 350.414 283.787 298.536 308.866 229.137C320 198.353 320.494 147.311 292.488 113.638C269.955 86.5393 231.423 73.6554 232.905 48.0394C233.627 35.6875 242.937 32.267 240.353 24.5138C234.235 6.04293 174.196 2.20434 125.67 17.3307Z" fill="#FFE2CA"/>
<path d="M152.497 308.418C145.657 308.418 138.817 307.924 132.092 306.935C128.064 306.365 125.29 302.603 125.86 298.612C126.43 294.583 130.192 291.809 134.182 292.379C144.175 293.823 154.435 294.089 164.581 293.139C198.629 289.947 229.371 273.68 251.182 247.38C272.994 221.042 283.254 187.825 280.062 153.772C276.87 119.718 260.606 88.9717 234.311 67.1564C207.977 45.341 174.765 35.0794 140.717 38.2719C98.8419 42.1865 61.5263 66.5103 40.9685 103.262C38.9925 106.796 34.5085 108.089 30.9366 106.074C27.4026 104.098 26.1106 99.6134 28.1246 96.0408C51.0384 55.1085 92.61 28.0103 139.311 23.6396C177.273 20.0671 214.323 31.5068 243.658 55.8306C272.994 80.1544 291.12 114.436 294.692 152.404C298.264 190.371 286.826 227.427 262.506 256.768C238.186 286.108 203.911 304.237 165.949 307.809C161.465 308.228 156.981 308.418 152.497 308.418Z" fill="#FB9946"/>
<path d="M69.7721 84.221L24.8945 62.4436L27.2125 114.816L69.7721 84.221Z" fill="#FB9946"/>
<path d="M92.9161 271.97L86.3422 250.763C86.3422 250.763 80.5663 250.041 78.5523 249.851C43.0226 246.088 60.8445 174.979 90.4082 158.332C108.572 148.109 130.346 146.741 151.512 147.653C166.407 148.299 180.885 147.843 194.337 155.9C213.413 167.302 229.753 186.989 239.899 217.165L249.095 272.008H92.9161V271.97Z" fill="white"/>
<path d="M249.056 272.54H92.9156C92.6496 272.54 92.4596 272.388 92.3836 272.122L85.9237 251.257C84.6317 251.105 80.1858 250.573 78.4758 250.383C68.2159 249.28 61.5279 242.667 59.172 231.19C56.854 219.978 59.058 204.586 65.0239 190.067C71.2178 175.055 80.3378 163.273 90.1037 157.8C109.749 146.779 133.233 146.247 151.511 147.045C153.183 147.121 154.817 147.159 156.489 147.235C169.903 147.691 182.557 148.147 194.603 155.368C215.464 167.872 230.892 188.585 240.392 216.937C240.392 216.975 240.392 217.013 240.43 217.013L249.626 271.856C249.664 272.008 249.626 272.198 249.512 272.312C249.36 272.464 249.208 272.54 249.056 272.54ZM93.3336 271.4H248.372L239.29 217.28C229.866 189.193 214.628 168.708 193.995 156.356C182.177 149.287 169.675 148.869 156.413 148.413C154.779 148.337 153.107 148.299 151.435 148.223C133.309 147.463 110.015 147.957 90.6357 158.827C70.9138 169.886 55.296 206.98 60.2359 231C61.7939 238.639 66.2399 247.988 78.5518 249.28C80.5658 249.509 86.3037 250.193 86.3797 250.193C86.6077 250.231 86.7977 250.383 86.8737 250.573L93.3336 271.4Z" fill="black"/>
<path d="M136.31 115.614C132.016 117.78 128.786 118.084 126.43 117.97C117.995 117.476 112.599 110.673 111.497 109.343C105.911 102.312 103.213 90.796 107.963 83.9929C111.383 79.1282 115.677 80.9525 119.591 75.5176C124.036 69.3227 119.477 64.2679 123.58 58.8711C128.33 52.6381 138.742 53.0942 140.642 53.2082C147.064 53.5122 147.862 56.7047 153.942 56.5147C160.136 56.3627 160.972 53.2082 166.672 53.2082C171.194 53.1702 177.806 55.1085 180.77 60.3533C184.494 66.9283 180.694 75.5936 176.286 80.1543C171.004 85.6272 167.28 82.7007 159.87 87.1854C147.026 94.8626 150.104 108.659 136.31 115.614Z" fill="black"/>
<path d="M160.251 144.84L156.755 123.215C157.515 123.139 163.937 121.999 164.659 121.657C170.587 118.692 168.953 103.832 168.953 103.832L172.259 99.8794L162.417 77.874C151.967 86.5774 148.243 78.026 137.907 82.3207C127.571 86.6154 133.195 98.1311 133.195 98.1311C133.195 98.1311 124.759 94.4066 126.545 102.578C127.913 108.735 132.397 109.153 135.361 108.887L129.851 145.943C129.851 145.943 112.106 150.997 108.686 151.871C113.132 151.643 144.025 165.097 179.023 150.427L160.251 144.84Z" fill="white"/>
<path d="M144.329 157.876C130.953 157.876 120.085 155.14 113.891 153.544C111.307 152.898 109.483 152.442 108.685 152.48C108.381 152.48 108.153 152.289 108.077 151.985C108.039 151.681 108.229 151.415 108.495 151.339C111.611 150.503 126.773 146.209 129.281 145.486L134.639 109.457C129.889 109.647 126.963 107.329 125.937 102.654C125.367 100.145 125.709 98.3972 126.849 97.447C128.293 96.2688 130.649 96.6869 132.093 97.105C131.371 95.1287 130.307 91.138 131.675 87.4515C132.663 84.9051 134.639 82.9668 137.603 81.7506C142.201 79.8503 145.659 80.4204 148.661 80.9145C152.727 81.5986 156.223 82.1687 161.961 77.3799C162.113 77.2659 162.265 77.2279 162.455 77.2659C162.645 77.3039 162.759 77.4179 162.835 77.57L172.676 99.5753C172.752 99.7654 172.714 99.9934 172.6 100.183L169.447 103.946C169.637 105.998 170.7 119.186 164.811 122.113C164.089 122.493 159.111 123.367 157.325 123.633L160.669 144.346L179.098 149.819C179.326 149.895 179.478 150.085 179.516 150.351C179.516 150.579 179.402 150.807 179.174 150.921C166.749 156.204 154.779 157.876 144.329 157.876ZM111.383 151.757C112.181 151.947 113.093 152.175 114.195 152.441C124.911 155.14 149.801 161.449 177.312 150.541L160.061 145.41C159.833 145.334 159.681 145.182 159.643 144.954L156.147 123.329C156.109 123.177 156.147 123.025 156.261 122.911C156.337 122.797 156.489 122.721 156.641 122.683C157.553 122.569 163.747 121.467 164.355 121.163C169.864 118.426 168.345 104.022 168.307 103.908C168.307 103.756 168.345 103.604 168.421 103.49L171.498 99.8414L162.113 78.8241C156.299 83.4229 152.499 82.7768 148.471 82.1307C145.469 81.6366 142.353 81.1045 138.021 82.8908C135.361 83.9929 133.575 85.7032 132.739 87.9455C131.029 92.5063 133.575 97.8651 133.613 97.9031C133.727 98.1311 133.689 98.3592 133.499 98.5492C133.347 98.7392 133.081 98.7772 132.853 98.6632C131.827 98.2071 128.863 97.295 127.533 98.3972C126.735 99.0433 126.545 100.449 127.001 102.464C127.951 106.796 130.649 108.697 135.209 108.317C135.399 108.317 135.551 108.355 135.665 108.507C135.779 108.621 135.855 108.811 135.817 108.963L130.307 146.057C130.269 146.285 130.117 146.475 129.889 146.513C129.851 146.551 117.349 150.085 111.383 151.757Z" fill="black"/>
<path d="M154.399 123.937C145.697 123.937 141.631 117.21 141.593 117.134C141.441 116.868 141.517 116.526 141.783 116.336C142.049 116.184 142.391 116.26 142.581 116.526C142.771 116.83 147.103 123.937 156.679 122.607C156.983 122.569 157.287 122.797 157.325 123.101C157.363 123.405 157.135 123.709 156.831 123.747C155.995 123.899 155.159 123.937 154.399 123.937Z" fill="black"/>
<path d="M141.325 120.631C136.613 120.631 132.205 117.97 130.039 113.524L127.607 108.431C127.455 108.165 127.607 107.823 127.873 107.671C128.139 107.519 128.481 107.671 128.633 107.937L131.065 113.029C133.497 118.046 139.159 120.593 144.517 119.034L156.487 115.538C156.791 115.462 157.095 115.614 157.209 115.918C157.285 116.222 157.133 116.526 156.829 116.64L144.859 120.137C143.681 120.479 142.503 120.631 141.325 120.631Z" fill="#FB9946"/>
<path d="M125.937 98.6632C125.709 98.6632 125.519 98.5492 125.405 98.3212C125.139 97.7511 118.869 84.069 122.897 73.3893C124.569 69.0187 127.723 65.7882 132.359 63.7739C132.663 63.6598 132.967 63.7739 133.119 64.0779C133.233 64.382 133.119 64.686 132.815 64.838C128.483 66.7003 125.519 69.7408 123.961 73.8074C120.085 84.031 126.355 97.7131 126.431 97.8651C126.583 98.1692 126.431 98.4732 126.165 98.6252C126.089 98.6252 126.013 98.6632 125.937 98.6632Z" fill="#FB9946"/>
<path d="M161.238 116.07C161.466 114.284 160.174 112.649 158.35 112.421C156.526 112.193 154.854 113.448 154.626 115.234C154.398 117.02 155.69 118.654 157.514 118.882C159.338 119.11 161.01 117.856 161.238 116.07Z" fill="#FB9946"/>
<path d="M137.223 103.11C137.869 98.0932 134.639 93.5325 130.041 92.9624C129.547 92.8864 127.647 92.8483 127.191 92.8864C123.201 93.1524 121.149 96.5349 120.579 101.02C119.971 105.846 121.795 110.331 126.127 111.205C126.317 111.243 127.571 111.357 127.761 111.357C132.777 111.319 136.577 108.127 137.223 103.11Z" fill="#FB9946"/>
<path d="M135.242 102.91C135.779 97.88 132.475 93.4033 127.863 92.9112C123.251 92.4191 119.077 96.098 118.54 101.128C118.003 106.159 121.307 110.635 125.919 111.127C130.531 111.619 134.705 107.941 135.242 102.91Z" fill="#FFF4E9"/>
<path d="M118.717 109.153C118.527 109.115 118.527 108.887 118.717 108.849C122.365 108.127 131.523 105.922 129.661 101.78C128.977 100.259 121.415 101.324 118.299 101.742C115.221 102.16 105.646 110.407 103.556 116.868C101.96 121.847 101.276 129.79 99.9456 134.807C99.9456 134.807 50.9261 199.379 56.36 225.413C63.1619 257.832 95.0056 245.974 100.972 230.848C106.254 217.47 108.229 156.204 108.647 142.446C109.293 140.774 110.927 136.631 112.409 135.111C114.271 133.173 123.885 129.03 124.189 124.849C124.417 121.657 119.135 118.084 116.551 116.526C116.133 116.26 116.323 115.652 116.779 115.652C118.261 115.652 120.617 115.918 122.897 117.172C126.697 119.3 130.725 118.16 129.585 115.538C128.521 113.143 123.049 109.647 118.717 109.153Z" fill="white"/>
<path d="M77.0692 246.62C76.4612 246.62 75.8532 246.582 75.2452 246.544C69.5073 246.05 59.3614 242.705 55.7894 225.527C50.3935 199.873 96.601 138.303 99.413 134.579C99.983 132.412 100.401 129.752 100.895 126.902C101.503 123.253 102.111 119.528 103.023 116.678C105.189 109.951 115.069 101.59 118.261 101.172L118.641 101.134C125.443 100.221 129.509 99.9934 130.193 101.552C130.611 102.464 130.611 103.338 130.155 104.212C128.901 106.606 124.341 108.127 120.807 109.001C124.949 110.141 129.167 113.143 130.117 115.272C130.573 116.298 130.383 117.248 129.661 117.932C128.255 119.224 125.253 119.072 122.669 117.628C120.655 116.526 118.641 116.222 117.159 116.184C120.237 118.084 125.025 121.581 124.759 124.887C124.531 128.08 119.895 130.93 116.171 133.249C114.651 134.161 113.359 134.997 112.827 135.529C111.421 137.011 109.749 141.192 109.217 142.598C108.875 155.254 106.823 217.584 101.503 231.114C99.831 235.37 96.069 239.513 91.205 242.477C86.6831 245.176 81.7431 246.62 77.0692 246.62ZM100.477 134.921V135.035L100.363 135.187C99.869 135.833 87.8991 151.681 76.4992 170.798C61.4893 195.996 54.7254 214.847 56.8914 225.299C59.4374 237.461 66.0113 244.606 75.3592 245.404C85.2771 246.24 96.981 239.361 100.401 230.658C105.683 217.28 107.659 154.798 108.039 142.446V142.332L108.077 142.256C108.875 140.09 110.471 136.251 111.953 134.731C112.561 134.085 113.853 133.287 115.525 132.26C118.831 130.208 123.391 127.396 123.581 124.811C123.733 122.797 120.997 119.87 116.247 117.02C115.829 116.754 115.639 116.298 115.791 115.842C115.905 115.386 116.323 115.082 116.779 115.082C118.375 115.082 120.807 115.348 123.163 116.678C125.519 118.008 127.951 117.932 128.863 117.134C129.243 116.792 129.319 116.336 129.053 115.766C128.103 113.6 122.821 110.255 118.679 109.761C118.337 109.723 118.033 109.419 118.033 109.077C118.033 108.735 118.261 108.393 118.603 108.355C124.265 107.253 128.217 105.504 129.129 103.756C129.395 103.224 129.395 102.692 129.129 102.084C129.129 102.084 128.787 101.476 125.177 101.666C122.973 101.78 120.427 102.122 118.793 102.312L118.413 102.35C115.525 102.73 106.139 110.825 104.125 117.096C103.251 119.832 102.643 123.557 102.035 127.13C101.503 129.98 101.047 132.678 100.477 134.921Z" fill="black"/>
<path d="M83.4524 251.409C81.4384 251.409 80.1844 251.257 80.0704 251.257C79.7664 251.219 79.5384 250.953 79.5764 250.611C79.6144 250.307 79.8804 250.079 80.2224 250.117C80.2984 250.117 88.2023 250.991 96.6002 248.216C107.772 244.492 114.498 236.397 116.512 224.083C116.55 223.779 116.854 223.551 117.158 223.627C117.462 223.665 117.69 223.969 117.614 224.273C114.992 240.159 104.922 246.658 96.9042 249.319C91.6223 251.067 86.6063 251.409 83.4524 251.409Z" fill="#FB9946"/>
<path d="M264.674 209.146H198.593C196.427 209.146 195.059 206.752 196.199 204.89L237.162 137.961C238.036 136.517 239.594 135.681 241.266 135.681H306.74C309.171 135.681 310.653 138.341 309.399 140.394L268.74 206.866C267.866 208.272 266.346 209.146 264.674 209.146Z" fill="white"/>
<path d="M264.673 209.716H198.592C197.376 209.716 196.274 209.07 195.666 208.006C195.058 206.942 195.096 205.65 195.742 204.586L236.667 137.657C237.655 136.061 239.403 135.073 241.265 135.073H306.739C308.069 135.073 309.285 135.757 309.931 136.935C310.577 138.113 310.576 139.482 309.854 140.66L269.233 207.17C268.283 208.728 266.497 209.716 264.673 209.716ZM241.265 136.251C239.783 136.251 238.415 137.011 237.655 138.265L196.692 205.194C196.274 205.878 196.236 206.714 196.654 207.436C197.072 208.158 197.794 208.576 198.592 208.576H264.635C266.117 208.576 267.485 207.816 268.245 206.562L308.867 140.09C309.361 139.292 309.36 138.341 308.905 137.543C308.449 136.745 307.613 136.251 306.701 136.251H241.265Z" fill="black"/>
<path d="M280.177 166.466H233.779L236.515 162.019H282.913L280.177 166.466Z" fill="#FB9946"/>
<path d="M285.497 157.8H239.1L247.384 144.232H293.781L285.497 157.8Z" fill="#FB9946"/>
<path d="M263.229 265.053H190.498L244.42 182.086C246.092 179.502 249.055 177.905 252.209 177.905H311.223C314.985 177.905 317.265 181.934 315.251 185.012L263.229 265.053Z" fill="black"/>
<path d="M274.394 211.249C278.705 208.447 280.977 204.292 279.467 201.968C277.958 199.645 273.239 200.033 268.927 202.836C264.616 205.638 262.345 209.793 263.854 212.116C265.364 214.439 270.083 214.051 274.394 211.249Z" fill="#FFF4E9"/>
<path d="M256.426 271.97H134.41C130.534 271.97 127.342 268.815 127.342 264.901V264.445H263.456V264.901C263.494 268.815 260.34 271.97 256.426 271.97Z" fill="black"/>
<path d="M259.429 265.699H196.996C196.692 265.699 196.426 265.433 196.426 265.129C196.426 264.825 196.692 264.559 196.996 264.559H259.467C259.771 264.559 260.037 264.825 260.037 265.129C259.999 265.433 259.771 265.699 259.429 265.699Z" fill="white"/>
<path d="M282.913 128.802C282.799 128.802 282.723 128.764 282.609 128.726C282.343 128.574 282.267 128.232 282.419 127.928L294.199 108.051C294.351 107.785 294.693 107.709 294.997 107.861C295.263 108.013 295.339 108.355 295.187 108.659L283.407 128.536C283.293 128.688 283.103 128.802 282.913 128.802Z" fill="black"/>
<path d="M287.548 128.802C287.434 128.802 287.282 128.764 287.168 128.688C286.94 128.498 286.902 128.118 287.092 127.89L297.77 115.044C297.96 114.816 298.34 114.778 298.568 114.968C298.796 115.158 298.834 115.538 298.644 115.766L287.966 128.612C287.89 128.726 287.7 128.802 287.548 128.802Z" fill="black"/>
<path d="M116.094 277.101L98.1964 251.333C96.7144 249.204 93.3704 247.342 90.7485 247.152L87.4425 246.962C84.4405 246.81 81.5146 247.342 78.6646 248.254C70.6847 250.877 58.1448 250.079 43.8569 220.51C29.6451 191.132 36.599 180.756 43.5529 176.081C46.5929 174.029 49.1009 171.368 51.2289 168.366L52.0648 167.188C53.5848 165.059 54.1548 161.259 53.4328 158.751L44.2749 128.726C43.5149 126.217 40.779 124.431 38.195 124.697L30.8231 125.495C24.6291 126.179 18.7772 128.802 14.3692 133.249C-4.25059 152.061 -4.2886 192.462 15.8512 234.002C36.029 275.695 67.8727 300.702 94.1684 297.624C100.248 296.902 105.834 294.013 110.128 289.643L115.448 284.246C117.31 282.536 117.576 279.229 116.094 277.101Z" fill="#FB9946"/>
<path d="M89.6845 298.574C77.7906 298.574 64.9848 293.291 52.3689 283.182C38.005 271.628 25.1992 254.753 15.3573 234.382C5.51535 214.049 0.195399 193.602 0.0054013 175.207C-0.184597 156.964 4.64135 142.37 13.9513 132.944C18.2832 128.574 24.2492 125.761 30.7471 125.039L38.119 124.241C40.969 123.937 43.971 125.913 44.807 128.65L53.9649 158.674C54.7629 161.335 54.1169 165.325 52.5209 167.606L51.6849 168.784C49.3669 172.053 46.7449 174.713 43.857 176.651C33.3691 183.682 33.5211 198.011 44.351 220.358C55.2189 242.781 66.3907 251.751 78.4746 247.798C81.6286 246.772 84.6306 246.316 87.4805 246.468L90.7865 246.658C93.5605 246.81 97.0944 248.786 98.6524 251.067L116.55 276.835C118.184 279.191 117.88 282.764 115.866 284.816L110.546 290.213C106.1 294.735 100.286 297.624 94.2445 298.346C92.7625 298.498 91.2425 298.574 89.6845 298.574ZM38.727 125.343C38.575 125.343 38.423 125.343 38.271 125.381L30.8991 126.179C24.6672 126.864 18.9672 129.562 14.7873 133.743C5.66735 142.94 0.955392 157.268 1.14539 175.169C1.33539 193.374 6.57933 213.669 16.3832 233.85C26.1871 254.069 38.879 270.792 53.0909 282.27C67.0747 293.519 81.2866 298.688 94.1305 297.168C99.9444 296.484 105.492 293.709 109.748 289.377L115.068 283.98C116.702 282.346 116.93 279.343 115.638 277.443L97.7404 251.675C96.3725 249.699 93.1425 247.912 90.7485 247.76L87.4425 247.57C84.7446 247.418 81.8566 247.836 78.8546 248.824C66.1247 253.005 54.4969 243.846 43.363 220.814C32.2291 197.859 32.1911 183.074 43.249 175.663C46.0229 173.801 48.5309 171.254 50.7729 168.1L51.6089 166.922C53.0149 164.945 53.5849 161.335 52.8629 158.979L43.705 128.954C43.097 126.94 40.893 125.343 38.727 125.343Z" fill="black"/>
<path d="M42.9459 60.3153C42.5279 60.3153 42.11 60.2773 41.692 60.1633C40.4 59.8212 39.336 59.0231 38.652 57.8829C37.968 56.7428 37.816 55.4125 38.12 54.1203C38.196 53.8163 38.5 53.6263 38.804 53.7023C39.108 53.7783 39.298 54.0823 39.222 54.3864C38.956 55.3745 39.108 56.4007 39.602 57.2748C40.134 58.149 40.932 58.7951 41.92 59.0231C42.908 59.2891 43.9339 59.1371 44.8079 58.643C45.6819 58.111 46.3279 57.3128 46.5559 56.3247C46.8219 55.3365 46.6699 54.3104 46.1759 53.4362C45.6439 52.5621 44.8459 51.916 43.8579 51.688C43.5539 51.612 43.3639 51.3079 43.4399 51.0039C43.5159 50.6998 43.8199 50.5098 44.1239 50.5858C45.4159 50.9279 46.4799 51.726 47.1639 52.8662C47.8479 54.0063 47.9999 55.3365 47.6959 56.6287C47.1639 58.8331 45.1499 60.3153 42.9459 60.3153Z" fill="black"/>
<path d="M54.1557 51.536C54.0037 51.536 53.8517 51.4599 53.7377 51.3459C53.5477 51.1179 53.5477 50.7378 53.8137 50.5478C54.1557 50.2438 87.7854 21.8154 125.101 11.6298C125.405 11.5538 125.709 11.7438 125.785 12.0479C125.861 12.3519 125.671 12.656 125.367 12.732C88.3174 22.8415 54.8777 51.1559 54.5357 51.4219C54.4217 51.4979 54.3077 51.536 54.1557 51.536Z" fill="black"/>
<path d="M48.8739 51.992C48.7219 51.992 48.5699 51.916 48.4559 51.802C48.2279 51.5739 48.2659 51.1939 48.4939 51.0039C48.7219 50.8138 69.8877 31.5448 92.2315 21.8153C92.5355 21.7013 92.8395 21.8153 92.9915 22.1194C93.1055 22.4234 92.9915 22.7275 92.6875 22.8795C70.5337 32.533 49.4819 51.688 49.2539 51.878C49.1399 51.954 49.0259 51.992 48.8739 51.992Z" fill="black"/>
<path d="M221.279 316.475C221.051 316.475 220.823 316.323 220.747 316.095C220.633 315.791 220.785 315.487 221.089 315.373C255.858 303.325 278.012 285.044 290.476 271.818C303.966 257.528 309.286 245.936 309.324 245.822C309.438 245.518 309.78 245.404 310.084 245.556C310.388 245.67 310.502 246.012 310.35 246.316C310.312 246.43 304.878 258.174 291.274 272.654C278.734 285.956 256.428 304.389 221.431 316.513C221.431 316.475 221.355 316.475 221.279 316.475Z" fill="black"/>
<path d="M217.44 324C217.174 324 216.946 323.81 216.87 323.544C216.794 323.24 216.984 322.936 217.288 322.86C240.164 317.653 259.392 306.441 271.476 297.928C284.586 288.731 292.414 280.635 292.49 280.559C292.718 280.331 293.06 280.331 293.288 280.559C293.516 280.787 293.516 281.129 293.288 281.357C293.212 281.433 285.346 289.567 272.122 298.84C259.924 307.391 240.582 318.679 217.516 323.962C217.516 324 217.478 324 217.44 324Z" fill="black"/>
</svg>
