<svg width="16" height="16" viewBox="0 0 16 16" fill="none" xmlns="http://www.w3.org/2000/svg">
<g opacity="0.8">
<path d="M9.33334 2V4.66667C9.33334 4.84348 9.40358 5.01305 9.52861 5.13807C9.65363 5.2631 9.8232 5.33333 10 5.33333H12.6667" stroke="white" stroke-linecap="round" stroke-linejoin="round"/>
<path d="M3.33334 5.33333V3.33333C3.33334 2.97971 3.47382 2.64057 3.72387 2.39052C3.97392 2.14048 4.31305 2 4.66668 2H9.33334L12.6667 5.33333V12.6667C12.6667 13.0203 12.5262 13.3594 12.2762 13.6095C12.0261 13.8595 11.687 14 11.3333 14H8.00001" stroke="white" stroke-linecap="round" stroke-linejoin="round"/>
<path d="M4 11.3333C5.10457 11.3333 6 10.4379 6 9.33331C6 8.22874 5.10457 7.33331 4 7.33331C2.89543 7.33331 2 8.22874 2 9.33331C2 10.4379 2.89543 11.3333 4 11.3333Z" stroke="white" stroke-linecap="round" stroke-linejoin="round"/>
<path d="M3 11.3333L2 14.6666L4 13.6666L6 14.6666L5 11.3333" stroke="white" stroke-linecap="round" stroke-linejoin="round"/>
</g>
</svg>
