<svg width="16" height="16" viewBox="0 0 16 16" fill="none" xmlns="http://www.w3.org/2000/svg">
<path d="M8.00063 16C6.96674 16 6.12562 15.1589 6.12562 14.125V14.1093C6.12562 13.8868 5.9906 13.69 5.78172 13.6079C5.20969 13.3833 4.67635 13.0728 4.19651 12.6849C4.01969 12.542 3.78044 12.5207 3.58693 12.6305C3.58639 12.6308 3.58411 12.6321 3.58357 12.6325C2.68284 13.1399 1.53561 12.8225 1.02592 11.925C0.778787 11.4897 0.71636 10.9845 0.850084 10.5025C0.984078 10.0195 1.29876 9.61775 1.73622 9.37129L1.74467 9.36649C1.93399 9.25899 2.04173 9.04477 2.01224 8.83384C1.97346 8.55683 1.9538 8.27365 1.9538 7.99218C1.9538 7.69854 1.97523 7.4031 2.01755 7.11422C2.04892 6.89985 1.93921 6.68143 1.74452 6.57088L1.73499 6.56545C1.29822 6.31892 0.984048 5.91754 0.850174 5.43503C0.71642 4.95297 0.778907 4.44778 1.02598 4.01256C1.53567 3.11494 2.68293 2.79747 3.58336 3.30486L3.62106 3.32626C3.81314 3.43535 4.05209 3.41425 4.22993 3.27258C4.49986 3.05749 4.89312 3.10193 5.10821 3.37196C5.3233 3.64196 5.2788 4.03519 5.00883 4.25025C4.42937 4.7119 3.64231 4.77591 3.00375 4.41322L2.96794 4.3929C2.66782 4.22381 2.28347 4.32958 2.11297 4.62981C2.03109 4.77399 2.01038 4.94128 2.05465 5.10084C2.09918 5.26133 2.20402 5.39496 2.34988 5.47717C2.35087 5.47774 2.35186 5.47831 2.35282 5.47885L2.36288 5.4846C3.00106 5.84705 3.35976 6.57495 3.25436 7.29524C3.22082 7.52441 3.2038 7.75893 3.2038 7.99221C3.2038 8.2159 3.21938 8.44076 3.25016 8.66059C3.35167 9.38564 3.00279 10.0896 2.36139 10.4538L2.35114 10.4597C2.20405 10.5425 2.09915 10.6762 2.05468 10.8366C2.01038 10.9962 2.03112 11.1635 2.113 11.3077C2.28347 11.6079 2.66779 11.7137 2.96977 11.5436C3.61309 11.1782 4.40315 11.2446 4.98237 11.7128C5.36286 12.0204 5.78552 12.2665 6.23866 12.4444C6.9294 12.7157 7.3757 13.3692 7.3757 14.1093V14.125C7.3757 14.4696 7.65607 14.75 8.00072 14.75C8.34534 14.75 8.62573 14.4696 8.62573 14.125V14.0967C8.62573 13.3606 9.06871 12.7084 9.75426 12.4352C10.2019 12.2568 10.6195 12.0117 10.9954 11.7066C11.5765 11.235 12.3686 11.1669 13.0134 11.5331L13.0336 11.5446C13.3336 11.7137 13.718 11.6079 13.8884 11.3076C13.9703 11.1635 13.991 10.9961 13.9468 10.8366C13.9022 10.6761 13.7974 10.5425 13.6515 10.4602L13.6112 10.4374C12.9717 10.0742 12.6226 9.37174 12.7218 8.64767C12.7514 8.4321 12.7664 8.21159 12.7664 7.99215C12.7664 7.76141 12.7497 7.52933 12.7169 7.30249C12.6134 6.58703 12.9702 5.8641 13.605 5.50363L13.6496 5.47825C13.7974 5.39496 13.9022 5.26133 13.9467 5.10084C13.991 4.94131 13.9703 4.77399 13.8884 4.62981C13.7179 4.32964 13.3336 4.22381 13.0316 4.39392L12.9787 4.42398C12.3717 4.76881 11.6108 4.72436 11.0402 4.31078C10.7608 4.10822 10.6984 3.71742 10.901 3.43792C11.1036 3.15843 11.4943 3.09612 11.7738 3.29871C11.9487 3.42549 12.1793 3.44047 12.3614 3.33708L12.4162 3.30594C13.3185 2.79753 14.4657 3.115 14.9754 4.01256C15.2226 4.44778 15.285 4.95294 15.1512 5.43503C15.0172 5.91799 14.7026 6.31973 14.2651 6.5662L14.2223 6.59048C14.0314 6.69894 13.9235 6.91313 13.954 7.12348C13.9954 7.40942 14.0163 7.70171 14.0163 7.99218C14.0163 8.26817 13.9975 8.54584 13.9602 8.81739C13.9313 9.02867 14.039 9.24287 14.2284 9.3504L14.2668 9.37222C14.7026 9.61775 15.0173 10.0195 15.1513 10.5024C15.285 10.9845 15.2225 11.4897 14.9754 11.9249C14.4657 12.8225 13.3185 13.1399 12.418 12.6326L12.396 12.6201C12.2021 12.5099 11.9615 12.5324 11.7831 12.6772C11.309 13.062 10.782 13.3713 10.2171 13.5964C10.0097 13.6791 9.87576 13.8755 9.87576 14.0968V14.125C9.87564 15.1589 9.03452 16 8.00063 16ZM11.5006 8C11.5006 7.65481 11.2208 7.37499 10.8756 7.37499C10.5304 7.37499 10.2506 7.65481 10.2506 8C10.2506 9.24065 9.24125 10.25 8.0006 10.25C6.75995 10.25 5.75061 9.24065 5.75061 8C5.75061 7.65481 5.47078 7.37499 5.12559 7.37499C4.78041 7.37499 4.50058 7.65481 4.50058 8C4.50058 9.92992 6.07068 11.5 8.00057 11.5C9.93046 11.5 11.5006 9.92992 11.5006 8ZM7.99823 8.06249C6.96434 8.06249 6.12322 7.22136 6.12322 6.18748V3.35731C6.12322 2.6511 6.33028 1.96726 6.72213 1.37968C6.72369 1.37734 6.72525 1.37503 6.72683 1.37266L7.48294 0.271225C7.59952 0.101478 7.79225 9.53674e-07 7.99823 9.53674e-07C8.20421 9.53674e-07 8.39692 0.101478 8.51353 0.271285L9.26966 1.37272C9.27125 1.37503 9.2728 1.37734 9.27436 1.37974C9.66618 1.96729 9.87327 2.65113 9.87327 3.35736V6.18754C9.87321 7.22136 9.03209 8.06249 7.99823 8.06249ZM7.75991 2.07644C7.50691 2.45726 7.37319 2.90006 7.37322 3.35728V6.18748C7.37322 6.53209 7.65358 6.81249 7.99823 6.81249C8.34285 6.81249 8.62324 6.53212 8.62324 6.18748V3.35731C8.62324 2.9 8.48952 2.45714 8.23652 2.07638L7.99823 1.72936L7.75991 2.07644Z" fill="#E25569"/>
</svg>
