<svg width="16" height="16" viewBox="0 0 16 16" fill="none" xmlns="http://www.w3.org/2000/svg">
<path d="M8.00038 16C6.9665 16 6.12537 15.1589 6.12537 14.125V14.1093C6.12537 13.8868 5.99036 13.69 5.78147 13.6079C5.20944 13.3833 4.67611 13.0728 4.19627 12.6849C4.01944 12.542 3.7802 12.5207 3.58669 12.6305C3.58615 12.6308 3.58387 12.6321 3.58333 12.6325C2.6826 13.1399 1.53536 12.8225 1.02567 11.925C0.778543 11.4897 0.716116 10.9845 0.84984 10.5025C0.983834 10.0195 1.29851 9.61775 1.73598 9.37128L1.74443 9.36649C1.93375 9.25899 2.04149 9.04477 2.012 8.83384C1.97322 8.55683 1.95356 8.27365 1.95356 7.99218C1.95356 7.69854 1.97499 7.4031 2.0173 7.11422C2.04868 6.89985 1.93896 6.68143 1.74428 6.57087L1.73475 6.56545C1.29797 6.31892 0.983804 5.91754 0.84993 5.43503C0.716176 4.95297 0.778663 4.44777 1.02573 4.01256C1.53542 3.11494 2.68269 2.79747 3.58312 3.30486L3.62082 3.32626C3.8129 3.43534 4.05184 3.41425 4.22968 3.27258C4.49962 3.05749 4.89288 3.10193 5.10797 3.37196C5.32306 3.64195 5.27855 4.03518 5.00859 4.25025C4.42913 4.7119 3.64207 4.77591 3.00351 4.41322L2.9677 4.3929C2.66758 4.22381 2.28322 4.32957 2.11273 4.62981C2.03085 4.77399 2.01014 4.94128 2.0544 5.10084C2.09894 5.26133 2.20377 5.39496 2.34963 5.47717C2.35062 5.47774 2.35161 5.47831 2.35257 5.47885L2.36264 5.4846C3.00081 5.84705 3.35952 6.57495 3.25411 7.29524C3.22058 7.52441 3.20356 7.75893 3.20356 7.99221C3.20356 8.2159 3.21914 8.44076 3.24992 8.66059C3.35142 9.38564 3.00255 10.0896 2.36114 10.4538L2.35089 10.4597C2.2038 10.5425 2.09891 10.6762 2.05443 10.8366C2.01014 10.9962 2.03088 11.1635 2.11276 11.3077C2.28322 11.6078 2.66755 11.7137 2.96952 11.5436C3.61285 11.1782 4.4029 11.2446 4.98213 11.7128C5.36262 12.0204 5.78528 12.2665 6.23842 12.4444C6.92915 12.7157 7.37546 13.3692 7.37546 14.1093V14.125C7.37546 14.4696 7.65582 14.75 8.00047 14.75C8.34509 14.75 8.62549 14.4696 8.62549 14.125V14.0967C8.62549 13.3606 9.06847 12.7084 9.75402 12.4352C10.2016 12.2568 10.6192 12.0117 10.9952 11.7066C11.5762 11.235 12.3684 11.1669 13.0131 11.5331L13.0334 11.5446C13.3334 11.7137 13.7177 11.6078 13.8882 11.3076C13.9701 11.1635 13.9908 10.9961 13.9465 10.8366C13.902 10.6761 13.7971 10.5425 13.6513 10.4602L13.6109 10.4374C12.9715 10.0742 12.6224 9.37173 12.7216 8.64767C12.7511 8.4321 12.7661 8.21158 12.7661 7.99215C12.7661 7.76141 12.7495 7.52933 12.7167 7.30249C12.6131 6.58703 12.97 5.8641 13.6047 5.50363L13.6493 5.47825C13.7971 5.39496 13.9019 5.26133 13.9465 5.10084C13.9908 4.94131 13.97 4.77399 13.8882 4.62981C13.7177 4.32963 13.3333 4.22381 13.0314 4.39392L12.9785 4.42398C12.3714 4.76881 11.6105 4.72436 11.04 4.31078C10.7605 4.10822 10.6982 3.71742 10.9007 3.43792C11.1033 3.15843 11.4941 3.09612 11.7736 3.29871C11.9484 3.42548 12.179 3.44047 12.3611 3.33707L12.4159 3.30594C13.3183 2.79753 14.4655 3.115 14.9752 4.01256C15.2223 4.44777 15.2847 4.95294 15.151 5.43503C15.017 5.91799 14.7023 6.31973 14.2649 6.5662L14.2221 6.59047C14.0311 6.69893 13.9233 6.91313 13.9537 7.12348C13.9951 7.40942 14.0161 7.70171 14.0161 7.99218C14.0161 8.26817 13.9972 8.54583 13.96 8.81739C13.9311 9.02867 14.0388 9.24287 14.2281 9.3504L14.2666 9.37221C14.7023 9.61775 15.017 10.0195 15.151 10.5024C15.2847 10.9845 15.2223 11.4897 14.9752 11.9249C14.4655 12.8225 13.3183 13.1399 12.4178 12.6326L12.3957 12.6201C12.2019 12.5099 11.9613 12.5324 11.7829 12.6772C11.3087 13.062 10.7818 13.3713 10.2168 13.5964C10.0094 13.6791 9.87552 13.8755 9.87552 14.0968V14.125C9.8754 15.1589 9.03427 16 8.00038 16ZM11.5004 8C11.5004 7.65481 11.2205 7.37499 10.8754 7.37499C10.5302 7.37499 10.2503 7.65481 10.2503 8C10.2503 9.24065 9.241 10.25 8.00035 10.25C6.75971 10.25 5.75036 9.24065 5.75036 8C5.75036 7.65481 5.47054 7.37499 5.12535 7.37499C4.78016 7.37499 4.50034 7.65481 4.50034 8C4.50034 9.92992 6.07044 11.5 8.00032 11.5C9.93021 11.5 11.5004 9.92992 11.5004 8ZM7.99799 8.06249C6.9641 8.06249 6.12297 7.22136 6.12297 6.18747V3.3573C6.12297 2.6511 6.33003 1.96726 6.72189 1.37968C6.72344 1.37734 6.725 1.37503 6.72659 1.37266L7.48269 0.271224C7.59927 0.101477 7.79201 0 7.99799 0C8.20397 0 8.39667 0.101477 8.51328 0.271284L9.26941 1.37272C9.271 1.37503 9.27256 1.37734 9.27412 1.37974C9.66594 1.96729 9.87303 2.65113 9.87303 3.35736V6.18753C9.87297 7.22136 9.03185 8.06249 7.99799 8.06249ZM7.75967 2.07644C7.50667 2.45726 7.37294 2.90006 7.37297 3.35727V6.18747C7.37297 6.53209 7.65334 6.81249 7.99799 6.81249C8.34261 6.81249 8.623 6.53212 8.623 6.18747V3.3573C8.623 2.9 8.48928 2.45714 8.23627 2.07638L7.99799 1.72936L7.75967 2.07644Z" fill="#E25569"/>
</svg>
