<svg width="24" height="24" viewBox="0 0 24 24" fill="none" xmlns="http://www.w3.org/2000/svg">
<rect width="24" height="24" rx="2" fill="#F6F7F9"/>
<g opacity="0.5">
<path d="M5.33301 7.8335H18.6663" stroke="#23282E" stroke-width="1.5" stroke-linecap="round" stroke-linejoin="round"/>
<path d="M10.333 11.1665V16.1665" stroke="#23282E" stroke-width="1.5" stroke-linecap="round" stroke-linejoin="round"/>
<path d="M13.667 11.1665V16.1665" stroke="#23282E" stroke-width="1.5" stroke-linecap="round" stroke-linejoin="round"/>
<path d="M6.16699 7.8335L7.00033 17.8335C7.00033 18.2755 7.17592 18.6994 7.48848 19.012C7.80104 19.3246 8.22496 19.5002 8.66699 19.5002H15.3337C15.7757 19.5002 16.1996 19.3246 16.5122 19.012C16.8247 18.6994 17.0003 18.2755 17.0003 17.8335L17.8337 7.8335" stroke="#23282E" stroke-width="1.5" stroke-linecap="round" stroke-linejoin="round"/>
<path d="M9.5 7.83333V5.33333C9.5 5.11232 9.5878 4.90036 9.74408 4.74408C9.90036 4.5878 10.1123 4.5 10.3333 4.5H13.6667C13.8877 4.5 14.0996 4.5878 14.2559 4.74408C14.4122 4.90036 14.5 5.11232 14.5 5.33333V7.83333" stroke="#23282E" stroke-width="1.5" stroke-linecap="round" stroke-linejoin="round"/>
</g>
</svg>
