<svg width="40" height="40" viewBox="0 0 40 40" fill="none" xmlns="http://www.w3.org/2000/svg">
<rect width="40" height="40" rx="6" fill="#E25569"/>
<path d="M28.2422 10H11.7578C10.7886 10 10 10.7886 10 11.7578V24.7266C10 25.6958 10.7886 26.4844 11.7578 26.4844H18.0152L17.2339 28.8281H15.3125C14.9889 28.8281 14.7266 29.0905 14.7266 29.4141C14.7266 29.7377 14.9889 30 15.3125 30C15.8152 30 24.3872 30 24.6875 30C25.0111 30 25.2734 29.7377 25.2734 29.4141C25.2734 29.0905 25.0111 28.8281 24.6875 28.8281H22.7661L21.9848 26.4844H28.2422C29.2114 26.4844 30 25.6958 30 24.7266V11.7578C30 10.7886 29.2114 10 28.2422 10ZM18.4692 28.8281L19.2504 26.4844H20.7495L21.5308 28.8281H18.4692ZM28.8281 24.7266C28.8281 25.0496 28.5653 25.3125 28.2422 25.3125C27.8622 25.3125 12.2261 25.3125 11.7578 25.3125C11.4347 25.3125 11.1719 25.0496 11.1719 24.7266V24.1406H28.8281V24.7266ZM28.8281 22.9688H11.1719V11.7578C11.1719 11.4347 11.4347 11.1719 11.7578 11.1719H28.2422C28.5653 11.1719 28.8281 11.4347 28.8281 11.7578V22.9688Z" fill="white"/>
<path d="M23.8407 14.8249L20.325 12.4812C20.1282 12.35 19.8718 12.35 19.675 12.4812L16.1594 14.8249C15.9973 14.933 15.8984 15.1174 15.8984 15.3125V18.8281C15.8984 19.024 15.9963 19.207 16.1594 19.3156L19.675 21.6594C19.8693 21.7889 20.1261 21.792 20.325 21.6594L23.8407 19.3156C24.0037 19.207 24.1016 19.024 24.1016 18.8281V15.3125C24.1016 15.1144 24 14.9312 23.8407 14.8249ZM19.4141 20.077L17.0703 18.5145V16.4073L19.4141 17.9698V20.077ZM20 16.952L17.5407 15.3125L20 13.6729L22.4593 15.3125L20 16.952ZM22.9297 18.5145L20.5859 20.077V17.9698L22.9297 16.4073V18.5145Z" fill="white"/>
</svg>
