<svg width="20" height="20" viewBox="0 0 20 20" fill="none" xmlns="http://www.w3.org/2000/svg">
<path d="M7.50004 5.83326H5.00004C4.55801 5.83326 4.13409 6.00885 3.82153 6.32141C3.50897 6.63397 3.33337 7.05789 3.33337 7.49992V14.9999C3.33337 15.4419 3.50897 15.8659 3.82153 16.1784C4.13409 16.491 4.55801 16.6666 5.00004 16.6666H12.5C12.9421 16.6666 13.366 16.491 13.6786 16.1784C13.9911 15.8659 14.1667 15.4419 14.1667 14.9999V12.4999" stroke="#E25569" stroke-width="1.5" stroke-linecap="round" stroke-linejoin="round"/>
<path d="M7.5 12.5H10L17.0833 5.41663C17.4149 5.08511 17.6011 4.63547 17.6011 4.16663C17.6011 3.69779 17.4149 3.24815 17.0833 2.91663C16.7518 2.58511 16.3022 2.39886 15.8333 2.39886C15.3645 2.39886 14.9149 2.58511 14.5833 2.91663L7.5 9.99996V12.5Z" stroke="#E25569" stroke-width="1.5" stroke-linecap="round" stroke-linejoin="round"/>
<path d="M13.3334 4.1667L15.8334 6.6667" stroke="#E25569" stroke-width="1.5" stroke-linecap="round" stroke-linejoin="round"/>
</svg>
