<svg width="12" height="13" viewBox="0 0 12 13" fill="none" xmlns="http://www.w3.org/2000/svg">
<path d="M5.60246 9.52273C5.6547 9.57497 5.71671 9.61641 5.78495 9.64468C5.8532 9.67295 5.92635 9.6875 6.00022 9.6875C6.07409 9.6875 6.14724 9.67295 6.21549 9.64468C6.28373 9.61641 6.34574 9.57497 6.39798 9.52273L8.51928 7.40143C8.62477 7.29594 8.68403 7.15287 8.68403 7.00368C8.68403 6.8545 8.62477 6.71143 8.51928 6.60594C8.41379 6.50045 8.27072 6.44119 8.12154 6.44119C7.97235 6.44119 7.82928 6.50045 7.72379 6.60594L6.56272 7.76701V1.625C6.56272 1.47582 6.50346 1.33274 6.39797 1.22725C6.29248 1.12176 6.1494 1.0625 6.00022 1.0625C5.85104 1.0625 5.70796 1.12176 5.60247 1.22725C5.49698 1.33274 5.43772 1.47582 5.43772 1.625V7.76701L4.27665 6.60594C4.17116 6.50045 4.02809 6.44119 3.8789 6.44119C3.72972 6.44119 3.58665 6.50045 3.48116 6.60594C3.37567 6.71143 3.31641 6.8545 3.31641 7.00368C3.31641 7.15287 3.37567 7.29594 3.48116 7.40143L5.60246 9.52273Z" fill="white"/>
<path d="M10.875 5.9375C10.7258 5.9375 10.5827 5.99676 10.4773 6.10225C10.3718 6.20774 10.3125 6.35082 10.3125 6.5V10.8125H1.6875V6.5C1.6875 6.35082 1.62824 6.20774 1.52275 6.10225C1.41726 5.99676 1.27418 5.9375 1.125 5.9375C0.975816 5.9375 0.832742 5.99676 0.727252 6.10225C0.621763 6.20774 0.5625 6.35082 0.5625 6.5V11C0.5625 11.2486 0.661272 11.4871 0.837087 11.6629C1.0129 11.8387 1.25136 11.9375 1.5 11.9375H10.5C10.7486 11.9375 10.9871 11.8387 11.1629 11.6629C11.3387 11.4871 11.4375 11.2486 11.4375 11V6.5C11.4375 6.35082 11.3782 6.20774 11.2727 6.10225C11.1673 5.99676 11.0242 5.9375 10.875 5.9375Z" fill="white"/>
</svg>
