<svg width="24" height="24" viewBox="0 0 24 24" fill="none" xmlns="http://www.w3.org/2000/svg" opacity="0.5">
<path d="M18 8.00001H10C8.89543 8.00001 8 8.89544 8 10V18C8 19.1046 8.89543 20 10 20H18C19.1046 20 20 19.1046 20 18V10C20 8.89544 19.1046 8.00001 18 8.00001Z" stroke="#23282E" stroke-width="1.5" stroke-linecap="round" stroke-linejoin="round"/>
<path d="M16 7.99999V5.99999C16 5.46956 15.7893 4.96085 15.4142 4.58578C15.0391 4.21071 14.5304 3.99999 14 3.99999H6C5.46957 3.99999 4.96086 4.21071 4.58579 4.58578C4.21071 4.96085 4 5.46956 4 5.99999V14C4 14.5304 4.21071 15.0391 4.58579 15.4142C4.96086 15.7893 5.46957 16 6 16H8" stroke="#23282E" stroke-width="1.5" stroke-linecap="round" stroke-linejoin="round"/>
</svg>
