<svg width="357" height="215" viewBox="0 0 357 215" fill="none" xmlns="http://www.w3.org/2000/svg">
<path d="M247.027 47.0086C269.67 67.2813 290.33 88.5604 290.991 110.415C291.487 132.269 271.984 154.698 249.341 170.514C226.698 186.329 200.914 195.531 171.495 198.838C142.075 202.001 108.854 199.269 84.2279 183.598C59.6015 167.782 43.5695 138.883 41.2556 107.97C39.107 77.202 50.5112 44.2769 75.1376 24.0042C99.7641 3.73152 137.613 -3.8887 168.685 1.86241C199.923 7.61352 224.384 26.736 247.027 47.0086Z" fill="#FCEEF0"/>
<g filter="url(#filter0_d)">
<path d="M333.664 138.75H173.336C169.285 138.75 166 135.467 166 131.416V106.084C166 102.033 169.285 98.75 173.336 98.75H333.664C337.715 98.75 341 102.033 341 106.084V131.416C341 135.467 337.715 138.75 333.664 138.75Z" fill="white"/>
</g>
<path d="M205.142 118.993C205.142 127.602 198.165 134.581 189.557 134.581C180.948 134.581 173.969 127.602 173.969 118.993C173.969 110.385 180.948 103.405 189.557 103.405C198.165 103.405 205.142 110.385 205.142 118.993Z" fill="#FFF1F2"/>
<path d="M322.272 123.75H224.726C224.049 123.75 223.5 121.511 223.5 118.75C223.5 115.989 224.049 113.75 224.726 113.75H322.272C322.951 113.75 323.5 115.989 323.5 118.75C323.5 121.511 322.951 123.75 322.272 123.75Z" fill="#F6B3B5"/>
<path d="M189.148 130.828C188.187 130.828 187.292 130.34 186.77 129.532L177.266 114.833C176.418 113.519 176.794 111.764 178.108 110.913C179.424 110.065 181.177 110.441 182.027 111.755L189.105 122.708L202.731 100.849C203.559 99.5218 205.308 99.1168 206.637 99.9448C207.965 100.773 208.37 102.521 207.542 103.849L191.553 129.494C191.04 130.317 190.143 130.819 189.173 130.828C189.164 130.828 189.157 130.828 189.148 130.828Z" fill="#2AB070"/>
<g filter="url(#filter1_d)">
<path d="M201.628 77.5H24.1225C19.6365 77.5 16 72.575 16 66.4997V28.5003C16 22.425 19.6365 17.5 24.1225 17.5H201.628C206.114 17.5 209.75 22.425 209.75 28.5003V66.4997C209.75 72.575 206.114 77.5 201.628 77.5Z" fill="white"/>
</g>
<path d="M53.5 40C53.5 48.2838 46.7855 55 38.5011 55C30.2167 55 23.5 48.2838 23.5 40C23.5 31.7162 30.2167 25 38.5011 25C46.7855 25 53.5 31.7162 53.5 40Z" fill="#FFF1F2"/>
<path d="M43.75 48.4062C42.9167 48.4062 42.0938 48.5521 41.2812 48.8438C40.4896 49.1146 39.6875 49.4271 38.875 49.7812C38.0625 50.1146 37.2292 50.4271 36.375 50.7188C35.5417 50.9896 34.6667 51.125 33.75 51.125C32.5208 51.125 31.4583 50.8854 30.5625 50.4062C29.6667 49.9271 28.9271 49.2917 28.3438 48.5C27.7604 47.6875 27.3229 46.75 27.0312 45.6875C26.7604 44.6042 26.625 43.4688 26.625 42.2812C26.625 41.1146 26.7396 39.8646 26.9688 38.5312C27.1979 37.1771 27.5521 35.8333 28.0312 34.5C28.5104 33.1667 29.1042 31.8854 29.8125 30.6562C30.5417 29.4062 31.3854 28.3021 32.3438 27.3438C33.3021 26.3854 34.375 25.625 35.5625 25.0625C36.7708 24.4792 38.0938 24.1875 39.5312 24.1875C40.5312 24.1875 41.4479 24.3646 42.2812 24.7188C43.1354 25.0729 43.9062 25.5625 44.5938 26.1875C45.2812 26.7917 45.8854 27.5 46.4062 28.3125C46.9271 29.1042 47.3542 29.9583 47.6875 30.875C48.0417 31.7708 48.3021 32.6875 48.4688 33.625C48.6562 34.5625 48.75 35.4583 48.75 36.3125C48.75 37.1667 48.6042 38.0208 48.3125 38.875C48.0417 39.7083 47.7396 40.5312 47.4062 41.3438C47.0938 42.1354 46.7917 42.9271 46.5 43.7188C46.2292 44.5104 46.0938 45.2917 46.0938 46.0625V46.375C46.3229 46.6458 46.6562 47.0104 47.0938 47.4688C47.5521 47.9271 48.0104 48.4375 48.4688 49C48.9271 49.5417 49.3229 50.125 49.6562 50.75C49.9896 51.3542 50.1562 51.9375 50.1562 52.5C50.1562 52.8958 50.0833 53.2083 49.9375 53.4375C49.7917 53.6458 49.3958 53.75 48.75 53.75L48.0625 53.0625C47.9167 52.8958 47.6562 52.5938 47.2812 52.1562C46.9062 51.7188 46.5104 51.25 46.0938 50.75C45.6771 50.25 45.2708 49.7812 44.875 49.3438C44.5 48.9062 44.2396 48.5938 44.0938 48.4062H43.75ZM29.2812 42.4375C29.2812 43.3125 29.3438 44.125 29.4688 44.875C29.6146 45.6042 29.8542 46.2396 30.1875 46.7812C30.5417 47.3021 31.0312 47.7188 31.6562 48.0312C32.2812 48.3229 33.0729 48.4688 34.0312 48.4688C34.2812 48.4688 34.6354 48.4479 35.0938 48.4062C35.5729 48.3646 36.0833 48.3021 36.625 48.2188C37.1875 48.1146 37.75 47.9896 38.3125 47.8438C38.8958 47.6979 39.4167 47.5104 39.875 47.2812C40.3333 47.0312 40.7083 46.7604 41 46.4688C41.3125 46.1562 41.4688 45.7917 41.4688 45.375C41.4688 45.25 41.375 45.0521 41.1875 44.7812C41.0208 44.4896 40.7917 44.1458 40.5 43.75C40.2292 43.3542 39.9271 42.9375 39.5938 42.5C39.2604 42.0417 38.9375 41.5938 38.625 41.1562C38.3333 40.6979 38.0625 40.2917 37.8125 39.9375C37.5833 39.5625 37.4375 39.25 37.375 39C37.5208 38.625 37.7083 38.4167 37.9375 38.375C38.1875 38.3125 38.4583 38.2812 38.75 38.2812C39.1458 38.2812 39.4896 38.4062 39.7812 38.6562C40.0729 38.8854 40.3333 39.1771 40.5625 39.5312C40.8125 39.8854 41.0417 40.2708 41.25 40.6875C41.4792 41.1042 41.7083 41.4896 41.9375 41.8438C42.1875 42.1979 42.4479 42.5 42.7188 42.75C43.0104 42.9792 43.3542 43.0938 43.75 43.0938C44.1458 43.0938 44.4792 42.9479 44.75 42.6562C45.0417 42.3438 45.2708 41.9583 45.4375 41.5C45.625 41.0417 45.7604 40.5312 45.8438 39.9688C45.9479 39.4062 46.0208 38.8646 46.0625 38.3438C46.1042 37.8229 46.125 37.3542 46.125 36.9375C46.1458 36.5 46.1562 36.1875 46.1562 36C46.1562 34.9375 46.0417 33.8646 45.8125 32.7812C45.6042 31.6979 45.2292 30.7292 44.6875 29.875C44.1667 29 43.4688 28.2917 42.5938 27.75C41.7396 27.1875 40.6667 26.9062 39.375 26.9062C38.3958 26.9062 37.4583 27.1667 36.5625 27.6875C35.6667 28.1875 34.8438 28.8646 34.0938 29.7188C33.3438 30.5521 32.6667 31.5104 32.0625 32.5938C31.4792 33.6771 30.9792 34.8021 30.5625 35.9688C30.1458 37.1146 29.8229 38.25 29.5938 39.375C29.3854 40.5 29.2812 41.5208 29.2812 42.4375Z" fill="#E25569"/>
<path d="M190.776 37.5H73.7212C72.9088 37.5 72.25 36.3806 72.25 35C72.25 33.6194 72.9088 32.5 73.7212 32.5H190.776C191.591 32.5 192.25 33.6194 192.25 35C192.25 36.3806 191.591 37.5 190.776 37.5Z" fill="#F6B3B5"/>
<path d="M190.776 50H73.7212C72.9088 50 72.25 48.8806 72.25 47.5C72.25 46.1194 72.9088 45 73.7212 45H190.776C191.591 45 192.25 46.1194 192.25 47.5C192.25 48.8806 191.591 50 190.776 50Z" fill="#F6B3B5"/>
<path d="M131.513 62.5H72.9856C72.5794 62.5 72.25 61.3806 72.25 60C72.25 58.6194 72.5794 57.5 72.9856 57.5H131.513C131.921 57.5 132.25 58.6194 132.25 60C132.25 61.3806 131.921 62.5 131.513 62.5Z" fill="#F6B3B5"/>
<g filter="url(#filter2_d)">
<path d="M333.664 198.75H173.336C169.285 198.75 166 195.467 166 191.416V166.084C166 162.033 169.285 158.75 173.336 158.75H333.664C337.715 158.75 341 162.033 341 166.084V191.416C341 195.467 337.715 198.75 333.664 198.75Z" fill="white"/>
</g>
<path d="M205.142 178.964C205.142 187.572 198.165 194.552 189.557 194.552C180.948 194.552 173.969 187.572 173.969 178.964C173.969 170.355 180.948 163.376 189.557 163.376C198.165 163.376 205.142 170.355 205.142 178.964Z" fill="#FFF1F2"/>
<path d="M322.272 182.5H224.726C224.049 182.5 223.5 180.261 223.5 177.5C223.5 174.739 224.049 172.5 224.726 172.5H322.272C322.951 172.5 323.5 174.739 323.5 177.5C323.5 180.261 322.951 182.5 322.272 182.5Z" fill="#F6B3B5"/>
<path d="M195.149 190.784C194.461 190.784 193.776 190.514 193.263 189.981C193.047 189.763 190.67 187.462 188.153 185.026C181.454 178.547 178.403 175.586 178.023 175.176C177.043 174.115 177.107 172.46 178.168 171.48C179.227 170.5 180.878 170.564 181.858 171.617C182.34 172.124 188.026 177.625 191.789 181.267C195.452 184.81 196.854 186.168 197.034 186.355C198.035 187.397 198.002 189.052 196.962 190.053C196.453 190.541 195.801 190.784 195.149 190.784Z" fill="#F99349"/>
<path d="M179.945 190.784C179.142 190.784 178.348 190.415 177.836 189.717C176.997 188.575 177.223 186.978 178.33 186.11C179.254 185.317 187.99 176.769 193.315 171.534C194.345 170.523 196 170.537 197.013 171.567C198.027 172.595 198.012 174.252 196.982 175.266C190.318 181.818 182.221 189.74 181.492 190.276C181.027 190.618 180.483 190.784 179.945 190.784Z" fill="#F99349"/>
<defs>
<filter id="filter0_d" x="150" y="82.75" width="207" height="72" filterUnits="userSpaceOnUse" color-interpolation-filters="sRGB">
<feFlood flood-opacity="0" result="BackgroundImageFix"/>
<feColorMatrix in="SourceAlpha" type="matrix" values="0 0 0 0 0 0 0 0 0 0 0 0 0 0 0 0 0 0 127 0"/>
<feOffset/>
<feGaussianBlur stdDeviation="8"/>
<feColorMatrix type="matrix" values="0 0 0 0 0 0 0 0 0 0 0 0 0 0 0 0 0 0 0.16 0"/>
<feBlend mode="normal" in2="BackgroundImageFix" result="effect1_dropShadow"/>
<feBlend mode="normal" in="SourceGraphic" in2="effect1_dropShadow" result="shape"/>
</filter>
<filter id="filter1_d" x="0" y="1.5" width="225.75" height="92" filterUnits="userSpaceOnUse" color-interpolation-filters="sRGB">
<feFlood flood-opacity="0" result="BackgroundImageFix"/>
<feColorMatrix in="SourceAlpha" type="matrix" values="0 0 0 0 0 0 0 0 0 0 0 0 0 0 0 0 0 0 127 0"/>
<feOffset/>
<feGaussianBlur stdDeviation="8"/>
<feColorMatrix type="matrix" values="0 0 0 0 0 0 0 0 0 0 0 0 0 0 0 0 0 0 0.16 0"/>
<feBlend mode="normal" in2="BackgroundImageFix" result="effect1_dropShadow"/>
<feBlend mode="normal" in="SourceGraphic" in2="effect1_dropShadow" result="shape"/>
</filter>
<filter id="filter2_d" x="150" y="142.75" width="207" height="72" filterUnits="userSpaceOnUse" color-interpolation-filters="sRGB">
<feFlood flood-opacity="0" result="BackgroundImageFix"/>
<feColorMatrix in="SourceAlpha" type="matrix" values="0 0 0 0 0 0 0 0 0 0 0 0 0 0 0 0 0 0 127 0"/>
<feOffset/>
<feGaussianBlur stdDeviation="8"/>
<feColorMatrix type="matrix" values="0 0 0 0 0 0 0 0 0 0 0 0 0 0 0 0 0 0 0.16 0"/>
<feBlend mode="normal" in2="BackgroundImageFix" result="effect1_dropShadow"/>
<feBlend mode="normal" in="SourceGraphic" in2="effect1_dropShadow" result="shape"/>
</filter>
</defs>
</svg>
