<svg width="596" height="440" viewBox="0 0 596 440" fill="none" xmlns="http://www.w3.org/2000/svg">
<g clip-path="url(#clip0)">
<g filter="url(#filter0_d)">
<path d="M566.547 13.8584H29.4538C24.6695 13.8584 20.791 17.7362 20.791 22.5198V403.622C20.791 408.406 24.6695 412.284 29.4538 412.284H566.547C571.331 412.284 575.21 408.406 575.21 403.622V22.5198C575.21 17.7362 571.331 13.8584 566.547 13.8584Z" fill="#FDBABF"/>
</g>
<path d="M563.081 17.3228H32.9187C28.1343 17.3228 24.2559 21.2006 24.2559 25.9842V400.157C24.2559 404.941 28.1343 408.819 32.9187 408.819H563.081C567.866 408.819 571.744 404.941 571.744 400.157V25.9842C571.744 21.2006 567.866 17.3228 563.081 17.3228Z" fill="white"/>
<path d="M545.757 65.8267H50.2448C45.4605 65.8267 41.582 69.7045 41.582 74.4881V299.685C41.582 304.469 45.4605 308.346 50.2448 308.346H545.757C550.541 308.346 554.419 304.469 554.419 299.685V74.4881C554.419 69.7045 550.541 65.8267 545.757 65.8267Z" fill="#FFF4EB"/>
<path d="M196.935 86.6143H71.0358C66.2515 86.6143 62.373 90.4921 62.373 95.2757V168.032C62.373 172.815 66.2515 176.693 71.0358 176.693H196.935C201.719 176.693 205.598 172.815 205.598 168.032V95.2757C205.598 90.4921 201.719 86.6143 196.935 86.6143Z" fill="white"/>
<path d="M107.348 131.654C107.348 116.784 119.404 104.729 134.272 104.729C149.147 104.729 161.203 116.784 161.203 131.654C161.203 146.523 149.147 158.577 134.272 158.577C119.404 158.577 107.348 146.523 107.348 131.654Z" fill="white"/>
<path d="M134.271 159.37C118.989 159.37 106.553 146.937 106.553 131.654C106.553 128.386 107.113 125.186 108.225 122.144C108.378 121.732 108.833 121.523 109.245 121.67C109.657 121.821 109.87 122.277 109.716 122.687C108.669 125.555 108.14 128.572 108.14 131.654C108.14 146.062 119.861 157.785 134.271 157.785C148.686 157.785 160.408 146.062 160.408 131.654C160.408 117.244 148.686 105.522 134.271 105.522C126.432 105.522 119.069 109 114.08 115.063C113.805 115.401 113.303 115.45 112.964 115.172C112.625 114.894 112.578 114.394 112.853 114.056C118.148 107.625 125.956 103.937 134.271 103.937C149.558 103.937 161.995 116.37 161.995 131.654C161.995 146.937 149.558 159.37 134.271 159.37Z" fill="#333A43"/>
<path d="M115.801 151.233C120.625 155.783 127.121 158.577 134.272 158.577C141.43 158.577 147.926 155.783 152.745 151.233C147.17 149.506 140.9 148.534 134.272 148.534C127.65 148.534 121.381 149.506 115.801 151.233Z" fill="#FFE9E0"/>
<path d="M134.434 153.085C132.086 153.085 130.182 151.182 130.182 148.836V127.166H138.682V148.836C138.682 151.182 136.778 153.085 134.434 153.085Z" fill="white"/>
<path d="M150.89 135.072C150.356 128.342 153.324 124.141 146.669 116.535C139.776 108.661 133.863 113.941 133.863 113.941C133.863 113.941 128.933 109.85 122.462 118.404C116.755 125.956 124.066 132.722 121.611 137.422C119.152 142.124 110.814 144.687 110.814 144.687C110.814 144.687 113.486 150.03 116.803 152.381H151.958C151.958 152.381 159.221 144.474 159.221 142.23C159.221 142.23 151.425 141.803 150.89 135.072Z" fill="#333A43"/>
<path d="M115.801 151.233C120.625 155.783 127.121 158.577 134.272 158.577C141.43 158.577 147.926 155.783 152.745 151.233C147.17 149.506 140.9 148.534 134.272 148.534C127.65 148.534 121.381 149.506 115.801 151.233Z" fill="#FFE9E0"/>
<path d="M117.385 151.589C122.108 155.595 128.049 157.785 134.27 157.785C140.496 157.785 146.436 155.595 151.155 151.59C145.833 150.088 140.163 149.327 134.27 149.327C128.382 149.327 122.706 150.088 117.385 151.589ZM134.27 159.37C127.176 159.37 120.421 156.685 115.254 151.809L114.27 150.878L115.565 150.476C121.427 148.662 127.721 147.741 134.27 147.741C140.824 147.741 147.119 148.662 152.98 150.476L154.276 150.878L153.287 151.809C148.124 156.685 141.368 159.37 134.27 159.37Z" fill="#333A43"/>
<path d="M134.847 120.115H134.55L125.902 128.809V133.576C125.902 136.759 127.621 139.536 130.182 141.04V148.836C130.182 151.182 132.086 153.085 134.434 153.085C136.778 153.085 138.682 151.182 138.682 148.836V141.186C141.38 139.721 143.21 136.862 143.21 133.576V128.48C143.21 123.86 139.465 120.115 134.847 120.115Z" fill="white"/>
<path d="M134.437 153.877C131.654 153.877 129.391 151.615 129.391 148.835V141.276C129.391 140.839 129.745 140.484 130.183 140.484C130.622 140.484 130.977 140.839 130.977 141.276V148.835C130.977 150.741 132.527 152.291 134.437 152.291C136.341 152.291 137.891 150.741 137.891 148.835V141.406C137.891 140.969 138.245 140.614 138.684 140.614C139.123 140.614 139.478 140.969 139.478 141.406V148.835C139.478 151.615 137.214 153.877 134.437 153.877Z" fill="#333A43"/>
<path d="M134.555 143.023C134.116 143.023 133.762 142.668 133.762 142.23C133.762 141.792 134.116 141.437 134.555 141.437C138.893 141.437 142.416 137.911 142.416 133.576V128.479C142.416 124.414 139.236 121.092 135.18 120.915C135.174 120.914 135.168 120.914 135.163 120.914L126.694 129.286V133.576C126.694 136.65 128.504 139.461 131.302 140.735C131.699 140.917 131.878 141.387 131.694 141.786C131.514 142.183 131.043 142.359 130.646 142.178C127.282 140.646 125.107 137.27 125.107 133.576V128.955C125.107 128.744 125.192 128.54 125.34 128.392L134.286 119.551C134.434 119.404 134.635 119.321 134.846 119.321C134.984 119.321 135.116 119.325 135.253 119.331C140.157 119.544 144.003 123.563 144.003 128.479V133.576C144.003 138.785 139.766 143.023 134.555 143.023Z" fill="#333A43"/>
<path d="M196.935 197.48H71.0358C66.2515 197.48 62.373 201.358 62.373 206.142V278.898C62.373 283.681 66.2515 287.559 71.0358 287.559H196.935C201.719 287.559 205.598 283.681 205.598 278.898V206.142C205.598 201.358 201.719 197.48 196.935 197.48Z" fill="white"/>
<path d="M107.875 242.642C107.875 227.834 119.863 215.831 134.653 215.831C149.444 215.831 161.432 227.834 161.432 242.642C161.432 257.45 149.444 269.449 134.653 269.449C119.863 269.449 107.875 257.45 107.875 242.642Z" fill="white"/>
<path d="M115.805 262.134C120.628 266.687 127.126 269.485 134.28 269.485C141.434 269.485 147.931 266.687 152.755 262.134C147.176 260.406 140.909 259.436 134.28 259.436C127.651 259.436 121.384 260.406 115.805 262.134Z" fill="#FEC99E"/>
<path d="M142.909 226.979C141.696 226.197 140.284 225.782 138.836 225.782H130.339C128.444 225.782 126.617 226.495 125.227 227.788L124.759 228.223C122.55 230.271 121.783 233.443 122.801 236.284L125.599 244.039L143.512 243.929L146.043 235.449C146.997 232.241 145.722 228.79 142.909 226.979Z" fill="#333A43"/>
<path d="M138.48 230.361C138.439 230.345 138.365 230.308 138.365 230.308L125.506 238.663V243.704C125.506 246.586 126.849 249.154 128.949 250.814V258.491C128.949 261.526 131.405 263.988 134.439 263.988C137.473 263.988 139.935 261.526 139.935 258.491V251.013C142.181 249.359 143.645 246.708 143.645 243.704V238.358C143.645 234.798 141.525 231.736 138.48 230.361Z" fill="white"/>
<path d="M134.575 253.565C134.14 253.565 133.788 253.213 133.788 252.777C133.788 252.341 134.14 251.989 134.575 251.989C139.141 251.989 142.858 248.272 142.858 243.704V238.358C142.858 233.958 139.278 230.376 134.88 230.376H126.293V243.704C126.293 246.943 128.199 249.904 131.148 251.249C131.542 251.428 131.715 251.895 131.536 252.294C131.358 252.688 130.891 252.867 130.492 252.683C126.986 251.087 124.719 247.563 124.719 243.704V229.588C124.719 229.152 125.07 228.801 125.506 228.801H134.88C140.145 228.801 144.433 233.086 144.433 238.358V243.704C144.433 249.143 140.008 253.565 134.575 253.565Z" fill="#333A43"/>
<path d="M134.276 270.236C127.112 270.241 119.953 267.484 114.536 261.997C109.34 256.72 106.501 249.736 106.553 242.332C106.6 234.923 109.534 227.976 114.804 222.777C125.17 212.543 141.803 212.107 152.672 221.774C152.998 222.068 153.029 222.562 152.741 222.887C152.452 223.213 151.953 223.244 151.629 222.956C141.378 213.835 125.69 214.249 115.912 223.896C110.941 228.805 108.175 235.353 108.127 242.343C108.081 249.326 110.752 255.916 115.66 260.889C125.784 271.155 142.37 271.27 152.636 261.142C158.016 255.827 160.835 248.449 160.368 240.898C160.341 240.462 160.672 240.09 161.107 240.064C161.559 240.027 161.91 240.368 161.942 240.798C162.435 248.807 159.443 256.631 153.738 262.26C148.348 267.584 141.309 270.236 134.276 270.236Z" fill="#333A43"/>
<path d="M134.437 264.776C130.973 264.776 128.16 261.956 128.16 258.491V250.814C128.16 250.378 128.512 250.026 128.948 250.026C129.377 250.026 129.734 250.378 129.734 250.814V258.491C129.734 261.09 131.844 263.201 134.437 263.201C137.035 263.201 139.145 261.09 139.145 258.491V251.202C139.145 250.772 139.497 250.415 139.933 250.415C140.369 250.415 140.719 250.772 140.719 251.202V258.491C140.719 261.956 137.901 264.776 134.437 264.776Z" fill="#333A43"/>
<path d="M360.95 86.6143H235.051C230.267 86.6143 226.389 90.4921 226.389 95.2757V168.032C226.389 172.815 230.267 176.693 235.051 176.693H360.95C365.735 176.693 369.613 172.815 369.613 168.032V95.2757C369.613 90.4921 365.735 86.6143 360.95 86.6143Z" fill="white"/>
<path d="M271.498 131.783C271.498 116.911 283.548 104.852 298.416 104.852C313.279 104.852 325.333 116.911 325.333 131.783C325.333 146.655 313.279 158.714 298.416 158.714C283.548 158.714 271.498 146.655 271.498 131.783Z" fill="white"/>
<path d="M279.465 151.365C284.313 155.936 290.845 158.748 298.039 158.748C305.231 158.748 311.764 155.936 316.612 151.365C311.003 149.629 304.702 148.649 298.039 148.649C291.374 148.649 285.074 149.629 279.465 151.365Z" fill="#FB9946"/>
<path d="M306.717 116.049C305.497 115.262 304.074 114.846 302.626 114.846H294.081C292.173 114.846 290.336 115.568 288.939 116.863L288.471 117.3C286.253 119.361 285.478 122.544 286.502 125.397L289.312 133.187L307.325 133.078L309.863 124.561C310.825 121.337 309.544 117.869 306.717 116.049Z" fill="#333A43"/>
<path d="M302.408 119.513C302.404 119.513 302.391 119.508 302.391 119.508L289.221 127.951V132.849C289.221 135.745 290.572 138.322 292.681 139.993V147.704C292.681 150.753 295.154 153.224 298.203 153.224C301.252 153.224 303.725 150.753 303.725 147.704V140.202C305.987 138.544 307.452 135.868 307.452 132.849V127.483C307.452 123.961 305.392 120.926 302.408 119.513Z" fill="white"/>
<path d="M298.202 153.88C294.793 153.88 292.023 151.111 292.023 147.704V140.154H293.336V147.704C293.336 150.385 295.52 152.567 298.202 152.567C300.884 152.567 303.067 150.385 303.067 147.704V140.39H304.38V147.704C304.38 151.111 301.605 153.88 298.202 153.88Z" fill="#333A43"/>
<path d="M298.338 142.622C297.974 142.622 297.681 142.328 297.681 141.965C297.681 141.602 297.974 141.308 298.338 141.308C303.002 141.308 306.795 137.512 306.795 132.85V127.482C306.795 122.986 303.137 119.325 298.639 119.325H289.875V132.85C289.875 136.157 291.822 139.183 294.833 140.552C295.165 140.701 295.31 141.09 295.161 141.423C295.008 141.751 294.619 141.899 294.29 141.746C290.811 140.163 288.562 136.672 288.562 132.85V118.668C288.562 118.31 288.856 118.013 289.219 118.013H298.639C303.864 118.013 308.107 122.26 308.107 127.482V132.85C308.107 138.238 303.723 142.622 298.338 142.622Z" fill="#333A43"/>
<path d="M297.997 159.37C290.694 159.37 283.404 156.514 277.966 150.836C267.889 140.321 267.697 123.682 277.524 112.957C277.769 112.686 278.185 112.669 278.452 112.913C278.719 113.158 278.736 113.574 278.491 113.841C269.128 124.058 269.316 139.91 278.915 149.931C288.992 160.446 305.746 160.804 316.264 150.731C321.361 145.85 324.25 139.28 324.402 132.224C324.555 125.174 321.948 118.486 317.069 113.39C311.784 107.879 304.381 104.931 296.741 105.28C296.365 105.289 296.071 105.018 296.054 104.655C296.037 104.292 296.316 103.986 296.679 103.968C304.7 103.588 312.471 106.697 318.014 112.481C323.138 117.83 325.872 124.85 325.715 132.256C325.558 139.656 322.521 146.554 317.174 151.676C311.81 156.816 304.897 159.37 297.997 159.37Z" fill="#333A43"/>
<path d="M524.966 86.6143H399.067C394.283 86.6143 390.404 90.4921 390.404 95.2757V168.032C390.404 172.815 394.283 176.693 399.067 176.693H524.966C529.75 176.693 533.629 172.815 533.629 168.032V95.2757C533.629 90.4921 529.75 86.6143 524.966 86.6143Z" fill="white"/>
<path d="M440.232 150.317C445.729 155.51 453.148 158.718 461.336 158.762C469.527 158.802 476.983 155.672 482.529 150.536C476.153 148.54 468.983 147.401 461.397 147.361C453.811 147.324 446.629 148.387 440.232 150.317Z" fill="#FEC99E"/>
<path d="M441.447 150.596C446.944 155.442 453.966 158.117 461.339 158.154C461.392 158.154 461.449 158.154 461.503 158.154C468.819 158.154 475.809 155.555 481.313 150.803C475.056 148.958 468.361 148.006 461.392 147.969C454.432 147.924 447.725 148.816 441.447 150.596ZM461.503 159.37C461.446 159.37 461.392 159.37 461.335 159.37C453.286 159.33 445.643 156.269 439.812 150.755C439.651 150.608 439.586 150.386 439.639 150.174C439.689 149.964 439.848 149.798 440.057 149.733C446.747 147.717 453.925 146.708 461.401 146.752C468.873 146.793 476.042 147.871 482.712 149.955C482.92 150.02 483.08 150.191 483.125 150.401C483.174 150.613 483.105 150.831 482.945 150.982C477.097 156.394 469.486 159.37 461.503 159.37Z" fill="#333A43"/>
<path d="M479.378 129.618C476.699 120.042 471.17 107.489 460.803 109.034C450.861 110.514 446.178 121.331 444.031 129.712C442.722 134.817 446.645 139.767 451.952 139.791L471.419 139.892C476.851 139.921 480.83 134.805 479.378 129.618Z" fill="#333A43"/>
<path d="M470.797 118.497C470.794 118.477 470.785 118.433 470.785 118.433L453.109 118.294C453.109 118.294 453.106 118.323 453.102 118.339C452.869 119.211 452.741 120.132 452.738 121.084L452.709 126.213C452.688 129.647 454.312 132.676 456.782 134.444L456.712 147.836C456.697 150.499 458.864 152.668 461.55 152.685C464.238 152.697 466.429 150.548 466.442 147.884L466.512 134.691C469.157 132.984 470.941 129.874 470.957 126.311L470.989 120.525C470.994 119.828 470.929 119.15 470.797 118.497Z" fill="white"/>
<path d="M461.58 153.292C461.568 153.292 461.56 153.292 461.548 153.292C458.53 153.277 456.083 150.827 456.1 147.831L456.166 134.841C456.17 134.504 456.444 134.233 456.779 134.233C456.783 134.233 456.783 134.233 456.783 134.233C457.123 134.236 457.397 134.513 457.392 134.844L457.327 147.839C457.314 150.163 459.212 152.064 461.556 152.076C461.563 152.076 461.572 152.076 461.58 152.076C462.705 152.076 463.768 151.642 464.569 150.856C465.375 150.065 465.825 149.007 465.829 147.88L465.899 134.841C465.899 134.504 466.173 134.233 466.512 134.233C466.512 134.233 466.512 134.233 466.517 134.233C466.856 134.236 467.126 134.513 467.126 134.844L467.056 147.888C467.048 149.339 466.472 150.702 465.433 151.719C464.398 152.733 463.032 153.292 461.58 153.292Z" fill="#333A43"/>
<path d="M461.858 130.393C461.85 130.393 461.842 130.393 461.838 130.393C460.697 130.389 459.597 129.911 458.82 129.084C458.59 128.84 458.603 128.455 458.853 128.228C459.102 127.997 459.49 128.013 459.719 128.257C460.272 128.848 461.028 129.173 461.842 129.176C462.656 129.193 463.416 128.86 463.981 128.273C464.214 128.03 464.602 128.018 464.847 128.248C465.093 128.479 465.105 128.865 464.872 129.108C464.079 129.939 463.007 130.393 461.858 130.393Z" fill="#333A43"/>
<path d="M461.825 136.694C461.809 136.694 461.793 136.694 461.781 136.694C461.441 136.689 461.167 136.417 461.167 136.081C461.171 135.744 461.441 135.461 461.784 135.477C461.796 135.477 461.813 135.477 461.825 135.477C466.5 135.477 470.32 131.37 470.344 126.306L470.377 120.52C470.389 118.136 469.538 115.894 467.989 114.203C466.447 112.528 464.398 111.601 462.218 111.588C462.202 111.588 462.19 111.588 462.173 111.588C457.331 111.588 453.376 115.841 453.352 121.088L453.323 126.217C453.303 129.83 455.249 133.137 458.284 134.642C458.586 134.792 458.709 135.157 458.557 135.461C458.407 135.761 458.038 135.879 457.736 135.729C454.288 134.017 452.076 130.283 452.096 126.208L452.124 121.084C452.153 115.148 456.672 110.347 462.222 110.372C464.754 110.388 467.121 111.459 468.896 113.384C470.655 115.302 471.617 117.836 471.604 120.525L471.571 126.31C471.543 132.047 467.175 136.694 461.825 136.694Z" fill="#333A43"/>
<path d="M461.706 158.908C457.465 158.908 453.249 157.93 449.343 155.997C442.722 152.717 437.785 147.072 435.442 140.116C433.102 133.154 433.634 125.702 436.943 119.142C440.255 112.577 445.944 107.684 452.966 105.361C459.988 103.041 467.501 103.569 474.122 106.849C480.743 110.129 485.679 115.773 488.018 122.734C489.63 127.518 489.884 132.631 488.755 137.521C488.681 137.849 488.35 138.056 488.018 137.979C487.692 137.906 487.483 137.577 487.561 137.249C488.636 132.578 488.395 127.688 486.858 123.119C482.236 109.382 467.206 101.934 453.355 106.516C446.643 108.734 441.205 113.412 438.043 119.685C434.877 125.958 434.371 133.076 436.607 139.73C438.845 146.384 443.564 151.772 449.891 154.906C456.217 158.044 463.399 158.547 470.11 156.329C476.098 154.351 481.185 150.308 484.428 144.952C484.604 144.665 484.98 144.571 485.271 144.746C485.561 144.916 485.655 145.289 485.479 145.577C482.084 151.184 476.764 155.413 470.499 157.484C467.619 158.438 464.655 158.908 461.706 158.908Z" fill="#333A43"/>
<path d="M360.95 197.48H235.051C230.267 197.48 226.389 201.358 226.389 206.142V278.898C226.389 283.681 230.267 287.559 235.051 287.559H360.95C365.735 287.559 369.613 283.681 369.613 278.898V206.142C369.613 201.358 365.735 197.48 360.95 197.48Z" fill="white"/>
<path d="M276.506 261.184C282.002 266.377 289.421 269.584 297.609 269.628C305.801 269.669 313.256 266.54 318.802 261.403C312.426 259.408 305.257 258.268 297.67 258.227C290.084 258.191 282.902 259.254 276.506 261.184Z" fill="#FEC99E"/>
<path d="M277.719 261.462C283.215 266.307 290.237 268.983 297.611 269.02C297.664 269.02 297.721 269.02 297.775 269.02C305.09 269.02 312.08 266.421 317.585 261.669C311.328 259.824 304.633 258.871 297.664 258.835C290.703 258.79 283.996 259.682 277.719 261.462ZM297.775 270.236C297.717 270.236 297.664 270.236 297.607 270.236C289.558 270.195 281.915 267.134 276.083 261.621C275.923 261.474 275.858 261.252 275.911 261.04C275.96 260.83 276.119 260.663 276.328 260.598C283.018 258.583 290.196 257.574 297.672 257.618C305.144 257.659 312.313 258.737 318.984 260.821C319.192 260.886 319.351 261.057 319.396 261.267C319.445 261.478 319.376 261.698 319.217 261.847C313.369 267.26 305.757 270.236 297.775 270.236Z" fill="#333A43"/>
<path d="M315.651 240.484C312.973 230.908 307.443 218.355 297.077 219.9C287.134 221.38 282.451 232.197 280.305 240.578C278.996 245.683 282.918 250.633 288.226 250.657L307.693 250.759C313.124 250.787 317.103 245.671 315.651 240.484Z" fill="#333A43"/>
<path d="M307.071 229.363C307.067 229.343 307.058 229.299 307.058 229.299L289.383 229.16C289.383 229.16 289.379 229.189 289.375 229.205C289.142 230.077 289.015 230.997 289.011 231.95L288.983 237.078C288.962 240.513 290.585 243.542 293.056 245.309L292.986 258.702C292.97 261.365 295.138 263.534 297.824 263.55C300.511 263.562 302.703 261.414 302.716 258.75L302.785 245.557C305.431 243.85 307.214 240.74 307.231 237.176L307.263 231.39C307.267 230.693 307.202 230.016 307.071 229.363Z" fill="white"/>
<path d="M297.853 264.159C297.841 264.159 297.833 264.159 297.821 264.159C294.803 264.143 292.357 261.694 292.373 258.698L292.439 245.707C292.443 245.37 292.717 245.099 293.052 245.099C293.057 245.099 293.057 245.099 293.057 245.099C293.396 245.103 293.67 245.379 293.666 245.711L293.601 258.705C293.588 261.029 295.486 262.93 297.829 262.943C297.837 262.943 297.845 262.943 297.853 262.943C298.979 262.943 300.041 262.509 300.843 261.722C301.648 260.931 302.099 259.873 302.102 258.746L302.173 245.707C302.173 245.37 302.446 245.099 302.786 245.099C302.786 245.099 302.786 245.099 302.79 245.099C303.129 245.103 303.399 245.379 303.399 245.711L303.33 258.754C303.321 260.206 302.745 261.568 301.706 262.586C300.671 263.599 299.305 264.159 297.853 264.159Z" fill="#333A43"/>
<path d="M298.131 241.26C298.124 241.26 298.116 241.26 298.111 241.26C296.97 241.255 295.87 240.777 295.093 239.95C294.864 239.707 294.877 239.321 295.126 239.094C295.376 238.863 295.764 238.879 295.992 239.123C296.545 239.714 297.301 240.039 298.116 240.043C298.929 240.059 299.69 239.727 300.255 239.139C300.488 238.896 300.876 238.884 301.121 239.114C301.367 239.345 301.379 239.731 301.146 239.974C300.352 240.805 299.281 241.26 298.131 241.26Z" fill="#333A43"/>
<path d="M298.099 247.56C298.083 247.56 298.066 247.56 298.054 247.56C297.715 247.556 297.44 247.284 297.44 246.948C297.444 246.611 297.715 246.327 298.058 246.343C298.07 246.343 298.086 246.343 298.099 246.343C302.774 246.343 306.593 242.236 306.618 237.172L306.65 231.386C306.663 229.002 305.812 226.76 304.262 225.07C302.72 223.395 300.671 222.467 298.492 222.454C298.475 222.454 298.463 222.454 298.447 222.454C293.604 222.454 289.65 226.708 289.625 231.954L289.597 237.083C289.576 240.696 291.523 244.004 294.557 245.508C294.859 245.658 294.982 246.023 294.831 246.327C294.68 246.627 294.312 246.745 294.01 246.595C290.562 244.884 288.349 241.15 288.369 237.074L288.398 231.95C288.426 226.014 292.946 221.214 298.495 221.238C301.027 221.254 303.395 222.325 305.17 224.25C306.929 226.168 307.89 228.702 307.877 231.391L307.845 237.176C307.816 242.913 303.449 247.56 298.099 247.56Z" fill="#333A43"/>
<path d="M297.98 269.775C293.738 269.775 289.522 268.797 285.616 266.863C278.995 263.583 274.059 257.939 271.716 250.982C269.376 244.02 269.908 236.568 273.216 230.008C276.529 223.444 282.218 218.55 289.24 216.227C296.262 213.907 303.774 214.435 310.396 217.715C317.017 220.995 321.953 226.639 324.292 233.6C325.903 238.385 326.157 243.497 325.028 248.387C324.955 248.715 324.624 248.922 324.292 248.845C323.965 248.772 323.757 248.443 323.835 248.115C324.91 243.445 324.669 238.554 323.131 233.986C318.509 220.249 303.48 212.801 289.629 217.382C282.917 219.6 277.478 224.279 274.316 230.551C271.151 236.824 270.644 243.943 272.881 250.596C275.118 257.25 279.838 262.638 286.164 265.772C292.491 268.91 299.672 269.413 306.383 267.195C312.371 265.217 317.459 261.175 320.701 255.818C320.877 255.531 321.254 255.437 321.544 255.612C321.834 255.782 321.929 256.155 321.753 256.443C318.358 262.05 313.037 266.279 306.772 268.351C303.893 269.304 300.928 269.775 297.98 269.775Z" fill="#333A43"/>
<path d="M524.966 197.48H399.067C394.283 197.48 390.404 201.358 390.404 206.142V278.898C390.404 283.681 394.283 287.559 399.067 287.559H524.966C529.75 287.559 533.629 283.681 533.629 278.898V206.142C533.629 201.358 529.75 197.48 524.966 197.48Z" fill="white"/>
<path d="M443.258 262.095C448.08 266.642 454.577 269.435 461.726 269.435C468.881 269.435 475.379 266.642 480.2 262.095C474.618 260.368 468.351 259.395 461.726 259.395C455.101 259.395 448.834 260.368 443.258 262.095Z" fill="#FB9946"/>
<path d="M444.863 262.454C449.578 266.449 455.513 268.632 461.726 268.632C467.939 268.632 473.874 266.449 478.589 262.454C473.275 260.956 467.613 260.197 461.726 260.197C455.844 260.197 450.177 260.956 444.863 262.454ZM461.726 270.237C454.63 270.237 447.875 267.551 442.706 262.678C442.498 262.481 442.412 262.191 442.476 261.913C442.54 261.635 442.749 261.41 443.022 261.325C448.877 259.512 455.176 258.592 461.726 258.592C468.282 258.592 474.575 259.512 480.435 261.325C480.707 261.41 480.916 261.635 480.981 261.913C481.045 262.191 480.954 262.481 480.751 262.678C475.581 267.551 468.827 270.237 461.726 270.237Z" fill="#333A43"/>
<path d="M470.355 226.979C469.145 226.197 467.732 225.78 466.287 225.78H457.789C455.895 225.78 454.069 226.497 452.678 227.786L452.213 228.219C450.002 230.268 449.237 233.44 450.253 236.27L453.047 244.021L470.959 243.908L473.491 235.441C474.443 232.237 473.169 228.786 470.355 226.979Z" fill="#333A43"/>
<path d="M465.928 230.354C465.884 230.338 465.81 230.306 465.81 230.306L452.955 238.651V243.684C452.955 246.562 454.304 249.124 456.396 250.788V258.453C456.396 261.486 458.853 263.947 461.887 263.947C464.921 263.947 467.383 261.486 467.383 258.453V250.98C469.625 249.333 471.092 246.685 471.092 243.684V238.346C471.092 234.789 468.973 231.729 465.928 230.354Z" fill="white"/>
<path d="M462.023 253.547C461.579 253.547 461.22 253.189 461.22 252.744C461.22 252.301 461.579 251.942 462.023 251.942C466.582 251.942 470.291 248.235 470.291 243.684V238.345C470.291 233.959 466.716 230.386 462.328 230.386H453.759V243.684C453.759 246.914 455.659 249.867 458.603 251.204C459.004 251.391 459.187 251.868 458.999 252.269C458.817 252.675 458.341 252.852 457.939 252.665C454.423 251.07 452.154 247.54 452.154 243.684V229.583C452.154 229.139 452.513 228.781 452.957 228.781H462.328C467.604 228.781 471.896 233.071 471.896 238.345V243.684C471.896 249.123 467.465 253.547 462.023 253.547Z" fill="#333A43"/>
<path d="M461.728 270.216C461.664 270.216 461.6 270.216 461.529 270.216C454.129 270.167 447.182 267.236 441.98 261.961C431.245 251.087 431.363 233.504 442.248 222.768C452.614 212.546 469.257 212.108 480.127 221.773C480.458 222.068 480.491 222.576 480.196 222.908C479.901 223.233 479.393 223.265 479.061 222.972C468.818 213.868 453.144 214.279 443.377 223.913C433.123 234.023 433.011 250.59 443.125 260.838C448.022 265.803 454.567 268.562 461.541 268.611C461.605 268.611 461.664 268.611 461.728 268.611C468.636 268.611 475.144 265.941 480.068 261.09C485.44 255.788 488.256 248.423 487.795 240.88C487.768 240.442 488.1 240.063 488.544 240.036C488.999 240.004 489.369 240.346 489.396 240.784C489.888 248.786 486.902 256.607 481.191 262.229C475.969 267.386 469.059 270.216 461.728 270.216Z" fill="#333A43"/>
<path d="M461.887 264.743C458.42 264.743 455.594 261.924 455.594 258.452V250.787C455.594 250.343 455.952 249.985 456.397 249.985C456.84 249.985 457.199 250.343 457.199 250.787V258.452C457.199 261.036 459.302 263.138 461.887 263.138C464.472 263.138 466.575 261.036 466.575 258.452V251.172C466.575 250.733 466.939 250.369 467.378 250.369C467.822 250.369 468.181 250.733 468.181 251.172V258.452C468.181 261.924 465.36 264.743 461.887 264.743Z" fill="#333A43"/>
<path d="M46.7797 45.0392C49.6503 45.0392 51.9774 42.7125 51.9774 39.8424C51.9774 36.9722 49.6503 34.6455 46.7797 34.6455C43.9091 34.6455 41.582 36.9722 41.582 39.8424C41.582 42.7125 43.9091 45.0392 46.7797 45.0392Z" fill="#00C991"/>
<path d="M67.5707 45.0392C70.4413 45.0392 72.7684 42.7125 72.7684 39.8424C72.7684 36.9722 70.4413 34.6455 67.5707 34.6455C64.7001 34.6455 62.373 36.9722 62.373 39.8424C62.373 42.7125 64.7001 45.0392 67.5707 45.0392Z" fill="#FFBD1C"/>
<path d="M88.3598 45.0392C91.2304 45.0392 93.5575 42.7125 93.5575 39.8424C93.5575 36.9722 91.2304 34.6455 88.3598 34.6455C85.4892 34.6455 83.1621 36.9722 83.1621 39.8424C83.1621 42.7125 85.4892 45.0392 88.3598 45.0392Z" fill="#FF7943"/>
<path d="M545.755 329.566H50.2433C45.6982 329.566 42.0137 333.25 42.0137 337.795V382.834C42.0137 387.379 45.6982 391.063 50.2433 391.063H545.755C550.3 391.063 553.985 387.379 553.985 382.834V337.795C553.985 333.25 550.3 329.566 545.755 329.566Z" fill="white" stroke="#C4C4C4"/>
<path d="M498.116 360.855C498.006 362.714 497.354 364.499 496.24 365.992C495.126 367.484 493.6 368.618 491.849 369.253C490.098 369.888 488.2 369.996 486.389 369.564C484.578 369.132 482.932 368.18 481.656 366.824C480.38 365.468 479.528 363.769 479.208 361.935C478.886 360.101 479.109 358.213 479.849 356.504C480.588 354.796 481.812 353.341 483.37 352.32C484.927 351.299 486.749 350.756 488.611 350.759H496.595C496.796 350.76 496.995 350.8 497.18 350.877C497.366 350.955 497.534 351.069 497.675 351.212C497.816 351.355 497.928 351.524 498.003 351.711C498.08 351.897 498.118 352.096 498.116 352.297V360.855Z" fill="#1A73E8"/>
<path opacity="0.2" d="M496.594 350.787H488.581C486.06 350.787 483.642 351.788 481.86 353.571C480.078 355.353 479.076 357.77 479.076 360.29C479.1 357.786 480.111 355.392 481.892 353.628C483.672 351.865 486.076 350.876 488.581 350.876H496.594C496.794 350.877 496.993 350.918 497.178 350.995C497.362 351.073 497.531 351.186 497.672 351.328C497.813 351.47 497.925 351.639 498.001 351.825C498.077 352.01 498.115 352.208 498.114 352.409V352.296C498.11 351.896 497.948 351.513 497.664 351.231C497.379 350.948 496.995 350.789 496.594 350.787Z" fill="white"/>
<path d="M498.115 360.855V360.611C498.057 363.137 496.999 365.538 495.171 367.284C493.343 369.03 490.897 369.978 488.37 369.921C485.843 369.864 483.443 368.804 481.696 366.977C479.95 365.15 479.001 362.704 479.059 360.178V360.284C479.07 362.768 480.049 365.149 481.789 366.921C483.529 368.694 485.892 369.717 488.376 369.774C490.86 369.831 493.267 368.915 495.085 367.225C496.904 365.533 497.992 363.199 498.115 360.718" fill="#1A237E" fill-opacity="0.2"/>
<path d="M492.471 362.157C492.472 362.365 492.43 362.571 492.347 362.762C492.264 362.953 492.143 363.125 491.991 363.267C491.838 363.409 491.659 363.519 491.462 363.588C491.265 363.658 491.058 363.686 490.85 363.671H485.444C485.237 363.686 485.029 363.658 484.832 363.588C484.637 363.52 484.457 363.411 484.305 363.269C484.153 363.127 484.032 362.957 483.949 362.766C483.866 362.576 483.822 362.37 483.822 362.163V362.697C483.82 362.911 483.86 363.122 483.941 363.321C484.022 363.518 484.141 363.698 484.292 363.849C484.443 364 484.623 364.119 484.82 364.2C485.019 364.28 485.23 364.321 485.444 364.318H490.856C491.069 364.32 491.28 364.279 491.477 364.198C491.674 364.117 491.854 363.998 492.004 363.846C492.154 363.696 492.273 363.516 492.354 363.319C492.433 363.121 492.474 362.91 492.471 362.697V362.157ZM495.079 362.59C495.075 362.651 495.055 362.71 495.018 362.759C494.983 362.809 494.933 362.847 494.877 362.869C494.82 362.892 494.758 362.897 494.699 362.886C494.638 362.875 494.583 362.846 494.538 362.804L492.471 360.749V361.289L494.527 363.345C494.569 363.392 494.624 363.425 494.686 363.441C494.748 363.456 494.813 363.451 494.872 363.427C494.932 363.404 494.982 363.363 495.017 363.31C495.051 363.257 495.069 363.194 495.068 363.131L495.079 362.59Z" fill="#185ABC"/>
<path d="M494.54 357.393L492.473 359.424V360.725L494.529 362.78C494.572 362.825 494.628 362.855 494.688 362.868C494.749 362.881 494.812 362.876 494.87 362.853C494.928 362.83 494.978 362.791 495.013 362.74C495.049 362.689 495.069 362.628 495.07 362.566V357.607C495.064 357.548 495.043 357.492 495.007 357.445C494.973 357.398 494.925 357.361 494.87 357.339C494.816 357.317 494.756 357.31 494.698 357.32C494.64 357.329 494.585 357.354 494.54 357.393Z" fill="#F1F3F4"/>
<path d="M490.856 356.418H485.444C485.013 356.418 484.601 356.589 484.297 356.893C483.993 357.197 483.822 357.61 483.822 358.039V362.155C483.821 362.369 483.863 362.58 483.944 362.777C484.025 362.974 484.145 363.153 484.295 363.304C484.446 363.454 484.625 363.574 484.822 363.655C485.019 363.737 485.231 363.778 485.444 363.777H490.856C491.284 363.776 491.695 363.604 491.998 363.3C492.301 362.996 492.471 362.585 492.471 362.155V358.039C492.472 357.827 492.431 357.617 492.35 357.42C492.269 357.223 492.15 357.044 492 356.893C491.85 356.743 491.672 356.623 491.475 356.542C491.278 356.46 491.068 356.418 490.856 356.418Z" fill="white"/>
<path d="M492.482 360.879V360.749L492.916 361.182V359.015L492.482 359.448V360.879Z" fill="#BDC1C6"/>
<path d="M210.939 359.015C210.939 354.472 207.252 350.786 202.709 350.786C198.166 350.786 194.479 354.472 194.479 359.015C194.479 363.319 198.405 366.811 202.709 366.811V369.842C207.708 367.306 210.939 363.226 210.939 359.015Z" fill="#00897B"/>
<path d="M207.8 356.039L206.719 359.017H200.762L198.371 361.948L207.134 370.71H212.997V361.236L207.8 356.039Z" fill="url(#paint0_linear)"/>
<path opacity="0.2" d="M202.709 366.702C198.421 366.702 194.511 363.24 194.48 358.958C194.48 358.977 194.479 358.996 194.479 359.015C194.479 363.32 198.405 366.81 202.709 366.81V366.702ZM202.709 369.735V369.843C207.708 367.307 210.939 363.226 210.939 359.015C210.939 358.998 210.937 358.98 210.937 358.963C210.909 363.154 207.685 367.211 202.709 369.735ZM204.55 362.263H199.136C198.858 362.263 198.582 362.158 198.369 361.945C198.157 361.733 198.052 361.457 198.052 361.179V361.287C198.052 361.565 198.157 361.841 198.369 362.054C198.582 362.266 198.858 362.371 199.136 362.371H204.55C204.828 362.371 205.104 362.266 205.317 362.054C205.417 361.953 205.498 361.834 205.551 361.702C205.606 361.57 205.634 361.43 205.634 361.287V361.179C205.634 361.457 205.529 361.733 205.317 361.945C205.104 362.158 204.826 362.263 204.55 362.263ZM205.633 359.936L207.798 362.101V361.993L205.633 359.828V359.936Z" fill="#263238"/>
<path d="M205.634 358.203V356.85C205.634 356.572 205.529 356.297 205.317 356.084C205.216 355.983 205.096 355.903 204.965 355.849C204.833 355.794 204.692 355.766 204.55 355.767H199.136C198.859 355.767 198.583 355.871 198.371 356.084C198.27 356.184 198.19 356.304 198.135 356.435C198.08 356.567 198.053 356.708 198.053 356.85V361.182C198.053 361.459 198.158 361.735 198.371 361.947C198.583 362.16 198.859 362.265 199.136 362.265H204.552C204.829 362.265 205.105 362.16 205.317 361.947C205.419 361.847 205.498 361.727 205.553 361.596C205.608 361.465 205.635 361.324 205.635 361.182V359.829L207.801 361.993V356.038L205.634 358.203Z" fill="#F5F5F5"/>
<path d="M198.053 356.85V359.015H207.798V356.038L205.633 358.203V356.85C205.633 356.572 205.527 356.297 205.315 356.084C205.214 355.983 205.095 355.903 204.964 355.849C204.832 355.794 204.691 355.766 204.549 355.767H199.136C198.858 355.767 198.582 355.871 198.37 356.084C198.269 356.185 198.19 356.304 198.135 356.435C198.08 356.567 198.053 356.708 198.053 356.85Z" fill="#E0E0E0"/>
<path d="M198.053 358.906H207.798V359.015H198.053V358.906Z" fill="#212121" fill-opacity="0.02"/>
<path d="M198.053 359.016H207.798V359.124H198.053V359.016Z" fill="white" fill-opacity="0.05"/>
<path opacity="0.2" d="M199.134 355.874H204.55C204.827 355.874 205.103 355.98 205.315 356.192C205.417 356.292 205.496 356.412 205.551 356.543C205.606 356.675 205.633 356.815 205.633 356.958V356.849C205.633 356.572 205.528 356.296 205.315 356.084C205.215 355.983 205.095 355.902 204.965 355.848C204.833 355.793 204.692 355.766 204.55 355.766H199.134C198.857 355.766 198.581 355.871 198.369 356.084C198.268 356.184 198.188 356.304 198.133 356.435C198.079 356.566 198.051 356.707 198.051 356.849V356.958C198.051 356.68 198.156 356.404 198.369 356.192C198.571 355.988 198.848 355.874 199.134 355.874ZM205.632 358.202V358.31L207.797 356.146V356.038L205.632 358.202Z" fill="white"/>
<path opacity="0.2" d="M202.709 350.895C207.234 350.895 210.909 354.551 210.937 359.071C210.937 359.052 210.939 359.034 210.939 359.014C210.939 354.471 207.252 350.786 202.709 350.786C198.166 350.786 194.479 354.472 194.479 359.016C194.479 359.034 194.48 359.05 194.48 359.066C194.511 354.55 198.185 350.895 202.709 350.895Z" fill="white"/>
<path d="M210.939 359.015C210.939 354.472 207.252 350.786 202.709 350.786C198.166 350.786 194.479 354.472 194.479 359.015C194.479 363.319 198.405 366.811 202.709 366.811V369.842C207.708 367.306 210.939 363.226 210.939 359.015Z" fill="url(#paint1_radial)"/>
<path d="M108.193 356.85C109.868 356.85 111.226 355.493 111.226 353.819C111.226 352.144 109.868 350.787 108.193 350.787C106.519 350.787 105.16 352.144 105.16 353.819C105.16 355.493 106.519 356.85 108.193 356.85Z" fill="#7B83EB"/>
<path opacity="0.1" d="M107.977 354.468H105.23L105.243 354.528L105.245 354.534L105.259 354.589C105.459 355.346 105.944 355.996 106.611 356.404C107.279 356.812 108.079 356.947 108.844 356.779V355.334C108.843 355.104 108.751 354.884 108.589 354.722C108.427 354.56 108.207 354.469 107.977 354.468Z" fill="black"/>
<path opacity="0.2" d="M107.328 355.118H105.453C105.698 355.637 106.087 356.074 106.572 356.381C107.057 356.688 107.62 356.85 108.193 356.85V355.984C108.193 355.755 108.101 355.535 107.939 355.373C107.776 355.21 107.556 355.119 107.328 355.118Z" fill="black"/>
<path d="M115.015 357.067C116.272 357.067 117.29 356.049 117.29 354.793C117.29 353.537 116.272 352.52 115.015 352.52C113.759 352.52 112.74 353.537 112.74 354.793C112.74 356.049 113.759 357.067 115.015 357.067Z" fill="#5059C9"/>
<path d="M116.963 357.716H111.856C111.746 357.716 111.64 357.76 111.562 357.838C111.484 357.916 111.44 358.022 111.44 358.132V363.399C111.426 364.163 111.675 364.907 112.143 365.508C112.613 366.109 113.275 366.531 114.018 366.702C114.491 366.802 114.98 366.794 115.451 366.68C115.92 366.567 116.36 366.35 116.735 366.045C117.111 365.741 117.413 365.356 117.622 364.919C117.83 364.483 117.938 364.006 117.938 363.522V358.69C117.938 358.432 117.836 358.184 117.653 358.002C117.47 357.819 117.222 357.716 116.963 357.716Z" fill="#5059C9"/>
<path d="M113.391 358.69V364.861C113.392 366.005 113.015 367.117 112.32 368.025C111.623 368.932 110.647 369.585 109.543 369.881C108.438 370.177 107.266 370.1 106.209 369.662C105.152 369.224 104.27 368.451 103.698 367.46C103.573 367.252 103.465 367.035 103.373 366.81C103.288 366.598 103.217 366.382 103.159 366.161C103.052 365.735 102.997 365.3 102.996 364.861V358.69C102.996 358.562 103.021 358.436 103.071 358.317C103.119 358.199 103.191 358.092 103.281 358.001C103.372 357.91 103.479 357.839 103.598 357.789C103.716 357.741 103.843 357.716 103.971 357.716H112.417C112.545 357.716 112.672 357.741 112.79 357.789C112.909 357.839 113.016 357.91 113.106 358.001C113.197 358.092 113.269 358.199 113.318 358.317C113.367 358.436 113.392 358.562 113.391 358.69Z" fill="#7B83EB"/>
<path opacity="0.2" d="M107.328 355.118H105.453C105.698 355.637 106.087 356.074 106.572 356.381C107.057 356.688 107.62 356.85 108.193 356.85V355.984C108.193 355.755 108.101 355.535 107.939 355.373C107.776 355.21 107.556 355.119 107.328 355.118Z" fill="black"/>
<path opacity="0.1" d="M108.845 357.716V365.946C108.845 366.143 108.779 366.332 108.656 366.485C108.533 366.637 108.361 366.743 108.17 366.784C108.109 366.803 108.046 366.811 107.981 366.81H103.373C103.288 366.598 103.217 366.382 103.159 366.161C103.052 365.735 102.997 365.3 102.996 364.861V358.69C102.996 358.562 103.021 358.436 103.071 358.317C103.119 358.199 103.191 358.092 103.281 358.001C103.372 357.91 103.48 357.839 103.598 357.789C103.716 357.741 103.844 357.716 103.971 357.716H108.845Z" fill="black"/>
<path opacity="0.2" d="M108.196 357.716V366.596C108.197 366.66 108.188 366.723 108.17 366.784C108.128 366.976 108.022 367.147 107.87 367.27C107.717 367.393 107.527 367.46 107.332 367.46H103.698C103.573 367.252 103.465 367.035 103.373 366.81C103.288 366.598 103.217 366.382 103.159 366.161C103.052 365.735 102.997 365.3 102.996 364.862V358.69C102.996 358.562 103.021 358.436 103.071 358.317C103.119 358.199 103.191 358.092 103.281 358.001C103.372 357.91 103.48 357.839 103.598 357.789C103.716 357.741 103.844 357.716 103.971 357.716H108.196Z" fill="black"/>
<path opacity="0.2" d="M108.196 357.716V365.296C108.195 365.526 108.104 365.745 107.942 365.906C107.78 366.068 107.56 366.16 107.332 366.161H103.159C103.052 365.736 102.997 365.3 102.996 364.861V358.69C102.996 358.562 103.021 358.436 103.071 358.317C103.119 358.199 103.191 358.092 103.281 358.001C103.372 357.911 103.48 357.839 103.598 357.789C103.716 357.741 103.844 357.716 103.971 357.716H108.196Z" fill="black"/>
<path opacity="0.2" d="M103.971 357.716C103.844 357.716 103.716 357.741 103.598 357.789C103.48 357.839 103.372 357.911 103.281 358.001C103.191 358.092 103.119 358.199 103.071 358.317C103.021 358.436 102.996 358.562 102.996 358.69V364.861C102.997 365.3 103.052 365.736 103.159 366.161H106.682C106.91 366.16 107.13 366.068 107.292 365.906C107.454 365.745 107.545 365.526 107.546 365.296V357.716H103.971Z" fill="black"/>
<path d="M98.0128 355.118H106.676C106.906 355.118 107.126 355.209 107.289 355.372C107.451 355.534 107.542 355.755 107.542 355.984V364.646C107.542 364.875 107.451 365.096 107.289 365.258C107.126 365.421 106.906 365.512 106.676 365.512H98.0128C97.7832 365.512 97.5632 365.421 97.4003 365.258C97.2383 365.096 97.1465 364.875 97.1465 364.646V355.984C97.1465 355.755 97.2383 355.534 97.4003 355.372C97.5632 355.209 97.7832 355.118 98.0128 355.118Z" fill="#4B53BC"/>
<path d="M104.933 358.35H102.99V363.56H101.715V358.35H99.7598V357.07H104.933V358.35Z" fill="white"/>
<path d="M396.9 355.869C396.94 356.175 396.963 356.486 396.963 356.802C396.963 360.778 393.73 364.001 389.742 364.001C389.425 364.001 389.113 363.979 388.807 363.939C389.091 364.466 389.779 365.569 391.125 366.378C391.427 366.561 392.481 367.18 393.724 367.244C396.84 367.406 400.153 364.029 400.221 360.748C400.229 360.305 400.238 358.992 399.354 357.717C398.514 356.506 397.352 356.029 396.9 355.869Z" fill="#7CB342"/>
<path d="M387.513 360.315C387.513 357.146 390.09 354.578 393.267 354.578C394.856 354.578 396.294 355.22 397.335 356.259L399.409 354.19C397.838 352.623 395.666 351.653 393.267 351.653C388.469 351.653 384.58 355.531 384.58 360.315C384.58 362.706 385.552 364.872 387.124 366.439L389.198 364.371C388.158 363.333 387.513 361.899 387.513 360.315Z" fill="#29B6F6"/>
<path d="M399.408 354.19C398.835 353.619 397.906 353.619 397.334 354.19C396.761 354.761 396.761 355.687 397.334 356.259C398.375 357.296 399.018 358.731 399.018 360.315C399.018 363.482 396.443 366.051 393.266 366.051C391.677 366.051 390.238 365.409 389.198 364.371C388.624 363.799 387.695 363.799 387.123 364.371C386.55 364.942 386.55 365.868 387.123 366.439C388.695 368.006 390.867 368.976 393.266 368.976C398.063 368.976 401.953 365.099 401.953 360.315C401.953 357.923 400.98 355.757 399.408 354.19Z" fill="#244B71"/>
<path d="M298.001 368.976C302.785 368.976 306.664 365.098 306.664 360.315C306.664 355.531 302.785 351.653 298.001 351.653C293.216 351.653 289.338 355.531 289.338 360.315C289.338 365.098 293.216 368.976 298.001 368.976Z" fill="#2196F3"/>
<path d="M300.166 363.346H293.669C292.951 363.346 292.369 362.764 292.369 362.047V357.283H298.866C299.584 357.283 300.166 357.865 300.166 358.582V363.346Z" fill="white"/>
<path d="M303.631 363.346L301.031 361.614V359.015L303.631 357.283V363.346Z" fill="white"/>
</g>
<defs>
<filter id="filter0_d" x="-3.20898" y="-2.1416" width="602.419" height="446.425" filterUnits="userSpaceOnUse" color-interpolation-filters="sRGB">
<feFlood flood-opacity="0" result="BackgroundImageFix"/>
<feColorMatrix in="SourceAlpha" type="matrix" values="0 0 0 0 0 0 0 0 0 0 0 0 0 0 0 0 0 0 127 0"/>
<feOffset dy="8"/>
<feGaussianBlur stdDeviation="12"/>
<feColorMatrix type="matrix" values="0 0 0 0 0 0 0 0 0 0 0 0 0 0 0 0 0 0 0.16 0"/>
<feBlend mode="normal" in2="BackgroundImageFix" result="effect1_dropShadow"/>
<feBlend mode="normal" in="SourceGraphic" in2="effect1_dropShadow" result="shape"/>
</filter>
<linearGradient id="paint0_linear" x1="202.62" y1="358.528" x2="209.739" y2="365.648" gradientUnits="userSpaceOnUse">
<stop stop-color="#263238" stop-opacity="0.2"/>
<stop offset="1" stop-color="#263238" stop-opacity="0.02"/>
</linearGradient>
<radialGradient id="paint1_radial" cx="0" cy="0" r="1" gradientUnits="userSpaceOnUse" gradientTransform="translate(196.825 353.151) scale(16.8047 16.802)">
<stop stop-color="white" stop-opacity="0.1"/>
<stop offset="1" stop-color="white" stop-opacity="0"/>
</radialGradient>
<clipPath id="clip0">
<rect width="596" height="440" fill="white"/>
</clipPath>
</defs>
</svg>
