<svg width="596" height="440" viewBox="0 0 596 440" fill="none" xmlns="http://www.w3.org/2000/svg">
<g clip-path="url(#clip0)">
<g filter="url(#filter0_d)">
<path d="M566.547 13.8584H29.4538C24.6695 13.8584 20.791 17.7362 20.791 22.5198V403.622C20.791 408.406 24.6695 412.284 29.4538 412.284H566.547C571.331 412.284 575.21 408.406 575.21 403.622V22.5198C575.21 17.7362 571.331 13.8584 566.547 13.8584Z" fill="#FDBABF"/>
</g>
<path d="M563.081 17.3232H32.9186C28.1343 17.3232 24.2559 21.2011 24.2559 25.9847V400.158C24.2559 404.941 28.1343 408.819 32.9186 408.819H563.081C567.866 408.819 571.744 404.941 571.744 400.158V25.9847C571.744 21.2011 567.866 17.3232 563.081 17.3232Z" fill="white"/>
<path d="M195.78 148.543H57.175C52.6299 148.543 48.9453 152.227 48.9453 156.771V362.047C48.9453 366.591 52.6299 370.275 57.175 370.275H195.78C200.325 370.275 204.009 366.591 204.009 362.047V156.771C204.009 152.227 200.325 148.543 195.78 148.543Z" fill="white" stroke="#C4C4C4"/>
<path d="M374.232 135.551H221.767C217.222 135.551 213.537 139.235 213.537 143.779V375.905C213.537 380.449 217.222 384.133 221.767 384.133H374.232C378.777 384.133 382.461 380.449 382.461 375.905V143.779C382.461 139.235 378.777 135.551 374.232 135.551Z" fill="white" stroke="#FEC99E"/>
<path d="M408.885 73.1885H530.164C539.493 73.1885 547.056 80.7502 547.056 90.0782C547.056 99.4066 539.493 106.968 530.164 106.968H408.885C399.555 106.968 391.992 99.4066 391.992 90.0782C391.992 80.7502 399.555 73.1885 408.885 73.1885Z" fill="white" stroke="#FEC99E"/>
<path d="M414.293 95.9099C416.011 97.5331 418.329 98.5352 420.888 98.549C423.448 98.562 425.777 97.5842 427.511 95.9783C425.518 95.3556 423.278 94.9996 420.907 94.9866C418.536 94.9753 416.292 95.3071 414.293 95.9099Z" fill="#FEC99E"/>
<path d="M414.674 95.9977C416.392 97.5117 418.586 98.3475 420.89 98.3596C420.907 98.3596 420.925 98.3596 420.941 98.3596C423.228 98.3596 425.412 97.5472 427.133 96.0618C425.177 95.4858 423.085 95.1878 420.907 95.1766C418.732 95.1627 416.636 95.4416 414.674 95.9977ZM420.941 98.739C420.924 98.739 420.907 98.739 420.889 98.739C418.374 98.7269 415.985 97.7698 414.163 96.047C414.113 96.0011 414.093 95.9318 414.109 95.866C414.125 95.8002 414.174 95.7482 414.24 95.7274C416.33 95.0978 418.573 94.7825 420.909 94.7963C423.245 94.8093 425.485 95.1463 427.569 95.7976C427.634 95.8175 427.685 95.8704 427.698 95.937C427.714 96.0029 427.692 96.0713 427.642 96.1181C425.815 97.8096 423.436 98.739 420.941 98.739Z" fill="#333A43"/>
<path d="M426.528 89.4424C425.691 86.4493 423.962 82.5266 420.723 83.0094C417.616 83.4718 416.153 86.8518 415.482 89.471C415.073 91.0665 416.298 92.6134 417.957 92.6212L424.04 92.6524C425.738 92.6619 426.981 91.0621 426.528 89.4424Z" fill="#333A43"/>
<path d="M423.846 85.9667C423.844 85.9604 423.842 85.9465 423.842 85.9465L418.318 85.9033C418.318 85.9033 418.317 85.9122 418.316 85.9173C418.243 86.1898 418.203 86.4773 418.202 86.7752L418.193 88.3775C418.186 89.4507 418.694 90.3974 419.466 90.95L419.444 95.1352C419.439 95.9676 420.117 96.6449 420.956 96.6501C421.796 96.6544 422.481 95.9823 422.485 95.1499L422.507 91.0271C423.333 90.4935 423.891 89.5217 423.895 88.4079L423.906 86.6002C423.907 86.3823 423.887 86.1707 423.846 85.9667Z" fill="white"/>
<path d="M420.967 96.8402C420.962 96.8402 420.96 96.8402 420.956 96.8402C420.013 96.8351 419.249 96.0702 419.254 95.1339L419.274 91.0743C419.276 90.9687 419.361 90.8838 419.466 90.8838C419.467 90.8838 419.467 90.8838 419.467 90.8838C419.574 90.8855 419.658 90.9713 419.658 91.0752L419.637 95.1357C419.633 95.8624 420.226 96.4565 420.959 96.46C420.961 96.46 420.964 96.46 420.967 96.46C421.317 96.46 421.65 96.3249 421.9 96.0789C422.153 95.8321 422.293 95.5012 422.295 95.1487L422.316 91.0743C422.316 90.9687 422.401 90.8838 422.508 90.8838C422.508 90.8838 422.508 90.8838 422.509 90.8838C422.615 90.8855 422.699 90.9713 422.699 91.0752L422.678 95.1513C422.675 95.6051 422.495 96.0304 422.17 96.3483C421.847 96.6653 421.42 96.8402 420.967 96.8402Z" fill="#333A43"/>
<path d="M421.051 89.6845C421.049 89.6845 421.046 89.6845 421.045 89.6845C420.688 89.6836 420.344 89.5338 420.102 89.2757C420.03 89.1995 420.034 89.0791 420.112 89.008C420.19 88.9361 420.312 88.9413 420.383 89.0167C420.556 89.2021 420.792 89.3034 421.046 89.3043C421.301 89.3095 421.538 89.2055 421.715 89.0219C421.787 88.9457 421.909 88.9422 421.985 89.0141C422.062 89.0869 422.065 89.2073 421.993 89.2835C421.745 89.5424 421.411 89.6845 421.051 89.6845Z" fill="#333A43"/>
<path d="M421.041 91.653C421.036 91.653 421.03 91.653 421.027 91.653C420.921 91.6521 420.835 91.5672 420.835 91.4616C420.836 91.3568 420.921 91.2684 421.028 91.2736C421.032 91.2736 421.037 91.2736 421.041 91.2736C422.501 91.2736 423.695 89.99 423.703 88.4076L423.713 86.5991C423.718 85.8542 423.452 85.1535 422.967 84.6251C422.485 84.1019 421.845 83.8117 421.164 83.8079C421.159 83.8079 421.154 83.8079 421.15 83.8079C419.636 83.8079 418.4 85.137 418.392 86.7766L418.384 88.379C418.378 89.5084 418.986 90.5417 419.934 91.012C420.029 91.0588 420.067 91.1731 420.019 91.2684C419.973 91.362 419.857 91.3983 419.763 91.3516C418.685 90.8172 417.994 89.6505 418 88.3764L418.01 86.7749C418.018 84.9204 419.43 83.4202 421.165 83.4278C421.956 83.4329 422.696 83.7674 423.251 84.3692C423.8 84.9685 424.1 85.7604 424.097 86.6004L424.087 88.4084C424.078 90.2013 422.713 91.653 421.041 91.653Z" fill="#333A43"/>
<path d="M421.006 98.5952C419.681 98.5952 418.363 98.2903 417.143 97.6857C415.073 96.6611 413.53 94.8967 412.798 92.7227C412.067 90.547 412.234 88.2188 413.267 86.1685C414.302 84.1172 416.081 82.5879 418.275 81.8619C420.469 81.1371 422.817 81.3019 424.886 82.3269C426.955 83.3519 428.498 85.1156 429.229 87.2911C429.732 88.7861 429.811 90.3841 429.459 91.912C429.436 92.0142 429.332 92.0792 429.229 92.0549C429.127 92.0324 429.061 91.9293 429.085 91.8271C429.421 90.3677 429.346 88.8389 428.866 87.4115C427.421 83.1188 422.725 80.7913 418.396 82.223C416.299 82.916 414.599 84.3782 413.611 86.3383C412.622 88.2985 412.463 90.5236 413.162 92.6023C413.861 94.6819 415.337 96.3657 417.313 97.3453C419.291 98.3258 421.535 98.4826 423.632 97.7897C425.503 97.1712 427.093 95.9084 428.106 94.2341C428.162 94.1441 428.279 94.1155 428.37 94.17C428.461 94.2229 428.49 94.3398 428.435 94.4299C427.374 96.1821 425.712 97.503 423.753 98.1508C422.854 98.4488 421.927 98.5952 421.006 98.5952Z" fill="#333A43"/>
<path d="M487.062 95.9099C488.779 97.5331 491.098 98.5352 493.657 98.549C496.216 98.562 498.547 97.5842 500.279 95.9783C498.287 95.3556 496.047 94.9996 493.676 94.9866C491.306 94.9753 489.061 95.3071 487.062 95.9099Z" fill="#FEC99E"/>
<path d="M487.442 95.9977C489.159 97.5117 491.354 98.3475 493.658 98.3596C493.675 98.3596 493.693 98.3596 493.709 98.3596C495.996 98.3596 498.18 97.5472 499.9 96.0618C497.945 95.4858 495.853 95.1878 493.675 95.1766C491.5 95.1627 489.404 95.4416 487.442 95.9977ZM493.709 98.739C493.692 98.739 493.675 98.739 493.657 98.739C491.142 98.7269 488.753 97.7698 486.93 96.047C486.881 96.0011 486.86 95.9318 486.877 95.866C486.892 95.8002 486.942 95.7482 487.007 95.7274C489.099 95.0978 491.341 94.7825 493.678 94.7963C496.012 94.8093 498.253 95.1463 500.337 95.7976C500.403 95.8175 500.452 95.8704 500.466 95.937C500.482 96.0029 500.46 96.0713 500.41 96.1181C498.583 97.8096 496.204 98.739 493.709 98.739Z" fill="#333A43"/>
<path d="M499.295 89.4424C498.458 86.4493 496.731 82.5266 493.491 83.0094C490.384 83.4718 488.921 86.8518 488.249 89.471C487.84 91.0665 489.066 92.6134 490.725 92.6212L496.809 92.6524C498.506 92.6619 499.749 91.0621 499.295 89.4424Z" fill="#333A43"/>
<path d="M496.613 85.9667C496.613 85.9604 496.61 85.9465 496.61 85.9465L491.086 85.9033C491.086 85.9033 491.085 85.9122 491.084 85.9173C491.01 86.1898 490.971 86.4773 490.97 86.7752L490.961 88.3775C490.955 89.4507 491.462 90.3974 492.234 90.95L492.212 95.1352C492.207 95.9676 492.884 96.6449 493.724 96.6501C494.564 96.6544 495.249 95.9823 495.253 95.1499L495.274 91.0271C496.101 90.4935 496.658 89.5217 496.664 88.4079L496.674 86.6002C496.675 86.3823 496.654 86.1707 496.613 85.9667Z" fill="white"/>
<path d="M493.734 96.8402C493.73 96.8402 493.728 96.8402 493.724 96.8402C492.78 96.8351 492.016 96.0702 492.022 95.1339L492.042 91.0743C492.043 90.9687 492.129 90.8838 492.234 90.8838C492.235 90.8838 492.235 90.8838 492.235 90.8838C492.341 90.8855 492.427 90.9713 492.425 91.0752L492.405 95.1357C492.401 95.8624 492.994 96.4565 493.726 96.46C493.729 96.46 493.732 96.46 493.734 96.46C494.086 96.46 494.418 96.3249 494.668 96.0789C494.92 95.8321 495.06 95.5012 495.062 95.1487L495.084 91.0743C495.084 90.9687 495.17 90.8838 495.275 90.8838C495.275 90.8838 495.275 90.8838 495.277 90.8838C495.383 90.8855 495.467 90.9713 495.467 91.0752L495.445 95.1513C495.443 95.6051 495.262 96.0304 494.938 96.3483C494.614 96.6653 494.188 96.8402 493.734 96.8402Z" fill="#333A43"/>
<path d="M493.819 89.6845C493.816 89.6845 493.814 89.6845 493.813 89.6845C493.456 89.6836 493.112 89.5338 492.87 89.2757C492.798 89.1995 492.802 89.0791 492.88 89.008C492.958 88.9361 493.079 88.9413 493.151 89.0167C493.323 89.2021 493.56 89.3034 493.814 89.3043C494.068 89.3095 494.306 89.2055 494.482 89.0219C494.555 88.9457 494.676 88.9422 494.753 89.0141C494.83 89.0869 494.834 89.2073 494.761 89.2835C494.513 89.5424 494.178 89.6845 493.819 89.6845Z" fill="#333A43"/>
<path d="M493.809 91.653C493.805 91.653 493.8 91.653 493.796 91.653C493.69 91.6521 493.604 91.5672 493.604 91.4616C493.605 91.3568 493.69 91.2684 493.797 91.2736C493.801 91.2736 493.806 91.2736 493.809 91.2736C495.271 91.2736 496.465 89.99 496.472 88.4076L496.482 86.5991C496.486 85.8542 496.22 85.1535 495.736 84.6251C495.254 84.1019 494.613 83.8117 493.932 83.8079C493.927 83.8079 493.924 83.8079 493.918 83.8079C492.405 83.8079 491.169 85.137 491.162 86.7766L491.152 88.379C491.146 89.5084 491.755 90.5417 492.703 91.012C492.798 91.0588 492.836 91.1731 492.789 91.2684C492.741 91.362 492.626 91.3983 492.532 91.3516C491.454 90.8172 490.763 89.6505 490.77 88.3764L490.778 86.7749C490.787 84.9204 492.2 83.4202 493.934 83.4278C494.725 83.4329 495.465 83.7674 496.019 84.3692C496.569 84.9685 496.869 85.7604 496.866 86.6004L496.855 88.4084C496.847 90.2013 495.481 91.653 493.809 91.653Z" fill="#333A43"/>
<path d="M493.774 98.5952C492.448 98.5952 491.131 98.2903 489.91 97.6857C487.841 96.6611 486.299 94.8967 485.566 92.7227C484.835 90.547 485.001 88.2188 486.035 86.1685C487.071 84.1172 488.848 82.5879 491.043 81.8619C493.237 81.1371 495.584 81.3019 497.654 82.3269C499.723 83.3519 501.265 85.1156 501.997 87.2911C502.5 88.7861 502.58 90.3841 502.226 91.912C502.204 92.0142 502.1 92.0792 501.997 92.0549C501.894 92.0324 501.829 91.9293 501.854 91.8271C502.19 90.3677 502.114 88.8389 501.634 87.4115C500.19 83.1188 495.493 80.7913 491.164 82.223C489.067 82.916 487.367 84.3782 486.379 86.3383C485.39 88.2985 485.232 90.5236 485.931 92.6023C486.63 94.6819 488.104 96.3657 490.082 97.3453C492.059 98.3258 494.302 98.4826 496.4 97.7897C498.271 97.1712 499.861 95.9084 500.874 94.2341C500.929 94.1441 501.047 94.1155 501.137 94.17C501.228 94.2229 501.258 94.3398 501.203 94.4299C500.142 96.1821 498.479 97.503 496.522 98.1508C495.622 98.4488 494.695 98.5952 493.774 98.5952Z" fill="#333A43"/>
<path d="M518.036 98.7398C522.82 98.7398 526.699 94.862 526.699 90.0784C526.699 85.2948 522.82 81.417 518.036 81.417C513.252 81.417 509.373 85.2948 509.373 90.0784C509.373 94.862 513.252 98.7398 518.036 98.7398Z" fill="#FFE9E0"/>
<path d="M518.029 98.5952C516.704 98.5952 515.387 98.2903 514.166 97.6857C512.097 96.6611 510.554 94.8967 509.822 92.7227C509.091 90.547 509.257 88.2188 510.291 86.1685C511.326 84.1172 513.104 82.5879 515.298 81.8619C517.493 81.1371 519.84 81.3019 521.909 82.3269C523.979 83.3519 525.521 85.1156 526.253 87.2911C526.756 88.7861 526.835 90.3841 526.482 91.912C526.46 92.0142 526.356 92.0792 526.253 92.0549C526.15 92.0324 526.084 91.9293 526.109 91.8271C526.445 90.3677 526.37 88.8389 525.89 87.4115C524.445 83.1188 519.749 80.7913 515.42 82.223C513.322 82.916 511.623 84.3782 510.634 86.3383C509.645 88.2985 509.487 90.5236 510.186 92.6023C510.885 94.6819 512.36 96.3657 514.337 97.3453C516.315 98.3258 518.558 98.4826 520.656 97.7897C522.527 97.1712 524.116 95.9084 525.13 94.2341C525.185 94.1441 525.302 94.1155 525.393 94.17C525.484 94.2229 525.514 94.3398 525.458 94.4299C524.398 96.1821 522.735 97.503 520.777 98.1508C519.878 98.4488 518.951 98.5952 518.029 98.5952Z" fill="#333A43"/>
<path d="M516.938 88.6495C516.654 88.3671 516.295 88.1748 515.902 88.0969C515.51 88.0181 515.104 88.0588 514.735 88.2112C514.365 88.3645 514.049 88.6235 513.828 88.9561C513.605 89.2878 513.486 89.6785 513.486 90.0786C513.486 90.4788 513.605 90.8694 513.828 91.2011C514.049 91.5337 514.365 91.7927 514.735 91.946C515.104 92.0985 515.51 92.1392 515.902 92.0604C516.295 91.9824 516.654 91.7901 516.938 91.5078C517.386 91.1007 517.758 90.6165 518.035 90.0786C518.312 89.5407 518.684 89.0566 519.133 88.6495C519.415 88.3671 519.776 88.1748 520.167 88.0969C520.559 88.0181 520.966 88.0588 521.336 88.2112C521.705 88.3645 522.021 88.6235 522.243 88.9561C522.464 89.2878 522.583 89.6785 522.583 90.0786C522.583 90.4788 522.464 90.8694 522.243 91.2011C522.021 91.5337 521.705 91.7927 521.336 91.946C520.966 92.0985 520.559 92.1392 520.167 92.0604C519.776 91.9824 519.415 91.7901 519.133 91.5078C518.684 91.1007 518.312 90.6165 518.035 90.0786C517.758 89.5407 517.386 89.0566 516.938 88.6495Z" stroke="#333A43" stroke-width="0.5" stroke-linecap="round" stroke-linejoin="round"/>
<path d="M436.984 90.1184C436.984 85.4707 440.75 81.7021 445.397 81.7021C450.041 81.7021 453.808 85.4707 453.808 90.1184C453.808 94.7652 450.041 98.5338 445.397 98.5338C440.75 98.5338 436.984 94.7652 436.984 90.1184Z" fill="white"/>
<path d="M439.475 96.2375C440.99 97.6666 443.031 98.5449 445.279 98.5449C447.527 98.5449 449.568 97.6666 451.083 96.2375C449.33 95.6953 447.361 95.3887 445.279 95.3887C443.196 95.3887 441.227 95.6953 439.475 96.2375Z" fill="#FB9946"/>
<path d="M447.992 85.2021C447.61 84.9561 447.166 84.8262 446.713 84.8262H444.043C443.447 84.8262 442.872 85.0517 442.437 85.4564L442.29 85.5931C441.596 86.2369 441.355 87.2321 441.674 88.1234L442.553 90.5573L448.182 90.5235L448.974 87.8618C449.276 86.8545 448.875 85.7707 447.992 85.2021Z" fill="#333A43"/>
<path d="M446.644 86.2856C446.643 86.2856 446.639 86.2842 446.639 86.2842L442.523 88.9225V90.453C442.523 91.3581 442.945 92.1628 443.605 92.6851V95.0955C443.605 96.0483 444.377 96.82 445.33 96.82C446.283 96.82 447.056 96.0483 447.056 95.0955V92.7509C447.763 92.2329 448.221 91.3962 448.221 90.453V88.7762C448.221 87.6753 447.577 86.7269 446.644 86.2856Z" fill="white"/>
<path d="M445.331 97.0245C444.266 97.0245 443.4 96.1592 443.4 95.0947V92.7354H443.81V95.0947C443.81 95.9323 444.493 96.6148 445.331 96.6148C446.169 96.6148 446.852 95.9323 446.852 95.0947V92.809H447.261V95.0947C447.261 96.1592 446.395 97.0245 445.331 97.0245Z" fill="#333A43"/>
<path d="M445.373 93.5058C445.259 93.5058 445.168 93.414 445.168 93.3005C445.168 93.1871 445.259 93.0952 445.373 93.0952C446.831 93.0952 448.016 91.9086 448.016 90.4518V88.7749C448.016 87.3692 446.873 86.2255 445.467 86.2255H442.728V90.4518C442.728 91.4851 443.337 92.4309 444.278 92.8588C444.382 92.9056 444.427 93.0268 444.38 93.1308C444.332 93.2338 444.21 93.2797 444.108 93.2321C443.021 92.7375 442.318 91.6462 442.318 90.4518V86.0204C442.318 85.9084 442.41 85.8154 442.524 85.8154H445.467C447.1 85.8154 448.426 87.1423 448.426 88.7749V90.4518C448.426 92.1356 447.056 93.5058 445.373 93.5058Z" fill="#333A43"/>
<path d="M445.268 98.7398C442.985 98.7398 440.707 97.8468 439.008 96.073C435.859 92.7868 435.798 87.5874 438.869 84.2357C438.946 84.151 439.076 84.1455 439.159 84.2221C439.243 84.2985 439.249 84.4285 439.172 84.5118C436.246 87.7052 436.304 92.6586 439.304 95.7897C442.453 99.0759 447.689 99.1885 450.975 96.0401C452.569 94.5148 453.471 92.462 453.519 90.2568C453.566 88.0534 452.752 85.9634 451.228 84.371C449.576 82.6487 447.263 81.7275 444.875 81.8368C444.757 81.8396 444.665 81.7548 444.66 81.6413C444.655 81.5279 444.743 81.4322 444.856 81.4268C447.362 81.3078 449.79 82.2796 451.523 84.0867C453.124 85.7584 453.978 87.952 453.929 90.2663C453.88 92.5789 452.931 94.7348 451.26 96.3354C449.584 97.9412 447.424 98.7398 445.268 98.7398Z" fill="#333A43"/>
<path d="M461.107 90.0792C461.107 85.4321 464.875 81.665 469.522 81.665C474.17 81.665 477.938 85.4321 477.938 90.0792C477.938 94.726 474.17 98.4929 469.522 98.4929C464.875 98.4929 461.107 94.726 461.107 90.0792Z" fill="white"/>
<path d="M469.523 98.7398C464.747 98.7398 460.861 94.8543 460.861 90.0784C460.861 89.0572 461.036 88.0577 461.384 87.1067C461.431 86.9776 461.573 86.9127 461.702 86.9586C461.832 87.0053 461.897 87.1483 461.85 87.2764C461.522 88.1729 461.357 89.1153 461.357 90.0784C461.357 94.5815 465.02 98.2444 469.523 98.2444C474.028 98.2444 477.691 94.5815 477.691 90.0784C477.691 85.5755 474.028 81.9124 469.523 81.9124C467.073 81.9124 464.773 82.9991 463.213 84.8937C463.128 84.9995 462.971 85.0149 462.865 84.9278C462.759 84.8409 462.744 84.6849 462.83 84.5792C464.485 82.5696 466.924 81.417 469.523 81.417C474.301 81.417 478.187 85.3024 478.187 90.0784C478.187 94.8543 474.301 98.7398 469.523 98.7398Z" fill="#333A43"/>
<path d="M463.752 96.1971C465.259 97.6185 467.289 98.4924 469.524 98.4924C471.761 98.4924 473.79 97.6185 475.297 96.1971C473.554 95.6575 471.595 95.3535 469.524 95.3535C467.454 95.3535 465.496 95.6575 463.752 96.1971Z" fill="#FFE9E0"/>
<path d="M469.573 96.7769C468.839 96.7769 468.244 96.1819 468.244 95.4491V88.6768H470.901V95.4491C470.901 96.1819 470.306 96.7769 469.573 96.7769Z" fill="white"/>
<path d="M474.717 91.1463C474.55 89.0424 475.478 87.7293 473.398 85.3531C471.244 82.8924 469.396 84.5424 469.396 84.5424C469.396 84.5424 467.855 83.2637 465.833 85.9372C464.05 88.2967 466.334 90.4118 465.567 91.8807C464.798 93.3497 462.193 94.1509 462.193 94.1509C462.193 94.1509 463.028 95.82 464.065 96.5544H475.051C475.051 96.5544 477.32 94.0842 477.32 93.3826C477.32 93.3826 474.884 93.2493 474.717 91.1463Z" fill="#333A43"/>
<path d="M463.752 96.1971C465.259 97.6185 467.289 98.4924 469.524 98.4924C471.761 98.4924 473.79 97.6185 475.297 96.1971C473.554 95.6575 471.595 95.3535 469.524 95.3535C467.454 95.3535 465.496 95.6575 463.752 96.1971Z" fill="#FFE9E0"/>
<path d="M464.245 96.3086C465.721 97.5602 467.578 98.2445 469.522 98.2445C471.467 98.2445 473.324 97.5602 474.798 96.3086C473.136 95.8392 471.363 95.6019 469.522 95.6019C467.682 95.6019 465.908 95.8392 464.245 96.3086ZM469.522 98.7399C467.305 98.7399 465.194 97.9006 463.579 96.3771L463.271 96.086L463.677 95.9605C465.508 95.3931 467.476 95.1064 469.522 95.1064C471.57 95.1064 473.537 95.3931 475.369 95.9605L475.774 96.086L475.464 96.3771C473.851 97.9006 471.74 98.7399 469.522 98.7399Z" fill="#333A43"/>
<path d="M469.704 86.4736H469.611L466.908 89.1905V90.6802C466.908 91.6754 467.445 92.5424 468.245 93.0128V95.4492C468.245 96.182 468.84 96.777 469.575 96.777C470.307 96.777 470.902 96.182 470.902 95.4492V93.0587C471.745 92.6005 472.316 91.7075 472.316 90.6802V89.0874C472.316 87.6435 471.146 86.4736 469.704 86.4736Z" fill="white"/>
<path d="M469.575 97.024C468.706 97.024 467.998 96.3163 467.998 95.4476V93.0856C467.998 92.9496 468.109 92.8379 468.246 92.8379C468.384 92.8379 468.494 92.9496 468.494 93.0856V95.4476C468.494 96.0435 468.979 96.5285 469.575 96.5285C470.17 96.5285 470.655 96.0435 470.655 95.4476V93.1263C470.655 92.9903 470.765 92.8786 470.903 92.8786C471.04 92.8786 471.15 92.9903 471.15 93.1263V95.4476C471.15 96.3163 470.443 97.024 469.575 97.024Z" fill="#333A43"/>
<path d="M469.612 93.6316C469.476 93.6316 469.365 93.5207 469.365 93.3839C469.365 93.247 469.476 93.1362 469.612 93.1362C470.968 93.1362 472.069 92.0336 472.069 90.6789V89.0861C472.069 87.8163 471.076 86.7778 469.808 86.7224C469.806 86.7224 469.805 86.7224 469.803 86.7224L467.157 89.3381V90.6789C467.157 91.6395 467.721 92.5177 468.596 92.9162C468.72 92.9733 468.777 93.1197 468.718 93.2444C468.662 93.3692 468.515 93.4237 468.391 93.3674C467.34 92.8884 466.66 91.8335 466.66 90.6789V89.2351C466.66 89.1692 466.687 89.1051 466.733 89.0592L469.528 86.2961C469.575 86.2503 469.638 86.2246 469.703 86.2246C469.747 86.2246 469.788 86.2256 469.831 86.2274C471.363 86.2941 472.565 87.5495 472.565 89.0861V90.6789C472.565 92.3073 471.241 93.6316 469.612 93.6316Z" fill="#333A43"/>
<path d="M538.826 148.543H400.222C395.677 148.543 391.992 152.227 391.992 156.771V362.047C391.992 366.591 395.677 370.275 400.222 370.275H538.826C543.372 370.275 547.056 366.591 547.056 362.047V156.771C547.056 152.227 543.372 148.543 538.826 148.543Z" fill="white" stroke="#C4C4C4"/>
<path d="M337.848 174.095H258.151C256.237 174.095 254.686 175.646 254.686 177.559V184.488C254.686 186.402 256.237 187.953 258.151 187.953H337.848C339.762 187.953 341.313 186.402 341.313 184.488V177.559C341.313 175.646 339.762 174.095 337.848 174.095Z" fill="#FEC99E"/>
<path d="M509.372 174.095H429.674C427.76 174.095 426.209 175.646 426.209 177.559V184.488C426.209 186.402 427.76 187.953 429.674 187.953H509.372C511.286 187.953 512.837 186.402 512.837 184.488V177.559C512.837 175.646 511.286 174.095 509.372 174.095Z" fill="#C4C4C4"/>
<path d="M329.187 222.599H266.815C264.901 222.599 263.35 224.15 263.35 226.063C263.35 227.977 264.901 229.528 266.815 229.528H329.187C331.101 229.528 332.652 227.977 332.652 226.063C332.652 224.15 331.101 222.599 329.187 222.599Z" fill="#FFE6D1"/>
<path d="M500.71 222.599H438.338C436.424 222.599 434.873 224.15 434.873 226.063C434.873 227.977 436.424 229.528 438.338 229.528H500.71C502.624 229.528 504.175 227.977 504.175 226.063C504.175 224.15 502.624 222.599 500.71 222.599Z" fill="#DFDFDF"/>
<path d="M329.187 243.386H266.815C264.901 243.386 263.35 244.937 263.35 246.85C263.35 248.764 264.901 250.315 266.815 250.315H329.187C331.101 250.315 332.652 248.764 332.652 246.85C332.652 244.937 331.101 243.386 329.187 243.386Z" fill="#FFE6D1"/>
<path d="M500.71 243.386H438.338C436.424 243.386 434.873 244.937 434.873 246.85C434.873 248.764 436.424 250.315 438.338 250.315H500.71C502.624 250.315 504.175 248.764 504.175 246.85C504.175 244.937 502.624 243.386 500.71 243.386Z" fill="#DFDFDF"/>
<path d="M180.187 325.236H72.7683C71.0938 325.236 69.7363 326.594 69.7363 328.268V342.126C69.7363 343.8 71.0938 345.158 72.7683 345.158H180.187C181.861 345.158 183.219 343.8 183.219 342.126V328.268C183.219 326.594 181.861 325.236 180.187 325.236Z" fill="white" stroke="#C4C4C4"/>
<path d="M166.325 174.095H86.6272C84.7135 174.095 83.1621 175.646 83.1621 177.559V184.488C83.1621 186.402 84.7135 187.953 86.6272 187.953H166.325C168.239 187.953 169.79 186.402 169.79 184.488V177.559C169.79 175.646 168.239 174.095 166.325 174.095Z" fill="#C4C4C4"/>
<path d="M157.663 222.599H95.2913C93.3776 222.599 91.8262 224.15 91.8262 226.063C91.8262 227.977 93.3776 229.528 95.2913 229.528H157.663C159.577 229.528 161.129 227.977 161.129 226.063C161.129 224.15 159.577 222.599 157.663 222.599Z" fill="#DFDFDF"/>
<path d="M157.663 243.386H95.2913C93.3776 243.386 91.8262 244.937 91.8262 246.85C91.8262 248.764 93.3776 250.315 95.2913 250.315H157.663C159.577 250.315 161.129 248.764 161.129 246.85C161.129 244.937 159.577 243.386 157.663 243.386Z" fill="#DFDFDF"/>
<path d="M92.8303 288.771H90.7235C91.232 289.003 91.5733 289.399 91.7492 289.963H92.8303V290.975H91.8601C91.8228 291.557 91.6426 292.042 91.3195 292.43C91.0051 292.818 90.539 293.123 89.9196 293.345L92.4284 297.086H90.3632L88.2286 293.636H86.4961V292.485H88.1732C88.7458 292.485 89.1807 292.37 89.4761 292.139C89.7715 291.908 89.943 291.52 89.9889 290.975H86.4961V289.963H89.9196C89.8269 289.585 89.6286 289.312 89.3236 289.146C89.0187 288.97 88.6029 288.882 88.0762 288.882H86.4961V287.76H92.8303V288.771Z" fill="#23282E"/>
<path d="M103.537 278.045C104.813 278.045 105.903 278.257 106.809 278.682C107.733 279.089 108.426 279.652 108.888 280.373C109.368 281.094 109.608 281.898 109.608 282.784C109.608 283.911 109.285 284.854 108.638 285.612C107.991 286.35 107.095 286.877 105.949 287.191C107.206 287.32 108.232 287.773 109.026 288.55C109.821 289.326 110.218 290.407 110.218 291.792C110.218 292.864 109.941 293.834 109.387 294.703C108.85 295.571 108.056 296.264 107.003 296.781C105.949 297.28 104.702 297.53 103.26 297.53C100.617 297.53 98.5477 296.606 97.0508 294.758L99.1853 292.707C99.8133 293.335 100.433 293.788 101.043 294.065C101.652 294.342 102.318 294.481 103.039 294.481C103.999 294.481 104.757 294.222 105.312 293.705C105.884 293.188 106.171 292.467 106.171 291.543C106.171 290.545 105.903 289.824 105.367 289.381C104.831 288.938 104.027 288.716 102.955 288.716H101.431L101.902 285.944H102.928C103.796 285.944 104.49 285.713 105.007 285.251C105.524 284.79 105.783 284.143 105.783 283.311C105.783 282.59 105.543 282.027 105.062 281.62C104.6 281.214 103.963 281.011 103.149 281.011C102.447 281.011 101.801 281.14 101.209 281.399C100.617 281.658 100.035 282.064 99.4625 282.618L97.4943 280.484C99.213 278.858 101.227 278.045 103.537 278.045ZM114.866 292.79C115.549 292.79 116.113 293.021 116.557 293.483C117.019 293.927 117.25 294.481 117.25 295.146C117.25 295.516 117.185 295.904 117.056 296.31C116.945 296.698 116.751 297.215 116.474 297.862L114.672 301.909H112.371L113.535 297.086C113.221 296.883 112.971 296.615 112.787 296.282C112.601 295.932 112.51 295.552 112.51 295.146C112.51 294.481 112.731 293.927 113.175 293.483C113.637 293.021 114.201 292.79 114.866 292.79ZM131.138 281.26H124.235V285.556C125.141 285.131 126.083 284.919 127.063 284.919C128.097 284.919 129.012 285.159 129.807 285.639C130.62 286.12 131.258 286.822 131.72 287.746C132.182 288.651 132.413 289.723 132.413 290.961C132.413 292.254 132.117 293.4 131.526 294.398C130.934 295.377 130.093 296.144 129.003 296.698C127.931 297.253 126.684 297.53 125.261 297.53C122.858 297.53 120.844 296.625 119.218 294.813L121.436 292.735C122.47 293.917 123.709 294.509 125.15 294.509C126.166 294.509 126.952 294.204 127.507 293.594C128.079 292.984 128.366 292.107 128.366 290.961C128.366 288.762 127.423 287.663 125.538 287.663C125.131 287.663 124.743 287.718 124.374 287.829C124.022 287.922 123.634 288.088 123.21 288.328H120.465V278.405H131.609L131.138 281.26ZM141.681 278.045C143.936 278.045 145.646 278.886 146.81 280.567C147.974 282.23 148.556 284.632 148.556 287.773C148.556 290.915 147.965 293.326 146.782 295.007C145.618 296.689 143.917 297.53 141.681 297.53C139.445 297.53 137.745 296.689 136.581 295.007C135.417 293.326 134.834 290.915 134.834 287.773C134.834 284.632 135.417 282.23 136.581 280.567C137.745 278.886 139.445 278.045 141.681 278.045ZM141.681 280.983C141.016 280.983 140.48 281.205 140.074 281.648C139.667 282.073 139.362 282.784 139.159 283.782C138.973 284.762 138.882 286.092 138.882 287.773C138.882 289.455 138.973 290.795 139.159 291.792C139.362 292.772 139.667 293.483 140.074 293.927C140.48 294.352 141.016 294.564 141.681 294.564C142.347 294.564 142.882 294.352 143.289 293.927C143.696 293.501 144.001 292.8 144.204 291.82C144.407 290.822 144.509 289.474 144.509 287.773C144.509 286.055 144.407 284.706 144.204 283.727C144.001 282.729 143.696 282.027 143.289 281.62C142.882 281.195 142.347 280.983 141.681 280.983ZM158.012 278.045C160.267 278.045 161.976 278.886 163.14 280.567C164.304 282.23 164.886 284.632 164.886 287.773C164.886 290.915 164.295 293.326 163.112 295.007C161.948 296.689 160.248 297.53 158.012 297.53C155.776 297.53 154.075 296.689 152.911 295.007C151.747 293.326 151.165 290.915 151.165 287.773C151.165 284.632 151.747 282.23 152.911 280.567C154.075 278.886 155.776 278.045 158.012 278.045ZM158.012 280.983C157.346 280.983 156.81 281.205 156.404 281.648C155.998 282.073 155.693 282.784 155.489 283.782C155.305 284.762 155.212 286.092 155.212 287.773C155.212 289.455 155.305 290.795 155.489 291.792C155.693 292.772 155.998 293.483 156.404 293.927C156.81 294.352 157.346 294.564 158.012 294.564C158.677 294.564 159.213 294.352 159.62 293.927C160.026 293.501 160.331 292.8 160.534 291.82C160.738 290.822 160.839 289.474 160.839 287.773C160.839 286.055 160.738 284.706 160.534 283.727C160.331 282.729 160.026 282.027 159.62 281.62C159.213 281.195 158.677 280.983 158.012 280.983Z" fill="#23282E"/>
<path d="M263.487 288.771H261.38C261.888 289.003 262.23 289.399 262.405 289.963H263.487V290.975H262.516C262.479 291.557 262.299 292.042 261.976 292.43C261.661 292.818 261.195 293.123 260.576 293.345L263.085 297.086H261.019L258.885 293.636H257.152V292.485H258.829C259.402 292.485 259.837 292.37 260.132 292.139C260.428 291.908 260.599 291.52 260.645 290.975H257.152V289.963H260.576C260.483 289.585 260.285 289.312 259.98 289.146C259.675 288.97 259.259 288.882 258.732 288.882H257.152V287.76H263.487V288.771Z" fill="#23282E"/>
<path d="M279.904 278.405V281.121L273.03 297.502L269.454 296.31L275.829 281.399H268.123V278.405H279.904ZM284.06 292.79C284.744 292.79 285.307 293.021 285.751 293.483C286.214 293.927 286.444 294.481 286.444 295.146C286.444 295.516 286.38 295.904 286.25 296.31C286.139 296.698 285.945 297.215 285.668 297.862L283.866 301.909H281.565L282.729 297.086C282.416 296.883 282.166 296.615 281.981 296.282C281.796 295.932 281.704 295.552 281.704 295.146C281.704 294.481 281.925 293.927 282.369 293.483C282.832 293.021 283.395 292.79 284.06 292.79ZM295.357 278.045C297.612 278.045 299.322 278.886 300.486 280.567C301.65 282.23 302.232 284.632 302.232 287.773C302.232 290.915 301.641 293.326 300.459 295.007C299.294 296.689 297.594 297.53 295.357 297.53C293.121 297.53 291.421 296.689 290.256 295.007C289.092 293.326 288.51 290.915 288.51 287.773C288.51 284.632 289.092 282.23 290.256 280.567C291.421 278.886 293.121 278.045 295.357 278.045ZM295.357 280.983C294.692 280.983 294.156 281.205 293.749 281.648C293.343 282.073 293.038 282.784 292.835 283.782C292.65 284.762 292.557 286.092 292.557 287.773C292.557 289.455 292.65 290.795 292.835 291.792C293.038 292.772 293.343 293.483 293.749 293.927C294.156 294.352 294.692 294.564 295.357 294.564C296.022 294.564 296.559 294.352 296.965 293.927C297.372 293.501 297.677 292.8 297.881 291.82C298.083 290.822 298.186 289.474 298.186 287.773C298.186 286.055 298.083 284.706 297.881 283.727C297.677 282.729 297.372 282.027 296.965 281.62C296.559 281.195 296.022 280.983 295.357 280.983ZM311.688 278.045C313.942 278.045 315.652 278.886 316.817 280.567C317.981 282.23 318.563 284.632 318.563 287.773C318.563 290.915 317.971 293.326 316.789 295.007C315.625 296.689 313.924 297.53 311.688 297.53C309.452 297.53 307.752 296.689 306.588 295.007C305.423 293.326 304.841 290.915 304.841 287.773C304.841 284.632 305.423 282.23 306.588 280.567C307.752 278.886 309.452 278.045 311.688 278.045ZM311.688 280.983C311.023 280.983 310.487 281.205 310.08 281.648C309.673 282.073 309.368 282.784 309.166 283.782C308.98 284.762 308.888 286.092 308.888 287.773C308.888 289.455 308.98 290.795 309.166 291.792C309.368 292.772 309.673 293.483 310.08 293.927C310.487 294.352 311.023 294.564 311.688 294.564C312.354 294.564 312.889 294.352 313.296 293.927C313.702 293.501 314.007 292.8 314.211 291.82C314.414 290.822 314.516 289.474 314.516 287.773C314.516 286.055 314.414 284.706 314.211 283.727C314.007 282.729 313.702 282.027 313.296 281.62C312.889 281.195 312.354 280.983 311.688 280.983ZM328.018 278.045C330.273 278.045 331.983 278.886 333.147 280.567C334.311 282.23 334.893 284.632 334.893 287.773C334.893 290.915 334.302 293.326 333.119 295.007C331.955 296.689 330.254 297.53 328.018 297.53C325.783 297.53 324.082 296.689 322.918 295.007C321.754 293.326 321.171 290.915 321.171 287.773C321.171 284.632 321.754 282.23 322.918 280.567C324.082 278.886 325.783 278.045 328.018 278.045ZM328.018 280.983C327.353 280.983 326.817 281.205 326.411 281.648C326.004 282.073 325.699 282.784 325.496 283.782C325.311 284.762 325.219 286.092 325.219 287.773C325.219 289.455 325.311 290.795 325.496 291.792C325.699 292.772 326.004 293.483 326.411 293.927C326.817 294.352 327.353 294.564 328.018 294.564C328.684 294.564 329.22 294.352 329.626 293.927C330.033 293.501 330.337 292.8 330.541 291.82C330.745 290.822 330.846 289.474 330.846 287.773C330.846 286.055 330.745 284.706 330.541 283.727C330.337 282.729 330.033 282.027 329.626 281.62C329.22 281.195 328.684 280.983 328.018 280.983Z" fill="#23282E"/>
<path d="M429.813 288.771H427.706C428.214 289.003 428.556 289.399 428.732 289.963H429.813V290.975H428.842C428.805 291.557 428.625 292.042 428.302 292.43C427.987 292.818 427.521 293.123 426.902 293.345L429.411 297.086H427.346L425.211 293.636H423.479V292.485H425.156C425.728 292.485 426.163 292.37 426.458 292.139C426.754 291.908 426.925 291.52 426.971 290.975H423.479V289.963H426.902C426.809 289.585 426.611 289.312 426.306 289.146C426.001 288.97 425.585 288.882 425.059 288.882H423.479V287.76H429.813V288.771Z" fill="#23282E"/>
<path d="M444.179 278.406V297.087H440.325V282.286L436.223 284.809L434.504 282.148L440.713 278.406H444.179ZM461.728 289.936V292.929H459.538V297.087H455.712L455.684 292.929H447.784V290.269L453.162 277.99L456.488 279.237L451.859 289.936H455.74L456.156 285.363H459.538V289.936H461.728ZM465.931 292.791C466.615 292.791 467.178 293.022 467.622 293.484C468.084 293.927 468.315 294.482 468.315 295.147C468.315 295.517 468.251 295.905 468.121 296.311C468.01 296.699 467.816 297.216 467.539 297.863L465.737 301.91H463.436L464.6 297.087C464.287 296.883 464.037 296.616 463.852 296.283C463.667 295.932 463.574 295.553 463.574 295.147C463.574 294.482 463.796 293.927 464.24 293.484C464.702 293.022 465.265 292.791 465.931 292.791ZM477.228 278.046C479.483 278.046 481.192 278.887 482.357 280.568C483.521 282.231 484.103 284.633 484.103 287.774C484.103 290.916 483.512 293.327 482.329 295.008C481.164 296.689 479.465 297.53 477.228 297.53C474.992 297.53 473.292 296.689 472.127 295.008C470.963 293.327 470.381 290.916 470.381 287.774C470.381 284.633 470.963 282.231 472.127 280.568C473.292 278.887 474.992 278.046 477.228 278.046ZM477.228 280.984C476.563 280.984 476.027 281.205 475.62 281.649C475.214 282.074 474.909 282.785 474.705 283.783C474.521 284.763 474.428 286.093 474.428 287.774C474.428 289.455 474.521 290.795 474.705 291.793C474.909 292.773 475.214 293.484 475.62 293.927C476.027 294.353 476.563 294.565 477.228 294.565C477.893 294.565 478.429 294.353 478.836 293.927C479.243 293.502 479.548 292.8 479.75 291.821C479.954 290.823 480.056 289.474 480.056 287.774C480.056 286.056 479.954 284.707 479.75 283.728C479.548 282.73 479.243 282.027 478.836 281.621C478.429 281.196 477.893 280.984 477.228 280.984ZM493.559 278.046C495.813 278.046 497.523 278.887 498.687 280.568C499.852 282.231 500.434 284.633 500.434 287.774C500.434 290.916 499.842 293.327 498.66 295.008C497.495 296.689 495.795 297.53 493.559 297.53C491.322 297.53 489.623 296.689 488.458 295.008C487.294 293.327 486.712 290.916 486.712 287.774C486.712 284.633 487.294 282.231 488.458 280.568C489.623 278.887 491.322 278.046 493.559 278.046ZM493.559 280.984C492.894 280.984 492.357 281.205 491.951 281.649C491.544 282.074 491.239 282.785 491.036 283.783C490.851 284.763 490.759 286.093 490.759 287.774C490.759 289.455 490.851 290.795 491.036 291.793C491.239 292.773 491.544 293.484 491.951 293.927C492.357 294.353 492.894 294.565 493.559 294.565C494.224 294.565 494.76 294.353 495.167 293.927C495.573 293.502 495.878 292.8 496.082 291.821C496.284 290.823 496.386 289.474 496.386 287.774C496.386 286.056 496.284 284.707 496.082 283.728C495.878 282.73 495.573 282.027 495.167 281.621C494.76 281.196 494.224 280.984 493.559 280.984ZM509.889 278.046C512.144 278.046 513.853 278.887 515.018 280.568C516.182 282.231 516.764 284.633 516.764 287.774C516.764 290.916 516.172 293.327 514.99 295.008C513.826 296.689 512.125 297.53 509.889 297.53C507.653 297.53 505.953 296.689 504.789 295.008C503.624 293.327 503.042 290.916 503.042 287.774C503.042 284.633 503.624 282.231 504.789 280.568C505.953 278.887 507.653 278.046 509.889 278.046ZM509.889 280.984C509.224 280.984 508.688 281.205 508.281 281.649C507.875 282.074 507.57 282.785 507.367 283.783C507.182 284.763 507.089 286.093 507.089 287.774C507.089 289.455 507.182 290.795 507.367 291.793C507.57 292.773 507.875 293.484 508.281 293.927C508.688 294.353 509.224 294.565 509.889 294.565C510.554 294.565 511.091 294.353 511.497 293.927C511.903 293.502 512.208 292.8 512.412 291.821C512.615 290.823 512.717 289.474 512.717 287.774C512.717 286.056 512.615 284.707 512.412 283.728C512.208 282.73 511.903 282.027 511.497 281.621C511.091 281.196 510.554 280.984 509.889 280.984Z" fill="#23282E"/>
<path d="M351.71 324.803H244.291C242.378 324.803 240.826 326.354 240.826 328.267V342.126C240.826 344.039 242.378 345.59 244.291 345.59H351.71C353.624 345.59 355.175 344.039 355.175 342.126V328.267C355.175 326.354 353.624 324.803 351.71 324.803Z" fill="#FB9946"/>
<path d="M523.232 325.236H415.813C414.139 325.236 412.781 326.594 412.781 328.268V342.126C412.781 343.8 414.139 345.158 415.813 345.158H523.232C524.906 345.158 526.264 343.8 526.264 342.126V328.268C526.264 326.594 524.906 325.236 523.232 325.236Z" fill="white" stroke="#C4C4C4"/>
<path d="M49.9836 84.1712C51.5198 84.1712 52.7096 84.4888 53.5527 85.1239C54.4075 85.7591 54.8348 86.7116 54.8348 87.9822C54.8348 89.31 54.4075 90.3095 53.5527 90.979C52.698 91.6373 51.5603 91.9664 50.1396 91.9664H48.7362V96.1412H46.4492V84.1712H49.9836ZM49.9663 90.2515C50.7864 90.2515 51.4043 90.0843 51.8202 89.7491C52.236 89.4027 52.4439 88.8137 52.4439 87.9822C52.4439 86.5617 51.618 85.8515 49.9663 85.8515H48.7362V90.2515H49.9663ZM58.6127 96.4011C57.9082 96.4011 57.3538 96.1993 56.9495 95.7948C56.5568 95.379 56.3604 94.7961 56.3604 94.0452V83.305L58.5781 83.0625V93.9759C58.5781 94.4029 58.7513 94.6168 59.0978 94.6168C59.2711 94.6168 59.4444 94.5882 59.6176 94.5302L60.0854 96.0893C59.6234 96.2971 59.1325 96.4011 58.6127 96.4011ZM68.2465 93.716C68.2465 94.0738 68.2984 94.3397 68.4024 94.5129C68.5179 94.6749 68.6969 94.8013 68.9395 94.894L68.4717 96.3664C67.9519 96.3205 67.5245 96.1932 67.1896 95.9853C66.8661 95.7775 66.6178 95.4596 66.4446 95.0326C66.1327 95.4942 65.74 95.8407 65.2665 96.0719C64.8044 96.2911 64.2846 96.4011 63.7071 96.4011C62.7946 96.4011 62.0727 96.1412 61.5415 95.6216C61.0101 95.1019 60.7445 94.4202 60.7445 93.5775C60.7445 92.584 61.1025 91.8279 61.8187 91.3082C62.5463 90.7772 63.5801 90.5113 64.9199 90.5113H66.0634V89.9916C66.0634 89.4027 65.9248 88.993 65.6476 88.7617C65.3819 88.5192 64.9488 88.3979 64.3482 88.3979C63.6782 88.3979 62.8697 88.5599 61.9226 88.883L61.4028 87.3759C62.5463 86.9367 63.6552 86.7176 64.7294 86.7176C67.074 86.7176 68.2465 87.7682 68.2465 89.8704V93.716ZM64.2962 94.7901C65.0469 94.7901 65.636 94.415 66.0634 93.6641V91.8105H65.1452C63.7129 91.8105 62.9968 92.3415 62.9968 93.4042C62.9968 93.8434 63.1065 94.1838 63.326 94.4263C63.5454 94.6688 63.8688 94.7901 64.2962 94.7901ZM75.8159 86.7176C76.636 86.7176 77.2713 86.9662 77.7217 87.4625C78.1838 87.9475 78.4147 88.6292 78.4147 89.5066V96.1412H76.1971V89.853C76.1971 89.31 76.0989 88.9289 75.9025 88.7097C75.7178 88.4906 75.4406 88.3806 75.0709 88.3806C74.6897 88.3806 74.3432 88.5019 74.0314 88.7444C73.7311 88.9756 73.4366 89.316 73.1478 89.7664V96.1412H70.9301V86.9775H72.8532L73.0265 88.1727C73.7773 87.2027 74.7071 86.7176 75.8159 86.7176ZM83.8906 86.7176C85.1265 86.7176 86.2122 87.0814 87.1479 87.809L86.2815 89.1082C85.4962 88.6119 84.728 88.3633 83.9772 88.3633C83.5384 88.3633 83.1976 88.4499 82.955 88.6231C82.7125 88.7851 82.5912 89.0042 82.5912 89.2814C82.5912 89.4893 82.6431 89.6625 82.7471 89.8011C82.8511 89.9397 83.0359 90.0722 83.3015 90.1995C83.5787 90.3147 83.983 90.4481 84.5143 90.5979C85.5077 90.8638 86.2411 91.2155 86.7147 91.6546C87.1999 92.0938 87.4424 92.7053 87.4424 93.4908C87.4424 94.4029 87.0725 95.1192 86.3335 95.6389C85.5943 96.1473 84.676 96.4011 83.5787 96.4011C82.828 96.4011 82.1407 96.2859 81.517 96.0546C80.9049 95.8234 80.3735 95.5064 79.923 95.1019L81.0319 93.8546C81.8288 94.4549 82.6605 94.7554 83.5267 94.7554C84.0235 94.7554 84.4162 94.6575 84.7049 94.4609C85.0052 94.2643 85.1554 93.9932 85.1554 93.6468C85.1554 93.3808 85.0977 93.173 84.9821 93.0231C84.8781 92.8612 84.6818 92.7226 84.393 92.6074C84.1158 92.4801 83.677 92.3302 83.0763 92.157C82.1407 91.9032 81.4535 91.5507 81.0145 91.1003C80.5757 90.6386 80.3562 90.067 80.3562 89.3853C80.3562 88.8769 80.5006 88.4213 80.7893 88.0168C81.0896 87.6123 81.5055 87.2953 82.0367 87.0641C82.5796 86.8328 83.1976 86.7176 83.8906 86.7176Z" fill="#23282E"/>
<path d="M46.7797 45.0392C49.6503 45.0392 51.9774 42.7125 51.9774 39.8424C51.9774 36.9722 49.6503 34.6455 46.7797 34.6455C43.9091 34.6455 41.582 36.9722 41.582 39.8424C41.582 42.7125 43.9091 45.0392 46.7797 45.0392Z" fill="#00C991"/>
<path d="M67.5707 45.0392C70.4413 45.0392 72.7684 42.7125 72.7684 39.8424C72.7684 36.9722 70.4413 34.6455 67.5707 34.6455C64.7001 34.6455 62.373 36.9722 62.373 39.8424C62.373 42.7125 64.7001 45.0392 67.5707 45.0392Z" fill="#FFBD1C"/>
<path d="M88.3598 45.0392C91.2304 45.0392 93.5575 42.7125 93.5575 39.8424C93.5575 36.9722 91.2304 34.6455 88.3598 34.6455C85.4892 34.6455 83.1621 36.9722 83.1621 39.8424C83.1621 42.7125 85.4892 45.0392 88.3598 45.0392Z" fill="#FF7943"/>
</g>
<defs>
<filter id="filter0_d" x="-3.20898" y="-2.1416" width="602.419" height="446.425" filterUnits="userSpaceOnUse" color-interpolation-filters="sRGB">
<feFlood flood-opacity="0" result="BackgroundImageFix"/>
<feColorMatrix in="SourceAlpha" type="matrix" values="0 0 0 0 0 0 0 0 0 0 0 0 0 0 0 0 0 0 127 0"/>
<feOffset dy="8"/>
<feGaussianBlur stdDeviation="12"/>
<feColorMatrix type="matrix" values="0 0 0 0 0 0 0 0 0 0 0 0 0 0 0 0 0 0 0.16 0"/>
<feBlend mode="normal" in2="BackgroundImageFix" result="effect1_dropShadow"/>
<feBlend mode="normal" in="SourceGraphic" in2="effect1_dropShadow" result="shape"/>
</filter>
<clipPath id="clip0">
<rect width="596" height="440" fill="white"/>
</clipPath>
</defs>
</svg>
