<svg width="596" height="440" viewBox="0 0 596 440" fill="none" xmlns="http://www.w3.org/2000/svg">
<g clip-path="url(#clip0)">
<g filter="url(#filter0_d)">
<path d="M566.547 13.8584H29.4538C24.6695 13.8584 20.791 17.7362 20.791 22.5198V403.622C20.791 408.406 24.6695 412.284 29.4538 412.284H566.547C571.331 412.284 575.21 408.406 575.21 403.622V22.5198C575.21 17.7362 571.331 13.8584 566.547 13.8584Z" fill="#FDBABF"/>
</g>
<path d="M563.081 17.3232H32.9186C28.1343 17.3232 24.2559 21.2011 24.2559 25.9847V400.158C24.2559 404.941 28.1343 408.819 32.9186 408.819H563.081C567.866 408.819 571.744 404.941 571.744 400.158V25.9847C571.744 21.2011 567.866 17.3232 563.081 17.3232Z" fill="white"/>
<path d="M542.292 225.63H53.7101C49.165 225.63 45.4805 229.314 45.4805 233.858V379.37C45.4805 383.914 49.165 387.598 53.7101 387.598H542.292C546.837 387.598 550.521 383.914 550.521 379.37V233.858C550.521 229.314 546.837 225.63 542.292 225.63Z" fill="white" stroke="#DFDFDF"/>
<path d="M142.069 239.055H62.3714C60.4576 239.055 58.9062 240.606 58.9062 242.519C58.9062 244.433 60.4576 245.984 62.3714 245.984H142.069C143.983 245.984 145.534 244.433 145.534 242.519C145.534 240.606 143.983 239.055 142.069 239.055Z" fill="#C4C4C4"/>
<path d="M542.291 66.2598H282.407C277.862 66.2598 274.178 69.9437 274.178 74.4881V195.748C274.178 200.292 277.862 203.976 282.407 203.976H542.291C546.836 203.976 550.521 200.292 550.521 195.748V74.4881C550.521 69.9437 546.836 66.2598 542.291 66.2598Z" fill="white" stroke="#DFDFDF"/>
<path d="M370.768 79.6855H291.071C289.157 79.6855 287.605 81.2367 287.605 83.1501C287.605 85.0635 289.157 86.6147 291.071 86.6147H370.768C372.682 86.6147 374.233 85.0635 374.233 83.1501C374.233 81.2367 372.682 79.6855 370.768 79.6855Z" fill="#C4C4C4"/>
<path d="M511.105 114.331H323.988C323.032 114.331 322.256 115.107 322.256 116.063C322.256 117.02 323.032 117.796 323.988 117.796H511.105C512.062 117.796 512.837 117.02 512.837 116.063C512.837 115.107 512.062 114.331 511.105 114.331Z" fill="#FB9946"/>
<path d="M483.384 131.653H323.988C323.032 131.653 322.256 132.429 322.256 133.386C322.256 134.342 323.032 135.118 323.988 135.118H483.384C484.341 135.118 485.116 134.342 485.116 133.386C485.116 132.429 484.341 131.653 483.384 131.653Z" fill="#FB9946"/>
<path d="M441.802 148.977H323.988C323.032 148.977 322.256 149.752 322.256 150.709C322.256 151.666 323.032 152.441 323.988 152.441H441.802C442.759 152.441 443.535 151.666 443.535 150.709C443.535 149.752 442.759 148.977 441.802 148.977Z" fill="#FB9946"/>
<path d="M414.081 166.299H323.988C323.032 166.299 322.256 167.074 322.256 168.031C322.256 168.988 323.032 169.763 323.988 169.763H414.081C415.038 169.763 415.814 168.988 415.814 168.031C415.814 167.074 415.038 166.299 414.081 166.299Z" fill="#FB9946"/>
<path d="M389.826 183.622H323.988C323.032 183.622 322.256 184.398 322.256 185.354C322.256 186.311 323.032 187.087 323.988 187.087H389.826C390.782 187.087 391.558 186.311 391.558 185.354C391.558 184.398 390.782 183.622 389.826 183.622Z" fill="#FB9946"/>
<path d="M313.594 114.331H289.338C288.381 114.331 287.605 115.107 287.605 116.063C287.605 117.02 288.381 117.796 289.338 117.796H313.594C314.551 117.796 315.326 117.02 315.326 116.063C315.326 115.107 314.551 114.331 313.594 114.331Z" fill="#EAEAEA"/>
<path d="M313.594 131.653H289.338C288.381 131.653 287.605 132.429 287.605 133.386C287.605 134.342 288.381 135.118 289.338 135.118H313.594C314.551 135.118 315.326 134.342 315.326 133.386C315.326 132.429 314.551 131.653 313.594 131.653Z" fill="#EAEAEA"/>
<path d="M313.594 148.977H289.338C288.381 148.977 287.605 149.752 287.605 150.709C287.605 151.666 288.381 152.441 289.338 152.441H313.594C314.551 152.441 315.326 151.666 315.326 150.709C315.326 149.752 314.551 148.977 313.594 148.977Z" fill="#EAEAEA"/>
<path d="M313.594 166.299H289.338C288.381 166.299 287.605 167.074 287.605 168.031C287.605 168.988 288.381 169.763 289.338 169.763H313.594C314.551 169.763 315.326 168.988 315.326 168.031C315.326 167.074 314.551 166.299 313.594 166.299Z" fill="#EAEAEA"/>
<path d="M313.594 183.622H289.338C288.381 183.622 287.605 184.398 287.605 185.354C287.605 186.311 288.381 187.087 289.338 187.087H313.594C314.551 187.087 315.326 186.311 315.326 185.354C315.326 184.398 314.551 183.622 313.594 183.622Z" fill="#EAEAEA"/>
<path d="M531.895 260.275H64.1044C61.473 260.275 59.3398 262.408 59.3398 265.039V289.291C59.3398 291.922 61.473 294.055 64.1044 294.055H531.895C534.527 294.055 536.66 291.922 536.66 289.291V265.039C536.66 262.408 534.527 260.275 531.895 260.275Z" fill="white" stroke="#DFDFDF"/>
<path d="M206.174 275H109.151C108.194 275 107.418 275.597 107.418 276.333V277.667C107.418 278.403 108.194 279 109.151 279H206.174C207.131 279 207.906 278.403 207.906 277.667V276.333C207.906 275.597 207.131 275 206.174 275Z" fill="#DFDFDF"/>
<path d="M329.5 275H256.733C255.776 275 255 275.597 255 276.333V277.667C255 278.403 255.776 279 256.733 279H329.5C330.457 279 331.232 278.403 331.232 277.667V276.333C331.232 275.597 330.457 275 329.5 275Z" fill="#DFDFDF"/>
<path d="M432.709 275H380.733C379.776 275 379 275.597 379 276.333V277.667C379 278.403 379.776 279 380.733 279H432.709C433.666 279 434.442 278.403 434.442 277.667V276.333C434.442 275.597 433.666 275 432.709 275Z" fill="#DFDFDF"/>
<path d="M514.919 275H483.733C482.776 275 482 275.597 482 276.333V277.667C482 278.403 482.776 279 483.733 279H514.919C515.875 279 516.651 278.403 516.651 277.667V276.333C516.651 275.597 515.875 275 514.919 275Z" fill="#DFDFDF"/>
<path d="M88.3606 268.504H74.5001C73.5433 268.504 72.7676 269.279 72.7676 270.236V284.094C72.7676 285.051 73.5433 285.827 74.5001 285.827H88.3606C89.3175 285.827 90.0932 285.051 90.0932 284.094V270.236C90.0932 269.279 89.3175 268.504 88.3606 268.504Z" fill="#DFDFDF"/>
<g filter="url(#filter1_d)">
<path d="M552.687 301.417H43.3149C40.4443 301.417 38.1172 303.744 38.1172 306.614V330.866C38.1172 333.736 40.4443 336.063 43.3149 336.063H552.687C555.558 336.063 557.885 333.736 557.885 330.866V306.614C557.885 303.744 555.558 301.417 552.687 301.417Z" fill="white"/>
<path d="M552.687 301.851H43.3153C40.6839 301.851 38.5508 303.983 38.5508 306.614V330.866C38.5508 333.497 40.6839 335.63 43.3153 335.63H552.687C555.319 335.63 557.452 333.497 557.452 330.866V306.614C557.452 303.983 555.319 301.851 552.687 301.851Z" stroke="#DFDFDF"/>
</g>
<path d="M212.616 315.143H101.733C100.776 315.143 100 315.74 100 316.476V317.809C100 318.546 100.776 319.143 101.733 319.143H212.616C213.573 319.143 214.349 318.546 214.349 317.809V316.476C214.349 315.74 213.573 315.143 212.616 315.143Z" fill="#333A43"/>
<path d="M329.5 315.143H256.733C255.776 315.143 255 315.74 255 316.476V317.809C255 318.546 255.776 319.143 256.733 319.143H329.5C330.457 319.143 331.233 318.546 331.233 317.809V316.476C331.233 315.74 330.457 315.143 329.5 315.143Z" fill="#333A43"/>
<path d="M442.709 315.143H390.733C389.776 315.143 389 315.74 389 316.476V317.809C389 318.546 389.776 319.143 390.733 319.143H442.709C443.666 319.143 444.442 318.546 444.442 317.809V316.476C444.442 315.74 443.666 315.143 442.709 315.143Z" fill="#333A43"/>
<path d="M532.919 316H501.733C500.776 316 500 316.597 500 317.333V318.667C500 319.403 500.776 320 501.733 320H532.919C533.875 320 534.651 319.403 534.651 318.667V317.333C534.651 316.597 533.875 316 532.919 316Z" fill="#333A43"/>
<path d="M67.5696 310.079H53.7091C52.7523 310.079 51.9766 310.855 51.9766 311.811V325.67C51.9766 326.626 52.7523 327.402 53.7091 327.402H67.5696C68.5264 327.402 69.3021 326.626 69.3021 325.67V311.811C69.3021 310.855 68.5264 310.079 67.5696 310.079Z" fill="#DFDFDF"/>
<path d="M58.8185 310.137L78.9016 310.079C79.3054 310.079 79.6417 310.422 79.6285 310.821L79.1064 326.512C79.0946 326.864 78.8124 327.133 78.4563 327.133L53.7139 327.13C53.3099 327.13 52.9675 326.751 52.9808 326.353L53.5088 310.758C53.5205 310.407 53.7891 310.099 54.1453 310.099L58.8185 310.137Z" fill="#333A43"/>
<path d="M57.8616 310.137H77.9445C78.3487 310.137 78.6849 310.48 78.6714 310.879L78.1494 326.458C78.1375 326.81 77.8556 327.079 77.4992 327.079H52.7567C52.3527 327.079 52.0163 326.736 52.0297 326.338L52.5518 310.758C52.5636 310.406 52.8457 310.137 53.2019 310.137H57.8616Z" fill="#FEC99E"/>
<path d="M53.2014 310.19C52.8714 310.19 52.6144 310.435 52.6035 310.76L52.0815 326.34C52.0755 326.517 52.1426 326.686 52.2703 326.819C52.3988 326.951 52.5758 327.028 52.7561 327.028H77.4987C77.8287 327.028 78.0858 326.782 78.0966 326.457L78.619 310.877C78.6249 310.701 78.5576 310.53 78.43 310.399C78.3015 310.265 78.1245 310.19 77.944 310.19H53.2014ZM77.4987 327.132H52.7561C52.5477 327.132 52.3432 327.044 52.1952 326.891C52.0476 326.738 51.9701 326.542 51.977 326.336L52.499 310.756C52.5118 310.373 52.8138 310.085 53.2014 310.085H77.944C78.1524 310.085 78.3569 310.172 78.505 310.326C78.6527 310.478 78.7301 310.676 78.7231 310.881L78.2012 326.46C78.1882 326.843 77.8865 327.132 77.4987 327.132Z" fill="#333A43"/>
<path d="M52.0816 324.836C52.081 324.836 52.0803 324.836 52.0798 324.836C52.051 324.835 52.0284 324.811 52.0293 324.782L52.4993 310.756C52.512 310.373 52.8141 310.085 53.2017 310.085H57.8613C57.8901 310.085 57.9135 310.108 57.9135 310.137C57.9135 310.166 57.8901 310.189 57.8613 310.189H53.2017C52.8717 310.189 52.6147 310.435 52.6038 310.76L52.1338 324.785C52.1328 324.814 52.1096 324.836 52.0816 324.836Z" fill="#333A43"/>
<path d="M77.4994 327.132H53.1304C53.1014 327.132 53.0781 327.109 53.0781 327.08C53.0781 327.051 53.1014 327.028 53.1304 327.028H77.4994C77.8294 327.028 78.0866 326.782 78.0973 326.457L78.6197 310.877C78.6256 310.701 78.5583 310.53 78.4308 310.399C78.3023 310.265 78.1252 310.19 77.9447 310.19H57.8617C57.8329 310.19 57.8095 310.166 57.8095 310.137C57.8095 310.108 57.8329 310.085 57.8617 310.085H77.9447C78.1531 310.085 78.3576 310.172 78.5058 310.326C78.6535 310.478 78.7308 310.676 78.7239 310.881L78.2019 326.46C78.189 326.843 77.8872 327.132 77.4994 327.132Z" fill="#333A43"/>
<path d="M75.8246 325.606L54.3843 325.656C54.2323 325.656 54.1104 325.53 54.1154 325.379L54.5619 311.921C54.5666 311.777 54.685 311.662 54.8295 311.662L76.435 311.611C76.5882 311.611 76.7106 311.739 76.7037 311.892L76.0921 325.349C76.0856 325.492 75.9679 325.605 75.8246 325.606Z" fill="#FB9946"/>
<path d="M75.824 325.553L75.824 325.606L75.824 325.553C75.9394 325.553 76.0341 325.463 76.0393 325.347L76.651 311.89C76.6537 311.831 76.6325 311.774 76.5912 311.731C76.55 311.688 76.4945 311.664 76.4351 311.664C76.4349 311.664 76.4348 311.664 76.4346 311.664L54.8291 311.714C54.7121 311.715 54.6175 311.806 54.6136 311.923L54.1672 325.381C54.1652 325.439 54.1868 325.496 54.228 325.538C54.269 325.581 54.3241 325.604 54.3831 325.604C54.3833 325.604 54.3835 325.604 54.3836 325.604L75.824 325.553ZM54.3831 325.708C54.2955 325.708 54.2139 325.673 54.153 325.611C54.0918 325.548 54.0597 325.465 54.0627 325.377L54.5091 311.92C54.5149 311.746 54.6553 311.61 54.8288 311.61L76.4343 311.56C76.4346 311.56 76.4349 311.56 76.4351 311.56C76.5234 311.56 76.6056 311.594 76.6667 311.658C76.7279 311.722 76.7595 311.806 76.7554 311.895L76.1438 325.352C76.136 325.523 75.9957 325.658 75.8242 325.658L54.3839 325.708C54.3836 325.708 54.3834 325.708 54.3831 325.708Z" fill="white"/>
<path d="M65.0771 325.71L64.9727 325.706L65.5178 311.691L65.6223 311.696L65.0771 325.71Z" fill="white"/>
<path d="M65.3367 317.164C65.3113 317.164 65.2857 317.165 65.2602 317.166C64.4083 317.207 63.7487 317.934 63.7899 318.785C63.8099 319.198 63.9894 319.578 64.2953 319.856C64.6013 320.133 64.9969 320.276 65.4097 320.255C65.8224 320.235 66.2026 320.056 66.4803 319.75C66.758 319.444 66.8999 319.049 66.8799 318.635C66.8599 318.223 66.6805 317.843 66.3745 317.566C66.0876 317.305 65.7216 317.164 65.3367 317.164ZM65.333 320.362C64.9222 320.362 64.5315 320.211 64.2251 319.933C63.8985 319.637 63.7069 319.231 63.6856 318.79C63.6415 317.881 64.3456 317.106 65.2551 317.062C65.6958 317.04 66.1182 317.192 66.4448 317.488C66.7714 317.784 66.963 318.19 66.9843 318.631C67.0057 319.071 66.8541 319.494 66.5577 319.82C66.2613 320.147 65.8553 320.338 65.4148 320.36C65.3874 320.361 65.3602 320.362 65.333 320.362Z" fill="white"/>
<path d="M56.0184 321.534H54.2559V321.43H55.9177L56.1265 315.942H54.4584V315.837H56.2351L56.0184 321.534Z" fill="white"/>
<path d="M55.3507 320.686H54.3359V320.582H55.2502L55.3953 316.765H54.417V316.66H55.5039L55.3507 320.686Z" fill="white"/>
<path d="M54.3577 319.589H53.7695L53.8394 317.752H54.3983V317.857H53.94L53.8781 319.485H54.3577V319.589Z" fill="white"/>
<path d="M76.2432 321.483H74.4766L74.7152 315.751H76.4877V315.856H74.8155L74.5855 321.378H76.2432V321.483Z" fill="white"/>
<path d="M76.23 320.629H75.2109L75.3795 316.579H76.4622V316.684H75.4798L75.3199 320.524H76.23V320.629Z" fill="white"/>
<path d="M76.8829 319.526H76.2988V319.421H76.7826L76.8508 317.783H76.3968V317.679H76.9598L76.8829 319.526Z" fill="white"/>
<path d="M54.8574 312.8C54.7325 312.8 54.6109 312.777 54.4961 312.73L54.5353 312.634C54.6375 312.675 54.746 312.696 54.8574 312.696C55.331 312.696 55.7163 312.311 55.7163 311.837C55.7163 311.801 55.7141 311.764 55.7096 311.729L55.8132 311.715C55.8183 311.756 55.8209 311.796 55.8209 311.837C55.8209 312.368 55.3886 312.8 54.8574 312.8Z" fill="white"/>
<path d="M76.2681 312.732C75.7368 312.732 75.3047 312.3 75.3047 311.768C75.3047 311.727 75.3072 311.686 75.3122 311.646L75.4159 311.659C75.4114 311.695 75.4091 311.732 75.4091 311.768C75.4091 312.242 75.7945 312.627 76.2681 312.627C76.3795 312.627 76.4878 312.606 76.5902 312.565L76.6294 312.662C76.5145 312.708 76.3929 312.732 76.2681 312.732Z" fill="white"/>
<path d="M74.8869 325.579C74.8777 325.54 74.8709 325.499 74.8667 325.458C74.8398 325.203 74.9143 324.952 75.0765 324.751C75.2384 324.551 75.4687 324.427 75.7246 324.4C75.849 324.387 75.9722 324.398 76.0912 324.432L76.0623 324.532C75.9563 324.502 75.8464 324.492 75.7355 324.504C75.5073 324.528 75.3021 324.639 75.1576 324.817C75.0132 324.996 74.9467 325.219 74.9706 325.448C74.9744 325.484 74.9804 325.52 74.9886 325.555L74.8869 325.579Z" fill="white"/>
<path d="M55.3334 325.647L55.2316 325.624C55.2397 325.588 55.2458 325.553 55.2496 325.516C55.2989 325.045 54.9557 324.623 54.4847 324.573C54.3739 324.561 54.2639 324.571 54.1578 324.602L54.1289 324.501C54.248 324.467 54.3714 324.456 54.4956 324.469C55.024 324.525 55.4088 324.999 55.3535 325.528C55.3493 325.568 55.3425 325.608 55.3334 325.647Z" fill="white"/>
<path d="M60.5237 325.311L60.2266 327.401L60.5237 325.311Z" fill="white"/>
<path d="M76.9741 321.351C76.9741 322.437 76.6366 323.444 76.0592 324.274C75.5843 324.956 74.9489 325.518 74.2066 325.903C73.501 326.269 72.6977 326.477 71.847 326.477C71.5033 326.477 71.1688 326.444 70.8435 326.379C69.7407 326.161 68.7663 325.589 68.0408 324.785C67.3871 324.061 66.9366 323.15 66.7808 322.141C66.741 321.883 67.0576 321.283 67.0576 321.015C67.0576 320.357 67.0271 319.974 67.1704 319.479C67.2022 319.369 67.1735 319.235 67.2328 319.113C67.8957 317.747 69.1481 316.72 70.6602 316.363C70.6674 316.362 70.6745 316.36 70.6816 316.358C71.0554 316.27 71.4736 316.617 71.8752 316.617C72.424 316.617 72.9226 316.31 73.418 316.469C73.4315 316.473 73.4448 316.478 73.4582 316.482C74.5625 316.848 75.5002 317.577 76.128 318.53C76.6015 319.247 76.8993 320.088 76.9619 320.995C76.9695 321.112 76.9741 321.232 76.9741 321.351Z" fill="white"/>
<path d="M76.9603 320.994L75.5723 319.878L76.1265 318.529C76.5999 319.246 76.8976 320.087 76.9603 320.994Z" fill="#333A43"/>
<path d="M73.4591 316.482L72.0016 317.467L70.6602 316.363C71.0406 316.271 71.4378 316.224 71.8473 316.224C72.4111 316.224 72.9519 316.314 73.4591 316.482Z" fill="#333A43"/>
<path d="M68.0717 320.245L66.7798 322.14C66.7401 321.883 66.7188 321.619 66.7188 321.351C66.7188 320.548 66.9036 319.788 67.2318 319.113L68.0717 320.245Z" fill="#333A43"/>
<path d="M70.8427 326.38C69.7395 326.162 68.7648 325.589 68.0391 324.785L70.0008 324.579L70.8427 326.38Z" fill="#333A43"/>
<path d="M76.0574 324.273C75.5826 324.956 74.9473 325.518 74.2051 325.903L74.4356 324.544L76.0574 324.273Z" fill="#333A43"/>
<path d="M70.5801 323.003L69.7637 320.421L71.9011 318.833L74.0384 320.438L73.222 323.003H70.5801Z" fill="#333A43"/>
<path d="M69.6832 325.132C69.6713 325.132 69.6591 325.129 69.6474 325.124C69.6021 325.104 69.5814 325.051 69.6013 325.006L70.9004 322.033C70.9202 321.987 70.9731 321.966 71.0183 321.986C71.0637 322.006 71.0843 322.059 71.0644 322.104L69.7653 325.078C69.7506 325.112 69.7177 325.132 69.6832 325.132Z" fill="#333A43"/>
<path d="M74.7931 325.19C74.7656 325.19 74.7386 325.177 74.721 325.153L72.7578 322.497C72.7284 322.457 72.7368 322.401 72.7765 322.372C72.8164 322.343 72.8723 322.351 72.9018 322.39L74.865 325.047C74.8943 325.087 74.8859 325.142 74.8462 325.172C74.8302 325.184 74.8115 325.19 74.7931 325.19Z" fill="#333A43"/>
<path d="M73.6384 320.628C73.601 320.628 73.566 320.604 73.5536 320.567C73.5377 320.52 73.5629 320.469 73.6098 320.453L76.2672 319.559C76.3139 319.542 76.3649 319.568 76.3807 319.615C76.3964 319.662 76.3713 319.712 76.3243 319.728L73.667 320.623C73.6575 320.627 73.6479 320.628 73.6384 320.628Z" fill="#333A43"/>
<path d="M71.8201 319.472C71.817 319.472 71.8138 319.472 71.8106 319.472C71.7614 319.467 71.7258 319.423 71.731 319.373L71.9908 316.891C71.9959 316.842 72.0394 316.805 72.089 316.811C72.1383 316.816 72.1739 316.86 72.1688 316.909L71.9089 319.392C71.9042 319.438 71.8653 319.472 71.8201 319.472Z" fill="#333A43"/>
<path d="M70.4335 320.685C70.43 320.685 70.4265 320.685 70.4229 320.685L67.2178 320.309C67.1687 320.304 67.1335 320.259 67.1393 320.21C67.1451 320.161 67.1895 320.125 67.2387 320.132L70.4438 320.507C70.4928 320.513 70.528 320.557 70.5223 320.606C70.5169 320.652 70.4783 320.685 70.4335 320.685Z" fill="#333A43"/>
<path d="M71.9009 316.334C69.1411 316.334 66.8959 318.579 66.8959 321.338C66.8959 324.098 69.1411 326.343 71.9009 326.343C74.6606 326.343 76.9058 324.098 76.9058 321.338C76.9058 318.579 74.6606 316.334 71.9009 316.334ZM71.9009 326.535C69.0348 326.535 66.7031 324.204 66.7031 321.338C66.7031 318.473 69.0348 316.142 71.9009 316.142C74.7669 316.142 77.0985 318.473 77.0985 321.338C77.0985 324.204 74.7669 326.535 71.9009 326.535Z" fill="#333A43"/>
<path d="M66.0422 312.782C66.0151 312.782 65.9922 312.761 65.9902 312.734C65.988 312.705 66.0096 312.68 66.0383 312.678C66.1808 312.667 66.3224 312.661 66.4593 312.659C66.4595 312.659 66.4597 312.659 66.4599 312.659C66.4885 312.659 66.5118 312.682 66.5122 312.71C66.5125 312.74 66.4895 312.763 66.4606 312.764C66.3259 312.766 66.1865 312.772 66.0462 312.782C66.0448 312.782 66.0435 312.782 66.0422 312.782ZM67.2942 312.812C67.2918 312.812 67.2894 312.812 67.2871 312.812C67.153 312.793 67.0143 312.78 66.875 312.773C66.8461 312.771 66.824 312.746 66.8257 312.717C66.8274 312.689 66.8525 312.667 66.8809 312.668C67.0229 312.677 67.1642 312.689 67.301 312.708C67.3297 312.712 67.3497 312.738 67.3459 312.767C67.3423 312.793 67.3199 312.812 67.2942 312.812ZM65.213 312.889C65.1883 312.889 65.1662 312.871 65.1617 312.845C65.1566 312.817 65.1756 312.79 65.204 312.785C65.3452 312.76 65.4851 312.738 65.6197 312.721C65.6484 312.717 65.6745 312.737 65.6782 312.766C65.6819 312.794 65.6617 312.821 65.6331 312.825C65.5001 312.842 65.3619 312.863 65.2223 312.888C65.2192 312.889 65.2161 312.889 65.213 312.889ZM68.1087 312.996C68.1033 312.996 68.0979 312.995 68.0925 312.993C67.9632 312.952 67.8292 312.915 67.6941 312.884C67.6658 312.878 67.6481 312.85 67.6546 312.822C67.6609 312.794 67.6888 312.776 67.717 312.782C67.8553 312.814 67.9925 312.851 68.1248 312.894C68.1522 312.903 68.1673 312.933 68.1584 312.96C68.1512 312.982 68.1307 312.996 68.1087 312.996ZM64.3961 313.067C64.3728 313.067 64.3516 313.051 64.3455 313.027C64.3384 313 64.3552 312.971 64.3832 312.963C64.4886 312.937 64.596 312.91 64.7023 312.887C64.7321 312.88 64.762 312.873 64.7919 312.867C64.82 312.861 64.848 312.878 64.8541 312.907C64.8603 312.935 64.8423 312.962 64.8142 312.969C64.7845 312.975 64.7549 312.982 64.7253 312.988C64.62 313.013 64.5136 313.039 64.4092 313.065C64.4049 313.066 64.4005 313.067 64.3961 313.067ZM63.5942 313.304C63.5724 313.304 63.552 313.29 63.5447 313.268C63.5355 313.24 63.5502 313.211 63.5776 313.201C63.7091 313.157 63.8439 313.115 63.9782 313.075C64.006 313.067 64.035 313.083 64.0431 313.11C64.0514 313.138 64.0355 313.168 64.0079 313.175C63.8747 313.215 63.7411 313.257 63.6108 313.3C63.6054 313.303 63.5998 313.304 63.5942 313.304ZM68.8733 313.331C68.8646 313.331 68.8556 313.329 68.8475 313.324C68.7299 313.258 68.6058 313.195 68.4786 313.14C68.4521 313.129 68.4401 313.097 68.4516 313.071C68.4632 313.045 68.494 313.032 68.5205 313.044C68.651 313.101 68.7785 313.165 68.8992 313.233C68.9243 313.248 68.9331 313.28 68.9188 313.305C68.9092 313.322 68.8915 313.331 68.8733 313.331ZM62.8124 313.6C62.7921 313.6 62.7727 313.588 62.7643 313.568C62.7531 313.541 62.7654 313.511 62.792 313.499C62.9199 313.445 63.0511 313.392 63.182 313.343C63.209 313.332 63.2391 313.346 63.2493 313.373C63.2596 313.4 63.246 313.43 63.2189 313.44C63.0893 313.489 62.9595 313.542 62.8328 313.595C62.8262 313.598 62.8192 313.6 62.8124 313.6ZM69.5456 313.825C69.5328 313.825 69.5199 313.821 69.5098 313.811C69.4116 313.718 69.3052 313.63 69.1934 313.548C69.1701 313.531 69.1651 313.498 69.1821 313.475C69.1992 313.452 69.2319 313.446 69.2552 313.464C69.3705 313.548 69.4802 313.64 69.5815 313.735C69.6025 313.755 69.6035 313.788 69.5837 313.809C69.5734 313.82 69.5596 313.825 69.5456 313.825ZM62.0568 313.957C62.038 313.957 62.0198 313.947 62.0105 313.929C61.9971 313.904 62.0069 313.872 62.0325 313.859C62.1555 313.794 62.2821 313.731 62.4085 313.671C62.4346 313.659 62.4658 313.67 62.4781 313.696C62.4905 313.722 62.4793 313.753 62.4532 313.765C62.3281 313.824 62.2029 313.887 62.0811 313.951C62.0733 313.955 62.065 313.957 62.0568 313.957ZM61.3344 314.378C61.3173 314.378 61.3005 314.369 61.2904 314.353C61.2748 314.329 61.2819 314.297 61.3061 314.281C61.4224 314.207 61.543 314.132 61.6646 314.061C61.6895 314.048 61.7216 314.055 61.7361 314.081C61.7506 314.106 61.7422 314.138 61.7172 314.152C61.5969 314.223 61.4776 314.295 61.3627 314.37C61.3539 314.375 61.3441 314.378 61.3344 314.378ZM70.9649 314.413C70.9621 314.413 70.9592 314.412 70.9564 314.412C70.8218 314.39 70.6839 314.374 70.5464 314.365C70.5175 314.364 70.4956 314.339 70.4975 314.31C70.4992 314.281 70.5242 314.259 70.5529 314.261C70.694 314.27 70.8355 314.286 70.9735 314.309C71.002 314.314 71.0213 314.341 71.0165 314.369C71.0122 314.395 70.9901 314.413 70.9649 314.413ZM70.0602 314.48C70.0418 314.48 70.0239 314.47 70.0144 314.453C69.9992 314.425 69.9835 314.398 69.9672 314.371C69.8837 314.378 69.8025 314.388 69.7245 314.402C69.696 314.405 69.6691 314.387 69.6643 314.359C69.6596 314.33 69.6787 314.303 69.7072 314.298C69.771 314.288 69.8369 314.279 69.9042 314.271C69.8678 314.217 69.829 314.164 69.788 314.113C69.7702 314.09 69.774 314.056 69.7967 314.039C69.8193 314.021 69.8522 314.025 69.8701 314.048C69.9247 314.116 69.9757 314.188 70.0224 314.262C70.0579 314.259 70.0936 314.257 70.1297 314.255C70.1589 314.255 70.1828 314.277 70.1839 314.306C70.185 314.335 70.1626 314.359 70.1338 314.36C70.117 314.361 70.1002 314.362 70.0836 314.362C70.0911 314.376 70.0987 314.389 70.106 314.403C70.1199 314.428 70.1106 314.46 70.0853 314.474C70.0774 314.478 70.0687 314.48 70.0602 314.48ZM71.7688 314.637C71.7622 314.637 71.7555 314.637 71.7491 314.634C71.6238 314.583 71.4925 314.539 71.359 314.501C71.3312 314.494 71.3149 314.465 71.3227 314.437C71.3304 314.409 71.3594 314.392 71.3871 314.4C71.5244 314.439 71.6594 314.485 71.7884 314.537C71.8151 314.547 71.828 314.579 71.8172 314.605C71.809 314.625 71.7894 314.637 71.7688 314.637ZM68.9346 314.684C68.9173 314.684 68.9003 314.676 68.8904 314.66C68.875 314.636 68.8822 314.604 68.9066 314.588C69.0221 314.514 69.1523 314.452 69.2936 314.403C69.3209 314.393 69.3507 314.408 69.3602 314.435C69.3698 314.462 69.3555 314.492 69.3282 314.501C69.1944 314.548 69.0714 314.607 68.9625 314.676C68.9539 314.682 68.9442 314.684 68.9346 314.684ZM60.6535 314.863C60.6381 314.863 60.6228 314.856 60.6124 314.843C60.5946 314.82 60.5985 314.787 60.6211 314.769C60.7303 314.683 60.8436 314.598 60.958 314.517C60.9814 314.501 61.0141 314.506 61.0308 314.529C61.0475 314.553 61.0421 314.585 61.0185 314.603C60.9055 314.682 60.7936 314.767 60.6859 314.851C60.6762 314.859 60.6649 314.863 60.6535 314.863ZM72.4964 315.045C72.4856 315.045 72.4746 315.041 72.4652 315.034C72.3572 314.954 72.2412 314.879 72.1202 314.812C72.0951 314.797 72.086 314.766 72.1001 314.74C72.1141 314.715 72.1459 314.706 72.1712 314.721C72.2961 314.79 72.4161 314.867 72.5278 314.951C72.5509 314.968 72.5556 315 72.5384 315.024C72.5281 315.038 72.5124 315.045 72.4964 315.045ZM70.3087 315.271C70.2816 315.271 70.2587 315.252 70.2566 315.224C70.2466 315.094 70.2198 314.961 70.1767 314.827C70.1679 314.799 70.183 314.77 70.2104 314.761C70.2378 314.753 70.2673 314.767 70.2762 314.795C70.3217 314.936 70.3502 315.077 70.3608 315.216C70.3631 315.245 70.3415 315.27 70.3127 315.271C70.3113 315.271 70.31 315.271 70.3087 315.271ZM68.407 315.313C68.4009 315.313 68.3946 315.312 68.3885 315.31C68.3616 315.299 68.3479 315.27 68.3581 315.243C68.4108 315.103 68.4847 314.977 68.5777 314.869C68.5964 314.846 68.6293 314.844 68.6513 314.863C68.6733 314.881 68.6759 314.914 68.6572 314.936C68.5732 315.034 68.5037 315.154 68.4559 315.279C68.4481 315.3 68.4281 315.313 68.407 315.313ZM60.0233 315.412C60.0096 315.412 59.996 315.407 59.9857 315.395C59.9657 315.375 59.9662 315.342 59.9869 315.322C60.0263 315.284 60.0659 315.246 60.1059 315.209C60.1684 315.151 60.2328 315.093 60.2972 315.038C60.3189 315.019 60.3519 315.02 60.3709 315.043C60.3898 315.064 60.3876 315.097 60.3658 315.116C60.3022 315.172 60.2387 315.229 60.1769 315.286C60.1375 315.323 60.0983 315.36 60.0596 315.397C60.0495 315.407 60.0364 315.412 60.0233 315.412ZM73.0833 315.636C73.0671 315.636 73.051 315.628 73.0409 315.614C72.9653 315.51 72.8819 315.411 72.7931 315.321L72.7756 315.303C72.7552 315.283 72.7551 315.25 72.7756 315.229C72.7958 315.208 72.829 315.208 72.8495 315.229L72.8677 315.247C72.9602 315.342 73.0471 315.444 73.1256 315.553C73.1425 315.576 73.1372 315.609 73.1138 315.626C73.1046 315.633 73.0939 315.636 73.0833 315.636ZM59.4544 316.024C59.4426 316.024 59.4307 316.02 59.4209 316.012C59.3987 315.994 59.3958 315.961 59.4142 315.938C59.5037 315.831 59.5973 315.724 59.6923 315.622C59.712 315.601 59.745 315.6 59.7662 315.62C59.7874 315.64 59.7886 315.672 59.7689 315.693C59.6752 315.795 59.5828 315.899 59.4945 316.005C59.4842 316.017 59.4693 316.024 59.4544 316.024ZM70.1255 316.073C70.1156 316.073 70.1056 316.069 70.0967 316.064C70.0726 316.048 70.066 316.015 70.082 315.991C70.1234 315.929 70.1571 315.863 70.1817 315.795C70.202 315.74 70.2186 315.683 70.2312 315.624C70.2372 315.596 70.2652 315.578 70.2932 315.584C70.3215 315.59 70.3394 315.618 70.3333 315.646C70.3198 315.71 70.3018 315.771 70.2799 315.831C70.2523 315.906 70.2151 315.98 70.1691 316.049C70.159 316.064 70.1425 316.073 70.1255 316.073ZM68.4051 316.129C68.385 316.129 68.3659 316.118 68.3572 316.098C68.3025 315.973 68.2749 315.835 68.2749 315.688L68.275 315.668C68.2755 315.64 68.2976 315.616 68.3282 315.617C68.357 315.618 68.38 315.641 68.3795 315.67L68.3794 315.688C68.3794 315.821 68.4041 315.944 68.4529 316.055C68.4645 316.082 68.4526 316.113 68.4261 316.125C68.4193 316.128 68.4121 316.129 68.4051 316.129ZM73.4607 316.378C73.4386 316.378 73.4182 316.365 73.411 316.342C73.3688 316.214 73.316 316.086 73.2541 315.964C73.241 315.938 73.2512 315.907 73.277 315.894C73.3027 315.88 73.3342 315.891 73.3472 315.917C73.4117 316.043 73.4666 316.176 73.5103 316.31C73.5193 316.338 73.5044 316.367 73.4769 316.376C73.4715 316.378 73.4661 316.378 73.4607 316.378ZM69.4626 316.556C69.4401 316.556 69.4193 316.541 69.4126 316.519C69.4043 316.49 69.4199 316.462 69.4476 316.453C69.5734 316.416 69.697 316.354 69.8052 316.276C69.8286 316.259 69.8612 316.264 69.8781 316.288C69.895 316.312 69.8897 316.344 69.8663 316.361C69.7488 316.445 69.6144 316.512 69.4776 316.553C69.4726 316.555 69.4676 316.556 69.4626 316.556ZM69.0494 316.598C69.0476 316.598 69.0457 316.598 69.0438 316.598C68.8889 316.581 68.7503 316.529 68.6317 316.442C68.6084 316.425 68.6033 316.392 68.6203 316.369C68.6373 316.345 68.67 316.34 68.6933 316.358C68.7968 316.433 68.9185 316.479 69.0549 316.494C69.0836 316.497 69.1044 316.522 69.1013 316.551C69.0985 316.578 69.0758 316.598 69.0494 316.598ZM58.9549 316.695C58.9451 316.695 58.935 316.691 58.9261 316.686C58.9021 316.669 58.8955 316.637 58.9115 316.613C58.9886 316.497 59.0701 316.381 59.1536 316.268C59.1709 316.246 59.2036 316.241 59.2268 316.258C59.2499 316.275 59.2547 316.308 59.2374 316.332C59.155 316.442 59.0747 316.556 58.9986 316.671C58.9885 316.686 58.9719 316.695 58.9549 316.695ZM73.5873 317.201C73.5869 317.201 73.5866 317.201 73.5863 317.201C73.5574 317.2 73.5344 317.177 73.5349 317.148C73.5352 317.134 73.5354 317.12 73.5354 317.106C73.5354 316.986 73.5257 316.863 73.5066 316.74C73.5022 316.712 73.5217 316.685 73.5502 316.681C73.5788 316.676 73.6055 316.696 73.6099 316.724C73.6298 316.852 73.6398 316.98 73.6398 317.106C73.6398 317.121 73.6398 317.135 73.6395 317.15C73.639 317.179 73.6157 317.201 73.5873 317.201ZM58.5331 317.416C58.5251 317.416 58.517 317.413 58.5094 317.41C58.4837 317.397 58.4735 317.365 58.4865 317.34C58.5499 317.216 58.6178 317.091 58.6887 316.97C58.7033 316.946 58.7353 316.937 58.7602 316.952C58.7852 316.966 58.7936 316.999 58.779 317.023C58.7091 317.142 58.642 317.265 58.5797 317.387C58.5705 317.406 58.5521 317.416 58.5331 317.416ZM58.1979 318.181C58.1919 318.181 58.1859 318.18 58.1799 318.178C58.1528 318.168 58.1389 318.138 58.1489 318.111C58.1969 317.98 58.2498 317.849 58.3062 317.72C58.3178 317.694 58.3485 317.682 58.3751 317.693C58.4015 317.704 58.4135 317.736 58.4019 317.762C58.3464 317.889 58.2942 318.018 58.2469 318.147C58.2392 318.168 58.2192 318.181 58.1979 318.181ZM57.9594 318.982C57.9556 318.982 57.9516 318.981 57.9477 318.98C57.9196 318.974 57.9021 318.946 57.9085 318.918C57.9395 318.783 57.9756 318.645 58.0158 318.511C58.0241 318.483 58.0531 318.467 58.0809 318.475C58.1085 318.483 58.1243 318.513 58.116 318.54C58.0765 318.673 58.0408 318.808 58.0104 318.941C58.0048 318.966 57.9833 318.982 57.9594 318.982ZM57.8277 319.807C57.8262 319.807 57.8245 319.807 57.823 319.807C57.7942 319.804 57.7731 319.779 57.7756 319.75C57.7882 319.611 57.8058 319.471 57.828 319.332C57.8326 319.303 57.8594 319.283 57.8879 319.289C57.9164 319.293 57.9358 319.32 57.9312 319.348C57.9093 319.484 57.8921 319.623 57.8797 319.759C57.8773 319.787 57.8545 319.807 57.8277 319.807Z" fill="#FEC99E"/>
<path d="M531.895 343.425H64.1044C61.473 343.425 59.3398 345.558 59.3398 348.189V372.441C59.3398 375.072 61.473 377.204 64.1044 377.204H531.895C534.527 377.204 536.66 375.072 536.66 372.441V348.189C536.66 345.558 534.527 343.425 531.895 343.425Z" fill="white" stroke="#DFDFDF"/>
<path d="M206.174 358.717H109.151C108.194 358.717 107.418 359.314 107.418 360.05V361.383C107.418 362.12 108.194 362.717 109.151 362.717H206.174C207.131 362.717 207.906 362.12 207.906 361.383V360.05C207.906 359.314 207.131 358.717 206.174 358.717Z" fill="#DFDFDF"/>
<path d="M329.5 358.717H256.733C255.776 358.717 255 359.314 255 360.05V361.383C255 362.12 255.776 362.717 256.733 362.717H329.5C330.457 362.717 331.232 362.12 331.232 361.383V360.05C331.232 359.314 330.457 358.717 329.5 358.717Z" fill="#DFDFDF"/>
<path d="M432.709 358.717H380.733C379.776 358.717 379 359.314 379 360.05V361.383C379 362.12 379.776 362.717 380.733 362.717H432.709C433.666 362.717 434.442 362.12 434.442 361.383V360.05C434.442 359.314 433.666 358.717 432.709 358.717Z" fill="#DFDFDF"/>
<path d="M514.919 358.717H483.733C482.776 358.717 482 359.314 482 360.05V361.383C482 362.12 482.776 362.717 483.733 362.717H514.919C515.875 362.717 516.651 362.12 516.651 361.383V360.05C516.651 359.314 515.875 358.717 514.919 358.717Z" fill="#DFDFDF"/>
<path d="M88.3606 351.653H74.5001C73.5433 351.653 72.7676 352.429 72.7676 353.386V367.244C72.7676 368.201 73.5433 368.976 74.5001 368.976H88.3606C89.3175 368.976 90.0932 368.201 90.0932 367.244V353.386C90.0932 352.429 89.3175 351.653 88.3606 351.653Z" fill="#DFDFDF"/>
<path d="M244.292 66.2598H53.7101C49.165 66.2598 45.4805 69.9437 45.4805 74.4881V195.748C45.4805 200.292 49.165 203.976 53.7101 203.976H244.292C248.837 203.976 252.521 200.292 252.521 195.748V74.4881C252.521 69.9437 248.837 66.2598 244.292 66.2598Z" fill="white" stroke="#DFDFDF"/>
<path d="M194.714 183.223C215.655 183.223 232.631 166.25 232.631 145.312C232.631 124.375 215.655 107.401 194.714 107.401C173.773 107.401 156.797 124.375 156.797 145.312C156.797 166.25 173.773 183.223 194.714 183.223Z" stroke="#EBF0FC" stroke-width="16"/>
<path d="M176.913 178.786C169.303 174.741 163.298 168.223 159.89 160.308C156.48 152.393 155.869 143.554 158.159 135.245C160.447 126.937 165.499 119.657 172.481 114.604C179.462 109.55 187.958 107.026 196.566 107.447" stroke="#FFF4E9" stroke-width="16" stroke-linejoin="round"/>
<path d="M194.717 107.401C201.709 107.401 208.566 109.335 214.528 112.988C220.49 116.641 225.327 121.872 228.501 128.101C231.676 134.331 233.065 141.317 232.517 148.287C231.969 155.257 229.502 161.94 225.393 167.596" stroke="#FEC99E" stroke-width="16" stroke-linejoin="round"/>
<path d="M225.388 167.597C219.96 175.065 211.995 180.298 202.984 182.311C193.973 184.324 184.536 182.982 176.445 178.534" stroke="#FFB03D" stroke-width="16" stroke-linejoin="round"/>
<g filter="url(#filter2_d)">
<g filter="url(#filter3_d)">
<path d="M226.192 166.176C223.609 170.309 220.237 173.893 216.268 176.723C212.3 179.553 207.813 181.574 203.063 182.671C198.314 183.767 193.394 183.917 188.587 183.113C183.779 182.309 179.177 180.565 175.043 177.982" stroke="#FB9946" stroke-width="20" stroke-linejoin="round"/>
</g>
</g>
<path d="M181.316 147.708L180.942 146.465H179.067L178.693 147.708H178.004L179.591 142.759H180.454L182.034 147.708H181.316ZM179.232 145.912H180.777L180.008 143.326L179.232 145.912ZM185.942 144.094C185.799 144.142 185.641 144.173 185.468 144.188C185.295 144.203 185.085 144.21 184.836 144.21C185.282 144.411 185.504 144.729 185.504 145.165C185.504 145.543 185.375 145.852 185.116 146.092C184.858 146.331 184.505 146.45 184.06 146.45C183.888 146.45 183.727 146.427 183.578 146.378C183.521 146.417 183.475 146.469 183.442 146.537C183.409 146.599 183.392 146.663 183.392 146.731C183.392 146.936 183.557 147.039 183.888 147.039H184.491C184.745 147.039 184.97 147.085 185.166 147.176C185.363 147.267 185.514 147.392 185.619 147.549C185.729 147.708 185.784 147.887 185.784 148.088C185.784 148.457 185.633 148.74 185.332 148.936C185.03 149.137 184.589 149.238 184.01 149.238C183.603 149.238 183.28 149.194 183.04 149.108C182.805 149.027 182.638 148.902 182.537 148.735C182.437 148.567 182.386 148.351 182.386 148.088H182.982C182.982 148.241 183.011 148.361 183.069 148.448C183.126 148.539 183.229 148.605 183.377 148.649C183.526 148.696 183.737 148.72 184.01 148.72C184.407 148.72 184.69 148.67 184.858 148.57C185.03 148.474 185.116 148.328 185.116 148.131C185.116 147.954 185.049 147.821 184.915 147.73C184.781 147.638 184.594 147.593 184.355 147.593H183.759C183.437 147.593 183.193 147.526 183.026 147.392C182.863 147.252 182.781 147.08 182.781 146.875C182.781 146.75 182.817 146.63 182.889 146.515C182.961 146.4 183.064 146.297 183.198 146.206C182.977 146.092 182.814 145.951 182.71 145.782C182.609 145.61 182.559 145.401 182.559 145.158C182.559 144.903 182.621 144.676 182.745 144.475C182.875 144.274 183.049 144.119 183.27 144.009C183.495 143.893 183.744 143.836 184.017 143.836C184.314 143.841 184.563 143.831 184.764 143.807C184.965 143.778 185.131 143.743 185.26 143.699C185.394 143.652 185.557 143.584 185.748 143.498L185.942 144.094ZM184.017 144.31C183.768 144.31 183.574 144.389 183.435 144.547C183.301 144.701 183.234 144.903 183.234 145.158C183.234 145.416 183.303 145.625 183.442 145.782C183.581 145.936 183.778 146.012 184.031 146.012C184.29 146.012 184.486 145.938 184.621 145.789C184.759 145.636 184.828 145.423 184.828 145.15C184.828 144.59 184.558 144.31 184.017 144.31ZM189.496 145.704C189.496 145.814 189.492 145.926 189.482 146.041H187.068C187.096 146.458 187.202 146.764 187.384 146.96C187.566 147.157 187.801 147.255 188.088 147.255C188.27 147.255 188.438 147.229 188.591 147.176C188.744 147.123 188.905 147.039 189.072 146.925L189.36 147.32C188.957 147.636 188.517 147.794 188.038 147.794C187.511 147.794 187.099 147.621 186.802 147.277C186.51 146.932 186.364 146.458 186.364 145.854C186.364 145.462 186.426 145.115 186.551 144.812C186.68 144.507 186.862 144.267 187.096 144.094C187.336 143.922 187.616 143.836 187.938 143.836C188.44 143.836 188.825 144.001 189.094 144.332C189.363 144.662 189.496 145.119 189.496 145.704ZM188.843 145.51C188.843 145.136 188.768 144.851 188.62 144.655C188.471 144.458 188.249 144.36 187.951 144.36C187.411 144.36 187.116 144.758 187.068 145.553H188.843V145.51ZM195.762 144.094C195.619 144.142 195.46 144.173 195.288 144.188C195.116 144.203 194.905 144.21 194.656 144.21C195.101 144.411 195.323 144.729 195.323 145.165C195.323 145.543 195.194 145.852 194.936 146.092C194.677 146.331 194.325 146.45 193.88 146.45C193.707 146.45 193.547 146.427 193.399 146.378C193.341 146.417 193.295 146.469 193.262 146.537C193.229 146.599 193.211 146.663 193.211 146.731C193.211 146.936 193.377 147.039 193.707 147.039H194.311C194.565 147.039 194.79 147.085 194.986 147.176C195.182 147.267 195.334 147.392 195.439 147.549C195.549 147.708 195.604 147.887 195.604 148.088C195.604 148.457 195.453 148.74 195.151 148.936C194.85 149.137 194.409 149.238 193.829 149.238C193.423 149.238 193.099 149.194 192.86 149.108C192.625 149.027 192.457 148.902 192.356 148.735C192.256 148.567 192.206 148.351 192.206 148.088H192.803C192.803 148.241 192.831 148.361 192.888 148.448C192.945 148.539 193.049 148.605 193.198 148.649C193.346 148.696 193.556 148.72 193.829 148.72C194.227 148.72 194.51 148.67 194.677 148.57C194.85 148.474 194.936 148.328 194.936 148.131C194.936 147.954 194.869 147.821 194.734 147.73C194.601 147.638 194.414 147.593 194.175 147.593H193.578C193.257 147.593 193.013 147.526 192.845 147.392C192.682 147.252 192.601 147.08 192.601 146.875C192.601 146.75 192.637 146.63 192.709 146.515C192.781 146.4 192.884 146.297 193.017 146.206C192.797 146.092 192.634 145.951 192.529 145.782C192.428 145.61 192.378 145.401 192.378 145.158C192.378 144.903 192.44 144.676 192.565 144.475C192.694 144.274 192.869 144.119 193.089 144.009C193.315 143.893 193.564 143.836 193.837 143.836C194.134 143.841 194.383 143.831 194.584 143.807C194.785 143.778 194.95 143.743 195.08 143.699C195.213 143.652 195.376 143.584 195.568 143.498L195.762 144.094ZM193.837 144.31C193.587 144.31 193.393 144.389 193.255 144.547C193.12 144.701 193.054 144.903 193.054 145.158C193.054 145.416 193.123 145.625 193.262 145.782C193.401 145.936 193.597 146.012 193.851 146.012C194.11 146.012 194.306 145.938 194.44 145.789C194.579 145.636 194.649 145.423 194.649 145.15C194.649 144.59 194.378 144.31 193.837 144.31ZM198.214 143.836C198.348 143.836 198.472 143.85 198.588 143.879L198.465 144.526C198.35 144.497 198.24 144.482 198.134 144.482C197.901 144.482 197.711 144.568 197.567 144.741C197.423 144.914 197.311 145.181 197.23 145.545V147.708H196.569V143.922H197.137L197.201 144.69C197.301 144.408 197.438 144.195 197.61 144.051C197.783 143.907 197.984 143.836 198.214 143.836ZM200.673 143.836C201.205 143.836 201.616 144.013 201.909 144.367C202.206 144.721 202.354 145.203 202.354 145.811C202.354 146.204 202.287 146.551 202.153 146.853C202.019 147.15 201.825 147.382 201.571 147.549C201.317 147.712 201.016 147.794 200.666 147.794C200.134 147.794 199.72 147.617 199.423 147.262C199.126 146.908 198.977 146.427 198.977 145.818C198.977 145.426 199.044 145.081 199.178 144.784C199.313 144.482 199.507 144.25 199.761 144.087C200.014 143.919 200.318 143.836 200.673 143.836ZM200.673 144.367C200.017 144.367 199.689 144.851 199.689 145.818C199.689 146.781 200.014 147.262 200.666 147.262C201.317 147.262 201.643 146.779 201.643 145.811C201.643 144.849 201.32 144.367 200.673 144.367ZM206.389 147.708H205.822L205.772 147.119C205.628 147.353 205.463 147.526 205.276 147.636C205.089 147.741 204.862 147.794 204.593 147.794C204.263 147.794 204.004 147.693 203.817 147.492C203.631 147.291 203.537 147.006 203.537 146.637V143.922H204.198V146.565C204.198 146.824 204.244 147.008 204.335 147.119C204.426 147.224 204.574 147.277 204.781 147.277C205.149 147.277 205.465 147.058 205.728 146.623V143.922H206.389V147.708ZM209.621 143.836C210.105 143.836 210.46 144.009 210.684 144.353C210.91 144.698 211.022 145.184 211.022 145.811C211.022 146.405 210.893 146.884 210.634 147.248C210.376 147.612 210.009 147.794 209.536 147.794C209.114 147.794 208.783 147.65 208.544 147.363V149.159L207.883 149.238V143.922H208.45L208.5 144.432C208.64 144.241 208.807 144.094 209.004 143.994C209.2 143.888 209.406 143.836 209.621 143.836ZM209.377 147.255C210 147.255 210.311 146.774 210.311 145.811C210.311 144.844 210.026 144.36 209.456 144.36C209.27 144.36 209.099 144.416 208.946 144.526C208.793 144.636 208.659 144.777 208.544 144.949V146.795C208.64 146.944 208.759 147.058 208.903 147.14C209.047 147.217 209.205 147.255 209.377 147.255Z" fill="#23282E"/>
<g filter="url(#filter4_d)">
<path fill-rule="evenodd" clip-rule="evenodd" d="M182.339 155.686C181.457 155.686 180.742 156.4 180.742 157.282V175.24C180.742 176.121 181.457 176.836 182.339 176.836H198.571L200.299 179.23L202.028 176.836H218.26C219.142 176.836 219.856 176.121 219.856 175.24V157.282C219.856 156.4 219.142 155.686 218.26 155.686H182.339Z" fill="#23282E"/>
</g>
<path opacity="0.8" d="M186.173 163.669L185.924 162.84H184.673L184.425 163.669H183.965L185.023 160.37H185.598L186.652 163.669H186.173ZM184.783 162.472H185.813L185.302 160.748L184.783 162.472ZM189.3 161.261C189.204 161.293 189.098 161.313 188.984 161.323C188.869 161.332 188.729 161.337 188.562 161.337C188.859 161.471 189.007 161.683 189.007 161.974C189.007 162.226 188.922 162.432 188.749 162.592C188.577 162.751 188.342 162.831 188.045 162.831C187.93 162.831 187.823 162.815 187.725 162.783C187.686 162.809 187.655 162.844 187.634 162.889C187.611 162.93 187.6 162.973 187.6 163.018C187.6 163.155 187.71 163.224 187.93 163.224H188.333C188.502 163.224 188.651 163.254 188.782 163.315C188.914 163.376 189.014 163.459 189.085 163.564C189.158 163.669 189.195 163.789 189.195 163.923C189.195 164.169 189.094 164.357 188.893 164.488C188.691 164.622 188.398 164.69 188.011 164.69C187.74 164.69 187.524 164.66 187.365 164.603C187.208 164.548 187.096 164.466 187.03 164.354C186.963 164.243 186.929 164.099 186.929 163.923H187.327C187.327 164.025 187.346 164.105 187.384 164.162C187.422 164.223 187.491 164.268 187.59 164.296C187.689 164.328 187.829 164.344 188.011 164.344C188.276 164.344 188.465 164.311 188.577 164.243C188.691 164.18 188.749 164.082 188.749 163.952C188.749 163.834 188.704 163.745 188.615 163.683C188.526 163.622 188.401 163.592 188.242 163.592H187.844C187.63 163.592 187.467 163.548 187.355 163.459C187.247 163.366 187.193 163.251 187.193 163.114C187.193 163.031 187.217 162.951 187.265 162.874C187.312 162.798 187.381 162.729 187.471 162.668C187.323 162.592 187.215 162.497 187.145 162.386C187.077 162.27 187.044 162.132 187.044 161.969C187.044 161.8 187.085 161.649 187.168 161.514C187.255 161.38 187.371 161.276 187.518 161.203C187.668 161.126 187.835 161.088 188.016 161.088C188.214 161.092 188.38 161.085 188.515 161.069C188.649 161.05 188.759 161.026 188.845 160.997C188.935 160.965 189.043 160.92 189.17 160.863L189.3 161.261ZM188.016 161.404C187.85 161.404 187.721 161.457 187.628 161.562C187.539 161.664 187.494 161.8 187.494 161.969C187.494 162.141 187.541 162.281 187.634 162.386C187.725 162.488 187.857 162.539 188.026 162.539C188.198 162.539 188.329 162.49 188.418 162.391C188.511 162.289 188.558 162.147 188.558 161.965C188.558 161.59 188.377 161.404 188.016 161.404ZM191.712 162.333C191.712 162.406 191.709 162.482 191.702 162.558H190.093C190.112 162.836 190.182 163.04 190.303 163.171C190.425 163.302 190.581 163.368 190.773 163.368C190.894 163.368 191.006 163.35 191.108 163.315C191.21 163.279 191.318 163.224 191.43 163.147L191.621 163.41C191.352 163.622 191.059 163.726 190.74 163.726C190.388 163.726 190.114 163.612 189.915 163.382C189.721 163.152 189.623 162.836 189.623 162.433C189.623 162.172 189.665 161.94 189.748 161.739C189.834 161.535 189.956 161.376 190.112 161.261C190.271 161.145 190.458 161.088 190.672 161.088C191.008 161.088 191.265 161.198 191.443 161.418C191.623 161.639 191.712 161.944 191.712 162.333ZM191.276 162.204C191.276 161.955 191.227 161.765 191.127 161.634C191.028 161.503 190.88 161.437 190.682 161.437C190.322 161.437 190.125 161.702 190.093 162.232H191.276V162.204ZM193.771 162.357V161.984H195.127V162.357H193.771ZM199.342 162.529V162.879H198.925V163.669H198.499V162.879H197.13V162.563L198.092 160.418L198.461 160.571L197.594 162.529H198.504L198.543 161.668H198.925V162.529H199.342ZM200.952 160.418C201.306 160.418 201.572 160.56 201.751 160.844C201.933 161.125 202.024 161.533 202.024 162.069C202.024 162.606 201.933 163.016 201.751 163.3C201.572 163.584 201.306 163.726 200.952 163.726C200.597 163.726 200.329 163.584 200.147 163.3C199.968 163.016 199.878 162.606 199.878 162.069C199.878 161.533 199.968 161.125 200.147 160.844C200.329 160.56 200.597 160.418 200.952 160.418ZM200.952 160.767C200.744 160.767 200.589 160.869 200.487 161.073C200.388 161.278 200.338 161.61 200.338 162.069C200.338 162.529 200.388 162.863 200.487 163.071C200.589 163.275 200.744 163.377 200.952 163.377C201.155 163.377 201.309 163.275 201.411 163.071C201.513 162.863 201.564 162.529 201.564 162.069C201.564 161.613 201.513 161.283 201.411 161.079C201.309 160.871 201.155 160.767 200.952 160.767ZM205.538 163.554C205.371 163.669 205.183 163.726 204.972 163.726C204.758 163.726 204.591 163.666 204.47 163.545C204.352 163.42 204.292 163.241 204.292 163.008V161.486H203.852V161.145H204.292V160.575L204.733 160.523V161.145H205.332L205.284 161.486H204.733V162.989C204.733 163.12 204.756 163.215 204.8 163.277C204.848 163.334 204.926 163.363 205.034 163.363C205.134 163.363 205.246 163.329 205.37 163.262L205.538 163.554ZM207 161.088C207.354 161.088 207.629 161.206 207.824 161.442C208.021 161.679 208.121 161.999 208.121 162.405C208.121 162.667 208.076 162.898 207.987 163.099C207.898 163.297 207.768 163.452 207.599 163.564C207.43 163.673 207.229 163.726 206.995 163.726C206.641 163.726 206.365 163.609 206.167 163.372C205.968 163.136 205.87 162.815 205.87 162.41C205.87 162.148 205.915 161.918 206.004 161.72C206.093 161.519 206.222 161.364 206.392 161.255C206.561 161.144 206.764 161.088 207 161.088ZM207 161.442C206.563 161.442 206.344 161.765 206.344 162.41C206.344 163.052 206.561 163.372 206.995 163.372C207.43 163.372 207.646 163.05 207.646 162.405C207.646 161.763 207.431 161.442 207 161.442ZM211.928 160.81H210.678V161.753C210.841 161.671 211.012 161.629 211.191 161.629C211.466 161.629 211.686 161.72 211.852 161.902C212.018 162.081 212.101 162.328 212.101 162.645C212.101 162.855 212.055 163.043 211.962 163.209C211.869 163.372 211.739 163.5 211.57 163.592C211.403 163.682 211.21 163.726 210.99 163.726C210.795 163.726 210.621 163.693 210.468 163.626C210.314 163.556 210.172 163.454 210.042 163.319L210.3 163.066C210.402 163.168 210.508 163.245 210.616 163.296C210.725 163.344 210.848 163.368 210.985 163.368C211.189 163.368 211.349 163.304 211.464 163.176C211.582 163.048 211.641 162.868 211.641 162.635C211.641 162.402 211.589 162.232 211.483 162.128C211.377 162.022 211.235 161.969 211.057 161.969C210.974 161.969 210.897 161.979 210.827 161.998C210.756 162.014 210.682 162.041 210.602 162.079H210.257V160.465H211.991L211.928 160.81ZM213.78 160.418C214.135 160.418 214.402 160.56 214.58 160.844C214.762 161.125 214.853 161.533 214.853 162.069C214.853 162.606 214.762 163.016 214.58 163.3C214.402 163.584 214.135 163.726 213.78 163.726C213.426 163.726 213.158 163.584 212.976 163.3C212.797 163.016 212.708 162.606 212.708 162.069C212.708 161.533 212.797 161.125 212.976 160.844C213.158 160.56 213.426 160.418 213.78 160.418ZM213.78 160.767C213.573 160.767 213.418 160.869 213.316 161.073C213.217 161.278 213.167 161.61 213.167 162.069C213.167 162.529 213.217 162.863 213.316 163.071C213.418 163.275 213.573 163.377 213.78 163.377C213.985 163.377 214.138 163.275 214.24 163.071C214.343 162.863 214.394 162.529 214.394 162.069C214.394 161.613 214.343 161.283 214.24 161.079C214.138 160.871 213.985 160.767 213.78 160.767Z" fill="white"/>
<path d="M185.638 169.225V172.448H185.036V169.843L184.316 170.279L184.049 169.867L185.098 169.225H185.638ZM186.792 171.744C186.904 171.744 186.997 171.781 187.07 171.854C187.147 171.928 187.185 172.02 187.185 172.132C187.185 172.193 187.175 172.255 187.156 172.319C187.137 172.383 187.105 172.464 187.061 172.564L186.749 173.272H186.376L186.572 172.448C186.463 172.375 186.409 172.268 186.409 172.127C186.409 172.019 186.446 171.928 186.519 171.854C186.593 171.781 186.684 171.744 186.792 171.744ZM188.617 169.168C188.834 169.168 189.02 169.208 189.177 169.288C189.337 169.367 189.458 169.476 189.541 169.613C189.624 169.75 189.666 169.904 189.666 170.073C189.666 170.255 189.626 170.43 189.546 170.6C189.469 170.765 189.34 170.951 189.158 171.155C188.976 171.36 188.709 171.629 188.358 171.964H189.738L189.67 172.448H187.664V171.998C188.073 171.583 188.365 171.276 188.54 171.079C188.719 170.877 188.845 170.707 188.918 170.566C188.995 170.422 189.033 170.274 189.033 170.121C189.033 169.974 188.99 169.859 188.904 169.776C188.821 169.693 188.709 169.652 188.569 169.652C188.444 169.652 188.334 169.678 188.238 169.733C188.145 169.784 188.048 169.87 187.946 169.992L187.573 169.695C187.844 169.343 188.192 169.168 188.617 169.168ZM191.144 169.168C191.358 169.168 191.541 169.205 191.695 169.278C191.851 169.352 191.967 169.451 192.045 169.575C192.124 169.699 192.164 169.837 192.164 169.987C192.164 170.182 192.108 170.345 191.996 170.475C191.884 170.603 191.731 170.693 191.537 170.744C191.751 170.763 191.926 170.839 192.064 170.973C192.2 171.108 192.27 171.293 192.27 171.529C192.27 171.714 192.221 171.882 192.126 172.032C192.033 172.182 191.899 172.301 191.723 172.391C191.548 172.477 191.34 172.52 191.1 172.52C190.66 172.52 190.312 172.365 190.056 172.055L190.397 171.73C190.505 171.839 190.612 171.918 190.717 171.969C190.823 172.017 190.939 172.041 191.067 172.041C191.24 172.041 191.377 171.994 191.479 171.898C191.585 171.799 191.637 171.666 191.637 171.5C191.637 171.315 191.588 171.182 191.488 171.102C191.393 171.023 191.249 170.983 191.058 170.983H190.804L190.876 170.547H191.048C191.204 170.547 191.329 170.504 191.422 170.418C191.518 170.332 191.566 170.212 191.566 170.059C191.566 169.928 191.522 169.826 191.436 169.752C191.35 169.676 191.235 169.637 191.091 169.637C190.967 169.637 190.853 169.661 190.751 169.709C190.649 169.754 190.547 169.824 190.445 169.92L190.133 169.58C190.424 169.305 190.761 169.168 191.144 169.168ZM195.103 171.242V171.71H194.714V172.448H194.116V171.71H192.746V171.289L193.684 169.163L194.207 169.36L193.383 171.242H194.12L194.183 170.432H194.714V171.242H195.103Z" fill="white"/>
<path d="M198.547 168.632C198.311 168.971 198.138 169.299 198.03 169.619C197.924 169.935 197.872 170.32 197.872 170.773C197.872 171.223 197.924 171.608 198.03 171.927C198.138 172.246 198.311 172.575 198.547 172.914L198.155 173.177C197.947 172.886 197.782 172.64 197.661 172.439C197.543 172.235 197.444 171.996 197.364 171.721C197.284 171.443 197.244 171.127 197.244 170.773C197.244 170.418 197.284 170.104 197.364 169.829C197.444 169.551 197.543 169.312 197.661 169.111C197.782 168.907 197.947 168.659 198.155 168.369L198.547 168.632ZM199.907 169.169C200.124 169.169 200.311 169.208 200.468 169.288C200.627 169.368 200.748 169.477 200.831 169.614C200.915 169.752 200.956 169.905 200.956 170.074C200.956 170.256 200.916 170.431 200.836 170.6C200.76 170.767 200.63 170.952 200.449 171.156C200.267 171.36 200 171.63 199.648 171.965H201.028L200.96 172.449H198.954V171.999C199.362 171.583 199.655 171.278 199.83 171.079C200.009 170.878 200.135 170.708 200.209 170.567C200.286 170.424 200.324 170.275 200.324 170.121C200.324 169.975 200.28 169.86 200.195 169.777C200.112 169.693 200 169.652 199.859 169.652C199.735 169.652 199.625 169.68 199.529 169.733C199.436 169.784 199.339 169.871 199.237 169.992L198.863 169.695C199.134 169.344 199.483 169.169 199.907 169.169ZM203.448 169.681H202.242V170.481C202.401 170.401 202.564 170.361 202.73 170.361C202.91 170.361 203.069 170.403 203.209 170.485C203.35 170.568 203.458 170.689 203.535 170.845C203.615 171.001 203.655 171.187 203.655 171.4C203.655 171.621 203.605 171.816 203.506 171.984C203.408 172.153 203.267 172.286 203.085 172.382C202.903 172.475 202.692 172.521 202.452 172.521C202.238 172.521 202.049 172.482 201.882 172.406C201.72 172.326 201.571 172.213 201.437 172.066L201.787 171.74C201.972 171.945 202.189 172.047 202.438 172.047C202.62 172.047 202.762 171.99 202.865 171.879C202.97 171.767 203.022 171.608 203.022 171.4C203.022 171.001 202.85 170.801 202.505 170.801C202.431 170.801 202.363 170.811 202.3 170.831C202.236 170.846 202.165 170.873 202.088 170.912H201.653V169.226H203.52L203.448 169.681ZM206.804 169.02L207.202 169.274L204.98 172.621L204.587 172.367L206.804 169.02ZM204.86 169.169C205.014 169.169 205.152 169.204 205.277 169.274C205.401 169.341 205.499 169.438 205.569 169.566C205.643 169.693 205.679 169.841 205.679 170.007C205.679 170.172 205.643 170.32 205.569 170.447C205.499 170.575 205.401 170.674 205.277 170.744C205.152 170.811 205.014 170.845 204.86 170.845C204.707 170.845 204.568 170.811 204.444 170.744C204.323 170.674 204.225 170.575 204.151 170.447C204.081 170.32 204.046 170.172 204.046 170.007C204.046 169.841 204.081 169.693 204.151 169.566C204.225 169.438 204.323 169.341 204.444 169.274C204.568 169.204 204.707 169.169 204.86 169.169ZM204.86 169.551C204.736 169.551 204.647 169.595 204.592 169.681C204.541 169.764 204.516 169.873 204.516 170.007C204.516 170.138 204.541 170.246 204.592 170.333C204.647 170.418 204.736 170.462 204.86 170.462C205.09 170.462 205.205 170.31 205.205 170.007C205.205 169.703 205.09 169.551 204.86 169.551ZM206.92 170.845C207.073 170.845 207.212 170.88 207.336 170.95C207.461 171.017 207.558 171.115 207.628 171.242C207.698 171.369 207.734 171.517 207.734 171.683C207.734 171.848 207.698 171.996 207.628 172.123C207.558 172.251 207.461 172.35 207.336 172.42C207.212 172.488 207.073 172.521 206.92 172.521C206.766 172.521 206.628 172.488 206.503 172.42C206.378 172.35 206.279 172.251 206.206 172.123C206.136 171.996 206.101 171.848 206.101 171.683C206.101 171.517 206.136 171.369 206.206 171.242C206.279 171.115 206.378 171.017 206.503 170.95C206.628 170.88 206.766 170.845 206.92 170.845ZM206.92 171.227C206.795 171.227 206.706 171.271 206.651 171.357C206.6 171.44 206.575 171.549 206.575 171.683C206.575 171.814 206.6 171.922 206.651 172.009C206.706 172.094 206.795 172.138 206.92 172.138C207.149 172.138 207.264 171.986 207.264 171.683C207.264 171.38 207.149 171.227 206.92 171.227ZM208.546 168.369C208.753 168.656 208.916 168.902 209.034 169.106C209.156 169.311 209.256 169.55 209.336 169.824C209.415 170.099 209.455 170.415 209.455 170.773C209.455 171.13 209.415 171.447 209.336 171.721C209.256 171.996 209.156 172.235 209.034 172.439C208.916 172.644 208.753 172.89 208.546 173.177L208.158 172.914C208.391 172.575 208.561 172.246 208.67 171.927C208.779 171.608 208.832 171.223 208.832 170.773C208.832 170.322 208.779 169.939 208.67 169.623C208.561 169.305 208.391 168.974 208.158 168.632L208.546 168.369Z" fill="#FFB03D"/>
<path d="M142.069 79.6855H62.3714C60.4576 79.6855 58.9062 81.2367 58.9062 83.1501C58.9062 85.0635 60.4576 86.6147 62.3714 86.6147H142.069C143.983 86.6147 145.534 85.0635 145.534 83.1501C145.534 81.2367 143.983 79.6855 142.069 79.6855Z" fill="#C4C4C4"/>
<path d="M126.476 97.0078H60.6388C59.6819 97.0078 58.9062 97.7834 58.9062 98.7401C58.9062 99.6968 59.6819 100.472 60.6388 100.472H126.476C127.433 100.472 128.209 99.6968 128.209 98.7401C128.209 97.7834 127.433 97.0078 126.476 97.0078Z" fill="#DFDFDF"/>
<path d="M62.3714 143.779C62.3714 142.822 61.5957 142.047 60.6388 142.047C59.6819 142.047 58.9062 142.822 58.9062 143.779C58.9062 144.736 59.6819 145.511 60.6388 145.511C61.5957 145.511 62.3714 144.736 62.3714 143.779Z" fill="#FFF4E9"/>
<path d="M62.3714 154.173C62.3714 153.216 61.5957 152.44 60.6388 152.44C59.6819 152.44 58.9062 153.216 58.9062 154.173C58.9062 155.129 59.6819 155.905 60.6388 155.905C61.5957 155.905 62.3714 155.129 62.3714 154.173Z" fill="#FEC99E"/>
<path d="M62.3714 164.567C62.3714 163.611 61.5957 162.835 60.6388 162.835C59.6819 162.835 58.9062 163.611 58.9062 164.567C58.9062 165.524 59.6819 166.3 60.6388 166.3C61.5957 166.3 62.3714 165.524 62.3714 164.567Z" fill="#FB9946"/>
<path d="M98.7565 142.047H67.5704C66.6136 142.047 65.8379 142.822 65.8379 143.779C65.8379 144.736 66.6136 145.511 67.5704 145.511H98.7565C99.7134 145.511 100.489 144.736 100.489 143.779C100.489 142.822 99.7134 142.047 98.7565 142.047Z" fill="#EAEAEA"/>
<path d="M98.7565 152.44H67.5704C66.6136 152.44 65.8379 153.216 65.8379 154.173C65.8379 155.129 66.6136 155.905 67.5704 155.905H98.7565C99.7134 155.905 100.489 155.129 100.489 154.173C100.489 153.216 99.7134 152.44 98.7565 152.44Z" fill="#EAEAEA"/>
<path d="M98.7565 162.835H67.5704C66.6136 162.835 65.8379 163.611 65.8379 164.567C65.8379 165.524 66.6136 166.3 67.5704 166.3H98.7565C99.7134 166.3 100.489 165.524 100.489 164.567C100.489 163.611 99.7134 162.835 98.7565 162.835Z" fill="#EAEAEA"/>
<path d="M46.7797 45.0392C49.6503 45.0392 51.9774 42.7125 51.9774 39.8424C51.9774 36.9722 49.6503 34.6455 46.7797 34.6455C43.9091 34.6455 41.582 36.9722 41.582 39.8424C41.582 42.7125 43.9091 45.0392 46.7797 45.0392Z" fill="#00C991"/>
<path d="M67.5688 45.0392C70.4394 45.0392 72.7664 42.7125 72.7664 39.8424C72.7664 36.9722 70.4394 34.6455 67.5688 34.6455C64.6982 34.6455 62.3711 36.9722 62.3711 39.8424C62.3711 42.7125 64.6982 45.0392 67.5688 45.0392Z" fill="#FFBD1C"/>
<path d="M88.3598 45.0392C91.2304 45.0392 93.5575 42.7125 93.5575 39.8424C93.5575 36.9722 91.2304 34.6455 88.3598 34.6455C85.4892 34.6455 83.1621 36.9722 83.1621 39.8424C83.1621 42.7125 85.4892 45.0392 88.3598 45.0392Z" fill="#FF7943"/>
</g>
<defs>
<filter id="filter0_d" x="-3.20898" y="-2.1416" width="602.419" height="446.425" filterUnits="userSpaceOnUse" color-interpolation-filters="sRGB">
<feFlood flood-opacity="0" result="BackgroundImageFix"/>
<feColorMatrix in="SourceAlpha" type="matrix" values="0 0 0 0 0 0 0 0 0 0 0 0 0 0 0 0 0 0 127 0"/>
<feOffset dy="8"/>
<feGaussianBlur stdDeviation="12"/>
<feColorMatrix type="matrix" values="0 0 0 0 0 0 0 0 0 0 0 0 0 0 0 0 0 0 0.16 0"/>
<feBlend mode="normal" in2="BackgroundImageFix" result="effect1_dropShadow"/>
<feBlend mode="normal" in="SourceGraphic" in2="effect1_dropShadow" result="shape"/>
</filter>
<filter id="filter1_d" x="34.0508" y="299.351" width="527.901" height="42.7796" filterUnits="userSpaceOnUse" color-interpolation-filters="sRGB">
<feFlood flood-opacity="0" result="BackgroundImageFix"/>
<feColorMatrix in="SourceAlpha" type="matrix" values="0 0 0 0 0 0 0 0 0 0 0 0 0 0 0 0 0 0 127 0"/>
<feOffset dy="2"/>
<feGaussianBlur stdDeviation="2"/>
<feColorMatrix type="matrix" values="0 0 0 0 0 0 0 0 0 0 0 0 0 0 0 0 0 0 0.16 0"/>
<feBlend mode="normal" in2="BackgroundImageFix" result="effect1_dropShadow"/>
<feBlend mode="normal" in="SourceGraphic" in2="effect1_dropShadow" result="shape"/>
</filter>
<filter id="filter2_d" x="139.744" y="130.877" width="124.928" height="92.7447" filterUnits="userSpaceOnUse" color-interpolation-filters="sRGB">
<feFlood flood-opacity="0" result="BackgroundImageFix"/>
<feColorMatrix in="SourceAlpha" type="matrix" values="0 0 0 0 0 0 0 0 0 0 0 0 0 0 0 0 0 0 127 0"/>
<feOffset/>
<feGaussianBlur stdDeviation="15"/>
<feColorMatrix type="matrix" values="0 0 0 0 0 0 0 0 0 0 0 0 0 0 0 0 0 0 0.16 0"/>
<feBlend mode="normal" in2="BackgroundImageFix" result="effect1_dropShadow"/>
<feBlend mode="normal" in="SourceGraphic" in2="effect1_dropShadow" result="shape"/>
</filter>
<filter id="filter3_d" x="161.744" y="156.877" width="80.9281" height="48.7447" filterUnits="userSpaceOnUse" color-interpolation-filters="sRGB">
<feFlood flood-opacity="0" result="BackgroundImageFix"/>
<feColorMatrix in="SourceAlpha" type="matrix" values="0 0 0 0 0 0 0 0 0 0 0 0 0 0 0 0 0 0 127 0"/>
<feOffset dy="4"/>
<feGaussianBlur stdDeviation="4"/>
<feColorMatrix type="matrix" values="0 0 0 0 0 0 0 0 0 0 0 0 0 0 0 0 0 0 0.16 0"/>
<feBlend mode="normal" in2="BackgroundImageFix" result="effect1_dropShadow"/>
<feBlend mode="normal" in="SourceGraphic" in2="effect1_dropShadow" result="shape"/>
</filter>
<filter id="filter4_d" x="176.742" y="151.686" width="47.1142" height="31.5443" filterUnits="userSpaceOnUse" color-interpolation-filters="sRGB">
<feFlood flood-opacity="0" result="BackgroundImageFix"/>
<feColorMatrix in="SourceAlpha" type="matrix" values="0 0 0 0 0 0 0 0 0 0 0 0 0 0 0 0 0 0 127 0"/>
<feOffset/>
<feGaussianBlur stdDeviation="2"/>
<feColorMatrix type="matrix" values="0 0 0 0 0 0 0 0 0 0 0 0 0 0 0 0 0 0 0.16 0"/>
<feBlend mode="normal" in2="BackgroundImageFix" result="effect1_dropShadow"/>
<feBlend mode="normal" in="SourceGraphic" in2="effect1_dropShadow" result="shape"/>
</filter>
<clipPath id="clip0">
<rect width="596" height="440" fill="white"/>
</clipPath>
</defs>
</svg>
