<svg width="14" height="14" viewBox="0 0 14 14" fill="none" xmlns="http://www.w3.org/2000/svg">
<path d="M7.68616 0.522122C7.63831 0.520412 7.59045 0.522976 7.5426 0.531521L1.1604 1.65774C0.741699 1.73208 0.4375 2.09439 0.4375 2.51907V11.0435C0.4375 11.469 0.741699 11.8313 1.1604 11.9048L7.5426 13.031C7.5802 13.0379 7.61865 13.0404 7.65625 13.0404C7.81006 13.0404 7.95874 12.9875 8.07751 12.8875C8.22705 12.7627 8.3125 12.579 8.3125 12.3842V11.375H12.4688C12.8302 11.375 13.125 11.0802 13.125 10.7188V2.84378C13.125 2.48233 12.8302 2.18753 12.4688 2.18753H8.3125V1.17752C8.3125 0.983547 8.22705 0.799831 8.07751 0.675076C7.96643 0.581081 7.82886 0.528103 7.68616 0.522122ZM7.67932 0.960476C7.73486 0.965603 7.77502 0.992092 7.79639 1.01004C7.82629 1.03482 7.875 1.0895 7.875 1.17752V12.3842C7.875 12.473 7.82629 12.5277 7.79639 12.5525C7.76733 12.5773 7.70581 12.6157 7.61865 12.6004L1.23645 11.4741C1.0271 11.4374 0.875 11.2563 0.875 11.0435V2.51907C0.875 2.3063 1.0271 2.12515 1.23645 2.08841L7.6178 0.962185C7.64001 0.958767 7.66052 0.957912 7.67932 0.960476ZM8.3125 2.62503H12.4688C12.5892 2.62503 12.6875 2.72329 12.6875 2.84378V10.7188C12.6875 10.8393 12.5892 10.9375 12.4688 10.9375H8.3125V9.62503H8.96875C9.08923 9.62503 9.1875 9.52761 9.1875 9.40628C9.1875 9.28494 9.08923 9.18753 8.96875 9.18753H8.3125V8.31253H8.96875C9.08923 8.31253 9.1875 8.21511 9.1875 8.09378C9.1875 7.97244 9.08923 7.87503 8.96875 7.87503H8.3125V7.00003H8.96875C9.08923 7.00003 9.1875 6.90261 9.1875 6.78128C9.1875 6.65994 9.08923 6.56253 8.96875 6.56253H8.3125V5.68753H8.96875C9.08923 5.68753 9.1875 5.59011 9.1875 5.46878C9.1875 5.34744 9.08923 5.25003 8.96875 5.25003H8.3125V4.37503H8.96875C9.08923 4.37503 9.1875 4.27761 9.1875 4.15628C9.1875 4.03494 9.08923 3.93753 8.96875 3.93753H8.3125V2.62503ZM9.84375 3.93753C9.72327 3.93753 9.625 4.03494 9.625 4.15628C9.625 4.27761 9.72327 4.37503 9.84375 4.37503H11.1562C11.2767 4.37503 11.375 4.27761 11.375 4.15628C11.375 4.03494 11.2767 3.93753 11.1562 3.93753H9.84375ZM2.8053 4.37844C2.7771 4.38357 2.74976 4.39383 2.72412 4.41006C2.62329 4.47586 2.59424 4.61172 2.66003 4.71341L4.005 6.78128L2.66003 8.84915C2.59424 8.95083 2.62329 9.0867 2.72412 9.15249C2.76172 9.17642 2.80273 9.18753 2.84375 9.18753C2.91467 9.18753 2.9856 9.15249 3.02747 9.08841L4.26562 7.18289L5.50378 9.08841C5.54565 9.15249 5.61658 9.18753 5.6875 9.18753C5.72852 9.18753 5.76953 9.17642 5.80713 9.15249C5.90796 9.0867 5.93701 8.95083 5.87122 8.84915L4.52625 6.78128L5.87122 4.71341C5.93701 4.61172 5.90796 4.47586 5.80713 4.41006C5.70544 4.34427 5.56958 4.37332 5.50378 4.47415L4.26562 6.37967L3.02747 4.47415C2.97791 4.3981 2.88904 4.36306 2.8053 4.37844ZM9.84375 5.25003C9.72327 5.25003 9.625 5.34744 9.625 5.46878C9.625 5.59011 9.72327 5.68753 9.84375 5.68753H11.1562C11.2767 5.68753 11.375 5.59011 11.375 5.46878C11.375 5.34744 11.2767 5.25003 11.1562 5.25003H9.84375ZM9.84375 6.56253C9.72327 6.56253 9.625 6.65994 9.625 6.78128C9.625 6.90261 9.72327 7.00003 9.84375 7.00003H11.1562C11.2767 7.00003 11.375 6.90261 11.375 6.78128C11.375 6.65994 11.2767 6.56253 11.1562 6.56253H9.84375ZM9.84375 7.87503C9.72327 7.87503 9.625 7.97244 9.625 8.09378C9.625 8.21511 9.72327 8.31253 9.84375 8.31253H11.1562C11.2767 8.31253 11.375 8.21511 11.375 8.09378C11.375 7.97244 11.2767 7.87503 11.1562 7.87503H9.84375ZM9.84375 9.18753C9.72327 9.18753 9.625 9.28494 9.625 9.40628C9.625 9.52761 9.72327 9.62503 9.84375 9.62503H11.1562C11.2767 9.62503 11.375 9.52761 11.375 9.40628C11.375 9.28494 11.2767 9.18753 11.1562 9.18753H9.84375Z" fill="#0077B7" stroke="#0077B7" stroke-width="0.3"/>
</svg>
