<svg width="360" height="360" viewBox="0 0 360 360" fill="none" xmlns="http://www.w3.org/2000/svg">
<path d="M142.753 10.6476C134.916 13.088 100.126 24.4103 65.3926 54.4673C56.9738 61.7453 22.9604 91.1737 8.43032 130.737C-16.3055 198.079 13.2925 300.53 98.5471 341.702C197.85 389.658 323.286 330.631 351.895 251.636C364.582 216.6 365.154 158.5 333.188 120.19C307.464 89.3531 263.474 74.7061 265.179 45.5421C265.999 31.4932 276.629 27.6093 273.68 18.7622C266.684 -2.2179 198.163 -6.57428 142.753 10.6476Z" fill="#FFF4E9"/>
<path d="M66.9155 241.365C108.944 283.371 177.092 283.371 219.121 241.365C261.154 199.359 261.154 131.252 219.121 89.2488C177.092 47.2411 108.944 47.2411 66.9155 89.2488C24.8823 131.252 24.8823 199.359 66.9155 241.365Z" fill="white"/>
<path d="M143.017 58.4462C115.623 58.4462 88.2282 68.8669 67.3743 89.7082C47.1667 109.899 36.0414 136.749 36.0414 165.307C36.0414 193.864 47.1667 220.712 67.3743 240.905C87.5776 261.098 114.443 272.219 143.017 272.219C171.592 272.219 198.457 261.098 218.661 240.905C238.868 220.712 249.993 193.864 249.993 165.307C249.993 136.749 238.868 109.899 218.661 89.7082C197.807 68.8669 170.412 58.4462 143.017 58.4462ZM143.017 273.519C114.096 273.519 86.9054 262.263 66.4548 241.824C46 221.386 34.7402 194.211 34.7402 165.307C34.7402 136.402 46 109.227 66.4548 88.7892C86.9054 68.351 114.096 57.0938 143.017 57.0938C171.939 57.0938 199.13 68.351 219.58 88.7892C240.031 109.227 251.295 136.402 251.295 165.307C251.295 194.211 240.031 221.386 219.58 241.824C199.13 262.263 171.939 273.519 143.017 273.519Z" fill="#333A43"/>
<path d="M333.674 356.034C338.102 351.611 338.102 344.442 333.674 340.02L231.083 237.489L215.061 253.502L317.652 356.034C322.076 360.455 329.25 360.455 333.674 356.034Z" fill="white"/>
<path d="M215.979 253.502L318.111 355.574C322.274 359.736 329.049 359.736 333.213 355.574C337.377 351.412 337.377 344.641 333.213 340.48L231.082 238.409L215.979 253.502ZM325.662 359.996C322.595 359.996 319.529 358.825 317.191 356.493L214.6 253.962C214.344 253.708 214.344 253.297 214.6 253.043L230.622 237.03C230.865 236.785 231.299 236.785 231.542 237.03L334.137 339.56C338.808 344.229 338.808 351.825 334.137 356.493C331.799 358.825 328.733 359.996 325.662 359.996Z" fill="#333A43"/>
<path d="M284.229 298.359L275.58 289.715L284.229 298.359Z" fill="white"/>
<path d="M284.228 299.009C284.059 299.009 283.894 298.946 283.768 298.819L275.12 290.175C274.864 289.921 274.864 289.509 275.12 289.255C275.371 289.001 275.783 289.001 276.039 289.255L284.688 297.899C284.939 298.153 284.939 298.565 284.688 298.819C284.562 298.946 284.393 299.009 284.228 299.009Z" fill="#333A43"/>
<path d="M311.819 342.442L321.535 352.154C323.812 354.43 327.52 354.43 329.797 352.154C332.074 349.878 332.074 346.175 329.797 343.898L295.658 309.779L311.819 342.442Z" fill="white"/>
<path d="M325.663 354.512C324.002 354.512 322.341 353.879 321.074 352.614L311.359 342.903C311.103 342.649 311.103 342.236 311.359 341.983C311.61 341.729 312.022 341.729 312.278 341.983L321.994 351.695C324.019 353.719 327.311 353.719 329.337 351.695C331.358 349.672 331.358 346.381 329.337 344.359L295.198 310.24C294.942 309.986 294.942 309.574 295.198 309.321C295.449 309.066 295.861 309.066 296.117 309.321L330.256 343.439C332.785 345.969 332.785 350.085 330.256 352.614C328.99 353.879 327.329 354.512 325.663 354.512Z" fill="#333A43"/>
<path d="M234.922 276.709L254.306 257.336C255.585 256.055 255.585 253.978 254.306 252.697L245.288 243.687C244.004 242.406 241.927 242.406 240.647 243.687L221.264 263.059C219.98 264.34 219.98 266.417 221.264 267.698L230.277 276.709C231.561 277.99 233.638 277.99 234.922 276.709Z" fill="white"/>
<path d="M242.968 243.376C242.265 243.376 241.606 243.65 241.107 244.147L221.723 263.519C220.695 264.545 220.695 266.213 221.723 267.239L230.736 276.249C231.764 277.274 233.434 277.274 234.458 276.249L253.846 256.877C254.869 255.851 254.869 254.183 253.846 253.157L244.828 244.147C244.33 243.65 243.67 243.376 242.968 243.376ZM232.597 278.317C231.591 278.317 230.585 277.935 229.817 277.168L220.804 268.158C219.268 266.626 219.268 264.132 220.804 262.6L240.187 243.227C240.929 242.485 241.918 242.076 242.968 242.076C244.017 242.076 245.006 242.485 245.748 243.227L254.765 252.238C256.296 253.77 256.296 256.264 254.765 257.796L235.382 277.168C234.614 277.935 233.608 278.317 232.597 278.317Z" fill="#333A43"/>
<path d="M251.924 293.701L271.307 274.329C272.587 273.048 272.587 270.971 271.307 269.69L262.29 260.68C261.011 259.399 258.929 259.399 257.649 260.68L238.266 280.052C236.982 281.333 236.982 283.41 238.266 284.691L247.279 293.701C248.562 294.982 250.64 294.982 251.924 293.701Z" fill="white"/>
<path d="M259.97 260.369C259.267 260.369 258.608 260.643 258.109 261.139L238.725 280.512C237.697 281.537 237.697 283.206 238.725 284.231L247.743 293.241C248.766 294.266 250.436 294.267 251.464 293.241L251.924 293.701L251.464 293.241L270.848 273.869C271.871 272.844 271.871 271.175 270.848 270.15L261.83 261.139C261.332 260.643 260.672 260.369 259.97 260.369ZM249.603 295.311C248.593 295.311 247.587 294.927 246.819 294.161L237.806 285.151C236.27 283.618 236.27 281.125 237.806 279.592L257.189 260.22C257.931 259.478 258.92 259.069 259.97 259.069C261.019 259.069 262.008 259.478 262.75 260.22L271.767 269.23C273.298 270.763 273.298 273.256 271.767 274.789L252.384 294.161C251.616 294.927 250.61 295.311 249.603 295.311Z" fill="#333A43"/>
<path d="M46.1426 180.188L231.728 207.003C227.035 216.979 220.568 226.327 212.323 234.57C210.163 236.727 207.925 238.756 205.626 240.669L61.5922 219.858C53.425 207.707 48.2765 194.134 46.1426 180.188Z" fill="#FFF4E9"/>
<path d="M73.7119 96.0414C83.2844 86.479 94.3402 79.3094 106.138 74.5238L204.066 88.6767C206.92 90.9524 209.679 93.4015 212.324 96.0414C239.615 123.32 247.439 162.684 235.811 196.896L45.0941 169.339C44.0141 142.944 53.5476 116.198 73.7119 96.0414Z" fill="#FFF4E9"/>
<path d="M46.1513 150.995C46.1166 150.995 46.0819 150.992 46.0516 150.987C45.6959 150.933 45.453 150.601 45.5051 150.246C46.9928 140.587 49.8901 131.244 54.119 122.475C54.2751 122.15 54.6655 122.015 54.9865 122.171C55.3118 122.327 55.4462 122.718 55.2901 123.038C51.1176 131.69 48.2592 140.912 46.7932 150.444C46.7412 150.765 46.4636 150.995 46.1513 150.995Z" fill="#333A43"/>
<path d="M161.737 262.116C161.429 262.116 161.156 261.9 161.1 261.59C161.03 261.237 161.26 260.896 161.611 260.828C180.691 257.136 198.067 247.898 211.859 234.11C230.25 215.732 240.377 191.297 240.377 165.307C240.377 139.316 230.25 114.88 211.859 96.5051C193.473 78.1259 169.024 68.0043 143.017 68.0043C117.011 68.0043 92.561 78.1259 74.1707 96.5051C73.9191 96.7565 73.5071 96.7565 73.2512 96.5051C72.9996 96.2494 72.9996 95.8376 73.2512 95.5862C91.8887 76.9599 116.664 66.7039 143.017 66.7039C169.371 66.7039 194.146 76.9599 212.783 95.5862C231.416 114.208 241.679 138.969 241.679 165.307C241.679 191.644 231.416 216.406 212.783 235.029C198.8 249.002 181.194 258.364 161.859 262.105C161.82 262.112 161.776 262.116 161.737 262.116Z" fill="#333A43"/>
<path d="M244.941 23.5301C189.271 22.0173 143.213 54.8788 142.072 96.9256C141.561 115.738 150.131 133.203 164.744 146.894L146.236 188.114L195.205 166.248C208.807 171.929 224.3 175.347 240.799 175.795C296.464 177.308 342.522 144.448 343.667 102.4C344.808 60.3536 300.606 25.0429 244.941 23.5301Z" fill="#FB9946"/>
<path d="M284.865 24.2886C284.744 24.2886 284.618 24.2626 284.501 24.2062C283.208 23.6037 281.881 23.0142 280.554 22.455C280.112 22.2686 279.903 21.7614 280.09 21.3193C280.276 20.8771 280.784 20.6734 281.226 20.8598C282.575 21.4277 283.924 22.0258 285.234 22.6327C285.668 22.8364 285.854 23.3523 285.65 23.7858C285.503 24.1022 285.191 24.2886 284.865 24.2886Z" fill="#333A43"/>
<path d="M234.574 165.168C233.334 165.168 232.085 165.151 230.836 165.117C226.668 165.004 222.478 164.697 218.374 164.204C217.902 164.147 217.559 163.715 217.615 163.239C217.676 162.764 218.106 162.425 218.583 162.483C222.629 162.969 226.772 163.272 230.883 163.384C285.976 164.885 331.731 132.336 332.863 90.8353C333.5 67.2761 319.846 45.1256 295.393 30.0625C294.985 29.8111 294.855 29.2779 295.106 28.8704C295.358 28.463 295.891 28.3373 296.303 28.5887C308.244 35.9447 318.046 45.3727 324.644 55.8541C331.579 66.8729 334.927 78.659 334.598 90.8829C334.034 111.495 322.9 130.572 303.247 144.594C284.567 157.922 260.303 165.168 234.574 165.168Z" fill="#333A43"/>
<path d="M136.299 177.437C136.073 177.437 135.852 177.349 135.683 177.183C135.432 176.928 135.358 176.543 135.505 176.215L153.761 135.557C138.758 121.295 130.773 103.488 131.268 85.3562C131.827 64.7446 142.961 45.6675 162.618 31.6447C182.201 17.6739 207.917 10.3829 235.025 11.1198C241.41 11.2932 247.79 11.9173 253.984 12.975C254.452 13.0574 254.773 13.5039 254.691 13.9764C254.609 14.4489 254.166 14.7696 253.689 14.6872C247.578 13.6426 241.28 13.0227 234.978 12.8537C208.255 12.1254 182.904 19.2994 163.624 33.0535C144.423 46.7555 133.549 65.3471 133.003 85.4039C132.517 103.215 140.472 120.728 155.401 134.716C155.67 134.971 155.748 135.366 155.596 135.704L138.021 174.851L184.916 153.912C185.133 153.814 185.38 153.811 185.602 153.903C189.713 155.62 194.016 157.132 198.392 158.398C198.852 158.531 199.117 159.012 198.982 159.472C198.852 159.932 198.366 160.196 197.911 160.063C193.595 158.815 189.349 157.33 185.281 155.647L136.655 177.361C136.538 177.412 136.42 177.437 136.299 177.437Z" fill="#333A43"/>
<path d="M238.709 132.635C234.913 132.635 231.834 135.714 231.834 139.51V139.982C231.834 143.778 234.913 146.855 238.709 146.855C242.508 146.855 245.588 143.778 245.588 139.982V139.51C245.588 135.714 242.508 132.635 238.709 132.635Z" fill="white"/>
<path d="M263.826 51.541C258.227 46.8465 250.597 44.5014 240.934 44.5014C236.618 44.5014 232.047 44.9826 227.215 45.9492C224.409 46.5084 221.889 47.1109 219.65 47.7568C217.039 48.5067 215.248 50.9038 215.248 53.6217C215.248 57.9477 219.624 60.8953 223.645 59.2828C224.539 58.9274 225.406 58.5936 226.204 58.3119C230.541 56.786 235.135 56.0231 239.993 56.0231C245.427 56.0231 249.869 57.2672 253.308 59.764C256.743 62.2565 258.465 66.0406 258.465 71.1166C258.465 74.9788 257.745 78.1562 256.305 80.653C254.87 83.1455 252.844 85.5599 250.237 87.8963C248.082 89.9163 245.306 91.9146 241.914 93.8913C241.085 94.3724 240.274 94.8449 239.476 95.3044C235.122 97.8315 232.437 102.483 232.437 107.515V113.727C232.437 116.995 234.983 119.783 238.253 119.895C241.688 120.021 244.508 117.273 244.508 113.87V112.695C244.508 107.858 246.997 103.371 251.079 100.77C252.402 99.9252 253.694 99.0669 254.961 98.2043C258.24 95.9589 261.137 93.5532 263.657 90.9957C266.22 88.3428 268.285 85.2998 269.859 81.8624C271.434 78.425 272.219 74.5064 272.219 70.1066C272.219 62.4255 269.421 56.2355 263.826 51.541Z" fill="white"/>
<path d="M64.3693 128.392C62.1355 128.951 59.9495 127.087 56.5621 124.196C52.4416 120.685 49.5746 118.235 49.4185 114.291C49.284 110.832 51.3009 107.615 53.6214 105.899C54.9529 104.91 56.9698 104.455 61.0122 103.549C65.6315 102.509 66.2257 102.917 68.9061 101.868C72.0247 100.649 72.5104 99.5831 73.9461 99.8562C76.2666 100.294 78.3572 103.714 78.3138 106.904C78.2487 111.131 74.4883 111.764 70.2507 118.656C66.7028 124.417 67.0237 127.733 64.3693 128.392Z" fill="#333A43"/>
<path d="M52.3289 142.607C59.8715 140.147 71.3655 138.383 85.1018 142.756C90.1114 144.35 93.7071 148.757 94.323 153.974L105.513 218.37C106.068 223.052 99.8054 227.603 95.3943 229.274C90.788 231.019 83.8223 232.67 73.9592 232.67C63.3891 232.67 55.7033 233.283 51.4137 231.406C47.8571 229.848 42.4962 226.08 42.3184 222.201L43.0947 156.009C42.8171 149.976 46.5863 144.481 52.3289 142.607Z" fill="#FB9946"/>
<path d="M105.174 170.278C105.174 170.278 96.2395 145.549 86.2246 143.171L91.3166 178.211L105.174 170.278Z" fill="#FB9946"/>
<path d="M27.5879 180.255C27.5879 180.255 31.1619 166.972 33.9031 159.504C39.4505 144.408 51.3088 142.987 51.3088 142.987V180.144L27.5879 180.255Z" fill="#FB9946"/>
<path d="M73.1095 149.581C63.2941 149.581 54.6889 145.568 54.2725 145.371C53.9472 145.217 53.8084 144.83 53.9646 144.505C54.1164 144.181 54.5067 144.042 54.8277 144.196C54.9448 144.25 66.3477 149.561 77.5163 147.98C77.8676 147.929 78.2016 148.177 78.2493 148.532C78.3013 148.888 78.0541 149.217 77.6984 149.268C76.1587 149.486 74.6189 149.581 73.1095 149.581Z" fill="#333A43"/>
<path d="M69.366 192.738L113.238 192.671C114.348 192.669 115.316 191.911 115.58 190.832L124.385 155.132C124.758 153.607 123.604 152.134 122.03 152.136L78.1621 152.203C77.0474 152.205 76.0802 152.963 75.8156 154.042L67.0152 189.743C66.6378 191.268 67.7959 192.741 69.366 192.738Z" fill="#FEC99E"/>
<path d="M122.033 152.786C122.033 152.786 122.033 152.786 122.029 152.786L78.1609 152.853C77.3454 152.854 76.6428 153.407 76.4476 154.198L67.6428 189.898C67.5127 190.429 67.6342 190.981 67.9725 191.412C68.3065 191.842 68.8139 192.088 69.3604 192.088H69.3647L113.233 192.021C114.048 192.02 114.755 191.467 114.95 190.676L123.751 154.976C123.881 154.445 123.764 153.893 123.425 153.462C123.087 153.032 122.579 152.786 122.033 152.786ZM69.3604 193.388C68.4106 193.388 67.5344 192.96 66.9488 192.214C66.359 191.467 66.1551 190.509 66.3807 189.587L75.1811 153.886C75.5194 152.514 76.7426 151.555 78.1565 151.552L122.029 151.485H122.033C122.983 151.485 123.863 151.913 124.449 152.66C125.034 153.407 125.243 154.364 125.013 155.287L116.212 190.987C115.874 192.359 114.651 193.319 113.237 193.321L69.3647 193.388C69.3647 193.388 69.3648 193.388 69.3604 193.388Z" fill="#333A43"/>
<path d="M121.15 169.878L119.866 173.45L109.313 168.446C109.313 168.446 103.518 173.475 117.589 179.885C123.453 182.557 121.15 169.878 121.15 169.878Z" fill="white"/>
<path d="M109.465 169.238C109.135 169.661 108.64 170.51 108.818 171.667C109.079 173.385 110.857 176.104 117.857 179.293C119.141 179.878 119.644 179.486 119.809 179.357C120.945 178.472 121.08 175.386 120.85 172.632L120.481 173.67C120.416 173.842 120.286 173.98 120.117 174.051C119.948 174.121 119.753 174.116 119.588 174.037L109.465 169.238ZM119.059 180.908C118.53 180.908 117.948 180.764 117.319 180.477C111.252 177.712 107.955 174.804 107.526 171.831C107.183 169.463 108.814 168.015 108.883 167.955C109.079 167.786 109.356 167.747 109.59 167.858L119.497 172.555L120.538 169.658C120.638 169.381 120.911 169.207 121.206 169.23C121.496 169.254 121.739 169.472 121.791 169.761C121.947 170.632 123.257 178.324 120.607 180.384C120.16 180.733 119.64 180.908 119.059 180.908Z" fill="#333A43"/>
<path d="M56.8315 159.929C56.8315 159.929 37.1313 171.023 33.0672 174.503C29.0031 177.983 24.5964 180.626 30.3434 188.213C36.086 195.801 60.4878 165.339 60.4878 165.339C60.4878 165.339 65.1852 166.109 66.816 159.714C66.816 159.714 74.7446 159.985 75.0309 157.497L63.8449 155.515C62.3963 155.259 60.9172 155.735 59.8936 156.787L56.8315 159.929Z" fill="white"/>
<path d="M56.831 159.929H56.8353H56.831ZM63.0681 156.097C62.0575 156.097 61.0772 156.503 60.3572 157.241L57.2994 160.383C57.256 160.427 57.204 160.465 57.152 160.495C56.9524 160.606 37.4561 171.597 33.4874 174.997C33.1751 175.268 32.8542 175.533 32.5376 175.797C28.8465 178.88 25.9318 181.315 30.859 187.821C31.3405 188.453 31.9824 188.765 32.8281 188.777C32.8455 188.777 32.8672 188.777 32.8846 188.777C40.7872 188.78 59.789 165.172 59.9799 164.932C60.1273 164.749 60.3616 164.659 60.5958 164.697C60.7606 164.722 64.7336 165.258 66.1866 159.553C66.2603 159.257 66.5163 159.05 66.8372 159.064C69.4049 159.15 72.8487 158.808 73.9981 157.975L63.7317 156.155C63.5105 156.116 63.2893 156.097 63.0681 156.097ZM32.8759 190.078C32.8542 190.078 32.8325 190.077 32.8108 190.077C31.553 190.06 30.5511 189.565 29.8224 188.606C24.1492 181.111 27.9877 177.902 31.7048 174.799C32.0171 174.539 32.3294 174.277 32.6417 174.009C36.6146 170.606 54.8575 160.294 56.4319 159.409L59.4247 156.334C60.6044 155.126 62.296 154.581 63.9572 154.875L75.1432 156.857C75.4815 156.917 75.7157 157.23 75.6767 157.571C75.3731 160.242 69.4483 160.407 67.31 160.376C65.7442 165.669 62.0097 166.036 60.7823 166.01C58.5355 168.785 41.0257 190.075 32.8759 190.078Z" fill="#333A43"/>
<path d="M80.2434 320.53L73.707 340.011C73.707 340.011 80.8246 339.403 81.5056 339.537C82.1866 339.67 90.5099 321.771 90.5099 321.771L80.2434 320.53Z" fill="white"/>
<path d="M81.5977 338.893C81.6107 338.894 81.6194 338.896 81.6324 338.898C81.6194 338.896 81.6107 338.894 81.5977 338.893ZM80.6912 321.239L74.6406 339.28C76.6314 339.117 80.0753 338.854 81.2767 338.874C82.3133 337.488 86.6811 328.437 89.5437 322.309L80.6912 321.239ZM73.7081 340.661C73.5129 340.661 73.3221 340.57 73.2006 340.412C73.0618 340.24 73.0228 340.012 73.0922 339.804L79.6242 320.323C79.724 320.031 80.0145 319.847 80.3225 319.884L90.589 321.125C90.7972 321.15 90.9793 321.272 91.0791 321.454C91.1788 321.636 91.1875 321.856 91.1008 322.044C91.0791 322.089 88.9928 326.575 86.8502 330.987C82.3003 340.354 82.0097 340.298 81.3808 340.175C80.9254 340.111 77.1476 340.37 73.7645 340.659C73.7471 340.66 73.7297 340.661 73.7081 340.661Z" fill="#333A43"/>
<path d="M75.2029 335.729C75.2029 335.729 85.0313 331.704 86.8486 336.756C89.1561 343.181 92.7691 352.986 92.7691 352.986C93.385 354.69 92.2053 356.51 90.3966 356.658C86.8096 356.944 81.453 357.178 78.959 356.302C75.0164 354.924 68.4844 342.465 68.4844 342.465L70.4969 331.864C70.4969 331.864 74.0622 331.362 75.2029 335.729Z" fill="#FEC99E"/>
<path d="M69.1656 342.362C71.0436 345.906 76.1963 354.647 79.1718 355.691C80.9934 356.329 84.9621 356.441 90.3448 356.008C91.004 355.956 91.5896 355.609 91.9452 355.054C92.3052 354.499 92.3833 353.828 92.1578 353.203C92.1231 353.112 88.5187 343.331 86.233 336.976C85.951 336.192 85.4349 335.641 84.6498 335.293C81.4879 333.889 75.5111 336.307 75.4503 336.331C75.2768 336.402 75.0817 336.395 74.9125 336.311C74.7477 336.227 74.6219 336.076 74.5742 335.894C73.8108 332.981 71.9154 332.538 71.0393 332.495L69.1656 342.362ZM84.6151 357.568C82.2903 357.568 80.1217 357.404 78.7424 356.918C74.6783 355.492 68.5887 344.065 67.9077 342.767C67.8383 342.637 67.8167 342.487 67.8427 342.344L69.8595 331.743C69.9116 331.47 70.1328 331.26 70.406 331.22C70.4451 331.215 74.1578 330.744 75.6238 334.876C77.3805 334.246 82.1645 332.766 85.179 334.105C86.2893 334.597 87.0571 335.416 87.4604 336.536C89.7419 342.886 93.3462 352.661 93.3809 352.761C93.7452 353.771 93.6194 354.864 93.0382 355.756C92.4614 356.654 91.5158 357.217 90.4488 357.304C88.6488 357.451 86.5756 357.568 84.6151 357.568Z" fill="#333A43"/>
<path d="M90.2548 353.064H80.1662C79.8062 353.064 79.5156 352.774 79.5156 352.413C79.5156 352.054 79.8062 351.763 80.1662 351.763H90.2548C90.6148 351.763 90.9054 352.054 90.9054 352.413C90.9054 352.774 90.6148 353.064 90.2548 353.064Z" fill="#333A43"/>
<path d="M61.7188 325.316L63.9395 344.912L72.8657 342.465L72.1804 324.808L61.7188 325.316Z" fill="white"/>
<path d="M62.4435 325.932L64.4994 344.084L72.1982 341.974L71.5563 325.49L62.4435 325.932ZM63.9399 345.562C63.8098 345.562 63.684 345.524 63.5713 345.451C63.4151 345.344 63.311 345.175 63.2936 344.986L61.0729 325.39C61.0512 325.211 61.1076 325.032 61.2247 324.895C61.3375 324.758 61.5067 324.676 61.6888 324.667L72.1505 324.159C72.3196 324.151 72.4931 324.212 72.6189 324.329C72.749 324.446 72.8228 324.61 72.8315 324.783L73.5168 342.439C73.5298 342.741 73.3302 343.012 73.0396 343.092L64.1091 345.54C64.0527 345.555 63.9963 345.562 63.9399 345.562Z" fill="#333A43"/>
<path d="M63.0931 359.35H77.2242C79.1369 359.35 80.6029 357.655 80.3253 355.765C79.8526 352.574 78.3171 347.287 73.7065 340.011C73.2078 339.217 72.3273 338.733 71.3861 338.733H67.0878C66.3504 338.733 65.7259 339.292 65.6522 340.029L65.3269 343.127L63.4531 340.658C63.4531 340.658 60.1177 347.688 59.9616 356.164C59.9269 357.91 61.3408 359.35 63.0931 359.35Z" fill="#FEC99E"/>
<path d="M63.6141 341.944C62.7162 344.161 60.7297 349.78 60.6126 356.172C60.5996 356.844 60.8512 357.477 61.3196 357.954C61.7924 358.435 62.4213 358.7 63.0936 358.7H77.2246C77.9489 358.7 78.6342 358.387 79.107 357.837C79.5754 357.295 79.788 356.571 79.6795 355.86C79.2241 352.765 77.719 347.56 73.1605 340.358C72.7788 339.757 72.0978 339.384 71.3865 339.384H67.0882C66.6805 339.384 66.3422 339.69 66.2988 340.097L65.9735 343.195C65.9432 343.461 65.7567 343.682 65.5008 343.754C65.2449 343.825 64.9673 343.733 64.8068 343.52L63.6141 341.944ZM77.2246 360H63.0936C62.07 360 61.1114 359.597 60.3914 358.864C59.6757 358.136 59.2897 357.169 59.3114 356.151C59.4676 347.634 62.7292 340.672 62.868 340.38C62.9634 340.175 63.163 340.035 63.3885 340.012C63.614 339.989 63.8353 340.085 63.974 340.266L64.8502 341.423L65.002 339.961C65.1148 338.891 66.0126 338.083 67.0882 338.083H71.3865C72.5576 338.083 73.6333 338.674 74.2578 339.663C78.9422 347.057 80.4906 352.449 80.9677 355.67C81.1282 356.758 80.8072 357.859 80.0916 358.687C79.3716 359.523 78.3263 360 77.2246 360Z" fill="#333A43"/>
<path d="M78.9588 356.623H62.0432C61.6832 356.623 61.3926 356.333 61.3926 355.973C61.3926 355.617 61.6832 355.323 62.0432 355.323H78.9588C79.3144 355.323 79.6094 355.617 79.6094 355.973C79.6094 356.333 79.3144 356.623 78.9588 356.623Z" fill="#333A43"/>
<path d="M95.2545 207.63C94.8815 206.727 94.1355 206.035 93.203 205.743C88.0372 204.123 70.0243 199.855 51.4822 211.739C50.606 212.3 50.0465 213.24 49.9728 214.277C49.3005 223.693 46.8022 272.922 62.3862 331.21L72.8825 330.464L75.0209 230.801C75.0209 230.801 90.5702 267.337 77.9269 325.485L88.8439 327.499C88.8439 327.499 104.823 306.504 107.681 274.42C110.214 246.039 98.0868 214.525 95.2545 207.63Z" fill="#333A43"/>
<path d="M65.0585 285.128C65.0498 285.128 65.0411 285.128 65.0324 285.127C55.1216 284.7 54.0026 271.275 53.9939 271.139C53.9679 270.781 54.2369 270.47 54.5925 270.442C54.9568 270.415 55.2648 270.684 55.2908 271.042C55.2995 271.166 56.3361 283.451 65.0889 283.828C65.4489 283.844 65.7264 284.147 65.7091 284.506C65.6961 284.855 65.4055 285.128 65.0585 285.128Z" fill="white"/>
<path d="M75.9358 240.589C75.5845 240.589 75.2939 240.31 75.2852 239.958L74.9165 227.491C74.9078 227.273 75.0119 227.066 75.1898 226.94L81.7348 222.342C82.0298 222.136 82.4331 222.206 82.6413 222.5C82.8495 222.794 82.7758 223.199 82.4808 223.406L76.2264 227.802L76.5864 239.919C76.5951 240.278 76.3132 240.578 75.9532 240.588C75.9488 240.589 75.9401 240.589 75.9358 240.589Z" fill="white"/>
<path d="M60.0053 139.489C61.9354 138.213 63.0631 136.026 63.0067 133.715L62.7899 124.122C62.7248 124.061 62.6598 124 62.5947 123.94C62.5947 123.94 58.7475 124.195 58.1879 122.241C57.6284 120.281 60.3479 119.904 60.3479 119.904C60.3479 119.904 57.7802 114.503 64.425 114.568C66.2077 114.585 66.8453 111.629 69.773 110.966C69.773 110.966 71.2216 110.845 72.6876 114.637L75.9016 119.393L74.2968 120.273C74.6915 122.08 74.8606 124.074 74.6178 126.185C74.5484 126.796 74.1277 127.303 73.5465 127.494C73.0607 127.65 72.4144 127.815 71.6467 127.906L72.1628 134.326C72.3884 137.138 73.8631 139.697 76.1749 141.317C78.4043 142.882 80.4645 143.987 80.4645 143.987C80.4645 143.987 68.6192 145.606 55 142.499C55 142.499 57.6328 141.061 60.0053 139.489Z" fill="white"/>
<path d="M56.8089 142.222C66.2556 144.135 74.6873 143.823 78.3871 143.537C77.6497 143.087 76.7433 142.51 75.8021 141.849C73.3211 140.109 71.7553 137.386 71.5167 134.378L70.9963 127.958C70.9702 127.607 71.2218 127.299 71.5688 127.26C72.1804 127.191 72.7746 127.061 73.3471 126.874C73.6854 126.766 73.9327 126.467 73.9717 126.111C74.1842 124.256 74.0801 122.336 73.6594 120.411C73.5987 120.129 73.7288 119.839 73.9847 119.7L74.9606 119.163L72.15 115.002C72.1197 114.962 72.0979 114.919 72.0806 114.871C71.0049 112.089 70.0247 111.681 69.8165 111.625C68.5197 111.95 67.752 112.795 67.0103 113.614C66.2946 114.403 65.5529 115.218 64.4382 115.218C64.3949 115.218 64.3515 115.218 64.3081 115.218C62.5298 115.218 61.3674 115.63 60.8469 116.441C60.0445 117.689 60.9293 119.609 60.938 119.627C61.0248 119.817 61.0204 120.034 60.9206 120.216C60.8209 120.398 60.6431 120.52 60.4392 120.55C60.1356 120.593 59.2031 120.827 58.8778 121.33C58.7997 121.456 58.7043 121.668 58.8127 122.058C59.1554 123.246 61.6884 123.346 62.5515 123.29C62.7293 123.276 62.9115 123.342 63.0416 123.467L63.2324 123.645C63.3582 123.762 63.4363 123.931 63.4407 124.104L63.6575 133.702C63.7182 136.261 62.4864 138.628 60.3655 140.031C59.1163 140.858 57.7891 141.653 56.8089 142.222ZM72.5621 145.05C67.8691 145.05 61.5539 144.661 54.8571 143.133C54.5925 143.072 54.393 142.856 54.3583 142.588C54.3192 142.321 54.4537 142.058 54.6879 141.928C54.7139 141.914 57.325 140.485 59.6498 138.947C61.3934 137.792 62.4084 135.842 62.3563 133.732L62.1481 124.603C60.9597 124.612 58.1318 124.408 57.5636 122.418C57.3771 121.759 57.4551 121.135 57.7891 120.619C58.2055 119.978 58.9255 119.631 59.485 119.449C59.2117 118.552 58.9385 117.004 59.7452 115.743C60.5346 114.512 62.1004 113.9 64.4296 113.918C64.9544 113.931 65.3794 113.471 66.0474 112.739C66.8585 111.846 67.8734 110.732 69.63 110.333C69.656 110.324 69.6864 110.32 69.7167 110.32C70.0377 110.294 71.7119 110.355 73.269 114.334L76.4396 119.028C76.5437 119.18 76.5784 119.367 76.535 119.544C76.4917 119.722 76.3746 119.874 76.2141 119.96L75.03 120.611C75.3987 122.518 75.4767 124.417 75.2642 126.259C75.1645 127.121 74.5702 127.845 73.7461 128.114C73.2907 128.261 72.8223 128.378 72.3452 128.461L72.8136 134.274C73.0218 136.895 74.3837 139.267 76.548 140.785C78.721 142.307 80.7509 143.403 80.7726 143.414C81.0199 143.547 81.1543 143.825 81.1066 144.102C81.0546 144.379 80.8334 144.592 80.5514 144.631C80.4907 144.639 77.3808 145.05 72.5621 145.05Z" fill="#333A43"/>
<path d="M71.646 127.906C71.646 127.906 67.4301 128.053 65.7559 125.76L71.646 127.906Z" fill="white"/>
<path d="M71.474 128.556C70.5761 128.556 66.8894 128.417 65.2326 126.146C65.02 125.856 65.0851 125.448 65.3757 125.236C65.6619 125.023 66.0697 125.088 66.2822 125.379C67.7309 127.36 71.5824 127.256 71.6258 127.256C71.9641 127.238 72.285 127.524 72.298 127.884C72.3067 128.244 72.0291 128.543 71.6691 128.556C71.6474 128.556 71.5824 128.556 71.474 128.556Z" fill="#333A43"/>
<path d="M245.986 315.447H147.425C143.794 315.447 140.854 318.388 140.854 322.015C140.854 325.642 143.794 328.583 147.425 328.583H245.986C249.617 328.583 252.557 325.642 252.557 322.015C252.557 318.388 249.617 315.447 245.986 315.447Z" fill="#FEC99E"/>
<path d="M180.765 294.53H126.327C122.961 294.53 120.229 297.26 120.229 300.628C120.229 303.996 122.961 306.726 126.327 306.726H180.765C184.135 306.726 186.867 303.996 186.867 300.628C186.867 297.26 184.135 294.53 180.765 294.53Z" fill="#FEC99E"/>
<path d="M205.563 300.628C205.563 303.996 202.83 306.726 199.46 306.726C196.09 306.726 193.357 303.996 193.357 300.628C193.357 297.26 196.09 294.53 199.46 294.53C202.83 294.53 205.563 297.26 205.563 300.628Z" fill="#FEC99E"/>
<path d="M313.567 214.972H252.159C248.529 214.972 245.588 217.913 245.588 221.54C245.588 225.167 248.529 228.107 252.159 228.107H313.567C317.197 228.107 320.138 225.167 320.138 221.54C320.138 217.913 317.197 214.972 313.567 214.972Z" fill="#FEC99E"/>
<path d="M328.392 194.055H273.954C270.588 194.055 267.855 196.785 267.855 200.153C267.855 203.521 270.588 206.251 273.954 206.251H328.392C331.762 206.251 334.494 203.521 334.494 200.153C334.494 196.785 331.762 194.055 328.392 194.055Z" fill="#FEC99E"/>
<path d="M353.188 200.153C353.188 203.521 350.455 206.251 347.085 206.251C343.715 206.251 340.982 203.521 340.982 200.153C340.982 196.785 343.715 194.055 347.085 194.055C350.455 194.055 353.188 196.785 353.188 200.153Z" fill="#FEC99E"/>
<path d="M87.0479 48.3897H25.6399C22.0095 48.3897 19.0645 51.333 19.0645 54.9568C19.0645 58.585 22.0095 61.5239 25.6399 61.5239H87.0479C90.6782 61.5239 93.6189 58.585 93.6189 54.9568C93.6189 51.333 90.6782 48.3897 87.0479 48.3897Z" fill="#FEC99E"/>
<path d="M101.874 27.4749H47.4366C44.0665 27.4749 41.334 30.2015 41.334 33.5695C41.334 36.9376 44.0665 39.6685 47.4366 39.6685H101.874C105.245 39.6685 107.977 36.9376 107.977 33.5695C107.977 30.2015 105.245 27.4749 101.874 27.4749Z" fill="#FEC99E"/>
<path d="M126.666 33.5695C126.666 36.9376 123.933 39.6685 120.567 39.6685C117.197 39.6685 114.465 36.9376 114.465 33.5695C114.465 30.2015 117.197 27.4749 120.567 27.4749C123.933 27.4749 126.666 30.2015 126.666 33.5695Z" fill="#FEC99E"/>
<path d="M343.689 240.806H276.114C275.636 240.806 275.246 240.417 275.246 239.939C275.246 239.46 275.636 239.072 276.114 239.072H343.689C344.166 239.072 344.557 239.46 344.557 239.939C344.557 240.417 344.166 240.806 343.689 240.806Z" fill="#333A43"/>
<path d="M295.657 253.145H263.951C263.474 253.145 263.084 252.757 263.084 252.278C263.084 251.799 263.474 251.411 263.951 251.411H295.657C296.134 251.411 296.525 251.799 296.525 252.278C296.525 252.757 296.134 253.145 295.657 253.145Z" fill="#333A43"/>
<path d="M171.665 340.728H129.428C128.951 340.728 128.561 340.339 128.561 339.861C128.561 339.382 128.951 338.994 129.428 338.994H171.665C172.142 338.994 172.532 339.382 172.532 339.861C172.532 340.339 172.142 340.728 171.665 340.728Z" fill="#333A43"/>
<path d="M54.5495 75.3906H16.7366C16.2552 75.3906 15.8691 75.0048 15.8691 74.5237C15.8691 74.0469 16.2552 73.6567 16.7366 73.6567H54.5495C55.031 73.6567 55.417 74.0469 55.417 74.5237C55.417 75.0048 55.031 75.3906 54.5495 75.3906Z" fill="#333A43"/>
<path d="M167.667 15.2812H147.498C147.021 15.2812 146.631 14.8955 146.631 14.4143C146.631 13.9375 147.021 13.5474 147.498 13.5474H167.667C168.148 13.5474 168.534 13.9375 168.534 14.4143C168.534 14.8955 168.148 15.2812 167.667 15.2812Z" fill="#333A43"/>
<path d="M205.904 350.832H144.34C143.859 350.832 143.473 350.443 143.473 349.965C143.473 349.486 143.859 349.098 144.34 349.098H205.904C206.386 349.098 206.772 349.486 206.772 349.965C206.772 350.443 206.386 350.832 205.904 350.832Z" fill="#333A43"/>
</svg>
