<svg width="16" height="16" viewBox="0 0 16 16" fill="none" xmlns="http://www.w3.org/2000/svg">
<g clip-path="url(#clip0)">
<path d="M15.8033 11.9235C15.3958 11.1408 14.4733 10.8106 13.6099 11.1382C13.0077 11.3667 12.2714 11.6461 11.47 11.8671C11.5439 11.5112 11.5071 11.1344 11.3592 10.7761C11.1437 10.2537 10.7008 9.86503 10.144 9.70978C9.85933 9.63041 9.5504 9.61253 9.22577 9.65669C7.08449 9.94788 5.80943 9.22384 4.68443 8.58497C3.92833 8.15559 3.21415 7.75 2.37808 7.75C1.35965 7.75 0.441397 8.09103 0.441397 8.09103C0.11196 8.19412 -0.0715091 8.54478 0.0316159 8.87419C0.13471 9.20362 0.485397 9.387 0.814772 9.28397C0.814772 9.28397 1.54877 9 2.37808 9C2.88396 9 3.40612 9.2965 4.06718 9.67194C5.05705 10.2341 6.35671 10.9723 8.28868 10.9722C8.63605 10.9722 9.00415 10.9483 9.39427 10.8953C9.54699 10.8745 9.69018 10.8809 9.80824 10.9138C9.93999 10.9506 10.1155 11.0392 10.2037 11.2528C10.2721 11.4185 10.2755 11.5736 10.2138 11.7136C10.1382 11.8855 9.96593 12.0279 9.72874 12.1146C9.38705 12.2395 8.89968 12.3062 8.34683 12.3125C7.75227 12.3162 7.17193 12.2483 6.66196 12.1143C6.32808 12.0265 5.98633 12.2261 5.89862 12.5599C5.81087 12.8937 6.0104 13.2355 6.34424 13.3232C6.94165 13.4802 7.66443 13.5628 8.34683 13.5628V13.562C10.7229 13.5519 12.7571 12.7989 14.0534 12.3068C14.2707 12.2244 14.5592 12.2372 14.7002 12.5116C14.8175 12.7368 14.7311 13.0172 14.5078 13.1365C12.9392 13.9745 11.119 14.75 8.44412 14.75C6.0629 14.75 3.86952 13.8311 2.44883 13.0603C1.44299 12.5144 0.686585 12.6287 0.502647 12.6689C0.502178 12.669 0.00308467 12.7428 0.00308467 13.2812C0.00308467 13.6264 0.282897 13.9062 0.628085 13.9062C0.683803 13.9062 0.789053 13.8852 0.789053 13.8852C0.789053 13.8852 1.20462 13.8073 1.85268 14.1589C3.40062 14.9988 5.80068 16 8.44412 16C11.8006 16 14.0269 14.8106 15.0968 14.239C15.9216 13.7984 16.2352 12.7533 15.8033 11.9235Z" fill="#23282E"/>
<path d="M5.40115 6.13128C5.51743 6.32997 5.72643 6.44069 5.94115 6.44069C6.04837 6.44069 6.15702 6.41306 6.25624 6.35503L6.8159 6.02753C7.20443 6.44181 7.71392 6.74122 8.28745 6.86888V7.5C8.28745 7.84519 8.56727 8.125 8.91245 8.125C9.25764 8.125 9.53745 7.84519 9.53745 7.5V6.86888C10.099 6.74388 10.5992 6.45431 10.9845 6.05341L11.4999 6.35503C11.5991 6.41306 11.7077 6.44069 11.815 6.44069C12.0297 6.44069 12.2387 6.32997 12.355 6.13128C12.5293 5.83337 12.4292 5.45053 12.1312 5.27619L11.6353 4.98597C11.7339 4.696 11.7874 4.38538 11.7874 4.0625C11.7874 3.74003 11.734 3.42978 11.6357 3.14013L12.1323 2.84822C12.4298 2.67328 12.5293 2.29025 12.3543 1.99269C12.1794 1.69509 11.7964 1.59566 11.4988 1.77059L10.9853 2.07244C10.5999 1.67113 10.0993 1.38122 9.53739 1.25612V0.625C9.53739 0.279813 9.25758 0 8.91239 0C8.5672 0 8.28739 0.279813 8.28739 0.625V1.25612C7.71342 1.38388 7.20361 1.68366 6.81496 2.09844L6.25724 1.77059C5.95962 1.59572 5.57665 1.69512 5.40171 1.99269C5.22677 2.29022 5.32621 2.67328 5.62377 2.84822L6.17805 3.17406C6.08687 3.454 6.03737 3.75256 6.03737 4.06253C6.03737 4.37294 6.08702 4.67194 6.17846 4.95222L5.62484 5.27622C5.32699 5.45053 5.22681 5.83337 5.40115 6.13128ZM8.91245 2.4375C9.80848 2.4375 10.5375 3.16647 10.5375 4.0625C10.5375 4.95853 9.80848 5.6875 8.91245 5.6875C8.01642 5.6875 7.28746 4.95853 7.28746 4.0625C7.28746 3.16647 8.01642 2.4375 8.91245 2.4375Z" fill="#23282E"/>
</g>
<defs>
<clipPath id="clip0">
<rect width="16" height="16" fill="white"/>
</clipPath>
</defs>
</svg>
