<svg width="40" height="40" viewBox="0 0 40 40" fill="none" xmlns="http://www.w3.org/2000/svg">
<g clip-path="url(#clip0)">
<path d="M40 9.58344V30.4166C40 32.9501 37.9501 35 35.4166 35H4.58344C4.16656 35 3.76678 34.95 3.39996 34.8334C1.43341 34.3167 0 32.5333 0 30.4166V9.58344C0 7.04987 2.04987 5 4.58344 5H35.4166C37.9501 5 40 7.04987 40 9.58344Z" fill="#ECEFF1"/>
<path d="M11.6666 13.3334C11.6666 15.1743 10.1743 16.6666 8.33344 16.6666C6.49231 16.6666 5 15.1743 5 13.3334C5 11.4923 6.49231 10 8.33344 10C10.1743 10 11.6666 11.4923 11.6666 13.3334Z" fill="#FFC107"/>
<path d="M39.9985 26.5668V30.4166C39.9985 32.9501 37.9486 35 35.415 35H4.58191C4.16504 35 3.76526 34.95 3.39844 34.8334L23.7653 14.4666C24.8984 13.3334 26.7651 13.3334 27.8986 14.4666L39.9985 26.5668Z" fill="#388E3C"/>
<path d="M28.4332 35H4.58344C4.16656 35 3.76678 34.95 3.39996 34.8334C1.43341 34.3167 0 32.5333 0 30.4166V29.8999L9.59991 20.3C10.7333 19.1666 12.6001 19.1666 13.7332 20.3L28.4332 35Z" fill="#4CAF50"/>
</g>
<defs>
<clipPath id="clip0">
<rect width="40" height="40" fill="white"/>
</clipPath>
</defs>
</svg>
