<svg width="48" height="48" viewBox="0 0 48 48" fill="none" xmlns="http://www.w3.org/2000/svg">
<g clip-path="url(#clip0)">
<path d="M17.2128 43.668H13.8516V2.38427C13.8516 1.45614 14.604 0.703613 15.5322 0.703613C16.4603 0.703613 17.2129 1.45605 17.2129 2.38427V43.668H17.2128Z" fill="#FEC99E"/>
<path d="M15.5312 0.703613V43.6679H17.2119V2.38417C17.2118 1.45605 16.4594 0.703613 15.5312 0.703613Z" fill="#FEC99E"/>
<path d="M19.3912 43.668H11.6722C9.51907 43.668 7.64998 45.1717 7.16211 47.2966H23.9013C23.4135 45.1718 21.5444 43.668 19.3912 43.668Z" fill="#FB9946"/>
<path d="M19.3905 43.6714H15.1699C17.3231 43.6714 19.1922 45.1751 19.68 47.3H23.9007C23.4128 45.1752 21.5437 43.6714 19.3905 43.6714Z" fill="#F77935"/>
<path d="M17.2441 24.0032L40.839 13.8656L17.2441 3.72803V24.0032Z" fill="#FB9946"/>
<path d="M19.7765 4.81599L17.2441 3.72803V24.0032L19.7765 22.9151V4.81599Z" fill="#FB9946"/>
<path d="M19.3914 42.9644H17.916V35.7971C17.916 35.4085 17.6011 35.0937 17.2126 35.0937C16.8241 35.0937 16.5092 35.4085 16.5092 35.7971V42.9644H14.5549V11.0183C14.5549 10.6298 14.2399 10.3149 13.8514 10.3149C13.4629 10.3149 13.148 10.6298 13.148 11.0183V42.9645H11.6726C9.17774 42.9645 7.04127 44.6811 6.4768 47.139C6.4289 47.3479 6.47877 47.5672 6.61218 47.7348C6.74568 47.9024 6.94818 48 7.16249 48H23.9017C24.1159 48 24.3185 47.9024 24.452 47.7348C24.5855 47.5672 24.6353 47.3479 24.5874 47.139C24.0227 44.681 21.8862 42.9644 19.3914 42.9644ZM8.14958 46.593C8.79777 45.2506 10.1442 44.3712 11.6725 44.3712H19.3915C20.9198 44.3712 22.2662 45.2505 22.9143 46.593H8.14958Z" fill="#333A43"/>
<path d="M41.1167 13.2194L17.9164 3.25143V2.38406C17.9164 1.0695 16.8469 0 15.5324 0C14.2178 0 13.1484 1.0695 13.1484 2.38406V8.20461C13.1484 8.5932 13.4634 8.90802 13.8518 8.90802C14.2403 8.90802 14.5552 8.59311 14.5552 8.20461V2.38406C14.5552 1.84518 14.9936 1.40681 15.5324 1.40681C16.0712 1.40681 16.5096 1.84518 16.5096 2.38406V32.9833C16.5096 33.3718 16.8246 33.6868 17.2131 33.6868C17.6016 33.6868 17.9165 33.3718 17.9165 32.9833V24.48L33.3151 17.8638C33.6721 17.7105 33.8371 17.2968 33.6838 16.9398C33.5304 16.5828 33.1166 16.4179 32.7598 16.5712L17.9475 22.9352V4.79596L39.057 13.8657L35.3559 15.4559C34.9989 15.6093 34.834 16.023 34.9872 16.3799C35.1406 16.7368 35.5544 16.9019 35.9112 16.7485L41.1165 14.512C41.3748 14.401 41.5423 14.1469 41.5423 13.8657C41.5424 13.5845 41.375 13.3305 41.1167 13.2194Z" fill="#333A43"/>
</g>
<defs>
<clipPath id="clip0">
<rect width="48" height="48" fill="white"/>
</clipPath>
</defs>
</svg>
