<svg width="361" height="361" viewBox="0 0 361 361" fill="none" xmlns="http://www.w3.org/2000/svg">
<path d="M179.578 3.8757C155.781 7.88901 66.1825 22.9975 25.5465 105.414C-13.6701 184.948 7.81057 296.57 74.5176 340.543C181.58 411.116 352.558 272.787 344.603 216.135C341.622 194.924 314.416 191.28 309.822 162.313C302.556 116.513 365.204 91.8309 359.392 57.7653C352.688 18.4511 258.887 -9.49918 179.578 3.8757Z" fill="#FFF4E9"/>
<path d="M303.283 43.7007L287.873 48.7022L275.038 38.7859C272.281 36.6579 268.286 38.6299 268.278 42.1275L268.256 58.3888L254.903 67.59C252.03 69.5707 252.664 73.9957 255.973 75.0792L271.362 80.1327L275.948 95.731C276.932 99.0855 281.32 99.8483 283.369 97.0225L292.908 83.8773L309.09 84.3194C312.572 84.4148 314.647 80.4621 312.607 77.6276L303.111 64.4565L308.53 49.127C309.694 45.8331 306.592 42.6259 303.283 43.7007Z" fill="#FB9946"/>
<path d="M306.077 41.1612H306.082H306.077ZM275.286 36.0168C274.756 36.0168 274.216 36.1381 273.707 36.3938C272.465 37.0049 271.723 38.2011 271.719 39.588L271.697 55.8537C271.693 56.0704 271.589 56.2697 271.412 56.3911L258.064 65.588C256.921 66.3768 256.36 67.664 256.554 69.0422C256.752 70.4161 257.654 71.4953 258.966 71.9243L274.359 76.9778C274.562 77.0428 274.717 77.2032 274.777 77.4112L279.363 93.0095C279.752 94.3444 280.8 95.2805 282.163 95.5145C283.531 95.7529 284.825 95.2241 285.641 94.1016L295.18 80.9565C295.305 80.7874 295.516 80.6878 295.719 80.6921L311.902 81.1342C313.282 81.1732 314.494 80.4581 315.142 79.2315C315.789 78.005 315.689 76.5964 314.878 75.4739L305.383 62.2984C305.258 62.125 305.223 61.8997 305.296 61.7003L310.715 46.3708C311.177 45.0619 310.879 43.688 309.913 42.6912C308.951 41.6944 307.592 41.3563 306.276 41.781L290.87 46.7825C290.667 46.8475 290.442 46.8129 290.274 46.6785L277.439 36.7665C276.796 36.2681 276.046 36.0168 275.286 36.0168ZM282.785 96.8711C282.504 96.8711 282.224 96.8451 281.943 96.7974C280.11 96.481 278.647 95.1678 278.121 93.3779L273.634 78.1047L258.564 73.1595C256.8 72.5831 255.536 71.0748 255.273 69.2242C255.009 67.3779 255.799 65.5749 257.33 64.5174L270.403 55.5113L270.424 39.588C270.429 37.72 271.468 36.0514 273.134 35.2236C274.803 34.4001 276.753 34.5995 278.229 35.7351L290.792 45.4433L305.879 40.5458C307.643 39.9694 309.55 40.4461 310.845 41.7854C312.139 43.1246 312.557 45.0489 311.936 46.8085L306.63 61.813L315.927 74.7111C317.014 76.2237 317.152 78.187 316.285 79.8383C315.418 81.4896 313.722 82.4777 311.867 82.4344L296.025 82.001L286.685 94.8688C285.761 96.143 284.316 96.8711 282.785 96.8711Z" fill="#333A43"/>
<path d="M319.416 110.615C319.265 110.615 319.114 110.563 318.993 110.459C318.721 110.225 318.691 109.813 318.928 109.54C325.24 102.216 328.079 94.4493 327.362 86.4573C326.051 71.8212 313.138 61.2245 313.009 61.1161C312.733 60.8907 312.685 60.4834 312.91 60.2016C313.134 59.9243 313.544 59.8809 313.82 60.1019C314.368 60.5483 327.285 71.1407 328.648 86.3316C329.403 94.692 326.461 102.788 319.903 110.394C319.778 110.542 319.597 110.615 319.416 110.615Z" fill="#333A43"/>
<path d="M301.477 112.969C301.395 112.969 301.309 112.951 301.227 112.917C300.895 112.774 300.744 112.392 300.886 112.063C306.494 98.9048 297.193 88.178 297.098 88.074C296.861 87.8053 296.882 87.3935 297.15 87.1551C297.417 86.9168 297.823 86.9385 298.064 87.2072C298.164 87.3199 308.017 98.6447 302.072 112.574C301.969 112.821 301.732 112.969 301.477 112.969Z" fill="#333A43"/>
<path d="M21.5007 105.123C21.436 105.123 21.3713 105.114 21.3066 105.093C20.9658 104.989 20.7759 104.625 20.8838 104.282C28.7875 78.72 42.6362 61.1238 52.861 50.8608C63.9486 39.7353 73.3149 34.5778 73.4055 34.5258C73.7205 34.3567 74.113 34.4694 74.2813 34.7901C74.4538 35.1022 74.3374 35.4966 74.0224 35.67C73.9318 35.7176 64.6993 40.8101 53.7368 51.8186C43.6285 61.9733 29.9351 79.3831 22.1176 104.668C22.0313 104.945 21.7768 105.123 21.5007 105.123Z" fill="#333A43"/>
<path d="M22.2763 83.8965C22.2115 83.8965 22.1425 83.8879 22.0777 83.8662C21.7369 83.7535 21.5514 83.3851 21.6636 83.047C29.2653 59.6605 50.0903 43.0568 50.3017 42.8921C50.5821 42.6711 50.9876 42.7187 51.2119 43.0004C51.432 43.2822 51.3802 43.6939 51.0998 43.9149C50.8927 44.0753 30.3741 60.4493 22.8931 83.4501C22.8025 83.7231 22.5524 83.8965 22.2763 83.8965Z" fill="#333A43"/>
<path d="M229.194 16.7012C228.944 16.7012 228.702 16.5538 228.598 16.3024L227.291 13.2079C227.149 12.8785 227.304 12.4971 227.632 12.3584C227.96 12.2154 228.34 12.3715 228.482 12.7009L229.789 15.7953C229.927 16.1247 229.776 16.5061 229.444 16.6492C229.362 16.6838 229.276 16.7012 229.194 16.7012Z" fill="#333A43"/>
<path d="M232.239 23.9082C231.988 23.9082 231.747 23.7609 231.643 23.5138L230.336 20.4193C230.194 20.0899 230.349 19.7085 230.677 19.5655C231.009 19.4268 231.389 19.5785 231.527 19.9122L232.834 23.0067C232.972 23.3361 232.821 23.7175 232.493 23.8562C232.407 23.8909 232.325 23.9082 232.239 23.9082Z" fill="#333A43"/>
<path d="M224.933 20.9434C224.679 20.9434 224.441 20.796 224.334 20.549C224.196 20.2153 224.351 19.8339 224.679 19.6952L227.759 18.382C228.087 18.2389 228.467 18.395 228.609 18.7244C228.747 19.0581 228.592 19.4394 228.264 19.5781L225.184 20.8914C225.102 20.9261 225.015 20.9434 224.933 20.9434Z" fill="#333A43"/>
<path d="M232.107 17.8848C231.857 17.8848 231.616 17.7374 231.512 17.4904C231.374 17.1567 231.525 16.7753 231.853 16.6366L234.933 15.3234C235.265 15.1803 235.645 15.3363 235.783 15.6657C235.921 15.9951 235.77 16.3765 235.442 16.5195L232.362 17.8327C232.276 17.8674 232.194 17.8848 232.107 17.8848Z" fill="#333A43"/>
<path d="M212.251 10.1428H212.256H212.251ZM214.089 10.3941C213.554 10.3941 213.019 10.5111 212.515 10.7365C210.526 11.6336 209.624 14.026 210.5 16.0674C210.927 17.0642 211.708 17.827 212.7 18.2127C213.667 18.5898 214.724 18.5638 215.668 18.1347C217.657 17.2376 218.563 14.8452 217.683 12.8038C217.256 11.807 216.475 11.0486 215.487 10.6585C215.034 10.4851 214.564 10.3941 214.089 10.3941ZM214.094 19.7773C213.464 19.7773 212.834 19.6603 212.23 19.4219C210.914 18.9105 209.879 17.9007 209.313 16.5831C208.157 13.8917 209.357 10.7365 211.984 9.55331C213.252 8.98122 214.663 8.94224 215.957 9.44932C217.269 9.96074 218.309 10.9706 218.874 12.2881C220.03 14.9796 218.831 18.1347 216.199 19.3223C215.526 19.6257 214.81 19.7773 214.094 19.7773Z" fill="#333A43"/>
<path d="M108.945 14.1389C108.436 14.1389 107.918 14.2993 107.482 14.633C106.978 15.0188 106.654 15.5692 106.576 16.1933C106.499 16.8001 106.663 17.3982 107.038 17.8793C107.828 18.8934 109.316 19.0711 110.351 18.2823C110.856 17.8966 111.18 17.3418 111.262 16.7177C111.339 16.1153 111.175 15.5172 110.8 15.0318C110.343 14.4467 109.648 14.1389 108.945 14.1389ZM108.893 20.0723C107.806 20.0723 106.727 19.5955 106.016 18.6811C105.429 17.9226 105.17 16.9777 105.291 16.0242C105.416 15.0578 105.916 14.1953 106.701 13.5972C108.298 12.375 110.593 12.6611 111.818 14.23C112.409 14.9884 112.668 15.9333 112.543 16.8867C112.418 17.8576 111.917 18.72 111.137 19.3181C110.468 19.8252 109.678 20.0723 108.893 20.0723Z" fill="#333A43"/>
<path d="M240.992 57.6089C240.992 58.9958 240.729 59.8887 239.478 59.8887H193.393C192.142 59.8887 191.383 58.9958 191.383 57.6089V57.583C191.383 56.2004 192.142 55.4593 193.393 55.4593H239.478C240.729 55.4593 240.992 56.2004 240.992 57.583V57.6089Z" fill="white"/>
<path d="M190.576 56.8216C190.576 61.9922 186.404 66.1875 181.252 66.1875C176.105 66.1875 171.934 61.9922 171.934 56.8216C171.934 51.6511 176.105 47.4557 181.252 47.4557C186.404 47.4557 190.576 51.6511 190.576 56.8216Z" fill="#FB9946"/>
<path d="M184.756 51.9673C184.756 53.7356 183.333 55.6426 181.573 55.6426C179.812 55.6426 178.389 53.7356 178.389 51.9673C178.389 50.2034 179.812 48.9465 181.573 48.9465C183.333 48.9465 184.756 50.2034 184.756 51.9673Z" fill="white"/>
<path d="M177.62 62.4414H185.394C186.21 62.4414 186.934 61.9127 187.185 61.1282L187.603 59.815C187.91 58.8528 187.413 57.8127 186.469 57.4659C183.306 56.3044 180.032 56.4518 176.684 57.5743C175.743 57.8863 175.221 58.8962 175.48 59.854L175.804 61.0459C176.028 61.8693 176.77 62.4414 177.62 62.4414Z" fill="white"/>
<path d="M217.355 66.1875H193.933C193.368 66.1875 192.906 65.7238 192.906 65.156V64.0378C192.906 63.4701 193.368 63.0107 193.933 63.0107H217.355C217.916 63.0107 218.378 63.4701 218.378 64.0378V65.156C218.378 65.7238 217.916 66.1875 217.355 66.1875Z" fill="#FB9946"/>
<path d="M226.176 59.3301H193.681C193.12 59.3301 192.658 58.8663 192.658 58.2986V57.1804C192.658 56.6126 193.12 56.1532 193.681 56.1532H226.176C226.737 56.1532 227.198 56.6126 227.198 57.1804V58.2986C227.198 58.8663 226.737 59.3301 226.176 59.3301Z" fill="#FB9946"/>
<path d="M174.424 129.021H229.923C230.324 129.021 230.647 128.696 230.647 128.293V124.072C230.647 123.673 230.324 123.344 229.923 123.344H174.424C174.023 123.344 173.699 123.673 173.699 124.072V128.293C173.699 128.696 174.023 129.021 174.424 129.021Z" fill="#FEC99E"/>
<path d="M180.274 127.695C173.992 120.184 164.544 119.058 158.09 127.695H180.274Z" fill="#333A43"/>
<path d="M113.336 71.8824V92.4604C113.336 112.592 124.493 128.905 138.255 128.905C152.018 128.905 163.174 145.224 163.174 165.352C163.174 167.146 162.156 168.6 160.896 168.6H94.9314C74.3006 168.6 57.5742 144.139 57.5742 113.966V70.049C57.5742 58.0481 64.2268 48.3182 72.4325 48.3182H97.2222C106.123 48.3182 113.336 58.8672 113.336 71.8824Z" fill="#FEC99E"/>
<path d="M109.361 233.666H115.341V160.184H109.361V233.666Z" fill="#FEC99E"/>
<path d="M134.774 233.752L114.113 231.3H112.219L91.127 233.752V235.697H134.774V233.752Z" fill="#FEC99E"/>
<path d="M184.781 211.878L188.94 216.274C190.524 217.947 191.417 220.161 191.438 222.469L191.473 225.793L203.695 222.423C201.029 219.566 198.337 216.926 196.533 213.455L192.754 206.189L184.781 211.878Z" fill="white"/>
<path d="M189.247 221.642C188.992 223.428 188.988 226.663 188.953 229.633C188.932 231.499 190.33 233.072 192.167 233.31C197.379 233.981 210.382 234.643 220.443 233.726C221.129 233.663 222.35 233.159 222.687 231.431C223.826 225.63 213.782 224.208 202.768 220C202.336 219.835 201.844 219.932 201.517 220.255L200.326 221.411C199.139 222.567 197.375 222.895 195.852 222.242L190.649 220.845C190.032 220.581 189.337 220.976 189.247 221.642Z" fill="#FEC99E"/>
<path d="M189.237 229.063C189.237 229.063 189.233 229.364 189.229 229.509C189.207 231.375 190.601 232.948 192.443 233.186C197.65 233.857 210.382 234.643 220.442 233.726C221.128 233.663 222.349 233.159 222.686 231.431C222.789 230.901 222.729 229.946 222.729 229.946L222.013 229.982C211.848 230.485 201.658 230.241 191.524 229.249L189.237 229.063Z" fill="#FB9946"/>
<path d="M149.9 213.649C153.347 208.768 156.596 198.673 156.596 198.673L164.275 204.049L160.216 210.956C158.857 212.736 158.853 215.426 159.405 217.599L160.867 221.629L149.9 213.649Z" fill="white"/>
<path d="M150.079 210.93C148.966 212.345 146.951 215.003 145.432 217.554C144.479 219.155 144.893 221.219 146.364 222.357C148.353 223.891 154.462 227.805 158.44 230.323C160.787 231.809 163.475 232.669 166.244 232.823L170.175 233.043C171.434 233.113 172.699 232.999 173.911 232.658C175.119 232.318 176.34 231.759 176.392 230.881C176.53 228.557 174.239 227.054 172.233 226.188C169.968 225.211 167.97 223.701 166.348 221.839C164.648 219.895 162.582 217.491 161.123 215.677C160.834 215.317 160.368 215.159 159.92 215.269L158.315 215.666C156.706 216.063 155.019 215.454 154.035 214.121L151.688 210.956C151.291 210.417 150.493 210.403 150.079 210.93Z" fill="#FEC99E"/>
<path d="M145.665 217.173C145.665 217.173 145.506 217.43 145.432 217.555C144.479 219.155 144.893 221.22 146.364 222.357C149.445 224.735 155.575 229.059 162.336 232.755C166.18 234.858 172.996 233.925 174.446 233.708C175.455 233.558 176.297 232.871 176.327 231.845L176.383 230.206C176.383 230.206 167.483 231.497 164.135 229.319C158.203 225.455 152.521 222.144 146.783 217.983L145.665 217.173Z" fill="#FB9946"/>
<path d="M124.49 132.22C124.49 132.22 172.926 130.595 190.144 140.893C206.508 150.677 162.127 210.604 162.127 210.604L152.895 205.525L164.569 165.342C165.38 162.396 163.676 159.343 160.747 158.507L118.941 146.581L124.49 132.22Z" fill="#FB9946"/>
<path d="M99.6182 159.87C107.021 162.23 114.507 161.923 133.015 161.669C138.274 161.597 145.716 166.297 148.106 171.004C153.585 181.804 168.603 204.765 187.931 217.369L197.159 212.373L170.45 155.58C168.301 150.715 164.276 146.934 159.302 145.102L112.608 127.899C112.608 127.899 100.408 124.072 93.3108 137.058C92.0424 139.376 91.1796 141.467 90.6187 143.338C88.6989 149.753 93.2633 157.844 99.6182 159.87Z" fill="#FB9946"/>
<path d="M183.324 182.17C183.078 182.17 182.841 182.028 182.733 181.788L171.314 156.491C169.359 152.076 164.333 147.646 159.078 145.711L136.717 137.474C136.385 137.351 136.213 136.978 136.333 136.64C136.459 136.303 136.83 136.129 137.166 136.255L159.527 144.491C165.079 146.537 170.412 151.253 172.496 155.959L183.911 181.251C184.058 181.578 183.915 181.963 183.588 182.111C183.501 182.151 183.411 182.17 183.324 182.17Z" fill="#FFF4E9"/>
<path d="M169.146 202.5C168.973 202.5 168.801 202.431 168.671 202.293C167.14 200.638 165.315 198.401 163.248 195.644C163.032 195.358 163.088 194.95 163.378 194.734C163.662 194.518 164.068 194.575 164.284 194.862C166.32 197.583 168.119 199.785 169.62 201.407C169.862 201.67 169.849 202.081 169.586 202.326C169.461 202.442 169.305 202.5 169.146 202.5Z" fill="#FFF4E9"/>
<path d="M100.713 57.5447C100.713 57.5447 107.227 56.4829 112.638 53.7005C114.872 52.552 120.886 50.4759 124.545 54.9617C127.22 58.2425 130.628 62.6589 134.502 66.5119C136.111 68.1112 136.638 70.5469 136.638 70.5469C136.638 70.5469 131.525 69.5848 122.211 66.5076C112.896 63.4304 100.713 57.5447 100.713 57.5447Z" fill="#FEC99E"/>
<path d="M142.948 74.6072C143.837 74.3775 144.363 75.292 145.187 76.1285C149.298 80.3152 153.923 83.9558 158.734 87.293C163.41 90.5435 168.29 93.5773 172.695 97.2179C173.618 97.9764 174.519 98.7652 175.335 99.6363C177.846 102.328 179.472 105.825 179.947 109.479C180.158 111.083 179.688 111.962 178.89 113.336C178.743 113.592 177.544 115.859 177.112 115.603C168.51 110.536 159.04 106.957 149.247 105.071C144.868 104.226 141.649 102.54 138.72 99.0903C134.979 94.6782 132.809 88.3591 135.657 82.8939C136.498 81.2773 137.715 79.8948 138.936 78.5469C139.98 77.3983 141.101 75.7514 142.383 74.8802C142.59 74.7416 142.775 74.6505 142.948 74.6072Z" fill="#333A43"/>
<path d="M114.808 149.928C114.808 149.928 100.278 157.334 91.3127 151.065C89.889 150.066 88.8061 143.319 88.2797 141.695C80.4192 117.493 84.8585 82.526 110.192 67.2571C119.597 61.5882 130.857 67.1271 137.121 70.525C139.404 71.7602 142.661 73.9619 143.023 74.1742C148.873 77.6155 130.698 101.084 131.107 116.249C131.349 125.372 133.61 128.926 135.37 130.313C136.375 131.102 136.599 132.532 135.827 133.551C132.73 137.64 125.413 145.989 114.808 149.928Z" fill="#333A43"/>
<path d="M131.516 79.0939C132.09 83.6056 133.462 89.3439 136.719 95.2295C147.112 114.013 163.881 119.375 167.997 120.194L161.996 125.238C161.996 125.238 123.496 129.031 110.833 90.6615C110.833 90.6615 105.954 75.488 116.796 71.739C119.056 70.9589 122.024 70.5038 124.863 71.6177C129.781 73.542 131.322 78.4438 131.516 79.0939Z" fill="#333A43"/>
<path d="M102.399 72.9962C102.399 72.9962 97.9342 72.8619 95.872 70.0664C91.6699 64.3802 91.1737 52.9513 114.406 59.175C121.986 61.2077 129.398 68.0338 129.398 68.0338L135.749 75.0723L102.399 72.9962Z" fill="#333A43"/>
<path d="M105.17 71.6875C105.006 71.6875 104.838 71.6225 104.713 71.4925C104.458 71.2411 104.463 70.8294 104.713 70.5736C105.019 70.2659 112.353 63.0584 121.892 64.363C122.25 64.4106 122.496 64.7357 122.449 65.0911C122.401 65.4508 122.073 65.6978 121.72 65.6501C112.806 64.4323 105.696 71.4274 105.627 71.4968C105.502 71.6225 105.334 71.6875 105.17 71.6875Z" fill="white"/>
<path d="M135.348 121.541C135.227 121.541 135.111 121.511 135.003 121.441C134.002 120.813 110.429 105.756 108.776 87.2847C108.742 86.925 109.005 86.6086 109.363 86.5783C109.713 86.5436 110.032 86.8079 110.066 87.1677C111.658 105.007 135.451 120.189 135.689 120.34C135.995 120.531 136.086 120.934 135.896 121.238C135.771 121.433 135.559 121.541 135.348 121.541Z" fill="white"/>
<path d="M141.547 96.8496C141.439 96.8496 141.331 96.8236 141.232 96.7672C140.921 96.5939 140.809 96.1995 140.981 95.8831C144.718 89.1177 143.85 81.6241 143.842 81.5504C143.799 81.195 144.053 80.87 144.407 80.8266C144.761 80.7833 145.084 81.0347 145.127 81.3901C145.166 81.7151 146.051 89.382 142.112 96.5159C141.995 96.7282 141.775 96.8496 141.547 96.8496Z" fill="white"/>
<path d="M145.11 105.986C144.937 105.986 144.765 105.913 144.635 105.778C136.883 97.3616 131.265 88.5808 129.229 81.694C129.13 81.3473 129.324 80.9875 129.665 80.8835C130.006 80.7838 130.368 80.9789 130.472 81.3213C132.452 88.0261 137.961 96.6204 145.584 104.894C145.83 105.159 145.813 105.566 145.55 105.813C145.425 105.926 145.269 105.986 145.11 105.986Z" fill="white"/>
<path d="M90.1475 149.611C89.88 149.611 89.6298 149.444 89.5392 149.177C88.9999 147.637 88.5512 145.644 88.1888 144.042C87.9774 143.109 87.7962 142.304 87.6668 141.897C81.122 121.762 82.5069 91.796 101.006 73.5714C101.261 73.32 101.671 73.3243 101.921 73.58C102.171 73.8357 102.167 74.2475 101.912 74.4988C83.8098 92.3334 82.4724 121.731 88.8963 141.493C89.0473 141.957 89.2242 142.751 89.4529 143.755C89.8066 145.324 90.2466 147.277 90.76 148.745C90.8765 149.084 90.6997 149.455 90.3632 149.575C90.2941 149.599 90.2208 149.611 90.1475 149.611Z" fill="white"/>
<path d="M102.397 73.6465C102.392 73.6465 102.384 73.6465 102.379 73.6465C102.181 73.6422 97.5732 73.4645 95.347 70.4523C93.1985 67.5442 91.9647 63.2318 94.0441 60.1503C95.8993 57.4068 100.964 54.9018 114.571 58.5467C119.231 59.7949 123.804 62.7854 126.815 65.0737C127.1 65.2905 127.156 65.6979 126.94 65.9839C126.725 66.2699 126.319 66.3263 126.034 66.1096C123.114 63.8949 118.696 60.9954 114.235 59.8036C104.196 57.1121 97.4049 57.4978 95.114 60.8827C93.4013 63.4181 94.5747 67.2234 96.3867 69.6808C98.2375 72.1816 102.375 72.3463 102.418 72.3463C102.776 72.3593 103.057 72.6583 103.044 73.018C103.035 73.3691 102.746 73.6465 102.397 73.6465Z" fill="white"/>
<path d="M160.162 125.282C160.499 125.083 163.592 120.272 166.983 119.266C170.378 118.265 177.76 125.75 177.76 125.75L160.162 125.282Z" fill="white"/>
<path d="M161.509 124.667L176.109 125.057C173.244 122.409 169.085 119.327 167.165 119.891C164.887 120.567 162.666 123.211 161.509 124.667ZM177.761 126.4C177.757 126.4 177.748 126.4 177.744 126.4L160.146 125.932C159.861 125.924 159.611 125.724 159.538 125.447C159.473 125.191 159.568 124.922 159.771 124.766C159.84 124.693 160.029 124.45 160.198 124.233C161.311 122.816 163.912 119.496 166.803 118.642C170.461 117.568 177.438 124.498 178.223 125.291C178.408 125.482 178.46 125.763 178.356 126.006C178.253 126.244 178.02 126.4 177.761 126.4Z" fill="#333A43"/>
<path d="M178.241 117.268C177.348 116.622 177.606 115.231 178.672 114.945C180.57 114.434 183.142 113.957 185.079 114.585C187.158 115.257 188.681 119.457 189.54 122.573C189.872 123.765 188.526 124.71 187.525 123.986L178.241 117.268Z" fill="white"/>
<path d="M178.62 116.743L187.904 123.461C188.253 123.712 188.573 123.526 188.659 123.465C188.75 123.404 189.034 123.166 188.918 122.746C187.714 118.394 186.243 115.647 184.88 115.204C183.473 114.749 181.441 114.871 178.84 115.573C178.585 115.638 178.404 115.833 178.356 116.093C178.313 116.349 178.408 116.591 178.62 116.743ZM188.288 124.887C187.891 124.887 187.49 124.765 187.149 124.514L177.865 117.796C177.248 117.35 176.946 116.609 177.084 115.859C177.222 115.105 177.765 114.511 178.503 114.316C181.389 113.54 183.607 113.423 185.277 113.965C187.14 114.567 188.784 117.406 190.165 122.399C190.389 123.214 190.091 124.05 189.401 124.531C189.06 124.77 188.676 124.887 188.288 124.887Z" fill="#333A43"/>
<path d="M139.748 53.9044C140.08 54.6585 139.088 55.9414 139.083 55.9414C139.066 55.9327 139.925 51.9498 142.263 51.1783C143.622 50.7276 144.187 51.7851 146.141 51.7287C148.221 51.6681 150.641 50.3895 151.728 48.2528C153.04 45.6697 151.845 42.9393 151.094 41.2187C150.348 39.5067 149.364 37.5824 147.414 36.5856C144.864 35.2854 143.587 36.7156 140.649 35.4327C138.259 34.3882 138.57 33.2094 136.439 32.3382C134.661 31.6101 129.337 31.3327 127.849 34.0328C126.904 35.7448 128.405 37.0103 127.31 39.5804C126.65 41.1233 125.869 41.236 125.178 42.4106C123.47 45.3144 124.613 50.8749 127.711 53.0333C131.913 55.9631 138.962 52.1188 139.748 53.9044Z" fill="#333A43"/>
<path d="M137.604 55.86C137.669 61.2776 137.552 66.4351 137.056 71.9306C137.039 72.143 137.013 72.364 136.884 72.5287C136.72 72.7368 136.439 72.7931 136.176 72.8321C133.613 73.1962 130.779 72.3294 128.54 71.1245C125.451 69.4689 124.605 67.7743 124.1 64.359C123.997 63.6613 123.945 62.8551 124.428 62.3437C124.592 62.1747 124.799 62.0533 124.968 61.8886C125.183 61.6763 125.321 61.4032 125.459 61.1302C126.111 59.817 126.767 58.4994 127.237 57.1125C127.824 55.3876 127.302 51.89 128.1 50.5248C128.846 49.2549 129.467 50.2474 130.675 51.0752C132.992 52.6571 135.3 54.2564 137.604 55.86Z" fill="white"/>
<path d="M128.86 50.5676C128.86 50.5806 128.783 50.6456 128.657 50.8536C128.308 51.4561 128.265 52.8256 128.226 54.0392C128.187 55.2224 128.148 56.4446 127.851 57.3244C127.363 58.7546 126.69 60.1112 126.039 61.42C125.896 61.7061 125.719 62.0658 125.422 62.3562C125.323 62.4515 125.219 62.5339 125.107 62.6162C125.029 62.6812 124.952 62.7376 124.9 62.7939C124.615 63.093 124.658 63.7041 124.74 64.2632C125.202 67.3923 125.875 68.957 128.847 70.5519C131.341 71.8911 133.977 72.4892 136.087 72.1858C136.302 72.1555 136.367 72.1295 136.389 72.1121C136.393 72.0905 136.406 71.9388 136.415 71.8738C136.855 66.9546 137.027 62.1091 136.962 56.2018C134.982 54.8279 132.674 53.2244 130.314 51.6121C130.042 51.4214 129.796 51.2307 129.585 51.0617C129.335 50.8623 128.994 50.5936 128.86 50.5676ZM134.93 73.5684C132.169 73.5684 129.62 72.4415 128.235 71.7004C124.814 69.8628 123.968 67.8994 123.463 64.4539C123.334 63.5827 123.295 62.5989 123.964 61.8968C124.084 61.7668 124.209 61.6714 124.322 61.5847C124.391 61.5327 124.455 61.485 124.516 61.4244C124.658 61.2857 124.766 61.069 124.882 60.8393C125.512 59.565 126.168 58.2518 126.625 56.904C126.863 56.2062 126.897 55.0837 126.932 53.9958C126.979 52.4962 127.027 51.079 127.544 50.1949C127.855 49.6618 128.213 49.367 128.636 49.289C129.283 49.1677 129.818 49.5924 130.387 50.0388C130.595 50.2035 130.806 50.3726 131.043 50.5373C133.515 52.2275 135.931 53.9048 137.972 55.322C138.145 55.4434 138.248 55.6384 138.252 55.8508C138.326 61.9575 138.157 66.933 137.7 71.9908C137.679 72.2378 137.644 72.6106 137.39 72.9356C137.049 73.3647 136.522 73.4384 136.268 73.4774C135.819 73.538 135.375 73.5684 134.93 73.5684Z" fill="#333A43"/>
<path d="M129.494 51.4936C129.494 51.4936 126.267 49.8511 127.837 47.1899C129.403 44.5288 131.237 46.8216 131.237 46.8216C131.237 46.8216 133.894 40.1384 137.618 43.2936C141.345 46.4531 145.042 47.8574 145.042 47.8574C145.042 47.8574 142.877 54.6402 139.835 58.9786C137.997 61.592 135.844 63.3213 133.657 62.1337C127.669 58.8875 129.494 51.4936 129.494 51.4936Z" fill="white"/>
<path d="M130.125 51.6509C130.056 51.9326 128.498 58.5983 133.969 61.5628C135.535 62.4123 137.334 61.4198 139.305 58.6027C141.752 55.1138 143.65 49.9346 144.236 48.227C143.033 47.6982 140.142 46.2853 137.204 43.7932C136.501 43.1995 135.837 42.9871 135.177 43.1561C133.559 43.5592 132.217 46.112 131.837 47.0654C131.751 47.2778 131.561 47.4295 131.333 47.4642C131.108 47.4989 130.875 47.4078 130.733 47.2301C130.569 47.0308 130.034 46.5193 129.508 46.5584C129.033 46.593 128.64 47.1045 128.395 47.5205C128.062 48.0796 127.976 48.5954 128.123 49.1024C128.442 50.2033 129.775 50.9097 129.788 50.9141C130.056 51.0528 130.198 51.3561 130.125 51.6509ZM135.086 63.1621C134.422 63.1621 133.839 62.9714 133.352 62.707C127.911 59.7555 128.485 53.5839 128.774 51.8199C128.2 51.4342 127.217 50.6324 126.88 49.4665C126.63 48.6084 126.764 47.7329 127.277 46.8617C127.868 45.8562 128.589 45.3188 129.421 45.2625C130.064 45.2148 130.612 45.4705 131.018 45.7522C131.639 44.5344 132.981 42.363 134.862 41.8949C135.94 41.6219 137.01 41.9296 138.037 42.8008C141.635 45.8519 145.237 47.2388 145.272 47.2518C145.595 47.3732 145.764 47.7286 145.66 48.058C145.57 48.3397 143.425 54.9837 140.362 59.3525C138.313 62.2779 136.51 63.1621 135.086 63.1621Z" fill="#333A43"/>
<path d="M136.34 58.1562C136.215 58.1562 136.09 58.1172 135.978 58.0435L131.646 55.1311C129.079 53.4061 128.143 50.1036 129.411 47.2734L130.507 44.8377C130.654 44.5127 131.038 44.3653 131.366 44.5127C131.689 44.66 131.836 45.0457 131.689 45.3751L130.594 47.8109C129.584 50.0559 130.33 52.678 132.367 54.0519L136.698 56.9644C136.996 57.1638 137.078 57.5668 136.879 57.8659C136.754 58.0522 136.547 58.1562 136.34 58.1562Z" fill="#FB9946"/>
<path d="M128.571 45.1875C128.48 45.1875 128.385 45.1701 128.299 45.1268C127.976 44.9751 127.833 44.5894 127.984 44.2644C128.183 43.8396 132.786 34.1227 139.184 34.1227C139.326 34.1227 139.473 34.127 139.62 34.14C139.973 34.1617 140.245 34.4737 140.219 34.8334C140.194 35.1888 139.879 35.4619 139.529 35.4359C139.413 35.4272 139.296 35.4229 139.184 35.4229C133.601 35.4229 129.201 44.7194 129.158 44.8148C129.05 45.0488 128.817 45.1875 128.571 45.1875Z" fill="#FB9946"/>
<path d="M137.856 58.4206C138.219 57.6491 137.874 56.7217 137.088 56.3489C136.303 55.9805 135.376 56.31 135.013 57.0814C134.651 57.8572 134.996 58.7847 135.781 59.1531C136.566 59.5258 137.494 59.1964 137.856 58.4206Z" fill="#FB9946"/>
<path d="M132.867 47.9102C133.713 45.2664 132.44 42.4883 130.028 41.7082C129.761 41.6258 128.764 41.4091 128.492 41.3788C126.322 41.1187 124.877 42.731 124.122 45.0887C123.311 47.6285 123.842 50.2462 126.072 51.1434C126.167 51.1781 126.84 51.3644 126.939 51.3818C129.649 51.9019 132.021 50.5583 132.867 47.9102Z" fill="#FEC99E"/>
<path d="M131.815 47.6233C132.608 44.9578 131.284 42.2101 128.855 41.4776C126.426 40.7452 123.812 42.3097 123.013 44.9708C122.22 47.6319 123.544 50.3841 125.973 51.1165C128.406 51.849 131.016 50.2844 131.815 47.6233Z" fill="#FB9946"/>
<path d="M73.4941 136.723H264.357C265.051 136.723 265.617 136.155 265.617 135.458V129.143C265.617 128.441 265.051 127.877 264.357 127.877H73.4941C72.7995 127.877 72.2344 128.441 72.2344 129.143V135.458C72.2344 136.155 72.7995 136.723 73.4941 136.723Z" fill="#FEC99E"/>
<path d="M73.4948 128.528C73.1582 128.528 72.8822 128.801 72.8822 129.143V135.458C72.8822 135.796 73.1582 136.073 73.4948 136.073H264.357C264.694 136.073 264.97 135.796 264.97 135.458V129.143C264.97 128.801 264.694 128.528 264.357 128.528H73.4948ZM264.357 137.373H73.4948C72.4421 137.373 71.5879 136.513 71.5879 135.458V129.143C71.5879 128.086 72.4421 127.227 73.4948 127.227H264.357C265.41 127.227 266.264 128.086 266.264 129.143V135.458C266.264 136.513 265.41 137.373 264.357 137.373Z" fill="#333A43"/>
<path d="M136.282 134.865C135.924 134.865 135.635 134.575 135.635 134.215V130.15C135.635 129.79 135.924 129.5 136.282 129.5C136.64 129.5 136.929 129.79 136.929 130.15V134.215C136.929 134.575 136.64 134.865 136.282 134.865Z" fill="#FB9946"/>
<path d="M243.25 116.885L172.052 117.037C171.43 117.037 170.999 116.586 171.042 115.98L174.243 72.5611C174.321 71.5036 175.309 70.5068 176.396 70.5068L246.624 70.5675L243.25 116.885Z" fill="#333A43"/>
<path d="M176.39 71.1572C175.674 71.1572 174.94 71.8636 174.884 72.6091L171.688 116.028C171.679 116.101 171.687 116.205 171.761 116.283C171.821 116.353 171.925 116.387 172.05 116.387L242.644 116.24L245.927 71.2178L176.39 71.1572ZM243.248 116.886H243.252H243.248ZM172.05 117.688C171.562 117.688 171.122 117.505 170.812 117.167C170.51 116.842 170.363 116.4 170.398 115.932L173.594 72.5137C173.698 71.0965 175.005 69.857 176.394 69.857L246.622 69.9176C246.803 69.9176 246.976 69.9957 247.096 70.1257C247.222 70.2601 247.282 70.4377 247.269 70.6154L243.891 116.933C243.865 117.271 243.585 117.536 243.248 117.536L172.05 117.688Z" fill="#333A43"/>
<path d="M244.716 116.834H174.976C174.355 116.834 173.919 116.379 173.966 115.768L177.12 72.7437C177.206 71.5476 178.367 70.4857 179.592 70.4857H248.435C249.056 70.4857 249.487 70.9408 249.444 71.5519L246.222 115.456C246.17 116.184 245.462 116.834 244.716 116.834Z" fill="white"/>
<path d="M179.59 71.1361C178.715 71.1361 177.826 71.9423 177.765 72.7917L174.607 115.816C174.603 115.894 174.612 115.998 174.685 116.076C174.745 116.145 174.849 116.184 174.974 116.184H244.714C245.12 116.184 245.547 115.798 245.577 115.408L248.795 71.5045C248.804 71.4265 248.795 71.3225 248.722 71.2445C248.657 71.1751 248.558 71.1361 248.433 71.1361H179.59ZM244.714 117.484H174.974C174.487 117.484 174.047 117.298 173.736 116.964C173.43 116.635 173.283 116.193 173.317 115.72L176.471 72.692C176.583 71.1751 178.041 69.8359 179.59 69.8359H248.433C248.92 69.8359 249.36 70.0223 249.671 70.356C249.973 70.6854 250.12 71.1275 250.085 71.5999L246.867 115.504C246.789 116.579 245.801 117.484 244.714 117.484Z" fill="#333A43"/>
<path d="M202.209 127.436H212.882L215.544 98.4278C215.579 98.0811 215.342 97.821 214.996 97.821H206.126C205.445 97.821 204.88 98.3541 204.815 99.0562L202.209 127.436Z" fill="#333A43"/>
<path d="M203.885 127.436H214.558L217.181 98.4191H206.508L203.885 127.436Z" fill="#FFF4E9"/>
<path d="M204.592 126.786H213.967L216.473 99.0695H207.099L204.592 126.786ZM214.558 128.086H203.884C203.699 128.086 203.526 128.008 203.405 127.874C203.28 127.739 203.22 127.562 203.237 127.379L205.865 98.3587C205.895 98.025 206.175 97.7693 206.507 97.7693H217.181C217.362 97.7693 217.539 97.8473 217.66 97.9816C217.781 98.116 217.841 98.298 217.828 98.48L215.201 127.496C215.17 127.83 214.89 128.086 214.558 128.086Z" fill="#333A43"/>
<path d="M222.017 127.977H193.108C192.81 127.977 192.568 127.734 192.568 127.435V123.439C192.568 123.14 192.81 122.897 193.108 122.897H222.017C222.315 122.897 222.557 123.14 222.557 123.439V127.435C222.557 127.734 222.315 127.977 222.017 127.977Z" fill="#333A43"/>
<path d="M224.067 127.531H194.078V123.345H224.067V127.531Z" fill="#FFF4E9"/>
<path d="M194.726 126.881H223.42V123.995H194.726V126.881ZM224.067 128.182H194.079C193.721 128.182 193.432 127.891 193.432 127.532V123.345C193.432 122.985 193.721 122.695 194.079 122.695H224.067C224.425 122.695 224.714 122.985 224.714 123.345V127.532C224.714 127.891 224.425 128.182 224.067 128.182Z" fill="#333A43"/>
<path d="M253.891 226.836C253.533 226.836 253.24 226.544 253.244 226.185L253.317 139.139C253.322 138.78 253.611 138.489 253.965 138.489C254.323 138.489 254.616 138.781 254.612 139.14L254.538 226.186C254.534 226.545 254.245 226.836 253.891 226.836Z" fill="#333A43"/>
<path d="M246.624 208.656C246.266 208.656 245.977 208.365 245.977 208.006V142.18C245.977 141.82 246.266 141.53 246.624 141.53C246.982 141.53 247.271 141.82 247.271 142.18V208.006C247.271 208.365 246.982 208.656 246.624 208.656Z" fill="#333A43"/>
<path d="M153.457 205.333L143.086 204.787C140.76 217.136 138.845 245.149 109.801 256.604C106.643 257.85 103.438 259.287 100.314 260.44C97.0007 261.664 92.9454 260.791 89.6493 259.978C86.172 259.121 82.4358 257.842 78.8032 258.208C75.8264 258.508 72.7935 259.115 69.8296 259.663C63.5178 260.831 57.1715 261.59 51.4551 257.979C50.0099 257.065 48.4956 255.051 47.197 253.816C45.5317 252.239 43.9139 250.611 42.3392 248.945C28.4602 234.283 16.0869 216.348 10.349 196.781L3.35118 199.057C3.35118 199.057 0.913656 242.564 16.6521 265.542C24.7542 277.365 31.9418 284.918 37.8437 289.358C42.283 292.695 45.2642 297.63 45.9933 303.149C46.3686 306.024 46.7785 308.893 47.2056 311.758C48.6552 321.529 42.3909 348.162 47.348 356.776C50.4198 362.12 79.1613 360.057 93.269 358.444C96.4701 358.08 98.981 355.515 99.283 352.29C99.7748 346.938 100.193 340.146 100.607 336.672C101.587 328.375 103.537 320.077 105.78 312.043C106.427 309.739 107.174 307.467 107.907 305.196C110.31 297.763 115.112 291.305 121.652 287.075C163.414 260.067 153.457 205.333 153.457 205.333Z" fill="#FB9946"/>
<path d="M10.1805 198.83C10.7241 198.491 11.2505 198.065 11.7466 197.559C14.2489 195.002 18.3302 188.704 14.5595 185.563C11.7207 183.203 6.66439 184.486 3.80403 186.084C0.231829 188.082 1.09038 193.463 2.59174 196.592C4.25705 200.063 7.42804 200.553 10.1805 198.83Z" fill="white"/>
<path d="M10.4554 184.924C8.16017 184.924 5.67081 185.788 4.12199 186.653C0.9165 188.444 1.83973 193.527 3.17715 196.31C3.85449 197.723 4.83388 198.651 6.01167 198.994C7.19378 199.338 8.55272 199.084 9.84268 198.279C10.3474 197.963 10.835 197.567 11.288 197.103C13.0352 195.318 15.585 191.605 15.4383 188.696C15.3822 187.602 14.9594 186.741 14.1483 186.064C13.1604 185.241 11.8445 184.924 10.4554 184.924ZM7.08585 200.444C6.59403 200.444 6.11518 200.378 5.65355 200.243C4.11336 199.794 2.85359 198.63 2.0123 196.875C0.407401 193.537 -0.52013 187.758 3.49213 185.516C6.38699 183.9 11.8316 182.445 14.9723 185.062C16.0682 185.972 16.6593 187.172 16.7326 188.629C16.9138 192.217 13.855 196.338 12.2112 198.016C11.6849 198.552 11.1154 199.012 10.5244 199.382C9.40266 200.084 8.2205 200.444 7.08585 200.444Z" fill="#333A43"/>
<path d="M149.745 205.944C150.34 205.867 150.961 205.715 151.613 205.477C154.754 204.328 159.353 199.689 158.481 195.981C157.23 190.669 145.754 189.703 142.868 193.713C139.373 198.57 143.709 206.722 149.745 205.944Z" fill="white"/>
<path d="M149.518 191.893C146.796 191.893 144.389 192.705 143.392 194.094C141.874 196.205 141.887 199.253 143.431 201.86C144.557 203.765 146.788 205.67 149.661 205.299C150.222 205.227 150.8 205.081 151.391 204.866C154.415 203.759 158.6 199.311 157.849 196.13C157.409 194.259 155.325 192.777 152.28 192.167C151.352 191.982 150.416 191.893 149.518 191.893ZM148.958 206.645C146.343 206.645 143.858 205.123 142.318 202.524C140.51 199.472 140.519 195.864 142.344 193.332C144.19 190.761 148.871 190.159 152.534 190.892C156.089 191.604 158.548 193.45 159.109 195.831C160.05 199.82 155.343 204.803 151.831 206.088C151.154 206.336 150.481 206.505 149.825 206.589C149.536 206.626 149.247 206.645 148.958 206.645Z" fill="#333A43"/>
<path d="M45.9724 353.422C45.6704 353.422 45.3987 353.205 45.3383 352.896C44.1389 346.72 45.0492 337.21 45.8517 328.819C46.5031 322.02 47.1157 315.599 46.5591 311.854C46.0889 308.687 45.692 305.868 45.3469 303.235C44.6566 298.002 41.779 293.134 37.4518 289.879C30.7215 284.815 23.5426 276.751 16.1178 265.911C0.435447 243.015 2.67455 199.459 2.70043 199.022C2.71338 198.753 2.89029 198.522 3.14483 198.439L10.1468 196.163C10.3151 196.109 10.4963 196.125 10.6473 196.207C10.8027 196.288 10.9191 196.43 10.9665 196.598C16.0444 213.911 27.0544 231.858 42.8057 248.498C44.4624 250.249 46.0414 251.834 47.6377 253.344C48.1036 253.79 48.5869 254.315 49.0917 254.871C49.9933 255.858 50.9295 256.879 51.7967 257.429C57.3448 260.933 63.6868 260.139 69.7095 259.025L70.9002 258.803C73.4715 258.322 76.1291 257.825 78.7349 257.562C81.8325 257.25 84.9302 258.069 87.92 258.862C88.5542 259.029 89.1797 259.195 89.801 259.348C93.1618 260.177 97.0101 260.968 100.086 259.831C101.924 259.153 103.831 258.359 105.673 257.591C106.95 257.06 108.27 256.51 109.565 255.999C135.601 245.73 139.48 222.391 141.792 208.447C142.021 207.088 142.232 205.806 142.448 204.667C142.508 204.347 142.802 204.124 143.117 204.138L153.488 204.684C153.786 204.7 154.036 204.92 154.088 205.216C154.109 205.338 156.284 217.585 154.29 233.124C154.247 233.48 153.915 233.731 153.566 233.686C153.212 233.64 152.962 233.313 153.009 232.958C154.748 219.387 153.277 208.395 152.897 205.955L143.617 205.467C143.436 206.449 143.259 207.528 143.069 208.66C140.864 221.944 136.757 246.67 110.035 257.21C108.753 257.715 107.438 258.263 106.169 258.793C104.314 259.565 102.394 260.364 100.535 261.051C97.118 262.315 93.041 261.486 89.4904 260.61C88.8648 260.456 88.2306 260.288 87.5921 260.119C84.7102 259.355 81.7333 258.567 78.8643 258.856C76.3103 259.113 73.6829 259.605 71.1375 260.081L69.9424 260.304C63.6695 261.464 57.0471 262.283 51.1064 258.529C50.0925 257.887 49.1003 256.801 48.1382 255.75C47.6464 255.212 47.1847 254.704 46.749 254.29C45.1398 252.764 43.5392 251.162 41.8653 249.394C26.1657 232.808 15.1299 214.917 9.91392 197.605L3.97314 199.538C3.779 204.182 2.59694 243.877 17.1834 265.174C24.4271 275.747 31.7009 283.929 38.2283 288.839C42.836 292.302 45.8948 297.487 46.6282 303.065C46.9734 305.691 47.3703 308.503 47.8405 311.662C48.4186 315.564 47.7974 322.063 47.1373 328.944C46.3434 337.246 45.4461 346.656 46.611 352.646C46.68 352.999 46.4513 353.34 46.0976 353.409C46.0587 353.418 46.0156 353.422 45.9724 353.422Z" fill="#333A43"/>
<path d="M99.283 352.939C99.2614 352.939 99.2399 352.939 99.2227 352.936C98.8646 352.903 98.6013 352.587 98.6359 352.229C98.8473 349.936 99.0457 347.389 99.2356 344.926C99.4901 341.668 99.7274 338.59 99.9647 336.595C100.819 329.338 102.471 321.481 105.159 311.867C105.741 309.781 106.419 307.695 107.07 305.677L107.29 304.995C109.771 297.324 114.75 290.766 121.303 286.528C123.27 285.254 125.186 283.877 126.985 282.435C127.265 282.212 127.671 282.259 127.895 282.539C128.12 282.82 128.072 283.229 127.792 283.453C125.958 284.921 124.008 286.323 122.002 287.621C115.699 291.697 110.914 298.01 108.524 305.396L108.304 306.08C107.653 308.085 106.98 310.158 106.406 312.219C103.735 321.766 102.096 329.56 101.246 336.748C101.017 338.717 100.776 341.782 100.526 345.027C100.336 347.495 100.137 350.047 99.9258 352.35C99.8956 352.686 99.6109 352.939 99.283 352.939Z" fill="#333A43"/>
<path d="M88.9493 260.988C88.9493 260.988 84.6264 258.646 84.5876 257.142L82.9784 249.495C82.9266 248.79 83.3278 248.133 83.975 247.865L88.8285 245.9C89.4498 245.644 89.8208 245.001 89.7431 244.328L89.027 238.22L90.8735 236.401C91.0202 236.258 91.0244 236.026 90.8864 235.876L87.6205 232.318C86.5463 230.964 85.3598 227.65 84.5487 227.926C84.5487 227.926 66.9854 226.864 66.6101 235.694C66.554 236.972 67.007 238.222 67.8008 239.221L69.4661 241.312C71.1357 243.412 72.0978 246.044 71.9641 248.736C71.9382 249.295 71.4076 252.915 71.0495 255.308C70.8467 256.667 70.165 257.903 69.121 258.795C67.8181 259.918 66.2261 261.343 66.5022 261.415C66.5022 261.415 68.5127 262.727 71.6319 263.816C77.1714 265.751 83.3019 264.861 88.1468 261.538L88.9493 260.988Z" fill="white"/>
<path d="M67.4209 261.209C68.2148 261.66 69.7852 262.485 71.8431 263.203C77.1065 265.041 83.0386 264.231 87.7282 261.038C86.2786 260.165 84.0524 258.606 83.9445 257.23L82.344 249.631C82.3353 249.602 82.3311 249.573 82.3311 249.543C82.2621 248.555 82.8229 247.64 83.7245 247.265L88.5868 245.298C88.9319 245.155 89.1432 244.787 89.1001 244.404L88.3839 238.298C88.358 238.098 88.4314 237.898 88.5738 237.757L90.2305 236.123L87.1458 232.759C87.1371 232.748 87.1285 232.736 87.1155 232.724C86.6712 232.165 86.2312 231.342 85.8084 230.545C85.4373 229.851 84.8851 228.823 84.5917 228.575C84.5615 228.577 84.5357 228.577 84.5098 228.575C84.4019 228.569 73.4868 227.963 69.0518 231.979C67.9085 233.018 67.3218 234.243 67.2571 235.723C67.2096 236.807 67.5849 237.905 68.3054 238.816L69.9707 240.907C71.8086 243.218 72.7448 246.01 72.611 248.769C72.5851 249.339 72.0933 252.692 71.6878 255.405C71.4634 256.917 70.6998 258.297 69.5436 259.29C68.3701 260.298 67.7488 260.879 67.4209 261.209ZM77.5854 265.471C75.5016 265.471 73.4178 265.128 71.4203 264.431C68.2623 263.328 66.2346 262.016 66.1526 261.961C66.0016 261.863 65.8808 261.703 65.8419 261.534C65.7427 261.103 65.6953 260.887 68.7023 258.302C69.6213 257.511 70.2296 256.414 70.4108 255.212C70.9673 251.474 71.2995 249.101 71.3211 248.704C71.4375 246.263 70.6006 243.782 68.9612 241.719L67.2959 239.628C66.377 238.471 65.9024 237.065 65.9628 235.667C66.0404 233.846 66.7911 232.28 68.1889 231.013C72.8354 226.801 83.2673 227.209 84.4882 227.272C85.4244 227.091 86.1061 228.352 86.9473 229.93C87.3399 230.667 87.7455 231.427 88.1122 231.895L91.3608 235.436C91.7404 235.848 91.7232 236.476 91.3263 236.866L89.7041 238.462L90.3858 244.252C90.4979 245.211 89.9586 246.136 89.0785 246.502L84.2164 248.469C83.8454 248.623 83.608 248.999 83.621 249.411L85.2216 257.008C85.2259 257.047 85.2302 257.086 85.2345 257.126C85.2518 257.79 87.3658 259.393 89.2555 260.416C89.4539 260.524 89.5833 260.728 89.5962 260.954C89.6092 261.18 89.5013 261.397 89.3158 261.525L88.5134 262.076C85.2518 264.313 81.4208 265.471 77.5854 265.471Z" fill="#333A43"/>
<path d="M84.4104 214.525C80.4197 214.537 85.6702 218.354 70.7083 214.93C64.7504 213.566 68.1327 220.273 66.5882 219.923C60.8762 218.632 61.0703 218.669 58.3782 219.564C56.5921 220.155 55.6213 223.599 56.1175 226.097C56.7732 229.394 60.7899 234.466 64.4354 239.86C66.325 242.653 69.4055 242.747 72.8828 238.248C73.2538 237.769 71.088 235.185 72.0802 233.966C74.6515 230.797 76.1141 235.292 78.2496 233.764C80.2989 232.297 81.1273 231.374 83.2585 229.208C85.8385 226.587 90.6014 230.188 91.8698 224.536C92.5342 221.588 89.8679 214.508 84.4104 214.525Z" fill="#333A43"/>
<path d="M275.921 278.8L273.639 360.49L321.574 359.918C322.429 353.038 322.856 346.421 326.139 339.566C333.559 324.088 337.114 307.443 335.207 294.439L275.921 278.8Z" fill="#333A43"/>
<path d="M298.086 210.794C296.602 208.743 297.145 207.688 297.482 207.659C297.792 207.632 299.721 207.031 300.359 206.627C301.878 205.663 302.577 204.035 301.921 202.991C301.572 202.432 300.899 202.156 300.122 202.166C300.717 199.744 300.195 198.46 299.876 196.68C298.776 190.545 293.53 190.954 291.373 192.751C289.492 194.319 289.362 195.904 285.626 197.112C285.268 197.228 285.195 197.732 285.324 198.085L285.941 200.078C286.088 200.474 285.868 201.357 285.678 201.738C285.083 202.916 283.732 205.365 283.918 205.91C284.284 206.973 288.107 209.083 288.107 209.083L293.577 221.118C292.922 223.363 291.412 224.446 290.329 224.95C289.664 225.262 289.518 226.152 290.074 226.638C291.118 227.553 293.28 229.062 297.719 231.477C303.595 234.672 311.628 227.547 311.628 227.547C311.628 227.547 309.777 226.969 298.086 210.794Z" fill="white"/>
<path d="M311.895 226.957H311.9H311.895ZM284.551 205.745C284.802 206.224 286.562 207.489 288.417 208.513C288.542 208.581 288.637 208.686 288.697 208.813L294.168 220.849C294.233 220.991 294.241 221.152 294.198 221.302C293.478 223.756 291.847 224.961 290.6 225.54C290.428 225.621 290.389 225.773 290.38 225.835C290.371 225.905 290.371 226.039 290.497 226.148C291.411 226.947 293.46 228.421 298.025 230.905C302.542 233.36 308.647 229.082 310.584 227.564C308.798 225.954 304.708 221.063 297.559 211.176C296.148 209.219 296.424 208.063 296.61 207.657C296.778 207.282 297.084 207.04 297.425 207.011C297.701 206.974 299.47 206.424 300.014 206.078C301.209 205.32 301.83 204.065 301.373 203.338C301.161 203 300.717 202.808 300.13 202.816C299.94 202.815 299.738 202.728 299.613 202.571C299.487 202.413 299.444 202.206 299.492 202.011C299.94 200.179 299.707 199.057 299.431 197.757C299.367 197.447 299.298 197.13 299.242 196.796C298.836 194.55 297.801 193.061 296.247 192.491C294.63 191.898 292.779 192.425 291.787 193.252C291.247 193.703 290.863 194.151 290.458 194.626C289.543 195.703 288.594 196.817 285.915 197.702C285.91 197.745 285.915 197.807 285.932 197.86L286.558 199.886C286.786 200.504 286.476 201.593 286.251 202.032C286.161 202.216 286.049 202.431 285.928 202.665C285.527 203.443 284.603 205.235 284.551 205.745ZM301.114 232.957C299.854 232.957 298.599 232.694 297.412 232.049C293.663 230.009 291.049 228.354 289.647 227.129C289.228 226.76 289.021 226.208 289.099 225.652C289.181 225.086 289.539 224.603 290.056 224.361C291.019 223.912 292.274 222.997 292.887 221.161L287.606 209.548C286.489 208.92 283.693 207.258 283.305 206.122C283.098 205.506 283.512 204.524 284.78 202.066C284.901 201.837 285.009 201.626 285.099 201.445C285.263 201.117 285.38 200.472 285.332 200.299L284.707 198.278C284.573 197.911 284.59 197.442 284.763 197.086C284.901 196.798 285.138 196.587 285.427 196.493C287.83 195.717 288.59 194.82 289.474 193.782C289.897 193.286 290.333 192.773 290.958 192.251C292.196 191.22 294.522 190.473 296.692 191.27C298.094 191.784 299.897 193.12 300.514 196.565C300.57 196.886 300.635 197.19 300.7 197.488C300.959 198.716 301.205 199.885 300.903 201.595C301.58 201.746 302.132 202.109 302.469 202.644C303.327 204.012 302.555 206.003 300.704 207.177C300.096 207.565 298.452 208.114 297.762 208.267C297.71 208.514 297.753 209.229 298.607 210.412C308.893 224.639 311.494 226.69 311.852 226.93C312.094 226.96 312.232 227.117 312.314 227.354C312.396 227.602 312.249 227.861 312.055 228.035C311.779 228.28 306.429 232.957 301.114 232.957Z" fill="#333A43"/>
<path d="M293.142 194.692C293.142 194.692 287.585 188.598 290.005 184.793C290.221 184.459 290.872 183.408 292.041 183.085C294.449 182.422 296.964 185.344 297.529 185.991C302.426 191.603 306.11 192.662 308.112 195.516C308.837 196.552 309.544 198.364 308.906 201.661C308.073 203.95 306.904 205.045 305.994 205.623C304.117 206.807 302.762 206.163 301.356 207.499C299.777 209.001 300.316 210.931 299.32 211.321C298.547 211.624 297.076 210.919 294.013 206.728C296.567 204.634 298.021 202.399 297.443 201.071C297.279 200.694 296.757 200.017 296.11 199.918C295.256 199.788 294.552 200.611 294.552 200.611L293.142 194.692Z" fill="#333A43"/>
<path d="M221.324 201.597L214.154 195.609C213.481 195.05 212.981 194.315 212.704 193.485L211.328 189.361C211.125 188.752 211.898 188.3 212.325 188.778L216.164 193.071C216.704 193.675 217.372 194.149 218.123 194.455L224.236 197.037L226.161 194.292C226.73 193.482 227.722 193.088 228.684 193.289L225.902 200.221L226.782 207.271L221.618 208.076L221.324 201.597Z" fill="white"/>
<path d="M212.032 189.423L213.318 193.279C213.56 193.994 213.991 194.627 214.569 195.109L221.74 201.097C221.882 201.214 221.964 201.385 221.973 201.568L222.236 207.322L226.062 206.726L225.26 200.302C225.247 200.192 225.264 200.081 225.303 199.978L227.723 193.947C227.314 194.054 226.947 194.304 226.692 194.666L224.764 197.412C224.591 197.661 224.268 197.755 223.987 197.637L217.874 195.054C217.046 194.716 216.286 194.18 215.682 193.505L212.032 189.423ZM221.619 208.727C221.472 208.727 221.325 208.675 221.209 208.579C221.067 208.463 220.98 208.29 220.972 208.105L220.696 201.913L213.741 196.109C212.977 195.472 212.408 194.637 212.093 193.692L210.717 189.568C210.527 189.003 210.755 188.4 211.269 188.101C211.778 187.801 212.412 187.901 212.809 188.344L216.644 192.636C217.119 193.165 217.714 193.586 218.37 193.853L224.009 196.235L225.631 193.918C226.352 192.896 227.603 192.4 228.819 192.652C229.005 192.691 229.169 192.812 229.259 192.982C229.35 193.152 229.359 193.353 229.289 193.532L226.567 200.308L227.426 207.191C227.469 207.54 227.227 207.86 226.882 207.914L221.718 208.718C221.688 208.724 221.653 208.727 221.619 208.727Z" fill="#333A43"/>
<path d="M330.633 143.814C330.633 143.814 328.752 140.669 326.206 140.519C323.657 140.368 321.586 139.908 321.586 139.908C321.586 139.908 322.035 137.885 323.402 138.18C324.77 138.474 324.77 138.474 324.77 138.474L326.194 138.194L322.626 126.643L325.982 127.778C326.66 128.004 327.225 128.481 327.565 129.113L334.494 141.865L330.633 143.814Z" fill="white"/>
<path d="M322.453 139.413C323.264 139.558 324.666 139.775 326.241 139.868C328.454 139.999 330.158 142.011 330.853 142.975L333.605 141.584L327 129.424C326.732 128.934 326.301 128.57 325.775 128.393L323.622 127.66L326.81 138C326.866 138.177 326.845 138.368 326.75 138.527C326.655 138.685 326.499 138.796 326.318 138.831L324.895 139.111C324.808 139.128 324.722 139.128 324.636 139.109L323.268 138.814C322.897 138.735 322.625 139.071 322.453 139.413ZM330.633 144.463C330.412 144.463 330.201 144.35 330.08 144.148C330.063 144.12 328.337 141.295 326.167 141.166C323.596 141.014 321.529 140.561 321.443 140.541C321.275 140.504 321.133 140.401 321.038 140.255C320.947 140.11 320.917 139.933 320.951 139.764C321.158 138.848 321.961 137.203 323.54 137.543L324.774 137.81L325.361 137.694L322.008 126.832C321.935 126.598 322 126.347 322.177 126.174C322.349 126.005 322.604 125.944 322.832 126.022L326.189 127.157C327.021 127.439 327.712 128.024 328.135 128.8L335.063 141.552C335.15 141.706 335.167 141.889 335.115 142.057C335.059 142.225 334.942 142.365 334.787 142.444L330.926 144.394C330.831 144.441 330.732 144.463 330.633 144.463Z" fill="#333A43"/>
<path d="M274.932 250.227L274.781 296.284C274.781 296.284 306.698 300.47 319.861 301.443C319.861 301.443 289.23 251.368 274.932 250.227Z" fill="#FEC99E"/>
<path d="M227.963 202.45C224.935 203.95 221.902 205.45 218.873 206.949C225.375 232.482 236.268 242.678 244.845 247.307C259.613 255.274 270.623 248.42 280.576 258.021C291.797 268.846 282.405 281.998 294.407 298.1C305.175 312.542 322.553 315.133 326.044 315.653C329.599 316.183 349.806 319.196 357.218 308.082C359.824 304.17 359.919 299.9 359.988 296.837C360.118 291.136 358.176 286.608 350.445 273.07C344.811 263.196 343.952 262.358 342.256 259.162C338.576 252.219 334.819 241.444 335.431 225.233C339.539 219.728 348.025 206.77 349.621 188.202C351.804 162.825 339.612 144.502 336.031 139.5C333.486 140.819 330.945 142.139 328.399 143.459C330.254 148.205 335.393 163.107 330.284 181.099C325.314 198.604 313.718 208.215 310.038 211.178C304.999 215.237 285.744 229.404 260.954 223.952C242.067 219.798 231.229 206.732 227.963 202.45Z" fill="#FB9946"/>
<path d="M219.631 207.298C224.756 227.096 233.341 240.362 245.149 246.733C251.936 250.393 258.036 250.88 263.42 251.31C269.659 251.808 275.556 252.278 281.022 257.551C286.765 263.089 287.282 269.295 287.83 275.864C288.37 282.369 288.987 289.742 294.923 297.709C301.765 306.884 312.849 313.028 326.137 315.009C333.16 316.057 350.193 317.442 356.677 307.719C359.18 303.965 359.274 299.837 359.339 296.822C359.464 291.393 357.782 287.233 349.882 273.392C346.742 267.887 345.055 265.148 343.942 263.337C343.04 261.867 342.44 260.895 341.685 259.467C336.607 249.89 334.286 238.363 334.782 225.208C334.787 225.076 334.834 224.948 334.912 224.842C340.538 217.306 347.54 204.822 348.976 188.145C350.969 164.951 340.706 147.288 335.826 140.335L329.208 143.767C331.944 150.975 335.533 164.966 330.904 181.276C327.5 193.26 320.614 203.491 310.441 211.685C303.452 217.309 284.633 229.825 260.814 224.586C243.635 220.808 232.845 209.794 227.772 203.267L219.631 207.298ZM335.952 317.078C332.259 317.078 328.76 316.714 325.947 316.295C312.318 314.264 300.933 307.94 293.888 298.488C287.727 290.223 287.097 282.652 286.54 275.973C285.988 269.381 285.514 263.687 280.125 258.489C274.991 253.537 269.581 253.105 263.317 252.606C257.807 252.166 251.56 251.668 244.537 247.879C232.297 241.274 223.449 227.557 218.246 207.109C218.168 206.811 218.31 206.501 218.587 206.365L227.677 201.866C227.953 201.729 228.289 201.808 228.475 202.054C233.294 208.376 243.941 219.544 261.091 223.316C284.362 228.435 302.788 216.178 309.63 210.67C319.592 202.649 326.331 192.639 329.657 180.919C334.303 164.554 330.485 150.572 327.793 143.695C327.673 143.385 327.806 143.032 328.1 142.88L335.732 138.921C336.021 138.773 336.37 138.857 336.556 139.119C341.37 145.847 352.341 164.103 350.266 188.257C348.812 205.12 341.771 217.771 336.068 225.459C335.611 238.298 337.884 249.532 342.824 258.855C343.562 260.248 344.153 261.205 345.042 262.654C346.163 264.473 347.85 267.221 351.004 272.745C358.588 286.027 360.771 290.803 360.633 296.85C360.564 300.026 360.465 304.373 357.752 308.443C353.178 315.304 344.105 317.078 335.952 317.078Z" fill="#333A43"/>
<path d="M280.774 224.393C280.774 224.393 279.527 220.272 281.498 219.804C283.466 219.337 305.615 212.277 309.636 208.258C313.661 204.239 328.878 208.519 331.652 211.757C334.43 214.994 328.174 225.547 320.314 228.901C312.457 232.255 298.57 221.502 280.774 224.393Z" fill="#333A43"/>
<path d="M287.029 223.245C294.272 223.245 300.757 225.123 306.201 226.701C312.064 228.399 316.693 229.739 320.063 228.302C325.654 225.916 330.486 219.676 331.491 215.346C331.72 214.347 331.854 212.986 331.163 212.18C329.481 210.217 322.073 207.522 316.15 207.292C313.229 207.179 311.141 207.672 310.093 208.718C305.899 212.911 283.724 219.942 281.644 220.436C281.467 220.478 281.347 220.572 281.247 220.741C280.868 221.41 281.062 222.8 281.252 223.661C283.228 223.371 285.152 223.245 287.029 223.245ZM316.728 230.213C313.656 230.213 310.054 229.17 305.843 227.95C298.975 225.96 290.424 223.483 280.876 225.034C280.557 225.087 280.246 224.893 280.156 224.582C280.061 224.278 279.28 221.572 280.126 220.093C280.402 219.614 280.825 219.295 281.347 219.171C283.236 218.722 305.325 211.649 309.182 207.796C310.507 206.47 312.862 205.864 316.197 205.992C322.134 206.223 330.029 208.867 332.143 211.332C332.971 212.297 333.182 213.788 332.751 215.641C331.677 220.263 326.715 226.876 320.568 229.499C319.39 230.001 318.113 230.213 316.728 230.213Z" fill="#333A43"/>
<path d="M304.677 360.223C304.651 360.223 304.625 360.223 304.599 360.218C304.246 360.179 303.991 359.854 304.034 359.499L306.605 337.857C306.541 334.032 307.675 331.428 309.725 330.708C312.179 329.849 315.096 326.894 316.092 322.233C316.166 321.882 316.511 321.659 316.86 321.733C317.21 321.809 317.43 322.155 317.357 322.505C316.256 327.661 312.947 330.956 310.152 331.936C308.681 332.453 307.835 334.674 307.9 337.876C307.9 337.907 307.9 337.937 307.895 337.966L305.32 359.651C305.281 359.98 305 360.223 304.677 360.223Z" fill="#FB9946"/>
<path d="M289.047 333.623C288.892 333.623 288.736 333.568 288.616 333.459L280.91 326.58C280.781 326.461 280.699 326.292 280.695 326.113L280.125 307.195C280.121 307.006 280.194 306.824 280.337 306.696C280.475 306.568 280.66 306.508 280.85 306.53L299.682 308.824C300.036 308.867 300.29 309.191 300.247 309.547C300.199 309.904 299.88 310.158 299.526 310.114L281.441 307.912L281.98 325.794L289.103 332.156L298.676 325.837C298.974 325.64 299.375 325.723 299.574 326.023C299.768 326.323 299.686 326.726 299.388 326.923L289.401 333.516C289.293 333.588 289.168 333.623 289.047 333.623Z" fill="#FB9946"/>
<path d="M205 230.157C205 244.179 214.28 260.18 228.237 260.18C242.193 260.18 256.4 248.099 256.4 234.078C256.4 220.056 244.657 206.552 230.7 206.552C216.743 206.552 205 216.136 205 230.157Z" fill="#333A43"/>
<path d="M250.6 241.88C250.6 243.488 251.898 244.793 253.499 244.793C255.099 244.793 256.398 243.488 256.398 241.88C256.398 240.271 255.099 238.967 253.499 238.967C251.898 238.967 250.6 240.271 250.6 241.88Z" fill="#333A43"/>
<path d="M253.499 247.427C253.499 249.871 251.528 251.852 249.094 251.852C246.661 251.852 244.689 249.871 244.689 247.427C244.689 244.983 246.661 243.002 249.094 243.002C251.528 243.002 253.499 244.983 253.499 247.427Z" fill="#333A43"/>
<path d="M247.308 248.289C249.366 250.36 249.366 253.718 247.308 255.789C245.245 257.859 241.902 257.859 239.84 255.789C237.777 253.718 237.777 250.36 239.84 248.289C241.902 246.218 245.245 246.218 247.308 248.289Z" fill="#333A43"/>
<path d="M241.5 254.994C241.5 258.318 238.821 261.012 235.512 261.012C232.203 261.012 229.52 258.318 229.52 254.994C229.52 251.671 232.203 248.976 235.512 248.976C238.821 248.976 241.5 251.671 241.5 254.994Z" fill="#333A43"/>
<path d="M233.607 254.811C233.706 259.188 229.716 262.446 225.47 261.454C222.58 260.779 220.457 258.156 220.392 255.174C220.293 250.798 224.284 247.54 228.529 248.532C231.42 249.206 233.542 251.829 233.607 254.811Z" fill="#333A43"/>
<path d="M228.719 254.233C228.818 258.61 224.827 261.867 220.582 260.876C217.691 260.2 215.569 257.578 215.5 254.596C215.405 250.219 219.395 246.962 223.641 247.953C226.531 248.628 228.654 251.251 228.719 254.233Z" fill="#333A43"/>
<path d="M248.186 231.835C248.186 234.826 250.597 237.25 253.574 237.25C256.551 237.25 258.967 234.826 258.967 231.835C258.967 228.845 256.551 226.42 253.574 226.42C250.597 226.42 248.186 228.845 248.186 231.835Z" fill="#333A43"/>
<path d="M246.404 229.588C248.691 231.885 252.401 231.885 254.688 229.588C256.974 227.291 256.974 223.567 254.688 221.27C252.401 218.974 248.691 218.974 246.404 221.27C244.118 223.567 244.118 227.291 246.404 229.588Z" fill="#333A43"/>
<path d="M250.23 237.744C250.23 239.601 251.728 241.105 253.574 241.105C255.425 241.105 256.922 239.601 256.922 237.744C256.922 235.888 255.425 234.383 253.574 234.383C251.728 234.383 250.23 235.888 250.23 237.744Z" fill="#333A43"/>
<path d="M203.5 230.975C203.5 233.491 205.528 235.531 208.034 235.531C210.541 235.531 212.569 233.491 212.569 230.975C212.569 228.459 210.541 226.419 208.034 226.419C205.528 226.419 203.5 228.459 203.5 230.975Z" fill="#333A43"/>
<path d="M202.963 225.122C202.963 227.787 205.116 229.947 207.769 229.947C210.422 229.947 212.571 227.787 212.571 225.122C212.571 222.457 210.422 220.296 207.769 220.296C205.116 220.296 202.963 222.457 202.963 225.122Z" fill="#333A43"/>
<path d="M206.031 219.355C206.031 222.175 208.305 224.461 211.113 224.461C213.918 224.461 216.196 222.175 216.196 219.355C216.196 216.535 213.918 214.249 211.113 214.249C208.305 214.249 206.031 216.535 206.031 219.355Z" fill="#333A43"/>
<path d="M219.479 213.109C219.479 215.752 217.343 217.895 214.716 217.895C212.084 217.895 209.953 215.752 209.953 213.109C209.953 210.466 212.084 208.324 214.716 208.324C217.343 208.324 219.479 210.466 219.479 213.109Z" fill="#333A43"/>
<path d="M217.494 209.831C217.494 211.641 218.957 213.109 220.76 213.109C222.559 213.109 224.022 211.641 224.022 209.831C224.022 208.02 222.559 206.552 220.76 206.552C218.957 206.552 217.494 208.02 217.494 209.831Z" fill="#333A43"/>
<path d="M222.455 208.75C222.455 211.037 224.302 212.891 226.58 212.891C228.853 212.891 230.7 211.037 230.7 208.75C230.7 206.464 228.853 204.61 226.58 204.61C224.302 204.61 222.455 206.464 222.455 208.75Z" fill="#333A43"/>
<path d="M227.588 211.258C227.588 214.351 230.086 216.859 233.166 216.859C236.247 216.859 238.74 214.351 238.74 211.258C238.74 208.164 236.247 205.656 233.166 205.656C230.086 205.656 227.588 208.164 227.588 211.258Z" fill="#333A43"/>
<path d="M239.705 206.552C236.957 206.552 234.727 208.793 234.727 211.556C234.727 214.32 236.957 216.561 239.705 216.561C242.458 216.561 244.688 214.32 244.688 211.556C244.688 208.793 242.458 206.552 239.705 206.552Z" fill="#333A43"/>
<path d="M244.688 208.808C241.694 208.808 239.27 211.245 239.27 214.251C239.27 217.256 241.694 219.693 244.688 219.693C247.682 219.693 250.107 217.256 250.107 214.251C250.107 211.245 247.682 208.808 244.688 208.808Z" fill="#333A43"/>
<path d="M248.186 218.615C248.186 220.657 249.834 222.312 251.866 222.312C253.898 222.312 255.546 220.657 255.546 218.615C255.546 216.573 253.898 214.918 251.866 214.918C249.834 214.918 248.186 216.573 248.186 218.615Z" fill="#333A43"/>
<path d="M212.804 230.604C211.735 231.194 211.156 231.308 210.268 231.895C208.464 233.086 206.303 237.212 203.563 237.625C203.02 239.004 204.128 239.387 204.409 240.268C203.956 240.91 202.808 244.087 201.872 245.986C201.544 246.651 201.756 247.465 202.377 247.867C203.425 248.544 204.642 249.089 206.053 249.468C206.053 249.468 211.67 261.538 203.132 265.871L221.23 264.305L216.368 248.335C216.601 248.296 219.664 247.741 220.419 245.425C220.695 244.574 220.764 243.151 220.039 242.706C219.332 242.271 217.908 242.797 216.791 244.285C216.687 243.86 216.627 243.33 216.579 242.722C216.51 241.889 216.523 240.952 216.834 240.539C210.078 237.237 217.8 231.505 212.804 230.604Z" fill="white"/>
<path d="M204.075 238.182C204.019 238.539 204.183 238.749 204.451 239.097C204.658 239.363 204.895 239.665 205.024 240.069C205.085 240.264 205.055 240.476 204.934 240.643C204.74 240.922 204.265 242.067 203.847 243.078C203.402 244.146 202.902 245.356 202.449 246.275C202.263 246.649 202.384 247.098 202.729 247.321C203.747 247.98 204.921 248.491 206.22 248.84C206.405 248.889 206.556 249.018 206.638 249.193C206.69 249.308 211.414 259.688 205.538 265.01L220.379 263.726L215.745 248.525C215.694 248.346 215.715 248.152 215.814 247.993C215.914 247.833 216.078 247.724 216.259 247.694C216.38 247.674 219.162 247.189 219.801 245.224C220.055 244.438 220.008 243.447 219.702 243.261C219.382 243.066 218.282 243.379 217.307 244.677C217.156 244.878 216.906 244.973 216.66 244.922C216.414 244.871 216.22 244.684 216.16 244.44C216.034 243.928 215.974 243.311 215.931 242.774C215.866 241.953 215.892 241.318 216.009 240.838C212.454 238.809 213.174 235.918 213.662 233.975C213.886 233.068 214.102 232.211 213.83 231.785C213.688 231.565 213.377 231.398 212.902 231.288C212.51 231.495 212.177 231.643 211.884 231.776C211.453 231.969 211.082 232.136 210.624 232.438C210.042 232.823 209.356 233.624 208.631 234.472C207.324 235.995 205.861 237.708 204.075 238.182ZM203.131 266.521C202.841 266.521 202.587 266.33 202.505 266.049C202.423 265.749 202.561 265.431 202.837 265.291C210.046 261.632 206.314 251.767 205.581 250.011C204.269 249.631 203.079 249.094 202.026 248.413C201.129 247.832 200.814 246.665 201.288 245.698C201.724 244.816 202.216 243.627 202.652 242.579C203.105 241.485 203.428 240.706 203.678 240.233C203.609 240.127 203.527 240.017 203.433 239.898C203.044 239.402 202.462 238.651 202.962 237.386C203.049 237.17 203.238 237.017 203.467 236.983C204.968 236.756 206.392 235.092 207.648 233.624C208.433 232.705 209.179 231.837 209.913 231.352C210.46 230.991 210.896 230.796 211.358 230.589C211.699 230.436 212.048 230.278 212.488 230.035C212.618 229.963 212.769 229.938 212.915 229.964C213.89 230.14 214.546 230.505 214.913 231.08C215.495 231.979 215.215 233.102 214.917 234.291C214.391 236.395 213.895 238.381 217.117 239.955C217.29 240.04 217.419 240.199 217.462 240.388C217.51 240.577 217.467 240.776 217.35 240.932C217.342 240.945 217.109 241.267 217.225 242.67C217.229 242.735 217.234 242.8 217.238 242.866C218.325 241.954 219.546 241.642 220.375 242.151C221.466 242.82 221.367 244.596 221.03 245.627C220.379 247.643 218.312 248.491 217.186 248.81L221.85 264.115C221.906 264.302 221.876 264.506 221.768 264.669C221.656 264.832 221.479 264.936 221.285 264.953L203.187 266.519C203.165 266.521 203.148 266.521 203.131 266.521Z" fill="#333A43"/>
<path d="M212.086 249.719C212.086 249.719 209.364 250.77 206.279 249.538L212.086 249.719Z" fill="white"/>
<path d="M209.433 250.787C208.441 250.787 207.268 250.632 206.038 250.141C205.706 250.008 205.546 249.63 205.676 249.296C205.809 248.963 206.185 248.8 206.517 248.932C209.317 250.05 211.832 249.12 211.858 249.11C212.195 248.983 212.566 249.152 212.691 249.486C212.82 249.821 212.652 250.196 212.32 250.324C212.246 250.354 211.09 250.787 209.433 250.787Z" fill="#333A43"/>
<path d="M137.509 238.091C141.081 236.791 144.735 235.629 148.519 235.567C151.767 235.514 155.025 236.295 157.898 237.817C160.007 238.934 161.97 240.463 164.313 240.906C165.668 241.161 167.061 241.032 168.42 240.807C170.021 240.542 171.798 239.953 172.786 238.77C173.028 238.479 173.49 238.636 173.498 239.014C173.559 241.518 173.446 244.052 172.389 246.296C171.445 248.311 169.814 249.909 168.196 251.435C166.582 252.957 164.93 254.466 163.002 255.557C161.073 256.647 158.825 257.299 156.638 256.975C151.961 256.282 148.281 251.357 143.596 251.977C140.373 252.402 138.138 255.31 136.27 257.982C136.887 257.248 136.344 252.969 136.305 251.936C136.227 250.065 136.18 248.177 136.18 246.288C136.18 243.709 135.597 241.292 135.83 238.709C136.387 238.502 136.948 238.295 137.509 238.091Z" fill="white"/>
<path d="M137.512 238.091H137.516H137.512ZM144.415 251.273C146.887 251.273 149.083 252.595 151.21 253.878C152.979 254.944 154.808 256.046 156.736 256.332C159.079 256.679 161.266 255.794 162.686 254.99C164.532 253.946 166.137 252.489 167.759 250.961C169.455 249.361 170.93 247.883 171.81 246.018C172.742 244.039 172.893 241.795 172.867 239.624C171.659 240.728 169.882 241.225 168.527 241.449C167.328 241.648 165.753 241.838 164.196 241.545C162.388 241.203 160.813 240.267 159.29 239.361C158.738 239.033 158.164 238.693 157.599 238.393C154.816 236.918 151.676 236.168 148.535 236.217C144.7 236.28 140.946 237.533 137.732 238.702C137.305 238.858 136.873 239.016 136.451 239.174C136.373 240.471 136.498 241.729 136.623 243.052C136.727 244.098 136.83 245.179 136.83 246.289C136.83 248.054 136.873 249.893 136.951 251.91C136.96 252.119 136.99 252.464 137.029 252.887C137.119 253.963 137.184 254.873 137.206 255.629C138.875 253.528 140.881 251.68 143.513 251.333C143.819 251.292 144.117 251.273 144.415 251.273ZM136.274 258.633C136.136 258.633 135.998 258.589 135.881 258.498C135.605 258.286 135.545 257.894 135.743 257.61C135.76 257.588 135.778 257.566 135.791 257.544C136.075 256.978 135.821 253.988 135.739 252.997C135.7 252.55 135.67 252.183 135.661 251.962C135.579 249.927 135.536 248.072 135.536 246.289C135.536 245.242 135.437 244.193 135.338 243.179C135.195 241.722 135.049 240.215 135.191 238.65C135.212 238.4 135.376 238.187 135.609 238.099C136.17 237.892 136.731 237.684 137.292 237.48C140.605 236.274 144.48 234.983 148.513 234.917C151.866 234.863 155.226 235.666 158.203 237.243C158.799 237.557 159.385 237.906 159.95 238.243C161.443 239.13 162.85 239.968 164.437 240.267C165.792 240.523 167.224 240.347 168.32 240.166C170.162 239.861 171.573 239.217 172.293 238.353C172.578 238.01 173.031 237.882 173.45 238.029C173.864 238.174 174.14 238.554 174.149 238.998C174.209 241.511 174.11 244.168 172.979 246.573C172.004 248.642 170.374 250.278 168.644 251.909C166.965 253.494 165.291 255.008 163.32 256.123C161.724 257.027 159.252 258.019 156.546 257.619C154.363 257.294 152.422 256.124 150.545 254.993C148.25 253.61 146.084 252.304 143.681 252.621C140.791 253.004 138.724 255.615 136.86 258.278C136.83 258.323 136.8 258.364 136.77 258.401C136.64 258.554 136.459 258.633 136.274 258.633Z" fill="#333A43"/>
<path d="M135.176 299.377H136.901V236.967H135.176V299.377Z" fill="#333A43"/>
<path d="M136.47 280.365C135.775 280.607 133.558 277.697 133.036 277.183C130.547 274.723 127.548 273.828 127.065 270.02C126.75 267.506 126.569 264.894 127.363 262.488C127.471 262.171 127.6 261.844 127.859 261.632C128.031 261.486 128.251 261.407 128.463 261.33C129.434 260.979 130.409 260.629 131.379 260.278C132.255 259.962 133.321 259.676 134.032 260.273C134.399 260.578 134.576 261.049 134.727 261.5C135.292 263.178 135.737 264.897 136.052 266.64C136.354 268.294 136.979 267.553 137.298 266.442C137.596 265.418 137.497 264.139 137.467 263.09C137.449 262.372 138.217 261.875 138.847 262.205C139.719 262.66 140.832 263.636 141.742 265.72C142.907 268.38 142.683 271.445 142.497 273.284C142.376 274.5 142.816 278.149 141.889 278.471L136.47 280.365Z" fill="white"/>
<path d="M132.972 260.577C132.545 260.577 132.04 260.731 131.6 260.891L128.683 261.943C128.524 262 128.36 262.06 128.269 262.134C128.144 262.241 128.049 262.478 127.98 262.694C127.225 264.977 127.402 267.525 127.708 269.94C128.019 272.38 129.434 273.459 131.224 274.824C131.971 275.394 132.743 275.984 133.489 276.721C133.632 276.859 133.835 277.098 134.115 277.428C134.607 278 135.867 279.478 136.371 279.712L141.622 277.879C141.894 277.48 141.855 275.667 141.837 274.786C141.829 274.151 141.816 273.603 141.855 273.22C141.993 271.85 142.316 268.641 141.151 265.983C140.289 264.011 139.262 263.154 138.55 262.783C138.429 262.719 138.321 262.767 138.27 262.801C138.222 262.83 138.11 262.916 138.114 263.074L138.132 263.538C138.166 264.528 138.205 265.65 137.92 266.626C137.605 267.724 137.126 268.292 136.514 268.257C135.681 268.215 135.491 267.157 135.418 266.759C135.107 265.05 134.667 263.352 134.115 261.71C133.986 261.326 133.852 260.965 133.623 260.774C133.451 260.632 133.226 260.577 132.972 260.577ZM136.259 279.752L136.471 280.366L136.259 279.752ZM136.38 281.031C135.629 281.031 134.71 280.121 133.136 278.275C132.903 278.004 132.683 277.747 132.583 277.648C131.897 276.969 131.155 276.406 130.439 275.86C128.571 274.434 126.802 273.086 126.427 270.103C126.099 267.537 125.914 264.813 126.751 262.285C126.88 261.893 127.065 261.448 127.445 261.132C127.708 260.913 128.006 260.806 128.243 260.72L131.16 259.667C131.82 259.429 133.369 258.871 134.447 259.774C134.939 260.183 135.159 260.748 135.34 261.293C135.892 262.935 136.337 264.632 136.656 266.34C136.665 266.315 136.673 266.289 136.678 266.262C136.906 265.487 136.867 264.476 136.837 263.584C136.833 263.422 136.824 263.263 136.82 263.109C136.807 262.533 137.092 262.007 137.584 261.698C138.063 261.395 138.649 261.369 139.15 261.629C140.043 262.097 141.32 263.141 142.334 265.459C143.49 268.094 143.373 271.06 143.145 273.35C143.11 273.656 143.123 274.193 143.132 274.761C143.179 277.141 143.132 278.728 142.105 279.087L136.682 280.98C136.583 281.014 136.483 281.031 136.38 281.031Z" fill="#333A43"/>
<path d="M132.951 279.257L143.871 275.226C148.159 282.926 152.762 289.54 157.892 293.683C160.912 296.119 164.178 298.103 167.608 299.644C169.152 300.338 170.96 299.621 171.577 298.04C173.281 293.686 176.111 286.828 181.124 278.743C184.895 272.669 191.151 267.686 196.345 265.097C204.413 261.076 213.796 259.134 222.735 260.926C239.988 264.383 251.783 274.485 251.783 274.485C261.171 282.013 278.51 308.261 272.328 320.9C264.747 336.4 244.311 327.332 244.311 327.332C244.311 327.332 242.326 330.586 246.589 340.481C251.77 352.502 244.263 354.111 244.263 354.111C226.821 362.679 180.611 360.764 184.55 351.197C188.769 340.955 188.838 327.973 188.838 327.973C183.01 333.765 175.05 332.855 175.05 332.855C175.05 332.855 170.451 332.507 167.275 331.195C139.673 321.993 132.951 279.257 132.951 279.257Z" fill="#333A43"/>
<path d="M244.046 319.988C243.977 319.988 243.908 319.976 243.835 319.952C243.499 319.835 243.322 319.465 243.438 319.125C249.116 302.617 246.493 289.35 246.467 289.218C246.393 288.866 246.618 288.522 246.967 288.449C247.317 288.377 247.662 288.603 247.731 288.955C247.761 289.09 250.453 302.708 244.659 319.55C244.569 319.819 244.318 319.988 244.046 319.988Z" fill="white"/>
<path d="M189.182 328.713C189.014 328.713 188.846 328.647 188.716 328.517C188.466 328.26 188.475 327.848 188.729 327.597C197.56 318.934 203.963 297.968 204.027 297.758C204.131 297.414 204.493 297.22 204.834 297.324C205.175 297.429 205.369 297.792 205.266 298.135C205.002 299.009 198.699 319.632 189.631 328.528C189.506 328.651 189.346 328.713 189.182 328.713Z" fill="white"/>
<path d="M185.031 350.613C184.958 350.613 184.88 350.6 184.807 350.572C184.47 350.446 184.302 350.071 184.427 349.735C187.313 342.006 187.986 332.99 188.142 329.477C182.335 334.275 175.294 333.538 174.974 333.502C174.811 333.489 170.281 333.135 167.049 331.805C155.591 327.977 145.948 317.684 139.166 302.035C134.062 290.261 132.324 279.467 132.306 279.359C132.259 279.053 132.436 278.754 132.725 278.647L143.644 274.617C143.942 274.506 144.279 274.631 144.43 274.91C149.249 283.558 153.783 289.533 158.296 293.177C161.212 295.529 164.43 297.506 167.873 299.052C168.464 299.318 169.116 299.33 169.711 299.086C170.294 298.847 170.742 298.392 170.975 297.803C172.912 292.847 175.755 286.163 180.574 278.4C184.66 271.815 191.248 266.91 196.054 264.516C204.911 260.101 214.433 258.599 222.863 260.289C240.077 263.74 252.083 273.889 252.204 273.99C261.264 281.256 279.371 307.97 272.904 321.187C265.91 335.488 248.274 329.569 244.689 328.186C244.382 329.412 244.054 332.965 247.182 340.223C248.628 343.58 249.244 346.479 249.007 348.84C248.973 349.197 248.662 349.457 248.3 349.423C247.946 349.387 247.687 349.068 247.722 348.711C247.933 346.574 247.351 343.891 245.996 340.74C241.647 330.651 243.67 327.137 243.757 326.993C243.925 326.715 244.274 326.606 244.572 326.737C244.62 326.76 249.667 328.969 255.543 329.282C263.283 329.692 268.732 326.777 271.743 320.613C274.353 315.275 272.783 306.561 267.317 296.078C262.942 287.679 256.384 279.008 251.38 274.993C251.246 274.881 239.481 264.946 222.608 261.564C214.459 259.931 205.235 261.393 196.628 265.68C191.986 267.996 185.613 272.734 181.675 279.088C176.912 286.762 174.099 293.374 172.179 298.278C171.817 299.201 171.113 299.915 170.203 300.29C169.275 300.67 168.262 300.651 167.343 300.238C163.801 298.647 160.487 296.612 157.489 294.191C152.929 290.51 148.373 284.565 143.571 276.028L133.678 279.681C134.088 281.966 135.956 291.384 140.366 301.543C144.99 312.208 153.451 325.903 167.476 330.578C167.494 330.583 167.507 330.588 167.52 330.594C170.565 331.853 175.052 332.204 175.1 332.207C175.199 332.218 182.852 333.005 188.383 327.511C188.569 327.326 188.849 327.271 189.086 327.374C189.328 327.476 189.488 327.713 189.483 327.976C189.483 328.097 189.376 340.179 185.639 350.191C185.54 350.452 185.294 350.613 185.031 350.613Z" fill="#333A43"/>
<path d="M16.7539 162.407C16.7539 153.066 24.2909 145.492 33.5924 145.492C42.8896 145.492 50.431 153.066 50.431 162.407C50.431 171.749 42.8896 179.322 33.5924 179.322C24.2909 179.322 16.7539 171.749 16.7539 162.407Z" fill="white"/>
<path d="M33.595 146.143C24.6688 146.143 17.4037 153.44 17.4037 162.408C17.4037 171.376 24.6688 178.672 33.595 178.672C42.5212 178.672 49.7864 171.376 49.7864 162.408C49.7864 153.44 42.5212 146.143 33.595 146.143ZM33.595 179.973C23.9526 179.973 16.1094 172.093 16.1094 162.408C16.1094 152.722 23.9526 144.843 33.595 144.843C43.2374 144.843 51.0807 152.722 51.0807 162.408C51.0807 172.093 43.2374 179.973 33.595 179.973Z" fill="#333A43"/>
<path d="M33.6863 170.917C33.5224 171.02 33.311 171.025 33.1428 170.929C31.6587 170.096 24.7731 165.93 25.0449 160.48C25.3297 154.72 31.5509 155.719 33.0867 158.554C33.1428 158.661 33.2592 158.725 33.38 158.719C33.5008 158.713 33.6087 158.637 33.6562 158.524C34.4112 156.703 36.8444 155.384 39.1353 156.249C41.8705 157.28 44.6489 164.093 33.6863 170.917Z" fill="#FB9946"/>
</svg>
