<svg width="16" height="8" viewBox="0 0 16 8" fill="none" xmlns="http://www.w3.org/2000/svg">
<path d="M0.624989 4.62501L13.8612 4.62501L11.6686 6.807C11.4239 7.0505 11.423 7.44622 11.6665 7.69088C11.91 7.93556 12.3057 7.93647 12.5504 7.693L15.8161 4.44301C15.8163 4.44282 15.8165 4.4426 15.8167 4.44241C16.0607 4.19891 16.0615 3.80191 15.8167 3.5576C15.8165 3.55741 15.8164 3.5572 15.8162 3.55701L12.5504 0.307013C12.3058 0.0635753 11.9101 0.0644188 11.6665 0.309137C11.423 0.553793 11.424 0.949512 11.6686 1.19301L13.8612 3.37501L0.624989 3.37501C0.279801 3.37501 -1.14441e-05 3.65482 -1.14441e-05 4.00001C-1.14441e-05 4.34519 0.279801 4.62501 0.624989 4.62501Z" fill="#23282E"/>
</svg>
