<svg width="24" height="24" viewBox="0 0 24 24" fill="none" xmlns="http://www.w3.org/2000/svg">
<g clip-path="url(#clip0)">
<path d="M5.31891 14.5034L4.4835 17.6221L1.43011 17.6867C0.517594 15.9942 0 14.0578 0 11.9999C0 10.0101 0.483938 8.13356 1.34175 6.48126H1.34241L4.06078 6.97964L5.25159 9.6817C5.00236 10.4083 4.86652 11.1883 4.86652 11.9999C4.86661 12.8808 5.02617 13.7248 5.31891 14.5034Z" fill="#FBBB00"/>
<path d="M23.7897 9.75822C23.9275 10.4841 23.9994 11.2338 23.9994 12C23.9994 12.8591 23.909 13.6971 23.737 14.5055C23.1528 17.2563 21.6264 19.6582 19.5119 21.358L19.5113 21.3573L16.0873 21.1826L15.6027 18.1576C17.0058 17.3347 18.1023 16.047 18.6799 14.5055H12.2632V9.75822H18.7735H23.7897Z" fill="#518EF8"/>
<path d="M19.5109 21.3574L19.5116 21.3581C17.4551 23.011 14.8428 24 11.9991 24C7.4292 24 3.45603 21.4458 1.4292 17.6869L5.318 14.5036C6.33139 17.2082 8.9404 19.1335 11.9991 19.1335C13.3138 19.1335 14.5455 18.7781 15.6024 18.1576L19.5109 21.3574Z" fill="#28B446"/>
<path d="M19.6588 2.76262L15.7713 5.94525C14.6774 5.26153 13.3844 4.86656 11.9992 4.86656C8.87127 4.86656 6.21346 6.88017 5.25083 9.68175L1.3416 6.48131H1.34094C3.3381 2.63077 7.36138 0 11.9992 0C14.9108 0 17.5805 1.03716 19.6588 2.76262Z" fill="#F14336"/>
</g>
<defs>
<clipPath id="clip0">
<rect width="24" height="24" fill="white"/>
</clipPath>
</defs>
</svg>
