<svg width="48" height="48" viewBox="0 0 48 48" fill="none" xmlns="http://www.w3.org/2000/svg">
<g clip-path="url(#clip0)">
<path d="M47.2967 26.4297V21.5701C47.2967 21.0743 46.9206 20.6593 46.4273 20.611L41.0045 20.0778C40.6112 20.0394 40.286 19.761 40.1776 19.3805C39.8205 18.127 39.3221 16.9332 38.6999 15.8173C38.5088 15.4742 38.552 15.0479 38.8014 14.7443L42.2547 10.5377C42.5693 10.1546 42.5418 9.59542 42.1914 9.24496L38.7552 5.80845C38.4044 5.45799 37.8452 5.43052 37.4621 5.7451L33.2555 9.19882C32.9519 9.44821 32.5256 9.49142 32.1825 9.29989C31.067 8.6777 29.8728 8.17929 28.6193 7.82224C28.2392 7.71421 27.9605 7.38901 27.922 6.99534L27.3888 1.57251C27.3405 1.07922 26.9256 0.703125 26.4301 0.703125H21.5701C21.0743 0.703125 20.6593 1.07922 20.611 1.57251L20.0778 6.99534C20.0394 7.38901 19.761 7.71384 19.3809 7.82224C18.1274 8.17929 16.9332 8.6777 15.8177 9.29989C15.4746 9.49142 15.0483 9.44821 14.7447 9.19882L10.538 5.7451C10.1546 5.43052 9.59542 5.45799 9.24496 5.80845L5.80845 9.24496C5.45799 9.59542 5.43052 10.1546 5.7451 10.5377L9.19882 14.7443C9.44821 15.0483 9.49142 15.4746 9.29989 15.8173C8.6777 16.9332 8.17929 18.127 7.82224 19.3805C7.71421 19.761 7.38901 20.0394 6.99534 20.0778L1.57251 20.611C1.07922 20.6593 0.703125 21.0743 0.703125 21.5701V26.4297C0.703125 26.9256 1.07922 27.3405 1.57251 27.3888L6.99534 27.922C7.38901 27.9605 7.71384 28.2388 7.82224 28.6193C8.17929 29.8728 8.6777 31.0667 9.29989 32.1825C9.49142 32.5256 9.44821 32.9519 9.19882 33.2555L5.7451 37.4621C5.43052 37.8452 5.45799 38.4044 5.80845 38.7549L9.24496 42.1914C9.59542 42.5418 10.1546 42.5693 10.5377 42.2547L14.7443 38.801C15.0483 38.552 15.4746 38.5088 15.8173 38.6999C16.9332 39.3221 18.127 39.8205 19.3805 40.1776C19.761 40.286 20.0394 40.6112 20.0778 41.0045L20.611 46.4273C20.6593 46.9206 21.0743 47.2967 21.5701 47.2967H26.4297C26.9256 47.2967 27.3405 46.9206 27.3888 46.4273L27.922 41.0045C27.9605 40.6112 28.2388 40.286 28.6193 40.1776C29.8728 39.8205 31.0667 39.3221 32.1825 38.6999C32.5256 38.5088 32.9519 38.552 33.2555 38.801L37.4621 42.2547C37.8452 42.5693 38.4044 42.5418 38.7549 42.1914L42.1914 38.7549C42.5418 38.4044 42.5693 37.8452 42.2547 37.4621L38.801 33.2555C38.552 32.9515 38.5088 32.5253 38.6999 32.1825C39.3221 31.0667 39.8205 29.8728 40.1776 28.6193C40.286 28.2388 40.6112 27.9605 41.0045 27.922L46.4273 27.3888C46.9206 27.3405 47.2967 26.9256 47.2967 26.4297Z" fill="#FEC99E"/>
<path d="M23.9999 38.3436C16.0909 38.3436 9.65625 31.909 9.65625 23.9999C9.65625 16.0909 16.0909 9.65625 23.9999 9.65625C31.909 9.65625 38.3436 16.0909 38.3436 23.9999C38.3436 31.909 31.909 38.3436 23.9999 38.3436Z" fill="#FEC99E"/>
<path d="M37.2186 23.9999C37.2186 31.3003 31.3007 37.2186 23.9999 37.2186C16.6996 37.2186 10.7812 31.3003 10.7812 23.9999C10.7812 16.6996 16.6996 10.7812 23.9999 10.7812C31.3007 10.7812 37.2186 16.6996 37.2186 23.9999Z" fill="#FB9946"/>
<path d="M23.9995 35.1753C17.8376 35.1753 12.8242 30.1622 12.8242 24C12.8242 17.8378 17.8376 12.8247 23.9995 12.8247C30.1617 12.8247 35.1748 17.8378 35.1748 24C35.1748 30.1622 30.1617 35.1753 23.9995 35.1753Z" fill="#FB9946"/>
<path d="M34.0498 24C34.0498 29.5507 29.5502 34.0503 23.9995 34.0503C18.4489 34.0503 13.9492 29.5507 13.9492 24C13.9492 18.4493 18.4489 13.9497 23.9995 13.9497C29.5502 13.9497 34.0498 18.4493 34.0498 24Z" fill="#FFF7EF"/>
<path d="M11.1855 40.8133L10.0916 41.7112C9.98763 41.7969 9.83712 41.7896 9.74227 41.694L6.30576 38.2578C6.21055 38.1626 6.20322 38.0121 6.28855 37.9081L9.74227 33.7015C10.1799 33.1683 10.2476 32.4377 9.91402 31.84C9.31307 30.7619 8.83663 29.6135 8.49862 28.4266C8.30929 27.7623 7.74643 27.2895 7.06418 27.2221L1.64172 26.6893C1.50732 26.6761 1.40624 26.5644 1.40624 26.4296V21.57C1.40624 21.4353 1.50732 21.3236 1.64135 21.3104L7.06418 20.7776C7.74643 20.7102 8.30929 20.2374 8.49862 19.5731C8.83663 18.3862 9.31307 17.2378 9.91439 16.1597C10.2473 15.562 10.1799 14.8314 9.74227 14.2982L6.28855 10.0916C6.20322 9.98757 6.21055 9.83706 6.30576 9.74185L9.7419 6.3057C9.83749 6.21049 9.98763 6.20316 10.0916 6.28849L10.9145 6.96378C11.2141 7.21024 11.6575 7.16666 11.904 6.86637C12.1505 6.56644 12.1069 6.12333 11.8066 5.87687L10.9841 5.20158C10.3183 4.65483 9.35702 4.7017 8.74765 5.31108L5.31114 8.74759C4.70213 9.35659 4.65489 10.3183 5.20164 10.9837L8.65536 15.1903C8.72274 15.2723 8.73483 15.387 8.68576 15.4749C8.03207 16.6475 7.51389 17.8966 7.14621 19.1879C7.11618 19.2933 7.02976 19.368 6.92649 19.3779L1.50366 19.9111C0.646726 19.9953 0 20.7087 0 21.57V26.4296C0 27.291 0.646726 28.0043 1.50402 28.0886L6.92649 28.6218C7.03012 28.6317 7.11618 28.7064 7.14621 28.8118C7.51389 30.1027 8.03207 31.3522 8.68576 32.5248C8.7352 32.6127 8.72274 32.727 8.65536 32.809L5.20164 37.0157C4.65525 37.6814 4.70213 38.6427 5.3115 39.2521L8.74765 42.6882C9.07284 43.0134 9.49837 43.1786 9.92611 43.1786C10.2989 43.1786 10.6739 43.0526 10.9841 42.7981L12.078 41.8998C12.3779 41.6537 12.4215 41.2106 12.175 40.9103C11.9285 40.6104 11.4854 40.5668 11.1855 40.8133Z" fill="#333A43"/>
<path d="M46.4968 19.9112L41.074 19.378C40.9707 19.3681 40.8846 19.2934 40.8546 19.1879C40.4866 17.897 39.9687 16.6475 39.3147 15.4749C39.2656 15.387 39.2781 15.2728 39.3454 15.1907L42.7988 10.9841C43.3455 10.318 43.2983 9.35665 42.6893 8.74765L39.2528 5.3115C38.6438 4.7025 37.6825 4.65525 37.0167 5.20164L32.8101 8.65536C32.728 8.72274 32.6134 8.73483 32.5255 8.68612C31.3529 8.03207 30.1038 7.51389 28.8125 7.14621C28.7071 7.11618 28.6327 7.03012 28.6225 6.92685L28.0893 1.50402C28.0054 0.64636 27.292 0 26.4307 0H21.5707C20.7094 0 19.996 0.64636 19.9118 1.50366L19.379 6.92649C19.3687 7.02976 19.294 7.11582 19.1889 7.14621C17.8977 7.51389 16.6481 8.03207 15.4759 8.68576C15.3877 8.73483 15.2734 8.72274 15.1914 8.65536L14.159 7.80759C13.8591 7.56149 13.416 7.60471 13.1695 7.905C12.9231 8.20529 12.9666 8.64804 13.2666 8.89486L14.2993 9.74227C14.8321 10.1799 15.5627 10.2473 16.1607 9.91402C17.2385 9.31307 18.3869 8.83663 19.5738 8.49862C20.2385 8.30929 20.7112 7.74643 20.7783 7.06418L21.3115 1.64135C21.3246 1.50732 21.436 1.40624 21.5707 1.40624H26.4307C26.5655 1.40624 26.6768 1.50732 26.69 1.64135L27.2232 7.06418C27.2902 7.74606 27.763 8.30929 28.4276 8.49862C29.6145 8.83663 30.763 9.31307 31.8411 9.91402C32.4384 10.2473 33.169 10.1799 33.7025 9.74227L37.9092 6.28855C38.0132 6.20322 38.1633 6.21018 38.2585 6.30576L41.695 9.7419C41.7903 9.83749 41.7976 9.98763 41.7123 10.0916L38.2585 14.2983C37.8209 14.8315 37.7532 15.5621 38.0868 16.1597C38.6877 17.2378 39.1642 18.3863 39.5022 19.5732C39.6915 20.2378 40.2544 20.7106 40.9366 20.7776L46.3595 21.3108C46.4935 21.324 46.5946 21.4353 46.5946 21.5701V26.4301C46.5946 26.5645 46.4935 26.6762 46.3595 26.6893L40.9366 27.2222C40.2547 27.2896 39.6915 27.7623 39.5022 28.4266C39.1642 29.6139 38.6877 30.7623 38.0868 31.8401C37.7532 32.4381 37.8209 33.1687 38.2585 33.7015L41.7123 37.9082C41.7976 38.0125 41.7903 38.1627 41.695 38.2579L38.2585 41.6944C38.1633 41.7896 38.0132 41.797 37.9092 41.7116L33.7025 38.2579C33.1693 37.8199 32.4384 37.7525 31.8411 38.0862C30.763 38.6871 29.6145 39.1632 28.4276 39.5016C27.763 39.6909 27.2902 40.2537 27.2232 40.936L26.69 46.3588C26.6768 46.4929 26.5655 46.5939 26.4307 46.5939H21.5707C21.436 46.5939 21.3246 46.4929 21.3115 46.3588L20.7783 40.9356C20.7112 40.2537 20.2385 39.6909 19.5738 39.5016C18.3869 39.1635 17.2385 38.6871 16.1607 38.0862C15.5627 37.7525 14.8321 37.8203 14.2989 38.2579L13.5379 38.8827C13.2376 39.1291 13.1941 39.5722 13.4405 39.8725C13.687 40.1728 14.1301 40.216 14.43 39.9696L15.1914 39.3448C15.2734 39.2774 15.388 39.265 15.4759 39.3144C16.6485 39.9681 17.8977 40.4863 19.1889 40.854C19.294 40.884 19.3687 40.9701 19.379 41.0733L19.9118 46.4965C19.996 47.3535 20.7094 48.0002 21.5707 48.0002H26.4307C27.292 48.0002 28.0054 47.3535 28.0893 46.4962L28.6225 41.0733C28.6324 40.9701 28.7071 40.884 28.8125 40.854C30.1034 40.4863 31.3529 39.9681 32.5255 39.3141C32.6134 39.265 32.7277 39.2774 32.8101 39.3448L37.0167 42.7985C37.6825 43.3449 38.6438 43.2977 39.2528 42.6887L42.6889 39.2525C43.2983 38.6432 43.3455 37.6819 42.7988 37.0161L39.3451 32.8094C39.2777 32.7274 39.2656 32.6132 39.3147 32.5253C39.9684 31.3527 40.4866 30.1032 40.8542 28.8119C40.8843 28.7068 40.9707 28.6321 41.074 28.6218L46.4968 28.089C47.3541 28.0048 48.0004 27.2914 48.0004 26.4301V21.5705C48.0004 20.7088 47.3541 19.9954 46.4968 19.9112Z" fill="#333A43"/>
<path d="M10.0781 23.9999C10.0781 31.6764 16.3235 37.9218 23.9999 37.9218C27.227 37.9218 30.3724 36.7924 32.8571 34.7416C33.1563 34.4944 33.1988 34.0513 32.9516 33.7517C32.7044 33.4522 32.2613 33.4101 31.9617 33.6569C29.7286 35.5004 26.9011 36.5155 23.9999 36.5155C17.0991 36.5155 11.4844 30.9012 11.4844 23.9999C11.4844 17.0987 17.0991 11.4844 23.9999 11.4844C30.9012 11.4844 36.5155 17.0987 36.5155 23.9999C36.5155 26.7579 35.6355 29.3737 33.9707 31.5647C33.7356 31.8738 33.7957 32.3151 34.1051 32.5498C34.4142 32.7849 34.8551 32.7245 35.0902 32.4154C36.9429 29.978 37.9218 27.0677 37.9218 23.9999C37.9218 16.3235 31.6764 10.0781 23.9999 10.0781C16.3235 10.0781 10.0781 16.3235 10.0781 23.9999Z" fill="#333A43"/>
<path d="M23.9995 13.2466C18.0702 13.2466 13.2461 18.0707 13.2461 24C13.2461 29.9293 18.0702 34.7534 23.9995 34.7534C29.9292 34.7534 34.7529 29.9293 34.7529 24C34.7529 18.0707 29.9292 13.2466 23.9995 13.2466ZM23.9995 33.3472C18.8455 33.3472 14.6523 29.1541 14.6523 24C14.6523 18.8459 18.8455 14.6528 23.9995 14.6528C29.1536 14.6528 33.3467 18.8459 33.3467 24C33.3467 29.1541 29.1536 33.3472 23.9995 33.3472Z" fill="#333A43"/>
<path d="M28.3119 27.3566H24.9808V27.3408C24.9808 26.9526 24.6659 26.6377 24.2777 26.6377C23.8892 26.6377 23.5746 26.9526 23.5746 27.3408V27.3566H19.6895C19.3009 27.3566 18.9863 27.6711 18.9863 28.0597C18.9863 28.4482 19.3009 28.7628 19.6895 28.7628H23.5746V28.7786C23.5746 29.1667 23.8892 29.4817 24.2777 29.4817C24.6659 29.4817 24.9808 29.1667 24.9808 28.7786V28.7628H28.3119C28.7001 28.7628 29.015 28.4482 29.015 28.0597C29.015 27.6711 28.7001 27.3566 28.3119 27.3566Z" fill="#333A43"/>
<path d="M28.3119 23.297H27.6996V23.2812C27.6996 22.8931 27.3846 22.5781 26.9965 22.5781C26.6079 22.5781 26.2933 22.8931 26.2933 23.2812V23.297H19.6895C19.3009 23.297 18.9863 23.6116 18.9863 24.0001C18.9863 24.3887 19.3009 24.7032 19.6895 24.7032H26.2933V24.719C26.2933 25.1072 26.6079 25.4221 26.9965 25.4221C27.3846 25.4221 27.6996 25.1072 27.6996 24.719V24.7032H28.3119C28.7001 24.7032 29.015 24.3887 29.015 24.0001C29.015 23.6116 28.7001 23.297 28.3119 23.297Z" fill="#333A43"/>
<path d="M28.3119 19.2369H22.6726V19.2212C22.6726 18.833 22.3577 18.5181 21.9695 18.5181C21.5809 18.5181 21.2664 18.833 21.2664 19.2212V19.2369H19.6895C19.3009 19.2369 18.9863 19.5515 18.9863 19.9401C18.9863 20.3286 19.3009 20.6432 19.6895 20.6432H21.2664V20.6589C21.2664 21.0471 21.5809 21.3621 21.9695 21.3621C22.3577 21.3621 22.6726 21.0471 22.6726 20.6589V20.6432H28.3119C28.7001 20.6432 29.015 20.3286 29.015 19.9401C29.015 19.5515 28.7001 19.2369 28.3119 19.2369Z" fill="#333A43"/>
<path d="M23.9982 7.25928H24.0044C24.39 7.25928 24.7043 6.94873 24.7076 6.56274C24.7112 6.17419 24.3992 5.85669 24.0106 5.85303H24.0004C23.9982 5.85303 23.9964 5.85303 23.9942 5.85303C23.6089 5.85303 23.2947 6.16357 23.291 6.54993C23.2877 6.93848 23.5998 7.25598 23.9879 7.25928H23.9982Z" fill="#333A43"/>
<path d="M24.0008 40.7402C23.9986 40.7402 23.9964 40.7402 23.9942 40.7402C23.6089 40.7402 23.2947 41.0508 23.291 41.4368C23.2877 41.8253 23.5998 42.1428 23.9879 42.1465H23.9982H24.0048C24.39 42.1465 24.7043 41.8359 24.7076 41.4496C24.7112 41.061 24.3992 40.7435 24.0106 40.7402H24.0008Z" fill="#333A43"/>
<path d="M41.4372 24.7085H41.4434C41.829 24.7085 42.1429 24.3979 42.1465 24.0116V24.0013C42.1502 23.6132 41.8382 23.2957 41.4496 23.292C41.4474 23.292 41.4456 23.292 41.4434 23.292C41.0578 23.292 40.7439 23.6029 40.7403 23.9889V23.9991C40.7366 24.3873 41.0486 24.7052 41.4372 24.7085Z" fill="#333A43"/>
<path d="M6.56326 23.292C6.56106 23.292 6.55887 23.292 6.55667 23.292C6.17141 23.292 5.8572 23.6025 5.85391 23.9889L5.85354 23.9991C5.85025 24.3873 6.16226 24.7048 6.55044 24.7085H6.55703C6.94229 24.7085 7.2565 24.3976 7.25979 24.0116L7.26016 24.0013C7.26346 23.6132 6.95144 23.2953 6.56326 23.292Z" fill="#333A43"/>
</g>
<defs>
<clipPath id="clip0">
<rect width="48" height="48" fill="white"/>
</clipPath>
</defs>
</svg>
