<svg width="18" height="18" viewBox="0 0 18 18" fill="none" xmlns="http://www.w3.org/2000/svg">
<g clip-path="url(#clip0)">
<path d="M10.2313 12.7671C10.9195 12.7671 11.4771 13.2879 11.4771 13.9302V13.9561C11.4771 14.5973 10.9217 15.1177 10.2348 15.1192C7.98736 15.1246 7.7668 15.1212 4.41009 15.118C2.52531 15.1162 0.998812 13.6894 0.998812 11.93L0.998812 8.1526C0.998812 6.99672 1.66937 5.93104 2.75084 5.36783L9.22128 2L9.51311 2.35182C10.1828 3.08041 10.1004 4.17631 9.32878 4.81018L8.18131 5.75272L16.0751 5.75814C16.763 5.75859 17.3203 6.2794 17.3203 6.92139V6.92169C17.3203 7.56414 16.7622 8.08495 16.0741 8.08495L11.2967 8.08495C11.9703 8.10028 12.5103 8.61493 12.5103 9.2473V9.27451C12.5103 9.91696 11.9525 10.4378 11.2644 10.4378H10.8632C11.5515 10.4378 12.1092 10.9584 12.1092 11.6013V11.604C12.1092 12.2463 11.5515 12.7671 10.8632 12.7671H10.2313Z" fill="#F7CAA5"/>
</g>
<defs>
<clipPath id="clip0">
<rect width="17.122" height="16.3215" fill="white" transform="translate(17.3203) rotate(90)"/>
</clipPath>
</defs>
</svg>
