<svg width="24" height="24" viewBox="0 0 24 24" fill="none" xmlns="http://www.w3.org/2000/svg">
<path d="M18.375 23.9977H5.625C2.52338 23.9977 0 21.4744 0 18.3727V10.485C0 8.74171 0.827578 7.06972 2.21372 6.01246L8.58872 1.15016C10.5973 -0.38176 13.4027 -0.38176 15.4113 1.15016L17.4375 2.69422V1.49774C17.487 0.253865 19.2634 0.254803 19.3125 1.49774V4.58732C19.3125 4.94371 19.1104 5.26926 18.791 5.42746C18.4716 5.58562 18.0902 5.54896 17.8067 5.33301L14.2745 2.6413C12.9352 1.6198 11.0647 1.6198 9.72577 2.64107L3.35077 7.50337C2.42672 8.20813 1.875 9.32277 1.875 10.485V18.3727C1.875 20.4405 3.55725 22.1227 5.625 22.1227H18.375C20.4427 22.1227 22.125 20.4405 22.125 18.3727V10.485C22.125 9.30852 21.5795 8.19008 20.6658 7.49315C20.2541 7.17913 20.175 6.59085 20.489 6.17919C20.803 5.76749 21.3913 5.68832 21.8029 6.00233C23.1787 7.05158 24 8.72737 24 10.485V18.3727C24 21.4744 21.4766 23.9977 18.375 23.9977ZM10.125 10.8259C9.4778 10.8259 8.95312 11.3505 8.95312 11.9977C9.01505 13.5526 11.2355 13.5514 11.2969 11.9977C11.2969 11.3505 10.7722 10.8259 10.125 10.8259ZM15.0469 11.9977C14.985 13.5525 12.7645 13.5514 12.7031 11.9977C12.765 10.4429 14.9855 10.4441 15.0469 11.9977ZM11.2969 15.7477C11.235 17.3025 9.01448 17.3014 8.95312 15.7477C9.01505 14.1928 11.2355 14.1941 11.2969 15.7477ZM15.0469 15.7477C14.985 17.3025 12.7645 17.3014 12.7031 15.7477C12.765 14.1928 14.9855 14.1941 15.0469 15.7477Z" fill="#E25569"/>
</svg>
