<svg width="280" height="210" viewBox="0 0 280 210" fill="none" xmlns="http://www.w3.org/2000/svg">
<path d="M99.9737 52.7695C90.6999 96.0947 36.2693 90.354 25.4026 124.009C18.1089 146.601 29.3753 173.645 47.9062 188.447C120.129 246.134 300.575 183.983 233.706 50.2523C207.047 -3.06186 117.731 -30.1864 99.9737 52.7695Z" fill="url(#paint0_linear)"/>
<path d="M43.7221 48.6039C43.7221 59.0341 52.161 67.4893 62.571 67.4893C72.9811 67.4893 81.4199 59.0341 81.4199 48.6039C81.4199 38.1739 72.9811 29.7184 62.571 29.7184C52.161 29.7184 43.7221 38.1739 43.7221 48.6039Z" fill="url(#paint1_linear)"/>
<path d="M62.5691 20.8127C77.863 20.8127 90.3053 33.2793 90.3053 48.6027C90.3053 63.926 77.863 76.3926 62.5691 76.3926C47.2751 76.3926 34.8329 63.926 34.8329 48.6027C34.8329 33.2793 47.2751 20.8127 62.5691 20.8127ZM62.5691 77.6973C78.5808 77.6973 91.6074 64.6454 91.6074 48.6027C91.6074 32.5597 78.5808 19.5081 62.5691 19.5081C46.5573 19.5081 33.5307 32.5597 33.5307 48.6027C33.5307 64.6454 46.5573 77.6973 62.5691 77.6973Z" fill="url(#paint2_linear)"/>
<path d="M0.000106812 156.893C0.000106812 161.936 4.0811 166.025 9.11529 166.025C14.1521 166.025 18.2305 161.936 18.2305 156.893C18.2305 151.849 14.1521 147.76 9.11529 147.76C4.0811 147.76 0.000106812 151.849 0.000106812 156.893Z" fill="url(#paint3_linear)"/>
<path d="M251.578 88.0058C251.578 93.0498 255.659 97.1387 260.693 97.1387C265.728 97.1387 269.809 93.0498 269.809 88.0058C269.809 82.9619 265.728 78.873 260.693 78.873C255.659 78.873 251.578 82.9619 251.578 88.0058Z" fill="url(#paint4_linear)"/>
<path d="M262.323 149.097C271.352 149.097 278.698 156.457 278.698 165.504C278.698 174.55 271.352 181.91 262.323 181.91C253.294 181.91 245.948 174.55 245.948 165.504C245.948 156.457 253.294 149.097 262.323 149.097ZM262.323 183.215C272.07 183.215 280 175.27 280 165.504C280 155.738 272.07 147.792 262.323 147.792C252.576 147.792 244.646 155.738 244.646 165.504C244.646 175.27 252.576 183.215 262.323 183.215Z" fill="url(#paint5_linear)"/>
<path d="M139.449 24.6775C139.097 29.2562 135.125 32.6801 130.579 32.3277C126.031 31.9729 122.63 27.9752 122.982 23.3989C123.332 18.8202 127.303 15.3963 131.852 15.7487C136.398 16.1035 139.799 20.1012 139.449 24.6775ZM134.092 7.50568L130.894 7.25807L129.863 10.6272C129.11 10.7034 128.377 10.8415 127.663 11.0367L125.496 8.27237L122.601 9.66765L123.382 13.1058C122.779 13.5463 122.211 14.0344 121.688 14.5678L118.431 13.263L116.617 15.9273L118.999 18.5107C118.696 19.1869 118.448 19.8988 118.258 20.6322L114.791 21.1417L114.545 24.3608L117.894 25.4013C117.97 26.1561 118.105 26.8966 118.301 27.6133L115.553 29.7967L116.939 32.7086L120.356 31.9229C120.792 32.5301 121.277 33.1015 121.809 33.6301L120.513 36.9064L123.157 38.7326L125.723 36.3349C126.397 36.6397 127.102 36.8897 127.833 37.0802L128.337 40.5707L131.537 40.8184L132.569 37.4492C133.318 37.373 134.054 37.2349 134.766 37.0397L136.935 39.804L139.828 38.4088L139.047 34.9706C139.653 34.5301 140.218 34.042 140.743 33.5087L144 34.8135L145.812 32.1491L143.432 29.5657C143.735 28.8895 143.981 28.1776 144.17 27.4442L147.638 26.9347L147.884 23.7156L144.537 22.6751C144.461 21.9203 144.326 21.1798 144.13 20.4631L146.876 18.2797L145.49 15.3678L142.075 16.1535C141.637 15.5463 141.152 14.9749 140.622 14.4463L141.919 11.1701L139.272 9.34382L136.708 11.7415C136.034 11.4367 135.329 11.1867 134.598 10.9962L134.092 7.50568Z" fill="#FEC99E"/>
<path d="M165.159 19.6454C164.79 22.4383 162.242 24.4002 159.468 24.0312C156.693 23.6597 154.744 21.0954 155.111 18.3025C155.48 15.5096 158.027 13.5476 160.802 13.9167C163.577 14.2881 165.526 16.8525 165.159 19.6454ZM162.451 8.94275L160.499 8.68321L159.754 10.7118C159.293 10.7333 158.836 10.7928 158.394 10.888L157.157 9.12132L155.338 9.87848L155.702 12.0119C155.317 12.2595 154.953 12.5404 154.614 12.85L152.663 11.9404L151.464 13.5095L152.836 15.1738C152.627 15.5786 152.452 16.0048 152.311 16.4477L150.17 16.6429L149.912 18.6072L151.927 19.3573C151.949 19.8216 152.008 20.2811 152.102 20.7263L150.347 21.9692L151.099 23.8026L153.219 23.4359C153.465 23.824 153.744 24.1907 154.051 24.5312L153.148 26.4955L154.707 27.7027L156.36 26.3217C156.762 26.5312 157.185 26.7074 157.625 26.8479L157.819 29.0051L159.771 29.2646L160.516 27.236C160.977 27.2146 161.434 27.1551 161.876 27.0598L163.111 28.8265L164.932 28.0694L164.568 25.936C164.953 25.6884 165.317 25.4074 165.656 25.0979L167.607 26.0074L168.806 24.4383L167.434 22.774C167.642 22.3692 167.818 21.943 167.957 21.5002L170.1 21.3049L170.358 19.3406L168.343 18.5906C168.321 18.1263 168.262 17.6667 168.165 17.2215L169.923 15.9762L169.17 14.1452L167.051 14.5119C166.805 14.1238 166.526 13.7571 166.219 13.4166L167.122 11.4523L165.563 10.2451L163.91 11.6261C163.508 11.4166 163.085 11.2404 162.645 11.0976L162.451 8.94275Z" fill="#FEC99E"/>
<path d="M109.478 155.307C113.761 152.206 118.21 149.315 122.737 146.557C131.927 140.959 141.487 135.956 151.119 131.107C156.188 128.557 161.401 126.249 166.56 123.876C171.751 121.488 176.953 119.122 182.156 116.757C186.911 114.596 191.665 112.435 196.412 110.262C211.181 76.6197 227.445 38.4807 225.264 38.4807L60.1822 33.8735C56.2818 33.8735 53.2329 36.9974 53.3843 40.8403L57.8406 153.582C57.9919 157.423 61.2892 160.548 65.1896 160.548H102.069C104.494 158.744 107.032 157.078 109.478 155.307Z" fill="#FEC99E"/>
<path d="M230.581 34.2717H63.5664C59.8789 34.2717 57.0074 37.2123 57.1517 40.8433L61.6079 153.585C61.7499 157.215 64.8555 160.157 68.5407 160.157H235.557C239.243 160.157 242.114 157.215 241.972 153.585L237.516 40.8433C237.372 37.2123 234.268 34.2717 230.581 34.2717Z" fill="white"/>
<path d="M240.879 126.316C240.69 126.316 240.534 126.166 240.524 125.973L237.161 40.8578C237.026 37.422 234.074 34.6291 230.581 34.6291H63.5662C61.8537 34.6291 60.2784 35.291 59.1289 36.4934C58.0172 37.6577 57.44 39.1982 57.5062 40.8292L59.1738 83.0109C59.1809 83.208 59.0271 83.374 58.8332 83.3818C58.6416 83.3942 58.4713 83.2364 58.4642 83.0392L56.7966 40.8578C56.7233 39.0291 57.3714 37.3053 58.6179 35.9981C59.9023 34.6529 61.6597 33.9147 63.5662 33.9147H230.581C234.448 33.9147 237.719 37.0148 237.87 40.8292L241.234 125.945C241.241 126.142 241.09 126.308 240.893 126.316C240.889 126.316 240.884 126.316 240.879 126.316Z" fill="#333A43"/>
<path d="M225.869 38.6164H68.0245C64.5404 38.6164 61.8322 41.3545 61.9741 44.7356L66.4066 149.692C66.5509 153.07 69.491 155.81 72.9751 155.81H230.817C234.301 155.81 237.009 153.07 236.867 149.692L232.435 44.7356C232.293 41.3545 229.353 38.6164 225.869 38.6164Z" fill="#FEC99E"/>
<path d="M62.168 49.293L61.9741 44.7452C61.8322 41.3666 64.5381 38.6356 68.0222 38.6356H225.866C229.35 38.6356 232.29 41.3666 232.432 44.7452L232.626 49.293H62.168Z" fill="#FB9946"/>
<path d="M83.7294 43.7304C83.7696 45.2375 85.0752 46.459 86.6481 46.459C88.221 46.459 89.4652 45.2375 89.425 43.7304C89.3871 42.2256 88.0791 41.0041 86.5062 41.0041C84.9333 41.0041 83.6915 42.2256 83.7294 43.7304Z" fill="#FFF4E9"/>
<path d="M75.8642 43.8905C75.9021 45.3977 77.2101 46.6191 78.783 46.6191C80.356 46.6191 81.6001 45.3977 81.5599 43.8905C81.5221 42.3857 80.214 41.1643 78.6411 41.1643C77.0682 41.1643 75.824 42.3857 75.8642 43.8905Z" fill="#FFF4E9"/>
<path d="M68.1572 43.8905C68.195 45.3977 69.503 46.6191 71.076 46.6191C72.6489 46.6191 73.893 45.3977 73.8528 43.8905C73.8126 42.3857 72.507 41.1643 70.934 41.1643C69.3611 41.1643 68.117 42.3857 68.1572 43.8905Z" fill="#FFF4E9"/>
<path d="M77.2996 143.567L73.1698 60.7522C73.0231 57.7878 75.7125 55.052 78.7756 55.052H217.638C219.992 55.052 221.782 56.6997 221.905 58.9783L226.236 140.235C226.392 143.182 223.738 145.917 220.689 145.951L81.6234 147.507C79.2391 147.534 77.4131 145.871 77.2996 143.567Z" fill="#FFF4E9"/>
<path d="M158.258 91.248H112.283C109.916 91.248 107.924 89.3277 107.86 86.9808L107.482 73.0312C107.425 71.0049 109.055 69.3454 111.101 69.3454H157.075C159.445 69.3454 161.435 71.2645 161.498 73.6122L161.877 87.5606C161.934 89.5887 160.304 91.248 158.258 91.248Z" fill="#FB9946"/>
<path d="M116.519 80.2165H118.61C119.228 80.2165 119.696 80.0631 120.011 79.7584C120.327 79.4512 120.476 79.0179 120.462 78.4607C120.446 77.8488 120.266 77.3583 119.923 76.994C119.578 76.6273 119.119 76.4416 118.544 76.4345H116.415L116.519 80.2165ZM116.586 82.6568L116.706 87.1045H113.515L113.158 73.9939H118.44C119.452 73.9939 120.353 74.1797 121.141 74.5487C121.931 74.9178 122.548 75.444 122.993 76.1249C123.44 76.8059 123.674 77.5774 123.698 78.4417C123.734 79.7203 123.298 80.7434 122.395 81.5086C121.491 82.2741 120.233 82.6568 118.622 82.6568H116.586Z" fill="white"/>
<path d="M128.749 84.6735H134.303L134.369 87.1045H125.625L125.268 73.9939H128.458L128.749 84.6735Z" fill="white"/>
<path d="M139.669 82.2153H142.515L140.963 77.6678L139.669 82.2153ZM143.345 84.6556H138.971L138.274 87.1045H134.865L139.362 73.9939H142.363L147.612 87.1045H144.185L143.345 84.6556Z" fill="white"/>
<path d="M151.859 79.6845L154.142 73.9939H157.588L153.55 82.3956L153.681 87.1045H150.442L150.315 82.3956L145.83 73.9939H149.26L151.859 79.6845Z" fill="white"/>
<path d="M172.585 147.942C172.585 134.189 161.106 123.59 146.948 123.59C137.569 123.59 129.39 128.969 124.919 136.35H103.402C98.8159 128.969 90.9488 124.594 82.0009 124.594C67.8421 124.594 56.3633 135.468 56.3633 149.22C56.3633 162.973 42.2661 196.347 60.8503 201.742C69.7297 204.318 83.1504 192.304 93.3449 178.732L131.18 179.288C141.171 192.859 157.208 204.738 166.66 201.987C186.843 196.114 172.585 161.695 172.585 147.942Z" fill="#FFE2CA"/>
<path d="M167.21 148.688C167.21 134.935 156.136 124.409 142.474 124.409C133.422 124.409 125.531 129.772 121.219 137.242H100.454C96.0287 129.772 88.4384 125.413 79.8051 125.413C66.143 125.413 55.0663 136.25 55.0663 150.002C55.0663 163.755 41.4634 197.159 59.3972 202.553C67.9643 205.132 80.9144 193.268 90.7517 179.573H131.605C141.249 193.268 153.927 204.682 162.882 201.396C181.636 194.513 167.21 162.441 167.21 148.688Z" fill="#FB9946"/>
<path d="M79.8045 125.771C66.3601 125.771 55.4205 136.642 55.4205 150.004C55.4205 153.79 54.3892 159.111 53.2941 164.744C50.3848 179.731 46.7659 198.382 59.4983 202.215C68.3304 204.869 81.6991 191.566 90.4649 179.365C90.5312 179.273 90.6376 179.217 90.7511 179.217H131.605C131.721 179.217 131.829 179.273 131.896 179.368C139.817 190.62 150.783 201.617 159.537 201.617C160.651 201.617 161.727 201.441 162.758 201.062C176.07 196.177 172.229 177.975 169.145 163.35C167.967 157.774 166.855 152.507 166.855 148.69C166.855 135.276 156.145 124.768 142.473 124.768C134.058 124.768 126.03 129.617 121.524 137.423C121.46 137.533 121.344 137.601 121.219 137.601H100.454C100.328 137.601 100.212 137.534 100.149 137.427C95.7609 130.019 88.3456 125.771 79.8045 125.771ZM61.8612 203.26C60.9577 203.26 60.1014 203.141 59.2949 202.898C45.9451 198.881 49.635 179.877 52.5987 164.607C53.6844 159.008 54.7109 153.721 54.7109 150.004C54.7109 143.275 57.3222 136.987 62.0623 132.297C66.7834 127.628 73.0847 125.057 79.8045 125.057C88.5349 125.057 96.1228 129.365 100.655 136.886H121.015C125.665 128.965 133.871 124.054 142.473 124.054C156.542 124.054 167.564 134.875 167.564 148.69C167.564 152.432 168.669 157.663 169.838 163.201C172.981 178.097 176.893 196.635 163.002 201.734C153.529 205.207 140.501 192.778 131.423 179.932H90.9333C85.7367 187.141 80.0174 193.357 74.8161 197.449C69.9341 201.288 65.5156 203.26 61.8612 203.26Z" fill="#333A43"/>
<path d="M79.1908 131.365C70.3823 131.365 63.2155 138.579 63.2155 147.447C63.2155 156.314 70.3823 163.528 79.1908 163.528C87.9992 163.528 95.166 156.314 95.166 147.447C95.166 138.579 87.9992 131.365 79.1908 131.365ZM79.1908 164.242C69.9897 164.242 62.5059 156.708 62.5059 147.447C62.5059 138.186 69.9897 130.651 79.1908 130.651C88.3894 130.651 95.8756 138.186 95.8756 147.447C95.8756 156.708 88.3894 164.242 79.1908 164.242Z" fill="#333A43"/>
<path d="M143.087 131.46C134.279 131.46 127.112 138.674 127.112 147.542C127.112 156.409 134.279 163.623 143.087 163.623C151.896 163.623 159.063 156.409 159.063 147.542C159.063 138.674 151.896 131.46 143.087 131.46ZM143.087 164.337C133.889 164.337 126.402 156.803 126.402 147.542C126.402 138.281 133.889 130.746 143.087 130.746C152.288 130.746 159.772 138.281 159.772 147.542C159.772 156.803 152.288 164.337 143.087 164.337Z" fill="#333A43"/>
<path d="M146.522 137.706C146.567 139.871 144.862 141.664 142.712 141.71C140.562 141.757 138.781 140.039 138.733 137.875C138.688 135.71 140.394 133.917 142.544 133.871C144.694 133.824 146.475 135.541 146.522 137.706Z" fill="#FEC99E"/>
<path d="M147.53 157.292C147.575 159.456 145.87 161.249 143.72 161.296C141.57 161.342 139.788 159.625 139.741 157.46C139.696 155.296 141.402 153.503 143.552 153.456C145.702 153.41 147.483 155.127 147.53 157.292Z" fill="#FEC99E"/>
<path d="M152.597 151.44C150.446 151.393 148.741 149.601 148.786 147.436C148.831 145.271 150.612 143.554 152.762 143.6C154.915 143.646 156.62 145.439 156.573 147.604C156.528 149.769 154.747 151.486 152.597 151.44Z" fill="#FEC99E"/>
<path d="M133.495 151.556C131.345 151.509 129.64 149.717 129.684 147.552C129.732 145.387 131.51 143.67 133.663 143.716C135.813 143.763 137.518 145.555 137.473 147.72C137.426 149.885 135.645 151.602 133.495 151.556Z" fill="#FEC99E"/>
<path d="M77.9724 143.118L75.6119 141.022C75.4108 140.843 75.2949 140.586 75.2949 140.315V134.148C75.2949 133.628 75.7136 133.206 76.2316 133.206H80.7611C81.2768 133.206 81.6954 133.628 81.6954 134.148V140.158C81.6954 140.403 81.6008 140.637 81.4329 140.813L79.2639 143.067C78.9162 143.428 78.3485 143.451 77.9724 143.118Z" fill="#FEC99E"/>
<path d="M78.1819 151.427L75.8189 153.524C75.6179 153.702 75.502 153.96 75.502 154.23V160.397C75.502 160.917 75.9206 161.339 76.4387 161.339H80.9682C81.4839 161.339 81.9025 160.917 81.9025 160.397V154.388C81.9025 154.143 81.8079 153.908 81.6399 153.733L79.471 151.478C79.1233 151.117 78.5556 151.095 78.1819 151.427Z" fill="#FEC99E"/>
<path d="M83.5639 147.798L85.669 150.153C85.8488 150.354 86.1066 150.468 86.3739 150.465L92.5 150.401C93.0181 150.395 93.432 149.969 93.4272 149.449L93.3799 144.89C93.3752 144.37 92.9518 143.953 92.4338 143.958L86.4638 144.021C86.2225 144.023 85.9907 144.121 85.8156 144.293L83.5994 146.499C83.2446 146.852 83.228 147.425 83.5639 147.798Z" fill="#FEC99E"/>
<path d="M75.0489 147.664L72.9107 149.991C72.7286 150.19 72.4708 150.3 72.2035 150.294L66.0774 150.15C65.5617 150.137 65.1525 149.706 65.1643 149.187L65.2708 144.629C65.2826 144.109 65.7107 143.697 66.2263 143.709L72.1964 143.849C72.4377 143.855 72.6694 143.955 72.8397 144.13L75.0276 146.364C75.3777 146.722 75.3872 147.295 75.0489 147.664Z" fill="#FEC99E"/>
<path d="M104.085 170.808C104.085 174.416 101.178 177.342 97.592 177.342C94.0062 177.342 91.1016 174.416 91.1016 170.808C91.1016 167.199 94.0062 164.273 97.592 164.273C101.178 164.273 104.085 167.199 104.085 170.808Z" fill="#FEC99E"/>
<path d="M97.6069 164.633C94.2245 164.633 91.4713 167.404 91.4713 170.81C91.4713 174.216 94.2245 176.987 97.6069 176.987C100.992 176.987 103.745 174.216 103.745 170.81C103.745 167.404 100.992 164.633 97.6069 164.633ZM97.6069 177.701C93.8319 177.701 90.7617 174.61 90.7617 170.81C90.7617 167.01 93.8319 163.918 97.6069 163.918C101.382 163.918 104.454 167.01 104.454 170.81C104.454 174.61 101.382 177.701 97.6069 177.701Z" fill="#333A43"/>
<path d="M130.979 171.369C130.979 174.978 128.072 177.903 124.489 177.903C120.903 177.903 117.996 174.978 117.996 171.369C117.996 167.76 120.903 164.834 124.489 164.834C128.072 164.834 130.979 167.76 130.979 171.369Z" fill="#FEC99E"/>
<path d="M124.494 165.192C121.109 165.192 118.356 167.963 118.356 171.369C118.356 174.775 121.109 177.546 124.494 177.546C127.876 177.546 130.63 174.775 130.63 171.369C130.63 167.963 127.876 165.192 124.494 165.192ZM124.494 178.261C120.719 178.261 117.646 175.169 117.646 171.369C117.646 167.569 120.719 164.478 124.494 164.478C128.269 164.478 131.339 167.569 131.339 171.369C131.339 175.169 128.269 178.261 124.494 178.261Z" fill="#333A43"/>
<path d="M178.946 61.0473C178.78 61.0473 178.631 60.9258 178.598 60.7544C178.563 60.5616 178.688 60.3735 178.882 60.3377C179.386 60.2425 179.89 60.1853 180.375 60.1663C180.495 60.1615 180.614 60.1592 180.732 60.1592H180.831C181.027 60.1615 181.186 60.3211 181.184 60.5187C181.181 60.7163 181.023 60.8735 180.829 60.8735H180.826H180.732C180.623 60.8735 180.512 60.8758 180.403 60.8806C179.951 60.8973 179.483 60.952 179.012 61.0401C178.991 61.0449 178.967 61.0473 178.946 61.0473ZM184.93 61.8759C184.878 61.8759 184.829 61.8639 184.779 61.8425C184.211 61.5687 183.636 61.352 183.069 61.1949C182.879 61.1425 182.768 60.9449 182.82 60.7568C182.872 60.5663 183.066 60.4544 183.256 60.5068C183.866 60.6734 184.481 60.9068 185.084 61.1973C185.261 61.283 185.335 61.4949 185.252 61.6735C185.19 61.802 185.063 61.8759 184.93 61.8759ZM175.008 62.6092C174.889 62.6092 174.776 62.5497 174.707 62.4425C174.603 62.2759 174.653 62.0568 174.816 61.9497C175.358 61.6044 175.94 61.2996 176.548 61.0449C176.73 60.9663 176.938 61.0544 177.014 61.2354C177.087 61.4163 177.002 61.6259 176.822 61.702C176.252 61.9425 175.703 62.2283 175.197 62.5521C175.138 62.5902 175.072 62.6092 175.008 62.6092ZM188.428 64.295C188.343 64.295 188.258 64.2664 188.192 64.2045C187.717 63.7711 187.232 63.3759 186.751 63.0283C186.593 62.914 186.555 62.6902 186.671 62.5306C186.785 62.3711 187.007 62.3354 187.165 62.4497C187.667 62.8116 188.171 63.2235 188.667 63.6735C188.812 63.8069 188.823 64.0307 188.691 64.1783C188.622 64.2569 188.525 64.295 188.428 64.295ZM172.061 65.6402C172.001 65.6402 171.942 65.6259 171.888 65.595C171.718 65.4998 171.656 65.2807 171.751 65.1093C172.061 64.5473 172.456 64.0092 172.922 63.5092C173.056 63.3664 173.281 63.3592 173.423 63.4949C173.567 63.6307 173.572 63.8569 173.44 63.9997C173.011 64.4545 172.652 64.945 172.37 65.4545C172.307 65.5736 172.186 65.6402 172.061 65.6402ZM191.305 67.4546C191.198 67.4546 191.094 67.4069 191.023 67.3165C190.631 66.8069 190.229 66.3188 189.829 65.8688C189.699 65.7212 189.71 65.4974 189.857 65.364C190.004 65.2331 190.228 65.2474 190.359 65.3926C190.768 65.8545 191.179 66.3545 191.584 66.8783C191.704 67.0331 191.676 67.2593 191.522 67.3784C191.456 67.4307 191.38 67.4546 191.305 67.4546ZM171.33 69.7784C171.159 69.7784 171.008 69.6522 170.98 69.476C170.925 69.1117 170.897 68.7474 170.897 68.3903C170.897 68.0831 170.918 67.776 170.958 67.476C170.984 67.2807 171.166 67.145 171.358 67.1712C171.552 67.1974 171.689 67.3784 171.661 67.5736C171.625 67.8427 171.606 68.1165 171.606 68.3903C171.606 68.7093 171.632 69.0379 171.682 69.3689C171.71 69.5618 171.578 69.7451 171.384 69.776C171.368 69.7784 171.349 69.7784 171.33 69.7784ZM193.722 70.9856C193.604 70.9856 193.486 70.9261 193.419 70.8165C193.256 70.5475 193.091 70.2832 192.92 70.0237C192.769 69.7951 192.596 69.5284 192.395 69.2308C192.286 69.0665 192.329 68.8451 192.492 68.7355C192.653 68.6236 192.875 68.6665 192.984 68.8308C193.185 69.1308 193.36 69.3998 193.512 69.6284C193.687 69.8975 193.857 70.1689 194.025 70.4427C194.127 70.6094 194.074 70.8308 193.907 70.9332C193.85 70.9689 193.786 70.9856 193.722 70.9856ZM172.957 73.7047C172.843 73.7047 172.73 73.6475 172.661 73.5452C172.285 72.9761 171.964 72.4023 171.706 71.838C171.623 71.6594 171.701 71.4475 171.881 71.3642C172.058 71.2832 172.269 71.3594 172.352 71.5404C172.593 72.069 172.896 72.6118 173.253 73.1499C173.361 73.3118 173.317 73.5356 173.153 73.6452C173.092 73.6856 173.026 73.7047 172.957 73.7047ZM195.69 74.7809C195.553 74.7809 195.423 74.7023 195.366 74.569C195.113 73.9928 194.843 73.4214 194.562 72.869C194.472 72.6928 194.54 72.4785 194.715 72.388C194.891 72.2975 195.103 72.3666 195.193 72.5428C195.479 73.1071 195.756 73.6928 196.014 74.2809C196.094 74.4619 196.012 74.6714 195.832 74.75C195.787 74.7714 195.737 74.7809 195.69 74.7809ZM175.753 76.9286C175.668 76.9286 175.583 76.9 175.514 76.8357C175.036 76.4 174.58 75.9381 174.152 75.4619C174.021 75.3143 174.033 75.0881 174.178 74.9571C174.322 74.8238 174.547 74.8357 174.679 74.9833C175.091 75.4405 175.533 75.8881 175.992 76.3071C176.136 76.4405 176.148 76.6667 176.015 76.8119C175.944 76.8905 175.85 76.9286 175.753 76.9286ZM202.206 77.5214C202.067 77.5214 201.937 77.4405 201.878 77.3048C201.802 77.1238 201.887 76.9143 202.067 76.8357C203.006 76.4357 203.611 76.1381 203.775 76.0548C203.95 75.9667 204.163 76.0381 204.25 76.2167C204.338 76.3929 204.264 76.6072 204.089 76.6953C203.921 76.7786 203.302 77.0834 202.344 77.4929C202.299 77.5143 202.251 77.5214 202.206 77.5214ZM197.164 78.7977C197.012 78.7977 196.87 78.7 196.825 78.5453C196.643 77.9429 196.445 77.3405 196.234 76.7548C196.168 76.5691 196.262 76.3667 196.447 76.2976C196.631 76.231 196.835 76.3262 196.901 76.5119C197.116 77.1095 197.32 77.7239 197.504 78.3382C197.561 78.5262 197.455 78.7262 197.268 78.7834C197.232 78.7929 197.197 78.7977 197.164 78.7977ZM198.214 79.0239C198.065 79.0239 197.925 78.9262 197.876 78.7762C197.816 78.5881 197.918 78.3882 198.105 78.3262C198.692 78.1358 199.29 77.9262 199.881 77.7072C200.066 77.6405 200.269 77.7357 200.335 77.9191C200.404 78.1048 200.309 78.3096 200.125 78.3786C199.527 78.6 198.919 78.812 198.323 79.0072C198.287 79.0167 198.249 79.0239 198.214 79.0239ZM179.261 79.331C179.211 79.331 179.159 79.3191 179.109 79.2953C178.523 79.0143 177.955 78.6929 177.42 78.3405C177.257 78.231 177.21 78.0096 177.319 77.8453C177.425 77.681 177.645 77.6334 177.811 77.7429C178.317 78.0786 178.856 78.3834 179.414 78.6524C179.592 78.7381 179.665 78.9501 179.582 79.1286C179.521 79.2572 179.393 79.331 179.261 79.331ZM194.105 80.1549C193.942 80.1549 193.795 80.0429 193.76 79.8763C193.717 79.6834 193.838 79.4929 194.03 79.4501C194.63 79.3167 195.245 79.1644 195.853 79.0001C196.042 78.9477 196.236 79.062 196.288 79.2524C196.338 79.4429 196.227 79.6382 196.038 79.6906C195.418 79.8572 194.794 80.012 194.183 80.1477C194.157 80.1525 194.131 80.1549 194.105 80.1549ZM183.305 80.6299C183.284 80.6299 183.263 80.6279 183.241 80.6237C182.598 80.5041 181.966 80.3513 181.366 80.1696C181.176 80.112 181.07 79.9144 181.127 79.7239C181.184 79.5358 181.382 79.4286 181.569 79.4858C182.146 79.6596 182.752 79.8072 183.369 79.9215C183.563 79.9572 183.691 80.1429 183.655 80.3375C183.622 80.5096 183.473 80.6299 183.305 80.6299ZM189.904 80.838C189.722 80.838 189.569 80.6999 189.552 80.5153C189.533 80.3189 189.675 80.1453 189.869 80.1263C190.474 80.0668 191.099 79.9858 191.726 79.8882C191.92 79.8596 192.102 79.9906 192.13 80.1863C192.161 80.381 192.028 80.5637 191.835 80.5939C191.196 80.6941 190.557 80.7758 189.938 80.8363C189.926 80.8375 189.916 80.838 189.904 80.838ZM187.225 80.973C186.683 80.973 186.146 80.9553 185.628 80.9208C185.432 80.9075 185.285 80.7373 185.297 80.5406C185.311 80.3434 185.481 80.1968 185.675 80.2077C186.278 80.2482 186.91 80.2651 187.539 80.2565C187.539 80.2565 187.541 80.2565 187.544 80.2565C187.735 80.2565 187.894 80.4137 187.899 80.6092C187.901 80.8063 187.743 80.9684 187.549 80.9708C187.44 80.9722 187.331 80.973 187.225 80.973ZM198.157 82.962C197.989 82.962 197.84 82.8409 197.809 82.6682C197.698 82.0516 197.57 81.4299 197.431 80.8213C197.386 80.6292 197.504 80.437 197.696 80.3922C197.885 80.3484 198.077 80.4668 198.122 80.6589C198.263 81.2794 198.394 81.913 198.507 82.5413C198.543 82.7356 198.415 82.9214 198.221 82.9564C198.2 82.9602 198.178 82.962 198.157 82.962ZM198.67 87.2138C198.486 87.2138 198.33 87.0686 198.318 86.8793C198.278 86.2557 198.221 85.6235 198.15 85.0004C198.129 84.8047 198.268 84.6276 198.462 84.6049C198.654 84.583 198.833 84.7228 198.855 84.919C198.928 85.554 198.985 86.1986 199.025 86.834C199.037 87.031 198.89 87.2007 198.694 87.2131C198.687 87.2136 198.677 87.2138 198.67 87.2138ZM198.689 91.4968C198.682 91.4968 198.675 91.4965 198.67 91.4965C198.474 91.4854 198.325 91.317 198.334 91.1199C198.37 90.4977 198.386 89.8637 198.389 89.2353C198.389 89.0382 198.547 88.8789 198.744 88.8789C198.94 88.8793 199.098 89.0396 199.098 89.2367C199.096 89.8779 199.079 90.5246 199.044 91.1594C199.032 91.3496 198.876 91.4968 198.689 91.4968ZM198.188 95.7497C198.166 95.7497 198.145 95.7478 198.124 95.7438C197.93 95.7081 197.802 95.5219 197.838 95.3278C197.951 94.7166 198.046 94.0902 198.124 93.4661C198.148 93.2704 198.327 93.1337 198.521 93.1561C198.715 93.1809 198.852 93.3594 198.829 93.5549C198.748 94.1926 198.651 94.8323 198.538 95.4571C198.505 95.6293 198.356 95.7497 198.188 95.7497ZM197.14 99.9001C197.104 99.9001 197.067 99.8946 197.029 99.8822C196.844 99.8208 196.743 99.6191 196.804 99.4317C196.996 98.841 197.173 98.2334 197.332 97.626C197.381 97.435 197.575 97.3205 197.764 97.3707C197.954 97.4207 198.067 97.616 198.017 97.8067C197.857 98.4284 197.674 99.0501 197.478 99.6544C197.428 99.8048 197.289 99.9001 197.14 99.9001ZM195.524 103.86C195.472 103.86 195.418 103.848 195.366 103.822C195.191 103.734 195.12 103.519 195.207 103.343C195.482 102.79 195.744 102.215 195.986 101.635C196.064 101.453 196.27 101.366 196.452 101.443C196.631 101.52 196.717 101.729 196.641 101.911C196.393 102.506 196.125 103.095 195.841 103.662C195.78 103.788 195.655 103.86 195.524 103.86ZM141.931 105.516C141.922 105.516 141.915 105.516 141.905 105.515C141.286 105.468 140.659 105.443 140.041 105.44C139.845 105.439 139.687 105.279 139.687 105.082C139.689 104.885 139.847 104.726 140.041 104.726C140.044 104.726 140.044 104.726 140.044 104.726C140.68 104.729 141.323 104.754 141.957 104.803C142.154 104.818 142.3 104.989 142.286 105.186C142.272 105.374 142.116 105.516 141.931 105.516ZM135.803 105.771C135.63 105.771 135.479 105.646 135.453 105.47C135.422 105.275 135.552 105.092 135.746 105.061C136.378 104.96 137.019 104.881 137.65 104.826C137.839 104.81 138.017 104.954 138.033 105.151C138.05 105.347 137.906 105.52 137.712 105.537C137.097 105.591 136.472 105.668 135.857 105.767C135.838 105.77 135.819 105.771 135.803 105.771ZM146.13 106.176C146.101 106.176 146.075 106.173 146.047 106.167C145.439 106.022 144.822 105.898 144.219 105.797C144.025 105.765 143.894 105.581 143.925 105.386C143.958 105.191 144.14 105.061 144.334 105.092C144.954 105.196 145.586 105.323 146.21 105.471C146.402 105.516 146.52 105.709 146.475 105.901C146.435 106.065 146.291 106.176 146.13 106.176ZM131.668 106.767C131.517 106.767 131.377 106.67 131.33 106.518C131.268 106.33 131.373 106.13 131.559 106.07C132.167 105.874 132.787 105.697 133.402 105.543C133.591 105.495 133.783 105.612 133.83 105.803C133.877 105.995 133.762 106.189 133.572 106.236C132.974 106.386 132.368 106.559 131.775 106.75C131.739 106.762 131.704 106.767 131.668 106.767ZM150.193 107.434C150.151 107.434 150.111 107.427 150.068 107.411C149.472 107.185 148.878 106.978 148.299 106.793C148.112 106.734 148.01 106.533 148.069 106.345C148.128 106.157 148.327 106.052 148.514 106.112C149.103 106.3 149.711 106.513 150.319 106.743C150.501 106.813 150.595 107.018 150.524 107.203C150.472 107.346 150.338 107.434 150.193 107.434ZM193.339 107.53C193.268 107.53 193.197 107.509 193.135 107.464C192.975 107.35 192.937 107.127 193.05 106.966C193.407 106.459 193.755 105.931 194.077 105.398C194.181 105.23 194.399 105.178 194.566 105.28C194.732 105.383 194.784 105.603 194.682 105.771C194.351 106.318 193.996 106.859 193.63 107.38C193.561 107.478 193.45 107.53 193.339 107.53ZM127.711 108.34C127.579 108.34 127.451 108.265 127.389 108.135C127.307 107.957 127.382 107.744 127.56 107.66C128.139 107.385 128.728 107.125 129.31 106.888C129.492 106.814 129.7 106.903 129.774 107.085C129.847 107.268 129.759 107.476 129.577 107.55C129.007 107.783 128.43 108.037 127.862 108.306C127.813 108.329 127.763 108.34 127.711 108.34ZM154.096 109.138C154.044 109.138 153.99 109.127 153.94 109.102C153.358 108.818 152.786 108.551 152.237 108.307C152.057 108.227 151.977 108.016 152.055 107.836C152.135 107.655 152.343 107.573 152.523 107.653C153.079 107.9 153.661 108.172 154.25 108.46C154.427 108.546 154.501 108.759 154.415 108.937C154.354 109.064 154.226 109.138 154.096 109.138ZM123.974 110.383C123.853 110.383 123.737 110.323 123.671 110.213C123.567 110.045 123.619 109.825 123.787 109.722C124.333 109.384 124.887 109.058 125.436 108.754C125.606 108.659 125.824 108.721 125.918 108.894C126.013 109.067 125.949 109.284 125.779 109.38C125.239 109.679 124.695 109.998 124.158 110.33C124.102 110.366 124.038 110.383 123.974 110.383ZM190.652 110.852C190.567 110.852 190.482 110.821 190.413 110.759C190.269 110.627 190.257 110.401 190.387 110.255C190.843 109.748 191.248 109.268 191.617 108.824C191.742 108.672 191.967 108.652 192.116 108.779C192.267 108.906 192.286 109.131 192.161 109.282C191.787 109.732 191.378 110.219 190.914 110.734C190.843 110.812 190.746 110.852 190.652 110.852ZM157.871 111.114C157.814 111.114 157.755 111.1 157.701 111.07C157.152 110.768 156.599 110.468 156.04 110.173C155.865 110.081 155.799 109.865 155.891 109.691C155.981 109.515 156.196 109.449 156.369 109.541C156.932 109.838 157.488 110.139 158.041 110.443C158.214 110.538 158.276 110.755 158.183 110.928C158.117 111.047 157.996 111.114 157.871 111.114ZM120.459 112.796C120.35 112.796 120.244 112.747 120.175 112.653C120.057 112.495 120.088 112.271 120.246 112.153C120.757 111.767 121.277 111.389 121.791 111.032C121.952 110.921 122.174 110.961 122.285 111.123C122.396 111.286 122.356 111.508 122.195 111.62C121.687 111.972 121.176 112.344 120.67 112.724C120.608 112.773 120.532 112.796 120.459 112.796ZM161.599 113.188C161.54 113.188 161.481 113.174 161.429 113.144C160.877 112.84 160.324 112.531 159.77 112.221C159.598 112.125 159.536 111.907 159.631 111.735C159.728 111.562 159.943 111.501 160.113 111.596C160.669 111.906 161.22 112.214 161.769 112.518C161.942 112.613 162.003 112.829 161.909 113.003C161.845 113.121 161.724 113.188 161.599 113.188ZM187.56 113.795C187.456 113.795 187.352 113.748 187.284 113.659C187.161 113.505 187.187 113.28 187.34 113.158C187.816 112.778 188.291 112.367 188.753 111.933C188.894 111.799 189.119 111.806 189.254 111.95C189.386 112.094 189.379 112.321 189.235 112.455C188.762 112.902 188.272 113.326 187.78 113.718C187.717 113.769 187.638 113.795 187.56 113.795ZM165.371 115.171C165.319 115.171 165.267 115.16 165.218 115.136C164.681 114.874 164.125 114.593 163.519 114.274C163.344 114.183 163.278 113.967 163.368 113.792C163.458 113.618 163.673 113.549 163.846 113.64C164.447 113.956 164.998 114.235 165.528 114.493C165.703 114.578 165.778 114.792 165.691 114.969C165.632 115.097 165.504 115.171 165.371 115.171ZM117.155 115.497C117.055 115.497 116.958 115.456 116.887 115.375C116.76 115.227 116.774 115.001 116.921 114.871C117.403 114.446 117.89 114.029 118.373 113.632C118.524 113.507 118.747 113.529 118.872 113.682C118.997 113.834 118.974 114.059 118.822 114.184C118.347 114.577 117.864 114.989 117.389 115.408C117.323 115.468 117.237 115.497 117.155 115.497ZM183.979 116.095C183.849 116.095 183.724 116.023 183.66 115.897C183.573 115.72 183.646 115.506 183.821 115.418C184.37 115.144 184.914 114.838 185.441 114.506C185.607 114.403 185.827 114.453 185.931 114.621C186.035 114.788 185.983 115.009 185.817 115.113C185.271 115.456 184.705 115.774 184.135 116.058C184.086 116.084 184.031 116.095 183.979 116.095ZM169.293 116.831C169.255 116.831 169.217 116.825 169.177 116.811C168.602 116.611 168.002 116.379 167.391 116.124C167.209 116.048 167.124 115.839 167.2 115.657C167.276 115.475 167.481 115.389 167.663 115.464C168.262 115.714 168.848 115.941 169.411 116.136C169.596 116.201 169.693 116.404 169.629 116.591C169.579 116.738 169.442 116.831 169.293 116.831ZM179.987 117.56C179.826 117.56 179.682 117.45 179.641 117.287C179.596 117.095 179.712 116.902 179.904 116.856C180.263 116.768 180.628 116.668 180.985 116.557C181.221 116.484 181.456 116.407 181.683 116.326C181.87 116.261 182.071 116.359 182.137 116.545C182.201 116.731 182.104 116.935 181.919 117C181.68 117.084 181.439 117.164 181.193 117.24C180.822 117.355 180.443 117.46 180.069 117.55C180.043 117.557 180.015 117.56 179.987 117.56ZM173.416 117.864C173.399 117.864 173.383 117.863 173.364 117.86C172.749 117.771 172.113 117.648 171.476 117.494C171.287 117.448 171.169 117.255 171.216 117.063C171.261 116.872 171.455 116.755 171.642 116.8C172.257 116.949 172.872 117.068 173.466 117.153C173.66 117.181 173.794 117.362 173.766 117.558C173.74 117.736 173.589 117.864 173.416 117.864ZM175.944 118.048L175.765 118.047C175.568 118.045 175.41 117.883 175.412 117.686C175.415 117.49 175.573 117.333 175.767 117.333C175.769 117.333 175.772 117.333 175.772 117.333L175.944 117.334C176.503 117.334 177.066 117.305 177.621 117.249C177.818 117.226 177.99 117.372 178.009 117.568C178.031 117.765 177.889 117.94 177.692 117.96C177.115 118.019 176.526 118.048 175.944 118.048ZM114.049 118.424C113.957 118.424 113.867 118.389 113.796 118.319C113.659 118.179 113.659 117.953 113.798 117.814C114.25 117.36 114.711 116.911 115.163 116.481C115.305 116.346 115.53 116.353 115.665 116.496C115.799 116.64 115.792 116.866 115.65 117.001C115.201 117.426 114.747 117.87 114.297 118.32C114.229 118.389 114.139 118.424 114.049 118.424Z" fill="#FB9946"/>
<path d="M221.236 26.3193C221.163 26.3193 221.087 26.2955 221.025 26.2503C208.969 17.3215 194.749 12.0785 179.902 11.0857C179.706 11.0714 179.559 10.9023 179.571 10.7047C179.585 10.5071 179.753 10.3594 179.949 10.3714C194.931 11.3738 209.282 16.6667 221.444 25.6741C221.603 25.7908 221.638 26.0146 221.52 26.1741C221.451 26.2693 221.345 26.3193 221.236 26.3193Z" fill="#333A43"/>
<path d="M214.234 25.8545C214.17 25.8545 214.107 25.8354 214.047 25.7997C205.272 20.2925 195.676 16.6329 185.527 14.9233C185.333 14.89 185.203 14.7066 185.236 14.5114C185.266 14.3161 185.449 14.1875 185.642 14.2185C195.887 15.9447 205.568 19.6377 214.424 25.1926C214.589 25.2973 214.639 25.5188 214.535 25.6854C214.468 25.795 214.353 25.8545 214.234 25.8545Z" fill="#333A43"/>
<path d="M182.333 197.56C182.163 197.56 182.011 197.436 181.983 197.261C181.952 197.066 182.082 196.882 182.276 196.85C197.511 194.315 211.474 188.363 222.65 179.64C222.806 179.52 223.028 179.547 223.149 179.703C223.267 179.859 223.239 180.084 223.085 180.205C211.814 189 197.743 195 182.392 197.555C182.371 197.558 182.352 197.56 182.333 197.56Z" fill="#333A43"/>
<path d="M186.216 192.826C186.055 192.826 185.911 192.716 185.871 192.552C185.826 192.36 185.944 192.167 186.133 192.122C195.774 189.806 204.625 186.035 212.443 180.913C212.606 180.805 212.826 180.852 212.932 181.018C213.039 181.183 212.994 181.404 212.828 181.512C204.945 186.678 196.018 190.482 186.299 192.816C186.271 192.823 186.242 192.826 186.216 192.826Z" fill="#333A43"/>
<path d="M92.7532 20.3418C92.5593 20.3418 92.3984 20.1823 92.3984 19.9846V18.1394C92.3984 17.9417 92.5593 17.7822 92.7532 17.7822C92.9496 17.7822 93.108 17.9417 93.108 18.1394V19.9846C93.108 20.1823 92.9496 20.3418 92.7532 20.3418Z" fill="#333A43"/>
<path d="M92.7532 24.6455C92.5593 24.6455 92.3984 24.4836 92.3984 24.2884V22.4407C92.3984 22.2431 92.5593 22.0835 92.7532 22.0835C92.9496 22.0835 93.108 22.2431 93.108 22.4407V24.2884C93.108 24.4836 92.9496 24.6455 92.7532 24.6455Z" fill="#333A43"/>
<path d="M91.5301 21.5664H89.6946C89.4983 21.5664 89.3398 21.4069 89.3398 21.2093C89.3398 21.0116 89.4983 20.8521 89.6946 20.8521H91.5301C91.7264 20.8521 91.8849 21.0116 91.8849 21.2093C91.8849 21.4069 91.7264 21.5664 91.5301 21.5664Z" fill="#333A43"/>
<path d="M95.8035 21.5664H93.9681C93.7718 21.5664 93.6133 21.4069 93.6133 21.2093C93.6133 21.0116 93.7718 20.8521 93.9681 20.8521H95.8035C95.9999 20.8521 96.1583 21.0116 96.1583 21.2093C96.1583 21.4069 95.9999 21.5664 95.8035 21.5664Z" fill="#333A43"/>
<path d="M87.0715 23.9143C86.4211 23.9143 85.8912 24.4477 85.8912 25.1025C85.8912 25.7572 86.4211 26.2906 87.0715 26.2906C87.7244 26.2906 88.2542 25.7572 88.2542 25.1025C88.2542 24.4477 87.7244 23.9143 87.0715 23.9143ZM87.0715 27.0049C86.0308 27.0049 85.1816 26.1525 85.1816 25.1025C85.1816 24.0548 86.0308 23.2 87.0715 23.2C88.1146 23.2 88.9638 24.0548 88.9638 25.1025C88.9638 26.1525 88.1146 27.0049 87.0715 27.0049Z" fill="#333A43"/>
<path d="M215.281 74.96C215.205 74.96 215.129 74.9362 215.065 74.8862L214.557 74.4933C214.015 74.0766 213.419 73.3004 213.393 73.2671C213.275 73.1099 213.303 72.8861 213.459 72.7647C213.615 72.6456 213.838 72.6742 213.956 72.8314C213.963 72.8385 214.521 73.5671 214.987 73.9266L215.496 74.3171C215.652 74.4385 215.68 74.6623 215.562 74.8195C215.494 74.91 215.387 74.96 215.281 74.96Z" fill="#333A43"/>
<path d="M216.148 73.9795C216.094 73.9795 216.037 73.9652 215.985 73.939L215.417 73.6414C214.814 73.3247 214.093 72.6628 214.062 72.6342C213.918 72.5009 213.908 72.2747 214.041 72.1294C214.173 71.9842 214.398 71.9747 214.542 72.108C214.547 72.1152 215.223 72.7342 215.744 73.008L216.314 73.3057C216.486 73.3961 216.555 73.6128 216.463 73.7866C216.401 73.9081 216.276 73.9795 216.148 73.9795Z" fill="#333A43"/>
<path d="M235.696 63.3234C237.255 63.5281 245.737 65.2544 246.458 74.876C246.475 75.0951 246.361 75.307 246.17 75.4189L241.264 78.2618C241.079 78.3666 240.968 78.5666 240.975 78.7809C241.03 80.5397 241.311 88.5347 242.052 91.8936C242.631 94.5115 243.031 96.6468 243.225 97.7146C243.293 98.0913 242.986 98.428 242.607 98.393C241.408 98.2823 239.026 98.0154 237.456 97.5292C235.485 96.9189 234.613 95.7539 229.847 97.7444C228.846 98.1625 227.711 98.1059 226.753 97.5954C224.144 96.2051 218.711 93.7381 214.964 94.9839C214.538 95.1248 214.124 94.7494 214.221 94.3103C214.768 91.8409 215.913 87.0794 216.036 84.5629C216.187 81.4188 214.392 70.9474 215.227 69.8545C216.024 68.8116 219.527 66.4187 221.894 65.7615C222.76 65.5234 223.673 65.4996 224.404 65.3187C226.239 64.8639 231.325 62.7543 235.696 63.3234Z" fill="#FB9946"/>
<path d="M234.157 96.2757C235.188 96.2757 235.898 96.5574 236.629 96.8474C236.924 96.9645 237.23 97.0857 237.558 97.1881C239.084 97.6603 241.397 97.9229 242.639 98.0374C242.734 98.0453 242.793 97.9972 242.821 97.9672C242.847 97.9372 242.892 97.8729 242.873 97.7786C242.686 96.7324 242.282 94.5864 241.705 91.9711C240.953 88.5598 240.669 80.3939 240.619 78.7906C240.61 78.4453 240.787 78.1239 241.087 77.9524L245.991 75.1095C246.064 75.0667 246.109 74.9857 246.102 74.9024C245.378 65.2236 236.641 63.8069 235.647 63.6783C232.241 63.2354 228.329 64.4736 225.992 65.2141C225.391 65.4045 224.871 65.5712 224.488 65.6641C224.14 65.7522 223.766 65.8022 223.371 65.8545C222.915 65.9188 222.439 65.9831 221.988 66.1069C219.774 66.7212 216.28 69.0618 215.507 70.0713C215.107 70.5951 215.58 75.0405 215.892 77.981C216.181 80.6863 216.453 83.2416 216.389 84.5805C216.28 86.7929 215.398 90.7037 214.814 93.2914C214.724 93.6904 214.639 94.0597 214.568 94.3881C214.542 94.5014 214.605 94.5735 214.634 94.5993C214.662 94.6252 214.74 94.6819 214.851 94.645C218.667 93.3757 224.05 95.7512 226.919 97.2798C227.787 97.7434 228.804 97.7924 229.71 97.4148C231.752 96.5619 233.119 96.2757 234.157 96.2757ZM242.66 98.7529C242.632 98.7529 242.604 98.7515 242.575 98.7489C241.305 98.6317 238.937 98.3619 237.35 97.8707C236.993 97.7603 236.676 97.6341 236.369 97.5117C234.983 96.9612 233.786 96.486 229.982 98.0746C228.882 98.5339 227.645 98.4748 226.586 97.9115C224.358 96.7233 218.771 94.0938 215.074 95.3233C214.752 95.4305 214.409 95.3579 214.156 95.1288C213.905 94.9005 213.801 94.5654 213.875 94.2326C213.948 93.9033 214.031 93.5333 214.121 93.133C214.7 90.5696 215.575 86.6955 215.679 84.5457C215.741 83.2623 215.459 80.6163 215.187 78.0572C214.631 72.8428 214.428 70.3142 214.944 69.6356C215.79 68.5284 219.346 66.0974 221.798 65.4188C222.297 65.2807 222.797 65.2141 223.277 65.1474C223.653 65.0974 224.008 65.0498 224.317 64.9712C224.679 64.8831 225.19 64.7212 225.779 64.5331C228.173 63.7759 232.177 62.5068 235.739 62.9711C236.792 63.1069 246.043 64.6045 246.811 74.8476C246.838 75.2024 246.655 75.5476 246.346 75.7286L241.44 78.5715C241.369 78.612 241.326 78.6882 241.329 78.7691C241.378 80.3608 241.657 88.4677 242.398 91.8163C242.977 94.4431 243.382 96.5995 243.573 97.651C243.625 97.9415 243.543 98.2322 243.344 98.4494C243.167 98.6451 242.921 98.7529 242.66 98.7529Z" fill="#333A43"/>
<path d="M244.079 86.7591C242.62 88.9516 240.931 89.6508 237.253 88.6958C233.575 87.7406 225.774 82.1193 221.918 76.7644C221.918 76.7644 221.651 76.2739 220.899 76.3643C220.144 76.4524 217.043 77.6572 214.737 75.6048C212.433 73.5524 212.985 72.0809 213.098 71.8023C213.294 71.3309 216.734 71.9333 217.663 71.5166C218.593 71.0999 218.583 70.4523 217.885 69.4928C217.051 68.3499 218.91 68.0903 220.322 70.119C221.18 71.3523 222.626 72.9738 223.934 73.6405C225.287 74.3286 239.027 79.3049 239.734 79.0835C240.443 78.862 244.904 76.1477 244.904 76.1477C244.904 76.1477 245.668 84.3703 244.079 86.7591Z" fill="white"/>
<path d="M222.217 76.5716C225.973 81.7765 233.668 87.3964 237.343 88.35C241.107 89.3274 242.509 88.475 243.784 86.5604C245.05 84.6563 244.733 78.6383 244.598 76.7526C243.38 77.4859 240.449 79.2359 239.841 79.424C239.813 79.4336 239.777 79.4383 239.73 79.4383C238.086 79.4383 224.597 74.3763 223.774 73.9596C222.39 73.2525 220.895 71.5596 220.032 70.3238C219.403 69.4191 218.693 69.0333 218.274 68.9762C218.116 68.9548 218.038 68.9857 218.024 68.9976C218.028 69.0048 218.045 69.1071 218.173 69.2833C218.658 69.9476 218.828 70.4738 218.707 70.9334C218.606 71.3143 218.303 71.6215 217.808 71.8429C217.274 72.0834 216.233 72.0406 215.133 71.9977C214.54 71.9739 213.664 71.9405 213.399 72.0167C213.255 72.4501 213.099 73.6692 214.975 75.3382C216.784 76.9502 219.166 76.3907 220.311 76.1216C220.54 76.0668 220.722 76.0264 220.857 76.0097C221.619 75.9192 222.061 76.3097 222.217 76.5716ZM240.014 89.4707C239.191 89.4707 238.254 89.3243 237.166 89.0417C233.377 88.0583 225.465 82.2972 221.631 76.9764L221.607 76.9359C221.593 76.9145 221.425 76.6621 220.94 76.7192C220.843 76.7311 220.67 76.7716 220.472 76.8168C219.211 77.1145 216.588 77.7288 214.504 75.874C212.214 73.8358 212.531 72.2524 212.773 71.6667C212.957 71.2167 213.638 71.2239 215.162 71.2834C216.042 71.3191 217.137 71.362 217.52 71.1905C217.808 71.0596 217.976 70.9119 218.019 70.75C218.08 70.5262 217.934 70.1643 217.6 69.7048C217.257 69.2357 217.295 68.8952 217.385 68.6929C217.494 68.4476 217.737 68.2905 218.052 68.2595C218.712 68.1952 219.757 68.6833 220.614 69.9119C221.427 71.081 222.828 72.6763 224.095 73.3215C225.697 74.1382 238.583 78.7216 239.657 78.7335C240.213 78.5359 242.973 76.9073 244.723 75.843L245.208 75.5478L245.26 76.1144C245.291 76.4549 246.015 84.4918 244.373 86.958C243.231 88.6773 241.93 89.4707 240.014 89.4707Z" fill="#333A43"/>
<path d="M215.477 76.1327L215.529 76.6256L215.834 79.4661C216.149 81.9681 215.905 84.006 215.905 84.006C215.91 84.7917 215.434 85.7167 214.848 86.2368C214.174 86.8353 213.821 86.9589 213.272 87.1601C211.203 87.9173 210.301 87.6837 209.552 85.5327C208.8 83.3814 209.064 82.0476 210.831 75.3779C210.831 75.3779 211.316 74.0327 209.949 73.1279C208.731 72.3231 209.133 70.3921 210.254 68.9302C212.045 66.5992 215.796 75.8208 215.477 76.1327Z" fill="white"/>
<path d="M211.17 75.4841C209.405 82.1517 209.174 83.3722 209.886 85.4134C210.214 86.3582 210.555 86.8716 210.988 87.077C211.435 87.2909 212.083 87.2144 213.15 86.8234L213.176 86.8137C213.691 86.6258 214.001 86.5125 214.614 85.968C215.151 85.4903 215.553 84.6475 215.55 84.0074V83.9851L215.553 83.9624C215.555 83.9424 215.787 81.935 215.482 79.5104L215.106 75.996L215.134 75.9675C214.992 74.9722 212.646 69.484 211.104 68.9435C210.936 68.884 210.751 68.8673 210.536 69.1483C209.819 70.0816 209.455 71.1507 209.585 71.9341C209.651 72.3269 209.838 72.6269 210.143 72.8269C211.399 73.6579 211.366 74.9175 211.17 75.4841ZM211.558 87.9102C211.229 87.9102 210.945 87.8471 210.683 87.7228C210.068 87.4287 209.614 86.7896 209.216 85.6501C208.44 83.4286 208.698 82.0474 210.489 75.2865L210.498 75.2556C210.512 75.2127 210.862 74.1579 209.753 73.4246C209.285 73.115 208.984 72.6388 208.885 72.0531C208.724 71.0769 209.14 69.7983 209.975 68.7102C210.37 68.1959 210.827 68.1554 211.137 68.2149C213.053 68.5721 215.314 74.0341 215.718 75.3984C215.825 75.7556 215.877 76.0008 215.839 76.1794L216.187 79.4271C216.489 81.8272 216.286 83.7843 216.26 84.0258C216.255 84.8736 215.775 85.8891 215.084 86.5037C214.37 87.1375 213.97 87.2835 213.419 87.4854L213.393 87.4949C212.632 87.7737 212.045 87.9102 211.558 87.9102Z" fill="#333A43"/>
<path d="M214.248 71.7632C214.248 71.7632 217.285 72.0893 218.227 71.3417C218.924 70.7869 217.623 69.1298 217.526 68.9988C216.701 67.9059 214.776 65.3559 214.489 64.994C214.229 64.6678 213.735 63.8892 213.087 63.9463C212.441 64.0035 208.858 64.5963 208.597 64.713C208.051 64.9535 208.283 65.7178 208.68 66.1392C209.08 66.5606 214.248 71.7632 214.248 71.7632Z" fill="#333A43"/>
<path d="M239.562 97.2049C239.562 97.2049 242.498 121.762 242.859 126.499C243.221 131.237 243.763 147.818 242.859 156.018C242.273 161.33 241.866 164.883 241.653 166.726C241.554 167.582 240.835 168.226 239.978 168.226H233.999C233.694 168.226 233.445 167.979 233.441 167.672C233.415 165.46 233.218 157.034 231.818 149.822C230.188 141.441 228.379 128.322 227.473 123.037C227.17 121.274 226.917 119.313 226.702 117.394C226.702 117.394 226.702 117.394 226.025 119.393C225.347 121.392 222.766 134.881 222.042 140.165C221.385 144.972 220.275 164.252 220.081 167.697C220.065 167.995 219.819 168.226 219.523 168.226H211.867C211.581 168.226 211.342 168.007 211.313 167.72C210.956 164.147 208.86 142.554 209.192 132.877C209.553 122.309 214.258 109.736 215.164 106.274C216.07 102.812 217.283 94.0327 217.283 94.0327C217.283 94.0327 235.638 94.311 239.562 97.2049Z" fill="white"/>
<path d="M226.704 117.038C226.715 117.038 226.73 117.038 226.741 117.039C226.907 117.058 227.037 117.189 227.056 117.355C227.304 119.565 227.555 121.404 227.825 122.977C228.139 124.819 228.563 127.599 229.052 130.817C229.968 136.822 231.105 144.296 232.167 149.754C233.563 156.943 233.769 165.283 233.797 167.667C233.8 167.78 233.889 167.869 234.001 167.869H239.98C240.657 167.869 241.224 167.36 241.302 166.685C241.541 164.623 241.943 161.091 242.509 155.978C243.384 148.034 242.904 131.734 242.506 126.527C242.166 122.05 239.483 99.5276 239.23 97.4064C235.486 94.8927 219.998 94.4501 217.592 94.3966C217.365 96.0171 216.322 103.252 215.509 106.365C215.326 107.067 214.991 108.127 214.57 109.468C212.914 114.717 209.834 124.486 209.548 132.89C209.219 142.463 211.256 163.554 211.667 167.685C211.677 167.79 211.764 167.869 211.868 167.869H219.525C219.634 167.869 219.724 167.785 219.728 167.677C219.941 163.915 221.036 144.906 221.694 140.117C222.432 134.727 225.01 121.289 225.691 119.278L226.368 117.279C226.417 117.134 226.555 117.038 226.704 117.038ZM239.98 168.583H234.001C233.504 168.583 233.095 168.176 233.088 167.676C233.059 165.307 232.856 157.021 231.47 149.891C230.408 144.419 229.268 136.937 228.352 130.925C227.863 127.71 227.439 124.934 227.125 123.099C226.919 121.899 226.725 120.548 226.536 119L226.363 119.509C225.705 121.445 223.111 134.99 222.396 140.215C221.744 144.977 220.651 163.961 220.438 167.718C220.41 168.203 220.01 168.583 219.525 168.583H211.868C211.398 168.583 211.007 168.228 210.96 167.756C210.549 163.617 208.51 142.484 208.838 132.865C209.129 124.363 212.228 114.533 213.893 109.252C214.312 107.92 214.643 106.868 214.823 106.184C215.712 102.782 216.921 94.0715 216.935 93.9837C216.959 93.8049 217.112 93.6784 217.29 93.6758C218.044 93.6873 235.803 93.9896 239.774 96.9173C239.855 96.9757 239.904 97.0645 239.916 97.1628C239.947 97.4083 242.856 121.782 243.213 126.473C243.613 131.699 244.096 148.069 243.213 156.057C242.648 161.172 242.246 164.705 242.007 166.768C241.887 167.803 241.016 168.583 239.98 168.583Z" fill="#333A43"/>
<path d="M226.693 117.688C226.513 117.688 226.36 117.553 226.341 117.37C226.218 116.271 226.097 115.1 225.986 113.891C225.785 111.737 224.352 109.86 222.334 109.108L221.012 108.615C220.83 108.547 220.735 108.341 220.804 108.157C220.872 107.972 221.076 107.877 221.26 107.946L222.58 108.438C224.853 109.285 226.466 111.399 226.691 113.824C226.804 115.029 226.923 116.196 227.046 117.29C227.067 117.487 226.927 117.663 226.733 117.685C226.719 117.687 226.705 117.688 226.693 117.688Z" fill="#333A43"/>
<path d="M213.549 168.225H218.429C218.774 168.225 219.086 168.433 219.219 168.756C219.649 169.814 220.532 172.29 220.413 174.637C220.38 175.279 219.85 175.781 219.212 175.781H204.897C204.239 175.781 203.74 175.176 203.87 174.526C204.029 173.749 204.573 172.726 206.143 171.807C208.684 170.319 211.879 168.83 212.885 168.37C213.095 168.274 213.32 168.225 213.549 168.225Z" fill="white"/>
<path d="M213.548 168.582C213.369 168.582 213.196 168.62 213.033 168.695C212.101 169.121 208.863 170.627 206.32 172.116C205.133 172.811 204.407 173.67 204.217 174.598C204.177 174.799 204.229 175.007 204.359 175.167C204.492 175.33 204.688 175.424 204.896 175.424H219.211C219.663 175.424 220.034 175.071 220.058 174.619C220.174 172.317 219.28 169.847 218.889 168.892C218.811 168.704 218.632 168.582 218.428 168.582H213.548ZM219.211 176.139H204.896C204.473 176.139 204.078 175.949 203.808 175.619C203.543 175.292 203.439 174.867 203.522 174.455C203.683 173.665 204.236 172.51 205.963 171.498C208.534 169.993 211.798 168.474 212.737 168.045C212.995 167.927 213.267 167.868 213.548 167.868H218.428C218.92 167.868 219.358 168.163 219.545 168.62C219.954 169.62 220.89 172.209 220.767 174.656C220.725 175.487 220.041 176.139 219.211 176.139Z" fill="#333A43"/>
<path d="M212.884 171.804C212.794 171.804 212.704 171.77 212.636 171.701L210.583 169.668C210.443 169.53 210.441 169.304 210.578 169.163C210.718 169.022 210.942 169.021 211.082 169.159L213.135 171.192C213.274 171.33 213.274 171.556 213.137 171.697C213.069 171.768 212.976 171.804 212.884 171.804Z" fill="#333A43"/>
<path d="M211.56 172.639C211.47 172.639 211.38 172.605 211.311 172.536L209.258 170.503C209.119 170.365 209.116 170.139 209.256 169.998C209.393 169.857 209.618 169.856 209.757 169.994L211.81 172.027C211.95 172.165 211.95 172.391 211.813 172.532C211.744 172.603 211.652 172.639 211.56 172.639Z" fill="#333A43"/>
<path d="M235.075 168.225H239.954C240.3 168.225 240.612 168.433 240.744 168.756C241.177 169.814 242.057 172.29 241.939 174.637C241.906 175.279 241.376 175.781 240.74 175.781H226.422C225.765 175.781 225.266 175.176 225.396 174.526C225.554 173.749 226.098 172.726 227.669 171.807C230.209 170.319 233.405 168.83 234.41 168.37C234.62 168.274 234.845 168.225 235.075 168.225Z" fill="white"/>
<path d="M235.074 168.582C234.894 168.582 234.721 168.62 234.558 168.695C233.626 169.121 230.388 170.627 227.845 172.116C226.66 172.811 225.932 173.669 225.743 174.598C225.703 174.799 225.755 175.007 225.885 175.167C226.017 175.33 226.213 175.424 226.422 175.424H240.739C241.188 175.424 241.562 175.071 241.583 174.619C241.699 172.316 240.805 169.847 240.415 168.892C240.337 168.704 240.157 168.582 239.953 168.582H235.074ZM240.739 176.139H226.422C225.998 176.139 225.601 175.949 225.334 175.618C225.069 175.291 224.965 174.867 225.047 174.455C225.208 173.665 225.764 172.51 227.488 171.498C230.059 169.993 233.324 168.474 234.263 168.045C234.52 167.927 234.792 167.868 235.074 167.868H239.953C240.445 167.868 240.883 168.163 241.07 168.62C241.479 169.619 242.416 172.208 242.293 174.656C242.25 175.487 241.567 176.139 240.739 176.139Z" fill="#333A43"/>
<path d="M234.962 171.627C234.872 171.627 234.783 171.593 234.714 171.525L232.661 169.491C232.521 169.353 232.519 169.126 232.656 168.986C232.793 168.845 233.018 168.844 233.158 168.982L235.211 171.015C235.35 171.154 235.353 171.38 235.215 171.52C235.147 171.591 235.055 171.627 234.962 171.627Z" fill="#333A43"/>
<path d="M233.636 172.46C233.546 172.46 233.456 172.426 233.388 172.358L231.335 170.324C231.195 170.186 231.193 169.959 231.33 169.819C231.467 169.678 231.692 169.677 231.831 169.815L233.884 171.848C234.024 171.987 234.026 172.213 233.889 172.353C233.821 172.424 233.728 172.46 233.636 172.46Z" fill="#333A43"/>
<path d="M229.454 51.1812C229.348 51.2169 229.234 51.2646 229.114 51.3217C229.114 51.3217 228.842 51.4883 228.596 51.9455C228.347 52.4003 227.936 53.8122 227.401 53.7289C226.864 53.6455 226.204 51.4479 226.204 51.4479C226.204 51.4479 225.999 50.3693 224.35 50.7836C222.701 51.1979 221.424 51.9027 220.93 52.1931C220.435 52.4836 219.981 52.567 219.487 52.5265C218.993 52.4836 217.386 51.5312 217.675 49.9955C217.964 48.4597 219.366 47.4168 220.601 47.424C221.888 47.4311 223.733 46.593 224.061 46.4287C224.393 46.2621 226.332 45.462 227.389 46.0549C228.331 46.5835 229.126 47.424 229.554 48.8764C229.83 49.8026 229.618 50.6526 229.589 50.9312C229.577 51.0407 229.558 51.1455 229.454 51.1812Z" fill="#333A43"/>
<path d="M220.719 52.3505C220.688 52.3672 220.669 52.4005 220.672 52.4363C220.688 52.691 220.745 53.7387 220.586 54.6839C220.499 55.2054 220.168 56.4721 220.307 56.734C220.447 56.9959 220.967 57.0149 221.206 56.9959C221.445 56.9745 221.845 57.0745 221.944 57.2769C222.046 57.4769 222.344 59.3483 222.464 59.7888C222.585 60.2317 222.982 60.7555 223.723 60.6745C223.817 60.665 224.094 60.6007 224.307 60.5507C224.463 60.515 224.619 60.6198 224.643 60.7769C224.998 63.0484 222.718 65.6056 222.169 66.1913C222.114 66.2509 222.133 66.3509 222.209 66.3818C227.264 68.6033 232.465 64.7699 233.887 63.5794C233.948 63.5246 231.23 62.7841 229.932 59.6388C229.359 58.2554 229.551 56.103 229.53 55.2458C229.525 55.0744 229.622 54.9149 229.778 54.8435C230.119 54.6839 230.618 54.1577 230.76 53.6387C230.965 52.8934 230.885 50.5124 228.924 51.4672C228.924 51.4672 228.654 51.6315 228.406 52.0886C228.16 52.5458 227.746 53.9554 227.212 53.872C226.675 53.7887 226.017 51.591 226.017 51.591C226.017 51.591 225.811 50.5124 224.163 50.9267C222.675 51.3005 221.026 52.1815 220.719 52.3505Z" fill="white"/>
<path d="M222.663 66.1825C227.039 67.8897 231.443 65.0467 233.229 63.6562C231.542 62.8157 230.324 61.5109 229.607 59.7776C229.123 58.6013 229.153 56.9727 229.175 55.8965C229.179 55.6418 229.184 55.4227 229.179 55.256C229.172 54.9393 229.35 54.6512 229.633 54.5203C229.877 54.406 230.305 53.9703 230.423 53.5441C230.544 53.0988 230.518 52.0702 230.107 51.725C229.894 51.5464 229.555 51.5631 229.106 51.7774C229.066 51.8083 228.891 51.9512 228.723 52.2607C228.671 52.3536 228.605 52.5131 228.534 52.6845C228.226 53.4179 227.843 54.3274 227.162 54.2251C226.537 54.1298 226.012 52.7965 225.681 51.694L225.672 51.6583C225.672 51.6559 225.622 51.4536 225.402 51.3202C225.149 51.1655 224.751 51.1488 224.252 51.275C222.968 51.5988 221.554 52.3131 221.04 52.5869C221.062 53.0131 221.08 53.9084 220.941 54.7441C220.92 54.8774 220.879 55.0632 220.837 55.2679C220.761 55.6251 220.61 56.3537 220.633 56.5727C220.695 56.6108 220.929 56.6608 221.182 56.6394C221.518 56.6132 222.081 56.7418 222.268 57.118C222.334 57.2537 222.403 57.587 222.59 58.5847C222.675 59.0442 222.762 59.518 222.812 59.6966C222.843 59.8133 223.034 60.3919 223.689 60.3204C223.706 60.318 223.805 60.3038 224.231 60.2038C224.401 60.1633 224.584 60.1966 224.728 60.2966C224.872 60.3942 224.971 60.549 224.997 60.7228C225.333 62.8729 223.522 65.2134 222.663 66.1825ZM225.511 67.4277C224.39 67.4277 223.231 67.2206 222.072 66.711C221.932 66.6491 221.828 66.5206 221.797 66.3706C221.766 66.2182 221.811 66.0587 221.915 65.9467C222.547 65.2729 224.56 62.9491 224.309 60.9181C223.89 61.0157 223.801 61.0252 223.765 61.03C222.873 61.13 222.301 60.5252 222.126 59.8847C222.072 59.6776 221.984 59.2109 221.892 58.718C221.809 58.2728 221.686 57.6132 221.634 57.4465C221.575 57.3989 221.383 57.3394 221.239 57.3513C221.081 57.3656 220.269 57.4061 220 56.9037C219.851 56.6227 219.933 56.1203 220.144 55.1203C220.184 54.9274 220.22 54.7512 220.241 54.6251C220.395 53.706 220.335 52.6607 220.321 52.4607C220.312 52.2869 220.402 52.1202 220.553 52.0393C220.875 51.8631 222.552 50.9655 224.08 50.5821C224.792 50.4012 225.369 50.4512 225.797 50.725C226.218 50.9964 226.339 51.3916 226.365 51.5012C226.648 52.444 227.067 53.3631 227.278 53.5155C227.45 53.4298 227.76 52.6893 227.878 52.406C227.961 52.2107 228.032 52.044 228.098 51.9178C228.385 51.394 228.709 51.1845 228.744 51.1631L228.775 51.1464C229.69 50.6988 230.251 50.9178 230.561 51.1774C231.28 51.7798 231.27 53.1417 231.107 53.7369C230.932 54.3631 230.362 54.9679 229.932 55.1679C229.905 55.1798 229.889 55.2084 229.889 55.2394C229.894 55.4132 229.889 55.6441 229.884 55.9084C229.865 56.9275 229.835 58.4656 230.263 59.5014C230.958 61.1871 232.179 62.4228 233.886 63.1752C234.061 63.2514 234.213 63.3205 234.243 63.5276L234.269 63.7229L234.118 63.8538C232.952 64.8324 229.477 67.4277 225.511 67.4277Z" fill="#333A43"/>
<path d="M224.449 60.8721C224.295 60.8721 224.153 60.7697 224.108 60.6149C224.054 60.4268 224.16 60.2268 224.349 60.172C224.986 59.9816 226.012 59.5387 226.736 59.0601C226.901 58.953 227.121 58.9958 227.228 59.1625C227.337 59.3268 227.289 59.5482 227.126 59.6578C226.343 60.1744 225.236 60.653 224.548 60.8554C224.515 60.8673 224.482 60.8721 224.449 60.8721Z" fill="#333A43"/>
<path d="M74.4379 73.8401C74.2061 73.9353 73.979 74.0449 73.7519 74.1639C72.0182 75.0949 70.6605 76.583 69.1798 77.8807C66.4266 80.2967 61.8095 80.4191 60.1396 84.0915C59.5222 85.4451 59.8794 87.1249 59.1343 88.4123C57.928 90.5038 54.5716 90.4183 53.3299 92.4903C52.5304 93.827 52.9751 95.6475 54.0182 96.8025C55.2292 98.1442 57.2255 98.9297 58.9711 99.2519C61.5919 99.7359 64.2363 100.082 66.8925 100.29C69.1538 100.466 71.5357 100.518 73.5604 99.4878C75.578 98.4592 76.9782 96.4504 77.7091 94.2946C78.0757 93.2127 78.2957 92.0827 78.6931 91.0114C79.3128 89.3385 80.5238 87.2706 82.1677 86.438C83.7619 85.6306 86.9574 84.8782 87.5086 82.8691C88.1306 80.5914 87.1112 78.0759 85.3727 76.4902C82.4941 73.8663 78.1585 72.2877 74.4379 73.8401Z" fill="#333A43"/>
<path d="M72.4403 131.406C72.4403 131.406 66.7186 133.552 64.4763 131.745C62.234 129.939 67.9533 126.891 69.2992 127.116C70.6451 127.342 72.4403 131.406 72.4403 131.406Z" fill="#333A43"/>
<path d="M101.175 177.437L95.7914 186.92L92.875 182.856L97.5867 173.598L101.175 177.437Z" fill="white"/>
<path d="M93.2916 182.825L95.7563 186.263L100.738 177.49L97.6722 174.213L93.2916 182.825ZM95.7917 187.278C95.6782 187.278 95.5717 187.223 95.5032 187.13L92.5891 183.066C92.5111 182.957 92.4992 182.814 92.5607 182.694L97.2701 173.437C97.3221 173.333 97.4214 173.262 97.5373 173.246C97.6485 173.23 97.7644 173.27 97.8448 173.355L101.433 177.193C101.539 177.308 101.561 177.479 101.483 177.615L96.0992 187.098C96.0401 187.204 95.9313 187.271 95.8106 187.278C95.8035 187.278 95.7988 187.278 95.7917 187.278Z" fill="#333A43"/>
<path d="M97.6587 185.472C96.2395 188.418 92.6466 195.563 89.1838 198.987C88.3394 199.823 86.9131 199.435 86.6103 198.282C85.527 194.157 84.8032 185.563 88.8408 178.79C88.8408 178.79 90.7614 178.564 94.3496 179.241L93.5525 182.628L93.9924 182.311C94.6571 181.834 95.5559 181.874 96.1756 182.408L97.2092 183.301C97.8337 183.838 98.0182 184.729 97.6587 185.472Z" fill="#333A43"/>
<path d="M88.6172 198.114C88.4729 198.114 88.3381 198.026 88.2837 197.884C85.1283 189.49 89.3693 179.648 89.4119 179.55C89.4923 179.369 89.7028 179.287 89.8802 179.367C90.06 179.447 90.1404 179.658 90.0623 179.838C90.0198 179.934 85.897 189.514 88.9483 197.631C89.0169 197.815 88.9246 198.021 88.7425 198.091C88.6999 198.107 88.6574 198.114 88.6172 198.114Z" fill="white"/>
<path d="M95.5661 189.938C95.4999 189.938 95.4336 189.92 95.3745 189.881L92.6828 188.123C92.5172 188.016 92.4699 187.795 92.5764 187.629C92.6852 187.464 92.9051 187.417 93.0683 187.524L95.7601 189.282C95.9233 189.389 95.9706 189.61 95.8641 189.776C95.7956 189.881 95.682 189.938 95.5661 189.938Z" fill="white"/>
<path d="M94.2178 192.345C94.1421 192.345 94.0664 192.321 94.0026 192.271L91.5355 190.365C91.3794 190.245 91.351 190.02 91.4693 189.864C91.5876 189.708 91.8123 189.677 91.966 189.798L94.4354 191.704C94.5892 191.824 94.6199 192.049 94.4993 192.205C94.4307 192.297 94.3243 192.345 94.2178 192.345Z" fill="white"/>
<path d="M118.221 177.662C118.221 177.888 123.155 188.726 123.155 188.726L117.55 189.178L113.734 179.92L118.221 177.662Z" fill="white"/>
<path d="M118.572 177.663H118.575H118.572ZM114.185 180.091L117.773 188.801L122.619 188.411C119.428 181.403 118.378 179.004 118.033 178.155L114.185 180.091ZM117.543 189.535C117.401 189.535 117.271 189.449 117.217 189.315L113.404 180.057C113.333 179.884 113.406 179.685 113.572 179.601L118.059 177.343C118.168 177.288 118.3 177.294 118.404 177.359C118.489 177.412 118.546 177.498 118.565 177.595C118.726 178.096 121.581 184.419 123.475 188.578C123.523 188.683 123.516 188.807 123.459 188.907C123.4 189.008 123.296 189.073 123.18 189.082L117.574 189.534C117.562 189.535 117.553 189.535 117.543 189.535Z" fill="#333A43"/>
<path d="M118.005 186.469C118.005 186.469 119.126 183.759 122.042 185.114C122.042 185.114 127.395 192.897 129.384 199.323C129.947 201.142 128.093 202.778 126.368 201.994C122.335 200.161 116.013 196.314 112.396 189.178C112.396 189.178 113.52 186.243 115.313 184.888L118.005 186.469Z" fill="#333A43"/>
<path d="M127.734 200.391C126.218 200.391 120.666 199.631 113.445 189.613C113.329 189.453 113.365 189.23 113.523 189.114C113.682 188.998 113.904 189.034 114.02 189.193C122.06 200.348 127.978 199.672 128.037 199.662C128.231 199.636 128.41 199.769 128.439 199.964C128.465 200.16 128.332 200.341 128.138 200.369C128.105 200.374 127.968 200.391 127.734 200.391Z" fill="white"/>
<path d="M123.161 194.278C123.04 194.278 122.922 194.215 122.856 194.101C122.756 193.931 122.813 193.712 122.983 193.613L125.675 192.032C125.843 191.933 126.061 191.99 126.16 192.161C126.257 192.331 126.2 192.55 126.032 192.649L123.34 194.23C123.284 194.263 123.222 194.278 123.161 194.278Z" fill="white"/>
<path d="M121.804 192.242C121.678 192.242 121.555 192.174 121.491 192.054C121.399 191.881 121.463 191.664 121.636 191.571L124.552 189.99C124.725 189.897 124.94 189.962 125.032 190.135C125.125 190.309 125.061 190.525 124.888 190.619L121.972 192.199C121.92 192.229 121.86 192.242 121.804 192.242Z" fill="white"/>
<path d="M89.509 123.02C89.509 123.02 104.129 125.648 114.664 136.768C117.323 139.574 118.262 143.615 117.122 147.32C114.78 154.92 109.685 168.801 101.172 179.241L94.6678 173.597C94.6678 173.597 96.2383 160.501 100.498 152.372C104.761 144.244 79.8633 126.632 79.8633 126.632L89.509 123.02Z" fill="white"/>
<path d="M95.0398 173.454L101.123 178.733C109.501 168.321 114.523 154.543 116.779 147.216C117.882 143.635 116.971 139.727 114.402 137.016C104.501 126.566 90.7987 123.642 89.5356 123.391L80.609 126.734C84.358 129.454 104.858 144.819 100.809 152.541C96.9012 159.993 95.2526 171.822 95.0398 173.454ZM101.168 179.601C101.083 179.601 101 179.57 100.936 179.514L94.4318 173.869C94.342 173.791 94.297 173.674 94.3112 173.556C94.3278 173.424 95.9385 160.301 100.182 152.208C104.25 144.447 79.9018 127.101 79.6558 126.927C79.547 126.851 79.4902 126.72 79.5067 126.589C79.5233 126.457 79.6132 126.346 79.7362 126.3L89.3795 122.687C89.441 122.665 89.5049 122.659 89.5664 122.67C89.7131 122.697 104.423 125.447 114.915 136.524C117.662 139.422 118.634 143.6 117.456 147.428C115.164 154.871 110.036 168.932 101.443 179.47C101.381 179.544 101.294 179.591 101.199 179.599C101.19 179.6 101.178 179.601 101.168 179.601Z" fill="#333A43"/>
<path d="M120.016 179.694L112.388 181.952C112.388 181.952 98.482 152.374 94.4444 148.084C90.4068 143.794 82.5564 136.794 74.2565 134.311C65.959 131.827 65.959 125.505 65.959 125.505L80.0893 121.441C80.0893 121.441 99.8278 130.02 106.332 139.73C112.837 149.438 120.016 179.694 120.016 179.694Z" fill="white"/>
<path d="M66.3292 125.77C66.431 126.976 67.2896 131.852 74.3595 133.968C83.7758 136.786 92.3122 145.297 94.7035 147.838C98.5708 151.948 111.076 178.332 112.58 181.524L119.591 179.448C118.789 176.135 112.072 148.932 106.04 139.929C99.9237 130.799 81.6943 122.543 80.0646 121.82L66.3292 125.77ZM112.389 182.31C112.256 182.31 112.129 182.232 112.07 182.105C111.93 181.81 98.1403 152.529 94.1879 148.33C91.8273 145.821 83.4044 137.42 74.1584 134.653C65.7024 132.123 65.6055 125.571 65.6055 125.505C65.6055 125.345 65.7096 125.206 65.8633 125.162L79.9937 121.097C80.0717 121.075 80.1569 121.08 80.2302 121.113C81.0415 121.465 100.139 129.846 106.627 139.53C113.094 149.182 120.067 178.373 120.36 179.611C120.405 179.796 120.298 179.983 120.116 180.037L112.491 182.295C112.458 182.305 112.422 182.31 112.389 182.31Z" fill="#333A43"/>
<path d="M54.5137 102.25C58.3289 94.5732 64.6088 93.4444 64.6088 93.4444L75.3757 92.541C78.7415 92.312 82.3202 94.4051 83.6495 97.5273L93.5436 120.765C93.5436 120.765 91.5237 126.184 82.552 127.087C73.5804 127.99 67.4117 127.425 64.4953 131.038C62.5746 133.42 62.6338 117.536 63.7407 104.972L54.5137 102.25Z" fill="#FB9946"/>
<path d="M83.2365 122.57L78.3001 120.312L74.4872 121.892C74.4872 121.892 54.032 119.284 63.1787 104.551C63.2189 104.487 55.9905 103.016 55.9905 103.016C55.9905 103.016 47.6528 123.021 74.0401 123.473C74.0401 123.473 75.386 123.925 77.1789 123.021C78.9742 122.118 82.113 123.925 83.2365 122.57Z" fill="white"/>
<path d="M56.2161 103.424C55.7076 104.827 53.6308 111.367 56.9446 116.472C59.7097 120.732 65.4621 122.967 74.0458 123.114C74.0813 123.114 74.1191 123.12 74.1522 123.132C74.1617 123.135 75.3964 123.519 77.0214 122.7C77.9604 122.228 79.1431 122.405 80.2855 122.576C81.1465 122.705 81.9696 122.829 82.5231 122.634L78.2939 120.699L74.6229 122.221C74.5662 122.244 74.5047 122.252 74.4432 122.245C74.0222 122.191 64.0524 120.854 61.2069 114.82C59.8729 111.991 60.353 108.612 62.6285 104.771C61.5144 104.515 58.4632 103.883 56.2161 103.424ZM74.9399 123.941C74.455 123.941 74.1168 123.864 73.9867 123.827C65.1783 123.668 59.2437 121.324 56.3462 116.859C52.4293 110.817 55.5302 103.198 55.665 102.876C55.7289 102.719 55.8968 102.632 56.0624 102.664C63.3996 104.157 63.4043 104.171 63.506 104.407C63.5509 104.515 63.5415 104.639 63.48 104.739C61.1265 108.529 60.5778 111.818 61.8479 114.514C64.3906 119.906 73.4356 121.376 74.4432 121.523L78.1662 119.98C78.2584 119.942 78.3602 119.944 78.45 119.985L83.3841 122.243C83.4834 122.289 83.5567 122.38 83.5828 122.488C83.6064 122.597 83.5804 122.711 83.5094 122.796C82.7833 123.673 81.4611 123.474 80.1814 123.283C79.1478 123.128 78.0763 122.967 77.3383 123.339C76.3851 123.819 75.5454 123.941 74.9399 123.941Z" fill="#333A43"/>
<path d="M64.1483 105.975L54.1289 103.124L54.5145 102.247C54.5145 102.247 55.6546 101.37 55.8722 101.37C56.0898 101.37 61.7523 101.151 61.7523 101.151L65.2388 102.247L64.1483 105.975Z" fill="#FB9946"/>
<path d="M102.123 124.051H82.668L97.0892 101.722C97.541 101.024 98.3263 100.601 99.1707 100.601H114.959C115.962 100.601 116.572 101.681 116.035 102.511L102.123 124.051Z" fill="#333A43"/>
<path d="M106.002 108.43C105.368 109.409 104.011 110.202 102.965 110.202C101.92 110.202 101.586 109.409 102.218 108.43C102.849 107.451 104.209 106.658 105.255 106.658C106.298 106.658 106.634 107.451 106.002 108.43Z" fill="white"/>
<path d="M105.256 107.015C104.334 107.015 103.08 107.753 102.517 108.625C102.269 109.007 102.191 109.363 102.307 109.577C102.432 109.81 102.773 109.845 102.967 109.845C103.887 109.845 105.143 109.108 105.706 108.236C105.952 107.853 106.03 107.498 105.916 107.284C105.791 107.05 105.448 107.015 105.256 107.015ZM102.967 110.56C102.361 110.56 101.905 110.332 101.682 109.917C101.436 109.463 101.524 108.85 101.921 108.236C102.621 107.151 104.085 106.301 105.256 106.301C105.859 106.301 106.316 106.529 106.538 106.943C106.784 107.398 106.697 108.011 106.299 108.625C105.599 109.71 104.135 110.56 102.967 110.56Z" fill="#333A43"/>
<path d="M100.953 125.731H70.6301C69.9465 125.731 69.3906 125.173 69.3906 124.483V123.908H102.193V124.483C102.193 125.173 101.639 125.731 100.953 125.731Z" fill="#333A43"/>
<path d="M71.7872 91.8609C71.9882 91.7605 74.6871 88.5549 76.2647 86.6672C76.1465 86.1432 76.163 85.9758 76.2056 85.1817C76.2056 85.1817 75.3895 84.3567 75.716 83.2855C76.0991 82.0402 77.2723 83.0395 77.2723 83.0395C77.2723 83.0395 77.8164 82.0824 79.8624 83.7327C81.9083 85.3829 84.0702 83.3752 84.0702 83.3752C84.0702 83.3752 84.0679 84.6117 82.9869 86.1139C82.3909 86.9432 82.2915 88.038 82.2631 89.0613L81.116 88.8954C80.4844 89.6476 80.0161 90.0166 79.1504 90.3773C79.1504 90.3773 78.4645 90.2511 77.7549 89.6587L76.4989 92.5386L77.7785 93.2157C77.7785 93.2157 78.0671 95.0222 74.7036 95.4736C71.3402 95.9253 68.6484 93.2157 68.6484 93.2157C68.6484 93.2157 70.4413 92.5386 71.7872 91.8609Z" fill="white"/>
<path d="M71.7895 91.8606H71.7918H71.7895ZM69.3249 93.3351C70.1882 94.0335 72.2602 95.4432 74.6586 95.1192C77.0239 94.802 77.3811 93.8249 77.426 93.4313L76.3356 92.8541C76.1701 92.767 76.1015 92.566 76.1748 92.3946L77.4307 89.5148C77.4757 89.4119 77.5656 89.3367 77.6744 89.3105C77.7832 89.285 77.8967 89.3112 77.9819 89.3831C78.4597 89.7812 78.928 89.946 79.1219 90.0019C79.8457 89.6876 80.262 89.3617 80.8486 88.6648C80.9267 88.5707 81.0473 88.5231 81.1703 88.5417L81.9248 88.651C81.9769 87.674 82.1354 86.6923 82.703 85.904C83.1785 85.2423 83.4315 84.6347 83.5664 84.1809C82.5587 84.7606 81.0331 85.1323 79.6423 84.0111C78.5637 83.1399 78.0055 83.0856 77.7714 83.1311C77.646 83.1549 77.5845 83.2161 77.5845 83.2168C77.5301 83.3087 77.4402 83.3725 77.3361 83.3911C77.2344 83.4092 77.128 83.3806 77.0452 83.312C76.9033 83.1915 76.5343 82.9625 76.3143 83.028C76.2079 83.0599 76.1227 83.1815 76.0589 83.3904C75.7987 84.2363 76.435 84.9025 76.461 84.9304C76.5319 85.0021 76.5698 85.1011 76.5627 85.2011L76.5556 85.3266C76.5201 86.0004 76.5106 86.1409 76.6147 86.5869C76.6384 86.6962 76.61 86.8109 76.539 86.8969C72.246 92.0308 72.0592 92.1241 71.948 92.1801C71.0492 92.6334 69.9659 93.0801 69.3249 93.3351ZM73.9349 95.8818C70.8363 95.8821 68.5041 93.5744 68.4 93.4677C68.3149 93.382 68.277 93.2584 68.303 93.1396C68.329 93.0208 68.4118 92.9234 68.5254 92.881C68.5419 92.8741 70.2946 92.2113 71.605 91.5548C71.7257 91.4465 72.3784 90.7605 75.8838 86.5709C75.801 86.1516 75.8129 85.9145 75.846 85.3068C75.6024 85.004 75.0702 84.1913 75.38 83.1797C75.5527 82.6158 75.8767 82.4132 76.1156 82.3423C76.5414 82.2175 76.979 82.4153 77.2486 82.5825C77.348 82.5187 77.4757 82.4606 77.6389 82.4294C78.2728 82.3103 79.0959 82.6532 80.087 83.4535C81.8728 84.8954 83.7508 83.1858 83.8313 83.1123C83.9353 83.0158 84.0844 82.9906 84.2145 83.0477C84.3422 83.1046 84.4273 83.2332 84.4273 83.3751C84.4273 83.4304 84.4132 84.7454 83.2778 86.323C82.7456 87.0621 82.6463 88.0805 82.6202 89.071C82.6179 89.1726 82.5706 89.2686 82.4925 89.3341C82.4168 89.3995 82.3128 89.4293 82.2158 89.4143L81.2602 89.2764C80.6334 89.9962 80.1319 90.3558 79.2875 90.707C79.226 90.7334 79.155 90.7408 79.0888 90.7284C79.0628 90.7234 78.5306 90.6212 77.9038 90.21L76.9577 92.3765L77.9464 92.8992C78.0457 92.9513 78.1143 93.0475 78.1309 93.1584C78.1427 93.2232 78.2184 93.8087 77.7524 94.4404C77.2179 95.1654 76.2079 95.6321 74.7532 95.8275C74.4741 95.8647 74.2021 95.8818 73.9349 95.8818Z" fill="#333A43"/>
<path d="M77.764 89.6602L77.3926 89.3248L77.764 89.6602Z" fill="white"/>
<path d="M77.7651 90.0176C77.68 90.0176 77.5948 89.9873 77.5262 89.9259L77.1572 89.5902C77.0106 89.4585 76.9987 89.2326 77.1312 89.0859C77.2613 88.9392 77.486 88.9275 77.6327 89.0597L78.0017 89.3952C78.1483 89.5271 78.1601 89.753 78.0277 89.8995C77.9591 89.9778 77.8621 90.0176 77.7651 90.0176Z" fill="#333A43"/>
<defs>
<linearGradient id="paint0_linear" x1="135.732" y1="210.001" x2="135.732" y2="0.000473022" gradientUnits="userSpaceOnUse">
<stop stop-color="#FFEDEF"/>
<stop offset="1" stop-color="#FFE6D1"/>
</linearGradient>
<linearGradient id="paint1_linear" x1="62.571" y1="67.4893" x2="62.571" y2="29.7184" gradientUnits="userSpaceOnUse">
<stop stop-color="#FFEDEF"/>
<stop offset="1" stop-color="#FFE6D1"/>
</linearGradient>
<linearGradient id="paint2_linear" x1="62.5691" y1="77.6973" x2="62.5691" y2="19.5081" gradientUnits="userSpaceOnUse">
<stop stop-color="#FFEDEF"/>
<stop offset="1" stop-color="#FFE6D1"/>
</linearGradient>
<linearGradient id="paint3_linear" x1="9.11529" y1="166.025" x2="9.11529" y2="147.76" gradientUnits="userSpaceOnUse">
<stop stop-color="#FFEDEF"/>
<stop offset="1" stop-color="#FFE6D1"/>
</linearGradient>
<linearGradient id="paint4_linear" x1="260.693" y1="97.1387" x2="260.693" y2="78.873" gradientUnits="userSpaceOnUse">
<stop stop-color="#FFEDEF"/>
<stop offset="1" stop-color="#FFE6D1"/>
</linearGradient>
<linearGradient id="paint5_linear" x1="262.323" y1="183.215" x2="262.323" y2="147.792" gradientUnits="userSpaceOnUse">
<stop stop-color="#FFEDEF"/>
<stop offset="1" stop-color="#FFE6D1"/>
</linearGradient>
</defs>
</svg>
