<svg width="24" height="24" viewBox="0 0 24 24" fill="none" xmlns="http://www.w3.org/2000/svg">
<path d="M19.5 24H4.5C2.0145 24 0 21.9855 0 19.5V4.5C0 2.0145 2.0145 0 4.5 0H19.5C21.9855 0 24 2.0145 24 4.5V19.5C24 21.9855 21.9855 24 19.5 24Z" fill="#F6F7F9"/>
<path d="M12.0021 8.91907C10.3003 8.91907 8.92334 10.2983 8.92334 11.9978C8.92334 13.6988 10.3026 15.0766 12.0021 15.0766C13.7039 15.0766 15.0809 13.6973 15.0809 11.9978C15.0809 10.2961 13.7016 8.91907 12.0021 8.91907ZM12.0021 13.9966C10.8981 13.9966 10.0033 13.1018 10.0033 11.9978C10.0033 10.8938 10.8981 9.99907 12.0021 9.99907C13.1061 9.99907 14.0009 10.8931 14.0009 11.9978C14.0009 13.1018 13.1061 13.9966 12.0021 13.9966Z" fill="#23282E"/>
<path d="M14.4744 6.03736C13.3704 5.98561 10.6359 5.98786 9.53039 6.03736C8.55914 6.08311 7.70264 6.31786 7.01264 7.00786C5.85839 8.16211 6.00614 9.71686 6.00614 11.9976C6.00614 14.3316 5.87639 15.8511 7.01264 16.9874C8.17064 18.1454 9.74864 17.9939 12.0024 17.9939C14.7646 17.9939 17.7871 18.2586 17.9626 14.4696C18.0144 13.3649 18.0121 10.6311 17.9626 9.52636C17.8636 7.41961 16.7326 6.14236 14.4744 6.03736V6.03736ZM16.2211 16.2239C15.4644 16.9806 14.4151 16.9131 11.9866 16.9131C9.48689 16.9131 8.48414 16.9499 7.75214 16.2164C6.90914 15.3779 7.06214 14.0309 7.06214 11.9901C7.06214 7.00261 7.34789 7.06636 11.9791 7.06636L12.0016 7.08136C16.9681 7.08136 16.9171 7.40311 16.9171 11.9976C16.9179 14.4681 16.9651 15.4769 16.2211 16.2239V16.2239Z" fill="#23282E"/>
<path d="M15.2031 9.51687C15.6004 9.51687 15.9224 9.19485 15.9224 8.79762C15.9224 8.40039 15.6004 8.07837 15.2031 8.07837C14.8059 8.07837 14.4839 8.40039 14.4839 8.79762C14.4839 9.19485 14.8059 9.51687 15.2031 9.51687Z" fill="#23282E"/>
</svg>
