<svg width="360" height="360" viewBox="0 0 360 360" fill="none" xmlns="http://www.w3.org/2000/svg">
<path d="M7.474 69.3437C19.5274 45.3304 43.5343 32.3139 58.4198 24.2446C122.772 -10.6489 210.31 -1.5936 268.434 30.6707C325.805 62.5198 375.699 138.126 354.524 220.438C333.271 303.068 251.182 345.715 189.146 354.857C90.6397 369.374 8.05019 304.523 3.57212 281.961C2.19133 275.003 2.56984 268.834 2.56984 268.834C4.35467 252.535 17.9057 242.823 21.1418 205.68C27.0958 137.336 -13.6649 111.459 7.474 69.3437Z" fill="#FFF4E9"/>
<path d="M312.784 348.312H76.0285C72.4213 348.312 69.8258 346.082 69.5013 342.703L41.0371 50.183C40.7573 47.264 42.1709 44.2369 44.4329 41.9709C46.6101 39.7915 52.9417 33.3481 52.9417 33.3481L289.325 38.3125C292.932 38.3125 295.527 40.5439 295.852 43.9212L328.104 337.866C328.104 337.866 323.033 342.697 320.565 344.996C318.427 346.988 315.62 348.312 312.784 348.312Z" fill="#FB9946"/>
<path d="M321.037 339.598H84.2812C80.6739 339.598 78.0785 337.367 77.7545 333.988L49.7618 42.2906C49.2124 36.5651 55.1842 30.4202 61.2939 30.4202H298.05C301.657 30.4202 304.252 32.6516 304.576 36.0289L332.567 327.728C333.116 333.452 327.146 339.598 321.037 339.598Z" fill="#FEC99E"/>
<path d="M306.619 321.797H98.0141C94.8359 321.797 92.5493 319.832 92.2634 316.855L67.5994 59.8409C67.1153 54.7987 72.3768 49.3802 77.7602 49.3802H286.365C289.543 49.3802 291.83 51.3478 292.116 54.323L316.78 311.339C317.264 316.381 312.002 321.797 306.619 321.797Z" fill="#FFF4E9"/>
<path d="M69.8115 80.0527C69.4862 80.0527 69.205 79.8063 69.1678 79.4733L66.9578 59.8622C66.7207 57.393 67.733 54.7204 69.7328 52.5193C71.9173 50.115 74.9194 48.6793 77.7636 48.6793H266.612C266.97 48.6793 267.261 48.9733 267.261 49.3279C267.261 49.6869 266.97 49.9766 266.612 49.9766H77.7636C75.2789 49.9766 72.6358 51.2523 70.6936 53.3929C68.9386 55.3215 68.0475 57.6308 68.2486 59.7238L70.4574 79.3306C70.4976 79.6852 70.2415 80.0052 69.8851 80.0484C69.8604 80.0484 69.8362 80.0527 69.8115 80.0527Z" fill="#333A43"/>
<path d="M121.175 322.393H98.018C94.5093 322.393 91.9385 320.171 91.621 316.864L85.503 253.11C85.4688 252.753 85.7301 252.436 86.087 252.402C86.4391 252.363 86.7609 252.629 86.7947 252.985L92.9131 316.74C93.167 319.386 95.1707 321.095 98.018 321.095H121.175C121.533 321.095 121.824 321.386 121.824 321.744C121.824 322.102 121.533 322.393 121.175 322.393Z" fill="#333A43"/>
<path d="M302.358 161.627C302.027 161.627 301.745 161.376 301.713 161.04L299.409 137.039C299.375 136.682 299.636 136.364 299.993 136.33C300.345 136.295 300.667 136.558 300.701 136.915L303.004 160.916C303.039 161.273 302.777 161.59 302.42 161.624C302.4 161.626 302.378 161.627 302.358 161.627Z" fill="#333A43"/>
<path d="M61.294 31.0686C58.4494 31.0686 55.4256 32.5259 53.2048 34.9692C51.1967 37.179 50.1771 39.8255 50.4077 42.2256L78.4004 333.926C78.6932 336.977 81.0015 338.949 84.2813 338.949H321.037C323.881 338.949 326.905 337.49 329.128 335.047C331.135 332.838 332.152 330.193 331.922 327.791L303.93 36.0936C303.638 33.0406 301.329 31.0686 298.05 31.0686H61.294ZM321.037 340.246H84.2813C80.3466 340.246 77.4643 337.757 77.1087 334.05L49.116 42.351C48.8504 39.5877 49.9907 36.5779 52.2444 34.1C54.7071 31.3886 58.0899 29.7713 61.294 29.7713H298.05C301.984 29.7713 304.867 32.2622 305.223 35.9682L333.216 327.666C333.479 330.432 332.342 333.44 330.088 335.92C327.624 338.629 324.241 340.246 321.037 340.246Z" fill="#FB9946"/>
<path d="M83.6579 236.369C83.3235 236.369 83.0402 236.113 83.0121 235.775L76.5238 157.939C76.4939 157.582 76.7591 157.269 77.1164 157.239C77.4768 157.215 77.7869 157.474 77.8168 157.831L84.305 235.666C84.3349 236.024 84.0693 236.337 83.7124 236.367C83.6938 236.368 83.6756 236.369 83.6579 236.369Z" fill="#333A43"/>
<path d="M26.4746 32.0113L31.4757 52.8159C33.5694 61.3263 49.381 64.6864 66.7919 60.3231C84.2029 55.9598 96.6201 45.525 94.5264 37.0146L89.5253 16.21L26.4746 32.0113Z" fill="#FB9946"/>
<path d="M27.2547 32.4831L32.1056 52.665C32.6446 54.8531 34.1751 56.7256 36.6525 58.2175C43.0598 62.0749 54.8277 62.6543 66.6329 59.6964C83.6709 55.4239 95.9004 45.3178 93.8954 37.1664L89.0461 16.9974L27.2547 32.4831ZM51.955 62.8965C45.5312 62.8965 39.9094 61.69 35.9833 59.3289C33.1987 57.651 31.4701 55.5104 30.8446 52.972L25.8423 32.1631C25.7592 31.8171 25.9703 31.4668 26.3155 31.3803L89.3662 15.579C89.5345 15.5401 89.7123 15.5661 89.8603 15.6569C90.0082 15.7434 90.1146 15.8904 90.1548 16.059L95.1563 36.8637C96.23 41.227 93.8274 46.1481 88.3899 50.719C83.0774 55.1861 75.4627 58.8186 66.9486 60.9505C61.7564 62.2522 56.642 62.8965 51.955 62.8965Z" fill="#333A43"/>
<path d="M89.73 9.4612L54.0041 3.80486C53.341 3.73999 52.6756 3.90434 52.1202 4.27624L23.1646 26.1447L10.291 29.3707L11.8241 35.6021C11.9201 35.9913 12.2355 36.3243 12.7126 36.3719L61.1962 41.1719C61.8593 41.2368 62.5246 41.0681 63.0801 40.7006L103.709 13.5694C104.109 13.3013 104.232 12.8558 104.136 12.4666L102.604 6.23518L89.73 9.4612Z" fill="#FEC99E"/>
<path d="M11.0757 29.8405L12.4548 35.4449C12.4738 35.5227 12.543 35.7044 12.7766 35.726L61.2606 40.5261C61.7724 40.5779 62.291 40.4439 62.7202 40.1585L103.349 13.0273C103.549 12.8932 103.526 12.6986 103.507 12.6208L102.13 7.02069L89.8884 10.0867C89.8031 10.1083 89.7149 10.1126 89.6292 10.0997L53.9033 4.44337C53.4249 4.40012 52.9101 4.52984 52.481 4.81525L23.5561 26.6577C23.4869 26.7096 23.4073 26.7486 23.3229 26.7702L11.0757 29.8405ZM61.4782 41.832C61.3632 41.832 61.2477 41.8277 61.1326 41.8147L12.649 37.019C11.937 36.9498 11.366 36.4525 11.1947 35.752L9.66161 29.5205C9.57596 29.1745 9.78749 28.8243 10.134 28.7378L22.8791 25.542L51.7292 3.75578C52.4382 3.28442 53.2566 3.07685 54.0681 3.15902L89.7011 8.798L102.446 5.6023C102.613 5.55905 102.79 5.58933 102.939 5.67582C103.086 5.76663 103.193 5.90933 103.234 6.07798L104.767 12.3094C104.938 13.0056 104.664 13.7105 104.07 14.1084L63.4408 41.2353C62.859 41.6245 62.173 41.832 61.4782 41.832Z" fill="#333A43"/>
<path d="M101.716 5.46018L53.2326 0.660107C52.5698 0.595242 51.9041 0.763893 51.3487 1.13579L10.7199 28.267C9.92004 28.7989 10.2267 30.0486 11.181 30.1394L59.6646 34.9395C60.3277 35.0044 60.993 34.8358 61.5489 34.4682L102.178 7.33694C102.978 6.80072 102.671 5.55532 101.716 5.46018Z" fill="#FB9946"/>
<path d="M52.9504 1.29614C52.5109 1.29614 52.0766 1.43021 51.7081 1.67237L11.0793 28.8036C10.8786 28.9377 10.9024 29.1366 10.9223 29.2144C10.9413 29.2923 11.0114 29.4739 11.2441 29.4955L59.7277 34.2956C60.239 34.3432 60.7577 34.2134 61.1872 33.928L101.816 6.79677C102.017 6.66272 101.993 6.46379 101.973 6.38596C101.954 6.30812 101.884 6.13082 101.652 6.10487L53.1676 1.30915C53.0954 1.3005 53.0231 1.29614 52.9504 1.29614ZM59.9435 35.6016C59.8293 35.6016 59.7147 35.5972 59.6001 35.5842L11.1161 30.7885C10.4075 30.715 9.83692 30.222 9.66345 29.5301C9.48869 28.8339 9.76165 28.1247 10.3582 27.7268L50.9874 0.595623C51.6661 0.14156 52.4837 -0.0617027 53.2956 0.0161362L101.779 4.81621C102.488 4.8854 103.058 5.37838 103.232 6.07028C103.407 6.76651 103.134 7.47572 102.537 7.87356L61.9083 35.0048C61.3256 35.394 60.6391 35.6016 59.9435 35.6016Z" fill="#333A43"/>
<path d="M83.6182 38.209C83.6161 38.209 83.6143 38.209 83.6122 38.209C83.254 38.2047 82.9659 37.9149 82.9689 37.556L83.1255 20.3406L56.0901 17.2919C55.7337 17.253 55.4776 16.9287 55.5178 16.5741C55.5581 16.2195 55.8808 15.9643 56.2355 16.0032L83.8523 19.1168C84.1828 19.1514 84.4315 19.4325 84.4285 19.7655L84.2667 37.569C84.2637 37.9236 83.9738 38.209 83.6182 38.209Z" fill="#333A43"/>
<path d="M83.5906 36.1416C82.6804 36.1632 81.9446 36.8897 81.9061 37.8021L80.8242 63.502L87.8087 63.316L85.3607 37.7113C85.2737 36.8032 84.5003 36.1156 83.5906 36.1416Z" fill="#FEC99E"/>
<path d="M83.6351 36.79C83.6251 36.79 83.616 36.79 83.6061 36.79C83.0394 36.803 82.5766 37.2614 82.5528 37.8322L81.5003 62.8358L87.0949 62.6844L84.7131 37.7716C84.6599 37.2138 84.1892 36.79 83.6351 36.79ZM80.8224 64.1504C80.649 64.1504 80.4824 64.0812 80.3604 63.9601C80.2341 63.8304 80.1666 63.6574 80.1744 63.4758L81.2563 37.776C81.3086 36.5305 82.3252 35.5273 83.5711 35.4927C84.8121 35.4494 85.8862 36.4051 86.0047 37.6505L88.4527 63.2553C88.4696 63.4326 88.4116 63.6099 88.2927 63.7439C88.1737 63.878 88.0041 63.9601 87.8242 63.9645L80.8402 64.1504C80.8341 64.1504 80.8285 64.1504 80.8224 64.1504Z" fill="#333A43"/>
<path d="M238.705 242.368L106.331 243.258C103.122 243.279 100.339 240.747 100.113 237.602L97.7489 204.59C97.5236 201.446 99.9421 198.879 103.151 198.857L235.524 197.967C238.733 197.945 241.517 200.477 241.742 203.622L244.106 236.634C244.332 239.78 241.914 242.346 238.705 242.368Z" fill="white"/>
<path d="M235.565 198.618C235.553 198.618 235.541 198.618 235.529 198.618L103.156 199.508C101.766 199.517 100.506 200.058 99.6061 201.031C98.7314 201.976 98.3018 203.224 98.3965 204.546L100.761 237.558C100.961 240.352 103.438 242.611 106.291 242.611C106.303 242.611 106.315 242.611 106.327 242.611L238.701 241.722C240.09 241.712 241.351 241.172 242.25 240.199C243.125 239.254 243.554 238.005 243.46 236.683L241.095 203.671C240.895 200.877 238.418 198.618 235.565 198.618ZM106.292 243.908C102.771 243.908 99.7146 241.111 99.4668 237.651L97.1023 204.639C96.9816 202.956 97.5327 201.361 98.6535 200.15C99.799 198.911 101.395 198.223 103.147 198.211L235.52 197.321C235.535 197.321 235.55 197.321 235.565 197.321C239.085 197.321 242.142 200.119 242.389 203.578L244.754 236.59C244.875 238.274 244.324 239.868 243.203 241.08C242.058 242.319 240.462 243.007 238.71 243.019L238.705 242.37L238.71 243.019L106.336 243.908C106.321 243.908 106.306 243.908 106.292 243.908Z" fill="#333A43"/>
<path d="M232.308 220.201C232.906 228.547 226.487 235.359 217.973 235.416C209.457 235.473 202.07 228.754 201.472 220.408C200.874 212.063 207.293 205.251 215.807 205.193C224.323 205.136 231.71 211.856 232.308 220.201Z" fill="#FFF4E9"/>
<path d="M212.412 214.19L215.427 226.434L224.678 218.366L212.412 214.19ZM215.051 228.271C214.986 228.271 214.92 228.262 214.856 228.242C214.641 228.173 214.476 227.997 214.422 227.778L210.868 213.349C210.812 213.119 210.885 212.876 211.06 212.716C211.235 212.555 211.483 212.504 211.708 212.58L226.161 217.501C226.381 217.576 226.544 217.762 226.589 217.99C226.634 218.217 226.554 218.451 226.379 218.604L215.478 228.111C215.358 228.216 215.206 228.271 215.051 228.271Z" fill="#333A43"/>
<path d="M214.018 213.177C214.116 214.54 213.067 215.653 211.676 215.662C210.286 215.672 209.079 214.574 208.981 213.211C208.884 211.847 209.932 210.734 211.323 210.725C212.714 210.716 213.921 211.813 214.018 213.177Z" fill="white"/>
<path d="M211.341 211.374C211.336 211.374 211.332 211.374 211.328 211.374C210.828 211.377 210.376 211.57 210.056 211.916C209.747 212.25 209.595 212.693 209.629 213.164C209.702 214.186 210.612 215.013 211.659 215.013C211.664 215.013 211.668 215.013 211.672 215.013C212.172 215.01 212.624 214.817 212.944 214.471C213.253 214.137 213.405 213.693 213.371 213.223C213.298 212.201 212.389 211.374 211.341 211.374ZM211.659 216.311C209.945 216.311 208.455 214.945 208.334 213.257C208.275 212.424 208.548 211.635 209.103 211.035C209.67 210.423 210.456 210.082 211.319 210.076C211.326 210.076 211.333 210.076 211.341 210.076C213.055 210.076 214.545 211.442 214.665 213.13C214.726 213.962 214.452 214.751 213.897 215.352C213.33 215.964 212.544 216.304 211.681 216.311C211.674 216.311 211.667 216.311 211.659 216.311Z" fill="#333A43"/>
<path d="M218.344 227.601C218.472 229.383 217.101 230.837 215.283 230.85C213.465 230.862 211.888 229.427 211.76 227.645C211.633 225.864 213.003 224.409 214.821 224.397C216.639 224.385 218.216 225.819 218.344 227.601Z" fill="white"/>
<path d="M214.845 225.045C214.838 225.045 214.832 225.045 214.826 225.045C214.117 225.05 213.476 225.325 213.019 225.818C212.577 226.296 212.36 226.928 212.408 227.599C212.512 229.043 213.797 230.198 215.279 230.201C215.988 230.196 216.63 229.921 217.086 229.428C217.529 228.95 217.745 228.317 217.697 227.648C217.594 226.209 216.316 225.045 214.845 225.045ZM215.261 231.498C213.122 231.498 211.264 229.796 211.113 227.692C211.04 226.659 211.378 225.681 212.067 224.937C212.769 224.177 213.746 223.755 214.817 223.748C216.959 223.729 218.841 225.441 218.992 227.555C219.066 228.587 218.728 229.565 218.039 230.309C217.337 231.069 216.36 231.491 215.288 231.498C215.279 231.498 215.27 231.498 215.261 231.498Z" fill="#333A43"/>
<path d="M228.471 218.099C228.569 219.462 227.52 220.574 226.129 220.584C224.738 220.593 223.532 219.496 223.434 218.132C223.336 216.769 224.385 215.656 225.776 215.647C227.167 215.638 228.373 216.735 228.471 218.099Z" fill="white"/>
<path d="M225.794 216.296C225.789 216.296 225.785 216.296 225.781 216.296C225.281 216.299 224.829 216.492 224.509 216.838C224.2 217.172 224.048 217.615 224.082 218.086C224.155 219.108 225.064 219.935 226.112 219.935C226.117 219.935 226.121 219.935 226.125 219.935C226.625 219.932 227.076 219.739 227.397 219.393C227.706 219.059 227.858 218.615 227.824 218.145C227.751 217.123 226.842 216.296 225.794 216.296ZM226.113 221.232C224.398 221.232 222.908 219.867 222.787 218.179C222.728 217.346 223.001 216.557 223.557 215.956C224.123 215.344 224.91 215.004 225.772 214.998C225.779 214.998 225.786 214.998 225.793 214.998C227.509 214.998 228.998 216.364 229.119 218.052C229.178 218.884 228.905 219.673 228.349 220.274C227.783 220.886 226.996 221.226 226.134 221.232C226.127 221.232 226.12 221.232 226.113 221.232Z" fill="#333A43"/>
<path d="M113.467 214.422C113.111 214.422 112.821 214.134 112.818 213.777C112.816 213.419 113.104 213.127 113.462 213.125L186.83 212.632C187.185 212.625 187.481 212.918 187.483 213.276C187.486 213.634 187.197 213.926 186.839 213.929L113.472 214.422C113.47 214.422 113.469 214.422 113.467 214.422Z" fill="#333A43"/>
<path d="M167.45 221.285C167.093 221.285 166.803 220.998 166.801 220.64C166.799 220.282 167.087 219.99 167.445 219.988L177.305 219.921C177.306 219.921 177.308 219.921 177.309 219.921C177.665 219.921 177.956 220.209 177.958 220.566C177.96 220.924 177.672 221.216 177.313 221.219L167.454 221.285C167.453 221.285 167.451 221.285 167.45 221.285Z" fill="#333A43"/>
<path d="M113.983 221.645C113.626 221.645 113.336 221.357 113.334 221C113.331 220.642 113.62 220.35 113.979 220.347L149.357 220.109C149.716 220.085 150.008 220.395 150.01 220.754C150.012 221.112 149.724 221.404 149.366 221.407L113.987 221.645C113.986 221.645 113.984 221.645 113.983 221.645Z" fill="#333A43"/>
<path d="M149.877 228.631C149.521 228.631 149.231 228.343 149.229 227.987C149.226 227.628 149.515 227.336 149.873 227.334L163.14 227.244C163.141 227.244 163.143 227.244 163.144 227.244C163.501 227.244 163.791 227.532 163.793 227.889C163.796 228.247 163.507 228.539 163.149 228.542L149.882 228.631C149.88 228.631 149.879 228.631 149.877 228.631Z" fill="#333A43"/>
<path d="M114.498 228.867C114.142 228.867 113.852 228.58 113.85 228.223C113.847 227.865 114.136 227.572 114.494 227.57L134.793 227.433C134.795 227.433 134.796 227.433 134.798 227.433C135.155 227.433 135.444 227.721 135.447 228.078C135.449 228.436 135.161 228.728 134.803 228.731L114.503 228.867C114.501 228.867 114.5 228.867 114.498 228.867Z" fill="#333A43"/>
<path d="M163.107 131.683L30.7713 132.613C27.5637 132.635 24.6711 129.993 24.3107 126.715L20.5274 92.2839C20.1666 89.006 22.4749 86.3292 25.6829 86.3033L158.018 85.3778C161.226 85.3562 164.118 87.9941 164.479 91.2763L168.262 125.707C168.622 128.985 166.314 131.662 163.107 131.683Z" fill="white"/>
<path d="M163.106 131.683H163.11H163.106ZM158.057 86.0264C158.045 86.0264 158.034 86.0264 158.021 86.0264L25.6861 86.9518C24.3521 86.9605 23.1508 87.4924 22.3034 88.4438C21.4157 89.4427 21.0134 90.7789 21.1713 92.2146L24.9546 126.645C25.2795 129.599 27.8992 131.986 30.7659 131.964L163.101 131.035C164.435 131.026 165.637 130.498 166.484 129.547C167.372 128.548 167.774 127.208 167.616 125.776L163.832 91.3454C163.509 88.4048 160.922 86.0264 158.057 86.0264ZM30.7305 133.262C27.2222 133.262 24.0579 130.364 23.6647 126.784L19.8813 92.3573C19.6832 90.5497 20.1989 88.8546 21.334 87.5832C22.4288 86.3507 23.971 85.6675 25.6771 85.6545L158.012 84.7291C158.027 84.7291 158.042 84.7291 158.057 84.7291C161.565 84.7291 164.729 87.6221 165.123 91.2027L168.906 125.634C169.104 127.437 168.589 129.132 167.453 130.408C166.359 131.636 164.816 132.323 163.11 132.332L30.775 133.262C30.7603 133.262 30.7452 133.262 30.7305 133.262Z" fill="#333A43"/>
<path d="M36.6411 102.512C36.2851 102.512 35.9948 102.222 35.9922 101.867C35.99 101.508 36.2786 101.214 36.6367 101.214L109.983 100.7C109.985 100.7 109.986 100.7 109.988 100.7C110.344 100.7 110.634 100.985 110.636 101.344C110.639 101.703 110.35 101.993 109.992 101.997L36.6458 102.512C36.6441 102.512 36.6428 102.512 36.6411 102.512Z" fill="#333A43"/>
<path d="M99.8696 109.609C99.5131 109.609 99.2233 109.32 99.2207 108.965C99.2181 108.606 99.5067 108.312 99.8648 108.312L105.337 108.273C105.339 108.273 105.34 108.273 105.342 108.273C105.698 108.273 105.988 108.559 105.991 108.917C105.993 109.272 105.705 109.566 105.346 109.57L99.8744 109.609C99.8726 109.609 99.8709 109.609 99.8696 109.609Z" fill="#333A43"/>
<path d="M67.6899 109.834C67.3335 109.834 67.0436 109.544 67.041 109.19C67.0384 108.831 67.327 108.537 67.6852 108.537L94.3909 108.346C94.3926 108.346 94.3939 108.346 94.3957 108.346C94.7517 108.346 95.0419 108.636 95.0445 108.991C95.0467 109.35 94.7582 109.644 94.4 109.644L67.6947 109.834C67.6929 109.834 67.6916 109.834 67.6899 109.834Z" fill="#333A43"/>
<path d="M37.4692 110.045C37.1128 110.045 36.8229 109.755 36.8203 109.401C36.8177 109.042 37.1063 108.748 37.4644 108.748L47.6115 108.674C47.6132 108.674 47.6149 108.674 47.6162 108.674C47.9727 108.674 48.2625 108.964 48.2651 109.318C48.2677 109.677 47.9792 109.971 47.621 109.971L37.474 110.045C37.4722 110.045 37.4705 110.045 37.4692 110.045Z" fill="#333A43"/>
<path d="M80.2954 117.283C79.9389 117.283 79.6491 116.993 79.6465 116.639C79.6439 116.28 79.9324 115.986 80.2906 115.986L96.6707 115.869C96.6724 115.869 96.6742 115.869 96.6755 115.869C97.0319 115.869 97.3217 116.159 97.3243 116.513C97.3269 116.872 97.0384 117.166 96.6802 117.166L80.3001 117.283C80.2984 117.283 80.2967 117.283 80.2954 117.283Z" fill="#333A43"/>
<path d="M38.2934 117.578C37.937 117.578 37.6467 117.288 37.6445 116.934C37.642 116.575 37.9305 116.281 38.2887 116.281L61.481 116.116C61.4823 116.116 61.484 116.116 61.4853 116.116C61.8418 116.116 62.1316 116.406 62.1342 116.761C62.1368 117.12 61.8483 117.414 61.4901 117.414L38.2977 117.578C38.296 117.578 38.2947 117.578 38.2934 117.578Z" fill="#333A43"/>
<path d="M155.759 108.567C156.716 117.272 150.59 124.377 142.078 124.433C133.565 124.494 125.889 117.488 124.932 108.783C123.976 100.078 130.101 92.9733 138.614 92.9128C147.126 92.8565 154.802 99.862 155.759 108.567Z" fill="#FFF4E9"/>
<path d="M142.78 106.198L142.102 100.023L136.681 100.062L137.36 106.233C134.892 107.344 133.356 109.96 133.69 112.996C134.132 117.018 137.677 120.257 141.61 120.226C145.542 120.2 148.371 116.918 147.929 112.897C147.595 109.861 145.487 107.271 142.78 106.198Z" fill="white"/>
<path d="M137.405 100.704L138.005 106.161C138.036 106.443 137.883 106.711 137.626 106.823C135.333 107.852 134.042 110.248 134.336 112.925C134.74 116.605 137.976 119.576 141.561 119.576C141.576 119.576 141.59 119.576 141.606 119.576C143.283 119.567 144.795 118.901 145.861 117.703C146.977 116.449 147.483 114.767 147.285 112.968C146.986 110.244 145.124 107.822 142.542 106.797C142.319 106.711 142.162 106.503 142.136 106.265L141.521 100.674L137.405 100.704ZM141.562 120.873C137.333 120.873 133.52 117.383 133.046 113.068C132.707 109.989 134.119 107.208 136.666 105.85L136.037 100.129C136.017 99.9473 136.075 99.7657 136.197 99.6273C136.319 99.4933 136.494 99.4111 136.677 99.4111L142.098 99.3722C142.1 99.3722 142.101 99.3722 142.103 99.3722C142.433 99.3722 142.711 99.623 142.748 99.9517L143.384 105.746C146.217 107.022 148.238 109.759 148.575 112.825C148.813 114.996 148.194 117.033 146.83 118.564C145.517 120.038 143.664 120.86 141.615 120.873C141.597 120.873 141.579 120.873 141.562 120.873Z" fill="#333A43"/>
<path d="M142.886 101.177L136.159 101.225C135.591 101.229 135.08 100.762 135.016 100.182L134.938 99.4689C134.875 98.8894 135.282 98.4137 135.85 98.4094L142.577 98.3661C143.144 98.3618 143.656 98.8289 143.72 99.4083L143.798 100.122C143.861 100.701 143.453 101.173 142.886 101.177Z" fill="white"/>
<path d="M142.582 99.0146C142.581 99.0146 142.581 99.0146 142.58 99.0146L135.853 99.0578C135.769 99.0622 135.698 99.0881 135.65 99.1443C135.595 99.2049 135.571 99.2957 135.581 99.3951L135.66 100.109C135.687 100.359 135.927 100.571 136.152 100.576L142.88 100.528C142.88 100.528 142.88 100.528 142.88 100.528C142.964 100.528 143.034 100.498 143.082 100.442C143.138 100.381 143.162 100.29 143.151 100.191L143.072 99.4773C143.045 99.2308 142.817 99.0146 142.582 99.0146ZM136.149 101.873C135.25 101.873 134.47 101.164 134.37 100.251L134.291 99.5379C134.24 99.0752 134.382 98.6168 134.68 98.2795C134.976 97.9508 135.389 97.7649 135.844 97.7605L142.571 97.7173C143.465 97.6957 144.262 98.4222 144.363 99.3346L144.441 100.048C144.492 100.515 144.35 100.974 144.052 101.307C143.756 101.64 143.344 101.821 142.889 101.825L136.162 101.873C136.158 101.873 136.153 101.873 136.149 101.873Z" fill="#333A43"/>
<path d="M135.178 112.045L146.139 111.971L135.178 112.045Z" fill="white"/>
<path d="M135.172 112.693C134.816 112.693 134.526 112.408 134.523 112.049C134.521 111.694 134.809 111.4 135.168 111.396L146.129 111.323C146.131 111.323 146.133 111.323 146.134 111.323C146.49 111.323 146.78 111.608 146.783 111.967C146.785 112.326 146.497 112.616 146.139 112.62L135.177 112.693C135.175 112.693 135.174 112.693 135.172 112.693Z" fill="#333A43"/>
<path d="M286.948 184.291L154.613 185.219C151.406 185.241 148.513 182.601 148.153 179.321L144.369 144.89C144.009 141.61 146.317 138.933 149.525 138.91L281.86 137.982C285.068 137.96 287.96 140.601 288.32 143.881L292.104 178.311C292.465 181.591 290.156 184.268 286.948 184.291Z" fill="#FEC99E"/>
<path d="M160.479 155.115C160.123 155.115 159.833 154.828 159.83 154.471C159.828 154.113 160.116 153.821 160.474 153.818L233.82 153.304C233.822 153.304 233.824 153.304 233.825 153.304C234.182 153.304 234.471 153.591 234.474 153.948C234.477 154.306 234.188 154.598 233.83 154.601L160.484 155.115C160.482 155.115 160.48 155.115 160.479 155.115Z" fill="white"/>
<path d="M223.709 162.211C223.353 162.211 223.063 161.923 223.061 161.567C223.058 161.209 223.347 160.916 223.705 160.914L229.177 160.875C229.179 160.875 229.18 160.875 229.181 160.875C229.538 160.875 229.827 161.163 229.83 161.519C229.833 161.878 229.544 162.17 229.186 162.172L223.714 162.211C223.712 162.211 223.711 162.211 223.709 162.211Z" fill="white"/>
<path d="M191.532 162.436C191.175 162.436 190.885 162.148 190.883 161.791C190.88 161.433 191.169 161.141 191.527 161.138L218.232 160.951C218.234 160.951 218.236 160.951 218.237 160.951C218.593 160.951 218.883 161.238 218.886 161.594C218.889 161.953 218.6 162.245 218.242 162.248L191.536 162.436C191.535 162.436 191.533 162.436 191.532 162.436Z" fill="white"/>
<path d="M161.307 162.648C160.951 162.648 160.661 162.361 160.658 162.005C160.656 161.646 160.944 161.354 161.303 161.351L171.449 161.28C171.451 161.28 171.452 161.28 171.454 161.28C171.81 161.28 172.1 161.568 172.103 161.924C172.106 162.283 171.817 162.575 171.458 162.578L161.311 162.648C161.31 162.648 161.309 162.648 161.307 162.648Z" fill="white"/>
<path d="M204.137 169.887C203.781 169.887 203.491 169.599 203.488 169.243C203.486 168.884 203.774 168.592 204.132 168.589L220.512 168.475C220.514 168.475 220.516 168.475 220.517 168.475C220.873 168.475 221.164 168.762 221.166 169.119C221.169 169.477 220.88 169.77 220.522 169.772L204.142 169.887C204.14 169.887 204.138 169.887 204.137 169.887Z" fill="white"/>
<path d="M162.135 170.182C161.779 170.182 161.489 169.894 161.486 169.538C161.484 169.179 161.772 168.887 162.13 168.884L185.323 168.722C185.325 168.722 185.326 168.722 185.327 168.722C185.684 168.722 185.974 169.009 185.976 169.366C185.979 169.724 185.69 170.016 185.332 170.019L162.14 170.182C162.138 170.182 162.137 170.182 162.135 170.182Z" fill="white"/>
<path d="M279.597 161.17C280.554 169.874 274.428 176.979 265.916 177.039C257.403 177.098 249.727 170.09 248.77 161.386C247.814 152.682 253.939 145.577 262.452 145.518C270.964 145.458 278.64 152.466 279.597 161.17Z" fill="#FFF4E9"/>
<path d="M281.902 138.629C281.889 138.629 281.878 138.629 281.866 138.629L149.53 139.557C148.196 139.567 146.995 140.096 146.148 141.048C145.26 142.045 144.858 143.384 145.015 144.817L148.799 179.248C149.122 182.189 151.708 184.568 154.574 184.568C154.586 184.568 154.598 184.568 154.61 184.568L286.945 183.64C288.279 183.63 289.481 183.102 290.328 182.15C291.215 181.152 291.617 179.814 291.46 178.38L287.676 143.95C287.353 141.008 284.767 138.629 281.902 138.629ZM154.575 185.865C151.066 185.865 147.902 182.97 147.508 179.389L143.725 144.959C143.527 143.156 144.043 141.46 145.178 140.185C146.273 138.956 147.815 138.272 149.521 138.26L281.857 137.332C281.871 137.332 281.886 137.332 281.901 137.332C285.409 137.332 288.573 140.227 288.967 143.808L292.75 178.238C292.948 180.042 292.432 181.737 291.297 183.012C290.203 184.241 288.661 184.926 286.954 184.937L154.619 185.865C154.604 185.865 154.589 185.865 154.575 185.865Z" fill="white"/>
<path d="M331.458 105.982L199.121 106.912C195.914 106.934 193.021 104.296 192.66 101.013L188.877 66.5827C188.517 63.3048 190.825 60.628 194.032 60.6021L326.368 59.6766C329.577 59.655 332.466 62.2929 332.83 65.5751L336.61 100.006C336.974 103.284 334.664 105.961 331.458 105.982Z" fill="white"/>
<path d="M204.985 76.8086C204.629 76.8086 204.339 76.5189 204.336 76.1643C204.334 75.8054 204.622 75.5113 204.981 75.5113L278.326 74.9967C278.328 74.9967 278.33 74.9967 278.331 74.9967C278.687 74.9967 278.977 75.2821 278.98 75.641C278.982 75.9999 278.694 76.2897 278.336 76.294L204.99 76.8086C204.988 76.8086 204.987 76.8086 204.985 76.8086Z" fill="#333A43"/>
<path d="M268.213 83.9043C267.857 83.9043 267.567 83.6145 267.564 83.2599C267.562 82.901 267.85 82.607 268.209 82.607L273.68 82.568C273.682 82.568 273.684 82.568 273.685 82.568C274.041 82.568 274.331 82.8535 274.334 83.2124C274.336 83.567 274.048 83.861 273.69 83.8654L268.218 83.9043C268.216 83.9043 268.215 83.9043 268.213 83.9043Z" fill="#333A43"/>
<path d="M236.034 84.1309C235.677 84.1309 235.387 83.8412 235.385 83.4866C235.382 83.1276 235.671 82.8335 236.029 82.8335L262.734 82.6433C262.736 82.6433 262.738 82.6433 262.739 82.6433C263.095 82.6433 263.385 82.933 263.388 83.2876C263.39 83.6465 263.102 83.9406 262.744 83.9406L236.038 84.1309C236.036 84.1309 236.035 84.1309 236.034 84.1309Z" fill="#333A43"/>
<path d="M205.809 84.3418C205.453 84.3418 205.163 84.052 205.16 83.6974C205.158 83.3385 205.446 83.0445 205.804 83.0445L215.951 82.971C215.953 82.971 215.954 82.971 215.956 82.971C216.312 82.971 216.602 83.2607 216.605 83.6153C216.607 83.9742 216.319 84.2683 215.96 84.2683L205.814 84.3418C205.812 84.3418 205.81 84.3418 205.809 84.3418Z" fill="#333A43"/>
<path d="M248.639 91.5801C248.283 91.5801 247.993 91.2903 247.99 90.9357C247.988 90.5768 248.276 90.2828 248.634 90.2828L265.014 90.166C265.016 90.166 265.017 90.166 265.019 90.166C265.375 90.166 265.665 90.4557 265.668 90.8103C265.67 91.1692 265.382 91.4633 265.024 91.4633L248.644 91.5801C248.642 91.5801 248.64 91.5801 248.639 91.5801Z" fill="#333A43"/>
<path d="M206.641 91.875C206.285 91.875 205.994 91.5852 205.992 91.2306C205.99 90.8717 206.278 90.5777 206.636 90.5777L229.829 90.4134C229.83 90.4134 229.832 90.4134 229.833 90.4134C230.189 90.4134 230.479 90.7031 230.482 91.0577C230.484 91.4166 230.196 91.7107 229.838 91.7107L206.645 91.875C206.644 91.875 206.642 91.875 206.641 91.875Z" fill="#333A43"/>
<path d="M324.103 82.8639C325.06 91.5689 318.934 98.6739 310.421 98.7301C301.909 98.7906 294.233 91.7851 293.276 83.0801C292.32 74.3751 298.445 67.2701 306.957 67.2096C315.47 67.1534 323.146 74.1589 324.103 82.8639Z" fill="#FFF4E9"/>
<path d="M302.214 81.0676H304.498L302.811 77.474L302.214 81.0676ZM305.402 82.9963H301.891L301.569 84.9336H298.832L301.168 74.568H303.577L309.065 84.9336H306.314L305.402 82.9963Z" fill="#FB9946"/>
<path d="M310.442 82.8754C310.797 82.8754 311.107 82.9793 311.374 83.1825C311.64 83.3901 311.797 83.6538 311.845 83.9739C311.894 84.2939 311.816 84.5577 311.611 84.7609C311.407 84.9685 311.127 85.0723 310.772 85.0723C310.413 85.0723 310.101 84.9685 309.837 84.7609C309.572 84.5533 309.417 84.2895 309.369 83.9739C309.322 83.6582 309.398 83.3944 309.6 83.1868C309.802 82.9792 310.082 82.8754 310.442 82.8754Z" fill="#FB9946"/>
<path d="M313.485 82.8754C313.84 82.8754 314.151 82.9793 314.417 83.1825C314.683 83.3901 314.84 83.6538 314.888 83.9739C314.937 84.2939 314.859 84.5577 314.654 84.7609C314.45 84.9685 314.171 85.0723 313.816 85.0723C313.456 85.0723 313.144 84.9685 312.88 84.7609C312.616 84.5533 312.459 84.2895 312.412 83.9739C312.364 83.6582 312.441 83.3944 312.643 83.1868C312.845 82.9792 313.126 82.8754 313.485 82.8754Z" fill="#FB9946"/>
<path d="M316.534 82.8754C316.889 82.8754 317.199 82.9793 317.466 83.1825C317.732 83.3901 317.889 83.6538 317.937 83.9739C317.985 84.2939 317.908 84.5577 317.703 84.7609C317.499 84.9685 317.219 85.0723 316.864 85.0723C316.505 85.0723 316.193 84.9685 315.929 84.7609C315.664 84.5533 315.508 84.2895 315.461 83.9739C315.413 83.6582 315.49 83.3944 315.692 83.1868C315.894 82.9792 316.174 82.8754 316.534 82.8754Z" fill="#FB9946"/>
<path d="M314.944 90.163H317.514L317.714 91.4863H312.923L312.778 90.5306L314.796 87.3046H312.402L312.203 85.9857H316.827L316.967 86.9111L314.944 90.163Z" fill="#FB9946"/>
<path d="M199.077 107.559C195.568 107.559 192.404 104.661 192.01 101.081L188.227 66.6542C188.029 64.8509 188.545 63.1557 189.68 61.88C190.775 60.6476 192.317 59.9643 194.023 59.9514L326.358 59.0259C326.373 59.0259 326.388 59.0259 326.403 59.0259C329.909 59.0259 333.076 61.9189 333.469 65.4995L337.25 99.9304C337.449 101.734 336.934 103.429 335.801 104.704C334.706 105.937 333.162 106.62 331.458 106.629L220.146 107.412C220.144 107.412 220.142 107.412 220.141 107.412C219.785 107.412 219.495 107.122 219.492 106.767C219.49 106.408 219.778 106.119 220.136 106.114L331.449 105.332C332.781 105.323 333.984 104.795 334.828 103.844C335.719 102.845 336.121 101.509 335.961 100.073L332.18 65.6422C331.856 62.7017 329.269 60.3232 326.404 60.3232C326.391 60.3232 326.38 60.3232 326.367 60.3232L194.032 61.2487C192.698 61.2617 191.497 61.7892 190.649 62.7406C189.762 63.7395 189.36 65.0758 189.517 66.5115L193.301 100.942C193.625 103.896 196.232 106.3 199.112 106.261L206.436 106.209C206.437 106.209 206.439 106.209 206.44 106.209C206.796 106.209 207.087 106.499 207.089 106.854C207.091 107.213 206.803 107.507 206.445 107.507L199.121 107.559C199.106 107.559 199.091 107.559 199.077 107.559Z" fill="#333A43"/>
<path d="M309.032 313.037C309.296 313.449 319.395 327.885 319.395 327.885C319.395 327.885 319.14 331.562 316.523 332.279L304.514 319.288L309.032 313.037Z" fill="white"/>
<path d="M305.351 319.237L316.71 331.525C318.232 330.836 318.633 328.739 318.725 328.056C317.629 326.49 310.974 316.977 309.02 314.162L305.351 319.237ZM316.524 332.928C316.345 332.928 316.172 332.854 316.047 332.719L304.038 319.727C303.828 319.501 303.807 319.158 303.988 318.907L308.507 312.657C308.632 312.483 308.836 312.385 309.05 312.389C309.264 312.395 309.463 312.506 309.578 312.687C309.801 313.031 316.445 322.535 319.927 327.513C320.013 327.634 320.053 327.781 320.043 327.929C320.031 328.098 319.721 332.076 316.695 332.904C316.639 332.92 316.581 332.928 316.524 332.928Z" fill="#333A43"/>
<path d="M324.897 330.423C324.897 330.423 324.037 341.82 319.002 347.818C313.968 353.816 305.887 351.9 305.887 351.9C305.887 351.9 305.274 346.826 306.322 345.507C307.37 344.188 313.165 337.138 313.149 330.798L316.227 326.607L318.044 328.959L318.821 325.118L324.897 330.423Z" fill="white"/>
<path d="M306.479 351.35C308.188 351.624 314.449 352.234 318.505 347.401C322.882 342.185 324.034 332.565 324.22 330.693L319.235 326.341L318.679 329.088C318.629 329.336 318.438 329.533 318.191 329.591C317.943 329.648 317.685 329.556 317.53 329.355L316.24 327.685L313.796 331.013C313.745 333.944 312.483 338.831 306.941 345.77L306.83 345.91C306.27 346.615 306.284 349.363 306.479 351.35ZM308.956 352.852C307.141 352.852 305.869 352.562 305.737 352.531C305.472 352.468 305.275 352.247 305.242 351.977C305.134 351.085 304.656 346.56 305.814 345.103L305.927 344.961C311.372 338.143 312.506 333.496 312.5 330.8C312.5 330.661 312.544 330.526 312.626 330.414L315.704 326.223C315.824 326.059 316.015 325.961 316.219 325.958C316.417 325.948 316.616 326.049 316.74 326.21L317.689 327.439L318.185 324.989C318.231 324.763 318.394 324.578 318.613 324.503C318.832 324.43 319.073 324.477 319.248 324.629L325.324 329.934C325.478 330.068 325.559 330.267 325.544 330.471C325.508 330.945 324.609 342.146 319.499 348.235C316.263 352.09 311.897 352.852 308.956 352.852Z" fill="#333A43"/>
<path d="M322.866 330.86C322.866 330.86 321.56 349.796 307.502 349.388L322.866 330.86Z" fill="white"/>
<path d="M307.948 350.043C307.794 350.043 307.64 350.041 307.484 350.036C307.125 350.026 306.843 349.727 306.854 349.369C306.864 349.011 307.183 348.722 307.521 348.74C307.661 348.743 307.8 348.746 307.937 348.746C320.833 348.746 322.207 330.997 322.219 330.815C322.244 330.458 322.555 330.188 322.911 330.213C323.268 330.238 323.538 330.547 323.514 330.905C323.5 331.098 322.028 350.043 307.948 350.043Z" fill="#333A43"/>
<path d="M286.424 212.271C286.424 212.271 274.539 247.226 274.481 270.245C274.422 293.265 306.997 323.791 306.997 323.791L313.727 317.956C313.727 317.956 301.741 305.256 299.448 288.071C297.155 270.885 304.12 238.438 304.12 238.438L306.719 215.521L286.424 212.271Z" fill="#FB9946"/>
<path d="M303.94 325.426C303.999 326.044 303.36 334.695 300.676 340.128C300.676 340.128 301.916 344.114 305.711 343.398C305.711 343.398 311.54 332.302 312.764 325.119L303.94 325.426Z" fill="white"/>
<path d="M301.376 340.162C301.672 340.895 302.778 343.097 305.282 342.806C306.161 341.091 310.653 332.135 311.971 325.794L304.571 326.052C304.448 328.342 303.643 335.386 301.376 340.162ZM304.827 344.131C302.017 344.131 300.491 341.73 300.053 340.319C300.003 340.16 300.017 339.989 300.091 339.839C302.734 334.488 303.322 325.956 303.291 325.482C303.279 325.307 303.338 325.128 303.456 324.997C303.573 324.867 303.739 324.783 303.914 324.777L312.737 324.469C312.937 324.464 313.12 324.544 313.248 324.691C313.377 324.838 313.432 325.034 313.399 325.226C312.173 332.428 306.521 343.242 306.281 343.698C306.189 343.874 306.022 343.997 305.827 344.034C305.477 344.1 305.144 344.131 304.827 344.131Z" fill="#333A43"/>
<path d="M307.823 339.247C307.823 339.247 308.791 350.596 307.364 353.812C307.364 353.812 296.561 359.365 284.02 359.352C283.13 359.347 282.4 358.629 282.408 357.739C282.426 355.594 282.991 351.673 286.422 348.57C291.409 344.057 302.115 336.649 302.115 336.649L304.276 339.263L303.37 343.398L307.823 339.247Z" fill="white"/>
<path d="M301.996 337.523C299.846 339.027 291.153 345.165 286.857 349.051C283.59 352.006 283.074 355.766 283.058 357.743C283.055 357.993 283.152 358.231 283.331 358.413C283.527 358.612 283.795 358.698 284.071 358.703C295.342 358.703 305.293 354.097 306.855 353.336C307.739 350.929 307.519 344.286 307.277 340.643L303.813 343.872C303.606 344.066 303.296 344.102 303.049 343.961C302.803 343.821 302.676 343.536 302.737 343.259L303.574 339.433L301.996 337.523ZM284.071 360C283.451 360 282.85 359.771 282.41 359.325C281.985 358.897 281.755 358.331 281.76 357.734C281.778 355.542 282.352 351.377 285.987 348.088C290.948 343.6 301.639 336.19 301.747 336.116C302.024 335.924 302.402 335.976 302.616 336.236L304.776 338.85C304.903 339.003 304.952 339.207 304.91 339.401L304.449 341.506L307.381 338.773C307.563 338.604 307.825 338.553 308.057 338.642C308.288 338.731 308.449 338.945 308.47 339.192C308.51 339.662 309.435 350.745 307.957 354.071C307.897 354.21 307.793 354.318 307.661 354.387C307.552 354.443 296.602 360 284.071 360Z" fill="#333A43"/>
<path d="M306.525 350.455C306.525 350.455 296.251 356.939 283.959 356.199L306.525 350.455Z" fill="white"/>
<path d="M285.963 356.908C285.289 356.908 284.609 356.887 283.92 356.848C283.563 356.826 283.29 356.515 283.312 356.16C283.333 355.801 283.639 355.529 283.999 355.55C295.942 356.268 306.078 349.97 306.178 349.906C306.482 349.716 306.882 349.805 307.073 350.108C307.265 350.411 307.175 350.812 306.871 351.003C306.469 351.257 297.38 356.908 285.963 356.908Z" fill="#333A43"/>
<path d="M322.889 212.271C322.889 212.271 330.414 262.719 312.765 329.41L302.119 327.884C302.119 327.884 307.863 269.584 294.105 238.763L291.041 210.905L322.889 212.271Z" fill="#FB9946"/>
<path d="M300.777 269.703C300.776 269.703 300.774 269.703 300.773 269.703C300.415 269.701 300.126 269.409 300.128 269.051C300.172 261.49 298.036 247.057 294.994 242.611C294.792 242.316 294.867 241.912 295.164 241.71C295.46 241.508 295.864 241.583 296.066 241.879C299.355 246.687 301.47 261.422 301.426 269.058C301.424 269.415 301.134 269.703 300.777 269.703Z" fill="#333A43"/>
<path d="M302.869 313.686C302.857 313.686 302.844 313.685 302.832 313.685C302.474 313.664 302.201 313.358 302.22 313.001C302.613 305.973 301.48 294.364 301.468 294.247C301.433 293.891 301.693 293.574 302.05 293.538C302.409 293.501 302.724 293.764 302.759 294.12C302.77 294.237 303.914 305.945 303.516 313.073C303.497 313.418 303.21 313.686 302.869 313.686Z" fill="#333A43"/>
<path d="M319.473 134.863C320.898 137.724 318.873 138.734 319.862 144.293C320.588 148.376 322.056 149.938 321.082 151.97C320.204 153.801 318.09 154.46 316.693 154.895C310.355 156.87 304.247 153.657 300.497 151.685C297.462 150.089 293.302 147.901 293.582 145.683C293.858 143.492 298.147 143.797 300.164 140.126C301.787 137.172 299.922 135.317 301.63 132.822C303.84 129.587 308.992 129.721 309.819 129.743C313.134 129.829 317.718 131.338 319.473 134.863Z" fill="#333A43"/>
<path d="M284.051 151.783L300.721 155.955C301.024 156.022 301.33 155.851 301.434 155.559C302.567 152.366 300.801 148.793 300.291 147.866C300.211 147.72 300.073 147.616 299.912 147.572C299.085 147.35 298.34 147.056 297.669 146.701C296.843 146.263 296.504 145.25 296.881 144.394C297.489 143.014 298.153 141.154 298.528 140.392C298.619 140.207 298.616 139.984 298.501 139.814C298.217 139.393 297.774 139.072 297.828 138.441C297.848 138.201 298.013 137.99 298.244 137.922C300.336 137.303 301.957 134.163 303.355 133.207C304.019 132.753 304.472 132.627 305.22 132.221C305.346 132.152 305.495 132.121 305.636 132.152C309.193 132.926 303.74 137.338 308.402 139.929C308.635 140.058 308.774 140.32 308.72 140.58C308.641 140.966 308.657 141.484 308.705 141.96C308.705 141.965 308.706 141.97 308.706 141.975C308.754 142.455 309.322 142.689 309.696 142.385C310.401 141.811 311.123 141.645 311.548 141.893C312.151 142.246 312.113 143.412 311.899 144.111C311.474 145.502 310.021 146.144 309.194 146.403C308.877 146.503 308.699 146.833 308.791 147.152C309.342 149.065 311.011 155.05 311.138 157.768C311.151 158.047 311.345 158.282 311.618 158.342L314.8 159.039C319.589 160.088 325.274 162.984 328.936 166.241L333.668 170.206C334.036 170.532 335.693 171.513 335.351 171.864C325.443 181.934 305.992 175.635 298.79 172.442C291.806 169.347 284.847 154.896 282.276 157.781C280.585 159.677 283.58 151.68 284.051 151.783Z" fill="white"/>
<path d="M283.074 156.752C283.089 156.752 283.104 156.752 283.118 156.752C284.819 156.794 286.815 159.271 289.577 162.698C292.342 166.129 295.783 170.398 299.055 171.848C301.555 172.956 323.608 182.282 334.587 171.707C334.341 171.494 333.956 171.219 333.757 171.079C333.532 170.92 333.354 170.794 333.238 170.689L328.523 166.737C324.92 163.534 319.355 160.699 314.662 159.671L311.481 158.974C310.926 158.853 310.519 158.368 310.492 157.797C310.367 155.134 308.683 149.113 308.169 147.33C307.978 146.669 308.344 145.989 309.001 145.783C309.707 145.562 310.942 145.026 311.28 143.92C311.482 143.26 311.388 142.549 311.222 142.452C311.105 142.384 310.657 142.44 310.108 142.887C309.748 143.178 309.258 143.249 308.83 143.071C308.402 142.893 308.108 142.497 308.062 142.038C307.998 141.396 308.004 140.88 308.078 140.489C305.133 138.844 305.692 136.427 306.062 134.827C306.226 134.113 306.382 133.439 306.189 133.136C306.091 132.98 305.859 132.864 305.5 132.786C305.23 132.954 304.974 133.076 304.733 133.188C304.372 133.357 304.087 133.491 303.723 133.737C303.263 134.053 302.718 134.715 302.14 135.411C301.106 136.66 299.935 138.075 298.474 138.529C298.47 138.708 298.556 138.831 298.78 139.107C298.871 139.219 298.961 139.332 299.041 139.45C299.281 139.807 299.309 140.277 299.112 140.677C298.928 141.05 298.653 141.749 298.361 142.489C298.085 143.188 297.773 143.981 297.477 144.654C297.234 145.203 297.453 145.85 297.975 146.127C298.614 146.465 299.324 146.741 300.082 146.945C300.419 147.036 300.696 147.251 300.862 147.553C301.446 148.616 303.262 152.352 302.047 155.774C301.835 156.374 301.207 156.724 300.584 156.587L284.273 152.505C283.841 153.265 282.987 155.464 282.605 156.818C282.755 156.774 282.912 156.752 283.074 156.752ZM320.108 177.98C310.126 177.981 300.183 173.768 298.529 173.034C294.969 171.456 291.568 167.236 288.567 163.512C286.413 160.84 284.185 158.077 283.086 158.049C282.994 158.052 282.892 158.065 282.762 158.21C282.312 158.716 281.886 158.85 281.497 158.607C281.168 158.402 280.555 158.02 282.376 153.542C283.261 151.366 283.621 151.022 284.191 151.148C284.198 151.149 284.204 151.151 284.21 151.152L300.834 155.313C301.847 152.406 300.242 149.118 299.724 148.177C298.893 147.968 298.093 147.657 297.367 147.273C296.248 146.68 295.774 145.3 296.289 144.131C296.575 143.481 296.882 142.701 297.154 142.013C297.462 141.232 297.728 140.555 297.934 140.132C297.883 140.061 297.827 139.993 297.773 139.925C297.497 139.587 297.12 139.123 297.183 138.384C297.226 137.878 297.578 137.441 298.06 137.298C299.163 136.972 300.214 135.705 301.14 134.585C301.778 133.815 302.38 133.084 302.99 132.669C303.441 132.362 303.801 132.193 304.182 132.012C304.401 131.912 304.635 131.8 304.911 131.649C305.182 131.501 305.489 131.454 305.775 131.519C306.496 131.674 306.99 131.977 307.285 132.44C307.769 133.201 307.554 134.131 307.326 135.117C306.961 136.699 306.616 138.191 308.719 139.36C309.204 139.63 309.466 140.185 309.357 140.71C309.32 140.89 309.289 141.234 309.348 141.857C310.212 141.137 311.195 140.933 311.877 141.332C312.843 141.897 312.791 143.416 312.521 144.299C312.016 145.952 310.383 146.704 309.427 147.009C310.104 149.36 311.661 155.024 311.788 157.736L314.94 158.404C319.832 159.475 325.631 162.43 329.37 165.755L334.085 169.707C334.168 169.777 334.341 169.902 334.509 170.022C335.431 170.676 335.993 171.114 336.045 171.675C336.067 171.917 335.985 172.145 335.811 172.317C331.62 176.582 325.855 177.98 320.108 177.98Z" fill="#333A43"/>
<path d="M305.124 147.749C305.124 147.749 302.901 148.65 300.348 147.691L305.124 147.749Z" fill="white"/>
<path d="M302.811 148.783C302.016 148.783 301.091 148.663 300.12 148.298C299.784 148.172 299.615 147.798 299.741 147.463C299.867 147.127 300.241 146.958 300.576 147.084C302.866 147.945 304.861 147.156 304.88 147.149C305.211 147.014 305.591 147.174 305.726 147.505C305.86 147.838 305.7 148.216 305.368 148.351C305.303 148.377 304.277 148.783 302.811 148.783Z" fill="#333A43"/>
<path d="M317.011 133.385C317.011 133.385 318.084 126.889 323.238 128.649C328.392 130.405 323.394 135.75 319.499 136.161C315.604 136.57 317.011 133.385 317.011 133.385Z" fill="#333A43"/>
<path d="M218.553 108.814L212.185 102.651C211.743 102.223 211.058 102.176 210.559 102.535C209.992 102.941 209.86 103.728 210.262 104.299L212.281 107.157L210.656 111.17C210.156 112.411 210.48 113.825 211.469 114.721L214.084 117.09C215.392 118.275 217.295 118.539 218.876 117.752L219.94 117.224C221.579 116.407 222.519 114.643 222.281 112.827L222 110.69C221.825 109.345 220.556 108.433 219.228 108.684L218.553 108.814Z" fill="white"/>
<path d="M211.299 102.942C211.172 102.942 211.046 102.981 210.936 103.058C210.66 103.257 210.594 103.647 210.79 103.923L212.809 106.782C212.936 106.963 212.964 107.197 212.881 107.4L211.256 111.418C210.859 112.395 211.119 113.532 211.903 114.241L214.518 116.611C215.637 117.623 217.234 117.844 218.586 117.173L219.65 116.641C221.04 115.95 221.838 114.453 221.636 112.914L221.356 110.773C221.294 110.302 221.049 109.891 220.665 109.614C220.281 109.338 219.812 109.234 219.348 109.325L218.673 109.454C218.465 109.493 218.252 109.428 218.1 109.281L211.732 103.119C211.612 103.002 211.456 102.942 211.299 102.942ZM216.954 118.855C215.759 118.855 214.58 118.419 213.646 117.571L211.031 115.201C209.847 114.129 209.453 112.412 210.053 110.929L211.545 107.244L209.73 104.671C209.125 103.815 209.326 102.617 210.179 102.008C210.933 101.463 211.966 101.541 212.635 102.185L218.76 108.114L219.104 108.049C219.924 107.893 220.748 108.075 221.425 108.563C222.102 109.052 222.534 109.779 222.642 110.605L222.923 112.745C223.196 114.834 222.113 116.866 220.228 117.805L219.164 118.332C218.458 118.687 217.703 118.855 216.954 118.855Z" fill="#333A43"/>
<path d="M218.554 108.814L216.176 110.574C216.176 110.574 216.963 112.87 218.554 111.927V108.814Z" fill="white"/>
<path d="M217.812 112.805C217.571 112.805 217.363 112.757 217.198 112.692C216.107 112.294 215.615 110.937 215.562 110.785C215.471 110.517 215.563 110.219 215.79 110.054L218.17 108.294C218.458 108.078 218.863 108.139 219.077 108.428C219.29 108.718 219.229 109.125 218.941 109.337L216.985 110.781C217.143 111.062 217.376 111.378 217.648 111.477C217.753 111.516 217.928 111.546 218.225 111.369C218.533 111.187 218.931 111.291 219.114 111.598C219.296 111.905 219.195 112.303 218.886 112.485C218.486 112.723 218.122 112.805 217.812 112.805Z" fill="#333A43"/>
<path d="M211.85 108.237L214.529 111.559L211.85 108.237Z" fill="white"/>
<path d="M214.531 112.207C214.342 112.207 214.154 112.125 214.026 111.965L211.345 108.644C211.12 108.363 211.164 107.956 211.443 107.731C211.722 107.506 212.13 107.55 212.355 107.826L215.036 111.152C215.261 111.429 215.217 111.839 214.938 112.064C214.818 112.159 214.675 112.207 214.531 112.207Z" fill="#333A43"/>
<path d="M211.033 110.846L213.192 113.467L211.033 110.846Z" fill="white"/>
<path d="M213.19 114.115C213.003 114.115 212.817 114.037 212.688 113.882L210.529 111.257C210.301 110.98 210.341 110.569 210.618 110.344C210.894 110.115 211.303 110.154 211.531 110.431L213.691 113.056C213.918 113.333 213.878 113.739 213.602 113.968C213.481 114.068 213.335 114.115 213.19 114.115Z" fill="#333A43"/>
<path d="M325.504 226.39C325.504 226.39 319.826 222.13 316.564 221.418C313.302 220.705 310.09 222.888 310.09 222.888C310.09 222.888 313.594 224.836 315.295 225.06C316.996 225.283 321.419 233.434 326.705 230.823L325.504 226.39Z" fill="white"/>
<path d="M311.45 222.87C312.676 223.49 314.423 224.289 315.38 224.415C316.122 224.513 316.876 225.297 318.017 226.485C320.081 228.634 322.869 231.537 325.931 230.446L324.938 226.776C323.961 226.062 319.199 222.656 316.426 222.05C314.508 221.629 312.577 222.325 311.45 222.87ZM324.557 231.994C321.508 231.994 318.92 229.299 317.081 227.383C316.422 226.698 315.52 225.758 315.209 225.701C313.408 225.464 309.922 223.535 309.775 223.453C309.578 223.343 309.452 223.14 309.442 222.915C309.432 222.69 309.539 222.476 309.725 222.35C309.866 222.254 313.21 220.023 316.703 220.782C320.064 221.517 325.657 225.692 325.894 225.869C326.01 225.956 326.093 226.079 326.131 226.219L327.331 230.651C327.412 230.95 327.27 231.265 326.992 231.402C326.154 231.816 325.34 231.994 324.557 231.994Z" fill="#333A43"/>
<path d="M320.487 159.976L317.731 158.917C317.731 158.917 301.061 169.585 293.824 153.43L290.002 152.333L282.279 174.213L321.107 184.555L320.487 159.976Z" fill="#FEC99E"/>
<path d="M218.262 120.213C220.957 119.366 223.651 118.522 226.346 117.675C237.696 130.882 248.803 137.666 257.229 141.443C267.604 146.094 285.464 151.36 285.464 151.36C285.464 151.36 285.434 159.82 299.414 169.478C313.394 179.135 334.802 169.539 334.802 169.539C334.802 169.539 358.52 189.785 359.891 201.95C362.176 222.157 326.983 231.857 326.983 231.857L325.502 226.39C325.502 226.39 339.664 214.867 336.593 203.182C333.521 191.498 325.608 186.324 325.608 186.324C323.249 199.816 324.264 215.522 324.264 215.522C301.011 221.439 280.947 213.82 272.088 209.459C269.071 207.974 267.386 204.699 267.905 201.378C269.856 188.881 274.756 173.106 274.756 173.106C269.382 172.828 263.591 171.793 257.708 169.51C228.974 158.355 219.762 125.831 218.262 120.213Z" fill="#333A43"/>
<path d="M297.884 209.143C297.802 209.143 297.718 209.127 297.638 209.094C279.907 201.827 277.31 181.818 277.286 181.616C277.243 181.261 277.497 180.938 277.853 180.895C278.206 180.855 278.531 181.106 278.574 181.461C278.598 181.655 281.116 200.92 298.13 207.894C298.462 208.029 298.62 208.408 298.485 208.74C298.382 208.991 298.139 209.143 297.884 209.143Z" fill="#FEC99E"/>
<path d="M7.13477 293.042C12.3508 282.311 12.8479 271.497 7.13477 260.574L11.2352 255.658L123.379 259.345L119.514 294.958L10.9601 296.209L7.13477 293.042Z" fill="#FFF4E9"/>
<path d="M7.93932 292.866L11.1906 295.558L118.932 294.316L122.66 259.971L11.531 256.317L7.90947 260.659C13.1653 270.971 13.1753 281.802 7.93932 292.866ZM10.9605 296.857C10.8091 296.857 10.6628 296.804 10.5465 296.708L6.72161 293.542C6.49104 293.351 6.42097 293.028 6.55161 292.759C11.9597 281.633 11.9623 271.203 6.56026 260.875C6.4387 260.642 6.46898 260.36 6.63682 260.158L10.7373 255.243C10.8653 255.089 11.0578 254.997 11.2572 255.01L123.401 258.697C123.582 258.703 123.751 258.784 123.87 258.92C123.988 259.056 124.045 259.236 124.025 259.416L120.16 295.028C120.124 295.355 119.85 295.603 119.522 295.607L10.9678 296.857C10.9652 296.857 10.9626 296.857 10.9605 296.857Z" fill="#333A43"/>
<path d="M213.199 251.737H5.05384C2.62101 251.737 0.648438 253.709 0.648438 256.141C0.648438 258.573 2.62101 260.545 5.05384 260.545H100.747C107.754 260.545 113.434 266.223 113.434 273.228V280.359C113.434 287.363 107.754 293.042 100.747 293.042H5.05384C2.62101 293.042 0.648438 295.014 0.648438 297.446C0.648438 299.878 2.62101 301.85 5.05384 301.85H213.199C226.119 301.85 236.593 291.379 236.593 278.463V275.124C236.593 262.208 226.119 251.737 213.199 251.737Z" fill="#FEC99E"/>
<path d="M5.05427 293.691C2.98308 293.691 1.29774 295.376 1.29774 297.446C1.29774 299.517 2.98308 301.201 5.05427 301.201H213.199C225.741 301.201 235.945 291.001 235.945 278.463V275.124C235.945 262.587 225.741 252.386 213.199 252.386H5.05427C2.98308 252.386 1.29774 254.071 1.29774 256.141C1.29774 258.212 2.98308 259.896 5.05427 259.896H100.747C108.101 259.896 114.084 265.877 114.084 273.228V280.359C114.084 287.71 108.101 293.691 100.747 293.691H5.05427ZM213.199 302.499H5.05427C2.26716 302.499 0 300.232 0 297.446C0 294.66 2.26716 292.394 5.05427 292.394H100.747C107.385 292.394 112.786 286.995 112.786 280.359V273.228C112.786 266.592 107.385 261.194 100.747 261.194H5.05427C2.26716 261.194 0 258.927 0 256.141C0 253.355 2.26716 251.089 5.05427 251.089H213.199C226.457 251.089 237.243 261.871 237.243 275.124V278.463C237.243 291.717 226.457 302.499 213.199 302.499Z" fill="#333A43"/>
<path d="M67.5603 270.637H59.3637C59.0051 270.637 58.7148 270.346 58.7148 269.988C58.7148 269.63 59.0051 269.339 59.3637 269.339H67.5603C67.9184 269.339 68.2091 269.63 68.2091 269.988C68.2091 270.346 67.9184 270.637 67.5603 270.637Z" fill="#FEC99E"/>
<path d="M55.9624 270.637H12.5747C12.216 270.637 11.9258 270.346 11.9258 269.988C11.9258 269.63 12.216 269.339 12.5747 269.339H55.9624C56.321 269.339 56.6113 269.63 56.6113 269.988C56.6113 270.346 56.321 270.637 55.9624 270.637Z" fill="#FEC99E"/>
<path d="M64.3074 275.943H13.8383C13.4801 275.943 13.1895 275.653 13.1895 275.295C13.1895 274.937 13.4801 274.646 13.8383 274.646H64.3074C64.6661 274.646 64.9563 274.937 64.9563 275.295C64.9563 275.653 64.6661 275.943 64.3074 275.943Z" fill="#FEC99E"/>
<path d="M75.4907 285.453H67.4594C67.1008 285.453 66.8105 285.163 66.8105 284.804C66.8105 284.446 67.1008 284.156 67.4594 284.156H75.4907C75.8493 284.156 76.1396 284.446 76.1396 284.804C76.1396 285.163 75.8493 285.453 75.4907 285.453Z" fill="#FEC99E"/>
<path d="M63.9085 285.453H12.5747C12.216 285.453 11.9258 285.163 11.9258 284.804C11.9258 284.446 12.216 284.156 12.5747 284.156H63.9085C64.2671 284.156 64.5574 284.446 64.5574 284.804C64.5574 285.163 64.2671 285.453 63.9085 285.453Z" fill="#FEC99E"/>
<path d="M10.375 353.041H198.385V306.996H10.375C15.925 322.549 16.0777 337.903 10.375 353.041Z" fill="#FFF4E9"/>
<path d="M11.3064 352.395H197.736V307.646H11.29C16.5307 322.881 16.5363 337.926 11.3064 352.395ZM198.385 353.691H10.3755C10.1623 353.691 9.96328 353.588 9.84173 353.415C9.72061 353.237 9.69334 353.012 9.76818 352.814C15.3117 338.099 15.3104 322.757 9.76429 307.215C9.69335 307.017 9.72363 306.796 9.84518 306.624C9.96674 306.451 10.1644 306.349 10.3755 306.349H198.385C198.743 306.349 199.034 306.639 199.034 306.997V353.043C199.034 353.402 198.743 353.691 198.385 353.691Z" fill="#333A43"/>
<path d="M175.751 309.267H9.08205C7.0779 309.267 5.45312 307.643 5.45312 305.639C5.45312 303.635 7.0779 302.011 9.08205 302.011H225.363C234.171 302.011 241.311 309.149 241.311 317.955V343.019C241.311 351.824 234.171 358.961 225.362 358.961H9.08205C7.0779 358.961 5.45312 357.339 5.45312 355.333C5.45312 353.331 7.0779 351.705 9.08205 351.705H175.751C181.973 351.705 187.018 346.663 187.018 340.443V320.531C187.018 314.31 181.973 309.267 175.751 309.267Z" fill="#FB9946"/>
<path d="M9.08248 352.354C7.43954 352.354 6.10243 353.689 6.10243 355.333C6.10243 356.976 7.43954 358.312 9.08248 358.312H225.363C233.799 358.312 240.663 351.452 240.663 343.018V317.955C240.663 309.521 233.799 302.659 225.363 302.659H9.08248C7.43954 302.659 6.10243 303.996 6.10243 305.639C6.10243 307.282 7.43954 308.618 9.08248 308.618H175.751C182.322 308.618 187.668 313.962 187.668 320.531V340.442C187.668 347.01 182.322 352.354 175.751 352.354H9.08248ZM225.363 359.609H9.08248C6.72362 359.609 4.80469 357.694 4.80469 355.333C4.80469 352.976 6.72362 351.057 9.08248 351.057H175.751C181.607 351.057 186.37 346.295 186.37 340.442V320.531C186.37 314.677 181.607 309.916 175.751 309.916H9.08248C6.72362 309.916 4.80469 307.997 4.80469 305.639C4.80469 303.281 6.72362 301.362 9.08248 301.362H225.363C234.515 301.362 241.961 308.805 241.961 317.955V343.018C241.961 352.168 234.515 359.609 225.363 359.609Z" fill="#333A43"/>
<path d="M43.1899 318.58H15.4282C15.07 318.58 14.7793 318.289 14.7793 317.931C14.7793 317.573 15.07 317.283 15.4282 317.283H43.1899C43.5485 317.283 43.8387 317.573 43.8387 317.931C43.8387 318.289 43.5485 318.58 43.1899 318.58Z" fill="#FEC99E"/>
<path d="M96.6864 318.58H47.0864C46.7282 318.58 46.4375 318.289 46.4375 317.931C46.4375 317.573 46.7282 317.283 47.0864 317.283H96.6864C97.045 317.283 97.3353 317.573 97.3353 317.931C97.3353 318.289 97.045 318.58 96.6864 318.58Z" fill="#FEC99E"/>
<path d="M85.3896 324.725H16.0141C15.6559 324.725 15.3652 324.434 15.3652 324.076C15.3652 323.718 15.6559 323.427 16.0141 323.427H85.3896C85.7477 323.427 86.0384 323.718 86.0384 324.076C86.0384 324.434 85.7477 324.725 85.3896 324.725Z" fill="#FEC99E"/>
<path d="M103.65 324.725H89.9633C89.6047 324.725 89.3145 324.434 89.3145 324.076C89.3145 323.718 89.6047 323.427 89.9633 323.427H103.65C104.008 323.427 104.299 323.718 104.299 324.076C104.299 324.434 104.008 324.725 103.65 324.725Z" fill="#FEC99E"/>
<path d="M89.58 337.553H16.0141C15.6559 337.553 15.3652 337.262 15.3652 336.904C15.3652 336.546 15.6559 336.255 16.0141 336.255H89.58C89.9386 336.255 90.2289 336.546 90.2289 336.904C90.2289 337.262 89.9386 337.553 89.58 337.553Z" fill="#FEC99E"/>
<path d="M96.6836 337.553H93.4497C93.0915 337.553 92.8008 337.262 92.8008 336.904C92.8008 336.546 93.0915 336.255 93.4497 336.255H96.6836C97.0422 336.255 97.3325 336.546 97.3325 336.904C97.3325 337.262 97.0422 337.553 96.6836 337.553Z" fill="#FEC99E"/>
<path d="M29.3915 203.777C28.4489 204.543 28.3049 205.957 29.0701 206.928C29.443 207.402 29.9716 207.699 30.559 207.763C31.1305 207.829 31.692 207.662 32.1388 207.299C33.081 206.533 33.225 205.12 32.4598 204.147C32.0873 203.674 31.5587 203.378 30.9713 203.312C30.3998 203.246 29.8384 203.414 29.3915 203.777ZM30.8013 209.074C30.6737 209.074 30.5448 209.068 30.4154 209.053C29.4802 208.949 28.6401 208.48 28.0505 207.731C26.8497 206.206 27.0841 203.981 28.5731 202.77C29.2916 202.186 30.1944 201.921 31.1149 202.023C32.0501 202.127 32.8902 202.596 33.4798 203.345C34.6807 204.87 34.4462 207.096 32.9573 208.306C32.3395 208.808 31.5856 209.074 30.8013 209.074Z" fill="#333A43"/>
<path d="M28.5514 222.896C28.3957 222.896 28.24 222.841 28.1158 222.729L26.1017 220.903C25.8361 220.663 25.8162 220.253 26.0568 219.987C26.2973 219.722 26.7078 219.701 26.9734 219.942L28.987 221.767C29.2527 222.008 29.273 222.418 29.032 222.684C28.904 222.825 28.7279 222.896 28.5514 222.896Z" fill="#333A43"/>
<path d="M35.6042 229.285C35.4489 229.285 35.2927 229.23 35.1686 229.117L33.1545 227.291C32.8889 227.051 32.869 226.64 33.1095 226.375C33.35 226.11 33.7605 226.089 34.0261 226.33L36.0402 228.156C36.3058 228.397 36.3257 228.806 36.0852 229.072C35.9572 229.213 35.7811 229.285 35.6042 229.285Z" fill="#333A43"/>
<path d="M26.9868 229.732C26.8323 229.732 26.6779 229.678 26.5538 229.567C26.2868 229.328 26.2644 228.918 26.5036 228.651L28.3182 226.627C28.5575 226.359 28.9675 226.337 29.2344 226.576C29.5013 226.816 29.5238 227.226 29.2846 227.492L27.4704 229.517C27.3419 229.66 27.165 229.732 26.9868 229.732Z" fill="#333A43"/>
<path d="M33.3383 222.648C33.1839 222.648 33.029 222.594 32.9053 222.483C32.6384 222.244 32.6159 221.834 32.8551 221.567L34.6694 219.543C34.9086 219.276 35.3191 219.253 35.5856 219.493C35.8529 219.732 35.875 220.142 35.6362 220.409L33.8215 222.433C33.6935 222.576 33.5161 222.648 33.3383 222.648Z" fill="#333A43"/>
<path d="M340.698 145.076C340.542 145.076 340.386 145.021 340.261 144.908L338.25 143.083C337.981 142.842 337.964 142.432 338.202 142.166C338.444 141.901 338.855 141.881 339.119 142.121L341.135 143.947C341.399 144.187 341.42 144.598 341.178 144.863C341.053 145.004 340.875 145.076 340.698 145.076Z" fill="#333A43"/>
<path d="M347.751 151.465C347.595 151.465 347.439 151.41 347.314 151.297L345.298 149.471C345.034 149.231 345.013 148.82 345.255 148.555C345.493 148.29 345.904 148.269 346.172 148.51L348.183 150.335C348.452 150.576 348.469 150.986 348.231 151.252C348.101 151.393 347.924 151.465 347.751 151.465Z" fill="#333A43"/>
<path d="M339.135 151.912C338.984 151.912 338.828 151.858 338.702 151.746C338.434 151.507 338.413 151.097 338.655 150.831L340.467 148.807C340.705 148.54 341.116 148.517 341.384 148.757C341.653 148.996 341.674 149.406 341.432 149.673L339.619 151.696C339.49 151.839 339.312 151.912 339.135 151.912Z" fill="#333A43"/>
<path d="M345.485 144.828C345.333 144.828 345.177 144.774 345.052 144.662C344.784 144.423 344.762 144.013 345.004 143.747L346.817 141.722C347.055 141.455 347.466 141.433 347.734 141.672C347.998 141.911 348.024 142.321 347.782 142.588L345.969 144.612C345.839 144.755 345.662 144.828 345.485 144.828Z" fill="#333A43"/>
<path d="M213.844 20.3926C213.793 20.3926 213.742 20.3882 213.691 20.3753C194.492 15.7309 177.157 13.8022 162.168 14.6411C161.807 14.6541 161.503 14.386 161.483 14.0314C161.464 13.6725 161.737 13.3654 162.095 13.3438C177.211 12.5006 194.674 14.4422 213.996 19.1169C214.344 19.199 214.558 19.5493 214.474 19.8996C214.402 20.1936 214.136 20.3926 213.844 20.3926Z" fill="#333A43"/>
<path d="M207.499 13.0156C207.457 13.0156 207.414 13.0156 207.37 13.0027C189.747 9.43936 164.608 6.09229 144.932 10.3734C144.582 10.4513 144.236 10.2264 144.159 9.88044C144.083 9.53017 144.305 9.18424 144.655 9.1064C164.552 4.77769 189.881 8.1464 207.627 11.7313C207.978 11.8048 208.206 12.1464 208.135 12.4967C208.072 12.8037 207.802 13.0156 207.499 13.0156Z" fill="#333A43"/>
<path d="M130 14.4645L138.569 16.0603L137.102 8.22445L130 14.4645ZM139.381 17.5176C139.341 17.5176 139.301 17.5133 139.262 17.5046L128.45 15.4981C128.206 15.4548 128.009 15.2732 127.943 15.0311C127.877 14.7932 127.954 14.5381 128.14 14.3737L137.102 6.49904C137.277 6.34769 137.522 6.3001 137.742 6.37362C137.963 6.45146 138.125 6.63742 138.168 6.86661L140.018 16.7478C140.058 16.9597 139.99 17.1759 139.84 17.3273C139.717 17.4484 139.551 17.5176 139.381 17.5176Z" fill="#333A43"/>
</svg>
