<svg width="14" height="14" viewBox="0 0 14 14" fill="none" xmlns="http://www.w3.org/2000/svg">
<path d="M8.10593 9.20385C7.7636 8.96501 7.39777 8.7704 7.01517 8.62172C7.52413 8.15912 7.86176 7.5111 7.9205 6.78563C8.69232 6.03357 9.70404 5.62128 10.7886 5.62128C11.6353 5.62128 12.4482 5.87624 13.1397 6.35849C13.3875 6.53131 13.7283 6.47064 13.9011 6.22284C14.0738 5.97515 14.0131 5.63431 13.7654 5.4616C13.4231 5.22276 13.0572 5.02826 12.6746 4.87947C13.2362 4.36902 13.5893 3.63298 13.5893 2.81609C13.5893 1.27832 12.3383 0.0273438 10.8006 0.0273438C9.26291 0.0273438 8.01193 1.27832 8.01193 2.81609C8.01193 3.62967 8.36217 4.36304 8.91994 4.87328C8.84357 4.90265 8.76762 4.93373 8.69243 4.96684C8.35021 5.11745 8.02849 5.30266 7.72931 5.52013C7.3167 4.49506 6.31214 3.76959 5.14116 3.76959C3.60351 3.76959 2.35242 5.02057 2.35242 6.55823C2.35242 7.36957 2.70074 8.10091 3.25551 8.61093C1.77222 9.16667 0.569527 10.3603 0.079903 11.8826C-0.0824504 12.3874 0.00353279 12.9227 0.315849 13.3513C0.628166 13.7799 1.11138 14.0256 1.64159 14.0256H6.39887C6.70082 14.0256 6.94563 13.7808 6.94563 13.4788C6.94563 13.1768 6.70082 12.932 6.39887 12.932H1.64159C1.46482 12.932 1.30375 12.8501 1.19961 12.7072C1.09547 12.5642 1.06684 12.3858 1.12089 12.2174C1.66135 10.5371 3.30967 9.36353 5.1292 9.36353C5.97579 9.36353 6.78884 9.61849 7.48033 10.1007C7.72803 10.2736 8.06886 10.2128 8.24168 9.96509C8.4144 9.71739 8.35373 9.37656 8.10593 9.20385ZM10.8006 1.12099C11.7353 1.12099 12.4957 1.88138 12.4957 2.81609C12.4957 3.75069 11.7353 4.51119 10.8006 4.51119C9.86597 4.51119 9.10547 3.75069 9.10547 2.81609C9.10547 1.88138 9.86597 1.12099 10.8006 1.12099ZM5.14116 4.86313C6.07587 4.86313 6.83626 5.62363 6.83626 6.55823C6.83626 7.49294 6.07587 8.25333 5.14116 8.25333C4.20646 8.25333 3.44607 7.49294 3.44607 6.55823C3.44607 5.62363 4.20646 4.86313 5.14116 4.86313ZM13.9995 11.4283C13.9995 11.7303 13.7547 11.9751 13.4526 11.9751H11.9489V13.4788C11.9489 13.7808 11.7041 14.0256 11.4021 14.0256C11.1001 14.0256 10.8553 13.7808 10.8553 13.4788V11.9751H9.35156C9.04961 11.9751 8.80479 11.7303 8.80479 11.4283C8.80479 11.1262 9.04961 10.8814 9.35156 10.8814H10.8553V9.37773C10.8553 9.07578 11.1001 8.83097 11.4021 8.83097C11.7041 8.83097 11.9489 9.07578 11.9489 9.37773V10.8814H13.4526C13.7547 10.8814 13.9995 11.1262 13.9995 11.4283Z" fill="white"/>
</svg>
