<svg width="24" height="24" viewBox="0 0 24 24" fill="none" xmlns="http://www.w3.org/2000/svg">
<path d="M4.7738 9.96555H8.19177V20.5617H4.7738V9.96555Z" fill="#0077B7"/>
<path d="M17.2743 9.73749C14.7695 9.73749 13.6692 11.1296 13.3923 11.5534V9.96554H10.2428V20.5617H13.661V15.2392C13.661 13.7012 14.3689 12.5048 15.7118 12.5048C17.0545 12.5048 17.2743 13.994 17.2743 15.8253V20.5617H20.6924V13.1556C20.6924 11.2679 19.1621 9.73749 17.2743 9.73749Z" fill="#0077B7"/>
<path d="M8.51746 6.59642C8.51746 7.72011 7.60665 8.63093 6.48295 8.63093C5.35925 8.63093 4.44824 7.72011 4.44824 6.59642C4.44824 5.47272 5.35925 4.56171 6.48295 4.56171C7.60665 4.56171 8.51746 5.47272 8.51746 6.59642Z" fill="#0077B7"/>
</svg>
