<svg width="16" height="16" viewBox="0 0 16 16" fill="none" xmlns="http://www.w3.org/2000/svg">
<g opacity="0.6">
<path d="M8 9.33337C9.10457 9.33337 10 8.43794 10 7.33337C10 6.2288 9.10457 5.33337 8 5.33337C6.89543 5.33337 6 6.2288 6 7.33337C6 8.43794 6.89543 9.33337 8 9.33337Z" stroke="#23282E" stroke-linecap="round" stroke-linejoin="round"/>
<path d="M11.7714 11.1047L8.94276 13.9333C8.69275 14.1831 8.35382 14.3234 8.00043 14.3234C7.64704 14.3234 7.3081 14.1831 7.0581 13.9333L4.22876 11.1047C3.48291 10.3588 2.97499 9.40845 2.76922 8.3739C2.56345 7.33934 2.66909 6.267 3.07276 5.29247C3.47644 4.31795 4.16003 3.48501 5.03708 2.89899C5.91414 2.31297 6.94527 2.00018 8.0001 2.00018C9.05492 2.00018 10.0861 2.31297 10.9631 2.89899C11.8402 3.48501 12.5238 4.31795 12.9274 5.29247C13.3311 6.267 13.4367 7.33934 13.231 8.3739C13.0252 9.40845 12.5173 10.3588 11.7714 11.1047V11.1047Z" stroke="#23282E" stroke-linecap="round" stroke-linejoin="round"/>
</g>
</svg>
