<svg width="160" height="120" viewBox="0 0 160 120" fill="none" xmlns="http://www.w3.org/2000/svg">
<path d="M128.616 28.2052C142.202 40.3688 154.598 53.1363 154.994 66.2488C155.292 79.3613 143.59 92.819 130.004 102.308C116.419 111.798 100.949 117.319 83.2968 119.303C65.6451 121.201 45.7126 119.562 30.9368 110.159C16.1609 100.669 6.54172 83.3296 5.15338 64.7823C3.86422 46.3212 10.7067 26.5661 25.4826 14.4025C40.2584 2.23891 62.9676 -2.33322 81.611 1.11745C100.354 4.56812 115.03 16.0416 128.616 28.2052Z" fill="#FCEEF0"/>
<path d="M145.549 99.5936V22.8424C145.549 21.4534 144.411 20.3157 143.022 20.3157H16.6306C15.2413 20.3157 14.1045 21.4534 14.1045 22.8424V99.5936H145.549Z" fill="white"/>
<path d="M14.4202 99.2779H145.233V22.8428C145.233 21.6245 144.24 20.6321 143.022 20.6321H16.6303C15.4116 20.6321 14.4202 21.6245 14.4202 22.8428V99.2779ZM145.549 99.91H14.1041C13.9295 99.91 13.7881 99.7684 13.7881 99.594V22.8428C13.7881 21.2752 15.0632 20 16.6303 20H143.022C144.59 20 145.865 21.2752 145.865 22.8428V99.594C145.865 99.7684 145.723 99.91 145.549 99.91Z" fill="#333A43"/>
<path d="M152.149 107.683H7.49633C3.53739 107.683 0.316406 104.463 0.316406 100.503V100.073C0.316406 99.8401 0.504928 99.6515 0.737379 99.6515H158.917C159.149 99.6515 159.337 99.8401 159.337 100.073V100.494C159.337 104.458 156.114 107.683 152.149 107.683Z" fill="white"/>
<path d="M0.737018 99.9678C0.679182 99.9678 0.632091 100.015 0.632091 100.073V100.504C0.632091 104.288 3.71117 107.368 7.49597 107.368H152.148C155.938 107.368 159.022 104.284 159.022 100.494V100.073C159.022 100.015 158.975 99.9678 158.917 99.9678H0.737018ZM152.148 108H7.49597C3.36273 108 0 104.637 0 100.504V100.073C0 99.6663 0.330584 99.3357 0.737018 99.3357H158.917C159.323 99.3357 159.655 99.6663 159.655 100.073V100.494C159.655 104.633 156.287 108 152.148 108Z" fill="#333A43"/>
<path d="M61.9543 99.9699C62.2616 100.863 63.1021 101.478 64.0764 101.478H95.5779C96.5521 101.478 97.3926 100.863 97.7003 99.9699H61.9543ZM95.5779 102.11H64.0764C62.6628 102.11 61.4691 101.099 61.2376 99.7057C61.2225 99.6141 61.2484 99.5205 61.3084 99.4496C61.3685 99.3788 61.4567 99.3378 61.5496 99.3378H98.105C98.1979 99.3378 98.2861 99.3788 98.3461 99.4496C98.406 99.5205 98.4319 99.6141 98.4168 99.7057C98.1853 101.099 96.9912 102.11 95.5779 102.11Z" fill="#333A43"/>
<path d="M138.33 26.4157H21.3252V95.9578H138.33V26.4157Z" fill="#FFF4E9"/>
<path d="M21.6409 95.6417H138.013V26.7318H21.6409V95.6417ZM138.329 96.2738H21.3248C21.1502 96.2738 21.0088 96.1322 21.0088 95.9578V26.4157C21.0088 26.2419 21.1502 26.0997 21.3248 26.0997H138.329C138.503 26.0997 138.645 26.2419 138.645 26.4157V95.9578C138.645 96.1322 138.503 96.2738 138.329 96.2738Z" fill="#333A43"/>
<path d="M95.3833 87.0417H64.4682C62.5209 87.0417 60.9424 85.4631 60.9424 83.5158V82.0545C60.9424 80.1072 62.5209 78.5287 64.4682 78.5287H95.3833C97.3306 78.5287 98.9091 80.1072 98.9091 82.0545V83.5158C98.9091 85.4631 97.3306 87.0417 95.3833 87.0417Z" fill="#FEC99E"/>
<path d="M64.4678 78.8448C62.698 78.8448 61.2581 80.2847 61.2581 82.0545V83.5158C61.2581 85.2858 62.698 86.7257 64.4678 86.7257H95.3828C97.1528 86.7257 98.5927 85.2858 98.5927 83.5158V82.0545C98.5927 80.2847 97.1528 78.8448 95.3828 78.8448H64.4678ZM95.3828 87.3578H64.4678C62.3494 87.3578 60.626 85.6344 60.626 83.5158V82.0545C60.626 79.9361 62.3494 78.2127 64.4678 78.2127H95.3828C97.5014 78.2127 99.2248 79.9361 99.2248 82.0545V83.5158C99.2248 85.6344 97.5014 87.3578 95.3828 87.3578Z" fill="#333A43"/>
<path d="M69.3643 80.2905H70.4521V84.1731H72.3578V85.0831H69.3643V80.2905Z" fill="#333A43"/>
<path d="M74.0072 82.7012C74.0072 83.6399 74.4481 84.3011 75.1734 84.3011C75.9058 84.3011 76.3254 83.6043 76.3254 82.6726C76.3254 81.8124 75.9129 81.0728 75.1663 81.0728C74.4338 81.0728 74.0072 81.7697 74.0072 82.7012ZM77.4702 82.6372C77.4702 84.2086 76.5174 85.1615 75.1165 85.1615C73.6943 85.1615 72.8623 84.0879 72.8623 82.7226C72.8623 81.2862 73.7798 80.2124 75.1947 80.2124C76.6667 80.2124 77.4702 81.3146 77.4702 82.6372Z" fill="#333A43"/>
<path d="M82.5403 84.8626C82.2061 84.9765 81.5733 85.1328 80.9404 85.1328C80.0659 85.1328 79.433 84.9124 78.9921 84.4857C78.5512 84.0734 78.3094 83.4477 78.3166 82.7437C78.3237 81.151 79.4828 80.2408 81.0543 80.2408C81.6728 80.2408 82.1492 80.3615 82.3839 80.4753L82.1564 81.3428C81.8932 81.229 81.5661 81.1366 81.0399 81.1366C80.137 81.1366 79.4543 81.6486 79.4543 82.6866C79.4543 83.6751 80.073 84.2583 80.9619 84.2583C81.2106 84.2583 81.4097 84.2297 81.495 84.1871V83.1846H80.7556V82.3383H82.5403V84.8626Z" fill="#333A43"/>
<path d="M84.8302 80.2905V85.0831H83.7422V80.2905H84.8302Z" fill="#333A43"/>
<path d="M86.125 85.0831V80.2905H87.3908L88.3863 82.0467C88.6707 82.5518 88.9552 83.1491 89.1684 83.6894H89.1899C89.1187 83.0565 89.0974 82.4094 89.0974 81.6912V80.2905H90.0928V85.0831H88.9552L87.9312 83.2343C87.6469 82.7224 87.3339 82.1038 87.0994 81.542L87.0779 81.5491C87.1065 82.182 87.1205 82.8574 87.1205 83.6398V85.0831H86.125Z" fill="#333A43"/>
<path d="M97.297 73.9739H62.158C61.3772 73.9739 60.7441 73.3408 60.7441 72.5601V68.2768C60.7441 67.4959 61.3772 66.8629 62.158 66.8629H97.297C98.078 66.8629 98.711 67.4959 98.711 68.2768V72.5601C98.711 73.3408 98.078 73.9739 97.297 73.9739Z" fill="#FFF4E9"/>
<path d="M62.1587 67.1794C61.5534 67.1794 61.0608 67.6718 61.0608 68.2772V72.5604C61.0608 73.1658 61.5534 73.6583 62.1587 73.6583H97.2978C97.9032 73.6583 98.3956 73.1658 98.3956 72.5604V68.2772C98.3956 67.6718 97.9032 67.1794 97.2978 67.1794H62.1587ZM97.2978 74.2904H62.1587C61.2048 74.2904 60.4287 73.5142 60.4287 72.5604V68.2772C60.4287 67.3233 61.2048 66.5473 62.1587 66.5473H97.2978C98.2516 66.5473 99.0277 67.3233 99.0277 68.2772V72.5604C99.0277 73.5142 98.2516 74.2904 97.2978 74.2904Z" fill="#333A43"/>
<path d="M65.7828 73.115C65.5645 73.115 65.3877 72.9382 65.3877 72.7199V68.0992C65.3877 67.881 65.5645 67.7041 65.7828 67.7041C66.001 67.7041 66.1778 67.881 66.1778 68.0992V72.7199C66.1778 72.9382 66.001 73.115 65.7828 73.115Z" fill="#FEC99E"/>
<path d="M67.4174 72.4382C67.3162 72.4382 67.2151 72.3997 67.138 72.3224L63.8706 69.0551C63.7163 68.9009 63.7163 68.6507 63.8706 68.4964C64.0248 68.3421 64.2751 68.3421 64.4292 68.4964L67.6968 71.7638C67.851 71.9182 67.851 72.1682 67.6968 72.3224C67.6196 72.3997 67.5185 72.4382 67.4174 72.4382Z" fill="#FEC99E"/>
<path d="M68.0941 70.8046H63.4732C63.2551 70.8046 63.0781 70.6277 63.0781 70.4095C63.0781 70.1913 63.2551 70.0145 63.4732 70.0145H68.0941C68.3123 70.0145 68.4891 70.1913 68.4891 70.4095C68.4891 70.6277 68.3123 70.8046 68.0941 70.8046Z" fill="#FEC99E"/>
<path d="M64.1499 72.4382C64.0488 72.4382 63.9477 72.3997 63.8706 72.3224C63.7163 72.1682 63.7163 71.9182 63.8706 71.7638L67.138 68.4964C67.2922 68.3421 67.5425 68.3421 67.6968 68.4964C67.851 68.6507 67.851 68.9009 67.6968 69.0551L64.4292 72.3224C64.3521 72.3997 64.2509 72.4382 64.1499 72.4382Z" fill="#FEC99E"/>
<path d="M72.7134 73.115C72.4952 73.115 72.3184 72.9382 72.3184 72.7199V68.0992C72.3184 67.881 72.4952 67.7041 72.7134 67.7041C72.9315 67.7041 73.1085 67.881 73.1085 68.0992V72.7199C73.1085 72.9382 72.9315 73.115 72.7134 73.115Z" fill="#FEC99E"/>
<path d="M74.3461 72.4382C74.245 72.4382 74.1438 72.3997 74.0667 72.3224L70.7993 69.0551C70.645 68.9009 70.645 68.6507 70.7993 68.4964C70.9535 68.3421 71.2038 68.3421 71.3579 68.4964L74.6255 71.7638C74.7797 71.9182 74.7797 72.1682 74.6255 72.3224C74.5484 72.3997 74.4472 72.4382 74.3461 72.4382Z" fill="#FEC99E"/>
<path d="M75.0228 70.8046H70.4019C70.1838 70.8046 70.0068 70.6277 70.0068 70.4095C70.0068 70.1913 70.1838 70.0145 70.4019 70.0145H75.0228C75.241 70.0145 75.4179 70.1913 75.4179 70.4095C75.4179 70.6277 75.241 70.8046 75.0228 70.8046Z" fill="#FEC99E"/>
<path d="M71.0787 72.4382C70.9775 72.4382 70.8764 72.3997 70.7993 72.3224C70.645 72.1682 70.645 71.9182 70.7993 71.7638L74.0667 68.4964C74.2209 68.3421 74.4712 68.3421 74.6255 68.4964C74.7797 68.6507 74.7797 68.9009 74.6255 69.0551L71.3579 72.3224C71.2808 72.3997 71.1796 72.4382 71.0787 72.4382Z" fill="#FEC99E"/>
<path d="M79.6431 73.115C79.4249 73.115 79.248 72.9382 79.248 72.7199V68.0992C79.248 67.881 79.4249 67.7041 79.6431 67.7041C79.8612 67.7041 80.0382 67.881 80.0382 68.0992V72.7199C80.0382 72.9382 79.8612 73.115 79.6431 73.115Z" fill="#FEC99E"/>
<path d="M81.2767 72.4382C81.1756 72.4382 81.0744 72.3997 80.9973 72.3224L77.73 69.0551C77.5757 68.9009 77.5757 68.6507 77.73 68.4964C77.8841 68.3421 78.1344 68.3421 78.2887 68.4964L81.5561 71.7638C81.7103 71.9182 81.7103 72.1682 81.5561 72.3224C81.479 72.3997 81.3778 72.4382 81.2767 72.4382Z" fill="#FEC99E"/>
<path d="M81.9533 70.8046H77.3326C77.1143 70.8046 76.9375 70.6277 76.9375 70.4095C76.9375 70.1913 77.1143 70.0145 77.3326 70.0145H81.9533C82.1715 70.0145 82.3484 70.1913 82.3484 70.4095C82.3484 70.6277 82.1715 70.8046 81.9533 70.8046Z" fill="#FEC99E"/>
<path d="M78.0093 72.4382C77.9083 72.4382 77.807 72.3997 77.73 72.3224C77.5757 72.1682 77.5757 71.9182 77.73 71.7638L80.9973 68.4964C81.1516 68.3421 81.4019 68.3421 81.5561 68.4964C81.7103 68.6507 81.7103 68.9009 81.5561 69.0551L78.2887 72.3224C78.2115 72.3997 78.1104 72.4382 78.0093 72.4382Z" fill="#FEC99E"/>
<path d="M86.5503 73.115C86.3321 73.115 86.1553 72.9382 86.1553 72.7199V68.0992C86.1553 67.881 86.3321 67.7041 86.5503 67.7041C86.7686 67.7041 86.9454 67.881 86.9454 68.0992V72.7199C86.9454 72.9382 86.7686 73.115 86.5503 73.115Z" fill="#FEC99E"/>
<path d="M88.1841 72.4382C88.083 72.4382 87.982 72.3997 87.9047 72.3224L84.6373 69.0551C84.4829 68.9009 84.4829 68.6507 84.6373 68.4964C84.7915 68.3421 85.0418 68.3421 85.1959 68.4964L88.4633 71.7638C88.6177 71.9182 88.6177 72.1682 88.4633 72.3224C88.3862 72.3997 88.2852 72.4382 88.1841 72.4382Z" fill="#FEC99E"/>
<path d="M88.8607 70.8046H84.2398C84.0217 70.8046 83.8447 70.6277 83.8447 70.4095C83.8447 70.1913 84.0217 70.0145 84.2398 70.0145H88.8607C89.0789 70.0145 89.2557 70.1913 89.2557 70.4095C89.2557 70.6277 89.0789 70.8046 88.8607 70.8046Z" fill="#FEC99E"/>
<path d="M84.9167 72.4382C84.8155 72.4382 84.7144 72.3997 84.6373 72.3224C84.4829 72.1682 84.4829 71.9182 84.6373 71.7638L87.9047 68.4964C88.0591 68.3421 88.3091 68.3421 88.4633 68.4964C88.6177 68.6507 88.6177 68.9009 88.4633 69.0551L85.1959 72.3224C85.1188 72.3997 85.0176 72.4382 84.9167 72.4382Z" fill="#FEC99E"/>
<path d="M93.48 73.115C93.2619 73.115 93.085 72.9382 93.085 72.7199V68.0992C93.085 67.881 93.2619 67.7041 93.48 67.7041C93.6982 67.7041 93.8751 67.881 93.8751 68.0992V72.7199C93.8751 72.9382 93.6982 73.115 93.48 73.115Z" fill="#FEC99E"/>
<path d="M95.1136 72.4382C95.0126 72.4382 94.9115 72.3997 94.8344 72.3224L91.567 69.0551C91.4126 68.9009 91.4126 68.6507 91.567 68.4964C91.7214 68.3421 91.9713 68.3421 92.1256 68.4964L95.393 71.7638C95.5474 71.9182 95.5474 72.1682 95.393 72.3224C95.3159 72.3997 95.2148 72.4382 95.1136 72.4382Z" fill="#FEC99E"/>
<path d="M95.7904 70.8046H91.1695C90.9514 70.8046 90.7744 70.6277 90.7744 70.4095C90.7744 70.1913 90.9514 70.0145 91.1695 70.0145H95.7904C96.0084 70.0145 96.1854 70.1913 96.1854 70.4095C96.1854 70.6277 96.0084 70.8046 95.7904 70.8046Z" fill="#FEC99E"/>
<path d="M91.8464 72.4382C91.7452 72.4382 91.6441 72.3997 91.567 72.3224C91.4126 72.1682 91.4126 71.9182 91.567 71.7638L94.8344 68.4964C94.9886 68.3421 95.2386 68.3421 95.393 68.4964C95.5474 68.6507 95.5474 68.9009 95.393 69.0551L92.1256 72.3224C92.0485 72.3997 91.9473 72.4382 91.8464 72.4382Z" fill="#FEC99E"/>
<path d="M97.4949 64.1238H62.158C61.3772 64.1238 60.7441 63.4907 60.7441 62.7098V58.4266C60.7441 57.6458 61.3772 57.0128 62.158 57.0128H97.4949C98.2758 57.0128 98.9087 57.6458 98.9087 58.4266V62.7098C98.9087 63.4907 98.2758 64.1238 97.4949 64.1238Z" fill="#FFF4E9"/>
<path d="M62.1587 57.3288C61.5534 57.3288 61.0608 57.8212 61.0608 58.4266V62.7098C61.0608 63.3152 61.5534 63.8077 62.1587 63.8077H97.4955C98.1009 63.8077 98.5933 63.3152 98.5933 62.7098V58.4266C98.5933 57.8212 98.1009 57.3288 97.4955 57.3288H62.1587ZM97.4955 64.4398H62.1587C61.2048 64.4398 60.4287 63.6636 60.4287 62.7098V58.4266C60.4287 57.4728 61.2048 56.6967 62.1587 56.6967H97.4955C98.4493 56.6967 99.2254 57.4728 99.2254 58.4266V62.7098C99.2254 63.6636 98.4493 64.4398 97.4955 64.4398Z" fill="#333A43"/>
<path d="M93.6607 62.2802H65.9922V58.6703H93.6607V62.2802Z" fill="#FEC99E"/>
<path d="M90.643 43.8686C90.643 37.7934 85.718 32.8685 79.6427 32.8685C73.5675 32.8685 68.6426 37.7934 68.6426 43.8686C68.6426 49.944 73.5675 54.8689 79.6427 54.8689C85.718 54.8689 90.643 49.944 90.643 43.8686Z" fill="#FFF4E9"/>
<path d="M79.6424 54.8689C83.2844 54.8689 86.5115 53.0978 88.5135 50.3713C87.3558 46.5696 83.8227 43.803 79.6424 43.803C75.4622 43.803 71.9292 46.5696 70.7715 50.3713C72.7735 53.0978 76.0006 54.8689 79.6424 54.8689Z" fill="#FEC99E"/>
<path d="M83.7514 40.6032C83.7514 38.334 81.912 36.4946 79.6428 36.4946C77.3737 36.4946 75.5342 38.334 75.5342 40.6032C75.5342 42.8722 77.3737 44.7118 79.6428 44.7118C81.912 44.7118 83.7514 42.8722 83.7514 40.6032Z" fill="#FEC99E"/>
<path d="M79.6425 33.185C73.7511 33.185 68.9583 37.9779 68.9583 43.8691C68.9583 49.7605 73.7511 54.5533 79.6425 54.5533C85.5336 54.5533 90.3264 49.7605 90.3264 43.8691C90.3264 37.9779 85.5336 33.185 79.6425 33.185ZM79.6425 55.1854C73.4027 55.1854 68.3262 50.109 68.3262 43.8691C68.3262 37.6294 73.4027 32.5529 79.6425 32.5529C85.8822 32.5529 90.9585 37.6294 90.9585 43.8691C90.9585 50.109 85.8822 55.1854 79.6425 55.1854Z" fill="#333A43"/>
<path d="M108.499 92.3708L103.649 87.5209L106.515 84.655L96.0436 82.4504L95.9883 82.5058L98.1929 92.9773L101.059 90.1115L105.909 94.9614L108.499 92.3708Z" fill="white"/>
<path d="M109.32 93.131L104.47 88.2809L107.335 85.4152L96.8639 83.2105L96.8086 83.2658L99.0132 93.7375L101.879 90.8716L106.729 95.7214L109.32 93.131Z" fill="white"/>
<path d="M101.059 89.796C101.14 89.796 101.221 89.8268 101.283 89.8886L105.909 94.515L108.053 92.3713L103.426 87.7449C103.303 87.6214 103.303 87.4214 103.426 87.298L105.88 84.8447L96.3832 82.8452L98.3825 92.3417L100.836 89.8886C100.898 89.8268 100.979 89.796 101.059 89.796ZM105.909 95.278C105.828 95.278 105.748 95.2471 105.686 95.1854L101.059 90.5589L98.417 93.2012C98.3348 93.2834 98.2149 93.3137 98.1033 93.2807C97.9922 93.2477 97.9082 93.1563 97.8843 93.0429L95.6796 82.5713C95.6578 82.467 95.6898 82.3585 95.765 82.2831L95.8204 82.2276C95.8959 82.1521 96.0046 82.1192 96.1092 82.1415L106.581 84.3463C106.694 84.3703 106.786 84.4543 106.819 84.5654C106.852 84.6767 106.821 84.7971 106.739 84.879L104.097 87.5214L108.723 92.1478C108.847 92.2714 108.847 92.4713 108.723 92.5949L106.133 95.1854C106.071 95.2471 105.99 95.278 105.909 95.278Z" fill="#333A43"/>
</svg>
