<svg width="18" height="18" viewBox="0 0 18 18" fill="none" xmlns="http://www.w3.org/2000/svg">
<path d="M9 10.25C9.69036 10.25 10.25 9.69036 10.25 9C10.25 8.30965 9.69036 7.75 9 7.75C8.30964 7.75 7.75 8.30965 7.75 9C7.75 9.69036 8.30964 10.25 9 10.25Z" stroke="black" stroke-linecap="round" stroke-linejoin="round"/>
<path d="M9 5C9.69036 5 10.25 4.44035 10.25 3.75C10.25 3.05964 9.69036 2.5 9 2.5C8.30964 2.5 7.75 3.05964 7.75 3.75C7.75 4.44035 8.30964 5 9 5Z" stroke="black" stroke-linecap="round" stroke-linejoin="round"/>
<path d="M9 15.5C9.69036 15.5 10.25 14.9404 10.25 14.25C10.25 13.5596 9.69036 13 9 13C8.30964 13 7.75 13.5596 7.75 14.25C7.75 14.9404 8.30964 15.5 9 15.5Z" stroke="black" stroke-linecap="round" stroke-linejoin="round"/>
</svg>
