<svg width="16" height="16" viewBox="0 0 16 16" fill="none" xmlns="http://www.w3.org/2000/svg">
<path d="M1.5478 15.9986C1.20264 15.9986 0.922852 15.7188 0.922852 15.3736C0.922852 12.2378 3.47403 9.68663 6.60984 9.68663H7.54726C7.98753 9.68663 8.4263 9.73722 8.85136 9.83699C9.18736 9.91586 9.39584 10.2522 9.31694 10.5882C9.2381 10.9242 8.90167 11.1327 8.56573 11.0538C8.23416 10.976 7.89148 10.9365 7.54726 10.9365H6.60984C4.16322 10.9365 2.17274 12.927 2.17274 15.3736C2.17274 15.7187 1.89295 15.9986 1.5478 15.9986ZM11.2344 4.21837C11.2344 1.89236 9.34206 0 7.01605 0C4.69004 0 2.79768 1.89236 2.79768 4.21837C2.79768 6.54438 4.69004 8.43674 7.01605 8.43674C9.34206 8.43674 11.2344 6.54438 11.2344 4.21837ZM9.98454 4.21837C9.98454 5.85519 8.65288 7.18685 7.01605 7.18685C5.37923 7.18685 4.04757 5.85519 4.04757 4.21837C4.04757 2.58155 5.37923 1.24989 7.01605 1.24989C8.65288 1.24989 9.98454 2.58155 9.98454 4.21837ZM15.0352 14.5091C14.9322 14.1344 14.5779 13.6999 13.9606 12.9641C13.643 12.5854 13.1338 11.9784 12.9842 11.6879H13.2029C13.5481 11.6879 13.8279 11.4081 13.8279 11.063C13.8279 10.7178 13.5481 10.438 13.2029 10.438H12.8347C13.1165 10.2089 13.2967 9.85949 13.2967 9.4679C13.2967 8.77762 12.7371 8.21801 12.0468 8.21801C11.3565 8.21801 10.7969 8.77762 10.7969 9.4679C10.7969 9.85946 10.9771 10.2088 11.2589 10.438H10.9531C10.608 10.438 10.3282 10.7178 10.3282 11.063C10.3282 11.4081 10.608 11.6879 10.9531 11.6879H11.1712C11.0208 11.9777 10.515 12.581 10.1992 12.9576C9.57957 13.6967 9.22392 14.1332 9.12068 14.5095C9.02247 14.8676 9.09518 15.2421 9.32013 15.5371C9.54455 15.8313 9.88552 16 10.2556 16H13.9005C14.2708 16 14.6119 15.8311 14.8363 15.5366C15.0612 15.2415 15.1337 14.867 15.0352 14.5091ZM10.3769 14.7501C10.5239 14.5159 10.897 14.0708 11.1571 13.7606C11.5477 13.2947 11.8583 12.9184 12.0774 12.5951C12.2973 12.9202 12.6098 13.2985 13.0031 13.7674C13.2614 14.0753 13.6319 14.5169 13.7788 14.7501H10.3769Z" fill="#23282E"/>
</svg>
