<svg width="16" height="16" viewBox="0 0 16 16" fill="none" xmlns="http://www.w3.org/2000/svg">
<g opacity="0.5">
<g clip-path="url(#clip0)">
<path d="M10.9997 15.9996H4.9998C4.17056 15.9666 4.17118 14.7823 4.9998 14.7496H10.9997C11.829 14.7826 11.8283 15.9668 10.9997 15.9996ZM12.1872 8.12464V2.5004C12.1872 1.12191 11.0657 0.000427246 9.68724 0.000427246H6.34353C4.96505 0.000427246 3.84356 1.12191 3.84356 2.5004V8.12464C3.84356 9.50313 4.96505 10.6246 6.34353 10.6246H9.68724C11.0658 10.6246 12.1872 9.50313 12.1872 8.12464ZM9.68724 1.25041C10.3765 1.25041 10.9372 1.81116 10.9372 2.5004V8.12464C10.9372 8.81389 10.3765 9.37463 9.68724 9.37463H6.34353C5.65429 9.37463 5.09355 8.81389 5.09355 8.12464V2.5004C5.09355 1.81116 5.65429 1.25041 6.34353 1.25041H9.68724ZM15.9997 9.74963V4.62469C16.0095 3.32014 15.288 2.0584 14.1644 1.4001C13.4355 1.00457 12.8296 2.02218 13.5254 2.47437C14.2806 2.92361 14.7497 3.74757 14.7497 4.62472V9.74966C14.7497 11.1281 13.6282 12.2496 12.2497 12.2496H3.74919C2.37105 12.2496 1.24987 11.1284 1.24987 9.75031V4.62469C1.24987 3.74757 1.71899 2.92358 2.4742 2.47434C2.77085 2.2979 2.86829 1.91434 2.69179 1.61769C2.51536 1.32107 2.13186 1.2236 1.83512 1.40007C0.711535 2.0584 -0.0100189 3.32014 -0.00014405 4.62469V9.75028C-0.00014405 11.8177 1.68181 13.4996 3.74916 13.4996H12.2497C14.3175 13.4996 15.9997 11.8174 15.9997 9.74963ZM9.06225 3.75038H6.96852C6.13928 3.71738 6.13991 2.53312 6.96852 2.5004H9.06225C9.89149 2.53343 9.89086 3.7177 9.06225 3.75038ZM9.68724 5.31286C9.68724 4.96768 9.40743 4.68787 9.06225 4.68787H6.96852C6.13928 4.72087 6.13991 5.90514 6.96852 5.93786H9.06225C9.40743 5.93786 9.68724 5.65805 9.68724 5.31286ZM8.43726 7.50034C8.43726 7.15516 8.15745 6.87535 7.81226 6.87535H6.96852C6.13928 6.90835 6.13991 8.09261 6.96852 8.12533H7.81226C8.15745 8.12533 8.43726 7.84552 8.43726 7.50034Z" fill="#23282E"/>
</g>
</g>
<defs>
<clipPath id="clip0">
<rect width="16" height="16" fill="white"/>
</clipPath>
</defs>
</svg>
