<svg width="56" height="56" viewBox="0 0 56 56" fill="none" xmlns="http://www.w3.org/2000/svg">
<rect width="56" height="56" rx="8" fill="#30C58F" fill-opacity="0.1"/>
<g clip-path="url(#clip0)">
<path d="M28.0003 21.3503C25.4875 21.3503 23.4434 23.3945 23.4434 25.9073C23.4434 28.42 25.4876 30.4642 28.0003 30.4642C30.513 30.4642 32.5572 28.42 32.5572 25.9073C32.5572 23.3946 30.513 21.3503 28.0003 21.3503ZM28.0003 28.439C26.6042 28.439 25.4687 27.3031 25.4687 25.9073C25.4687 24.5112 26.6042 23.3757 28.0003 23.3757C29.3964 23.3757 30.5319 24.5112 30.5319 25.9073C30.5319 27.3035 29.3964 28.439 28.0003 28.439Z" fill="#30C58F" stroke="#30C58F" stroke-width="0.2"/>
<path d="M27.9997 28.4052C24.2585 28.4052 21.2148 31.4489 21.2148 35.19V36.709C21.2148 37.2683 21.6682 37.7217 22.2275 37.7217C22.7868 37.7217 23.2402 37.2684 23.2402 36.709V35.19C23.2402 32.5655 25.3752 30.4305 27.9997 30.4305C30.6242 30.4305 32.7592 32.5659 32.7592 35.19V36.709C32.7592 37.2683 33.2125 37.7217 33.7719 37.7217C34.3312 37.7217 34.7846 37.2684 34.7846 36.709V35.19C34.7845 31.4489 31.7408 28.4052 27.9997 28.4052Z" fill="#30C58F" stroke="#30C58F" stroke-width="0.2"/>
<path d="M37.2151 18.2784C34.7024 18.2784 32.6582 20.3226 32.6582 22.8353C32.6582 25.348 34.7025 27.3922 37.2151 27.3922C39.7282 27.3922 41.7721 25.348 41.7721 22.8353C41.7721 20.3226 39.7279 18.2784 37.2151 18.2784ZM37.2151 25.3669C35.819 25.3669 34.6835 24.2314 34.6835 22.8353C34.6835 21.4392 35.819 20.3037 37.2151 20.3037C38.6113 20.3037 39.7468 21.4392 39.7468 22.8353C39.7468 24.2314 38.6113 25.3669 37.2151 25.3669Z" fill="#30C58F" stroke="#30C58F" stroke-width="0.2"/>
<path d="M37.2156 25.3331C34.1125 25.3331 31.4047 27.4364 30.6317 30.4484C30.4926 30.9898 30.819 31.5417 31.3604 31.6808C31.9022 31.8213 32.4537 31.4938 32.5928 30.9521C33.1363 28.836 35.0374 27.3585 37.2156 27.3585C39.8401 27.3585 41.9751 29.4939 41.9751 32.118V33.637C41.9751 34.1963 42.4284 34.6497 42.9878 34.6497C43.5471 34.6497 44.0005 34.1964 44.0004 33.637V32.118C44.0003 28.3769 40.9567 25.3331 37.2156 25.3331Z" fill="#30C58F" stroke="#30C58F" stroke-width="0.2"/>
<path d="M18.7835 18.2784C16.2707 18.2784 14.2266 20.3226 14.2266 22.8353C14.2266 25.348 16.2708 27.3922 18.7835 27.3922C21.2962 27.3922 23.3404 25.348 23.3404 22.8353C23.3404 20.3226 21.2962 18.2784 18.7835 18.2784ZM18.7835 25.3669C17.3874 25.3669 16.2519 24.2314 16.2519 22.8353C16.2519 21.4392 17.3874 20.3037 18.7835 20.3037C20.1796 20.3037 21.3151 21.4392 21.3151 22.8353C21.3151 24.2314 20.1796 25.3669 18.7835 25.3669Z" fill="#30C58F" stroke="#30C58F" stroke-width="0.2"/>
<path d="M25.3354 30.4147C24.5671 27.4226 21.8734 25.3332 18.7848 25.3332C15.0437 25.3331 12 28.3769 12 32.118V33.637C12 34.1963 12.4533 34.6497 13.0127 34.6497C13.572 34.6497 14.0254 34.1963 14.0254 33.637V32.118C14.0254 29.4938 16.1604 27.3584 18.7849 27.3584C20.9486 27.3584 22.8355 28.8221 23.3736 30.9183C23.5126 31.4597 24.0625 31.7851 24.6063 31.6474C25.148 31.5083 25.4744 30.9561 25.3354 30.4147Z" fill="#30C58F" stroke="#30C58F" stroke-width="0.2"/>
</g>
<defs>
<clipPath id="clip0">
<rect width="32" height="32" fill="white" transform="translate(12 12)"/>
</clipPath>
</defs>
</svg>
