<svg width="40" height="40" viewBox="0 0 40 40" fill="none" xmlns="http://www.w3.org/2000/svg">
<rect width="40" height="40" rx="6" fill="#E25569"/>
<path d="M21.7839 19.9812C22.1075 19.9812 22.3698 19.7189 22.3698 19.3953V15.1961C22.3698 14.9754 22.2457 14.7734 22.0489 14.6735L20 13.6343V11.7578C20 11.4342 19.7377 11.1719 19.4141 11.1719C19.0905 11.1719 18.8281 11.4342 18.8281 11.7578V16.4656C18.8281 16.7892 19.0905 17.0516 19.4141 17.0516C19.7377 17.0516 20 16.7892 20 16.4656V14.9483L21.1979 15.5559V18.8094H18.2865V18.2234C18.2865 17.5335 17.887 16.9352 17.3071 16.6476C17.1853 15.3873 16.4216 14.3124 15.3483 13.7532C15.7026 13.3545 15.9184 12.8302 15.9184 12.2562C15.9184 11.0121 14.9062 10 13.6621 10C12.418 10 11.4059 11.0121 11.4059 12.2562C11.4059 12.83 11.6215 13.3542 11.9756 13.7528C10.8028 14.3639 10 15.5913 10 17.0027V19.3953C10 19.7189 10.2623 19.9812 10.5859 19.9812H21.7839ZM16.5287 17.6375C16.8518 17.6375 17.1146 17.9004 17.1146 18.2234V18.8094H15.7475V17.6375H16.5287ZM12.5777 12.2562C12.5777 11.6583 13.0642 11.1719 13.6621 11.1719C14.26 11.1719 14.7465 11.6583 14.7465 12.2562C14.7465 12.8542 14.26 13.3406 13.6621 13.3406C13.0642 13.3406 12.5777 12.8541 12.5777 12.2562ZM11.1719 17.0027C11.1719 15.6296 12.289 14.5125 13.6621 14.5125C14.8509 14.5125 15.8477 15.3498 16.094 16.4656H12.9297C12.6061 16.4656 12.3438 16.728 12.3438 17.0516C12.3438 17.3752 12.6061 17.6375 12.9297 17.6375H14.5756V18.8094H11.1719V17.0027Z" fill="white"/>
<path d="M28.0244 23.7716C28.3785 23.373 28.5941 22.8488 28.5941 22.275C28.5941 21.0309 27.582 20.0188 26.3379 20.0188C25.0938 20.0188 24.0816 21.0309 24.0816 22.275C24.0816 22.849 24.2974 23.3733 24.6517 23.7719C23.5784 24.3311 22.8147 25.406 22.6929 26.6663C22.113 26.9539 21.7135 27.5523 21.7135 28.2422V28.8281H18.6328V25.5898L20 24.9588V26.4844C20 26.808 20.2623 27.0703 20.5859 27.0703C20.9095 27.0703 21.1719 26.808 21.1719 26.4844V21.7391C21.1719 21.4155 20.9095 21.1531 20.5859 21.1531C20.2623 21.1531 20 21.4155 20 21.7391V23.6681L17.8013 24.6829C17.5938 24.7786 17.4609 24.9864 17.4609 25.2149V29.4141C17.4609 29.7377 17.7233 30 18.0469 30H29.4141C29.7377 30 30 29.7377 30 29.4141V27.0215C30 25.61 29.1972 24.3827 28.0244 23.7716ZM25.2535 22.275C25.2535 21.6771 25.74 21.1906 26.3379 21.1906C26.9358 21.1906 27.4223 21.6771 27.4223 22.275C27.4223 22.8729 26.9358 23.3594 26.3379 23.3594C25.74 23.3594 25.2535 22.8729 25.2535 22.275ZM22.8854 28.2422C22.8854 27.9191 23.1482 27.6563 23.4713 27.6563H24.2525V28.8281H22.8854V28.2422ZM28.8281 28.8281H25.4244V27.6563H27.0703C27.3939 27.6563 27.6562 27.3939 27.6562 27.0703C27.6562 26.7467 27.3939 26.4844 27.0703 26.4844H23.906C24.1523 25.3686 25.1491 24.5313 26.3379 24.5313C27.711 24.5313 28.8281 25.6484 28.8281 27.0215V28.8281Z" fill="white"/>
</svg>
