<svg width="386" height="220" viewBox="0 0 386 220" fill="none" xmlns="http://www.w3.org/2000/svg">
<path d="M78.246 80.2574L77.8437 80.4586L77.0391 80.8609C76.5362 81.1626 76.0334 81.3637 75.5305 81.6655C74.6253 82.1683 73.6196 82.7718 72.7144 83.2746C70.9041 84.3809 69.1944 85.5878 67.5852 86.8953C64.3669 89.4096 61.3497 92.2257 58.6342 95.2429C55.9187 98.26 53.505 101.478 51.2923 104.898C49.0797 108.317 47.2694 111.837 45.5597 115.458C43.8499 119.079 42.5425 122.8 41.3356 126.521C40.8327 128.432 40.2293 130.242 39.827 132.153L39.123 134.969L38.6201 137.785C37.715 142.512 37.2121 147.239 36.9104 151.966V134.064C37.5138 130.443 38.7207 126.018 40.4304 120.99C42.9448 113.346 46.7665 104.496 50.9906 94.9411C54.4101 87.0964 57.3267 80.2574 60.0422 74.6253C62.7577 68.9932 65.4732 64.8697 67.6858 62.7577C65.4732 64.9703 61.4502 67.7864 56.9244 72.5133C52.4992 77.2402 47.6717 83.6769 44.0511 91.9239C39.9276 101.378 37.8155 110.631 36.9104 118.576V79.8551C37.5138 77.6425 38.7207 74.9271 40.4304 72.111C42.9448 67.6858 46.4648 62.8583 50.0855 57.3267C53.0021 52.8009 55.0136 48.3757 56.7233 44.6545C58.3325 40.9333 59.6399 38.0167 60.7462 36.4075C59.6399 38.0167 56.9244 39.7264 53.7061 42.3413C50.4878 44.9562 46.7665 48.3757 43.7494 53.3038C40.0281 59.1371 37.9161 65.3726 37.0109 70.6024V55.8181C38.0167 48.9792 40.2293 38.7207 40.2293 26.7525C40.2293 13.9797 36.4075 4.42522 36.4075 0C36.4075 4.52579 32.5857 14.0803 32.5857 26.7525C32.5857 38.6201 34.7983 48.9792 35.8041 55.8181V71.9099C34.7983 63.2606 32.5857 53.1027 28.0599 42.6431C24.1376 33.692 19.1089 26.6519 14.382 21.4221C9.75561 16.1923 5.53153 12.8734 2.91662 10.6608C5.43096 12.8734 8.24701 17.4997 11.1636 23.5341C14.0803 29.5685 17.2986 37.1115 21.0198 45.6603C25.5456 56.1199 29.468 65.7749 32.1834 74.1225C33.9937 79.5534 35.1001 84.4815 35.7035 88.4039V113.346C35.4018 110.228 34.8989 107.211 34.396 104.194C33.1892 97.3549 31.4794 90.717 29.3674 84.2804C27.2553 77.7431 24.8416 71.407 21.925 65.1714C20.5169 62.0537 18.9078 58.9359 17.2986 55.9187C15.5888 52.9015 13.7785 49.8843 11.4654 46.666C14.1808 50.2866 14.5831 54.1084 14.1808 57.8296C13.9797 59.6399 13.5774 61.4502 13.0745 63.16C12.5717 64.8697 11.8676 66.4789 11.2642 67.9875C10.359 70.2001 10.4596 71.8093 11.2642 73.2173C11.9682 74.6253 13.1751 75.7316 14.4826 76.8379C16.9969 79.0506 19.7123 81.062 17.8015 84.0792C15.9911 87.0964 13.7785 89.9125 13.9797 93.1308C14.0803 94.74 14.6837 96.5503 16.1923 98.5618C17.7009 100.674 20.1146 102.987 23.6347 106.004C25.8473 107.915 27.6576 110.027 29.3674 112.139C30.9765 114.251 32.284 116.363 33.3903 118.274C34.396 120.185 35.1001 121.794 35.6029 123.001C35.6029 123.102 35.6029 123.102 35.7035 123.102V151.564C35.6029 150.96 32.4851 132.958 21.8244 123.001C11.7671 113.648 2.41376 110.731 0 109.323C2.51433 110.731 16.5946 128.13 21.221 134.165C28.3617 143.417 35.8041 154.983 35.8041 167.857V206.678H36.9104V158.001C37.1115 156.894 37.4132 155.788 37.8155 154.682C38.6201 152.771 39.5253 151.061 40.7322 149.452C41.939 147.843 43.3471 146.535 44.7551 145.228C46.1631 144.021 47.6717 142.915 49.0797 141.909C51.0912 140.501 51.9964 138.892 52.1975 137.182C52.4992 135.472 52.0969 133.662 51.8958 131.952C51.6946 131.047 51.5941 130.142 51.4935 129.337C51.3929 128.533 51.3929 127.627 51.4935 126.923C51.6946 125.415 52.3987 124.208 54.1084 123.504C57.5279 122.196 61.048 121.492 63.2606 118.978C63.864 118.375 64.3669 117.57 64.6686 116.665C65.0709 115.76 65.3726 114.653 65.6743 113.346C66.1772 110.731 66.4789 107.312 66.8812 102.384C67.3841 96.3491 69.999 90.4153 72.815 86.3924C75.5305 82.3695 78.4471 80.0563 78.8494 79.8551L78.246 80.2574Z" fill="url(#paint0_linear)"/>
<path d="M324.248 107.412L324.55 107.613L325.153 107.915C325.555 108.116 325.958 108.317 326.36 108.518C327.064 108.921 327.869 109.323 328.573 109.826C329.981 110.731 331.288 111.636 332.596 112.642C335.11 114.653 337.524 116.866 339.636 119.179C341.748 121.593 343.659 124.107 345.368 126.722C347.078 129.337 348.587 132.153 349.894 134.969C351.202 137.785 352.207 140.702 353.213 143.719C353.615 145.228 354.118 146.636 354.42 148.144L354.923 150.357L355.325 152.569C356.029 156.291 356.431 160.012 356.733 163.733V149.653C356.23 146.837 355.325 143.317 354.018 139.394C352.006 133.36 349.09 126.42 345.771 118.877C343.055 112.742 340.742 107.312 338.63 102.886C336.518 98.4611 334.406 95.2427 332.596 93.533C334.305 95.2427 337.524 97.4554 341.044 101.177C344.463 104.898 348.285 109.926 351.202 116.464C354.42 123.906 356.13 131.147 356.834 137.383V107.01C356.331 105.3 355.426 103.188 354.118 100.975C352.107 97.5559 349.391 93.7341 346.575 89.3089C344.262 85.6883 342.653 82.2688 341.345 79.3522C340.038 76.4356 339.032 74.1224 338.127 72.8149C339.032 74.1224 341.144 75.4298 343.659 77.5419C346.173 79.5533 349.09 82.2688 351.503 86.0906C354.42 90.7169 356.13 95.5445 356.834 99.668V88.0015C356.029 82.6711 354.319 74.5247 354.319 65.1713C354.319 55.114 357.236 47.6716 357.236 44.1516C357.236 47.6716 360.153 55.2146 360.153 65.1713C360.153 74.5247 358.443 82.6711 357.638 88.0015V100.674C358.443 93.8347 360.153 85.8894 363.773 77.6424C366.891 70.6023 370.813 65.0708 374.535 60.9473C378.155 56.8238 381.575 54.2089 383.486 52.4991C381.474 54.2089 379.262 57.8295 376.948 62.657C374.635 67.384 372.121 73.3178 369.204 80.0562C365.684 88.3032 362.566 95.8462 360.454 102.484C359.046 106.809 358.141 110.63 357.638 113.748V133.36C357.94 130.946 358.242 128.532 358.644 126.119C359.549 120.788 360.957 115.559 362.566 110.429C364.176 105.3 366.187 100.372 368.4 95.4439C369.506 93.0301 370.713 90.6164 372.02 88.2026C373.428 85.7889 374.736 83.4757 376.647 80.9613C374.535 83.878 374.233 86.7946 374.535 89.7112C374.736 91.1192 375.037 92.5273 375.44 93.9353C375.842 95.2427 376.345 96.5502 376.848 97.7571C377.552 99.4668 377.451 100.774 376.848 101.881C376.345 102.987 375.339 103.892 374.333 104.697C372.322 106.406 370.21 108.016 371.719 110.429C373.127 112.742 374.836 115.056 374.736 117.57C374.635 118.877 374.233 120.285 373.026 121.895C371.92 123.504 369.908 125.415 367.193 127.728C365.382 129.236 363.974 130.846 362.667 132.555C361.36 134.165 360.354 135.874 359.549 137.383C358.745 138.892 358.242 140.199 357.839 141.104V141.205V163.633C357.94 163.13 360.354 149.049 368.802 141.205C376.647 133.863 383.989 131.55 386 130.443C384.089 131.55 372.925 145.228 369.305 149.955C363.673 157.196 357.839 166.348 357.839 176.405V206.98H357.035V168.359C356.834 167.454 356.633 166.549 356.331 165.745C355.727 164.236 354.923 162.929 354.018 161.621C353.012 160.414 352.006 159.308 350.9 158.302C349.794 157.296 348.587 156.492 347.48 155.687C345.871 154.581 345.268 153.374 345.067 151.966C344.866 150.659 345.167 149.251 345.368 147.843C345.469 147.139 345.57 146.434 345.67 145.73C345.771 145.026 345.771 144.423 345.67 143.82C345.57 142.613 344.966 141.708 343.558 141.205C340.843 140.199 338.127 139.596 336.317 137.584C335.814 137.081 335.512 136.478 335.211 135.774C334.909 135.07 334.607 134.165 334.406 133.159C334.004 131.147 333.802 128.432 333.4 124.61C332.998 119.783 330.986 115.257 328.774 112.038C326.561 108.82 324.349 107.11 323.946 106.909L324.248 107.412Z" fill="url(#paint1_linear)"/>
<path d="M133.964 194.207C135.573 201.146 138.087 208.991 140.601 216.333H182.339C183.244 213.316 184.25 209.997 185.055 206.577C190.184 186.563 184.753 169.365 179.926 161.521C175.098 153.676 170.874 144.423 178.316 132.958C185.759 121.492 186.463 112.642 186.463 112.642C185.356 108.317 182.038 106.809 173.288 102.685C173.288 102.685 172.785 102.484 171.98 102.283C170.17 109.826 166.248 115.86 159.308 117.067C150.256 118.676 142.11 113.145 137.986 103.49C133.964 104.697 129.538 105.904 127.426 107.11C127.426 107.11 138.489 131.147 140.601 144.725C142.613 158.202 128.935 172.885 133.964 194.207Z" fill="url(#paint2_linear)"/>
<path d="M159.207 116.967C166.147 115.76 170.069 109.725 171.88 102.182C168.963 101.177 162.124 98.8636 160.213 97.8578C157.799 96.6509 158.503 86.7948 158.503 86.7948L145.63 90.4154C145.63 94.8406 145.63 98.2601 145.63 99.9699C145.63 100.875 142.009 101.981 137.785 103.289C142.009 113.044 150.156 118.576 159.207 116.967Z" fill="url(#paint3_linear)"/>
<path d="M158.503 86.9959L145.63 90.6166C145.63 94.0361 145.63 96.8521 145.63 98.763C151.061 101.68 157.095 107.111 159.207 117.067C166.147 115.86 169.969 109.826 171.88 102.283C168.963 101.277 162.124 98.9641 160.213 97.9584C157.799 96.8521 158.503 86.9959 158.503 86.9959Z" fill="#CB9EAE"/>
<path d="M166.449 146.636C160.716 148.345 155.285 150.357 152.469 150.357C146.837 150.357 138.389 142.412 134.466 147.239C130.544 152.067 129.941 155.285 133.058 157.498C136.176 159.61 146.032 156.693 150.759 157.598C152.871 158 160.012 158.403 167.656 158.302C168.259 155.285 168.158 149.653 166.449 146.636Z" fill="url(#paint4_linear)"/>
<path d="M186.664 112.642C185.356 107.312 174.394 117.067 177.109 126.018C179.423 133.662 178.618 143.92 178.618 143.92L189.379 154.782C192.899 150.357 187.77 116.967 186.664 112.642Z" fill="url(#paint5_linear)"/>
<path d="M182.138 144.021C178.015 143.417 172.081 144.926 166.449 146.736C168.158 149.754 168.259 155.386 167.656 158.403C177.109 158.302 187.267 157.397 189.279 154.883C189.279 154.782 194.106 145.731 182.138 144.021Z" fill="url(#paint6_linear)"/>
<path d="M142.713 72.1109C140.501 76.5361 140.702 91.4209 146.937 92.7284C152.368 93.9353 155.486 88.6049 155.486 88.6049V78.7487C155.486 78.7487 152.368 77.1395 151.966 73.3178C151.664 70.3006 149.854 69.9988 149.854 69.9988C149.854 69.9988 146.032 72.312 142.713 72.1109Z" fill="url(#paint7_linear)"/>
<path d="M132.958 144.624C130.142 138.892 128.231 131.751 126.622 127.728C123.504 120.084 123.001 109.424 127.326 107.01C135.271 102.886 138.69 116.967 139.193 120.99C139.696 125.013 140.802 134.567 143.82 137.986L132.958 144.624Z" fill="url(#paint8_linear)"/>
<path d="M168.259 95.3434C162.828 91.9239 168.862 73.3178 159.811 66.1771C152.368 60.2433 140.501 64.6686 140.501 75.8322C140.501 80.358 140.501 95.7457 140.501 102.484C143.417 101.579 145.63 100.674 145.63 99.9698V92.3262V92.125C140.702 89.0073 140.601 76.1339 142.713 72.0104C146.133 72.111 149.854 69.8984 149.854 69.8984C149.854 69.8984 151.664 70.2001 151.966 73.2173C152.368 77.0391 155.486 78.6482 155.486 78.6482V88.5044C155.486 97.7571 157.699 107.915 163.029 108.518C168.36 109.122 169.265 102.082 173.288 102.585C173.187 102.685 173.69 98.7629 168.259 95.3434Z" fill="#001462"/>
<path d="M140.702 131.147C137.785 135.17 133.159 138.69 132.958 144.624C135.472 149.653 138.69 153.575 143.216 153.072C149.854 152.368 152.167 144.524 152.972 137.383C148.547 137.685 142.915 134.165 140.702 131.147Z" fill="url(#paint9_linear)"/>
<path d="M150.759 94.7399C149.452 95.3433 145.027 99.2657 145.027 100.171C145.027 101.177 147.038 108.518 147.038 110.731C147.038 112.944 145.027 122.8 142.311 128.532C141.909 129.438 141.406 130.242 140.802 131.047C143.015 134.064 148.647 137.584 153.072 137.182C153.374 133.963 153.475 130.946 153.475 128.734C153.475 128.734 153.978 112.34 154.682 111.234C155.386 110.128 155.386 108.418 155.386 106.909C155.386 104.093 155.386 103.892 155.386 103.892C155.386 103.892 156.391 103.791 156.492 102.082C156.492 101.981 156.492 101.981 156.492 101.881C156.291 100.07 151.966 94.237 150.759 94.7399Z" fill="url(#paint10_linear)"/>
<path d="M259.378 101.981C259.378 117.872 259.378 149.754 259.378 149.754C259.378 149.754 275.269 150.257 274.867 149.754C274.364 149.251 274.867 127.527 274.867 127.527L259.378 101.981Z" fill="url(#paint11_linear)"/>
<path d="M290.858 154.883C292.165 163.834 291.361 173.992 290.858 177.813C290.355 181.635 278.99 216.031 278.99 216.031H306.648L314.291 179.624L304.234 151.765L290.858 154.883Z" fill="url(#paint12_linear)"/>
<path d="M290.858 154.883C292.165 163.834 291.361 173.992 290.858 177.813C290.355 181.635 276.777 216.333 276.777 216.333H306.648L314.291 179.624L304.234 151.765L290.858 154.883Z" fill="url(#paint13_linear)"/>
<path d="M323.443 145.429C327.466 158.202 345.771 162.325 340.742 182.943C337.121 197.828 329.679 216.434 329.679 216.434H295.182C295.182 216.434 306.044 184.049 306.044 179.725C306.044 175.4 299.205 153.374 299.205 153.374L323.443 145.429Z" fill="url(#paint14_linear)"/>
<path d="M264.91 91.22C260.887 93.1308 257.166 101.78 260.887 109.927C264.608 118.073 265.111 116.564 266.519 123.001C267.927 129.337 267.424 132.857 278.99 140.803C290.657 148.748 290.254 150.86 290.858 154.883C291.361 158.906 324.147 158.101 323.645 142.915C323.142 127.728 323.946 110.228 314.191 101.981C304.435 93.6337 264.91 91.22 264.91 91.22Z" fill="url(#paint15_linear)"/>
<path d="M260.887 72.4128V117.972C260.887 117.972 277.381 109.122 277.28 100.473C277.18 91.8235 269.838 72.5134 269.838 72.5134H260.887V72.4128Z" fill="#001462"/>
<path d="M272.453 99.7687C272.453 99.7687 274.665 103.289 275.369 104.898C276.074 106.407 272.755 113.245 273.861 118.978C274.967 124.811 282.108 123.806 283.717 118.978C284.22 117.57 285.527 107.211 285.527 107.211V90.2142L272.453 99.7687Z" fill="url(#paint16_linear)"/>
<path d="M275.47 104.797C280.096 99.5676 284.924 121.593 277.28 122.699C277.28 122.699 277.28 122.699 277.381 122.699L278.487 122.8C280.7 122.8 283.114 121.291 283.918 118.777C284.421 117.369 285.728 107.01 285.728 107.01V90.0131L272.654 99.5676C272.453 99.7687 274.665 103.289 275.47 104.797Z" fill="#CB9EAE"/>
<path d="M262.798 71.1054C260.585 85.0851 262.999 98.059 269.737 99.5676C276.476 101.076 286.131 93.7344 286.131 87.1971C286.131 80.6599 292.668 63.663 285.226 59.8412C277.884 55.9189 264.206 62.255 262.798 71.1054Z" fill="url(#paint17_linear)"/>
<path d="M268.53 69.8985C268.53 69.8985 265.01 72.8151 262.395 74.4243C259.781 75.9329 260.485 67.0825 265.413 62.959C270.441 58.8355 276.979 55.2148 279.694 57.6286C279.694 57.6286 288.042 55.3154 293.07 63.8641C298.099 72.4128 298.501 80.0564 300.11 82.1685C301.72 84.2805 304.335 85.5879 303.128 89.6109C303.128 89.6109 311.978 87.8006 313.386 93.9355C314.694 100.07 314.291 102.082 314.291 102.082C314.291 102.082 311.576 99.9699 305.843 97.9585C305.843 97.9585 302.021 100.976 298.401 100.976C294.78 100.976 290.154 115.659 283.818 115.659L283.717 80.6599C283.717 80.5593 269.234 78.6484 268.53 69.8985Z" fill="#001462"/>
<path d="M187.468 144.222C170.673 161.722 156.291 215.025 156.291 215.025H180.328L195.414 179.624L187.468 144.222Z" fill="url(#paint18_linear)"/>
<path d="M274.867 147.138C271.347 143.116 252.64 130.041 228.804 131.449C207.784 132.757 190.787 139.193 187.468 144.222C185.055 147.943 190.385 172.885 194.006 182.741C197.727 192.698 199.336 203.258 199.336 212.31C199.336 212.31 258.775 212.008 259.077 212.31C259.378 212.612 266.418 190.385 267.424 179.322C268.329 168.259 266.318 156.09 274.867 147.138Z" fill="url(#paint19_linear)"/>
<path d="M242.683 110.832C242.683 110.832 242.985 129.337 242.683 134.869C242.381 140.4 233.833 145.328 230.715 145.529C227.497 145.63 220.557 141.004 219.451 133.159V116.464L242.683 110.832Z" fill="url(#paint20_linear)"/>
<path d="M242.784 120.788C242.784 115.458 242.683 110.731 242.683 110.731L219.35 116.262V129.94C221.261 138.489 234.235 136.176 237.252 128.03C239.063 123.403 240.471 122.096 242.784 120.788Z" fill="#CB9EAE"/>
<path d="M213.115 103.59C214.02 117.168 219.551 130.242 228.201 128.834C239.063 127.124 242.381 110.63 241.879 101.679C241.476 92.7283 236.347 87.0962 228.603 87.0962C221.261 87.1968 212.411 92.1249 213.115 103.59Z" fill="url(#paint21_linear)"/>
<path d="M244.594 108.116C243.991 110.832 242.683 112.843 241.677 112.642C240.672 112.441 240.269 110.128 240.873 107.412C241.476 104.697 242.784 102.685 243.789 102.886C244.795 103.087 245.097 105.401 244.594 108.116Z" fill="url(#paint22_linear)"/>
<path d="M213.316 105.702C211.707 103.188 211.505 102.182 211.707 97.9582C211.807 93.7341 215.327 93.6336 215.327 91.8232C215.227 90.0129 217.54 85.1854 226.893 84.7831C236.246 84.3808 235.643 88.7055 238.56 89.0072C241.476 89.3089 245.901 92.2255 243.789 102.886C243.789 102.886 241.275 103.087 240.269 108.217C240.169 108.619 239.666 108.72 239.465 108.418C239.163 108.016 238.861 107.312 238.56 106.406C237.856 103.791 235.04 107.714 234.537 102.585C234.134 98.9639 225.284 105.602 218.646 99.6679C218.646 99.6679 217.64 100.975 214.824 100.875C213.215 100.975 213.316 105.702 213.316 105.702Z" fill="#001462"/>
<path d="M219.35 154.681C219.35 154.681 220.155 155.687 221.563 153.474C222.971 151.261 227.899 144.624 229.609 145.227C226.189 144.523 220.356 139.997 219.35 132.957V132.354C216.635 132.756 213.919 133.158 211.505 133.762C210.801 137.684 213.718 150.356 219.35 154.681Z" fill="#B62E39"/>
<path d="M242.683 134.768C242.382 139.596 235.945 143.92 232.123 145.127C233.933 144.423 240.471 153.073 241.577 154.983C242.683 156.894 244.795 154.279 246.907 149.05C248.416 145.228 250.729 138.59 249.723 133.863C247.511 133.26 245.198 132.757 242.683 132.254C242.683 133.26 242.683 134.064 242.683 134.768Z" fill="#B62E39"/>
<path d="M219.35 132.958V128.935C215.83 130.443 212.612 131.751 212.31 133.762C211.606 137.685 214.724 149.049 219.35 153.072C219.35 153.072 220.155 154.078 221.563 151.865C222.971 149.653 227.899 144.624 229.609 145.328C226.189 144.524 220.356 140.098 219.35 132.958Z" fill="url(#paint23_linear)"/>
<path d="M248.516 132.254C247.511 130.041 244.393 128.331 242.784 127.527C242.784 130.443 242.784 133.159 242.683 134.668C242.381 139.495 235.945 143.82 232.123 145.027C233.933 144.323 240.47 151.262 241.577 153.173C242.683 155.084 244.091 152.871 246.404 147.641C248.818 142.512 250.025 135.874 248.516 132.254Z" fill="url(#paint24_linear)"/>
<path d="M286.332 201.247C286.332 185.96 281.907 155.184 274.766 147.139C274.766 147.139 263.703 153.072 260.183 171.88C259.177 177.512 260.887 193.503 261.39 200.342L286.332 201.247Z" fill="url(#paint25_linear)"/>
<path d="M243.186 216.333C243.186 216.333 271.849 216.333 276.777 216.333C281.806 216.333 287.136 212.31 286.332 201.247C285.628 190.184 267.525 191.793 261.39 200.241L242.884 203.057L243.186 216.333Z" fill="url(#paint26_linear)"/>
<path d="M226.189 215.729L227.798 214.221L232.626 215.93C233.43 216.232 234.336 216.333 235.241 216.333H244.795C244.795 216.333 249.321 215.327 249.522 209.997C249.623 204.666 245.097 203.057 243.085 203.057H232.525C232.022 203.057 231.52 202.957 230.916 202.856L223.474 201.247C222.367 201.046 221.261 201.247 220.255 201.75L216.031 204.163C215.227 204.666 214.422 205.169 213.819 205.873L206.075 213.617C205.069 214.623 205.773 216.232 207.181 216.232H224.58C225.183 216.333 225.787 216.132 226.189 215.729Z" fill="url(#paint27_linear)"/>
<path d="M315.398 103.892C308.156 99.7686 295.585 111.536 298.3 125.616C301.016 139.596 285.628 156.995 285.628 156.995C285.628 156.995 268.229 164.035 261.189 165.342C262.898 167.756 264.809 171.276 265.614 175.802C277.079 174.897 293.473 172.483 300.111 166.951C310.168 158.604 320.829 127.728 320.829 117.972C320.829 106.507 315.398 103.892 315.398 103.892Z" fill="url(#paint28_linear)"/>
<path d="M259.378 165.443C254.35 165.443 236.85 165.443 236.85 165.443C236.85 165.443 220.758 170.874 220.356 171.779C219.954 172.684 219.149 178.216 220.356 179.523C221.563 180.83 229.81 183.144 231.821 182.741C233.933 182.339 250.226 176.305 253.947 176.305C255.255 176.305 259.781 176.204 265.614 175.701C264.709 171.175 262.798 167.555 261.189 165.242C260.485 165.443 259.781 165.443 259.378 165.443Z" fill="url(#paint29_linear)"/>
<path d="M114.955 150.558C114.955 150.558 120.587 154.983 126.421 150.558C132.153 146.133 128.231 138.489 128.231 138.489L115.056 145.529V150.558H114.955Z" fill="url(#paint30_linear)"/>
<path d="M123.102 108.619V142.009H112.139V110.429L123.102 108.619Z" fill="url(#paint31_linear)"/>
<path d="M105.3 191.693C104.294 197.224 98.3605 205.069 94.5387 216.434H116.162C118.274 202.856 120.084 184.652 117.168 168.36H104.697C105.903 173.791 106.306 186.463 105.3 191.693Z" fill="url(#paint32_linear)"/>
<path d="M84.5819 190.486C84.5819 190.486 87.0962 202.655 88.806 216.434H94.5387C98.3604 205.169 104.294 197.325 105.3 191.693C106.306 186.463 105.803 173.891 104.697 168.36H85.1853L84.5819 190.486Z" fill="url(#paint33_linear)"/>
<path d="M104.697 168.359C104.596 167.655 104.395 167.052 104.194 166.65H66.6799C67.1828 184.753 68.5908 202.655 69.496 216.433H94.5387C98.3605 205.169 104.294 197.325 105.3 191.692C106.306 186.463 105.903 173.79 104.697 168.359Z" fill="url(#paint34_linear)"/>
<path d="M92.326 78.8494C70.0994 72.9156 55.114 82.7717 52.7002 97.0531C50.4876 110.027 66.7805 150.357 66.7805 166.549C66.7805 166.549 93.1306 180.127 117.268 168.259C117.268 168.259 113.648 150.96 117.268 135.673C120.889 120.386 125.716 111.636 121.593 100.674C117.972 91.2199 102.685 81.6654 92.326 78.8494Z" fill="url(#paint35_linear)"/>
<path d="M100.573 64.1658C100.573 64.1658 92.2256 74.726 88.7055 78.0449C85.1855 81.3638 91.7227 88.3034 96.6508 91.22C99.9697 93.1309 106.809 95.2429 104.797 89.3091C104.797 89.3091 103.691 85.9902 109.222 81.1627C109.122 81.1627 102.987 62.6572 100.573 64.1658Z" fill="url(#paint36_linear)"/>
<path d="M109.122 81.1625C109.122 81.1625 106.205 72.6138 103.691 67.5851L100.975 68.8926C97.7571 75.4298 97.2542 87.6998 104.697 89.3089C104.697 89.3089 103.59 85.8895 109.122 81.1625Z" fill="#CB9EAE"/>
<path d="M103.892 62.2547C104.596 58.2318 100.975 57.9301 99.8692 61.249C98.5617 65.0708 99.9698 67.7862 101.478 66.8811C101.478 66.8811 98.6623 75.5304 102.182 80.7602C105.803 85.99 110.429 83.9785 116.162 78.3464C121.09 73.5189 124.308 67.4845 124.811 65.2719C126.119 59.3381 119.883 54.41 114.05 54.8123C107.01 55.114 103.892 62.2547 103.892 62.2547Z" fill="url(#paint37_linear)"/>
<path d="M103.892 62.2548C103.691 64.6686 104.093 66.4789 105.401 65.6743C106.809 64.8697 110.128 60.1428 113.044 63.5623C116.061 66.9817 118.475 70.2001 123.806 69.5966C130.645 68.8926 132.254 59.5393 126.219 57.8296C126.219 57.8296 128.834 54.6112 124.208 53.1026C119.883 51.6946 119.783 52.5998 116.765 49.1803C115.056 47.2694 104.697 48.2751 101.881 58.9359C101.881 59.137 104.194 58.6342 103.892 62.2548Z" fill="#001462"/>
<path d="M69.7978 131.047C69.9989 126.421 72.9155 114.452 76.9385 106.708C80.9614 99.0647 78.9499 89.2085 73.519 85.2861C68.088 81.4643 60.4445 82.1684 56.8238 87.4987C47.0682 101.881 49.8843 134.165 55.2147 145.127C56.2204 147.34 58.7347 148.748 62.1542 149.552C54.7118 146.133 62.1542 129.237 69.7978 131.047Z" fill="url(#paint38_linear)"/>
<path d="M98.4612 144.122L113.044 126.521C113.648 125.717 114.653 125.415 115.659 125.717L140.4 132.556C141.004 132.757 141.205 133.461 140.702 133.964L121.995 150.759C121.593 151.162 121.09 151.262 120.487 151.162L99.0646 146.133C98.26 145.932 97.9583 144.826 98.4612 144.122Z" fill="url(#paint39_linear)"/>
<path d="M115.961 137.182C115.156 134.768 112.642 132.958 111.234 132.555C110.228 132.254 102.585 132.354 98.4613 132.455C96.8521 132.455 95.3435 132.958 93.9355 133.762C92.628 134.567 91.0188 135.472 90.2143 135.472C88.8062 135.472 77.3409 135.472 77.3409 135.472C77.3409 135.472 73.8208 132.757 69.6973 130.946C61.9532 129.136 54.6113 146.032 61.9532 149.452C74.4243 152.569 98.9641 148.044 109.223 144.524C111.536 143.719 113.547 142.311 114.955 140.3C115.76 139.294 116.263 138.087 115.961 137.182Z" fill="url(#paint40_linear)"/>
<path d="M28.6633 216.333L70.0995 216.132L111.435 216.031L194.307 215.83L277.079 216.031L318.515 216.132L359.952 216.333L318.515 216.635L277.079 216.735L194.307 216.836L111.435 216.735L70.0995 216.635L28.6633 216.333Z" fill="#001462"/>
<path d="M203.46 219.149H238.761C240.772 219.149 242.381 217.54 242.381 215.528C242.381 214.623 241.677 213.819 240.672 213.819H203.46C202.554 213.819 201.75 214.523 201.75 215.528V217.54C201.85 218.445 202.554 219.149 203.46 219.149Z" fill="url(#paint41_linear)"/>
<path d="M141.004 219.149H214.724C217.54 219.149 219.652 216.433 218.847 213.718L205.873 166.348C205.069 163.23 202.253 161.118 199.034 161.118H125.314C122.498 161.118 120.386 163.834 121.191 166.549L134.165 213.919C134.969 217.037 137.785 219.149 141.004 219.149Z" fill="url(#paint42_linear)"/>
<path d="M357.337 182.44C356.23 182.741 354.722 183.948 353.012 185.658C351.302 187.267 349.391 189.178 347.078 190.988C345.67 192.095 344.262 193.1 342.854 194.106C341.547 195.112 340.239 196.017 339.032 197.023C336.719 198.934 334.909 200.744 334.305 202.051C334.909 200.643 335.211 198.129 336.317 195.112C336.92 193.603 337.725 191.994 338.831 190.284C339.938 188.675 341.346 187.167 343.055 185.759C345.972 183.647 349.09 182.842 351.705 182.641C354.319 182.44 356.23 182.741 357.337 182.44Z" fill="#D34F59"/>
<path d="M333.4 200.945C333.501 199.537 332.797 197.325 332.394 194.408C331.892 191.491 331.69 187.871 332.596 183.948C333.702 179.121 335.814 175.098 337.825 171.88C339.837 168.661 341.748 166.348 342.452 164.739C341.748 166.348 341.346 169.365 340.943 172.986C340.541 176.607 340.038 180.931 339.032 185.356C338.228 189.078 336.82 192.195 335.713 194.81C334.507 197.526 333.501 199.537 333.4 200.945Z" fill="#D34F59"/>
<path d="M312.883 177.21C313.99 177.713 316.102 177.713 318.717 178.517C321.331 179.221 324.449 180.73 327.064 183.546C330.182 187.066 331.691 191.089 332.294 194.509C332.998 197.928 332.797 200.643 333.099 202.152C332.797 200.543 331.288 198.23 329.277 195.816C327.265 193.302 324.65 190.787 322.136 187.871C320.024 185.558 318.415 183.144 316.906 181.132C315.498 179.221 313.99 177.713 312.883 177.21Z" fill="#D34F59"/>
<path d="M346.676 193.101H324.852C323.745 193.101 322.84 194.106 322.941 195.213L325.556 217.439C325.656 218.445 326.461 219.149 327.466 219.149H343.96C344.966 219.149 345.771 218.445 345.871 217.439L348.486 195.213C348.687 194.106 347.782 193.101 346.676 193.101Z" fill="url(#paint43_linear)"/>
<path d="M321.834 193.101L322.84 201.348C322.941 201.85 323.242 202.152 323.745 202.152H347.682C348.185 202.152 348.486 201.85 348.587 201.348L349.593 193.101C349.693 192.598 349.19 192.095 348.687 192.095H322.74C322.237 192.095 321.834 192.598 321.834 193.101Z" fill="url(#paint44_linear)"/>
<defs>
<linearGradient id="paint0_linear" x1="39.1229" y1="-7.67351" x2="39.1229" y2="198.13" gradientUnits="userSpaceOnUse">
<stop offset="0.2372" stop-color="#F27F88"/>
<stop offset="1" stop-color="#F99CA4" stop-opacity="0"/>
</linearGradient>
<linearGradient id="paint1_linear" x1="354.736" y1="38.1061" x2="354.736" y2="200.245" gradientUnits="userSpaceOnUse">
<stop offset="0.2372" stop-color="#F27F88"/>
<stop offset="1" stop-color="#F99CA4" stop-opacity="0"/>
</linearGradient>
<linearGradient id="paint2_linear" x1="157.264" y1="86.3279" x2="144.643" y2="260.416" gradientUnits="userSpaceOnUse">
<stop stop-color="#E55B66"/>
<stop offset="0.2793" stop-color="#E86570"/>
<stop offset="0.7702" stop-color="#B62E39"/>
<stop offset="0.9908" stop-color="#DE1323"/>
</linearGradient>
<linearGradient id="paint3_linear" x1="165.761" y1="93.1027" x2="147.819" y2="109.25" gradientUnits="userSpaceOnUse">
<stop stop-color="#F6B3B5"/>
<stop offset="1" stop-color="#FAD1D3"/>
</linearGradient>
<linearGradient id="paint4_linear" x1="144.509" y1="144.175" x2="151.972" y2="156.168" gradientUnits="userSpaceOnUse">
<stop stop-color="#F6B3B5"/>
<stop offset="1" stop-color="#FAD1D3"/>
</linearGradient>
<linearGradient id="paint5_linear" x1="183.634" y1="105.019" x2="175.771" y2="171.07" gradientUnits="userSpaceOnUse">
<stop stop-color="#E55B66"/>
<stop offset="0.2793" stop-color="#E85D68"/>
<stop offset="0.879623" stop-color="#B62E39"/>
<stop offset="0.9908" stop-color="#DE1323"/>
</linearGradient>
<linearGradient id="paint6_linear" x1="178.34" y1="141.855" x2="177.825" y2="164.119" gradientUnits="userSpaceOnUse">
<stop stop-color="#E55B66"/>
<stop offset="0.2793" stop-color="#E86570"/>
<stop offset="0.7702" stop-color="#B62E39"/>
<stop offset="0.9908" stop-color="#DE1323"/>
</linearGradient>
<linearGradient id="paint7_linear" x1="152.362" y1="67.4406" x2="143.75" y2="100.541" gradientUnits="userSpaceOnUse">
<stop stop-color="#F6B3B5"/>
<stop offset="1" stop-color="#FAD1D3"/>
</linearGradient>
<linearGradient id="paint8_linear" x1="133.997" y1="100.895" x2="129.657" y2="159.438" gradientUnits="userSpaceOnUse">
<stop stop-color="#E55B66"/>
<stop offset="0.2793" stop-color="#E86570"/>
<stop offset="0.7702" stop-color="#B62E39"/>
<stop offset="0.9908" stop-color="#DE1323"/>
</linearGradient>
<linearGradient id="paint9_linear" x1="142.961" y1="128.074" x2="141.559" y2="161.725" gradientUnits="userSpaceOnUse">
<stop stop-color="#E55B66"/>
<stop offset="0.2793" stop-color="#E86570"/>
<stop offset="0.7702" stop-color="#B62E39"/>
<stop offset="0.9908" stop-color="#DE1323"/>
</linearGradient>
<linearGradient id="paint10_linear" x1="134.849" y1="116.037" x2="157.958" y2="116.037" gradientUnits="userSpaceOnUse">
<stop stop-color="#F6B3B5"/>
<stop offset="1" stop-color="#FAD1D3"/>
</linearGradient>
<linearGradient id="paint11_linear" x1="267.022" y1="161.301" x2="268.475" y2="88.5323" gradientUnits="userSpaceOnUse">
<stop stop-color="#E55B66"/>
<stop offset="0.2793" stop-color="#E86570"/>
<stop offset="0.7702" stop-color="#B62E39"/>
<stop offset="0.9908" stop-color="#DE1323"/>
</linearGradient>
<linearGradient id="paint12_linear" x1="296.406" y1="231.232" x2="297.171" y2="133.92" gradientUnits="userSpaceOnUse">
<stop stop-color="#001462"/>
<stop offset="0.0686931" stop-color="#081E71"/>
<stop offset="0.2519" stop-color="#193595"/>
<stop offset="0.4371" stop-color="#2748B0"/>
<stop offset="0.623" stop-color="#3055C4"/>
<stop offset="0.8101" stop-color="#365CD0"/>
<stop offset="1" stop-color="#385FD4"/>
</linearGradient>
<linearGradient id="paint13_linear" x1="295.525" y1="139.441" x2="295.525" y2="230.208" gradientUnits="userSpaceOnUse">
<stop stop-color="#F27F88"/>
<stop offset="0.1702" stop-color="#F06B76"/>
<stop offset="0.397" stop-color="#E0656F"/>
<stop offset="0.616" stop-color="#E08088"/>
<stop offset="0.8215" stop-color="#FA98A0"/>
<stop offset="1" stop-color="#FFABB2"/>
</linearGradient>
<linearGradient id="paint14_linear" x1="318.385" y1="131.877" x2="318.385" y2="231.692" gradientUnits="userSpaceOnUse">
<stop stop-color="#F27F88"/>
<stop offset="0.1702" stop-color="#F06B76"/>
<stop offset="0.397" stop-color="#F47680"/>
<stop offset="0.616" stop-color="#FF979F"/>
<stop offset="0.8215" stop-color="#FC9BA3"/>
<stop offset="1" stop-color="#FFABB2"/>
</linearGradient>
<linearGradient id="paint15_linear" x1="396.895" y1="124.29" x2="221.042" y2="124.29" gradientUnits="userSpaceOnUse">
<stop stop-color="#ECA3A9"/>
<stop offset="0.0887661" stop-color="#F5989F"/>
<stop offset="0.2454" stop-color="#E6737B"/>
<stop offset="0.4514" stop-color="#DB6C74"/>
<stop offset="0.6991" stop-color="#EE838B"/>
<stop offset="0.9793" stop-color="#F0B1B7"/>
<stop offset="1" stop-color="#F6B3B5"/>
</linearGradient>
<linearGradient id="paint16_linear" x1="286.747" y1="103.83" x2="270.49" y2="115.29" gradientUnits="userSpaceOnUse">
<stop stop-color="#F6B3B5"/>
<stop offset="0.9914" stop-color="#FAD1D3"/>
</linearGradient>
<linearGradient id="paint17_linear" x1="277.084" y1="76.4737" x2="264.824" y2="91.1317" gradientUnits="userSpaceOnUse">
<stop stop-color="#F6B3B5"/>
<stop offset="0.9914" stop-color="#FAD1D3"/>
</linearGradient>
<linearGradient id="paint18_linear" x1="239.981" y1="179.845" x2="132.98" y2="179.845" gradientUnits="userSpaceOnUse">
<stop stop-color="#ECA3A9"/>
<stop offset="0.0887661" stop-color="#F5989F"/>
<stop offset="0.2454" stop-color="#E6737B"/>
<stop offset="0.4514" stop-color="#DB6C74"/>
<stop offset="0.6991" stop-color="#EE838B"/>
<stop offset="0.9793" stop-color="#F0B1B7"/>
<stop offset="1" stop-color="#F6B3B5"/>
</linearGradient>
<linearGradient id="paint19_linear" x1="375.118" y1="172.082" x2="134.425" y2="172.082" gradientUnits="userSpaceOnUse">
<stop stop-color="#ECA3A9"/>
<stop offset="0.0887661" stop-color="#F5989F"/>
<stop offset="0.2454" stop-color="#E6737B"/>
<stop offset="0.4514" stop-color="#DB6C74"/>
<stop offset="0.6991" stop-color="#EE838B"/>
<stop offset="0.9793" stop-color="#F0B1B7"/>
<stop offset="1" stop-color="#F6B3B5"/>
</linearGradient>
<linearGradient id="paint20_linear" x1="246.414" y1="122.56" x2="216.032" y2="134.553" gradientUnits="userSpaceOnUse">
<stop stop-color="#F6B3B5"/>
<stop offset="0.9914" stop-color="#FAD1D3"/>
</linearGradient>
<linearGradient id="paint21_linear" x1="229.528" y1="82.844" x2="225.263" y2="127.617" gradientUnits="userSpaceOnUse">
<stop stop-color="#F6B3B5"/>
<stop offset="0.9914" stop-color="#FAD1D3"/>
</linearGradient>
<linearGradient id="paint22_linear" x1="225.182" y1="168.998" x2="244.111" y2="102.747" gradientUnits="userSpaceOnUse">
<stop stop-color="#8CC6FF"/>
<stop offset="1" stop-color="#F6B3B5"/>
</linearGradient>
<linearGradient id="paint23_linear" x1="220.919" y1="192.1" x2="220.919" y2="111.841" gradientUnits="userSpaceOnUse">
<stop stop-color="#F98E9D"/>
<stop offset="1" stop-color="#D44F5A"/>
</linearGradient>
<linearGradient id="paint24_linear" x1="240.661" y1="195.771" x2="240.661" y2="109.058" gradientUnits="userSpaceOnUse">
<stop stop-color="#F98E9D"/>
<stop offset="1" stop-color="#D44F5A"/>
</linearGradient>
<linearGradient id="paint25_linear" x1="273.147" y1="2.76651" x2="273.147" y2="340.946" gradientUnits="userSpaceOnUse">
<stop stop-color="#F27F88"/>
<stop offset="0.579447" stop-color="#FA909F"/>
</linearGradient>
<linearGradient id="paint26_linear" x1="264.681" y1="2.76651" x2="264.681" y2="340.946" gradientUnits="userSpaceOnUse">
<stop offset="0.565434" stop-color="#F98F9E"/>
<stop offset="0.724256" stop-color="#C84C55"/>
</linearGradient>
<linearGradient id="paint27_linear" x1="227.596" y1="217.477" x2="227.596" y2="198.805" gradientUnits="userSpaceOnUse">
<stop stop-color="#F6B3B5"/>
<stop offset="0.9914" stop-color="#FAD1D3"/>
</linearGradient>
<linearGradient id="paint28_linear" x1="290.608" y1="192.965" x2="291.475" y2="82.6357" gradientUnits="userSpaceOnUse">
<stop stop-color="#E55B66"/>
<stop offset="0.2793" stop-color="#E86570"/>
<stop offset="0.7702" stop-color="#B62E39"/>
<stop offset="0.9908" stop-color="#DE1323"/>
</linearGradient>
<linearGradient id="paint29_linear" x1="247.247" y1="189.933" x2="238.719" y2="165.148" gradientUnits="userSpaceOnUse">
<stop stop-color="#F6B3B5"/>
<stop offset="0.9914" stop-color="#FAD1D3"/>
</linearGradient>
<linearGradient id="paint30_linear" x1="146.155" y1="145.551" x2="106.265" y2="145.551" gradientUnits="userSpaceOnUse">
<stop stop-color="#ECA3A9"/>
<stop offset="0.0887661" stop-color="#F5989F"/>
<stop offset="0.2454" stop-color="#E6737B"/>
<stop offset="0.4514" stop-color="#DB6C74"/>
<stop offset="0.6991" stop-color="#EE838B"/>
<stop offset="0.9793" stop-color="#F0B1B7"/>
<stop offset="1" stop-color="#F6B3B5"/>
</linearGradient>
<linearGradient id="paint31_linear" x1="135.59" y1="125.419" x2="105.607" y2="125.419" gradientUnits="userSpaceOnUse">
<stop stop-color="#ECA3A9"/>
<stop offset="0.0887661" stop-color="#F5989F"/>
<stop offset="0.2454" stop-color="#E6737B"/>
<stop offset="0.4514" stop-color="#DB6C74"/>
<stop offset="0.6991" stop-color="#EE838B"/>
<stop offset="0.9793" stop-color="#F0B1B7"/>
<stop offset="1" stop-color="#F6B3B5"/>
</linearGradient>
<linearGradient id="paint32_linear" x1="107.06" y1="147.453" x2="99.5885" y2="234.806" gradientUnits="userSpaceOnUse">
<stop stop-color="#DA5661"/>
<stop offset="0.0994135" stop-color="#E55B66"/>
<stop offset="0.489501" stop-color="#CC4752"/>
<stop offset="0.983427" stop-color="#CC4752"/>
</linearGradient>
<linearGradient id="paint33_linear" x1="38.7392" y1="181.223" x2="211.706" y2="214.427" gradientUnits="userSpaceOnUse">
<stop offset="0.1048" stop-color="#001462"/>
<stop offset="0.2974" stop-color="#142E8A"/>
<stop offset="0.49" stop-color="#2343AA"/>
<stop offset="0.6752" stop-color="#2F53C1"/>
<stop offset="0.8491" stop-color="#365CCF"/>
<stop offset="1" stop-color="#385FD4"/>
</linearGradient>
<linearGradient id="paint34_linear" x1="87" y1="145" x2="82.0413" y2="235.85" gradientUnits="userSpaceOnUse">
<stop stop-color="#E55B66"/>
<stop stop-color="#DA5661"/>
<stop offset="0.811046" stop-color="#B62E39"/>
<stop offset="0.983427" stop-color="#DE1323"/>
</linearGradient>
<linearGradient id="paint35_linear" x1="203.693" y1="125.409" x2="10.3785" y2="125.409" gradientUnits="userSpaceOnUse">
<stop stop-color="#ECA3A9"/>
<stop offset="0.0887661" stop-color="#F5989F"/>
<stop offset="0.2454" stop-color="#E6737B"/>
<stop offset="0.4514" stop-color="#DB6C74"/>
<stop offset="0.6991" stop-color="#EE838B"/>
<stop offset="0.9793" stop-color="#F0B1B7"/>
<stop offset="1" stop-color="#F6B3B5"/>
</linearGradient>
<linearGradient id="paint36_linear" x1="96.56" y1="65.9683" x2="100.058" y2="94.3594" gradientUnits="userSpaceOnUse">
<stop stop-color="#F6B3B5"/>
<stop offset="1" stop-color="#FAD1D3"/>
</linearGradient>
<linearGradient id="paint37_linear" x1="125.153" y1="50.2238" x2="98.9153" y2="79.9604" gradientUnits="userSpaceOnUse">
<stop stop-color="#F6B3B5"/>
<stop offset="1" stop-color="#FAD1D3"/>
</linearGradient>
<linearGradient id="paint38_linear" x1="111.76" y1="116.422" x2="33.2488" y2="116.422" gradientUnits="userSpaceOnUse">
<stop stop-color="#ECA3A9"/>
<stop offset="0.0887661" stop-color="#F5989F"/>
<stop offset="0.2454" stop-color="#E6737B"/>
<stop offset="0.4514" stop-color="#DB6C74"/>
<stop offset="0.6991" stop-color="#EE838B"/>
<stop offset="0.9793" stop-color="#F0B1B7"/>
<stop offset="1" stop-color="#F6B3B5"/>
</linearGradient>
<linearGradient id="paint39_linear" x1="119.593" y1="122.021" x2="118.701" y2="161.277" gradientUnits="userSpaceOnUse">
<stop stop-color="#E55B66"/>
<stop offset="0.2793" stop-color="#E86570"/>
<stop offset="0.7702" stop-color="#B62E39"/>
<stop offset="0.9908" stop-color="#DE1323"/>
</linearGradient>
<linearGradient id="paint40_linear" x1="87.573" y1="149.784" x2="87.573" y2="131.91" gradientUnits="userSpaceOnUse">
<stop stop-color="#F6B3B5"/>
<stop offset="1" stop-color="#FAD1D3"/>
</linearGradient>
<linearGradient id="paint41_linear" x1="222.058" y1="213.073" x2="222.017" y2="221.252" gradientUnits="userSpaceOnUse">
<stop stop-color="#E55B66"/>
<stop offset="0.2793" stop-color="#E86570"/>
<stop offset="0.7702" stop-color="#B62E39"/>
<stop offset="0.9908" stop-color="#DE1323"/>
</linearGradient>
<linearGradient id="paint42_linear" x1="170" y1="153" x2="168" y2="242" gradientUnits="userSpaceOnUse">
<stop stop-color="#E55B66"/>
<stop offset="0.2793" stop-color="#E86570"/>
<stop offset="0.7702" stop-color="#B62E39"/>
<stop offset="0.9908" stop-color="#DE1323"/>
</linearGradient>
<linearGradient id="paint43_linear" x1="377.656" y1="206.206" x2="307.691" y2="206.206" gradientUnits="userSpaceOnUse">
<stop stop-color="#ECA3A9"/>
<stop offset="0.0887661" stop-color="#F5989F"/>
<stop offset="0.2454" stop-color="#E6737B"/>
<stop offset="0.4514" stop-color="#DB6C74"/>
<stop offset="0.6991" stop-color="#EE838B"/>
<stop offset="0.9793" stop-color="#F0B1B7"/>
<stop offset="1" stop-color="#F6B3B5"/>
</linearGradient>
<linearGradient id="paint44_linear" x1="381.241" y1="197.155" x2="305.287" y2="197.155" gradientUnits="userSpaceOnUse">
<stop stop-color="#ECA3A9"/>
<stop offset="0.0887661" stop-color="#F5989F"/>
<stop offset="0.2454" stop-color="#E6737B"/>
<stop offset="0.4514" stop-color="#D95F68"/>
<stop offset="0.6991" stop-color="#DE606A"/>
<stop offset="0.9793" stop-color="#F0B1B7"/>
<stop offset="1" stop-color="#F6B3B5"/>
</linearGradient>
</defs>
</svg>
