<svg width="345" height="263" viewBox="0 0 345 263" fill="none" xmlns="http://www.w3.org/2000/svg">
<path opacity="0.4" d="M282.708 72.1054C275.624 67.7659 269.646 61.8388 265.246 54.7921C245.918 23.7021 211.455 3.00439 172.147 3.00439C135.093 3.00439 102.339 21.4007 82.5133 49.565C77.9697 55.9897 72.2146 61.4648 65.5714 65.6825C35.4238 84.906 15.5969 118.885 16.2664 157.445C17.2807 215.788 65.4251 262.599 123.774 262.054C134.202 261.966 144.56 260.345 154.516 257.243C173.153 251.428 192.918 250.442 212.092 254.109C218.272 255.289 224.549 255.88 230.84 255.876C285.728 255.876 330.344 210.978 330.026 156.092C329.82 120.568 310.941 89.4678 282.708 72.1054Z" fill="url(#paint0_linear)"/>
<path d="M160.664 205.405C160.664 205.405 179.878 139.371 204.878 101.875C229.879 64.379 256.784 53.0229 256.784 53.0229C256.784 53.0229 244.168 69.7538 236.271 92.3786C228.374 115.003 226.511 139.184 214.046 161.074C195.198 194.19 160.664 205.405 160.664 205.405Z" fill="url(#paint1_linear)"/>
<path d="M249.616 103.053C249.616 103.053 231.329 114.587 220.52 130.711C209.711 146.834 206.575 168.934 197.551 180.084C197.551 180.084 212.893 171.339 219.014 161.953C225.134 152.566 225.757 140.079 229.398 131.057C232.556 123.22 240.417 112.459 249.616 103.053Z" fill="url(#paint2_linear)"/>
<path d="M0.427947 141.191C-5.2606 167.028 47.644 179.7 47.5582 184.759C47.4724 189.817 20.3688 186.306 25.7732 200.032C30.7809 212.753 73.0456 217.943 104.016 203.633C104.912 203.211 127.005 165.213 111.042 142.824C95.0796 120.436 90.0831 158.789 82.6348 157.763C75.1865 156.738 91.7275 109.696 76.5552 99.5485C60.8385 89.0336 55.8097 122.819 48.4444 117.597C41.4688 112.652 38.0196 64.6055 18.6893 70.7386C17.946 70.9769 17.2222 71.2722 16.5244 71.6219H16.516C16.1221 71.8161 15.7226 72.0327 15.3175 72.2718C-7.01331 85.4171 35.2133 136.206 25.5327 138.104C15.852 140.001 3.31161 128.098 0.427947 141.191Z" fill="url(#paint3_linear)"/>
<path d="M97.6115 205.351C97.6115 205.351 118.025 168.616 125.041 143.051C132.058 117.487 127.91 103.295 127.91 103.295C127.91 103.295 125.252 115.188 118.685 128.213C112.117 141.237 102.962 152.97 98.1727 167.177C90.9284 188.675 97.6115 205.351 97.6115 205.351Z" fill="url(#paint4_linear)"/>
<path d="M123.177 184.935C123.177 184.935 110.325 153.047 97.6808 135.427C85.0363 117.808 73.8828 113.143 73.8828 113.143C73.8828 113.143 80.0721 120.953 84.98 131.833C89.8878 142.714 92.6252 154.568 99.1971 164.928C109.132 180.601 123.177 184.935 123.177 184.935Z" fill="url(#paint5_linear)"/>
<path d="M286.429 199.138C289.224 199.92 294.576 200.578 297.368 198.772C299.947 197.104 299.091 193.145 301.213 191.36C303.334 189.575 310.822 190.963 313.794 189.109C317.319 186.911 313.393 182.014 316.655 180.859C319.917 179.705 328.872 180.769 330.682 178.419C332.493 176.068 329.309 174.7 334.199 171.031C338.335 167.925 343.825 163.88 341.971 160.281C339.994 156.445 334.383 159.031 330.952 161.494C326.534 164.666 326.039 158.945 322.306 159.654C318.93 160.294 314.746 170.364 311.915 171.443C309.083 172.522 305.991 169.315 301.76 171.502C297.529 173.69 299.007 180.793 296.461 182.725C293.915 184.656 290.397 181.852 286.765 184.587C283.133 187.322 286.429 199.138 286.429 199.138Z" fill="#FFE2E4"/>
<path d="M278.289 204.932C284.77 203.027 296.138 197.727 299.421 190.724C302.453 184.254 295.894 177.514 297.874 171.362C299.855 165.209 316.345 158.731 319.924 151.409C324.168 142.726 310.385 137.905 315.397 131.605C320.409 125.305 339.389 116.365 340.06 109.495C340.731 102.625 332.766 103.85 337.878 90.5924C342.207 79.3658 348.053 64.6141 339.957 59.8005C331.33 54.6704 323.446 66.6931 319.714 75.7788C314.907 87.485 306.878 76.807 300.385 82.8121C294.514 88.2376 298.676 113.262 294.418 118.883C290.16 124.504 280.108 121.988 274.459 131.519C268.81 141.051 280.482 153.245 277.842 160.194C275.202 167.143 264.799 165.952 261.004 175.824C257.209 185.696 278.289 204.932 278.289 204.932Z" fill="#FFE2E4"/>
<path d="M187.798 8.51492C178.679 -1.65808 125.041 -2.15463 114.502 4.0572C98.4832 13.4987 109.926 52.5956 117.293 56.914C119.351 58.1209 122.191 59.4066 125.48 60.8119C126.633 66.0095 126.486 70.8245 123.724 75.4904C123.724 75.4904 133.405 73.9937 136.436 65.0347C149.348 69.5247 164.909 73.3073 175.522 72.0075C192.71 69.9003 196.919 18.6879 187.798 8.51492Z" fill="url(#paint6_linear)"/>
<path d="M124.671 185.014H110.042V207.863H81.4794V185.014H38.9883V162.445L78.1371 102.536H110.042V162.445H124.671V185.014ZM81.4794 162.445V131.551L61.7861 162.445H81.4794Z" fill="url(#paint7_linear)"/>
<path d="M171.826 209.397C159.301 209.397 149.387 204.473 142.084 194.627C134.78 184.78 131.13 171.83 131.133 155.777C131.133 139.322 134.873 126.334 142.352 116.813C149.832 107.292 159.834 102.532 172.359 102.535C185.488 102.535 195.554 107.611 202.558 117.762C209.561 127.914 213.06 140.888 213.054 156.686C213.054 172.788 209.289 185.598 201.759 195.116C194.228 204.635 184.251 209.395 171.826 209.397ZM172.148 187.384C176.508 187.384 179.423 184.614 180.894 179.076C182.364 173.537 183.099 165.963 183.099 156.351C183.099 143.151 182.123 134.527 180.171 130.479C178.218 126.43 175.57 124.407 172.226 124.41C168.169 124.41 165.368 127.078 163.822 132.414C162.277 137.75 161.504 145.097 161.504 154.455C161.504 167.152 162.277 175.814 163.822 180.442C165.368 185.07 168.143 187.384 172.148 187.384Z" fill="url(#paint8_linear)"/>
<path d="M307.288 185.014H292.659V207.863H264.104V185.014H221.605V162.445L260.754 102.536H292.659V162.445H307.288V185.014ZM264.104 162.445V131.551L244.41 162.445H264.104Z" fill="url(#paint9_linear)"/>
<path d="M92.7544 73.9916L89.1055 72.9886L91.0256 66.0073L93.2551 66.6206L92.7544 73.9916Z" fill="#EFBC90"/>
<path d="M98.342 64.2175C98.1704 67.2531 96.9198 70.0172 95.018 70.1677C93.233 70.3083 90.8445 67.9803 90.3352 64.7928C89.7993 61.4365 91.0752 59.3898 93.7112 59.221C96.5007 59.041 98.5291 60.8893 98.342 64.2175Z" fill="#F4CAAB"/>
<path d="M93.4243 64.1067C94.0108 62.9996 95.1742 62.7099 96.0547 62.6114C96.9353 62.5129 98.3631 62.9054 98.5375 62.2696C98.7119 61.6338 98.3504 59.2818 94.7493 58.6685C91.4887 58.1058 89.449 59.9345 88.636 62.278C87.9326 64.3219 89.1241 66.671 90.753 66.3573C92.3819 66.0436 92.7139 65.4472 93.4243 64.1067Z" fill="#001462"/>
<path d="M93.2565 65.0828C93.3352 65.6228 93.0343 66.1122 92.5843 66.1783C92.1342 66.2444 91.7067 65.8591 91.6293 65.319C91.552 64.779 91.8515 64.2896 92.3016 64.2249C92.7516 64.1602 93.1791 64.5441 93.2565 65.0828Z" fill="#F4CAAB"/>
<path d="M94.6048 55.5634C95.1449 56.9532 94.391 59.1532 92.665 59.8242C90.939 60.4951 88.8965 59.3825 88.3564 57.9955C87.8162 56.6085 89.085 55.7294 90.811 55.0584C92.537 54.3874 94.0646 54.1722 94.6048 55.5634Z" fill="#001462"/>
<path d="M110.248 90.7821C110.215 91.4447 109.183 92.2071 107.771 92.3112C106.47 92.4054 105.609 91.6655 105.602 90.9946C105.588 89.4965 110.298 89.7553 110.248 90.7821Z" fill="#EFBC90"/>
<path d="M111.767 98.1168L111.504 98.0676L92.6953 94.5889L89.3868 93.9756L88.5625 101.1L91.9244 101.259L108.242 102.032L101.63 117.897L101.317 118.653L102.692 119.328L103.098 118.618L113.112 101.023C113.22 100.832 113.296 100.624 113.337 100.408C113.431 99.8964 113.319 99.368 113.025 98.9386C112.73 98.5093 112.278 98.2138 111.767 98.1168Z" fill="#EFBC90"/>
<path d="M113.587 99.1002L113.348 99.0552L92.4804 95.2136L89.172 94.6045L88.3125 101.68L91.6702 101.881L111.141 103.053L112.209 123.151L112.253 123.969H113.8L113.849 123.153L115.167 101.11C115.195 100.64 115.05 100.176 114.759 99.8053C114.468 99.4349 114.051 99.184 113.587 99.1002Z" fill="#EFBC90"/>
<path d="M95.1674 92.9243C97.5587 96.7687 111.729 95.438 113.772 98.2612C116.497 102.025 105.3 116.577 105.3 116.577L101.573 114.497C101.573 114.497 107.282 104.206 107.051 103.474C106.76 102.537 91.202 104.76 86.9919 101.207C83.7298 98.4413 85.3376 92.9243 85.3376 92.9243H95.1674Z" fill="url(#paint10_linear)"/>
<path d="M94.0573 92.9243C96.1378 97.6465 113.047 95.9022 115.446 100.02C117.381 103.343 115.394 120.214 115.394 120.214L110.92 120.091C110.92 120.091 110.944 105.735 110.068 104.759C109.425 104.043 91.4719 105.697 86.9987 102.492C83.1627 99.748 85.3444 92.9271 85.3444 92.9271L94.0573 92.9243Z" fill="url(#paint11_linear)"/>
<path d="M93.2587 75.5213L95.8005 90.0099L94.5922 88.9732L105.203 89.7609L106.166 89.8327L106.085 91.7035L105.118 91.6909L94.4797 91.5502C94.2003 91.5469 93.9302 91.4493 93.7134 91.273C93.4966 91.0968 93.3457 90.8524 93.2854 90.5796L93.2699 90.5135L90.0782 76.1514L89.7266 74.5675L92.9788 73.9219L93.2587 75.5213Z" fill="#EFBC90"/>
<path d="M88.2497 75.8586C87.9979 79.326 90.2401 88.3371 93.7779 91.4346C95.8794 93.2759 102.873 92.0394 102.873 92.0394L103.214 89.3091C103.214 89.3091 97.981 90.0968 96.7867 87.0584C95.5925 84.02 94.8413 75.7123 93.0675 74.4463C91.5089 73.3308 88.3622 74.3 88.2497 75.8586Z" fill="url(#paint12_linear)"/>
<path d="M89.941 72.6504C89.941 72.6504 91.8681 74.4551 93.8909 73.3537C93.8909 73.3537 94.334 80.6248 95.1246 83.6125C95.9151 86.6003 98.2741 94.4551 98.2741 94.4551L83.8473 93.9853C83.6771 87.3599 86.423 79.9228 89.941 72.6504Z" fill="#DBC6AF"/>
<path d="M89.2725 72.0332C89.2725 72.0332 82.0409 82.1204 83.0832 93.1669C83.0832 93.1669 82.4207 95.3079 90.2572 95.2685C98.0937 95.2291 98.5734 94.1628 98.5734 94.1628C96.289 88.1789 94.5827 81.4353 93.8892 73.3597C93.8892 73.3597 90.9605 73.3723 89.2725 72.0332Z" fill="url(#paint13_linear)"/>
<path d="M91.5999 77.7787C90.5449 79.4316 89.5152 81.1547 88.5629 82.8863C88.0875 83.7528 87.6303 84.6264 87.2083 85.5041C86.7885 86.3574 86.4221 87.2359 86.1111 88.1346C86.0394 88.3512 85.9789 88.5566 85.924 88.769L85.7609 89.4723C85.6596 89.9492 85.5625 90.4289 85.4795 90.9156C85.3023 91.8876 85.1476 92.8722 85.0055 93.8597C84.7242 95.8375 84.4822 97.8378 84.2796 99.824L84.1812 100.786L82.3047 100.661L82.3483 99.696C82.4397 97.6577 82.5677 95.6392 82.7379 93.6051C82.8266 92.5895 82.9278 91.5725 83.0544 90.5498C83.1163 90.0378 83.1951 89.523 83.2683 89.0025L83.4089 88.2204C83.4652 87.9391 83.5313 87.6577 83.6044 87.3919C83.8993 86.3646 84.2582 85.3569 84.6791 84.3746C85.0814 83.4124 85.5133 82.4742 85.9606 81.5458C86.8623 79.6904 87.8104 77.8969 88.8358 76.0907L89.6376 74.6841L92.4763 76.4185L91.5999 77.7787Z" fill="#F4CAAB"/>
<path d="M88.343 74.3322C85.7505 76.6504 84.0766 82.097 82.8177 86.6293C81.5587 91.1615 82.1143 98.1484 82.1143 98.1484L84.9586 98.4002C84.9586 98.4002 85.4326 91.3331 86.6902 88.3173C87.9478 85.3014 93.1791 78.8096 92.7895 76.6701C92.442 74.7781 89.5077 73.2913 88.343 74.3322Z" fill="url(#paint14_linear)"/>
<path d="M82.2549 106.357C81.6106 106.198 81.138 104.65 81.4109 102.699C81.6683 100.899 82.6305 99.8481 83.293 99.9564C84.7785 100.194 83.2536 106.604 82.2549 106.357Z" fill="#F4CAAB"/>
<path d="M84.1579 103.869C84.4462 103.826 84.7049 103.069 84.6473 102.064C84.5938 101.137 84.2071 100.55 83.9117 100.567C83.2536 100.605 83.7106 103.938 84.1579 103.869Z" fill="#F4CAAB"/>
<path d="M119.727 124.808L118.557 124.6L114.275 122.943V122.977C114.275 122.977 114.223 123.711 113.334 123.849C112.905 123.934 112.459 123.873 112.068 123.677C112.042 123.647 112.009 123.626 111.971 123.615C111.689 123.615 111.453 124.084 111.453 124.66C111.452 124.836 111.475 125.01 111.522 125.179V125.981H120.051V125.17C120.051 125.08 120.018 124.994 119.958 124.927C119.898 124.861 119.816 124.818 119.727 124.808Z" fill="white"/>
<path d="M106.569 123.669L105.774 122.784L103.42 118.846L103.399 118.874C103.399 118.874 102.906 119.419 102.12 118.981C101.732 118.784 101.42 118.464 101.234 118.071C101.232 118.032 101.219 117.994 101.196 117.964C100.971 117.788 100.499 118.013 100.145 118.467C100.036 118.605 99.9466 118.758 99.8791 118.92L99.3867 119.552L106.108 124.8L106.607 124.161C106.663 124.089 106.691 123.999 106.684 123.908C106.677 123.817 106.636 123.732 106.569 123.669Z" fill="white"/>
<path d="M109.062 89.5939C108.979 89.3126 108.194 89.1607 107.207 89.3548C106.296 89.5348 105.768 89.9989 105.824 90.2886C105.954 90.9355 109.188 90.027 109.062 89.5939Z" fill="#EFBC90"/>
<path d="M116.932 81.2959C116.767 81.244 116.588 81.2592 116.434 81.3382C116.281 81.4172 116.164 81.5537 116.11 81.7179L113.549 89.8189H105.88C105.791 89.8148 105.703 89.8287 105.62 89.8597C105.537 89.8906 105.462 89.9381 105.398 89.9992C105.334 90.0603 105.283 90.1337 105.248 90.215C105.213 90.2963 105.195 90.3839 105.195 90.4723C105.195 90.5608 105.213 90.6483 105.248 90.7296C105.283 90.8109 105.334 90.8844 105.398 90.9454C105.462 91.0065 105.537 91.054 105.62 91.085C105.703 91.1159 105.791 91.1298 105.88 91.1257H114.038C114.196 91.1259 114.348 91.069 114.467 90.9655C114.586 90.8621 114.664 90.7192 114.685 90.563L117.358 82.1231C117.385 82.0408 117.395 81.954 117.388 81.8678C117.381 81.7816 117.357 81.6976 117.317 81.6208C117.278 81.5439 117.223 81.4756 117.157 81.4198C117.091 81.3641 117.014 81.322 116.932 81.2959Z" fill="url(#paint15_linear)"/>
<path d="M113.555 89.8187H113.961L116.448 81.8584H116.071L113.555 89.8187Z" fill="white"/>
<path d="M290.268 190.465C289.971 190.531 289.435 189.902 289.111 188.905C288.811 187.99 288.97 187.275 289.251 187.181C289.905 186.967 290.725 190.362 290.268 190.465Z" fill="#F4CAAB"/>
<path d="M271.173 147.575C274.374 145.281 278.229 146.845 278.741 150.158C279.405 154.458 278.565 157.921 279.634 160.772C281.289 165.195 280.831 169.539 280.831 169.539C276.462 163.584 271.948 166.049 269.455 160.066C268.653 158.145 268.105 149.774 271.173 147.575Z" fill="#001462"/>
<path d="M272.445 162.061H276.267V154.749H273.932L272.445 162.061Z" fill="#EFBC90"/>
<path d="M269.622 151.048C268.975 154.048 269.453 157.075 271.265 157.732C272.964 158.347 275.907 156.72 277.263 153.752C278.684 150.627 277.99 148.294 275.474 147.422C272.801 146.5 270.329 147.758 269.622 151.048Z" fill="#F4CAAB"/>
<path d="M264.551 224.141L267.12 205.534L269.829 186.949L270.32 183.585L277.4 185.113L276.46 188.379L271.268 206.416L266.166 224.479L265.941 225.275L264.438 224.96L264.551 224.141Z" fill="#EFBC90"/>
<path d="M280.088 183.585L280.206 186.981L280.893 206.731L289.52 219.592L289.981 220.28L288.787 221.224L288.224 220.614L277.202 208.682C276.996 208.46 276.86 208.183 276.811 207.884L276.763 207.603L273.457 187.659L272.895 184.307L280.088 183.585Z" fill="#EFBC90"/>
<path d="M278.788 182.958H268.762L264.438 217.846L270.271 218.695L278.788 182.958Z" fill="url(#paint16_linear)"/>
<path d="M281.539 182.958H271.906C271.906 182.958 273.672 205.257 275.109 207.878C276.831 211.02 283.653 218.314 283.653 218.314L288.287 214.741C288.287 214.741 283.407 207.832 282.227 204.588C281.047 201.344 281.539 182.958 281.539 182.958Z" fill="url(#paint17_linear)"/>
<path d="M272.221 164.767C271.487 166.671 270.674 168.604 269.805 170.468C269.369 171.401 268.916 172.323 268.435 173.217C267.973 174.093 267.456 174.938 266.887 175.749C266.378 176.465 265.641 177.202 264.918 177.913C264.195 178.625 263.423 179.32 262.645 180.014C261.086 181.384 259.47 182.726 257.841 184.014L257.055 184.636L258.21 186.204L259.031 185.628C260.777 184.402 262.477 183.149 264.158 181.83C265.002 181.171 265.827 180.495 266.644 179.784C267.053 179.43 267.457 179.061 267.859 178.68C268.059 178.479 268.255 178.299 268.46 178.079C268.665 177.86 268.861 177.629 269.045 177.403C269.733 176.525 270.363 175.603 270.93 174.643C271.493 173.71 272.017 172.768 272.522 171.818C273.528 169.914 274.449 168.011 275.336 166.03L276.021 164.491L272.825 163.188L272.221 164.767Z" fill="#EFBC90"/>
<path d="M261.711 180.169L265.385 185.297C265.385 185.297 270.103 179.86 272.471 176.415C275.447 172.084 279.584 165.311 276.159 163.128C271.681 160.275 269.166 172.718 267.457 175.024C266.077 176.886 261.711 180.169 261.711 180.169Z" fill="url(#paint18_linear)"/>
<path d="M276.358 161.439C276.358 161.439 274.297 163.247 272.236 162.041C272.236 162.041 271.533 169.569 270.608 172.642C269.684 175.714 267.293 183.525 267.293 183.525L281.957 183.784C282.357 176.911 279.76 169.104 276.358 161.439Z" fill="#76D3F4"/>
<path d="M274.821 166.925C276.361 168.255 277.9 169.664 279.36 171.1C280.091 171.82 280.806 172.552 281.487 173.3C282.157 174.024 282.783 174.788 283.361 175.587C283.501 175.783 283.617 175.97 283.735 176.164L284.106 176.813C284.348 177.256 284.587 177.703 284.819 178.162C285.283 179.075 285.731 180.009 286.168 180.948C287.035 182.83 287.87 184.746 288.664 186.664L289.048 187.589L290.876 186.904L290.546 185.957C289.849 183.959 289.121 181.988 288.346 180.018C287.955 179.034 287.552 178.049 287.122 177.073C286.908 176.583 286.682 176.088 286.45 175.603L286.081 174.866C285.94 174.604 285.791 174.344 285.639 174.101C285.039 173.169 284.382 172.277 283.67 171.428C282.984 170.584 282.275 169.785 281.56 168.997C280.111 167.419 278.636 165.918 277.078 164.428L275.862 163.264L273.555 165.834L274.821 166.925Z" fill="#F4CAAB"/>
<path d="M276.877 160.563C276.877 160.563 284.038 171.272 282.58 182.694C282.58 182.694 283.196 184.938 275.071 184.632C266.946 184.327 266.48 183.205 266.48 183.205C269.053 177.074 271.051 170.137 272.044 161.783C272.044 161.783 275.081 161.894 276.877 160.563Z" fill="url(#paint19_linear)"/>
<path d="M284.142 183.392L290.261 181.861C290.261 181.861 287.469 175.309 285.137 171.842C282.204 167.481 277.427 161.143 274.137 163.526C269.838 166.64 280.483 173.555 282 175.991C283.224 177.961 284.142 183.392 284.142 183.392Z" fill="url(#paint20_linear)"/>
<path d="M292.212 190.893C292.775 190.498 292.831 189.097 292.072 187.697C291.377 186.406 290.209 185.994 289.614 186.355C288.289 187.163 291.337 191.504 292.212 190.893Z" fill="#F4CAAB"/>
<path d="M252.467 188.634C252.859 189.197 254.535 189.093 256.328 188.105C257.981 187.195 258.649 185.877 258.298 185.274C257.527 183.923 251.862 187.756 252.467 188.634Z" fill="#EFBC90"/>
<path d="M254.18 185.873C254.117 185.576 254.757 185.046 255.754 184.733C256.674 184.445 257.385 184.607 257.477 184.899C257.682 185.552 254.277 186.327 254.18 185.873Z" fill="#EFBC90"/>
<path d="M258.68 225.938L259.862 225.729L264.186 224.055V224.09C264.186 224.09 264.238 224.831 265.135 224.97C265.565 225.054 266.01 224.993 266.401 224.797C266.427 224.768 266.461 224.746 266.498 224.736C266.788 224.736 267.022 225.207 267.022 225.789C267.023 225.966 267 226.143 266.953 226.314V227.12H258.34V226.3C258.341 226.208 258.377 226.12 258.44 226.053C258.503 225.986 258.589 225.945 258.68 225.938Z" fill="#001462"/>
<path d="M285.106 225.832L285.839 224.879L287.908 220.731L287.932 220.758C287.932 220.758 288.469 221.27 289.227 220.769C289.603 220.541 289.893 220.195 290.05 219.784C290.049 219.745 290.06 219.706 290.081 219.673C290.294 219.479 290.785 219.673 291.177 220.095C291.297 220.226 291.399 220.372 291.479 220.53L292.024 221.129L285.656 226.926L285.105 226.321C285.045 226.254 285.011 226.166 285.012 226.076C285.012 225.986 285.046 225.899 285.106 225.832Z" fill="#001462"/>
<path d="M274.606 146.605C275.476 146.605 276.071 146.684 276.811 147.067C278.001 147.684 279.571 149.157 279.883 152.495C280.174 155.607 278.928 157.137 281.586 160.066C284.577 162.338 289.908 161.949 289.292 167.046C288.676 172.142 281.918 171.478 280.312 168.929C278.705 166.38 278.887 164.11 277.992 162.504C277.098 160.897 275.549 161.84 274.772 160.066C273.864 158.399 275.442 154.659 275.726 154.017C275.536 153.39 275.29 152.702 274.274 152.425C272.094 151.83 270.285 149.766 270.285 149.101C270.285 148.436 272.28 146.605 274.606 146.605Z" fill="#001462"/>
<path d="M274.677 152.913C274.452 153.415 274.608 153.974 275.027 154.163C275.446 154.351 275.968 154.095 276.193 153.592C276.418 153.089 276.261 152.53 275.843 152.343C275.425 152.156 274.902 152.411 274.677 152.913Z" fill="#F4CAAB"/>
<path d="M136.786 177.238H132.629V169.287H135.169L136.786 177.238Z" fill="#EFBC90"/>
<path d="M139.857 165.261C140.56 168.526 140.041 171.818 138.07 172.531C136.222 173.2 133.015 171.429 131.546 168.202C129.999 164.805 130.755 162.266 133.493 161.321C136.399 160.317 139.086 161.684 139.857 165.261Z" fill="#F4CAAB"/>
<path d="M134.055 160.164C131.032 160.4 129.361 163.14 129.554 165.851C129.734 168.383 132.441 169.732 132.441 169.732C132.441 169.732 133.332 167.163 134.795 166.754C136.835 166.183 135.953 164.362 136.905 164.163C137.898 163.957 140.059 163.168 140.022 161.722C138.627 161.774 137.451 159.9 134.055 160.164Z" fill="#001462"/>
<path d="M133.985 168.632C134.44 168.428 134.61 167.82 134.365 167.273C134.12 166.727 133.552 166.449 133.097 166.653C132.642 166.857 132.472 167.465 132.717 168.012C132.962 168.558 133.53 168.836 133.985 168.632Z" fill="#F4CAAB"/>
<path d="M134.055 166.707C134.055 166.707 134.283 170.235 134.956 171.575C135.544 172.742 138.104 173.947 139.5 171.177C139.5 171.177 138.093 171.473 138.248 170.875C138.436 170.172 139.89 170.163 139.89 170.163C139.967 170.159 140.042 170.131 140.102 170.081C140.163 170.032 140.205 169.965 140.224 169.889C140.3 169.501 140.11 168.872 140.11 168.872C140.11 168.872 138.187 169.557 137.359 169.557C136.419 169.557 135.567 168.894 134.772 166.707H134.055Z" fill="#001462"/>
<path d="M146.197 244.488L142.376 223.117L139.781 212.585L137.167 202.035L136.28 198.448L128.785 200.84L130.141 204.279L134.087 214.292C135.401 217.637 136.734 220.979 138.026 224.336L144.444 244.915L144.713 245.773L146.346 245.375L146.197 244.488Z" fill="#EFBC90"/>
<path d="M132.389 198.532L132.091 202.216L130.403 223.084L114.623 230.48L113.809 230.863L114.404 232.417L115.264 232.157L133.36 226.688C133.7 226.585 134.006 226.393 134.246 226.131C134.486 225.87 134.652 225.548 134.726 225.201L134.79 224.9L139.393 203.284L140.162 199.67L132.389 198.532Z" fill="#EFBC90"/>
<path d="M127.688 196.255L141.696 198.976L146.075 240.845L141.376 241.489L127.688 196.255Z" fill="url(#paint21_linear)"/>
<path d="M127 199.049L141.133 197.08C141.133 197.08 138.967 223.293 134.738 226.636C132.386 228.489 119.317 231.622 119.317 231.622L117.91 227.609C117.91 227.609 127.757 223.625 128.574 222.393C129.466 221.052 127 199.049 127 199.049Z" fill="url(#paint22_linear)"/>
<path d="M137.072 178.698L146.336 191.937L144.648 191.467L155.574 187.318L156.558 186.941L157.348 188.842L156.38 189.278L145.727 194.083C145.448 194.209 145.134 194.237 144.837 194.163C144.539 194.089 144.276 193.916 144.088 193.674L144.042 193.613L134.195 180.813L133.109 179.406L136.045 177.251L137.072 178.698Z" fill="#EFBC90"/>
<path d="M132.245 181.362C133.607 184.929 140.025 192.854 144.987 194.293C147.932 195.148 154.317 190.668 154.317 190.668L153.387 187.793C153.387 187.793 148.547 191.009 145.944 188.538C143.342 186.068 138.731 178.156 136.379 177.718C134.314 177.332 131.633 179.758 132.245 181.362Z" fill="url(#paint23_linear)"/>
<path d="M132.911 175.56C132.911 175.56 135.091 177.471 137.271 176.197C137.271 176.197 138.017 184.163 138.992 187.414C139.966 190.664 142.837 199.203 142.837 199.203H126.984C126.562 191.93 129.304 183.669 132.911 175.56Z" fill="#DBC6AF"/>
<path d="M132.16 174.905C132.16 174.905 124.582 186.237 126.125 198.324C126.125 198.324 125.474 200.699 134.072 200.375C142.669 200.052 143.161 198.863 143.161 198.863C140.439 192.377 138.325 185.036 137.276 176.196C137.276 176.199 134.06 176.314 132.16 174.905Z" fill="url(#paint24_linear)"/>
<path d="M134.624 180.52C133.545 182.384 132.498 184.328 131.537 186.271C131.058 187.246 130.598 188.225 130.177 189.209C129.759 190.166 129.4 191.147 129.101 192.148C129.034 192.388 128.977 192.618 128.928 192.851L128.787 193.629C128.699 194.157 128.616 194.687 128.543 195.226C128.402 196.3 128.274 197.388 128.166 198.479C127.952 200.662 127.784 202.868 127.658 205.058L127.596 206.119L125.535 206.067V205.006C125.535 202.765 125.58 200.544 125.676 198.305C125.725 197.18 125.786 196.065 125.874 194.937C125.918 194.375 125.974 193.812 126.036 193.234L126.148 192.369C126.196 192.059 126.255 191.746 126.323 191.45C126.597 190.309 126.942 189.186 127.355 188.088C127.751 187.012 128.18 185.961 128.621 184.922C129.522 182.841 130.474 180.828 131.512 178.799L132.324 177.212L135.522 178.977L134.624 180.52Z" fill="#F4CAAB"/>
<path d="M130.887 176.902C128.154 179.575 126.581 185.623 125.42 190.661C124.258 195.698 125.202 203.335 125.202 203.335L128.334 203.475C128.334 203.475 128.514 195.698 129.741 192.329C130.967 188.96 136.401 181.583 135.87 179.254C135.407 177.193 132.119 175.698 130.887 176.902Z" fill="url(#paint25_linear)"/>
<path d="M161.326 186.173C161.567 186.863 160.737 188.102 159.208 188.846C157.801 189.53 156.535 189.167 156.245 188.487C155.601 186.971 160.956 185.109 161.326 186.173Z" fill="#EFBC90"/>
<path d="M128.147 209.266C128.452 209.167 128.595 208.3 128.352 207.222C128.127 206.227 127.602 205.662 127.286 205.734C126.579 205.893 127.676 209.421 128.147 209.266Z" fill="#F4CAAB"/>
<path d="M152.456 246.833C152.456 246.833 151.376 246.552 151.076 246.441C149.882 246.011 146.789 244.743 146.789 244.743C146.789 244.743 146.408 245.358 145.453 245.477C145.031 245.528 144.604 245.47 144.21 245.31C143.904 245.302 143.648 245.794 143.622 246.41C143.616 246.599 143.635 246.789 143.68 246.973L143.655 247.829L152.773 248.111L152.8 247.243C152.805 247.144 152.773 247.046 152.709 246.97C152.645 246.894 152.555 246.845 152.456 246.833Z" fill="#001462"/>
<path d="M114.976 238.786C114.976 238.786 114.934 237.669 114.949 237.351C115.013 236.085 115.322 232.756 115.322 232.756C115.322 232.756 114.619 232.57 114.232 231.691C114.061 231.302 113.991 230.876 114.028 230.453C113.948 230.159 113.401 230.051 112.806 230.212C112.624 230.261 112.45 230.334 112.288 230.43L111.461 230.655L113.852 239.457L114.689 239.229C114.784 239.205 114.866 239.146 114.92 239.064C114.973 238.982 114.993 238.882 114.976 238.786Z" fill="#001462"/>
<path d="M159.341 185.358C159.129 185.117 158.277 185.33 157.384 185.982C156.561 186.583 156.25 187.29 156.441 187.552C156.876 188.137 159.672 185.729 159.341 185.358Z" fill="#EFBC90"/>
<path d="M126.613 210.757C125.886 210.705 125.077 209.451 125.004 207.755C124.936 206.192 125.773 205.175 126.51 205.181C128.156 205.193 127.738 210.838 126.613 210.757Z" fill="#F4CAAB"/>
<path d="M167.695 36.5773C167.695 35.3862 168.5 34.5508 169.626 34.5508C170.753 34.5508 171.525 35.3862 171.525 36.5773C171.525 37.7362 170.785 38.6039 169.594 38.6039C168.469 38.6039 167.695 37.7362 167.695 36.5773Z" fill="white"/>
<path d="M174.355 36.5772C174.355 35.3917 175.163 34.5479 176.288 34.5479C177.413 34.5479 178.186 35.3832 178.186 36.5744C178.186 37.7332 177.447 38.6009 176.255 38.6009C175.128 38.6037 174.355 37.736 174.355 36.5772Z" fill="white"/>
<path d="M181.016 36.5773C181.016 35.3862 181.82 34.5508 182.947 34.5508C184.073 34.5508 184.845 35.3862 184.845 36.5773C184.845 37.7362 184.104 38.6039 182.914 38.6039C181.788 38.6039 181.016 37.7362 181.016 36.5773Z" fill="white"/>
<path d="M120.936 38.8274C118.905 38.8274 117.25 38.1541 115.971 36.8075C114.692 35.4608 114.052 33.6594 114.051 31.4031C114.051 29.2462 114.66 27.4644 115.879 26.0577C117.099 24.6511 118.796 23.9478 120.973 23.9478C122.982 23.9478 124.62 24.6103 125.886 25.9354C127.153 27.2604 127.786 29.0305 127.784 31.2455C127.784 33.5374 127.146 35.3746 125.87 36.7568C124.593 38.1391 122.949 38.8293 120.936 38.8274ZM120.915 35.5485C121.666 35.5485 122.203 35.2226 122.527 34.5709C122.852 33.9191 123.016 32.7258 123.02 30.9909C123.02 28.4805 122.346 27.2253 121 27.2253C119.546 27.2253 118.82 28.6568 118.821 31.5198C118.821 34.2056 119.519 35.5485 120.915 35.5485Z" fill="white"/>
<path d="M134.769 36.5782C132.988 36.5782 131.57 36.0231 130.517 34.9127C130.011 34.3966 129.611 33.7857 129.34 33.1149C129.07 32.4442 128.935 31.7267 128.942 31.0036C128.942 29.3953 129.49 28.0557 130.586 26.9848C131.682 25.9138 133.109 25.3779 134.865 25.377C136.635 25.377 138.057 25.9059 139.133 26.9637C140.209 28.0215 140.746 29.347 140.745 30.9403C140.745 32.5477 140.201 33.8891 139.112 34.9648C138.023 36.0404 136.576 36.5782 134.769 36.5782ZM134.833 34.0181C135.489 34.0181 135.889 33.6782 136.033 32.9983C136.18 32.2975 136.253 31.5832 136.251 30.8672C136.251 29.8591 136.148 29.1327 135.944 28.6882C135.74 28.2437 135.373 28.0215 134.844 28.0215C134.617 28.015 134.394 28.0772 134.203 28.2C134.012 28.3227 133.863 28.5003 133.775 28.7093C133.55 29.1679 133.437 29.9224 133.436 30.9727C133.436 32.2068 133.553 33.0231 133.786 33.4217C133.887 33.6093 134.039 33.7647 134.224 33.8701C134.409 33.9756 134.62 34.0269 134.833 34.0181Z" fill="white"/>
<path d="M146.607 44.6452H142.387V30.4928H146.268V32.0162C146.811 30.8533 147.823 30.2714 149.303 30.2705C150.587 30.2705 151.592 30.7694 152.318 31.7672C153.044 32.765 153.407 34.1248 153.408 35.8465C153.408 37.5664 153.036 38.9342 152.291 39.9498C151.546 40.9654 150.565 41.4732 149.345 41.4732C148.147 41.4732 147.234 41.0151 146.607 40.0989V44.6452ZM146.607 37.3151C146.607 37.7948 146.715 38.1661 146.934 38.4306C147.03 38.5553 147.154 38.6561 147.295 38.7249C147.436 38.7937 147.592 38.8288 147.749 38.8272C147.976 38.8407 148.202 38.7791 148.391 38.6521C148.58 38.525 148.722 38.3395 148.795 38.1239C148.983 37.655 149.077 36.9343 149.077 35.9619C149.077 34.8365 148.968 34.0483 148.749 33.5973C148.531 33.1462 148.202 32.9188 147.764 32.915C147.478 32.9249 147.203 33.0331 146.987 33.2217C146.73 33.4271 146.601 33.7618 146.601 34.226L146.607 37.3151Z" fill="white"/>
<path d="M154.137 35.2515L157.468 34.7971C157.655 35.5717 158.41 35.9595 159.731 35.9604C160.824 35.9604 161.37 35.749 161.371 35.326C161.367 35.2308 161.335 35.139 161.278 35.0625C161.222 34.986 161.143 34.9283 161.053 34.897C160.842 34.7957 160.342 34.6916 159.551 34.5847C157.365 34.2818 156.001 33.8078 155.458 33.1626C154.934 32.5679 154.644 31.8029 154.643 31.0104C154.643 29.9104 155.102 29.0195 156.019 28.3377C156.936 27.6559 158.138 27.316 159.626 27.3179C162.235 27.3179 163.899 28.2589 164.618 30.1411L161.423 30.7445C161.128 30.1106 160.504 29.7931 159.551 29.7922C159.099 29.7922 158.762 29.8541 158.541 29.9779C158.319 30.1003 158.208 30.2226 158.208 30.3422C158.208 30.6953 158.547 30.9049 159.223 30.9865C160.987 31.1806 162.183 31.3803 162.81 31.5857C163.444 31.7952 164.003 32.1866 164.417 32.711C164.866 33.2673 165.102 33.9655 165.083 34.6804C165.083 35.8591 164.592 36.7941 163.608 37.4852C162.624 38.1764 161.271 38.5196 159.548 38.5149C156.631 38.5149 154.827 37.4271 154.137 35.2515Z" fill="white"/>
<path d="M315.406 200.547C314.562 200.547 313.709 200.529 312.846 200.491C302.106 200.021 292.054 196.711 287.018 194.781C274.689 190.054 252.543 188.568 252.32 188.554L252.524 185.413C253.451 185.472 275.367 186.942 288.145 191.843C293.002 193.705 302.689 196.896 312.984 197.346C323.845 197.82 332.343 195.146 338.245 189.395L340.441 191.646C334.374 197.56 325.956 200.547 315.406 200.547Z" fill="url(#paint26_linear)"/>
<path d="M226.153 186.355L225.777 189.223C225.749 189.437 225.9 189.633 226.114 189.661L239.786 191.451C240 191.479 240.196 191.328 240.224 191.114L240.6 188.247C240.628 188.033 240.477 187.836 240.263 187.808L226.591 186.018C226.377 185.99 226.181 186.141 226.153 186.355Z" fill="url(#paint27_linear)"/>
<path d="M227.2 178.352L226.824 181.219C226.796 181.433 226.947 181.63 227.161 181.658L240.833 183.448C241.047 183.476 241.243 183.325 241.271 183.111L241.647 180.243C241.675 180.029 241.524 179.833 241.31 179.805L227.638 178.015C227.424 177.987 227.228 178.137 227.2 178.352Z" fill="url(#paint28_linear)"/>
<path d="M236.235 175.162L233.686 194.629C233.622 195.117 233.966 195.565 234.455 195.629L238.664 196.18C239.152 196.244 239.6 195.9 239.664 195.412L242.213 175.945C242.277 175.457 241.933 175.009 241.445 174.945L237.235 174.394C236.747 174.33 236.299 174.674 236.235 175.162Z" fill="url(#paint29_linear)"/>
<path d="M247.704 176.77L242.208 176.05L239.676 195.321L245.173 196.041C246.927 196.271 248.701 195.794 250.104 194.716C251.507 193.638 252.424 192.047 252.654 190.292L253.446 184.244C253.674 182.491 253.197 180.72 252.12 179.319C251.044 177.918 249.455 177.001 247.704 176.77Z" fill="url(#paint30_linear)"/>
<path d="M44.6411 216.263C37.7935 216.263 30.6969 215.534 23.2852 214.078L23.8914 210.984C62.3088 218.526 84.0193 204.675 103.174 192.454C109.213 188.601 114.915 184.962 120.739 182.292C127.361 179.256 133.234 177.889 139.225 177.985C151.761 178.19 162.657 190.134 163.116 190.645L160.777 192.755C160.674 192.641 150.329 181.32 139.173 181.138H138.641C126.776 181.138 116.612 187.623 104.867 195.116C95.4892 201.098 84.8562 207.879 71.808 212.07C63.1092 214.869 54.1122 216.263 44.6411 216.263Z" fill="url(#paint31_linear)"/>
<path d="M164.164 188.229C163.986 188.088 163.781 187.983 163.563 187.92C163.344 187.858 163.115 187.839 162.889 187.865C162.663 187.892 162.444 187.962 162.246 188.073C162.047 188.183 161.872 188.332 161.73 188.51L159.245 191.651C158.96 192.011 158.83 192.47 158.883 192.926C158.935 193.382 159.167 193.798 159.526 194.084L161.306 195.49L165.939 189.633L164.164 188.229Z" fill="url(#paint32_linear)"/>
<path d="M178.606 191.885L166.424 207.282C166.119 207.668 166.184 208.229 166.571 208.534L169.9 211.168C170.286 211.474 170.847 211.409 171.153 211.022L183.334 195.626C183.64 195.239 183.574 194.678 183.188 194.373L179.859 191.739C179.472 191.433 178.911 191.499 178.606 191.885Z" fill="url(#paint33_linear)"/>
<path d="M174.2 188.537C173.513 187.993 172.725 187.59 171.882 187.351C171.04 187.112 170.158 187.041 169.288 187.142C168.417 187.244 167.576 187.516 166.811 187.942C166.046 188.369 165.372 188.943 164.829 189.63L161.045 194.412C159.947 195.8 159.445 197.567 159.65 199.324C159.855 201.082 160.75 202.686 162.138 203.784L166.484 207.223L178.548 191.979L174.2 188.537Z" fill="url(#paint34_linear)"/>
<defs>
<linearGradient id="paint0_linear" x1="-28.499" y1="34.9995" x2="330.001" y2="262" gradientUnits="userSpaceOnUse">
<stop stop-color="#FFE2E4"/>
<stop offset="0.877525" stop-color="#F4DDE5"/>
<stop offset="1" stop-color="#A4B8EA"/>
</linearGradient>
<linearGradient id="paint1_linear" x1="141891" y1="143953" x2="204400" y2="100436" gradientUnits="userSpaceOnUse">
<stop stop-color="#FFE2E4"/>
<stop offset="1" stop-color="#A4B8EA"/>
</linearGradient>
<linearGradient id="paint2_linear" x1="71610.8" y1="91904.6" x2="89408.7" y2="122431" gradientUnits="userSpaceOnUse">
<stop stop-color="#FFE2E4"/>
<stop offset="1" stop-color="#A4B8EA"/>
</linearGradient>
<linearGradient id="paint3_linear" x1="20801.5" y1="-1263.67" x2="123634" y2="-7429.99" gradientUnits="userSpaceOnUse">
<stop stop-color="#FFE2E4"/>
<stop offset="1" stop-color="#A4B8EA"/>
</linearGradient>
<linearGradient id="paint4_linear" x1="-52337.7" y1="116690" x2="-85619.4" y2="150511" gradientUnits="userSpaceOnUse">
<stop stop-color="#FFE2E4"/>
<stop offset="1" stop-color="#A4B8EA"/>
</linearGradient>
<linearGradient id="paint5_linear" x1="48499.1" y1="99857.2" x2="29953.5" y2="84576.9" gradientUnits="userSpaceOnUse">
<stop stop-color="#FFE2E4"/>
<stop offset="1" stop-color="#A4B8EA"/>
</linearGradient>
<linearGradient id="paint6_linear" x1="290.564" y1="37.9815" x2="55.1061" y2="37.9815" gradientUnits="userSpaceOnUse">
<stop stop-color="#ECA3A9"/>
<stop offset="0.0887661" stop-color="#F5989F"/>
<stop offset="0.2454" stop-color="#E6737B"/>
<stop offset="0.4514" stop-color="#DB6C74"/>
<stop offset="0.6991" stop-color="#EE838B"/>
<stop offset="0.9793" stop-color="#F0B1B7"/>
<stop offset="1" stop-color="#F6B3B5"/>
</linearGradient>
<linearGradient id="paint7_linear" x1="38.9883" y1="155.2" x2="124.671" y2="155.2" gradientUnits="userSpaceOnUse">
<stop stop-color="#FE958F"/>
<stop offset="1" stop-color="#F77C77"/>
</linearGradient>
<linearGradient id="paint8_linear" x1="131.133" y1="155.967" x2="213.054" y2="155.967" gradientUnits="userSpaceOnUse">
<stop stop-color="#FE958F"/>
<stop offset="1" stop-color="#F77C77"/>
</linearGradient>
<linearGradient id="paint9_linear" x1="221.605" y1="155.2" x2="307.288" y2="155.2" gradientUnits="userSpaceOnUse">
<stop stop-color="#FE958F"/>
<stop offset="1" stop-color="#F77C77"/>
</linearGradient>
<linearGradient id="paint10_linear" x1="99.5647" y1="89.6154" x2="98.4522" y2="125.876" gradientUnits="userSpaceOnUse">
<stop stop-color="#E55B66"/>
<stop offset="0.2793" stop-color="#E86570"/>
<stop offset="0.7702" stop-color="#B62E39"/>
<stop offset="0.9908" stop-color="#DE1323"/>
</linearGradient>
<linearGradient id="paint11_linear" x1="100.503" y1="89.1067" x2="99.1311" y2="130.936" gradientUnits="userSpaceOnUse">
<stop stop-color="#E55B66"/>
<stop offset="0.2793" stop-color="#E86570"/>
<stop offset="0.7702" stop-color="#B62E39"/>
<stop offset="0.9908" stop-color="#DE1323"/>
</linearGradient>
<linearGradient id="paint12_linear" x1="120.282" y1="83.2631" x2="79.3028" y2="83.2631" gradientUnits="userSpaceOnUse">
<stop stop-color="#ECA3A9"/>
<stop offset="0.0887661" stop-color="#F5989F"/>
<stop offset="0.2454" stop-color="#E6737B"/>
<stop offset="0.4514" stop-color="#DB6C74"/>
<stop offset="0.6991" stop-color="#EE838B"/>
<stop offset="0.9793" stop-color="#F0B1B7"/>
<stop offset="1" stop-color="#F6B3B5"/>
</linearGradient>
<linearGradient id="paint13_linear" x1="116.336" y1="83.7238" x2="73.6895" y2="83.7238" gradientUnits="userSpaceOnUse">
<stop stop-color="#ECA3A9"/>
<stop offset="0.0887661" stop-color="#F5989F"/>
<stop offset="0.2454" stop-color="#E6737B"/>
<stop offset="0.4514" stop-color="#DB6C74"/>
<stop offset="0.6991" stop-color="#EE838B"/>
<stop offset="0.9793" stop-color="#F0B1B7"/>
<stop offset="1" stop-color="#F6B3B5"/>
</linearGradient>
<linearGradient id="paint14_linear" x1="105.134" y1="86.2711" x2="75.5464" y2="86.2711" gradientUnits="userSpaceOnUse">
<stop stop-color="#ECA3A9"/>
<stop offset="0.0887661" stop-color="#F5989F"/>
<stop offset="0.2454" stop-color="#E6737B"/>
<stop offset="0.4514" stop-color="#DB6C74"/>
<stop offset="0.6991" stop-color="#EE838B"/>
<stop offset="0.9793" stop-color="#F0B1B7"/>
<stop offset="1" stop-color="#F6B3B5"/>
</linearGradient>
<linearGradient id="paint15_linear" x1="131.282" y1="86.2269" x2="97.9292" y2="86.2269" gradientUnits="userSpaceOnUse">
<stop stop-color="#ECA3A9"/>
<stop offset="0.0887661" stop-color="#F5989F"/>
<stop offset="0.2454" stop-color="#E6737B"/>
<stop offset="0.4514" stop-color="#DB6C74"/>
<stop offset="0.6991" stop-color="#EE838B"/>
<stop offset="0.9793" stop-color="#F0B1B7"/>
<stop offset="1" stop-color="#F6B3B5"/>
</linearGradient>
<linearGradient id="paint16_linear" x1="271.61" y1="177.958" x2="266.473" y2="232.31" gradientUnits="userSpaceOnUse">
<stop stop-color="#E55B66"/>
<stop offset="0.2793" stop-color="#E86570"/>
<stop offset="0.7702" stop-color="#B62E39"/>
<stop offset="0.9908" stop-color="#DE1323"/>
</linearGradient>
<linearGradient id="paint17_linear" x1="280.093" y1="178.011" x2="275.679" y2="231.902" gradientUnits="userSpaceOnUse">
<stop stop-color="#E55B66"/>
<stop offset="0.2793" stop-color="#E86570"/>
<stop offset="0.7702" stop-color="#B62E39"/>
<stop offset="0.9908" stop-color="#DE1323"/>
</linearGradient>
<linearGradient id="paint18_linear" x1="295.382" y1="174.072" x2="252.332" y2="174.072" gradientUnits="userSpaceOnUse">
<stop stop-color="#ECA3A9"/>
<stop offset="0.0887661" stop-color="#F5989F"/>
<stop offset="0.2454" stop-color="#E6737B"/>
<stop offset="0.4514" stop-color="#DB6C74"/>
<stop offset="0.6991" stop-color="#EE838B"/>
<stop offset="0.9793" stop-color="#F0B1B7"/>
<stop offset="1" stop-color="#F6B3B5"/>
</linearGradient>
<linearGradient id="paint19_linear" x1="301.339" y1="172.687" x2="256.771" y2="172.687" gradientUnits="userSpaceOnUse">
<stop stop-color="#ECA3A9"/>
<stop offset="0.0887661" stop-color="#F5989F"/>
<stop offset="0.2454" stop-color="#E6737B"/>
<stop offset="0.4514" stop-color="#DB6C74"/>
<stop offset="0.6991" stop-color="#EE838B"/>
<stop offset="0.9793" stop-color="#F0B1B7"/>
<stop offset="1" stop-color="#F6B3B5"/>
</linearGradient>
<linearGradient id="paint20_linear" x1="309.786" y1="173.263" x2="262.908" y2="173.263" gradientUnits="userSpaceOnUse">
<stop stop-color="#ECA3A9"/>
<stop offset="0.0887661" stop-color="#F5989F"/>
<stop offset="0.2454" stop-color="#E6737B"/>
<stop offset="0.4514" stop-color="#DB6C74"/>
<stop offset="0.6991" stop-color="#EE838B"/>
<stop offset="0.9793" stop-color="#F0B1B7"/>
<stop offset="1" stop-color="#F6B3B5"/>
</linearGradient>
<linearGradient id="paint21_linear" x1="136.878" y1="189.927" x2="130.454" y2="258.737" gradientUnits="userSpaceOnUse">
<stop stop-color="#E55B66"/>
<stop offset="0.2793" stop-color="#E86570"/>
<stop offset="0.7702" stop-color="#B62E39"/>
<stop offset="0.9908" stop-color="#DE1323"/>
</linearGradient>
<linearGradient id="paint22_linear" x1="129.517" y1="192.248" x2="126.535" y2="245.082" gradientUnits="userSpaceOnUse">
<stop stop-color="#E55B66"/>
<stop offset="0.2793" stop-color="#E86570"/>
<stop offset="0.7702" stop-color="#B62E39"/>
<stop offset="0.9908" stop-color="#DE1323"/>
</linearGradient>
<linearGradient id="paint23_linear" x1="179.561" y1="186.092" x2="118.952" y2="186.092" gradientUnits="userSpaceOnUse">
<stop stop-color="#ECA3A9"/>
<stop offset="0.0887661" stop-color="#F5989F"/>
<stop offset="0.2454" stop-color="#E6737B"/>
<stop offset="0.4514" stop-color="#DB6C74"/>
<stop offset="0.6991" stop-color="#EE838B"/>
<stop offset="0.9793" stop-color="#F0B1B7"/>
<stop offset="1" stop-color="#F6B3B5"/>
</linearGradient>
<linearGradient id="paint24_linear" x1="162.804" y1="187.735" x2="115.644" y2="187.735" gradientUnits="userSpaceOnUse">
<stop stop-color="#ECA3A9"/>
<stop offset="0.0887661" stop-color="#F5989F"/>
<stop offset="0.2454" stop-color="#E6737B"/>
<stop offset="0.4514" stop-color="#DB6C74"/>
<stop offset="0.6991" stop-color="#EE838B"/>
<stop offset="0.9793" stop-color="#F0B1B7"/>
<stop offset="1" stop-color="#F6B3B5"/>
</linearGradient>
<linearGradient id="paint25_linear" x1="148.512" y1="190.058" x2="118.246" y2="190.058" gradientUnits="userSpaceOnUse">
<stop stop-color="#ECA3A9"/>
<stop offset="0.0887661" stop-color="#F5989F"/>
<stop offset="0.2454" stop-color="#E6737B"/>
<stop offset="0.4514" stop-color="#DB6C74"/>
<stop offset="0.6991" stop-color="#EE838B"/>
<stop offset="0.9793" stop-color="#F0B1B7"/>
<stop offset="1" stop-color="#F6B3B5"/>
</linearGradient>
<linearGradient id="paint26_linear" x1="252.319" y1="192.98" x2="340.439" y2="192.98" gradientUnits="userSpaceOnUse">
<stop stop-color="#FFC1C2"/>
<stop offset="1" stop-color="#FE958F"/>
</linearGradient>
<linearGradient id="paint27_linear" x1="3954.31" y1="22030.1" x2="3907.03" y2="22391.2" gradientUnits="userSpaceOnUse">
<stop stop-color="#FFC1C2"/>
<stop offset="1" stop-color="#FE958F"/>
</linearGradient>
<linearGradient id="paint28_linear" x1="4068.64" y1="21165.1" x2="4015.37" y2="21571.9" gradientUnits="userSpaceOnUse">
<stop stop-color="#FFC1C2"/>
<stop offset="1" stop-color="#FE958F"/>
</linearGradient>
<linearGradient id="paint29_linear" x1="234.124" y1="184.79" x2="243.283" y2="186.089" gradientUnits="userSpaceOnUse">
<stop stop-color="#E55B66"/>
<stop offset="0.2793" stop-color="#E86570"/>
<stop offset="0.7702" stop-color="#B62E39"/>
<stop offset="0.9908" stop-color="#DE1323"/>
</linearGradient>
<linearGradient id="paint30_linear" x1="269.251" y1="186.137" x2="231.438" y2="186.137" gradientUnits="userSpaceOnUse">
<stop stop-color="#ECA3A9"/>
<stop offset="0.0887661" stop-color="#F5989F"/>
<stop offset="0.2454" stop-color="#E6737B"/>
<stop offset="0.4514" stop-color="#DB6C74"/>
<stop offset="0.6991" stop-color="#EE838B"/>
<stop offset="0.9793" stop-color="#F0B1B7"/>
<stop offset="1" stop-color="#F6B3B5"/>
</linearGradient>
<linearGradient id="paint31_linear" x1="180022" y1="58397" x2="39624.8" y2="58397" gradientUnits="userSpaceOnUse">
<stop stop-color="#FFC1C2"/>
<stop offset="1" stop-color="#FE958F"/>
</linearGradient>
<linearGradient id="paint32_linear" x1="173.991" y1="191.696" x2="154.66" y2="191.696" gradientUnits="userSpaceOnUse">
<stop stop-color="#ECA3A9"/>
<stop offset="0.0887661" stop-color="#F5989F"/>
<stop offset="0.2454" stop-color="#E6737B"/>
<stop offset="0.4514" stop-color="#DB6C74"/>
<stop offset="0.6991" stop-color="#EE838B"/>
<stop offset="0.9793" stop-color="#F0B1B7"/>
<stop offset="1" stop-color="#F6B3B5"/>
</linearGradient>
<linearGradient id="paint33_linear" x1="171.851" y1="199.063" x2="179.044" y2="204.88" gradientUnits="userSpaceOnUse">
<stop stop-color="#E55B66"/>
<stop offset="0.2793" stop-color="#E86570"/>
<stop offset="0.7702" stop-color="#B62E39"/>
<stop offset="0.9908" stop-color="#DE1323"/>
</linearGradient>
<linearGradient id="paint34_linear" x1="200.126" y1="197.223" x2="148.319" y2="197.223" gradientUnits="userSpaceOnUse">
<stop stop-color="#ECA3A9"/>
<stop offset="0.0887661" stop-color="#F5989F"/>
<stop offset="0.2454" stop-color="#E6737B"/>
<stop offset="0.4514" stop-color="#DB6C74"/>
<stop offset="0.6991" stop-color="#EE838B"/>
<stop offset="0.9793" stop-color="#F0B1B7"/>
<stop offset="1" stop-color="#F6B3B5"/>
</linearGradient>
</defs>
</svg>
