<svg width="65" height="32" viewBox="0 0 65 32" fill="none" xmlns="http://www.w3.org/2000/svg">
<path d="M60.2153 11.2839C60.2111 11.7775 59.9084 12.0693 59.4149 12.0747C58.7795 12.0802 58.1428 12.0747 57.506 12.0734C57.506 12.0734 57.555 17.3636 57.4869 20.0088C57.4064 23.2061 55.7021 25.3808 52.6222 26.2316C50.0179 26.9515 47.3851 26.946 44.8108 26.072C42.1917 25.183 40.7533 23.3042 40.46 20.55C40.4191 20.1574 40.4068 19.7647 40.4068 19.3706C40.4068 16.2196 40.4055 13.0673 40.4068 9.91643C40.4068 8.49575 40.8295 8.05391 42.2462 7.99126C43.0138 7.95714 43.7815 7.92582 44.5408 8.06897C45.2484 8.20119 45.6071 8.60477 45.6739 9.32611C45.6997 9.59748 45.712 9.87151 45.7135 10.1429C45.7148 13.3048 45.7135 16.4666 45.7148 19.627C45.7148 20.5187 45.9656 21.2863 46.8137 21.7323C47.2296 21.9505 47.6837 22.0459 48.1499 22.0895C48.878 22.1577 49.6006 22.1523 50.3191 22.005C51.5353 21.7568 52.1679 21.0151 52.213 19.7717C52.2156 19.6804 52.213 19.5889 52.2143 19.499C52.2184 16.2361 52.2211 12.9735 52.2279 9.7121C52.2279 9.5307 52.2456 9.3481 52.2743 9.1695C52.3725 8.54639 52.7488 8.19186 53.3596 8.06643C53.7046 7.99553 54.0563 7.99139 54.4054 7.97513V7.97647H54.8553C54.8553 7.97647 54.854 7.54969 54.8676 7.4188C54.9153 6.97976 55.1744 6.69347 55.6093 6.688C56.891 6.67027 58.174 6.66894 59.457 6.68533C59.926 6.69213 60.2123 7.01801 60.2151 7.49664C60.2221 8.75885 60.2235 10.0215 60.2153 11.2839Z" fill="#BAD000"/>
<path d="M57.5097 12.0707C56.9239 12.0682 56.3369 12.0412 55.7529 12.0704C55.2422 12.0959 54.8438 11.7656 54.8598 11.1654C54.8858 10.1859 54.8794 8.95556 54.8646 7.97632C54.8646 7.97632 55.0051 7.98138 55.0791 7.98418C55.5424 8.00191 56.0062 7.98965 56.4625 8.1096C57.0071 8.25288 57.3335 8.58063 57.4402 9.1387C57.5381 9.65078 57.4869 10.1661 57.4978 10.6799C57.5077 11.1442 57.5044 11.6089 57.5069 12.0735C57.5066 12.0736 57.5097 12.0707 57.5097 12.0707Z" fill="#AEB702"/>
<path d="M0.000233251 18.0035C0.000233251 15.7412 -0.000699749 13.4791 0.00116624 11.2169C0.0015661 10.7926 0.0214256 10.3685 0.121923 9.95385C0.405953 8.78321 1.23619 8.06493 2.51626 8.01575C4.62389 7.93485 6.73673 7.86634 8.8401 8.0732C10.1875 8.20568 11.417 8.66418 12.3347 9.73153C12.9942 10.4987 13.3122 11.4172 13.4518 12.4022C13.6377 13.7138 13.618 15.0188 13.2548 16.3034C12.7465 18.1004 11.5215 19.1341 9.74804 19.5741C8.95032 19.772 8.13662 19.8353 7.31638 19.8347C5.83185 19.8333 4.34719 19.8412 2.8628 19.8267C2.5893 19.824 2.52825 19.9038 2.52985 20.1664C2.54131 21.9236 2.53492 23.6809 2.53571 25.4381C2.53585 25.6941 2.51652 25.9482 2.35645 26.1582C2.01857 26.6017 0.549101 26.6087 0.197762 26.1741C0.100197 26.0533 0.0430178 25.9135 0.0334213 25.7581C0.0198262 25.5366 0.00156602 25.3147 0.00129945 25.093C-0.000699822 22.7299 0.000233251 20.3667 0.000233251 18.0035ZM2.53691 14.3508C2.53691 15.3 2.54398 16.2494 2.53145 17.1987C2.52865 17.4122 2.5857 17.4643 2.79669 17.4631C4.36199 17.4538 5.92729 17.4606 7.49259 17.4565C7.91683 17.4554 8.33948 17.413 8.75733 17.3372C9.9425 17.1219 10.6818 16.4576 10.8847 15.3923C11.0656 14.4421 11.0782 13.4843 10.8826 12.5342C10.6625 11.4658 10.0381 10.775 8.95059 10.5318C8.51488 10.4343 8.07344 10.3858 7.63054 10.3825C6.30768 10.3725 4.98456 10.3772 3.66184 10.3809C3.51163 10.3813 3.35888 10.3992 3.21187 10.4303C2.8596 10.5051 2.64181 10.724 2.58583 11.0824C2.55624 11.2711 2.54038 11.4637 2.53945 11.6547C2.53425 12.5532 2.53678 13.4519 2.53691 14.3508Z" fill="#BAD000"/>
<path d="M29.7838 31.9976C29.1164 32.0113 28.8609 31.8099 28.7115 31.152C28.6668 30.9557 28.6186 30.7582 28.5995 30.5585C28.5573 30.1186 28.7275 29.8956 29.1643 29.8156C29.551 29.7447 29.9472 29.7166 30.3282 29.6247C31.226 29.4083 31.8657 28.8573 32.2835 28.0385C32.4673 27.6785 32.6211 27.3064 32.75 26.9242C32.7829 26.8269 32.888 26.711 32.7984 26.62C32.7288 26.5493 32.6083 26.6209 32.5117 26.639C32.0301 26.7291 31.5474 26.7313 31.0666 26.6442C30.0617 26.4622 29.424 25.832 29.0212 24.9319C28.595 23.9796 28.3849 22.9588 28.1092 21.9598C27.3476 19.2004 26.5997 16.4372 25.8495 13.6746C25.5882 12.7125 25.8063 12.4338 26.8023 12.4364C26.8832 12.4367 26.964 12.4363 27.0448 12.4395C27.7672 12.4675 28.0842 12.7102 28.2806 13.4113C28.5303 14.3036 28.7681 15.1994 29.012 16.0936C29.6589 18.4654 30.3061 20.8373 30.9539 23.2088C30.9777 23.2962 31.0099 23.3815 31.0389 23.4675C31.3565 24.409 31.7616 24.6128 32.8405 24.4793C33.2388 24.4301 33.4655 24.1331 33.6137 23.7826C33.8547 23.2129 33.9541 22.6029 34.0989 22.0068C34.7907 19.1573 35.473 16.3056 36.161 13.4551C36.3405 12.7119 36.6515 12.459 37.4107 12.4384C37.6621 12.4316 37.9144 12.4223 38.1653 12.4748C38.5778 12.5611 38.7271 12.7447 38.718 13.1692C38.7125 13.4246 38.6382 13.6665 38.5772 13.9103C37.5131 18.1693 36.4503 22.4288 35.3777 26.6857C35.093 27.8155 34.6917 28.9011 34.0185 29.8677C33.164 31.0945 31.967 31.7408 30.5068 31.941C30.3469 31.963 30.1864 31.982 30.0257 31.9965C29.9457 32.0036 29.8644 31.9976 29.7838 31.9976Z" fill="#BAD000"/>
<path d="M24.8923 19.4014C24.8923 20.4615 24.9187 21.5222 24.8866 22.5814C24.8281 24.5059 23.8719 25.7832 22.0221 26.3141C20.1459 26.8525 18.2342 26.9255 16.3506 26.3543C14.2877 25.7288 13.3869 24.1506 13.4746 22.0892C13.52 21.0221 13.8144 20.061 14.6433 19.3305C15.2742 18.7744 16.0374 18.4917 16.8447 18.3164C17.6065 18.151 18.3807 18.0919 19.1592 18.0909C20.1487 18.0896 21.1383 18.0805 22.1276 18.0972C22.4016 18.1019 22.4752 18.016 22.4593 17.7536C22.4277 17.2303 22.4785 16.7049 22.4207 16.1805C22.3322 15.3776 21.9104 14.8361 21.1623 14.5562C20.3136 14.2389 19.4236 14.2219 18.5341 14.2528C17.6259 14.2843 16.7235 14.3776 15.8332 14.5747C15.1897 14.7172 14.8766 14.4666 14.8369 13.8047C14.7729 12.7386 14.9496 12.469 16.0058 12.2845C17.9292 11.9483 19.8603 11.871 21.7682 12.3827C23.0771 12.7337 24.1159 13.4449 24.6169 14.774C24.8217 15.3174 24.9055 15.8832 24.9042 16.4634C24.902 17.4428 24.9036 18.4221 24.9036 19.4015C24.8998 19.4014 24.896 19.4014 24.8923 19.4014ZM22.4541 21.2956C22.4541 21.0029 22.4385 20.7089 22.4589 20.4175C22.4757 20.1784 22.4004 20.1067 22.1573 20.1095C21.0873 20.1223 20.0169 20.1143 18.9467 20.1154C18.5319 20.1158 18.121 20.1612 17.7149 20.2435C16.577 20.4737 16.062 21.0072 15.941 22.0745C15.8199 23.1452 16.2856 23.9988 17.2571 24.2901C18.597 24.692 19.9526 24.6358 21.2701 24.1677C21.9698 23.9192 22.323 23.3589 22.4121 22.6262C22.4662 22.1833 22.4513 21.7393 22.4541 21.2956Z" fill="#BAD000"/>
<path d="M64.1686 4.71807C64.1686 5.17177 64.1706 5.62561 64.168 6.07931C64.1658 6.48676 63.962 6.70762 63.5645 6.70922C62.6368 6.71308 61.709 6.71028 60.7814 6.70135C60.4344 6.69789 60.2057 6.4885 60.2011 6.13716C60.1884 5.1795 60.1872 4.22118 60.2035 3.26353C60.2097 2.8918 60.4367 2.69867 60.8115 2.69667C61.719 2.6916 62.6267 2.69174 63.5342 2.69627C63.9624 2.6984 64.1654 2.905 64.1679 3.32631C64.1706 3.79028 64.1684 4.25411 64.1686 4.71807Z" fill="#BAD000"/>
<path d="M57.5101 1.32634C57.5101 1.02365 57.5058 0.720823 57.5113 0.418266C57.5166 0.123306 57.641 0.00294929 57.9382 0.00188301C58.5537 -0.000516122 59.1691 -0.000782765 59.7846 0.00201622C60.0784 0.00334907 60.2115 0.125705 60.2151 0.420398C60.2228 1.03578 60.2224 1.65129 60.2162 2.26666C60.2131 2.56335 60.0656 2.7137 59.7659 2.7177C59.1607 2.72543 58.5552 2.72396 57.9499 2.71663C57.6498 2.71303 57.511 2.56562 57.5064 2.2644C57.5016 1.95171 57.5053 1.63889 57.5053 1.3262C57.507 1.32634 57.5086 1.32634 57.5101 1.32634Z" fill="#BAD000"/>
</svg>
