<svg width="217" height="34" viewBox="0 0 217 34" fill="none" xmlns="http://www.w3.org/2000/svg">
<path fill-rule="evenodd" clip-rule="evenodd" d="M174.21 11.7036C177.229 9.01072 180.821 8.38258 183.468 10.0485C185.264 11.1781 186.019 12.9919 186.108 14.94C186.271 18.5069 186.157 22.0844 186.189 25.6579C186.194 26.2699 185.999 26.5491 185.382 26.492C185.334 26.4881 185.287 26.491 185.238 26.494C181.372 26.7274 181.376 26.7274 181.371 22.8403C181.368 20.6964 181.376 18.5515 181.337 16.4089C181.307 14.7285 180.366 13.4362 179.097 13.2814C176.488 12.9628 175.244 13.7478 174.447 15.6854C173.677 17.5556 174.103 19.5309 174.009 21.4589C173.982 22.0299 174.005 22.603 174.005 23.174C174.006 26.8829 174.007 26.8673 170.269 26.5132C169.721 26.462 169.534 26.3052 169.535 25.7602C169.549 20.5677 169.545 15.3748 169.545 10.1819C169.545 8.97475 170.537 9.35798 170.984 9.49067C171.981 9.78874 173.415 8.47333 173.984 10.2426C174.123 10.6757 173.905 11.1923 174.21 11.7036Z" fill="#1C01C0"/>
<path fill-rule="evenodd" clip-rule="evenodd" d="M108.853 22.1617C110 23.2216 112.842 23.4966 114.17 22.7542C114.779 22.4126 114.941 21.8241 114.867 21.3411C114.766 20.6935 114.23 20.3113 113.506 20.1159C111.602 19.6006 109.627 19.4336 107.753 18.7434C105.542 17.9284 104.283 16.577 104.211 14.5453C104.133 12.3714 105.114 10.8712 107.453 9.94592C110.547 8.72263 113.765 8.74375 116.758 10.4533C118.04 11.186 119.004 12.2575 119.193 13.8485C119.269 14.4902 119.143 14.8698 118.415 14.8619C117.414 14.8493 116.414 14.8609 115.412 14.8559C115.006 14.854 114.754 14.7572 114.62 14.2578C114.111 12.3565 110.266 12.3962 109.155 13.4561C108.615 13.973 108.498 14.7533 109.464 15.32C111.03 16.2407 112.849 16.0743 114.481 16.6665C115.311 16.9665 116.219 17.1068 116.985 17.5171C118.681 18.4252 119.73 19.7871 119.552 21.8564C119.37 23.9874 118.078 25.3038 116.244 26.0171C112.925 27.3091 109.574 27.3091 106.405 25.5256C104.804 24.6245 103.78 23.249 104.019 21.2474C105.238 20.9899 106.475 21.2203 107.698 21.1193C108.502 21.0533 108.558 21.7184 108.853 22.1617Z" fill="#1C01C0"/>
<path fill-rule="evenodd" clip-rule="evenodd" d="M128.89 3.56997C128.895 5.09661 128.981 6.62755 128.878 8.14628C128.801 9.27979 129.237 9.60195 130.259 9.44516C130.445 9.4171 130.64 9.44119 130.831 9.44119C133.398 9.4402 133.74 9.88748 133.289 12.5087C133.192 13.0678 132.932 13.2045 132.431 13.19C131.621 13.1679 130.804 13.2451 130.001 13.1679C129.096 13.0814 128.876 13.426 128.886 14.2925C128.93 17.9647 128.874 21.6378 128.926 25.311C128.94 26.2442 128.679 26.5122 127.738 26.5178C124.149 26.5409 124.149 26.5769 124.148 22.9625C124.147 20.0996 124.113 17.2365 124.169 14.3763C124.187 13.4316 123.888 13.1596 122.953 13.1622C120.475 13.1692 120.09 12.5915 120.522 10.0611C120.667 9.21805 121.231 9.45242 121.698 9.42898C124.053 9.31213 124.054 9.31973 124.097 6.97645C124.354 6.09644 124.161 5.19629 124.216 4.30605C124.242 3.88619 124.161 3.32473 124.737 3.31515C126.125 3.29535 127.544 2.89825 128.89 3.56997Z" fill="#1C01C0"/>
<path fill-rule="evenodd" clip-rule="evenodd" d="M140.308 11.3484C142.171 9.59662 144.118 8.91697 146.446 9.2365C147.538 9.38635 147.708 9.90525 147.457 10.7443C147.24 11.4722 146.959 12.168 146.981 12.9503C146.994 13.3956 146.79 13.6751 146.264 13.5203C142.706 12.4743 140.327 14.7595 140.358 18.5564C140.375 20.7964 140.328 23.038 140.376 25.2767C140.396 26.1844 140.139 26.5135 139.172 26.5204C135.762 26.5415 135.762 26.5808 135.762 23.1493C135.762 19.0021 135.789 14.8552 135.742 10.708C135.731 9.75341 135.918 9.26983 136.981 9.42729C137.493 9.50486 138.033 9.49593 138.55 9.43123C139.816 9.27246 140.609 9.59563 140.308 11.3484Z" fill="#1C01C0"/>
<path fill-rule="evenodd" clip-rule="evenodd" d="M80.8632 26.4311C80.0928 26.4291 79.3223 26.4262 78.5529 26.4235C78.3407 26.0713 78.4242 25.6812 78.4242 25.3055C78.4183 18.4497 78.4328 11.5931 78.4054 4.73758C78.4008 3.7899 78.5189 3.20928 79.6821 3.21291C80.8338 3.21687 81.1494 3.71432 81.1458 4.77521C81.1227 11.5832 81.1362 18.3926 81.1312 25.2009C81.1316 25.629 81.1497 26.0634 80.8632 26.4311Z" fill="#1C01C0"/>
<path fill-rule="evenodd" clip-rule="evenodd" d="M216.048 5.0034C216.324 7.61471 216.128 10.2349 216.159 12.8512C216.167 13.4598 215.89 13.8517 215.194 13.7599C215.1 13.7473 215.004 13.7559 214.908 13.7589C211.153 13.8411 211.154 13.8411 211.151 10.0857C211.15 8.42011 211.136 6.75318 211.13 5.08624C211.182 4.90833 211.293 4.7806 211.463 4.70501C213.007 4.55251 214.571 4.11679 216.048 5.0034Z" fill="#05D2E3"/>
<path fill-rule="evenodd" clip-rule="evenodd" d="M211.13 5.0881C208.71 5.06764 206.29 5.01352 203.872 5.04553C202.991 5.05709 202.758 4.75802 202.745 3.89749C202.683 0.0995274 202.655 0.0945808 206.452 0.102173C208.017 0.105143 209.582 0.13617 211.147 0.154655C211.762 1.76118 211.718 3.37101 211.178 4.98546L211.13 5.0881Z" fill="#FEB601"/>
<path fill-rule="evenodd" clip-rule="evenodd" d="M211.178 4.985C211.167 3.37452 211.156 1.76371 211.146 0.154213C212.529 0.135728 213.911 0.134735 215.293 0.0911638C215.878 0.072679 216.208 0.244001 216.174 0.879085C216.102 2.25356 216.342 3.63662 216.047 5.00416C214.424 4.99756 212.801 4.99062 211.178 4.985Z" fill="#FB442F"/>
<path fill-rule="evenodd" clip-rule="evenodd" d="M108.852 22.1611C108.065 20.9428 106.832 21.2689 105.697 21.2544C105.138 21.2468 104.578 21.2494 104.019 21.2475C105.411 20.5833 106.867 20.955 108.292 21.0266C108.844 21.0537 108.943 21.6406 108.852 22.1611Z" fill="#3928C2"/>
<path d="M193.765 22.125C194.278 22.2101 194.791 22.2917 195.301 22.3934C198.375 23.0109 202.494 21.95 204.145 18.664C205.514 15.9412 205.717 12.875 206.74 10.0525C206.816 9.84054 206.768 9.50253 206.469 9.49295C205.376 9.45532 204.273 9.3893 203.187 9.488C202.294 9.5692 202.761 10.6562 202.154 11.1421C199.354 8.59645 195.31 8.67764 192.634 9.96332C187.933 12.2214 187.693 17.182 190.185 19.954C190.817 20.6558 190.345 20.9027 189.979 21.3159C188.739 22.7214 188.419 23.9127 189.195 25.137C190.002 26.4082 191.328 26.862 192.801 27.0122C195.44 27.2809 198.074 27.6074 200.705 27.9335C201.586 28.0421 201.722 28.6438 201.458 29.3581C201.182 30.1045 200.519 30.3745 199.798 30.4111C198.421 30.4788 197.009 30.6755 195.666 30.4633C193.962 30.1933 193.043 30.8204 192.33 32.2761C191.924 33.1007 191.936 33.3951 192.906 33.368C193.138 33.3611 193.372 33.4463 193.606 33.4968C197.187 34.2771 200.658 33.9315 203.95 32.319C205.423 31.5961 206.321 29.6536 206.081 28.1639C205.787 26.3415 204.884 25.444 202.862 24.9581C200.446 24.3772 197.982 24.2108 195.513 24.1045C194.782 24.0735 194.141 23.8741 193.468 23.6193C192.902 23.4057 192.94 23.0231 192.951 22.6218C192.968 22.0893 193.353 22.0553 193.765 22.125ZM196.073 12.8149C196.4 12.775 196.736 12.809 197.068 12.809C198.961 12.78 200.068 13.4273 200.561 14.8143C201.058 16.2158 200.758 17.4391 199.5 18.2785C197.659 19.5068 194.144 19.4041 193.211 16.4967C192.746 15.0529 194.296 13.0308 196.073 12.8149Z" fill="#1C01C0"/>
<path d="M157.687 9.14685C152.407 9.10525 148.266 12.6613 148.438 17.9132C148.271 23.4293 152.42 26.8516 157.552 26.8576C163.111 26.8635 166.864 23.3141 166.887 17.9172C166.91 12.757 163.095 9.18844 157.687 9.14685ZM157.519 23.0576C154.916 23.0276 153.034 20.8616 153.062 17.9288C153.09 15.0184 155.01 12.8956 157.618 12.888C160.344 12.8804 162.178 14.958 162.163 18.0364C162.148 21.09 160.3 23.0887 157.519 23.0576Z" fill="#1C01C0"/>
<path d="M5.89909 9.75554C4.93392 10.1117 4.29918 11.035 3.25281 11.1677C3.18514 11.032 3.10954 10.9528 3.11911 10.8851C3.26435 9.83509 2.97025 9.37991 1.75817 9.39344C0.557984 9.40599 0.481401 9.95295 0.484372 10.8811C0.505498 18.1229 0.52498 25.364 0.466885 32.605C0.459293 33.7887 0.943856 33.8554 1.89648 33.8848C2.93427 33.9158 3.1673 33.5567 3.14419 32.5885C3.08214 30.0235 3.12274 27.4557 3.12274 24.8504C3.98327 24.7543 4.37839 25.3418 4.86989 25.6459C7.79874 27.4567 11.5571 27.1791 13.9403 24.7672C16.3542 22.3222 16.7028 19.3409 16.312 16.0209C15.7465 11.2297 11.027 7.86514 5.89909 9.75554ZM13.5891 18.9402C13.3577 20.9329 12.7559 22.7332 10.6246 23.6363C8.32785 24.6081 6.0463 24.069 4.38564 22.2463C2.68966 20.3859 2.57282 14.7956 4.98277 13.0386C6.09186 12.2295 6.91674 11.8153 8.46055 11.8153C12.4226 11.6585 14.007 15.3436 13.5891 18.9402Z" fill="#1C01C0"/>
<path d="M68.8503 9.35067C66.2641 8.96942 63.9714 9.60714 61.7614 11.4896C62.009 9.91676 61.6489 9.27803 60.1892 9.40379C58.6068 9.5421 59.1478 10.6535 59.1432 11.4074C59.1033 18.3125 59.1244 25.2175 59.1148 32.1226C59.1128 33.1085 58.9805 33.9044 60.5144 33.9123C62.0321 33.9219 61.7845 33.0854 61.7855 32.2223C61.7905 29.7123 61.7875 27.2037 61.7875 24.6947C62.5474 25.204 63.2111 25.5602 63.8442 25.9077C67.2686 27.7882 72.0132 26.4814 73.7574 23.2159C75.2992 20.3316 75.3593 17.5104 74.576 14.5C73.9046 11.9253 71.4567 9.73588 68.8503 9.35067ZM71.8072 20.7776C70.9962 23.3377 68.7692 24.5689 65.9987 24.0636C64.1298 23.7232 62.0529 21.9701 61.8261 19.3638C61.7816 18.8439 61.8192 18.3154 61.8192 18.09C61.6545 15.6546 62.3562 13.9309 64.1615 12.6647C66.8098 10.8063 70.4819 11.786 71.6801 14.771C72.472 16.7376 72.4304 18.8099 71.8072 20.7776Z" fill="#1C01C0"/>
<path d="M22.9324 10.4527C19.9309 12.1101 18.2323 16.958 19.3509 20.6128C20.7003 25.0233 23.9418 26.787 27.8549 26.8471C30.2612 26.8847 32.6115 26.2599 34.3863 24.3691C34.7349 23.9984 35.1363 23.4554 34.5801 23.2175C33.9315 22.9389 33.3452 21.6756 32.6134 22.4691C30.9455 24.283 28.8963 24.2229 26.7554 24.1427C24.6366 24.0631 22.4471 22.1301 22.0524 20.1163C21.884 19.2568 22.0593 19.16 22.7716 19.1637C24.8218 19.1782 26.8719 19.1686 28.9218 19.1696C30.9719 19.1706 33.0231 19.1501 35.0719 19.1812C35.8163 19.1917 36.2516 19.0082 36.251 18.1668C36.2496 15.8381 35.707 13.6895 34.1738 11.8853C31.4991 8.7376 26.4643 8.50554 22.9324 10.4527ZM32.1447 16.6685C30.6184 16.6385 29.0921 16.66 27.5658 16.66C26.1827 16.659 24.7993 16.66 23.4163 16.659C21.9702 16.656 21.6932 16.1846 22.3709 14.8778C23.0726 13.5288 24.088 12.4613 25.5687 12.0767C28.6273 11.2822 31.9054 11.7282 33.0528 15.5651C33.3667 16.6134 32.9669 16.6851 32.1447 16.6685Z" fill="#1C01C0"/>
<path d="M88.6298 10.33C84.8546 12.3808 83.3062 17.6127 85.1336 21.7665C86.714 25.3631 89.6778 26.8412 93.3695 26.8442C95.6818 26.8462 97.9244 26.2035 99.6976 24.4884C100.155 24.0441 100.39 23.4245 99.8593 23.2155C99.2503 22.9772 98.7908 21.7685 97.958 22.5867C96.4684 24.0527 94.6605 24.1982 92.7315 24.2038C90.1287 24.2098 88.1868 22.4121 87.4418 20.3534C87.1131 19.4476 87.2785 19.1436 88.2456 19.1601C90.2453 19.1948 92.2469 19.1707 94.2466 19.1717C96.3423 19.1727 98.4377 19.1657 100.534 19.1786C101.046 19.1816 101.469 19.1796 101.506 18.4844C101.612 16.4617 101.314 14.5683 100.209 12.7971C97.6933 8.76574 92.0142 8.49078 88.6298 10.33ZM97.7068 16.6812C96.0894 16.6076 94.4654 16.6607 92.843 16.6607C91.2702 16.6607 89.6957 16.6251 88.1245 16.6762C87.2603 16.7043 87.1597 16.3877 87.4062 15.6579C88.8068 11.5193 93.8089 10.8321 96.6258 12.7466C97.6649 13.4543 98.099 14.5439 98.4968 15.6338C98.7034 16.2062 98.6202 16.7228 97.7068 16.6812Z" fill="#1C01C0"/>
<path d="M47.507 9.23359C42.6178 9.20256 38.6284 12.9048 38.7713 17.8858C38.6495 23.0688 42.4475 26.7806 47.4572 26.777C52.589 26.773 56.2605 23.1068 56.2533 17.9304C56.2476 12.7256 52.4702 9.26363 47.507 9.23359ZM47.4321 24.2185C44.3649 24.2195 41.5493 21.5705 41.5539 17.9089C41.5589 14.1763 44.3474 11.5594 47.5113 11.8228C51.1178 11.5294 53.4575 14.7671 53.4756 17.8878C53.4961 21.2249 51.1082 24.2175 47.4321 24.2185Z" fill="#1C01C0"/>
</svg>
