<svg width="12" height="13" viewBox="0 0 12 13" fill="none" xmlns="http://www.w3.org/2000/svg">
<path d="M7.74003 8.46822C7.53449 8.46822 7.32784 8.41893 7.13669 8.31914L6.14475 7.80123C6.03942 7.74625 5.91375 7.74625 5.80845 7.80123L4.81648 8.31911C4.37482 8.54971 3.85046 8.51062 3.44814 8.21707C3.04897 7.92582 2.85306 7.44321 2.93694 6.95755L3.1264 5.86061C3.14604 5.74689 3.10786 5.63069 3.02431 5.54981L2.22178 4.77295C1.86592 4.42849 1.73941 3.92237 1.89156 3.45207C2.04444 2.97951 2.44598 2.64171 2.93947 2.57051L4.0485 2.41046C4.16569 2.39354 4.26675 2.32095 4.31875 2.21624L4.81475 1.21822C5.03492 0.77522 5.4801 0.5 5.97656 0.5C6.47303 0.5 6.91824 0.77522 7.13838 1.21822L7.63437 2.21621C7.6864 2.32093 7.78744 2.39354 7.90462 2.41046L9.01366 2.57051C9.50715 2.64173 9.90867 2.97953 10.0616 3.45207C10.2137 3.92235 10.0872 4.42849 9.73134 4.77295L8.92884 5.54979C8.84527 5.63069 8.80709 5.74689 8.82673 5.86063L9.01619 6.9575C9.10007 7.44318 8.90419 7.9258 8.50498 8.21705C8.27683 8.38359 8.00936 8.46822 7.74003 8.46822ZM5.97659 6.8226C6.18337 6.8226 6.39011 6.87179 6.57864 6.9702L7.57056 7.48809C7.75107 7.58228 7.89778 7.49967 7.95248 7.45973C8.00566 7.42094 8.12575 7.3099 8.09245 7.11706L7.90298 6.02016C7.83054 5.60055 7.97032 5.17292 8.2769 4.87619L9.07938 4.09935C9.22119 3.96205 9.18976 3.80275 9.16968 3.74064C9.14922 3.67741 9.08003 3.52725 8.87983 3.49835L7.7708 3.3383C7.3488 3.27741 6.984 3.01389 6.79491 2.63341L6.29892 1.63542C6.21011 1.45674 6.04395 1.43745 5.97661 1.43745C5.90928 1.43745 5.74311 1.45674 5.65431 1.63542L5.15831 2.63344C4.96925 3.01389 4.60443 3.27741 4.18242 3.3383L3.07339 3.49835C2.87319 3.52725 2.804 3.67741 2.78354 3.74064C2.76346 3.80275 2.73203 3.96205 2.87385 4.09935L3.67635 4.87619C3.9829 5.1729 4.12268 5.60055 4.05024 6.02012L3.86077 7.11706C3.82747 7.30987 3.94756 7.42092 4.00074 7.45971C4.05544 7.49962 4.2022 7.5823 4.38267 7.48804L5.37461 6.97016C5.56302 6.87181 5.76983 6.8226 5.97659 6.8226ZM5.23453 1.42686H5.23476H5.23453ZM4.10932 12.4996C3.94733 12.4996 3.78449 12.4608 3.63381 12.3822L2.97038 12.0358C2.94493 12.0225 2.91463 12.0225 2.88917 12.0358L2.22575 12.3822C1.87764 12.5639 1.46435 12.5331 1.14725 12.3017C0.832234 12.0719 0.677691 11.6909 0.7439 11.3075L0.8706 10.5739C0.874983 10.5485 0.866264 10.5223 0.847327 10.504L0.310622 9.98445C0.0297542 9.71258 -0.0701104 9.31303 0.0500272 8.94172C0.170633 8.56888 0.487289 8.3024 0.876412 8.24627L1.61812 8.13924C1.63673 8.13654 1.65414 8.12785 1.6671 8.11474C1.84911 7.93065 2.14585 7.92891 2.32999 8.1109C2.51409 8.29289 2.51582 8.58967 2.33381 8.77379C2.17815 8.93124 1.97155 9.03542 1.75204 9.0671L1.01031 9.17414C0.9973 9.17601 0.957715 9.18173 0.941989 9.23029C0.92706 9.27642 0.953871 9.30234 0.96266 9.31087L1.49937 9.8304C1.7413 10.0646 1.8516 10.4022 1.79441 10.7334L1.66771 11.467C1.66567 11.4789 1.65944 11.5149 1.69982 11.5444C1.72888 11.5656 1.75987 11.5678 1.7919 11.5511L2.45533 11.2048C2.75242 11.0497 3.10716 11.0497 3.40425 11.2048L4.06768 11.5512C4.09969 11.5678 4.13067 11.5656 4.15976 11.5444C4.20014 11.5149 4.19391 11.4789 4.19187 11.4671L4.06517 10.7335C4.00798 10.4022 4.11828 10.0646 4.36021 9.83042L4.89692 9.31089C5.08289 9.13085 5.3797 9.13563 5.55972 9.32167C5.73978 9.50767 5.73495 9.80443 5.54893 9.98447L5.01223 10.504C4.99327 10.5223 4.98457 10.5485 4.98896 10.5739L5.11566 11.3075C5.18187 11.6909 5.02732 12.0719 4.71231 12.3017C4.53243 12.4329 4.32159 12.4996 4.10932 12.4996ZM10.8528 12.3017C11.1678 12.0718 11.3223 11.6909 11.2561 11.3075L11.1294 10.5739C11.125 10.5485 11.1337 10.5223 11.1527 10.5039L11.6894 9.98442C11.9702 9.71255 12.0701 9.313 11.95 8.94169C11.8294 8.56886 11.5127 8.30238 11.1236 8.24625L10.3819 8.13921C10.3633 8.13652 10.3459 8.12782 10.3329 8.11472C10.1509 7.93062 9.85411 7.92889 9.67001 8.11088C9.48591 8.29286 9.48418 8.58965 9.66619 8.77377C9.82186 8.93122 10.0285 9.03539 10.248 9.06708L10.9897 9.17412C11.0027 9.17599 11.0423 9.18171 11.058 9.23027C11.0729 9.27639 11.0461 9.30232 11.0373 9.31085L10.5006 9.83037C10.2587 10.0646 10.1484 10.4021 10.2056 10.7334L10.3323 11.467C10.3343 11.4789 10.3406 11.5149 10.3002 11.5444C10.2711 11.5655 10.2401 11.5678 10.2081 11.5511L9.54467 11.2047C9.24758 11.0496 8.89282 11.0496 8.59576 11.2047L7.93233 11.5511C7.90029 11.5678 7.86933 11.5656 7.84024 11.5443C7.79986 11.5149 7.8061 11.4788 7.80814 11.467L7.93484 10.7334C7.99202 10.4021 7.88173 10.0646 7.63979 9.83035L7.10308 9.31082C6.91706 9.13076 6.62031 9.13559 6.44029 9.3216C6.26022 9.5076 6.26505 9.80436 6.45107 9.9844L6.98777 10.5039C7.00673 10.5223 7.01543 10.5484 7.01105 10.5738L6.88435 11.3074C6.81814 11.6908 6.97268 12.0718 7.2877 12.3017C7.6048 12.533 8.01808 12.5639 8.36619 12.3821L9.02962 12.0357C9.05507 12.0225 9.08538 12.0225 9.11083 12.0357L9.77426 12.3821C9.92493 12.4608 10.0878 12.4996 10.2498 12.4996C10.4621 12.4996 10.6729 12.4329 10.8528 12.3017Z" fill="#E25569"/>
</svg>
