<svg width="32" height="33" viewBox="0 0 32 33" fill="none" xmlns="http://www.w3.org/2000/svg">
<rect x="10" y="9.86652" width="14" height="15.7647" fill="#E25569"/>
<path d="M16 0.925385C7.16345 0.925385 0 8.08883 0 16.9254C0 25.7619 7.16345 32.9254 16 32.9254C24.8366 32.9254 32 25.7619 32 16.9254C31.9906 8.09278 24.8327 0.934826 16 0.925385ZM22.7382 17.4352C22.6275 17.6574 22.4474 17.8375 22.2251 17.9483V17.954L13.0823 22.5254C12.5177 22.8075 11.8313 22.5786 11.5491 22.0139C11.4689 21.8534 11.4275 21.6762 11.4285 21.4968V12.354C11.4283 11.7228 11.9397 11.2109 12.5709 11.2106C12.7484 11.2105 12.9235 11.2518 13.0823 11.3311L22.2251 15.9026C22.7901 16.1841 23.0198 16.8703 22.7382 17.4352Z" fill="white"/>
</svg>
