<svg width="32" height="32" viewBox="0 0 32 32" fill="none" xmlns="http://www.w3.org/2000/svg">
<path d="M16 11.8333C16.9205 11.8333 17.6666 11.0871 17.6666 10.1667C17.6666 9.24619 16.9205 8.5 16 8.5C15.0795 8.5 14.3333 9.24619 14.3333 10.1667C14.3333 11.0871 15.0795 11.8333 16 11.8333Z" stroke="#E25569" stroke-linecap="round" stroke-linejoin="round"/>
<path d="M22.6666 16.4167V20.375C22.6721 20.4676 22.6564 20.5602 22.6208 20.6459C22.5652 20.7799 22.4619 20.8886 22.3308 20.9509L17.7791 23.1009C17.2228 23.3637 16.6152 23.5 16 23.5C15.3847 23.5 14.7771 23.3637 14.2208 23.1009L9.66914 20.9509C9.56173 20.8999 9.47228 20.8177 9.41262 20.7148C9.35295 20.612 9.32588 20.4935 9.33497 20.375L9.33331 16.4167" stroke="#E25569" stroke-linecap="round" stroke-linejoin="round"/>
<path d="M9.6925 16.18L14.3875 14.2367C15.4201 13.8098 16.5799 13.8098 17.6125 14.2367L22.3075 16.18C22.4115 16.2225 22.5008 16.2945 22.5645 16.387C22.6282 16.4796 22.6634 16.5888 22.6659 16.7011C22.6684 16.8134 22.638 16.924 22.5785 17.0193C22.5189 17.1146 22.4329 17.1904 22.3308 17.2375L17.7792 19.3567C17.2218 19.6158 16.6146 19.75 16 19.75C15.3854 19.75 14.7782 19.6158 14.2208 19.3567L9.66916 17.2375C9.56657 17.1908 9.47993 17.1151 9.41997 17.0197C9.36002 16.9242 9.32938 16.8133 9.33187 16.7006C9.33435 16.588 9.36984 16.4785 9.43395 16.3858C9.49805 16.2931 9.58795 16.2213 9.6925 16.1792V16.18Z" stroke="#E25569" stroke-linecap="round" stroke-linejoin="round"/>
<path d="M16 11.8333V16.8333" stroke="#E25569" stroke-linecap="round" stroke-linejoin="round"/>
</svg>
