<svg width="111" height="126" viewBox="0 0 111 126" fill="none" xmlns="http://www.w3.org/2000/svg">
<path d="M65.243 112.098C64.4714 112.098 63.6758 112.066 62.8541 112C39.6756 110.137 29.4203 109.216 25.4293 100.414C21.3686 91.4559 13.9556 47.4197 25.4293 28.6514C33.117 16.0733 40.8025 12.4378 50.672 12.4378C55.5305 12.4378 60.9164 13.3187 67.0958 14.4456C86.2593 17.9449 91.5276 23.799 90.5925 44.7683C89.6574 65.7382 91.181 76.4312 89.5223 86.4475C89.1866 88.4792 86.2485 112.098 65.243 112.098ZM33.5224 96.4291C31.9422 96.4291 30.6605 97.7205 30.6605 99.3135C30.6605 100.906 31.9422 102.198 33.5224 102.198C35.1027 102.198 36.3843 100.906 36.3843 99.3135C36.3843 97.7205 35.1027 96.4291 33.5224 96.4291ZM79.9427 87.7229C78.8681 87.7229 77.9962 88.6006 77.9962 89.6836C77.9962 90.7665 78.8681 91.6443 79.9427 91.6443C81.0172 91.6443 81.8891 90.7665 81.8891 89.6836C81.8891 88.6006 81.0172 87.7229 79.9427 87.7229ZM44.8806 25.7057C43.2982 25.7057 42.0187 26.9973 42.0187 28.5899C42.0187 30.1824 43.2982 31.4741 44.8806 31.4741C46.4609 31.4741 47.7425 30.1824 47.7425 28.5899C47.7425 26.9973 46.4609 25.7057 44.8806 25.7057Z" fill="#FFF4E9"/>
<path d="M33.524 102.198C31.9437 102.198 30.6621 100.907 30.6621 99.3138C30.6621 97.7207 31.9437 96.4293 33.524 96.4293C35.1043 96.4293 36.3859 97.7207 36.3859 99.3138C36.3859 100.907 35.1043 102.198 33.524 102.198Z" fill="#F4D9BB"/>
<path d="M79.9425 91.6445C78.8679 91.6445 77.9961 90.7667 77.9961 89.6838C77.9961 88.6008 78.8679 87.723 79.9425 87.723C81.0171 87.723 81.889 88.6008 81.889 89.6838C81.889 90.7667 81.0171 91.6445 79.9425 91.6445Z" fill="#F4D9BB"/>
<path d="M44.8795 31.4741C43.297 31.4741 42.0176 30.1825 42.0176 28.5899C42.0176 26.9973 43.297 25.7057 44.8795 25.7057C46.4597 25.7057 47.7414 26.9973 47.7414 28.5899C47.7414 30.1825 46.4597 31.4741 44.8795 31.4741Z" fill="#CDE1EB"/>
<path d="M58.101 119.11L50.6204 119.426C49.0074 119.442 47.6648 118.257 47.4381 116.704C47.4032 116.469 47.4076 116.23 47.4272 115.992L47.6734 113.034C47.6669 112.397 48.1791 111.877 48.8156 111.87L58.0312 111.781C58.6677 111.775 59.1886 112.286 59.1952 112.922L59.2431 117.946C59.2475 118.583 58.7374 119.103 58.101 119.11Z" fill="white"/>
<path d="M46.939 111.25C46.7734 111.25 46.6143 111.154 46.5424 110.993L27.5182 68.9581C27.418 68.7374 27.5139 68.4768 27.734 68.376C27.952 68.2754 28.2114 68.3727 28.3116 68.5935L47.3357 110.628C47.436 110.849 47.3379 111.109 47.12 111.21C47.0611 111.237 47.0001 111.25 46.939 111.25Z" fill="#23282E"/>
<path d="M60.1734 111.25C60.1145 111.25 60.0535 111.237 59.9947 111.21C59.7745 111.11 59.6786 110.85 59.7767 110.629L77.6717 70.8664C77.772 70.6452 78.0292 70.5472 78.2493 70.6478C78.4673 70.748 78.5654 71.0083 78.4651 71.2293L60.5723 110.992C60.4982 111.154 60.339 111.25 60.1734 111.25Z" fill="#23282E"/>
<path d="M53.7203 114.179C52.1924 114.179 50.95 115.432 50.95 116.97C50.95 118.509 52.1924 119.761 53.7203 119.761C55.2461 119.761 56.4885 118.509 56.4885 116.97C56.4885 115.432 55.2461 114.179 53.7203 114.179ZM53.7203 120.639C51.7129 120.639 50.0781 118.993 50.0781 116.97C50.0781 114.947 51.7129 113.301 53.7203 113.301C55.7278 113.301 57.3604 114.947 57.3604 116.97C57.3604 118.993 55.7278 120.639 53.7203 120.639Z" fill="#23282E"/>
<path d="M46.9395 112.018C46.9395 110.38 49.9016 109.053 53.5569 109.053C57.2122 109.053 60.1766 110.38 60.1766 112.018H46.9395Z" fill="#FB9946"/>
<path d="M57.1232 123.935H50.205C48.7533 123.935 47.5393 122.664 47.3845 120.979L46.5061 111.503C46.4821 111.261 46.6587 111.047 46.8984 111.024C47.1382 111.003 47.3518 111.179 47.3736 111.421L48.252 120.898C48.3653 122.128 49.2067 123.056 50.205 123.056H57.1232C58.0409 123.056 58.8037 122.201 58.8975 121.066L59.741 110.774C59.7606 110.533 59.9677 110.35 60.2118 110.372C60.4516 110.392 60.6303 110.605 60.6107 110.847L59.765 121.139C59.6342 122.733 58.4986 123.935 57.1232 123.935Z" fill="#23282E"/>
<path d="M47.4134 126C47.3741 126 47.3327 125.994 47.2913 125.982C44.8 125.25 43.2589 122.755 43.7058 120.178C43.7472 119.939 43.9761 119.78 44.2115 119.821C44.449 119.863 44.606 120.091 44.5646 120.33C44.194 122.464 45.4713 124.532 47.5355 125.139C47.7665 125.207 47.8995 125.45 47.8319 125.683C47.7774 125.875 47.603 126 47.4134 126Z" fill="#23282E"/>
<path d="M60.1748 111.799C59.935 111.799 59.7388 111.602 59.7388 111.359C59.7388 110.631 58.8212 109.876 57.3434 109.388C57.1145 109.312 56.9903 109.064 57.0644 108.834C57.1407 108.603 57.387 108.477 57.6159 108.553C59.5187 109.181 60.6107 110.204 60.6107 111.359C60.6107 111.602 60.4167 111.799 60.1748 111.799Z" fill="#23282E"/>
<path d="M46.9398 111.799C46.6979 111.799 46.5039 111.602 46.5039 111.359C46.5039 109.45 49.6012 107.954 53.5573 107.954C53.7992 107.954 53.9932 108.151 53.9932 108.394C53.9932 108.636 53.7992 108.833 53.5573 108.833C50.6344 108.833 47.3758 109.87 47.3758 111.359C47.3758 111.602 47.1796 111.799 46.9398 111.799Z" fill="#23282E"/>
<path d="M51.7136 108.833C51.5065 108.833 51.3212 108.683 51.2842 108.47L47.2605 85.4052C47.2191 85.1662 47.376 84.9384 47.6136 84.8965C47.8512 84.8536 48.0779 85.0142 48.1193 85.253L52.143 108.318C52.1844 108.557 52.0274 108.784 51.7898 108.826C51.7637 108.831 51.7375 108.833 51.7136 108.833Z" fill="#23282E"/>
<path d="M55.3606 109.013L55.3105 109.01C55.0707 108.982 54.8985 108.765 54.9269 108.524L57.5752 85.2787C57.6035 85.0375 57.8193 84.8657 58.059 84.8925C58.2988 84.9202 58.4688 85.1379 58.4426 85.3791L55.7922 108.624C55.766 108.848 55.5786 109.013 55.3606 109.013Z" fill="#23282E"/>
<path d="M58.9283 125.734C58.7103 125.734 58.5207 125.568 58.4968 125.344C58.4706 125.102 58.6428 124.885 58.8825 124.858C61.0796 124.613 62.7362 122.747 62.7362 120.519C62.7362 120.277 62.9302 120.08 63.1721 120.08C63.4119 120.08 63.6081 120.277 63.6081 120.519C63.6081 123.196 61.618 125.437 58.9785 125.732L58.9283 125.734Z" fill="#23282E"/>
<path d="M57.6431 20.4932C61.0826 33.2558 49.3757 46.3259 36.4416 44.8058C33.2702 44.4324 30.2034 43.2769 27.6052 41.401C22.0928 37.4184 18.6904 30.6681 19.3639 23.7925C20.6543 10.5994 35.5392 0.826469 47.6232 7.445C52.6212 10.182 56.1849 15.0806 57.6431 20.4932Z" fill="#FB9946"/>
<path d="M39.3771 44.9114C38.6818 44.9114 37.9864 44.8696 37.2955 44.7884C34.002 44.4018 30.8764 43.198 28.2565 41.3045C27.7747 40.9552 27.3018 40.5818 26.8527 40.193C26.6696 40.0348 26.65 39.758 26.807 39.5735C26.9617 39.389 27.2385 39.3692 27.4216 39.5274C27.851 39.8986 28.3044 40.2567 28.7643 40.5906C31.2644 42.3962 34.2505 43.5473 37.3979 43.9163C41.6134 44.4105 45.9923 43.3034 49.7326 40.797C53.3443 38.3763 56.1387 34.8419 57.599 30.844C57.6819 30.6155 57.9347 30.4991 58.1592 30.5826C58.3859 30.6682 58.5014 30.9209 58.4186 31.1471C56.8928 35.3186 53.9786 39.0068 50.2165 41.5285C46.9144 43.7406 43.1326 44.9114 39.3771 44.9114Z" fill="#23282E"/>
<path d="M58.407 30.2332C58.3655 30.2332 58.3242 30.2265 58.2827 30.2156C58.0517 30.1453 57.9209 29.9015 57.9885 29.6686C58.3024 28.5944 58.5203 27.4983 58.6315 26.4066C58.6555 26.1649 58.8691 25.9914 59.1088 26.0156C59.3486 26.0397 59.5229 26.2572 59.499 26.4966C59.3813 27.6411 59.1546 28.7921 58.8233 29.919C58.7688 30.1101 58.5944 30.2332 58.407 30.2332Z" fill="#23282E"/>
<path d="M59.14 24.2957C58.9067 24.2957 58.7149 24.1111 58.704 23.8761C58.6495 22.6218 58.4556 21.3697 58.1264 20.155C56.9908 15.9396 54.5779 12.1306 51.3281 9.42867C51.1428 9.2727 51.1166 8.99592 51.2692 8.80921C51.4239 8.62249 51.6964 8.59615 51.8839 8.74991C55.2689 11.5682 57.7864 15.5354 58.9678 19.9243C59.3122 21.2028 59.5171 22.5186 59.5759 23.8366C59.5846 24.0782 59.3993 24.2847 59.1596 24.2957H59.14Z" fill="#23282E"/>
<path d="M50.2788 8.51685C50.1938 8.51685 50.1066 8.49049 50.0325 8.43777C49.481 8.05336 48.9056 7.6975 48.3215 7.37679C48.11 7.26037 48.0316 6.99456 48.1471 6.78148C48.2626 6.56841 48.5263 6.48933 48.7378 6.60575C49.3481 6.93964 49.9518 7.31308 50.5273 7.71507C50.7256 7.85345 50.7757 8.12803 50.6384 8.32573C50.5534 8.45094 50.4183 8.51685 50.2788 8.51685Z" fill="#23282E"/>
<path d="M20.186 25.4355H20.1838C19.944 25.4334 19.7478 25.2357 19.75 24.994C19.7522 24.4273 19.7827 23.8562 19.8372 23.2982C20.4148 17.3936 23.8042 11.735 28.9046 8.15882C33.7369 4.76937 39.5108 3.62053 44.7442 5.00442C44.9774 5.06593 45.1169 5.30755 45.0559 5.5404C44.9949 5.77544 44.7551 5.91602 44.5241 5.85451C39.537 4.53652 34.0268 5.63705 29.4016 8.87932C24.5082 12.3105 21.2562 17.7319 20.7047 23.3839C20.6524 23.9154 20.6241 24.458 20.6219 24.9984C20.6197 25.24 20.4257 25.4355 20.186 25.4355Z" fill="#23282E"/>
<path d="M29.5632 12.7654C29.2908 12.7654 29.0226 12.638 28.8526 12.3985C28.5715 12.0031 28.663 11.454 29.0553 11.1728C29.8553 10.5973 30.7141 10.0877 31.6077 9.65711C32.0437 9.44842 32.5624 9.63293 32.7717 10.0723C32.9787 10.5094 32.7935 11.0344 32.3597 11.2431C31.5554 11.6297 30.786 12.0866 30.0689 12.6028C29.9141 12.7127 29.7376 12.7654 29.5632 12.7654Z" fill="#E07419"/>
<path d="M26.7363 36.3552C26.49 36.3552 26.2459 36.2498 26.0737 36.0477C25.1124 34.9164 24.2994 33.6555 23.6586 32.3002C20.8098 26.2835 21.7274 19.1049 25.9995 14.013C26.3091 13.6418 26.8605 13.5956 27.2289 13.9098C27.5951 14.2217 27.6408 14.7774 27.3313 15.1465C23.5017 19.7133 22.6777 26.1495 25.2323 31.5445C25.8077 32.7615 26.5357 33.8906 27.3989 34.9054C27.7106 35.2723 27.6692 35.828 27.303 36.1422C27.1395 36.2849 26.9368 36.3552 26.7363 36.3552Z" fill="#E07419"/>
<path d="M57.6978 10.8147C57.5692 10.8147 57.4406 10.7554 57.3534 10.6456C56.451 9.48352 55.4331 8.42912 54.328 7.51091C54.1428 7.35495 54.1166 7.07817 54.2692 6.89145C54.4218 6.70473 54.6964 6.67837 54.8838 6.83214C56.0369 7.79208 57.0984 8.89261 58.04 10.103C58.1882 10.2941 58.1555 10.5709 57.9659 10.7202C57.8852 10.7839 57.7915 10.8147 57.6978 10.8147Z" fill="#23282E"/>
<path d="M15.9716 21.8616C15.9498 21.8616 15.928 21.8594 15.9062 21.8572C15.6686 21.822 15.503 21.598 15.5378 21.3586C16.0566 17.8131 17.5017 14.3775 19.7141 11.423C19.8579 11.2297 20.1326 11.1924 20.3244 11.3374C20.5162 11.4846 20.5554 11.7591 20.4094 11.9524C18.2842 14.7905 16.898 18.0855 16.401 21.486C16.3683 21.7056 16.183 21.8616 15.9716 21.8616Z" fill="#23282E"/>
<path d="M92.4572 20.592C95.8967 33.3546 84.1897 46.4247 71.2556 44.9047C68.0841 44.5334 65.0174 43.3758 62.4192 41.4998C56.9068 37.5173 53.5066 30.767 54.1779 23.8936C55.4704 10.6983 70.3532 0.927544 82.4372 7.54388C87.4374 10.2809 90.999 15.1817 92.4572 20.592Z" fill="#FB9946"/>
<path d="M93.2215 30.332C93.18 30.332 93.1386 30.3254 93.0972 30.3144C92.8661 30.2463 92.7354 30.0003 92.8029 29.7675C93.119 28.6933 93.3348 27.5972 93.4459 26.5076C93.4699 26.266 93.6835 26.0881 93.9233 26.1144C94.1631 26.1408 94.3374 26.3561 94.3135 26.5977C94.1958 27.74 93.9691 28.891 93.6399 30.0179C93.5833 30.209 93.4089 30.332 93.2215 30.332Z" fill="#23282E"/>
<path d="M93.9564 24.3943C93.7231 24.3943 93.5313 24.2098 93.5204 23.9747C93.4659 22.7204 93.2719 21.4683 92.945 20.2536C91.8094 16.0382 89.3943 12.2292 86.1444 9.5273C85.9592 9.37353 85.933 9.09675 86.0856 8.90784C86.2404 8.72112 86.515 8.69478 86.7003 8.84855C90.0874 11.6669 92.6028 15.6362 93.7863 20.0229C94.1307 21.3014 94.3334 22.6172 94.3923 23.9352C94.4032 24.1768 94.2157 24.3833 93.976 24.3943H93.9564Z" fill="#23282E"/>
<path d="M85.0913 8.61572C85.0063 8.61572 84.9213 8.58937 84.845 8.53665C84.2935 8.15224 83.7181 7.79638 83.134 7.47567C82.9225 7.36144 82.8441 7.09344 82.9596 6.88036C83.0751 6.66729 83.3388 6.58821 83.5503 6.70463C84.1627 7.03852 84.7644 7.41195 85.3398 7.81394C85.5381 7.95233 85.5883 8.22692 85.451 8.42682C85.3659 8.54983 85.2308 8.61572 85.0913 8.61572Z" fill="#23282E"/>
<path d="M56.6708 33.304C56.5052 33.304 56.3461 33.2073 56.2741 33.0448C54.8944 29.9606 54.3342 26.6261 54.6503 23.397C55.2279 17.4924 58.6173 11.8338 63.7177 8.25764C68.5522 4.86819 74.3239 3.71935 79.5573 5.10324C79.7905 5.16695 79.93 5.40638 79.869 5.64143C79.8079 5.87647 79.5704 6.01484 79.3371 5.95333C74.3501 4.63534 68.8399 5.73807 64.2168 8.97814C59.3234 12.4093 56.0714 17.8329 55.5178 23.4827C55.217 26.558 55.7532 29.741 57.0675 32.6823C57.1678 32.9042 57.0697 33.1656 56.8495 33.2644C56.7907 33.2908 56.7297 33.304 56.6708 33.304Z" fill="#23282E"/>
<path d="M64.3767 12.8665C64.1042 12.8665 63.8361 12.7369 63.6661 12.4974C63.3871 12.102 63.4765 11.5551 63.8689 11.2717C64.6688 10.6962 65.5276 10.1865 66.4234 9.75599C66.8572 9.54731 67.3781 9.73182 67.5852 10.1711C67.7922 10.6083 67.607 11.1333 67.1732 11.342C66.3711 11.7286 65.5995 12.1855 64.8824 12.7017C64.7298 12.8115 64.5511 12.8665 64.3767 12.8665Z" fill="#E07419"/>
<path d="M61.5482 36.4539C61.3041 36.4539 61.0599 36.3506 60.8856 36.1463C59.9243 35.0172 59.1113 33.7564 58.4705 32.401C55.6217 26.3844 56.5415 19.2057 60.8115 14.1116C61.1232 13.7404 61.6724 13.6943 62.0408 14.0084C62.4092 14.3225 62.4549 14.8761 62.1432 15.2473C58.3136 19.812 57.4897 26.2482 60.0442 31.6432C60.6197 32.8601 61.3498 33.9892 62.2108 35.0041C62.5247 35.3709 62.4811 35.9267 62.1149 36.243C61.9514 36.3836 61.7487 36.4539 61.5482 36.4539Z" fill="#E07419"/>
<path d="M96.0059 16.0537C95.8337 16.0537 95.6702 15.9505 95.6005 15.7769C94.2927 12.4775 92.2089 9.57795 89.578 7.39008C89.3928 7.23411 89.3666 6.95733 89.5192 6.77061C89.674 6.5839 89.9486 6.55753 90.1338 6.7113C92.8759 8.99363 95.0468 12.0162 96.4113 15.4518C96.5006 15.6759 96.3917 15.9329 96.1672 16.0229C96.1149 16.0427 96.0604 16.0537 96.0059 16.0537Z" fill="#23282E"/>
<path d="M61.879 4.53003C61.7417 4.53003 61.6044 4.46414 61.5216 4.34113C61.3842 4.14123 61.4322 3.86885 61.6306 3.73046C64.5513 1.68537 68.0257 0.395924 71.6766 0.00272226C71.9142 -0.0236378 72.13 0.1521 72.1561 0.391535C72.1823 0.633168 72.0079 0.850629 71.7682 0.876988C68.2633 1.25481 64.9284 2.49154 62.1275 4.45096C62.0512 4.50368 61.964 4.53003 61.879 4.53003Z" fill="#23282E"/>
<path d="M56.2129 52.94C55.426 70.5698 35.2685 82.3729 19.4464 75.1336C15.5666 73.3582 12.138 70.6317 9.59429 67.1797C4.19962 59.8573 2.60411 49.8845 6.23761 41.4252C13.2082 25.1875 36.0706 18.8808 48.7519 32.2475C53.9983 37.7765 56.5464 45.4648 56.2129 52.94Z" fill="#FB9946"/>
<path d="M30.864 77.5259C27.2915 77.5259 23.791 76.7887 20.6021 75.3297C16.5959 73.4966 13.1302 70.6985 10.58 67.2378C10.1114 66.6023 9.66457 65.9372 9.25261 65.2606C9.12619 65.0541 9.1894 64.7835 9.39429 64.6563C9.59918 64.5293 9.86945 64.5935 9.99369 64.8002C10.3948 65.455 10.8263 66.0989 11.2797 66.7139C13.7427 70.0553 17.0907 72.758 20.9618 74.5294C26.1494 76.9025 32.1979 77.2954 37.998 75.6359C43.5932 74.0343 48.5999 70.671 52.0917 66.1659C52.2399 65.975 52.5124 65.9409 52.7042 66.0903C52.8938 66.2397 52.9265 66.5158 52.7783 66.7069C49.1731 71.3577 44.0073 74.8288 38.2356 76.4812C35.7965 77.1793 33.3117 77.5259 30.864 77.5259Z" fill="#23282E"/>
<path d="M53.4228 65.511C53.3378 65.511 53.2527 65.4864 53.1764 65.4348C52.9781 65.2984 52.9258 65.0251 53.0631 64.8245C53.9001 63.583 54.6238 62.2672 55.2101 60.9206C55.306 60.6966 55.5632 60.5977 55.7834 60.6944C56.0035 60.791 56.1059 61.0502 56.0078 61.2721C55.4019 62.6692 54.6521 64.0315 53.7824 65.3188C53.6996 65.4438 53.5623 65.511 53.4228 65.511Z" fill="#23282E"/>
<path d="M56.7564 58.2671C56.7194 58.2671 56.6801 58.2627 56.6431 58.2517C56.4098 58.188 56.2725 57.9464 56.3357 57.7113C56.776 56.0858 57.0376 54.4054 57.1117 52.7161C57.3732 46.8642 55.8366 41.0014 52.7829 36.2104C52.6543 36.0062 52.7131 35.7338 52.9158 35.602C53.1164 35.4724 53.3867 35.5317 53.5175 35.736C56.6671 40.6785 58.2517 46.7237 57.9836 52.7557C57.9051 54.5086 57.6326 56.255 57.1771 57.9442C57.1248 58.1397 56.9482 58.2671 56.7564 58.2671Z" fill="#23282E"/>
<path d="M51.8724 34.5803C51.7417 34.5803 51.613 34.521 51.528 34.409C50.9788 33.6907 50.3902 32.9965 49.7734 32.3463C49.6077 32.1706 49.6121 31.8938 49.7865 31.7269C49.9608 31.5577 50.2377 31.5643 50.4033 31.74C51.042 32.4122 51.6523 33.1305 52.219 33.873C52.365 34.0663 52.3301 34.3409 52.1383 34.4881C52.0599 34.5496 51.9662 34.5803 51.8724 34.5803Z" fill="#23282E"/>
<path d="M7.27163 60.5933C7.09508 60.5933 6.92726 60.4834 6.86405 60.3055C4.5013 53.8517 4.61027 47.0113 7.17138 41.0474C10.2752 33.8204 16.836 28.0519 24.722 25.6115C32.1917 23.3028 39.9491 24.2056 46.0021 28.0893C46.2048 28.2211 46.2658 28.4913 46.1372 28.6978C46.0064 28.9021 45.7383 28.9614 45.5334 28.8318C39.6963 25.0865 32.2026 24.2188 24.977 26.4528C17.333 28.8164 10.9749 34.4025 7.97349 41.3966C5.49957 47.1519 5.39714 53.7594 7.68143 60.0024C7.76425 60.2286 7.64872 60.4812 7.42204 60.5647C7.37408 60.5845 7.32176 60.5933 7.27163 60.5933Z" fill="#23282E"/>
<path d="M24.0085 31.3601C23.6402 31.3601 23.298 31.1229 23.1781 30.7494C23.0321 30.2881 23.2849 29.7917 23.7426 29.6445C24.9763 29.2469 26.2558 28.9548 27.5505 28.7768C28.0278 28.7109 28.466 29.0492 28.5313 29.5303C28.5967 30.0114 28.2611 30.4529 27.7859 30.5188C26.5914 30.6835 25.4101 30.9515 24.2745 31.3184C24.1873 31.3469 24.0957 31.3601 24.0085 31.3601Z" fill="#E07419"/>
<path d="M10.8862 60.1736C10.544 60.1736 10.2214 59.9715 10.0819 59.6354C9.32776 57.8276 8.809 55.9187 8.54526 53.957C7.3726 45.2561 11.3875 36.6254 18.7766 31.9685C19.1842 31.7115 19.7226 31.8345 19.9776 32.2474C20.2326 32.6582 20.1084 33.2008 19.7008 33.4578C12.8937 37.7501 9.19261 45.7042 10.2737 53.7198C10.5178 55.5276 10.993 57.2894 11.6883 58.9544C11.8758 59.4004 11.6665 59.9166 11.2241 60.1055C11.1129 60.1516 10.9974 60.1736 10.8862 60.1736Z" fill="#E07419"/>
<path d="M62.09 48.6104C61.8633 48.6104 61.6715 48.4346 61.6562 48.2018C61.3227 43.4482 59.8406 38.8835 57.3688 35.002C57.2402 34.7978 57.2991 34.5276 57.5018 34.3958C57.7023 34.264 57.9726 34.3233 58.1034 34.5276C60.6536 38.5321 62.1815 43.2395 62.5259 48.1403C62.5433 48.3819 62.3603 48.5928 62.1205 48.6104H62.09Z" fill="#23282E"/>
<path d="M0.438136 48.8386L0.392372 48.8364C0.152609 48.8123 -0.0217724 48.597 0.00220387 48.3554C0.486089 43.6216 2.20368 38.98 4.96749 34.9338C5.10263 34.7339 5.37508 34.6833 5.57343 34.8217C5.77178 34.9579 5.82191 35.2325 5.68459 35.4324C3.0036 39.3578 1.33835 43.8566 0.869726 48.4454C0.84793 48.6717 0.658282 48.8386 0.438136 48.8386Z" fill="#23282E"/>
<path d="M75.1148 60.9359C74.4674 75.4268 57.8998 85.1284 44.8938 79.178C41.7049 77.7188 38.8866 75.4778 36.7963 72.6403C32.3629 66.6213 31.0507 58.4251 34.0369 51.4705C39.7672 38.1258 58.5581 32.9395 68.9812 43.9272C73.2948 48.472 75.3872 54.7918 75.1148 60.9359Z" fill="#FB9946"/>
<path d="M54.277 81.2224C51.33 81.2224 48.442 80.6142 45.8112 79.4104C42.5068 77.898 39.6471 75.5897 37.5437 72.7347C37.1579 72.2111 36.7895 71.6623 36.4473 71.1042C36.3209 70.8975 36.3863 70.6268 36.5912 70.4996C36.7961 70.372 37.0642 70.4368 37.1906 70.6433C37.5175 71.1802 37.8728 71.7076 38.2434 72.2108C40.2595 74.9466 42.9994 77.1595 46.1708 78.6104C50.4168 80.5533 55.3711 80.8745 60.1206 79.5156C64.7044 78.2035 68.8044 75.4489 71.6641 71.759C71.8124 71.5676 72.087 71.534 72.2766 71.6832C72.4662 71.8326 72.499 72.1087 72.3507 72.3C69.3777 76.1356 65.1186 78.9983 60.3582 80.3609C58.3464 80.9366 56.2975 81.2224 54.277 81.2224Z" fill="#23282E"/>
<path d="M72.8196 71.3469C72.7367 71.3469 72.6495 71.3221 72.5754 71.2707C72.3771 71.1341 72.3248 70.861 72.4599 70.6603C73.1465 69.6441 73.7372 68.5684 74.2189 67.4637C74.3148 67.2411 74.572 67.1408 74.7921 67.2374C75.0123 67.3349 75.1147 67.5939 75.0166 67.8162C74.5153 68.9706 73.8985 70.0937 73.1814 71.1547C73.0964 71.2797 72.9591 71.3469 72.8196 71.3469Z" fill="#23282E"/>
<path d="M75.5609 65.3928C75.5217 65.3928 75.4846 65.3878 75.4454 65.3772C75.2122 65.3133 75.0749 65.0719 75.1403 64.8377C75.4999 63.5081 75.7135 62.1308 75.7745 60.7491C75.9881 55.9538 74.7283 51.1519 72.2282 47.2264C72.0996 47.0222 72.1585 46.7498 72.3612 46.6202C72.5617 46.4884 72.832 46.5477 72.9628 46.752C75.5587 50.829 76.8665 55.8132 76.6464 60.7864C76.581 62.2362 76.3565 63.6772 75.9794 65.0688C75.9271 65.2643 75.7527 65.3928 75.5609 65.3928Z" fill="#23282E"/>
<path d="M71.5458 45.9238C71.415 45.9238 71.2864 45.8645 71.1992 45.7525C70.7502 45.1638 70.2685 44.5948 69.7628 44.0633C69.5972 43.8875 69.6037 43.6107 69.7759 43.4416C69.9503 43.2747 70.2271 43.2813 70.3928 43.457C70.9181 44.0105 71.4237 44.6036 71.8902 45.2165C72.0384 45.4076 72.0014 45.6844 71.8117 45.8316C71.7311 45.8931 71.6374 45.9238 71.5458 45.9238Z" fill="#23282E"/>
<path d="M34.8857 67.3042C34.707 67.3042 34.5413 67.1944 34.4759 67.0169C32.5273 61.6937 32.6188 56.0505 34.7331 51.13C37.292 45.1683 42.702 40.4103 49.2061 38.3981C55.368 36.4936 61.7653 37.2405 66.7611 40.4454C66.966 40.575 67.0248 40.8474 66.8962 41.0517C66.7654 41.256 66.4973 41.3153 66.2924 41.1857C61.5146 38.1192 55.3789 37.4097 49.4611 39.2395C43.1989 41.1769 37.9917 45.7504 35.5331 51.4792C33.5081 56.1911 33.4231 61.6015 35.2933 66.7129C35.3783 66.9404 35.2628 67.193 35.0361 67.277C34.986 67.2954 34.9358 67.3042 34.8857 67.3042Z" fill="#23282E"/>
<path d="M48.6414 43.356C48.273 43.356 47.9308 43.1165 47.8109 42.7453C47.6649 42.2818 47.9177 41.7876 48.3754 41.6404C49.3977 41.3087 50.4614 41.0671 51.5316 40.9199C52.0111 40.854 52.4492 41.1923 52.5146 41.6733C52.5778 42.1544 52.2443 42.5959 51.767 42.6618C50.7949 42.7958 49.8336 43.0133 48.9095 43.312C48.8201 43.3406 48.7307 43.356 48.6414 43.356Z" fill="#E07419"/>
<path d="M37.8556 67.0383C37.5156 67.0383 37.193 66.8365 37.0513 66.5004C36.4257 65.0025 35.9985 63.4182 35.7784 61.7927C34.8063 54.5811 38.1346 47.4265 44.2594 43.5648C44.667 43.3078 45.2054 43.433 45.4604 43.8438C45.7154 44.2568 45.5934 44.7971 45.1836 45.0564C39.6407 48.5512 36.6263 55.027 37.5068 61.5577C37.7052 63.0294 38.0932 64.4632 38.6599 65.8187C38.8451 66.266 38.6381 66.7813 38.1934 66.9696C38.0823 67.0161 37.9689 67.0383 37.8556 67.0383Z" fill="#E07419"/>
<path d="M79.9445 57.4565C79.7178 57.4565 79.526 57.2786 79.5086 57.048C79.2361 53.1533 78.0221 49.4146 75.9993 46.236C75.8686 46.0317 75.9274 45.7593 76.1301 45.6275C76.3328 45.4979 76.601 45.555 76.7317 45.7593C78.8351 49.0631 80.0971 52.9446 80.3783 56.9864C80.3957 57.2281 80.2148 57.4368 79.975 57.4543L79.9445 57.4565Z" fill="#23282E"/>
<path d="M105.84 51.0136C109.955 66.2801 95.9509 81.9131 80.4797 80.0954C76.6871 79.6497 73.0187 78.2673 69.9127 76.0219C63.3192 71.2582 59.2497 63.1853 60.054 54.961C61.5972 39.1802 79.4007 27.4918 93.8563 35.4063C99.8351 38.6815 104.096 44.5422 105.84 51.0136Z" fill="#FB9946"/>
<path d="M83.9932 80.1343C83.1649 80.1343 82.3366 80.0864 81.5127 79.9897C77.5893 79.5284 73.8643 78.0925 70.7409 75.837C70.1676 75.4229 69.6052 74.9774 69.0669 74.5128C68.8859 74.3551 68.8642 74.0777 69.0211 73.8934C69.178 73.7095 69.4527 73.688 69.6358 73.8459C70.1545 74.294 70.6973 74.7235 71.2487 75.1228C74.2523 77.2918 77.8357 78.6731 81.6152 79.117C86.6764 79.7108 91.9359 78.3816 96.426 75.3719C100.761 72.4671 104.116 68.224 105.87 63.4245C105.953 63.1961 106.204 63.0796 106.428 63.1631C106.655 63.2488 106.771 63.5014 106.688 63.7277C104.87 68.7013 101.398 73.0964 96.9099 76.1036C92.9756 78.7396 88.468 80.1343 83.9932 80.1343Z" fill="#23282E"/>
<path d="M106.753 62.5789C106.712 62.5789 106.671 62.5723 106.629 62.5591C106.398 62.491 106.265 62.2472 106.335 62.0143C106.712 60.7271 106.971 59.4091 107.107 58.0977C107.131 57.856 107.346 57.6803 107.584 57.7045C107.824 57.7308 107.998 57.9461 107.974 58.1877C107.835 59.5519 107.564 60.9248 107.17 62.2625C107.115 62.4536 106.941 62.5789 106.753 62.5789Z" fill="#23282E"/>
<path d="M107.631 55.4749C107.398 55.4749 107.206 55.2903 107.195 55.0553C107.13 53.5506 106.897 52.0459 106.502 50.5873C105.14 45.5284 102.241 40.9571 98.3417 37.7127C98.1565 37.5589 98.1303 37.2821 98.2829 37.0932C98.4376 36.9065 98.7123 36.8801 98.8975 37.0339C102.934 40.3926 105.936 45.1242 107.344 50.3566C107.756 51.8789 107.998 53.4451 108.067 55.0157C108.076 55.2596 107.891 55.4639 107.651 55.4749H107.631Z" fill="#23282E"/>
<path d="M97.0333 36.6013C96.9461 36.6013 96.8612 36.5772 96.7849 36.5244C96.1223 36.0631 95.4335 35.6348 94.7316 35.2504C94.5202 35.1339 94.4417 34.8682 94.5572 34.6551C94.6728 34.442 94.9365 34.3629 95.1479 34.4794C95.8759 34.8769 96.593 35.3229 97.2818 35.8017C97.4802 35.9401 97.5281 36.2125 97.3908 36.4124C97.308 36.5354 97.1706 36.6013 97.0333 36.6013Z" fill="#23282E"/>
<path d="M66.0203 71.1038C65.8917 71.1038 65.7631 71.046 65.6781 70.935C61.9029 66.0672 60.1352 60.1868 60.7041 54.3766C61.3929 47.3407 65.434 40.5948 71.5152 36.3311C77.2739 32.2914 84.1551 30.9229 90.3911 32.5726C90.6243 32.6341 90.7638 32.8735 90.7028 33.1086C90.6396 33.3436 90.402 33.4842 90.1688 33.4227C84.1813 31.8367 77.5638 33.1591 72.0122 37.0516C66.138 41.1703 62.2364 47.679 61.5716 54.4623C61.0245 60.0462 62.7268 65.705 66.3647 70.394C66.5129 70.5851 66.478 70.8612 66.2884 71.0106C66.2099 71.0734 66.114 71.1038 66.0203 71.1038Z" fill="#23282E"/>
<path d="M72.253 41.5986C71.9806 41.5986 71.7147 41.4712 71.5425 41.2318C71.2635 40.8364 71.355 40.2872 71.7452 40.0061C72.6955 39.3229 73.7134 38.7188 74.7749 38.207C75.2087 37.9983 75.7296 38.185 75.9367 38.6222C76.1437 39.0615 75.9606 39.5843 75.5247 39.793C74.5569 40.2609 73.6262 40.8122 72.7587 41.4361C72.6061 41.5459 72.4296 41.5986 72.253 41.5986Z" fill="#E07419"/>
<path d="M68.8723 69.8145C68.626 69.8145 68.3819 69.7103 68.2098 69.5076C67.0698 68.1667 66.1064 66.6717 65.3457 65.0635C61.9672 57.9285 63.057 49.4143 68.1226 43.3735C68.4321 43.0044 68.9835 42.9561 69.3497 43.2702C69.7181 43.5844 69.7638 44.1379 69.4543 44.5091C64.8291 50.0228 63.8351 57.7945 66.9194 64.3068C67.6147 65.7754 68.4931 67.1407 69.535 68.3642C69.8467 68.7326 69.8052 69.2873 69.439 69.6031C69.2756 69.745 69.0729 69.8145 68.8723 69.8145Z" fill="#E07419"/>
<path d="M109.565 45.7612C109.393 45.7612 109.229 45.658 109.159 45.4866C107.588 41.5261 105.09 38.0444 101.932 35.4172C101.746 35.2634 101.72 34.9866 101.873 34.7999C102.025 34.6132 102.3 34.5868 102.487 34.7406C105.757 37.4601 108.344 41.0626 109.97 45.1594C110.06 45.3856 109.951 45.6404 109.726 45.7305C109.674 45.7525 109.619 45.7612 109.565 45.7612Z" fill="#23282E"/>
</svg>
