<svg width="48" height="48" viewBox="0 0 48 48" fill="none" xmlns="http://www.w3.org/2000/svg">
<path d="M34.072 38.0736C34.0732 38.3194 34.0651 38.5619 34.0467 38.8031C33.6711 43.8464 29.1643 47.6593 24.0417 47.0825L12.1722 45.7442C6.80724 45.1399 3.17011 39.9898 4.39702 34.7317L7.82631 20.0384L8.03425 19.1492C8.60631 16.6954 9.83791 14.5505 11.5071 12.8721C11.4738 13.2477 11.4577 13.6257 11.4577 14.0071C11.4577 14.7825 11.5266 15.5683 11.6691 16.3553L14.5147 32.1009C15.4751 37.4142 20.8562 40.6986 26.0212 39.1247L34.0652 36.6732L34.072 38.0736Z" fill="#FB9946"/>
<path d="M11.5064 12.8721C11.4732 13.2477 11.457 13.6257 11.457 14.0071C11.457 14.7825 11.5259 15.5683 11.6684 16.3553L14.514 32.1009C15.4744 37.4142 20.8555 40.6986 26.0206 39.1247L34.0645 36.6732L37.4466 35.6416C42.6117 34.0677 45.2459 28.3397 43.0792 23.3941L36.6585 8.73862C33.9818 2.62921 27.1567 -0.509268 20.7762 1.43567C15.5376 3.0313 11.9614 7.64156 11.5064 12.8721ZM19.6286 9.04078C19.23 7.34972 20.2087 5.61618 21.8952 5.10384C23.6506 4.56852 25.5082 5.55759 26.0424 7.31296C26.3204 8.22628 26.1872 9.16603 25.7472 9.93338C25.3428 10.6422 24.6765 11.204 23.8333 11.4613C22.0768 11.9966 20.2202 11.0076 19.6849 9.25097C19.663 9.18094 19.6446 9.11081 19.6286 9.04078Z" fill="#FEC99E"/>
<path d="M34.0651 36.6732L26.0211 39.1247C20.856 40.6986 15.4751 37.4142 14.5146 32.1009L11.669 16.3553C11.5266 15.5683 11.4576 14.7825 11.4576 14.0071C11.4576 13.6257 11.4737 13.2477 11.507 12.8721C9.83777 14.5505 8.60627 16.6953 8.03411 19.1492L7.82617 20.0384L10.6086 35.4325C11.569 40.7458 16.95 44.0302 22.1151 42.4563L30.1591 40.0048L33.5412 38.9732C33.7124 38.9215 33.8812 38.864 34.0467 38.8031C34.0651 38.5619 34.0731 38.3194 34.072 38.0736L34.0651 36.6732Z" fill="#FB9946"/>
<path d="M20.8294 8.98535C20.425 8.98535 20.0252 9.0026 19.6289 9.04048C19.645 9.11051 19.6634 9.18063 19.6852 9.25066C20.2205 11.0072 22.077 11.9963 23.8335 11.461C24.6767 11.2037 25.3431 10.6419 25.7474 9.93307C24.6699 9.49995 23.5176 9.20473 22.3136 9.06804C21.8151 9.0117 21.3188 8.98535 20.8294 8.98535Z" fill="#FB9946"/>
<path d="M40.4032 30.4439C40.2828 30.4439 40.1603 30.4185 40.0437 30.3648C39.6115 30.166 39.4221 29.6543 39.621 29.222C40.2605 27.8317 40.2744 26.294 39.6602 24.8923L33.2396 10.2369C32.7237 9.05917 31.9869 8.01723 31.05 7.13991C30.7027 6.81469 30.6847 6.26944 31.0101 5.9221C31.3354 5.57485 31.8806 5.55675 32.2279 5.88216C33.3364 6.92007 34.2079 8.1527 34.818 9.54545L41.2386 24.2009C42.053 26.0596 42.0345 28.0986 41.1867 29.9423C41.0413 30.2578 40.7292 30.4439 40.4032 30.4439Z" fill="white"/>
<path d="M29.6233 5.89989C30.0991 5.89989 30.4848 5.51415 30.4848 5.03832C30.4848 4.56249 30.0991 4.17676 29.6233 4.17676C29.1475 4.17676 28.7617 4.56249 28.7617 5.03832C28.7617 5.51415 29.1475 5.89989 29.6233 5.89989Z" fill="white"/>
<path d="M26.5584 10.2505C27.084 9.26386 27.194 8.13164 26.8681 7.06242C26.1953 4.85507 23.8519 3.6067 21.6447 4.27935C20.5754 4.60523 19.697 5.32814 19.1713 6.31467C18.6456 7.30129 18.5357 8.43351 18.8615 9.50283C19.4109 11.3051 21.0738 12.4681 22.8671 12.4681C23.2702 12.4681 23.6799 12.4095 24.0849 12.286C25.1543 11.9599 26.0326 11.2371 26.5584 10.2505ZM20.9631 9.84792C21.3821 9.85252 21.804 9.87802 22.2166 9.92498C22.9042 10.0025 23.5809 10.137 24.2399 10.3258C24.04 10.4598 23.8193 10.5652 23.5825 10.6373C22.9535 10.8291 22.2875 10.7643 21.7071 10.4551C21.4172 10.3007 21.1658 10.0943 20.9631 9.84792ZM25.2612 8.83917C24.3396 8.53336 23.3842 8.32251 22.4105 8.21273C21.7515 8.13783 21.0727 8.11148 20.409 8.13117C20.4303 7.78364 20.5235 7.44145 20.692 7.12495C21.0012 6.54454 21.5179 6.11939 22.147 5.92767C22.3852 5.85511 22.6265 5.82051 22.8635 5.82051C23.9185 5.82051 24.8965 6.50461 25.2197 7.56483C25.3479 7.98539 25.3589 8.42217 25.2612 8.83917Z" fill="#333A43"/>
<path d="M5.10881 42.4785C6.73491 44.7822 9.2746 46.2844 12.0767 46.6L23.9463 47.9379C24.3148 47.9793 24.6835 48 25.0506 48C27.4746 48 29.8334 47.1065 31.655 45.4706C33.7529 43.5867 34.9483 40.8891 34.9347 38.0695L34.931 37.3095L37.6993 36.4657C40.3961 35.6437 42.6184 33.7032 43.7962 31.1417C44.9741 28.5802 45.0008 25.63 43.8695 23.0476L37.4489 8.39221C34.598 1.88464 27.3235 -1.46046 20.5272 0.610855C15.0502 2.28017 11.2783 7.04324 10.6815 12.4887C8.96776 14.2908 7.7641 16.5183 7.19588 18.9529L3.55894 34.5353C2.91825 37.2803 3.48309 40.1756 5.10881 42.4785ZM37.1971 34.8176L25.771 38.3002C23.5446 38.9788 21.1279 38.6724 19.1413 37.4597C17.1546 36.2469 15.7778 34.2375 15.3637 31.9469L12.5183 16.2016C11.4101 10.0698 15.0693 4.07605 21.0296 2.25926C22.2185 1.89692 23.4245 1.72348 24.6126 1.72348C29.3812 1.72348 33.8689 4.51489 35.8706 9.0838L42.2914 23.7395C43.2256 25.8715 43.2035 28.3073 42.231 30.422C41.2583 32.5368 39.4235 34.139 37.1971 34.8176ZM5.23688 34.927L8.87382 19.3445C9.21629 17.8773 9.82248 16.4965 10.6547 15.2631C10.692 15.6769 10.7473 16.092 10.8224 16.5078L13.6678 32.2531C14.1692 35.0275 15.8369 37.4612 18.2433 38.9304C19.8089 39.8861 21.595 40.377 23.3946 40.3772C24.3609 40.3772 25.331 40.2357 26.2733 39.9485L33.2102 37.8342L33.2114 38.0779C33.2226 40.4058 32.2357 42.6331 30.5036 44.1885C28.7718 45.7437 26.4523 46.4859 24.1393 46.2256L12.2696 44.8877C9.95607 44.6271 7.85916 43.3868 6.51647 41.4847C5.17453 39.5834 4.70813 37.1932 5.23688 34.927Z" fill="#333A43"/>
<path d="M32.8536 18.8711L21.4275 22.3537C21.3438 22.3792 21.2592 22.3914 21.1761 22.3914C20.807 22.3914 20.4655 22.1523 20.3521 21.7808C20.2134 21.3257 20.4699 20.8442 20.9251 20.7054L32.3512 17.2228C32.8063 17.0839 33.2879 17.3405 33.4266 17.7958C33.5653 18.2509 33.3088 18.7324 32.8536 18.8711Z" fill="#333A43"/>
<path d="M22.3909 26.304C22.0218 26.304 21.6803 26.0649 21.567 25.6934C21.4282 25.2383 21.6847 24.7568 22.14 24.618L33.5661 21.1354C34.0211 20.9964 34.5027 21.2532 34.6415 21.7084C34.7802 22.1635 34.5237 22.645 34.0685 22.7838L22.6424 26.2664C22.5587 26.2919 22.4741 26.304 22.3909 26.304Z" fill="#333A43"/>
</svg>
