<svg width="16" height="16" viewBox="0 0 16 16" fill="none" xmlns="http://www.w3.org/2000/svg">
<path d="M11.3333 7.33398H4.66659C3.93021 7.33398 3.33325 7.93094 3.33325 8.66732V12.6673C3.33325 13.4037 3.93021 14.0007 4.66659 14.0007H11.3333C12.0696 14.0007 12.6666 13.4037 12.6666 12.6673V8.66732C12.6666 7.93094 12.0696 7.33398 11.3333 7.33398Z" stroke="#23282E" stroke-linecap="round" stroke-linejoin="round"/>
<path d="M7.99992 11.3333C8.36811 11.3333 8.66658 11.0349 8.66658 10.6667C8.66658 10.2985 8.36811 10 7.99992 10C7.63173 10 7.33325 10.2985 7.33325 10.6667C7.33325 11.0349 7.63173 11.3333 7.99992 11.3333Z" stroke="#23282E" stroke-linecap="round" stroke-linejoin="round"/>
<path d="M5.33325 7.33333V4.66667C5.33325 3.95942 5.6142 3.28115 6.1143 2.78105C6.6144 2.28095 7.29267 2 7.99992 2C8.70716 2 9.38544 2.28095 9.88554 2.78105C10.3856 3.28115 10.6666 3.95942 10.6666 4.66667V7.33333" stroke="#23282E" stroke-linecap="round" stroke-linejoin="round"/>
</svg>
