<svg width="16" height="16" viewBox="0 0 16 16" fill="none">
<path d="M1.54688 16C1.20169 16 0.921875 15.7202 0.921875 15.375C0.921875 12.2389 3.47328 9.6875 6.60938 9.6875H7.54688C8.18866 9.6875 8.81884 9.79375 9.41991 10.0033C9.74584 10.1169 9.91797 10.4733 9.80431 10.7992C9.69069 11.1251 9.33431 11.2972 9.00841 11.1836C8.53994 11.0203 8.04822 10.9375 7.54688 10.9375H6.60938C4.16253 10.9375 2.17188 12.9282 2.17188 15.375C2.17188 15.7202 1.89206 16 1.54688 16ZM11.2344 4.21875C11.2344 1.89253 9.34184 0 7.01562 0C4.68941 0 2.79688 1.89253 2.79688 4.21875C2.79688 6.54497 4.68941 8.4375 7.01562 8.4375C9.34184 8.4375 11.2344 6.54497 11.2344 4.21875ZM9.98438 4.21875C9.98438 5.85572 8.65259 7.1875 7.01562 7.1875C5.37866 7.1875 4.04688 5.85572 4.04688 4.21875C4.04688 2.58178 5.37866 1.25 7.01562 1.25C8.65259 1.25 9.98438 2.58178 9.98438 4.21875ZM14.4531 12.25H12.5781V10.375C12.5781 10.0298 12.2983 9.75 11.9531 9.75C11.6079 9.75 11.3281 10.0298 11.3281 10.375V12.25H9.45312C9.10794 12.25 8.82812 12.5298 8.82812 12.875C8.82812 13.2202 9.10794 13.5 9.45312 13.5H11.3281V15.375C11.3281 15.7202 11.6079 16 11.9531 16C12.2983 16 12.5781 15.7202 12.5781 15.375V13.5H14.4531C14.7983 13.5 15.0781 13.2202 15.0781 12.875C15.0781 12.5298 14.7983 12.25 14.4531 12.25Z" fill="#E25569"/>
</svg>
