<svg width="32" height="32" viewBox="0 0 32 32" fill="none" xmlns="http://www.w3.org/2000/svg">
<path d="M16 22.6667L13.5 20.1667H11.8333C11.1703 20.1667 10.5344 19.9033 10.0655 19.4344C9.5967 18.9656 9.33331 18.3297 9.33331 17.6667V12.6667C9.33331 12.0036 9.5967 11.3677 10.0655 10.8989C10.5344 10.43 11.1703 10.1667 11.8333 10.1667H20.1666C20.8297 10.1667 21.4656 10.43 21.9344 10.8989C22.4032 11.3677 22.6666 12.0036 22.6666 12.6667V17.6667C22.6666 18.3297 22.4032 18.9656 21.9344 19.4344C21.4656 19.9033 20.8297 20.1667 20.1666 20.1667H18.5L16 22.6667Z" stroke="#E25569" stroke-linecap="round" stroke-linejoin="round"/>
<path d="M15.5833 18.0833V18.09" stroke="#E25569" stroke-linecap="round" stroke-linejoin="round"/>
<path d="M15.5834 15.5833C15.7932 15.5834 15.9996 15.5307 16.1836 15.4301C16.3677 15.3295 16.5234 15.1842 16.6366 15.0076C16.7497 14.8309 16.8166 14.6287 16.8311 14.4194C16.8455 14.2102 16.8071 14.0007 16.7193 13.8102C16.6315 13.6197 16.4972 13.4543 16.3288 13.3293C16.1603 13.2044 15.9631 13.1238 15.7553 13.0951C15.5476 13.0663 15.3359 13.0903 15.1398 13.1649C14.9438 13.2394 14.7696 13.3621 14.6334 13.5216" stroke="#E25569" stroke-linecap="round" stroke-linejoin="round"/>
</svg>
