<svg width="24" height="24" viewBox="0 0 24 24" fill="none" xmlns="http://www.w3.org/2000/svg">
<path d="M12 12V12.01" stroke="#E25569" stroke-width="1.5" stroke-linecap="round" stroke-linejoin="round"/>
<path d="M14.8281 9.172C15.578 9.92211 15.9993 10.9393 15.9993 12C15.9993 13.0607 15.578 14.0779 14.8281 14.828" stroke="#E25569" stroke-width="1.5" stroke-linecap="round" stroke-linejoin="round"/>
<path d="M17.6582 6.34296C18.4011 7.08583 18.9904 7.96776 19.3925 8.93839C19.7946 9.90903 20.0015 10.9493 20.0015 12C20.0015 13.0506 19.7946 14.0909 19.3925 15.0615C18.9904 16.0321 18.4011 16.9141 17.6582 17.657" stroke="#E25569" stroke-width="1.5" stroke-linecap="round" stroke-linejoin="round"/>
<path d="M9.16724 14.828C8.41736 14.0779 7.99609 13.0607 7.99609 12C7.99609 10.9393 8.41736 9.92211 9.16724 9.172" stroke="#E25569" stroke-width="1.5" stroke-linecap="round" stroke-linejoin="round"/>
<path d="M6.33743 17.657C5.59452 16.9141 5.00521 16.0321 4.60314 15.0615C4.20108 14.0909 3.99414 13.0506 3.99414 12C3.99414 10.9493 4.20108 9.90903 4.60314 8.93839C5.00521 7.96776 5.59452 7.08583 6.33743 6.34296" stroke="#E25569" stroke-width="1.5" stroke-linecap="round" stroke-linejoin="round"/>
</svg>
