<svg width="16" height="17" viewBox="0 0 16 17" fill="none" xmlns="http://www.w3.org/2000/svg">
<path d="M2.66797 5.16678H13.3346" stroke="black" stroke-linecap="round" stroke-linejoin="round"/>
<path d="M6.66797 7.83322V11.8332" stroke="black" stroke-linecap="round" stroke-linejoin="round"/>
<path d="M9.33203 7.83322V11.8332" stroke="black" stroke-linecap="round" stroke-linejoin="round"/>
<path d="M3.33203 5.16678L3.9987 13.1668C3.9987 13.5204 4.13917 13.8595 4.38922 14.1096C4.63927 14.3596 4.97841 14.5001 5.33203 14.5001H10.6654C11.019 14.5001 11.3581 14.3596 11.6082 14.1096C11.8582 13.8595 11.9987 13.5204 11.9987 13.1668L12.6654 5.16678" stroke="black" stroke-linecap="round" stroke-linejoin="round"/>
<path d="M6 5.16667V3.16667C6 2.98986 6.07024 2.82029 6.19526 2.69526C6.32029 2.57024 6.48986 2.5 6.66667 2.5H9.33333C9.51014 2.5 9.67971 2.57024 9.80474 2.69526C9.92976 2.82029 10 2.98986 10 3.16667V5.16667" stroke="black" stroke-linecap="round" stroke-linejoin="round"/>
</svg>
