<svg width="24" height="32" viewBox="0 0 24 32" fill="none" xmlns="http://www.w3.org/2000/svg">
<path d="M4.79131 31.5323C5.53241 28.6734 7.06773 26.0264 7.38547 23.0616C7.43832 22.4793 6.69722 22.3733 6.37948 22.638C5.95595 23.0085 5.32073 23.4851 4.79131 24.0145C4.68534 22.532 4.15601 21.1556 3.83827 19.6732C3.52061 18.2967 3.73238 16.9202 4.20886 15.6497C4.52651 15.9673 4.89711 16.2319 5.2677 16.5497C8.2854 18.6673 18.1856 19.9908 18.8738 14.4849C19.2973 11.3614 15.3267 8.5025 12.5208 8.34367C8.81482 8.1319 5.69124 10.3555 3.83827 13.3732C2.9912 12.1026 2.56766 10.5672 2.46186 8.92603C2.30295 5.4848 4.57945 3.04947 7.65018 1.88474C13.262 -0.23285 20.9386 1.56718 23.1093 7.60257C23.2151 7.86728 23.6387 7.86728 23.6387 7.54963C23.5328 -0.0210821 12.2561 -1.07992 7.01488 0.82599C1.03242 2.99661 -0.23827 10.1438 3.25599 14.6439C3.09716 15.0145 2.8854 15.438 2.77951 15.8615C1.77361 18.7732 3.20305 21.3674 3.52061 24.1733C2.83237 23.8027 2.09126 23.4321 1.45587 22.9027C0.979395 22.5321 0.185265 22.8498 0.39712 23.538C1.24419 26.3969 1.8795 29.3087 3.62658 31.744C3.94424 32.1147 4.68534 32.1147 4.79131 31.5323ZM4.79131 14.485C5.16191 13.8497 5.58544 13.2144 6.06192 12.685C9.13256 9.032 14.8503 8.50258 17.3915 13.0556C18.5562 15.1733 15.9621 16.3909 14.3209 16.8145C11.9385 17.4498 9.1855 17.0792 6.96193 16.0733C6.11486 15.5968 5.42661 15.0674 4.79131 14.485ZM4.10306 25.9204C4.10306 25.9734 4.20895 26.0264 4.26189 26.0264C4.84425 25.8676 5.32073 25.391 5.79721 24.8617C5.32073 26.5558 4.57954 28.144 4.05012 29.8381C3.20305 28.25 2.67363 26.5028 2.14421 24.7028C2.72657 25.0205 3.30902 25.2851 3.7855 25.7616C3.89129 25.8676 3.99718 25.9204 4.10306 25.9204Z" fill="#E25569"/>
</svg>
