<svg width="16" height="17" viewBox="0 0 16 17" fill="none" xmlns="http://www.w3.org/2000/svg">
<path d="M6.59483 13.6774C2.96181 13.6774 0.00613403 10.7217 0.00613403 7.08871C0.00613403 3.45567 2.96181 0.5 6.59483 0.5C10.2279 0.5 13.1835 3.45567 13.1835 7.08871C13.1835 10.7217 10.2279 13.6774 6.59483 13.6774ZM6.59483 1.74904C3.65053 1.74904 1.25518 4.1444 1.25518 7.08871C1.25518 10.033 3.65053 12.4284 6.59483 12.4284C9.53914 12.4284 11.9345 10.033 11.9345 7.08871C11.9345 4.1444 9.53914 1.74904 6.59483 1.74904ZM15.811 16.3171C16.0549 16.0732 16.0549 15.6777 15.811 15.4338L13.0163 12.6391C12.7723 12.3952 12.3769 12.3952 12.133 12.6391C11.8891 12.883 11.8891 13.2785 12.133 13.5223L14.9278 16.3171C15.0497 16.439 15.2095 16.5 15.3694 16.5C15.5292 16.5 15.689 16.439 15.811 16.3171Z" fill="#919397"/>
</svg>
