<svg width="360" height="360" viewBox="0 0 360 360" fill="none" xmlns="http://www.w3.org/2000/svg">
<path d="M247.753 15.6894C230.506 7.93115 197.482 -3.55472 156.406 1.06039C103.709 6.98297 81.6928 21.2743 57.1985 48.8351C4.61011 108.009 -1.3939 178.332 0.223402 254.655C1.38855 309.504 19.4919 354.121 68.1197 357.862C163.336 365.178 178.553 318.487 231.615 302.259C279.903 287.491 300.237 293.807 321.705 279.997C368.272 250.041 367.516 171.742 345.187 112.243C336.613 89.3884 310.876 44.0901 247.753 15.6894Z" fill="#FFF4E9"/>
<path d="M34.9164 67.2399C30.0297 67.3654 26.0169 63.4257 25.956 58.4425C25.8952 53.4594 29.8123 49.3162 34.699 49.1907C39.59 49.0651 43.5986 53.0005 43.6594 57.988C43.7203 62.9711 39.8074 67.1143 34.9164 67.2399ZM52.6198 59.5076L52.5763 56.0051L48.9026 55.2561C48.7504 54.4465 48.533 53.6629 48.2548 52.9096L50.9807 50.247L49.2243 47.2511L45.6506 48.485C45.1289 47.8745 44.555 47.3117 43.942 46.8008L45.0115 43.1166L42.0117 41.4411L39.5031 44.3158C38.7553 44.0604 37.9771 43.8698 37.1815 43.7486L36.3076 40.034L32.8687 40.1206L32.0904 43.8785C31.2948 44.043 30.521 44.2725 29.7819 44.5669L27.2038 41.822L24.2475 43.6534L25.4082 47.2814C24.8039 47.8226 24.2431 48.4157 23.7344 49.0478L20.1346 48.0044L18.4521 51.0826L21.2389 53.6066C20.9824 54.3729 20.7867 55.1695 20.652 55.9835L17 56.9186L17.0435 60.4254L20.7172 61.1744C20.8693 61.984 21.0824 62.7676 21.3607 63.5166L18.6347 66.1835L20.3911 69.175L23.9649 67.9455C24.4866 68.5516 25.0604 69.1145 25.6778 69.6253L24.6039 73.314L27.6038 74.9894L30.1123 72.1147C30.8644 72.3658 31.6383 72.5563 32.4382 72.6818L33.3078 76.3965L36.7468 76.3055L37.5293 72.552C38.3249 72.3831 39.0945 72.1537 39.8336 71.8636L42.416 74.6084L45.3723 72.7771L44.2115 69.1491C44.8115 68.6079 45.3724 68.0148 45.881 67.3784L49.4808 68.4261L51.1633 65.3435L48.3766 62.8239C48.6374 62.0576 48.833 61.261 48.9635 60.447L52.6198 59.5076Z" fill="#FB9946"/>
<path d="M74.2836 46.9639C67.797 48.7822 61.0974 44.8728 59.3193 38.2316C57.5411 31.5946 61.3626 24.7369 67.8492 22.9185C74.3401 21.1002 81.0398 25.0096 82.818 31.6466C84.5961 38.2878 80.7746 45.1455 74.2836 46.9639ZM95.3042 30.6595L94.0564 25.9881L88.8915 26.2305C88.4133 25.2001 87.8611 24.226 87.2307 23.3125L89.9654 18.8316L86.6003 15.4287L82.2484 18.2774C81.3398 17.641 80.3833 17.0825 79.3877 16.6106L79.5659 11.3245L74.988 10.0949L72.6098 14.7836C71.5229 14.697 70.423 14.7057 69.3144 14.8096L66.8841 10.1425L62.3191 11.4197L62.5539 16.7015C61.5496 17.1908 60.5975 17.7579 59.7062 18.3987L55.3282 15.6019L51.9979 19.0438L54.7847 23.503C54.163 24.4295 53.6152 25.4079 53.1544 26.4297L47.9852 26.2478L46.7852 30.9322L51.3719 33.361C51.2849 34.4737 51.2936 35.5993 51.3936 36.7336L46.833 39.2187L48.0808 43.89L53.2457 43.6519C53.724 44.678 54.2761 45.6521 54.9021 46.5656L52.1718 51.0465L55.5325 54.4537L59.8888 51.6007C60.7974 52.2371 61.7539 52.7956 62.7495 53.2718L62.5713 58.558L67.1492 59.7832L69.5274 55.0945C70.61 55.1811 71.7142 55.1724 72.8228 55.0728L75.2532 59.7399L79.8138 58.4584L79.579 53.1765C80.5876 52.6873 81.5397 52.1202 82.431 51.4795L86.8091 54.2762L90.135 50.8344L87.3525 46.3794C87.9742 45.4486 88.5177 44.4702 88.9829 43.4528L94.1477 43.6346L95.3476 38.9502L90.7654 36.5171C90.8523 35.4088 90.8436 34.2788 90.7436 33.1445L95.3042 30.6595Z" fill="#FB9946"/>
<path d="M25.1012 286.705L20.4102 311.293L31.3269 308.687L34.0702 305.809C34.0702 305.809 30.4487 304.175 33.666 296.296L37.644 287.791L25.1012 286.705Z" fill="white"/>
<path d="M25.6306 287.404L21.2395 310.429L30.9869 308.101L33.0954 305.89C32.0607 304.899 30.5303 302.245 33.0606 296.053L36.6605 288.359L25.6306 287.404ZM20.4092 311.943C20.2439 311.943 20.0831 311.881 19.9613 311.764C19.8005 311.612 19.7266 311.39 19.7701 311.173L24.4567 286.584C24.522 286.258 24.8219 286.028 25.1567 286.059L37.6995 287.146C37.9125 287.164 38.1038 287.284 38.2082 287.467C38.3169 287.651 38.3255 287.875 38.2342 288.066L34.2562 296.571C31.3651 303.65 34.3214 305.208 34.3518 305.223C34.5344 305.315 34.6736 305.491 34.7084 305.694C34.7432 305.897 34.6866 306.108 34.5431 306.258L31.7998 309.135C31.7129 309.226 31.5998 309.29 31.4781 309.319L20.5613 311.926C20.5135 311.938 20.4613 311.943 20.4092 311.943Z" fill="#333A43"/>
<path d="M19.6257 303.213C18.7866 305.227 17.2953 308.98 16.3519 312.446C15.7563 314.622 17.1562 316.44 18.9996 317.724C22.7689 320.344 27.2339 321.84 32.351 323.206C36.8247 324.4 41.7722 325.58 47.4502 326.191C48.9936 326.358 52.289 326.191 53.9759 324.52C59.0539 319.473 45.7242 313.362 34.0814 305.091C33.6249 304.767 33.0249 304.733 32.5336 305.01L30.7903 306.001C29.0426 306.993 26.873 306.841 25.2862 305.616L21.5169 302.707C20.8734 302.212 19.9387 302.463 19.6257 303.213Z" fill="#FB9946"/>
<path d="M20.2252 303.462C19.4166 305.4 17.921 309.165 16.9775 312.616C16.4254 314.637 17.9775 316.22 19.373 317.192C23.012 319.722 27.2596 321.175 32.5201 322.579C36.7199 323.7 41.7848 324.928 47.5236 325.546C49.1496 325.721 52.093 325.471 53.5146 324.061C54.2016 323.376 54.4972 322.679 54.419 321.93C54.1103 318.975 48.1367 315.116 41.811 311.032C39.1546 309.314 36.4026 307.537 33.7027 305.62C33.4549 305.442 33.1201 305.424 32.8593 305.574L31.1115 306.565C29.129 307.69 26.6857 307.519 24.8858 306.13L21.1165 303.22C20.973 303.11 20.7904 303.074 20.6208 303.119C20.4426 303.166 20.2991 303.291 20.2252 303.462ZM48.4671 326.891C48.0541 326.891 47.6845 326.87 47.3802 326.837C41.5588 326.21 36.4287 324.967 32.1854 323.833C27.5161 322.588 22.6425 321.05 18.6253 318.257C16.1689 316.545 15.1341 314.421 15.7211 312.276C16.6819 308.754 18.2036 304.93 19.0209 302.964V302.963C19.2513 302.415 19.7121 302.015 20.286 301.864C20.8556 301.714 21.4512 301.834 21.9164 302.194L25.6814 305.103C27.064 306.169 28.9421 306.301 30.4638 305.437L32.2115 304.446C32.9158 304.046 33.7983 304.092 34.4592 304.562C37.1373 306.463 39.8719 308.232 42.5239 309.942C49.6844 314.569 55.3406 318.223 55.7188 321.795C55.8362 322.943 55.4058 324.014 54.432 324.98C52.906 326.498 50.267 326.891 48.4671 326.891Z" fill="#333A43"/>
<path d="M16.8924 310.801C16.8924 310.801 16.3968 312.277 16.3533 312.446C16.2011 312.991 16.2011 313.57 16.2837 314.134C16.5446 315.953 17.7315 317.511 19.3619 318.371C19.7531 318.579 20.2792 318.835 20.8878 319.12C27.2049 322.075 33.8915 324.161 40.7563 325.395C44.2431 326.022 51.8818 327.148 53.9773 324.521C54.6207 323.71 54.5773 321.905 54.5773 321.905C54.5773 321.905 53.3295 323.357 47.8472 322.589C38.5912 321.291 31.7351 318.662 23.4138 315.561C21.7747 314.951 20.5662 314.293 19.2706 313.466C18.2446 312.813 17.4228 311.891 16.8924 310.801Z" fill="white"/>
<path d="M17.0742 312.326C17.0221 312.479 16.9872 312.584 16.9785 312.618C16.8699 313.027 16.8481 313.507 16.9264 314.042C17.1525 315.608 18.1742 317.011 19.6654 317.798C20.0262 317.989 20.5305 318.236 21.1653 318.532C27.3389 321.421 33.9689 323.515 40.8728 324.756C50.068 326.41 52.707 325.066 53.4635 324.117C53.6505 323.881 53.7721 323.46 53.8417 323.034C52.7852 323.397 50.9201 323.675 47.7551 323.232C38.7252 321.966 31.8951 319.419 23.9869 316.469L23.1826 316.169C21.6696 315.606 20.4349 314.981 18.9175 314.014C18.2045 313.559 17.5829 312.987 17.0742 312.326ZM48.1638 326.83C46.103 326.83 43.5945 326.565 40.6425 326.034C33.6255 324.773 26.8867 322.645 20.6131 319.708C19.961 319.403 19.435 319.146 19.0524 318.945C17.196 317.966 15.9177 316.201 15.6351 314.226C15.5351 313.515 15.5612 312.859 15.7221 312.276C15.7699 312.103 16.1569 310.946 16.2743 310.595C16.3569 310.345 16.5873 310.17 16.8481 310.153C17.122 310.139 17.3655 310.281 17.4785 310.519C17.9524 311.499 18.6959 312.329 19.6219 312.92C21.0566 313.835 22.2218 314.424 23.6391 314.953L24.4434 315.253C32.2821 318.176 39.0512 320.7 47.9377 321.946C52.833 322.632 54.0895 321.473 54.1026 321.462C54.2765 321.258 54.5503 321.192 54.8068 321.284C55.0633 321.374 55.2243 321.621 55.2286 321.891C55.233 322.099 55.2547 323.958 54.4852 324.924C53.4722 326.194 51.3549 326.83 48.1638 326.83Z" fill="#333A43"/>
<path d="M35.1361 313.84C34.9144 313.84 34.6971 313.726 34.5754 313.521C34.3928 313.213 34.4927 312.814 34.8057 312.632L40.5271 309.261C40.8358 309.078 41.2358 309.181 41.4184 309.489C41.6054 309.798 41.501 310.196 41.1924 310.379L35.4666 313.749C35.3623 313.81 35.2492 313.84 35.1361 313.84Z" fill="#333A43"/>
<path d="M39.4696 315.465C39.2478 315.465 39.0348 315.356 38.913 315.157C38.7217 314.851 38.8174 314.451 39.1261 314.263L43.7345 311.43C44.0388 311.242 44.4432 311.335 44.6301 311.641C44.8214 311.946 44.7258 312.347 44.4215 312.535L39.8086 315.368C39.7043 315.434 39.5869 315.465 39.4696 315.465Z" fill="#333A43"/>
<path d="M14.2715 277.527C17.2757 274.152 21.3537 271.353 25.8621 271.752L34.4269 273.521L31.9227 262.143L14.5801 261.931L14.2715 277.527Z" fill="white"/>
<path d="M15.2191 262.587L14.9582 275.862C18.4233 272.462 22.2709 270.782 25.9229 271.104C25.9446 271.106 25.9707 271.11 25.9968 271.115L33.5746 272.681L31.3964 262.785L15.2191 262.587ZM14.2714 278.176C14.1931 278.176 14.1105 278.161 14.0366 278.131C13.7801 278.032 13.6149 277.786 13.6192 277.513L13.9279 261.917C13.9366 261.564 14.2279 261.281 14.58 261.281C14.5844 261.281 14.5843 261.281 14.5887 261.281L31.9312 261.493C32.2312 261.497 32.4921 261.708 32.5573 262.003L35.0615 273.381C35.1093 273.596 35.0441 273.82 34.8876 273.977C34.7311 274.133 34.5094 274.201 34.292 274.156L25.7707 272.395C20.871 271.983 16.7668 275.699 14.7583 277.957C14.6322 278.099 14.454 278.176 14.2714 278.176Z" fill="#333A43"/>
<path d="M15.2687 261.096C13.0775 261.109 9.02987 261.206 5.45181 261.687C3.20846 261.989 1.56507 263.93 1.6042 266.173C1.71289 272.513 2.90846 286.755 5.78221 298.616C5.97785 299.428 6.79954 300.795 8.93421 300.897C16.1034 301.24 16.0426 288.987 19.1598 275.088C19.2815 274.543 19.0814 273.977 18.6336 273.637L17.0381 272.42C15.4382 271.203 14.7339 269.155 15.2513 267.222L16.4729 262.634C16.6816 261.853 16.086 261.091 15.2687 261.096Z" fill="#FB9946"/>
<path d="M15.2705 261.095H15.2748H15.2705ZM15.2748 261.745C13.1706 261.757 9.10556 261.85 5.54489 262.329C3.6363 262.586 2.22335 264.233 2.25813 266.161C2.37117 272.707 3.57107 286.712 6.41874 298.463C6.4883 298.743 6.93182 300.15 8.96649 300.248C13.8749 300.475 15.0704 293.708 16.7182 284.331C17.2442 281.325 17.792 278.216 18.5268 274.944C18.592 274.647 18.4789 274.335 18.2398 274.152L16.6443 272.936C14.8314 271.555 14.0358 269.247 14.6227 267.055L15.8443 262.466C15.8922 262.293 15.853 262.112 15.7443 261.971C15.6313 261.826 15.4791 261.749 15.2748 261.745ZM9.236 301.553C9.12731 301.553 9.01864 301.55 8.9056 301.545C6.60573 301.435 5.44491 299.98 5.14928 298.768C2.27987 286.914 1.0669 272.787 0.953858 266.183C0.910382 263.597 2.80593 261.387 5.36665 261.042C9.00558 260.553 13.1314 260.459 15.2661 260.446C15.2704 260.446 15.2748 260.446 15.2791 260.446C15.8704 260.446 16.4139 260.711 16.7747 261.175C17.1356 261.639 17.2573 262.232 17.1051 262.8L15.8835 267.388C15.4313 269.071 16.0443 270.844 17.4355 271.904L19.0311 273.12C19.6746 273.61 19.9745 274.437 19.8006 275.228C19.0702 278.469 18.5268 281.563 18.005 284.555C16.3399 294.031 15.0183 301.552 9.236 301.553Z" fill="#333A43"/>
<path d="M5.99093 261.616C5.99093 261.616 5.63006 261.662 5.45181 261.685C3.20846 261.987 1.56507 263.929 1.6042 266.171C1.71289 272.511 2.90846 286.754 5.78221 298.614C5.97785 299.426 6.79954 300.793 8.93421 300.896C9.59069 300.927 10.7255 300.683 10.7255 300.683L10.5559 299.836C8.16037 287.777 6.66482 275.558 6.07355 263.279L5.99093 261.616Z" fill="white"/>
<path d="M5.37532 262.356C3.55368 262.684 2.22335 264.29 2.25813 266.161C2.37117 272.707 3.57107 286.712 6.41874 298.464C6.4883 298.744 6.93182 300.151 8.96649 300.248C9.22734 300.26 9.61857 300.216 9.95769 300.163L9.91854 299.963C7.52737 287.911 6.01448 275.579 5.42321 263.311L5.37532 262.356ZM9.05777 301.549C9.0056 301.549 8.95343 301.548 8.9056 301.545C6.60573 301.435 5.44491 299.981 5.14928 298.768C2.27987 286.915 1.0669 272.787 0.953858 266.183C0.910382 263.597 2.80593 261.387 5.36665 261.043C5.54491 261.018 5.9101 260.973 5.9101 260.973C6.0927 260.951 6.27528 261.004 6.41441 261.12C6.55353 261.236 6.63617 261.405 6.64486 261.586L6.72307 263.249C7.31434 275.454 8.81862 287.722 11.1967 299.711L11.3663 300.558C11.4359 300.906 11.2098 301.244 10.862 301.319C10.749 301.344 9.77077 301.549 9.05777 301.549Z" fill="#333A43"/>
<path d="M17.4281 283.789C17.2933 283.789 17.1586 283.748 17.0412 283.662L11.6936 279.725C11.4067 279.512 11.3458 279.106 11.5589 278.817C11.7719 278.528 12.1806 278.468 12.4719 278.681L17.8151 282.618C18.1064 282.831 18.1672 283.238 17.9542 283.526C17.8237 283.698 17.6281 283.789 17.4281 283.789Z" fill="#333A43"/>
<path d="M16.6802 287.584C16.5497 287.584 16.4193 287.545 16.302 287.464L11.8892 284.34C11.5935 284.132 11.5283 283.727 11.737 283.434C11.9413 283.141 12.35 283.073 12.6457 283.281L17.0585 286.406C17.3541 286.613 17.4236 287.019 17.215 287.311C17.0845 287.489 16.8845 287.584 16.6802 287.584Z" fill="#333A43"/>
<path d="M80.2793 185.919C80.2793 185.919 49.4028 179.37 55.1025 169.813C58.724 163.736 79.3794 175.37 85.3356 179.051C86.3529 179.68 113.117 183.522 113.117 183.522L102.526 196.068L80.2793 185.919Z" fill="#333A43"/>
<path d="M111.568 171.631C111.568 171.631 118.319 215.767 110.772 243.765C106.69 258.894 62.3138 274.003 27.2897 275.068C25.142 275.134 23.3377 273.464 23.2551 271.323L22.9073 262.541C22.8334 260.644 24.1376 258.971 26.0027 258.577C36.1369 256.435 67.4657 249.085 80.8562 237.581C96.9423 223.758 70.2264 197.222 70.2264 197.222L70.6307 167.229L111.568 171.631Z" fill="#333A43"/>
<path d="M65.0094 159.193C65.0094 159.193 62.4661 166.765 60.9923 176.614C59.5749 186.093 56.2664 195.173 51.3189 203.394C42.3237 218.352 29.7027 254.005 21.8814 294.259C21.4728 296.36 22.9813 298.352 25.1247 298.537L32.0678 299.139C33.5112 299.263 34.885 298.526 35.5676 297.258C42.8324 283.799 83.1432 209.364 93.0774 196.074C104.012 181.452 110.607 169.85 110.607 169.85L65.0094 159.193Z" fill="#333A43"/>
<path d="M54.2583 264.281C54.1496 264.281 54.0366 264.253 53.9366 264.194C53.6236 264.015 53.5149 263.618 53.6931 263.308L64.4534 244.664C64.6317 244.353 65.0316 244.246 65.3447 244.425C65.6577 244.603 65.762 245 65.5838 245.311L54.8235 263.955C54.7061 264.164 54.4844 264.281 54.2583 264.281Z" fill="#FFF4E9"/>
<path d="M82.537 214.508C82.4283 214.508 82.3152 214.481 82.2152 214.424C81.9022 214.248 81.7892 213.851 81.9675 213.539L86.3585 205.791C86.5368 205.479 86.9324 205.369 87.2498 205.546C87.5628 205.722 87.6714 206.118 87.4975 206.43L83.1022 214.177C82.9848 214.389 82.763 214.508 82.537 214.508Z" fill="#FFF4E9"/>
<path d="M59.6178 181.17C59.5743 181.17 59.5308 181.166 59.4874 181.157C59.1352 181.087 58.9047 180.745 58.9786 180.393L60.3699 173.431C60.4394 173.079 60.7873 172.852 61.1351 172.921C61.4916 172.991 61.7176 173.333 61.6481 173.684L60.2569 180.647C60.196 180.956 59.9221 181.17 59.6178 181.17Z" fill="#FFF4E9"/>
<path d="M123.05 106.917C123.05 106.917 134.158 120.303 141.962 122.451C149.761 124.603 168.317 118.325 173.021 115.026C176.768 112.398 179.616 111.138 182.507 111.428C189.772 112.16 197.354 120.256 195.163 121.892C192.846 123.624 187.411 121.009 184.581 119.849C183.99 119.606 184.525 120.836 185.272 122.109C186.15 123.607 184.385 125.507 182.707 123.572L180.233 120.239C179.72 119.546 178.72 119.442 178.077 120.013L177.677 120.377C164.413 133.69 142.988 147.475 126.48 137.493C107.998 126.321 111.103 121.788 111.103 121.788L123.05 106.917Z" fill="white"/>
<path d="M111.633 122.162C111.546 122.361 109.864 126.69 126.811 136.939C142.201 146.244 162.935 134.25 177.208 119.924L177.634 119.534C178.082 119.136 178.673 118.945 179.269 119.006C179.86 119.066 180.399 119.374 180.755 119.85L183.212 123.166C183.686 123.703 184.173 123.881 184.52 123.634C184.825 123.413 184.981 122.907 184.703 122.439C183.42 120.244 183.577 119.763 183.868 119.43C183.955 119.331 184.281 119.027 184.825 119.248C185.12 119.374 185.451 119.512 185.803 119.66C188.49 120.798 192.994 122.699 194.768 121.374C194.946 121.24 194.898 120.906 194.829 120.651C194.124 118.136 188.272 112.663 182.438 112.075C179.899 111.819 177.282 112.828 173.391 115.56C168.839 118.75 149.966 125.331 141.784 123.08C134.749 121.14 125.372 110.628 123.059 107.94L111.633 122.162ZM138.984 141.576C134.319 141.576 130.023 140.401 126.137 138.049C114.111 130.777 110.916 126.154 110.351 123.556C110.064 122.24 110.472 121.547 110.559 121.426C110.568 121.409 110.577 121.396 110.59 121.387L122.537 106.511C122.659 106.36 122.846 106.269 123.041 106.269C123.25 106.26 123.424 106.351 123.55 106.503C123.659 106.637 134.619 119.759 142.132 121.829C149.679 123.907 168.126 117.659 172.643 114.495C176.816 111.568 179.695 110.49 182.568 110.784C188.625 111.39 195.176 117.062 196.085 120.305C196.428 121.534 195.898 122.153 195.55 122.413C193.185 124.179 188.472 122.201 185.333 120.872C185.455 121.119 185.62 121.422 185.833 121.781C186.416 122.777 186.172 124.054 185.277 124.69C184.573 125.193 183.347 125.309 182.207 123.998C182.199 123.985 182.19 123.972 182.177 123.959L179.703 120.625C179.569 120.439 179.364 120.322 179.134 120.3C178.899 120.274 178.682 120.348 178.508 120.499L178.112 120.859C173.634 125.357 164.452 133.63 153.548 138.269C148.366 140.474 143.501 141.576 138.984 141.576Z" fill="#333A43"/>
<path d="M89.6933 99.3497C89.6933 99.3497 77.7722 105.48 73.0246 115.784C70.177 121.966 70.477 132.781 69.3509 138.876C66.3511 155.122 55.0039 169.846 55.0039 169.846C55.0039 169.846 57.0038 167.408 63.3817 172.659C69.3205 177.55 74.8593 181.278 87.6325 181.935C99.184 182.528 106.175 181.643 110.166 180.698C112.814 180.071 114.583 177.598 114.288 174.906C113.866 171.019 113.405 164.95 113.788 159.225C114.322 151.192 120.522 136.418 120.522 136.418C120.522 136.418 136.769 128.582 138.395 118.745C138.395 118.745 129.756 103.973 115.214 101.514C100.097 98.9557 89.6933 99.3497 89.6933 99.3497Z" fill="#FB9946"/>
<path d="M86.3778 141.086C86.3778 141.086 98.8422 155.121 115.233 155.532C123.98 155.751 132.167 153.777 137.523 152.067C140.74 151.041 143.748 149.475 146.487 147.511C147.474 146.803 148.548 146.186 149.344 146.134C150.605 146.054 151.4 146.692 151.4 146.692L149.918 148.288C149.292 148.961 149.748 150.053 150.67 150.085L158.069 150.342C159.222 150.382 160.178 151.358 160.069 152.503C159.908 154.165 158.795 157.501 153.67 158.429C150.574 158.989 144.022 158.718 141.218 158.289C140.427 158.168 139.618 158.363 138.975 158.84C135.036 161.754 121.911 170.191 102.99 168.07C74.5001 164.876 65.7832 147.61 65.7832 147.61L86.3778 141.086Z" fill="white"/>
<path d="M66.7566 147.984C68.7261 151.156 78.4733 164.667 103.068 167.424C121.262 169.465 133.97 161.736 138.587 158.318C139.374 157.736 140.344 157.497 141.322 157.646C144.1 158.071 150.6 158.324 153.556 157.789C158.473 156.899 159.295 153.752 159.421 152.441C159.456 152.097 159.343 151.758 159.104 151.486C158.838 151.185 158.451 151.004 158.051 150.99L150.648 150.733C149.965 150.709 149.378 150.304 149.117 149.676C148.852 149.048 148.978 148.347 149.443 147.847L150.335 146.886C150.082 146.811 149.765 146.758 149.391 146.782C149.078 146.802 148.33 146.992 146.874 148.037C143.991 150.105 140.913 151.669 137.727 152.685C132.344 154.402 124.075 156.402 115.219 156.181C100.12 155.802 88.1728 143.926 86.1816 141.83L66.7566 147.984ZM109.059 169.061C107.085 169.061 105.041 168.952 102.92 168.715C88.0424 167.047 78.5951 161.501 73.291 157.143C67.5131 152.395 65.2958 148.083 65.2045 147.902C65.1176 147.732 65.1089 147.533 65.1828 147.358C65.2567 147.182 65.4045 147.049 65.5871 146.991L86.1816 140.467C86.4251 140.389 86.6989 140.463 86.8685 140.656C86.9902 140.794 99.3461 154.484 115.25 154.882C123.927 155.103 132.044 153.134 137.331 151.448C140.383 150.473 143.339 148.971 146.113 146.983C147.443 146.028 148.487 145.538 149.309 145.485C150.8 145.391 151.769 146.153 151.813 146.185C151.952 146.298 152.039 146.464 152.052 146.643C152.065 146.823 152.004 147 151.882 147.132L150.4 148.728C150.235 148.908 150.287 149.101 150.317 149.176C150.352 149.251 150.452 149.427 150.695 149.435L158.095 149.692C158.856 149.719 159.582 150.06 160.082 150.629C160.56 151.173 160.79 151.86 160.721 152.564C160.599 153.817 159.747 157.989 153.791 159.067C150.661 159.634 144.052 159.378 141.126 158.93C140.496 158.834 139.87 158.987 139.366 159.36C135.161 162.471 124.436 169.061 109.059 169.061Z" fill="#333A43"/>
<path d="M89.6148 126.265C89.6148 126.265 83.6585 135.196 91.1451 141.083L60.7033 150.047L58.66 136.743C56.1514 119.429 67.7116 102.986 85.0063 99.9118C86.6801 99.6131 88.3713 99.4226 90.0625 99.3447L89.6148 126.265Z" fill="#FB9946"/>
<path d="M89.5103 141.732C89.3103 141.732 89.1146 141.642 88.9842 141.472C84.4366 135.41 87.493 120.452 87.6234 119.815C87.6973 119.465 88.0451 119.244 88.3973 119.313C88.7494 119.387 88.9755 119.729 88.9016 120.084C88.8712 120.231 85.8322 135.098 90.032 140.694C90.245 140.982 90.1885 141.389 89.8972 141.603C89.7798 141.69 89.645 141.732 89.5103 141.732Z" fill="#333A43"/>
<path d="M97.7837 99.9776L103.779 83.1277L114.491 89.3967L110.87 100.043C110.357 101.588 110.961 103.285 112.331 104.173L113.57 104.974C114.209 105.389 113.978 106.368 113.222 106.459L107.396 107.147C101.814 107.809 96.1664 106.623 91.3275 103.77C90.6319 103.363 90.7971 102.32 91.584 102.142C93.9883 101.605 97.5141 100.701 97.7837 99.9776Z" fill="white"/>
<path d="M97.7819 99.9782H97.7863H97.7819ZM104.125 84.0894L98.3949 100.195C98.3949 100.199 98.3949 100.199 98.3905 100.203C98.2427 100.615 97.9602 101.381 91.7257 102.775C91.5866 102.805 91.5518 102.909 91.5431 102.97C91.53 103.03 91.5344 103.139 91.6562 103.212C96.3472 105.974 101.912 107.143 107.32 106.503L113.146 105.814C113.22 105.806 113.268 105.762 113.285 105.693C113.298 105.619 113.277 105.563 113.216 105.52L111.977 104.719C110.355 103.671 109.646 101.667 110.246 99.8397L113.698 89.6917L104.125 84.0894ZM104.412 107.975C99.7165 107.975 95.0473 106.719 90.991 104.329C90.4432 104.009 90.1519 103.394 90.2519 102.766C90.3519 102.143 90.8171 101.649 91.4388 101.511C96.182 100.446 97.0471 99.8354 97.1863 99.7055L103.16 82.9119C103.225 82.73 103.369 82.5828 103.551 82.5179C103.738 82.4529 103.938 82.4703 104.108 82.5698L114.82 88.8388C115.085 88.9946 115.207 89.315 115.107 89.6094L111.485 100.251C111.068 101.511 111.564 102.905 112.685 103.628L113.924 104.429C114.446 104.771 114.694 105.381 114.555 105.987C114.411 106.594 113.92 107.031 113.298 107.104L107.473 107.793C106.455 107.914 105.434 107.975 104.412 107.975Z" fill="#333A43"/>
<path d="M129.014 72.629C126.257 71.0098 128.344 75.7505 119.397 67.3212C115.836 63.9616 115.471 69.9101 114.545 69.0399C111.124 65.8319 110.171 65.0006 107.95 64.5071C106.48 64.1867 102.437 65.334 101.976 67.2952C100.481 73.6984 103.78 73.4905 102.976 79.3309C102.411 83.4351 102.85 84.998 103.994 86.2189C105.15 87.4614 107.159 86.102 108.524 87.3619C110.289 88.9897 108.072 92.3276 109.328 94.8257C110.115 96.4016 112.836 98.3368 118.71 98.4624C119.662 98.484 120.497 97.8217 120.688 96.8865C120.932 95.6916 121.236 94.1763 121.401 92.7043C122.201 85.695 120.775 83.2879 122.314 82.1536C124.671 80.4176 128.423 84.0282 130.136 82.487C131.914 80.8851 132.792 74.8413 129.014 72.629Z" fill="#333A43"/>
<path d="M113.941 77.6852L113.98 79.6118C114.001 80.5209 113.958 81.4258 113.854 82.3306C113.658 84.0191 113.432 86.9371 113.284 88.5736C112.814 93.8381 120.653 91.799 120.653 91.799L121.644 90.7902L122.518 90.8681C122.688 90.8811 122.862 90.8638 123.014 90.7902C123.401 90.6127 123.601 90.2144 123.553 89.8247C123.283 87.673 122.844 82.941 123.67 79.313C123.67 79.313 119.649 75.7543 113.941 77.6852Z" fill="white"/>
<path d="M114.6 78.1574L114.63 79.5991C114.652 80.5343 114.608 81.4781 114.5 82.4045C114.356 83.6168 114.2 85.5087 114.069 87.0283C114.021 87.6258 113.974 88.1756 113.934 88.6302C113.847 89.6086 114.074 90.31 114.63 90.7819C115.986 91.9248 119.039 91.5135 120.317 91.2148L121.173 90.336C121.312 90.1974 121.504 90.1281 121.699 90.1455L122.573 90.2191C122.643 90.2277 122.699 90.219 122.738 90.2017C122.856 90.1498 122.921 90.0329 122.904 89.903C122.608 87.5478 122.234 83.1492 122.947 79.5688C122.004 78.8718 118.86 76.9192 114.6 78.1574ZM117.539 92.834C116.217 92.834 114.774 92.6002 113.791 91.7733C112.895 91.0243 112.508 89.9247 112.635 88.5176C112.674 88.063 112.722 87.5132 112.769 86.9201C112.9 85.3918 113.061 83.4869 113.204 82.253C113.304 81.3871 113.348 80.5039 113.326 79.6294L113.287 77.7028C113.278 77.4171 113.456 77.1617 113.726 77.0707C119.725 75.0403 123.925 78.6726 124.103 78.8284C124.282 78.9843 124.36 79.2268 124.308 79.4562C123.49 83.0366 123.96 87.8422 124.199 89.7428C124.286 90.4269 123.921 91.0849 123.29 91.3793C123.043 91.4919 122.756 91.5395 122.46 91.5135L121.891 91.4659L121.121 92.2539C121.038 92.3405 120.934 92.4011 120.817 92.4314C120.708 92.4573 119.221 92.834 117.539 92.834Z" fill="#333A43"/>
<path d="M112.393 83.5467C112.393 83.5467 112.297 78.9143 110.201 79.4035C108.106 79.8928 108.341 84.9884 112.393 83.5467Z" fill="white"/>
<path d="M119.6 86.9939C119.909 87.1757 120.113 87.1497 120.239 87.1108C120.504 87.0285 121.039 86.6822 121.661 85.2708C121.826 84.8898 122.074 84.2058 121.844 83.9287C121.639 83.6819 121.417 83.6299 121.3 83.6213C121.157 83.6126 121.074 83.6559 121.057 83.6689C119.461 85.0933 119.4 86.6648 119.6 86.9939ZM120.057 88.4355C119.661 88.4355 119.257 88.3143 118.87 88.0719C118.509 87.8424 118.279 87.3879 118.231 86.7861C118.144 85.734 118.609 84.1105 120.187 82.7034C120.496 82.4307 120.939 82.2922 121.4 82.3268C121.952 82.3658 122.465 82.6428 122.848 83.1017C123.37 83.7295 123.374 84.6084 122.857 85.7903C122.213 87.2493 121.483 88.0892 120.622 88.3533C120.435 88.4096 120.248 88.4355 120.057 88.4355Z" fill="#333A43"/>
<path d="M121.613 83.6426C121.539 83.6426 121.465 83.6296 121.391 83.6036L111.94 80.1834C111.601 80.0622 111.427 79.6899 111.549 79.3522C111.67 79.0145 112.044 78.8413 112.383 78.9625L121.839 82.3827C122.174 82.5083 122.352 82.8806 122.226 83.214C122.131 83.4781 121.883 83.6426 121.613 83.6426Z" fill="#333A43"/>
<path d="M123.739 89.332C123.731 89.332 123.722 89.332 123.709 89.3277C123.348 89.3147 123.07 89.016 123.083 88.6566C123.096 88.3362 123.34 88.0765 123.648 88.0375C124.022 87.847 125.179 86.6002 125.105 85.3057C125.096 85.1282 125.035 85.0546 124.97 85.007C124.644 84.7515 123.839 84.8035 123.522 84.8684C123.17 84.9377 122.827 84.7082 122.753 84.3576C122.683 84.0069 122.914 83.6649 123.266 83.5956C123.431 83.561 124.887 83.2969 125.77 83.9809C126.157 84.2796 126.378 84.7126 126.409 85.2321C126.5 86.9292 125.335 88.254 124.974 88.6177C124.509 89.0896 124.092 89.332 123.739 89.332Z" fill="#333A43"/>
<path d="M309.3 215.432L206.497 274.961L103.781 215.357L207.662 155.109L309.3 215.432Z" fill="#FB9946"/>
<path d="M105.079 215.358L206.499 274.21L308.019 215.425L207.66 155.863L105.079 215.358ZM206.499 275.611C206.386 275.611 206.273 275.582 206.169 275.523L103.453 215.918C103.253 215.802 103.131 215.588 103.131 215.357C103.131 215.126 103.253 214.913 103.453 214.796L207.338 154.548C207.542 154.429 207.795 154.43 207.999 154.552L309.637 214.874C309.837 214.992 309.958 215.206 309.954 215.436C309.954 215.666 309.832 215.878 309.632 215.994L206.825 275.523C206.725 275.582 206.612 275.611 206.499 275.611Z" fill="#333A43"/>
<path d="M206.408 359.352V275.08L309.302 215.433V299.706L206.408 359.352Z" fill="#FEC99E"/>
<path d="M207.06 275.452V358.221L308.65 299.331V216.561L207.06 275.452ZM206.408 360C206.295 360 206.182 359.974 206.082 359.913C205.878 359.801 205.756 359.584 205.756 359.351V275.079C205.756 274.848 205.878 274.634 206.078 274.518L308.976 214.871C309.176 214.754 309.428 214.753 309.628 214.869C309.833 214.985 309.954 215.2 309.954 215.432V299.705C309.954 299.936 309.833 300.15 309.633 300.266L206.734 359.913C206.634 359.97 206.521 360 206.408 360Z" fill="#333A43"/>
<path d="M206.345 359.225V274.95L103.742 215.444V299.717L206.345 359.225Z" fill="white"/>
<path d="M104.396 299.344L205.695 358.096V275.324L104.396 216.574V299.344ZM206.347 359.875C206.234 359.875 206.121 359.845 206.016 359.784L103.413 300.279C103.213 300.162 103.092 299.949 103.092 299.718V215.445C103.092 215.212 103.218 214.998 103.418 214.882C103.622 214.765 103.87 214.766 104.07 214.883L206.673 274.389C206.873 274.506 206.999 274.72 206.999 274.951V359.226C206.999 359.455 206.873 359.672 206.673 359.788C206.569 359.845 206.46 359.875 206.347 359.875Z" fill="#333A43"/>
<path d="M205.743 317.695C205.634 317.695 205.521 317.667 205.417 317.607L103.44 258.537C103.127 258.357 103.022 257.959 103.205 257.649C103.383 257.339 103.783 257.234 104.096 257.414L206.073 316.485C206.382 316.665 206.491 317.063 206.308 317.372C206.186 317.58 205.969 317.695 205.743 317.695Z" fill="#333A43"/>
<path d="M169.826 337.793C169.465 337.793 169.174 337.502 169.174 337.144V254.452C169.174 254.094 169.465 253.803 169.826 253.803C170.187 253.803 170.478 254.094 170.478 254.452V337.144C170.478 337.502 170.187 337.793 169.826 337.793Z" fill="#333A43"/>
<path d="M135.047 317.877C134.686 317.877 134.395 317.586 134.395 317.228V234.97C134.395 234.611 134.686 234.32 135.047 234.32C135.408 234.32 135.699 234.611 135.699 234.97V317.228C135.699 317.586 135.408 317.877 135.047 317.877Z" fill="#333A43"/>
<path d="M207.305 317.695C207.083 317.695 206.866 317.58 206.744 317.373C206.562 317.063 206.666 316.666 206.979 316.485L308.886 257.354C309.199 257.173 309.599 257.278 309.778 257.588C309.96 257.897 309.856 258.295 309.543 258.475L207.635 317.607C207.531 317.667 207.418 317.695 207.305 317.695Z" fill="#333A43"/>
<path d="M243.301 337.793C242.94 337.793 242.648 337.502 242.648 337.144V254.452C242.648 254.094 242.94 253.803 243.301 253.803C243.661 253.803 243.953 254.094 243.953 254.452V337.144C243.953 337.502 243.661 337.793 243.301 337.793Z" fill="#333A43"/>
<path d="M278.084 317.877C277.723 317.877 277.432 317.586 277.432 317.228V233.6C277.432 233.242 277.723 232.951 278.084 232.951C278.445 232.951 278.736 233.242 278.736 233.6V317.228C278.736 317.586 278.445 317.877 278.084 317.877Z" fill="#333A43"/>
<path d="M308.273 159.664L234.929 232.699L107.814 190.411L180.615 117.914L308.273 159.664Z" fill="#FB9946"/>
<path d="M109.017 190.127L234.753 231.955L307.058 159.95L180.791 118.654L109.017 190.127ZM234.927 233.348C234.858 233.348 234.788 233.337 234.718 233.314L107.604 191.026C107.391 190.955 107.23 190.778 107.178 190.559C107.126 190.34 107.191 190.11 107.352 189.951L180.152 117.455C180.326 117.281 180.582 117.221 180.817 117.294L308.475 159.046C308.688 159.116 308.853 159.293 308.906 159.512C308.958 159.732 308.893 159.963 308.732 160.122L235.388 233.158C235.262 233.281 235.097 233.348 234.927 233.348Z" fill="#333A43"/>
<path d="M308.309 159.712V203.148L235.039 275.809V232.622L308.309 159.712Z" fill="#FEC99E"/>
<path d="M235.691 232.89V274.245L307.656 202.878V161.278L235.691 232.89ZM235.039 276.457C234.952 276.457 234.869 276.441 234.787 276.408C234.543 276.307 234.387 276.07 234.387 275.808V232.621C234.387 232.448 234.456 232.283 234.578 232.161L307.848 159.252C308.035 159.066 308.317 159.011 308.561 159.111C308.804 159.212 308.961 159.449 308.961 159.711V203.147C308.961 203.32 308.891 203.485 308.769 203.607L235.5 276.268C235.374 276.392 235.208 276.457 235.039 276.457Z" fill="#333A43"/>
<path d="M235.041 276.058L107.635 233.839C108.065 234.268 107.748 190.403 107.748 190.403L235.041 232.622C235.041 232.622 235.041 276.306 235.041 276.058Z" fill="white"/>
<path d="M108.363 233.396L234.387 275.158V233.091L108.407 191.306C108.424 194.136 108.481 203.137 108.502 212.056C108.52 218.351 108.515 223.374 108.489 226.986C108.463 230.67 108.441 232.479 108.363 233.396ZM235.039 276.709C234.952 276.709 234.869 276.693 234.795 276.662L107.428 234.455C107.333 234.424 107.246 234.371 107.172 234.298C106.981 234.105 106.928 233.813 107.042 233.57C107.294 231.54 107.215 206.803 107.094 190.408C107.094 190.199 107.194 190.002 107.363 189.879C107.533 189.755 107.755 189.722 107.955 189.788L235.243 232.006C235.513 232.095 235.691 232.343 235.691 232.622V276.06C235.691 276.058 235.691 276.058 235.691 276.058V276.06C235.691 276.418 235.4 276.709 235.039 276.709Z" fill="#333A43"/>
<path d="M193.738 262.461C193.377 262.461 193.086 262.17 193.086 261.812V218.951C193.086 218.592 193.377 218.302 193.738 218.302C194.099 218.302 194.39 218.592 194.39 218.951V261.812C194.39 262.17 194.099 262.461 193.738 262.461Z" fill="#333A43"/>
<path d="M150.699 248.174C150.338 248.174 150.047 247.883 150.047 247.524V204.664C150.047 204.305 150.338 204.015 150.699 204.015C151.06 204.015 151.351 204.305 151.351 204.664V247.524C151.351 247.883 151.06 248.174 150.699 248.174Z" fill="#333A43"/>
<path d="M259.824 251.639C259.463 251.639 259.172 251.348 259.172 250.989V207.696C259.172 207.337 259.463 207.047 259.824 207.047C260.185 207.047 260.476 207.337 260.476 207.696V250.989C260.476 251.348 260.185 251.639 259.824 251.639Z" fill="#333A43"/>
<path d="M284.603 226.527C284.242 226.527 283.951 226.236 283.951 225.878V183.017C283.951 182.658 284.242 182.368 284.603 182.368C284.964 182.368 285.255 182.658 285.255 183.017V225.878C285.255 226.236 284.964 226.527 284.603 226.527Z" fill="#333A43"/>
<path d="M258.536 208.521C258.467 208.521 258.397 208.511 258.327 208.488L131.817 166.875C131.478 166.762 131.291 166.395 131.404 166.055C131.517 165.714 131.882 165.528 132.226 165.642L258.74 207.255C259.08 207.368 259.267 207.735 259.153 208.076C259.062 208.348 258.806 208.521 258.536 208.521Z" fill="#333A43"/>
<path d="M284.286 183.701C284.221 183.701 284.151 183.691 284.082 183.668L157.067 141.914C156.728 141.801 156.541 141.434 156.654 141.093C156.767 140.753 157.132 140.566 157.476 140.68L284.49 182.435C284.834 182.547 285.021 182.915 284.908 183.255C284.816 183.528 284.56 183.701 284.286 183.701Z" fill="#333A43"/>
<path d="M194.56 219.578C194.39 219.578 194.221 219.514 194.095 219.385C193.843 219.13 193.843 218.719 194.099 218.467L267.278 146.425C267.534 146.173 267.947 146.175 268.199 146.43C268.456 146.686 268.452 147.097 268.195 147.349L195.016 219.391C194.89 219.516 194.725 219.578 194.56 219.578Z" fill="#333A43"/>
<path d="M150.529 205.1C150.36 205.1 150.194 205.035 150.064 204.907C149.812 204.652 149.816 204.24 150.068 203.988L223.247 131.946C223.503 131.695 223.916 131.695 224.173 131.95C224.425 132.206 224.421 132.617 224.164 132.868L150.986 204.912C150.86 205.037 150.694 205.1 150.529 205.1Z" fill="#333A43"/>
<path d="M162.604 132.713C168.76 128.955 172.981 125.089 177.677 120.378L178.077 120.015C178.72 119.443 179.72 119.547 180.233 120.24L182.707 123.574C184.385 125.509 186.15 123.608 185.272 122.11C184.524 120.837 183.989 119.608 184.581 119.85C187.411 121.011 192.845 123.626 195.163 121.894C197.354 120.257 189.772 112.161 182.507 111.43C179.616 111.14 176.768 112.399 173.02 115.027C171.881 115.824 171.351 116.374 168.942 117.361L162.604 132.713Z" fill="white"/>
<path d="M162.004 133.707C161.786 133.707 161.578 133.599 161.452 133.404C161.26 133.101 161.352 132.698 161.656 132.508C166.947 129.174 172.325 124.819 177.207 119.922L177.633 119.533C178.081 119.134 178.672 118.944 179.268 119.004C179.859 119.065 180.398 119.372 180.755 119.849L183.211 123.165C183.685 123.702 184.172 123.879 184.52 123.633C184.824 123.412 184.981 122.905 184.702 122.438C183.42 120.243 183.576 119.762 183.868 119.429C183.955 119.329 184.281 119.026 184.824 119.247C185.12 119.372 185.45 119.511 185.802 119.658C188.489 120.797 192.993 122.697 194.767 121.373C194.945 121.238 194.898 120.905 194.828 120.65C194.124 118.134 188.272 112.662 182.437 112.073C179.898 111.822 177.281 112.826 173.39 115.558C172.299 116.325 170.521 117.229 168.251 118.182C167.916 118.32 167.534 118.165 167.395 117.836C167.256 117.502 167.412 117.121 167.743 116.983C169.899 116.082 171.638 115.199 172.642 114.493C176.816 111.567 179.694 110.489 182.568 110.783C188.624 111.389 195.176 117.061 196.084 120.303C196.428 121.533 195.897 122.152 195.55 122.412C193.185 124.178 188.472 122.2 185.333 120.87C185.455 121.117 185.62 121.42 185.833 121.78C186.415 122.775 186.172 124.053 185.276 124.689C184.572 125.191 183.346 125.308 182.207 123.996C182.198 123.983 182.19 123.97 182.177 123.957L179.703 120.624C179.568 120.437 179.364 120.321 179.133 120.299C178.898 120.273 178.681 120.347 178.507 120.498L178.112 120.857C173.186 125.802 167.73 130.218 162.352 133.603C162.243 133.672 162.125 133.707 162.004 133.707Z" fill="#333A43"/>
<path d="M135.556 161.111C137.043 160.219 138.19 159.419 138.977 158.839C139.621 158.362 140.43 158.166 141.221 158.288C144.025 158.717 150.577 158.988 153.672 158.428C158.798 157.5 159.911 154.164 160.072 152.502C160.181 151.357 159.224 150.381 158.072 150.341L150.672 150.084C149.751 150.051 149.294 148.96 149.92 148.287L151.403 146.691C151.403 146.691 150.607 146.052 149.346 146.133C148.551 146.184 147.477 146.802 146.49 147.51C143.751 149.474 140.743 151.04 137.525 152.066C136.547 152.379 135.469 152.701 134.312 153.017L135.556 161.111Z" fill="white"/>
<path d="M130.874 164.238C130.626 164.238 130.391 164.099 130.282 163.863C130.13 163.538 130.269 163.151 130.595 163C134.282 161.291 136.973 159.511 138.586 158.318C139.373 157.736 140.343 157.497 141.321 157.646C144.099 158.071 150.599 158.324 153.555 157.789C158.472 156.899 159.294 153.753 159.42 152.441C159.455 152.097 159.342 151.758 159.102 151.486C158.837 151.185 158.45 151.005 158.05 150.99L150.646 150.733C149.964 150.709 149.377 150.305 149.116 149.676C148.851 149.048 148.977 148.347 149.442 147.847L150.333 146.886C150.081 146.811 149.764 146.758 149.39 146.782C149.077 146.802 148.329 146.992 146.873 148.037C143.99 150.105 140.912 151.669 137.725 152.685C135.826 153.292 133.882 153.832 131.947 154.291C131.6 154.375 131.248 154.159 131.165 153.811C131.078 153.462 131.295 153.111 131.647 153.028C133.547 152.576 135.46 152.045 137.33 151.448C140.382 150.473 143.338 148.971 146.112 146.983C147.442 146.028 148.486 145.538 149.307 145.486C150.799 145.391 151.768 146.153 151.812 146.186C151.951 146.298 152.038 146.464 152.051 146.644C152.064 146.823 152.003 147 151.881 147.132L150.399 148.729C150.233 148.908 150.286 149.101 150.316 149.176C150.351 149.251 150.451 149.427 150.694 149.435L158.094 149.692C158.855 149.719 159.581 150.06 160.081 150.629C160.559 151.173 160.789 151.861 160.72 152.564C160.598 153.817 159.746 157.989 153.79 159.067C150.659 159.634 144.051 159.379 141.125 158.93C140.495 158.834 139.869 158.987 139.364 159.36C137.704 160.589 134.93 162.423 131.148 164.177C131.061 164.219 130.965 164.238 130.874 164.238Z" fill="#333A43"/>
<path d="M204.225 70.5904C204.216 63.9578 198.86 58.7149 192.321 59.0353C185.948 59.347 180.983 64.7544 181.092 71.2614C181.139 74.3959 182.361 77.21 184.37 79.2535C185.904 80.8251 186.783 82.9464 186.787 85.1891V86.5182C186.787 87.6178 187.665 88.488 188.739 88.4664L196.604 88.3019C197.682 88.2802 198.551 87.3711 198.551 86.2714L198.547 84.9466C198.547 82.7386 199.356 80.5739 200.886 78.9807C202.969 76.803 204.229 73.8374 204.225 70.5904Z" fill="white"/>
<path d="M192.893 59.6711C192.715 59.6711 192.536 59.6755 192.354 59.6841C186.302 59.9785 181.641 65.0612 181.746 71.2479C181.789 74.1312 182.889 76.8155 184.837 78.8026C186.51 80.5084 187.437 82.777 187.441 85.1842V86.5133C187.441 86.8812 187.58 87.2189 187.836 87.4657C188.076 87.6995 188.397 87.8251 188.728 87.8164L196.593 87.6519C197.314 87.6389 197.901 87.0198 197.901 86.2708L197.897 84.9461C197.892 82.5432 198.81 80.2054 200.414 78.5299C202.457 76.3955 203.579 73.5771 203.575 70.5898C203.57 67.4986 202.357 64.6499 200.158 62.5675C198.175 60.6885 195.61 59.6711 192.893 59.6711ZM188.702 89.1152C188.032 89.1152 187.402 88.8598 186.923 88.3922C186.419 87.8987 186.137 87.232 186.137 86.5176V85.1885C186.132 83.119 185.341 81.1752 183.902 79.7075C181.724 77.4822 180.493 74.4863 180.441 71.2695C180.328 64.3772 185.532 58.7187 192.293 58.3853C195.566 58.2251 198.684 59.3767 201.057 61.628C203.518 63.9529 204.875 67.135 204.879 70.5898C204.883 73.9104 203.631 77.0493 201.357 79.4261C199.984 80.8634 199.201 82.8723 199.201 84.9461L199.205 86.2708C199.205 87.7168 198.049 88.9204 196.619 88.9507L188.758 89.1152C188.736 89.1152 188.719 89.1152 188.702 89.1152Z" fill="#333A43"/>
<path d="M192.695 96.4364C190.013 96.4927 187.835 94.3194 187.831 91.5789L187.826 88.3578L197.543 88.1587L197.547 91.3754C197.552 94.1159 195.382 96.3801 192.695 96.4364Z" fill="white"/>
<path d="M188.478 88.9944L188.482 91.579C188.482 92.7522 188.939 93.8346 189.756 94.6355C190.547 95.4018 191.578 95.8088 192.682 95.7871C195.008 95.7395 196.899 93.761 196.895 91.3755L196.891 88.8212L188.478 88.9944ZM192.595 97.0859C191.187 97.0859 189.861 96.5491 188.848 95.562C187.774 94.5186 187.183 93.1029 187.178 91.579L187.174 87.7258L198.195 87.4921L198.199 91.3755C198.204 94.4624 195.743 97.0253 192.708 97.0859C192.673 97.0859 192.634 97.0859 192.595 97.0859Z" fill="#333A43"/>
<path d="M192.816 51.1504C192.455 51.1504 192.164 50.8603 192.164 50.501L192.125 38.79C192.125 38.4307 192.416 38.1363 192.777 38.1363C193.138 38.1363 193.429 38.4264 193.429 38.7857L193.468 50.4967C193.468 50.856 193.177 51.1461 192.816 51.1504Z" fill="#333A43"/>
<path d="M157.301 74.4043C156.944 74.4043 156.653 74.1142 156.648 73.7549C156.648 73.3956 156.94 73.1055 157.301 73.1055L172.626 73.0665C172.987 73.0665 173.278 73.3523 173.278 73.7116C173.278 74.0709 172.987 74.361 172.626 74.3653L157.305 74.4043C157.305 74.4043 157.305 74.4043 157.301 74.4043Z" fill="#333A43"/>
<path d="M227.671 74.707H227.666L211.919 74.5728C211.558 74.5685 211.267 74.2784 211.272 73.9191C211.276 73.5597 211.55 73.2653 211.928 73.274L227.675 73.4082C228.036 73.4125 228.327 73.7069 228.323 74.0662C228.318 74.4213 228.027 74.707 227.671 74.707Z" fill="#333A43"/>
<path d="M177.024 58.9102C176.854 58.9102 176.689 58.8495 176.559 58.7196L167.12 49.1907C166.868 48.9353 166.872 48.524 167.129 48.2686C167.385 48.0175 167.798 48.0218 168.05 48.2772L177.489 57.8062C177.741 58.0616 177.737 58.4729 177.48 58.724C177.354 58.8496 177.189 58.9102 177.024 58.9102Z" fill="#333A43"/>
<path d="M207.763 59.5723C207.598 59.5723 207.428 59.5074 207.302 59.3818C207.05 59.1264 207.05 58.7194 207.302 58.464L217.345 48.4891C217.602 48.238 218.015 48.238 218.267 48.4934C218.523 48.7445 218.523 49.1558 218.267 49.4112L208.224 59.3818C208.098 59.5117 207.933 59.5723 207.763 59.5723Z" fill="#333A43"/>
<path d="M343.03 126.218C344.908 135.171 339.147 143.947 330.152 145.819C321.161 147.693 312.349 141.953 310.466 132.998C308.588 124.044 314.353 115.269 323.344 113.394C332.335 111.524 341.147 117.26 343.03 126.218Z" fill="white"/>
<path d="M326.778 113.689C325.683 113.689 324.578 113.802 323.474 114.031C314.853 115.828 309.301 124.279 311.105 132.868C312.909 141.455 321.396 146.981 330.022 145.184C334.2 144.314 337.786 141.875 340.121 138.318C342.46 134.76 343.264 130.509 342.39 126.348C341.517 122.188 339.069 118.616 335.495 116.291C332.865 114.577 329.852 113.689 326.778 113.689ZM326.743 146.822C318.735 146.823 311.531 141.239 309.831 133.132C307.879 123.841 313.879 114.702 323.209 112.758C327.726 111.819 332.343 112.685 336.208 115.204C340.073 117.72 342.721 121.582 343.669 126.084C344.612 130.582 343.743 135.18 341.212 139.029C338.686 142.877 334.808 145.514 330.287 146.456C329.1 146.704 327.913 146.822 326.743 146.822Z" fill="#333A43"/>
<path d="M326.719 143.92C323.958 143.92 321.254 143.123 318.884 141.582C315.672 139.49 313.472 136.279 312.685 132.539C311.063 124.815 316.054 117.217 323.806 115.602C328.488 114.628 333.331 116.027 336.766 119.347C337.022 119.598 337.031 120.01 336.779 120.265C336.527 120.525 336.118 120.529 335.857 120.278C332.731 117.26 328.332 115.988 324.075 116.875C317.024 118.343 312.489 125.248 313.963 132.27C314.676 135.673 316.68 138.593 319.597 140.495C322.519 142.396 326.006 143.052 329.423 142.341C332.84 141.629 335.775 139.636 337.683 136.728C339.592 133.82 340.253 130.344 339.535 126.945C339.462 126.59 339.688 126.248 340.04 126.175C340.392 126.101 340.74 126.326 340.814 126.677C341.6 130.417 340.874 134.24 338.775 137.439C336.675 140.637 333.449 142.829 329.692 143.612C328.701 143.818 327.706 143.92 326.719 143.92Z" fill="#333A43"/>
<path d="M327.362 137.539L326.988 135.743C325.701 135.951 324.393 135.868 323.584 135.6L323.689 133.266C324.58 133.535 325.784 133.699 327.019 133.444C328.101 133.219 328.758 132.647 328.597 131.89C328.445 131.171 327.745 130.842 326.236 130.664C324.062 130.405 322.476 129.747 322.089 127.911C321.741 126.248 322.645 124.694 324.593 123.876L324.215 122.075L326.08 121.69L326.428 123.352C327.714 123.144 328.623 123.231 329.314 123.404L329.214 125.655C328.675 125.551 327.71 125.3 326.341 125.586C325.106 125.841 324.819 126.456 324.928 126.984C325.058 127.608 325.81 127.868 327.554 128.136C329.979 128.461 331.11 129.309 331.466 131.015C331.823 132.699 330.927 134.388 328.823 135.219L329.227 137.151L327.362 137.539Z" fill="#FB9946"/>
<path d="M285.34 13.6677L308.26 38.5703L341.363 28.6387L285.34 13.6677Z" fill="white"/>
<path d="M287.332 14.8747L308.461 37.829L338.977 28.6767L287.332 14.8747ZM308.257 39.2188C308.074 39.2188 307.9 39.1451 307.774 39.0066L284.854 14.1084C284.658 13.8919 284.628 13.5758 284.78 13.3291C284.928 13.0866 285.223 12.9654 285.506 13.0433L341.529 28.01C341.812 28.0879 342.007 28.339 342.012 28.6291C342.016 28.9191 341.829 29.1789 341.546 29.2612L308.444 39.1927C308.383 39.2101 308.318 39.2188 308.257 39.2188Z" fill="#333A43"/>
<path d="M291.27 35.0664L293.556 22.5978L332.198 28.2909L297.587 26.9748L302.373 32.1831L291.27 35.0664Z" fill="#FEC99E"/>
<path d="M294.086 23.3348L292.099 34.1799L301.168 31.8247L297.107 27.4174C296.929 27.2225 296.886 26.9411 296.994 26.703C297.107 26.4649 297.329 26.3177 297.612 26.3264L320.249 27.1879L294.086 23.3348ZM291.273 35.7168C291.112 35.7168 290.951 35.6562 290.829 35.5436C290.664 35.3921 290.59 35.167 290.629 34.9505L292.916 22.4819C292.981 22.1399 293.308 21.9061 293.655 21.958L332.297 27.6512C332.64 27.7031 332.879 28.0105 332.849 28.3525C332.818 28.6946 332.514 28.9457 332.175 28.9413L299.125 27.6858L302.859 31.7424C303.016 31.9113 303.068 32.1494 303.003 32.3659C302.937 32.5867 302.764 32.7512 302.542 32.8118L291.438 35.6951C291.382 35.7081 291.329 35.7168 291.273 35.7168Z" fill="#333A43"/>
<path d="M293.492 32.8281C293.361 32.8281 293.231 32.7849 293.118 32.7026C292.857 32.4948 292.809 32.1181 293.014 31.854L297.109 26.6068C297.318 26.3428 297.696 26.2951 297.961 26.4986C298.226 26.7064 298.274 27.0831 298.07 27.3471L293.97 32.5944C293.853 32.7502 293.67 32.8281 293.492 32.8281Z" fill="#333A43"/>
<path d="M336.367 64.2734C336.201 64.2734 336.032 64.2085 335.906 64.0786L333.98 62.152C333.723 61.8966 333.728 61.4853 333.98 61.2342C334.236 60.9788 334.649 60.9788 334.901 61.2342L336.827 63.1651C337.084 63.4205 337.084 63.8318 336.827 64.0829C336.701 64.2085 336.532 64.2734 336.367 64.2734Z" fill="#333A43"/>
<path d="M343.107 71.0234C342.937 71.0234 342.772 70.9629 342.646 70.833L340.72 68.902C340.463 68.6509 340.463 68.2396 340.72 67.9842C340.976 67.7331 341.389 67.7331 341.641 67.9886L343.567 69.9194C343.824 70.1705 343.824 70.5818 343.567 70.8373C343.437 70.9628 343.272 71.0234 343.107 71.0234Z" fill="#333A43"/>
<path d="M334.441 71.0234C334.275 71.0234 334.11 70.9628 333.98 70.8373C333.728 70.5818 333.723 70.1705 333.98 69.9194L335.906 67.9886C336.158 67.7331 336.571 67.7331 336.827 67.9842C337.084 68.2396 337.084 68.6509 336.827 68.902L334.901 70.833C334.775 70.9629 334.61 71.0234 334.441 71.0234Z" fill="#333A43"/>
<path d="M341.181 64.2734C341.015 64.2734 340.846 64.2085 340.72 64.0829C340.463 63.8318 340.463 63.4205 340.72 63.1651L342.646 61.2342C342.898 60.9788 343.311 60.9788 343.567 61.2342C343.824 61.4853 343.824 61.8966 343.567 62.152L341.641 64.0786C341.515 64.2085 341.35 64.2734 341.181 64.2734Z" fill="#333A43"/>
<path d="M334.334 307.199C334.164 307.199 333.999 307.136 333.873 307.009L332.403 305.546C332.147 305.293 332.147 304.881 332.403 304.628C332.655 304.374 333.068 304.374 333.325 304.628L334.794 306.091C335.047 306.345 335.047 306.756 334.794 307.009C334.664 307.136 334.499 307.199 334.334 307.199Z" fill="#333A43"/>
<path d="M341.368 314.207C341.202 314.207 341.037 314.143 340.907 314.016L339.437 312.553C339.185 312.3 339.185 311.888 339.437 311.635C339.694 311.381 340.107 311.381 340.359 311.635L341.828 313.098C342.085 313.352 342.085 313.763 341.828 314.016C341.702 314.143 341.537 314.207 341.368 314.207Z" fill="#333A43"/>
<path d="M332.864 314.207C332.695 314.207 332.529 314.143 332.403 314.016C332.147 313.763 332.147 313.352 332.403 313.098L333.873 311.635C334.125 311.381 334.538 311.381 334.794 311.635C335.047 311.888 335.047 312.3 334.794 312.553L333.325 314.016C333.195 314.143 333.029 314.207 332.864 314.207Z" fill="#333A43"/>
<path d="M339.898 307.199C339.733 307.199 339.568 307.136 339.437 307.009C339.185 306.756 339.185 306.345 339.437 306.091L340.907 304.628C341.163 304.374 341.576 304.374 341.828 304.628C342.085 304.881 342.085 305.293 341.828 305.546L340.359 307.009C340.233 307.136 340.068 307.199 339.898 307.199Z" fill="#333A43"/>
<path d="M321.491 324.091C319.774 324.091 318.378 325.482 318.378 327.192C318.378 328.902 319.774 330.293 321.491 330.293C323.209 330.293 324.609 328.902 324.609 327.192C324.609 325.482 323.209 324.091 321.491 324.091ZM321.491 331.592C319.057 331.592 317.074 329.618 317.074 327.192C317.074 324.766 319.057 322.792 321.491 322.792C323.93 322.792 325.913 324.766 325.913 327.192C325.913 329.618 323.93 331.592 321.491 331.592Z" fill="#333A43"/>
<path d="M301.288 336.966C300.219 336.966 299.349 337.833 299.349 338.897C299.349 339.962 300.219 340.828 301.288 340.828C302.353 340.828 303.227 339.962 303.227 338.897C303.227 337.833 302.353 336.966 301.288 336.966ZM301.288 342.127C299.497 342.127 298.045 340.678 298.045 338.897C298.045 337.117 299.497 335.668 301.288 335.668C303.075 335.668 304.531 337.117 304.531 338.897C304.531 340.678 303.075 342.127 301.288 342.127Z" fill="#333A43"/>
<path d="M89.589 337.861C88.5195 337.861 87.65 338.728 87.65 339.792C87.65 340.856 88.5195 341.723 89.589 341.723C90.6585 341.723 91.5281 340.856 91.5281 339.792C91.5281 338.728 90.6585 337.861 89.589 337.861ZM89.589 343.021C87.8021 343.021 86.3457 341.573 86.3457 339.792C86.3457 338.011 87.8021 336.562 89.589 336.562C91.3758 336.562 92.8323 338.011 92.8323 339.792C92.8323 341.573 91.3758 343.021 89.589 343.021Z" fill="#333A43"/>
<path d="M116.017 19.1013C114.639 19.1013 113.517 20.2183 113.517 21.5907C113.517 22.9631 114.639 24.0801 116.017 24.0801C117.395 24.0801 118.513 22.9631 118.513 21.5907C118.513 20.2183 117.395 19.1013 116.017 19.1013ZM116.017 25.3789C113.917 25.3789 112.213 23.6775 112.213 21.5907C112.213 19.5039 113.917 17.8025 116.017 17.8025C118.113 17.8025 119.817 19.5039 119.817 21.5907C119.817 23.6775 118.113 25.3789 116.017 25.3789Z" fill="#333A43"/>
<path d="M19.0631 250.119C18.8066 250.119 18.5632 249.966 18.4588 249.713C-0.027112 204.317 11.1593 145.77 46.966 100.557C69.7343 71.8059 101.493 49.6568 138.804 36.5128C181.902 21.3297 231.812 17.8532 287.157 26.1786C287.513 26.2349 287.761 26.5639 287.705 26.9189C287.652 27.2739 287.318 27.5164 286.966 27.4644C146.669 6.35437 77.0208 64.7014 47.992 101.363C12.4722 146.214 1.35545 204.254 19.6675 249.225C19.8022 249.558 19.6413 249.936 19.3109 250.071C19.2283 250.104 19.1457 250.119 19.0631 250.119Z" fill="#333A43"/>
<path d="M145.065 331.26C145.052 331.26 145.043 331.26 145.03 331.26C130.049 330.574 114.593 328.067 99.0937 323.811C78.1645 318.063 59.0916 306.374 43.9316 290.007C43.6881 289.743 43.7012 289.332 43.9664 289.089C44.2316 288.847 44.6446 288.863 44.888 289.126C59.8829 305.315 78.7471 316.875 99.4415 322.559C114.845 326.79 130.205 329.28 145.091 329.962C145.452 329.979 145.73 330.282 145.713 330.641C145.7 330.989 145.408 331.26 145.065 331.26Z" fill="#333A43"/>
<path d="M314.445 242.729C314.28 242.729 314.11 242.665 313.984 242.538C313.732 242.285 313.732 241.873 313.984 241.62C330.553 225.119 339.678 203.18 339.678 179.844C339.678 168.368 337.483 157.214 333.144 146.691C333.005 146.36 333.166 145.98 333.5 145.844C333.835 145.708 334.213 145.866 334.348 146.198C338.752 156.878 340.983 168.199 340.983 179.844C340.983 203.527 331.722 225.792 314.906 242.538C314.78 242.665 314.614 242.729 314.445 242.729Z" fill="#333A43"/>
<path d="M311.617 115.564C311.461 115.564 311.3 115.508 311.178 115.391C309.091 113.491 306.891 111.672 304.639 109.984C304.348 109.767 304.292 109.36 304.509 109.075C304.726 108.789 305.135 108.733 305.422 108.945C307.709 110.659 309.943 112.508 312.056 114.435C312.321 114.677 312.339 115.088 312.1 115.352C311.969 115.491 311.791 115.564 311.617 115.564Z" fill="#333A43"/>
<path d="M197.976 110.793C197.78 110.793 197.589 110.706 197.458 110.542C197.237 110.256 197.293 109.849 197.576 109.628C213.27 97.5624 232.069 91.1809 251.946 91.1809C256.929 91.1809 261.924 91.5965 266.793 92.4104C267.15 92.471 267.389 92.8044 267.328 93.1594C267.267 93.5101 266.928 93.7482 266.576 93.6919C261.776 92.8867 256.855 92.4797 251.946 92.4797C232.361 92.4797 213.836 98.7659 198.371 110.659C198.254 110.75 198.115 110.793 197.976 110.793Z" fill="#333A43"/>
</svg>
