<svg width="360" height="361" viewBox="0 0 360 361" fill="none" xmlns="http://www.w3.org/2000/svg">
<path d="M17.5228 68.9037C45.2414 21.917 98.0045 10.4289 117.904 6.09756C185.626 -8.64877 285.834 9.07022 334.184 89.1539C376.619 159.445 352.989 234.519 349.566 244.811C343.825 262.073 329.446 303.474 288.682 331.518C225.222 375.176 128.497 365.384 95.3954 320.317C79.8486 299.15 92.4271 289.387 74.323 251.963C50.0746 201.838 19.9762 203.042 5.95242 162.911C-9.87567 117.608 14.9612 73.248 17.5228 68.9037Z" fill="#FFF4E9"/>
<path d="M188.361 285.871C187.374 284.435 187.374 282.584 188.361 281.148C189.724 279.166 190.468 277.03 190.468 274.802C190.468 264.446 174.424 256.051 154.636 256.051C134.845 256.051 118.805 264.446 118.805 274.802C118.805 277.03 119.549 279.166 120.912 281.148C121.898 282.584 121.898 284.435 120.912 285.871C119.549 287.852 118.805 289.989 118.805 292.216C118.805 297.129 122.418 301.6 128.324 304.943C128.194 305.501 128.121 306.068 128.121 306.644C128.121 314.308 139.99 320.521 154.636 320.521C169.283 320.521 181.152 314.308 181.152 306.644C181.152 306.068 181.079 305.501 180.949 304.943C186.855 301.6 190.468 297.129 190.468 292.216C190.468 289.989 189.724 287.852 188.361 285.871Z" fill="white"/>
<path d="M154.637 256.7C135.239 256.7 119.454 264.82 119.454 274.801C119.454 276.846 120.125 278.857 121.445 280.78C122.587 282.437 122.587 284.58 121.445 286.238C120.125 288.16 119.454 290.171 119.454 292.216C119.454 296.705 122.717 301.024 128.645 304.378C128.896 304.52 129.021 304.81 128.956 305.09C128.831 305.633 128.77 306.141 128.77 306.643C128.77 313.937 140.375 319.871 154.637 319.871C168.899 319.871 180.504 313.937 180.504 306.643C180.504 306.141 180.443 305.633 180.318 305.09C180.248 304.81 180.378 304.52 180.629 304.378C186.557 301.024 189.82 296.705 189.82 292.216C189.82 290.171 189.149 288.16 187.829 286.238C186.687 284.58 186.687 282.437 187.829 280.78C189.149 278.857 189.82 276.846 189.82 274.801C189.82 264.82 174.035 256.7 154.637 256.7ZM154.637 321.169C139.657 321.169 127.472 314.653 127.472 306.643C127.472 306.199 127.511 305.739 127.598 305.271C121.505 301.708 118.156 297.085 118.156 292.216C118.156 289.904 118.905 287.645 120.376 285.503C121.211 284.291 121.211 282.726 120.376 281.515C118.905 279.372 118.156 277.113 118.156 274.801C118.156 264.104 134.521 255.401 154.637 255.401C174.753 255.401 191.118 264.104 191.118 274.801C191.118 277.113 190.369 279.372 188.898 281.515C188.063 282.726 188.063 284.291 188.898 285.503C190.369 287.645 191.118 289.904 191.118 292.216C191.118 297.085 187.769 301.708 181.676 305.271C181.759 305.739 181.802 306.199 181.802 306.643C181.802 314.653 169.617 321.169 154.637 321.169Z" fill="#333A43"/>
<path d="M152.831 290.737C143.848 290.737 135.064 289.483 125.562 286.975C125.216 286.883 125.009 286.528 125.099 286.181C125.19 285.835 125.55 285.628 125.891 285.72C144.666 290.676 160.62 290.676 180.956 285.717C181.307 285.628 181.657 285.845 181.744 286.193C181.826 286.541 181.614 286.893 181.268 286.978C170.987 289.484 161.81 290.737 152.831 290.737Z" fill="#FEC99E"/>
<path d="M154.203 308.389C146.336 308.389 138.643 307.29 130.322 305.093C129.976 305.002 129.768 304.647 129.859 304.3C129.95 303.953 130.309 303.748 130.651 303.838C147.068 308.171 161.014 308.171 178.793 303.835C179.144 303.748 179.494 303.964 179.581 304.312C179.663 304.66 179.451 305.011 179.105 305.096C170.1 307.291 162.065 308.389 154.203 308.389Z" fill="#FEC99E"/>
<path d="M223.337 200.327L223.686 200.685C211.231 212.834 202.255 228.453 197.734 245.857L197.733 245.858L197.599 246.366C197.599 246.367 197.599 246.367 197.599 246.367L197.599 246.368L223.337 200.327ZM223.337 200.327L223.686 200.685C242.614 182.217 253.044 157.482 253.044 131.043C253.044 77.0791 207.968 31.4859 154.59 31.4859C128.687 31.4859 104.148 41.7872 85.4933 60.4895C66.8827 79.1436 56.5348 103.729 56.3652 129.707C56.1954 154.897 67.4803 180.583 87.2956 200.193C100.141 212.908 109.259 228.584 113.662 245.524L113.662 245.525L113.883 246.366L223.337 200.327Z" fill="#C4C4C4" stroke="#333A43"/>
<mask id="mask0" mask-type="alpha" maskUnits="userSpaceOnUse" x="56" y="31" width="197" height="245">
<path d="M152.154 275.462H159.324C177.103 275.462 192.641 263.445 197.116 246.24L197.25 245.73C201.793 228.241 210.815 212.541 223.337 200.326C242.168 181.952 252.544 157.346 252.544 131.042C252.544 77.349 207.686 31.9849 154.59 31.9849C128.823 31.9849 104.41 42.2312 85.8473 60.8416C67.3278 79.4043 57.0339 103.865 56.8652 129.71C56.6964 154.749 67.9163 180.31 87.6473 199.837C100.555 212.613 109.719 228.367 114.146 245.398L114.366 246.24C118.841 263.445 134.379 275.462 152.154 275.462Z" fill="#C4C4C4"/>
</mask>
<g mask="url(#mask0)">
<path d="M216.723 121.253C214.641 120.738 213.14 118.804 213.361 116.558C213.465 115.468 214.014 114.464 214.827 113.715C218.376 110.444 220.479 105.68 220.098 100.449C219.501 92.3141 212.777 85.7371 204.49 85.1789C194.647 84.5126 186.451 92.1497 186.451 101.669C186.451 106.45 188.519 110.76 191.83 113.776C192.738 114.607 193.249 115.771 193.249 116.991C193.249 119.046 191.812 120.768 189.87 121.253H153.83V154.71H153.856V155.393C153.856 157.361 155.111 159.179 157.036 159.744C158.715 160.238 160.481 159.745 161.623 158.54C165.024 154.949 170.03 152.844 175.521 153.329C183.682 154.048 190.203 160.597 190.769 168.615C191.449 178.274 183.665 186.317 173.964 186.317C169.057 186.317 164.643 184.259 161.562 180.975C161.212 180.601 160.81 180.267 160.338 180.064C157.041 178.655 153.856 180.987 153.856 184.05V184.867H153.83V218.322H251.529C252.208 218.322 252.758 217.781 252.758 217.113V121.253H216.723Z" fill="#FFF4E9"/>
<path d="M240.72 24.1858H153.83V59.2646C153.445 61.3156 151.615 62.8647 149.417 62.8647C148.175 62.8647 146.989 62.3628 146.141 61.4714C142.823 57.9665 137.968 55.8766 132.624 56.2314C124.152 56.7982 117.363 63.6133 116.973 71.9427C116.532 81.4231 124.234 89.2506 133.801 89.2506C138.677 89.2506 143.069 87.2169 146.146 83.9673C146.989 83.076 148.175 82.574 149.417 82.574C151.615 82.574 153.445 84.1274 153.83 86.1741V121.253H189.87C191.813 120.768 193.249 119.046 193.249 116.991C193.249 115.771 192.739 114.607 191.83 113.776C188.52 110.76 186.452 106.45 186.452 101.669C186.452 92.2795 194.426 84.7202 204.088 85.1573C212.578 85.538 219.523 92.1973 220.102 100.514C220.466 105.754 218.333 110.518 214.759 113.776C213.85 114.607 213.339 115.771 213.339 116.991C213.339 119.046 214.78 120.768 216.723 121.253H252.758V36.0028C252.758 29.4777 247.371 24.1858 240.72 24.1858Z" fill="#FEC99E"/>
<path d="M216.805 120.603H252.109V36.0022C252.109 29.8449 247.003 24.8342 240.72 24.8342H154.479V59.264C154.479 59.3073 154.475 59.3462 154.466 59.3852C154.016 61.778 151.891 63.5131 149.416 63.5131C147.997 63.5131 146.634 62.9333 145.674 61.9165C142.329 58.3856 137.591 56.5467 132.667 56.8798C124.467 57.425 117.998 63.9155 117.622 71.9723C117.418 76.2993 118.963 80.4143 121.97 83.5686C125.025 86.7663 129.335 88.601 133.8 88.601C138.287 88.601 142.614 86.749 145.674 83.5211C146.634 82.5085 147.997 81.9244 149.416 81.9244C151.891 81.9244 154.016 83.6638 154.466 86.0567C154.475 86.0956 154.479 86.1345 154.479 86.1735V120.603H189.787C191.449 120.158 192.6 118.682 192.6 116.99C192.6 115.952 192.163 114.957 191.392 114.256C187.84 111.015 185.802 106.428 185.802 101.668C185.802 96.991 187.68 92.6207 191.094 89.3582C194.594 86.0091 199.22 84.2869 204.118 84.5076C212.997 84.91 220.145 91.7683 220.747 100.465C221.11 105.684 219.085 110.707 215.195 114.256C214.429 114.957 213.988 115.952 213.988 116.99C213.988 118.682 215.143 120.158 216.805 120.603ZM252.758 121.901H216.723C216.666 121.901 216.614 121.897 216.562 121.884C214.282 121.313 212.69 119.301 212.69 116.99C212.69 115.588 213.283 114.243 214.321 113.295C217.917 110.019 219.786 105.377 219.453 100.556C218.895 92.5169 212.279 86.1735 204.062 85.8057C199.518 85.6023 195.235 87.1946 191.99 90.2971C188.835 93.3087 187.1 97.3501 187.1 101.668C187.1 106.06 188.982 110.301 192.266 113.295C193.305 114.243 193.898 115.588 193.898 116.99C193.898 119.301 192.305 121.313 190.025 121.884C189.973 121.897 189.921 121.901 189.869 121.901H153.83C153.471 121.901 153.181 121.611 153.181 121.252V86.2384C152.822 84.486 151.251 83.2225 149.416 83.2225C148.352 83.2225 147.331 83.6595 146.617 84.4168C143.315 87.9 138.642 89.899 133.8 89.899C128.984 89.899 124.329 87.9173 121.031 84.4643C117.777 81.0503 116.107 76.5936 116.328 71.9118C116.735 63.1929 123.723 56.1745 132.58 55.5817C137.889 55.2356 143.004 57.213 146.612 61.0251C147.331 61.7823 148.352 62.215 149.416 62.215C151.251 62.215 152.822 60.9515 153.181 59.2034V24.1852C153.181 23.8304 153.471 23.5362 153.83 23.5362H240.72C247.717 23.5362 253.407 29.1266 253.407 36.0022V121.252C253.407 121.611 253.117 121.901 252.758 121.901Z" fill="#333A43"/>
<path d="M132.624 56.2305C137.967 55.8757 142.822 57.9657 146.141 61.4705C146.989 62.3619 148.175 62.8638 149.417 62.8638C151.615 62.8638 153.445 61.3147 153.83 59.2638V24.1849H66.9401C60.2895 24.1849 54.9023 29.4768 54.9023 36.0019V121.252H88.9989V121.274H89.8298C92.3091 121.274 94.3211 123.247 94.3211 125.683C94.3211 126.899 93.8106 128.067 92.9019 128.893C89.5918 131.914 87.5191 136.219 87.5191 141.004C87.5191 150.391 95.4937 157.95 105.16 157.514C113.645 157.132 120.595 150.474 121.17 142.158C121.534 136.917 119.405 132.152 115.831 128.893C114.922 128.067 114.407 126.899 114.407 125.683C114.407 123.247 116.419 121.274 118.898 121.274H119.734V121.252H153.83V86.1732C153.445 84.1266 151.615 82.5732 149.417 82.5732C148.175 82.5732 146.989 83.0751 146.145 83.9665C143.069 87.216 138.677 89.2497 133.801 89.2497C124.234 89.2497 116.532 81.4222 116.973 71.9418C117.362 63.6124 124.151 56.7974 132.624 56.2305Z" fill="#FEC99E"/>
<path d="M89.164 120.626H89.8304C92.6646 120.626 94.9708 122.893 94.9708 125.684C94.9708 127.082 94.378 128.427 93.3395 129.375C90.0554 132.369 88.1688 136.609 88.1688 141.005C88.1688 145.322 89.9039 149.36 93.0583 152.375C96.3035 155.476 100.592 157.068 105.131 156.867C113.352 156.496 119.968 150.154 120.526 142.114C120.859 137.295 118.986 132.65 115.394 129.375C114.356 128.427 113.759 127.082 113.759 125.684C113.759 122.893 116.065 120.626 118.899 120.626H119.574C119.626 120.613 119.678 120.604 119.734 120.604H153.182V86.2392C152.823 84.4868 151.252 83.2233 149.417 83.2233C148.353 83.2233 147.332 83.6604 146.618 84.4176C143.316 87.9008 138.643 89.8999 133.801 89.8999C128.985 89.8999 124.329 87.9181 121.032 84.4652C117.778 81.0512 116.108 76.5944 116.329 71.9126C116.736 63.1938 123.724 56.1754 132.581 55.5826C137.89 55.2364 143.005 57.2138 146.613 61.0259C147.332 61.7831 148.353 62.2158 149.417 62.2158C151.252 62.2158 152.823 60.9524 153.182 59.2043V24.8351H66.9407C60.6579 24.8351 55.552 29.8457 55.552 36.003V120.604H88.9995C89.0558 120.604 89.1121 120.613 89.164 120.626ZM104.356 158.183C99.7694 158.183 95.4641 156.471 92.1626 153.313C88.7486 150.051 86.8707 145.68 86.8707 141.005C86.8707 136.246 88.9087 131.655 92.4655 128.414C93.2314 127.713 93.6727 126.718 93.6727 125.684C93.6727 123.611 91.9506 121.924 89.8304 121.924H88.9995C88.939 121.924 88.8828 121.92 88.8309 121.902H54.903C54.5438 121.902 54.2539 121.612 54.2539 121.253V36.003C54.2539 29.1274 59.9439 23.537 66.9407 23.537H153.831C154.19 23.537 154.48 23.8312 154.48 24.186V59.2649C154.48 59.3081 154.475 59.3471 154.467 59.386C154.017 61.7788 151.892 63.5139 149.417 63.5139C147.998 63.5139 146.635 62.9341 145.674 61.9173C142.33 58.3865 137.592 56.5475 132.667 56.8807C124.468 57.4259 117.999 63.9163 117.623 71.9732C117.419 76.3001 118.964 80.4151 121.971 83.5695C125.026 86.7671 129.336 88.6018 133.801 88.6018C138.288 88.6018 142.615 86.7498 145.674 83.5219C146.635 82.5094 147.998 81.9252 149.417 81.9252C151.892 81.9252 154.017 83.6647 154.467 86.0575C154.475 86.0964 154.48 86.1354 154.48 86.1743V121.253C154.48 121.612 154.19 121.902 153.831 121.902H119.894C119.842 121.92 119.79 121.924 119.734 121.924H118.899C116.783 121.924 115.057 123.611 115.057 125.684C115.057 126.718 115.498 127.713 116.268 128.414C120.158 131.962 122.179 136.987 121.82 142.204C121.218 150.902 114.066 157.763 105.191 158.164C104.91 158.176 104.633 158.183 104.356 158.183Z" fill="#333A43"/>
<path d="M252.893 218.003L233.326 218.212C233.304 218.214 233.157 218.217 233.131 218.219L227.61 218.223V218.258H227.022C224.542 218.258 222.53 216.261 222.53 213.828C222.526 212.61 223.037 211.429 223.945 210.6C227.255 207.579 229.324 203.263 229.319 198.479C229.311 189.092 218.701 185.989 214.698 185.544C206.256 184.606 199.26 187.012 198.689 195.328C198.329 200.57 197.442 207.348 201.017 210.604C201.93 211.432 202.44 212.598 202.44 213.815C202.44 214.395 202.782 215.851 201.479 217.152C200.588 218.044 197.706 218.504 196.443 218.472C191.93 218.356 188.944 218.247 188.944 218.247L154.848 218.273L154.874 253.353C155.263 255.4 157.093 256.951 159.291 256.949C160.533 256.948 161.719 256.445 162.563 255.553C165.635 252.303 170.027 250.267 174.899 250.263C184.47 250.256 192.176 258.075 191.744 267.558C191.359 275.885 184.578 282.708 176.106 283.28C170.762 283.64 165.907 281.554 162.58 278.049C161.736 277.158 160.546 276.658 159.304 276.658C157.106 276.66 155.28 278.213 154.895 280.262L154.926 315.341L241.816 315.273C248.466 315.268 253.849 309.974 253.845 303.45L252.893 218.003Z" fill="#FEC99E"/>
<path d="M233.132 218.218H233.136H233.132ZM227.611 218.222H227.615H227.611ZM155.545 280.323L155.575 314.691L241.816 314.623C244.858 314.621 247.723 313.455 249.873 311.343C252.019 309.233 253.201 306.429 253.196 303.449L252.253 218.658L233.34 218.861C233.318 218.862 233.283 218.863 233.253 218.863L233.175 218.865C233.167 218.866 233.145 218.867 233.132 218.867L227.814 218.871C227.749 218.894 227.684 218.907 227.611 218.907H227.022C224.188 218.907 221.882 216.628 221.882 213.828C221.877 212.418 222.47 211.066 223.509 210.12C226.793 207.122 228.671 202.879 228.671 198.479C228.662 189.675 218.533 186.623 214.625 186.189C209.269 185.594 205.059 186.425 202.462 188.594C200.589 190.16 199.537 192.441 199.338 195.372C199.304 195.845 199.269 196.329 199.23 196.823C198.858 201.768 198.434 207.373 201.454 210.124C202.493 211.068 203.09 212.414 203.09 213.814C203.09 213.886 203.098 213.974 203.103 214.075C203.155 214.794 203.259 216.29 201.943 217.61C200.796 218.758 197.582 219.163 196.431 219.12C191.965 219.005 188.949 218.896 188.919 218.894L155.497 218.921L155.523 253.288C155.887 255.037 157.457 256.299 159.288 256.299C159.288 256.299 159.288 256.299 159.292 256.299C160.356 256.299 161.378 255.864 162.092 255.106C165.389 251.619 170.058 249.617 174.9 249.613C174.904 249.613 174.908 249.613 174.912 249.613C179.728 249.613 184.38 251.59 187.673 255.039C190.931 258.447 192.605 262.903 192.389 267.588C191.991 276.304 185.007 283.329 176.15 283.927C170.849 284.286 165.726 282.305 162.113 278.496C161.395 277.74 160.374 277.306 159.309 277.306C159.309 277.306 159.309 277.306 159.305 277.306C157.475 277.308 155.904 278.573 155.545 280.323ZM154.926 315.989C154.567 315.989 154.277 315.699 154.277 315.341L154.247 280.261C154.247 280.221 154.251 280.18 154.26 280.141C154.71 277.748 156.83 276.011 159.305 276.008C159.309 276.008 159.309 276.008 159.309 276.008C160.729 276.008 162.092 276.589 163.052 277.602C166.401 281.13 171.139 282.962 176.063 282.632C184.263 282.078 190.723 275.585 191.095 267.528C191.294 263.201 189.745 259.084 186.734 255.936C183.683 252.742 179.378 250.911 174.912 250.911C174.908 250.911 174.908 250.911 174.904 250.911C170.412 250.915 166.09 252.769 163.035 255.998C162.074 257.013 160.711 257.597 159.292 257.598H159.288C156.813 257.598 154.693 255.864 154.238 253.473C154.23 253.433 154.225 253.393 154.225 253.352L154.199 218.273C154.199 218.101 154.264 217.936 154.39 217.814C154.511 217.692 154.675 217.624 154.848 217.624L188.945 217.597C188.997 217.598 192.004 217.708 196.461 217.823C197.776 217.84 200.351 217.364 201.021 216.692C201.926 215.791 201.857 214.813 201.809 214.166C201.8 214.03 201.792 213.912 201.792 213.815C201.792 212.779 201.35 211.783 200.58 211.084C197.093 207.907 197.56 201.707 197.936 196.725C197.971 196.234 198.01 195.753 198.04 195.283C198.269 191.985 199.477 189.399 201.632 187.598C204.505 185.197 209.048 184.265 214.773 184.899C218.996 185.368 229.96 188.722 229.969 198.478C229.973 203.242 227.935 207.835 224.383 211.079C223.617 211.779 223.176 212.781 223.18 213.827C223.18 215.912 224.906 217.609 227.022 217.609H227.412C227.477 217.586 227.542 217.573 227.611 217.573L233.123 217.569C233.154 217.568 233.188 217.566 233.223 217.566L233.288 217.564L252.885 217.353C253.252 217.367 253.538 217.637 253.542 217.995L254.494 303.442C254.499 306.78 253.179 309.912 250.782 312.268C248.389 314.621 245.204 315.919 241.816 315.921L154.926 315.989Z" fill="#333A43"/>
<path d="M190.77 168.618C190.198 160.486 183.496 153.889 175.21 153.304C169.87 152.927 165.011 154.996 161.675 158.484C160.935 159.259 159.944 159.786 158.871 159.905C156.158 160.205 153.856 158.13 153.856 155.528V154.71H153.83V121.253H119.734V121.275H119.037C117.033 121.275 115.182 122.508 114.602 124.394C114.1 126.039 114.602 127.774 115.831 128.894C119.405 132.153 121.534 136.918 121.17 142.159C120.595 150.475 113.645 157.133 105.16 157.515C95.4937 157.951 87.5191 150.392 87.5191 141.005C87.5191 136.19 89.6178 131.858 92.9625 128.838C93.3476 128.492 93.6851 128.098 93.8928 127.635C95.3294 124.399 92.9495 121.275 89.8298 121.275H88.9989V121.253H54.9023V218.322H93.4255L84.7499 244.392L103.836 259.032L126.739 246.095L118.063 218.322H153.83V184.867H153.856V184.185C153.856 182.217 155.111 180.401 157.032 179.834C158.711 179.339 160.481 179.831 161.623 181.037C164.699 184.285 169.087 186.317 173.964 186.317C183.66 186.317 191.445 178.276 190.77 168.618Z" fill="#FEC99E"/>
<path d="M85.512 244.158L103.893 258.255L125.965 245.787L117.445 218.515C117.385 218.318 117.419 218.104 117.54 217.937C117.662 217.771 117.856 217.673 118.064 217.673H153.182V184.867C153.182 184.802 153.19 184.74 153.208 184.681V184.184C153.208 181.888 154.705 179.843 156.851 179.211C158.746 178.651 160.758 179.179 162.095 180.59C165.15 183.817 169.477 185.667 173.964 185.667C178.503 185.667 182.86 183.783 185.924 180.498C188.94 177.263 190.428 173.06 190.121 168.664C190.121 168.663 190.121 168.663 190.121 168.663C189.572 160.839 183.142 154.514 175.163 153.951C170.243 153.607 165.501 155.419 162.147 158.932C161.273 159.843 160.135 160.417 158.941 160.55C157.457 160.713 155.981 160.245 154.891 159.266C153.822 158.31 153.208 156.947 153.208 155.527V154.888C153.19 154.831 153.182 154.771 153.182 154.709V121.901H119.894C119.842 121.919 119.79 121.923 119.734 121.923H119.037C117.272 121.923 115.701 123.018 115.225 124.584C114.797 125.973 115.199 127.44 116.268 128.414C120.158 131.962 122.179 136.987 121.82 142.203C121.218 150.901 114.066 157.763 105.191 158.163C100.297 158.383 95.6675 156.661 92.1626 153.313C88.7487 150.051 86.8707 145.679 86.8707 141.004C86.8707 136.211 88.9347 131.602 92.5304 128.353C92.9026 128.02 93.1535 127.695 93.3006 127.371C93.8631 126.103 93.7809 124.753 93.0756 123.667C92.366 122.576 91.1544 121.923 89.8304 121.923H88.9995C88.939 121.923 88.8828 121.919 88.8309 121.901H55.552V217.673H93.4261C93.6338 217.673 93.8328 217.773 93.9539 217.942C94.0751 218.111 94.1098 218.329 94.0449 218.527L85.512 244.158ZM103.837 259.681C103.698 259.681 103.556 259.636 103.443 259.547L84.3568 244.907C84.1361 244.738 84.0496 244.449 84.1361 244.186L92.526 218.971H54.903C54.5438 218.971 54.2539 218.68 54.2539 218.322V121.252C54.2539 120.898 54.5438 120.603 54.903 120.603H88.9995C89.0558 120.603 89.1121 120.612 89.164 120.625H89.8304C91.5915 120.625 93.214 121.499 94.166 122.962C95.1136 124.42 95.2304 126.22 94.4862 127.894C94.2655 128.392 93.9107 128.859 93.4001 129.318C90.077 132.316 88.1688 136.578 88.1688 141.004C88.1688 145.322 89.9039 149.36 93.0583 152.374C96.3035 155.475 100.592 157.067 105.131 156.866C113.352 156.495 119.968 150.153 120.526 142.114C120.859 137.295 118.986 132.65 115.394 129.374C113.949 128.059 113.408 126.077 113.984 124.203C114.628 122.096 116.705 120.625 119.037 120.625H119.574C119.626 120.612 119.678 120.603 119.734 120.603H153.831C154.19 120.603 154.48 120.898 154.48 121.252V154.53C154.497 154.587 154.506 154.647 154.506 154.709V155.527C154.506 156.579 154.96 157.589 155.756 158.299C156.587 159.043 157.664 159.388 158.798 159.259C159.689 159.161 160.546 158.726 161.208 158.035C164.83 154.243 169.949 152.279 175.254 152.656C183.873 153.264 190.822 160.107 191.415 168.573C191.752 173.333 190.138 177.882 186.872 181.383C183.566 184.931 178.862 186.965 173.964 186.965C169.122 186.965 164.453 184.967 161.152 181.482C160.152 180.428 158.642 180.037 157.214 180.456C155.622 180.926 154.506 182.459 154.506 184.184V184.867C154.506 184.931 154.497 184.994 154.48 185.052V218.322C154.48 218.68 154.19 218.971 153.831 218.971H118.947L127.358 245.9C127.449 246.192 127.324 246.508 127.06 246.659L104.157 259.597C104.057 259.653 103.945 259.681 103.837 259.681Z" fill="#333A43"/>
<path d="M68.0359 315.407L154.926 315.34L154.896 280.26C155.281 278.212 157.107 276.659 159.305 276.657C160.547 276.657 161.737 277.157 162.58 278.049C165.908 281.553 170.763 283.639 176.107 283.279C184.579 282.707 191.359 275.884 191.744 267.557C192.177 258.073 184.471 250.255 174.899 250.262C170.027 250.265 165.635 252.301 162.563 255.552C161.719 256.444 160.534 256.947 159.292 256.948C157.094 256.95 155.263 255.399 154.874 253.351L154.848 218.272L118.809 218.3C116.866 218.787 115.429 220.511 115.429 222.569C115.429 223.786 115.944 224.952 116.853 225.78C120.163 228.795 122.24 233.102 122.244 237.885C122.253 247.272 114.283 254.838 104.616 254.409C96.131 254.033 89.1776 247.382 88.5934 239.066C88.2256 233.825 90.3501 229.06 93.9242 225.798C94.8329 224.969 95.3435 223.802 95.3435 222.584C95.3392 220.527 93.8983 218.805 91.9554 218.321L55.916 218.35L55.9852 303.603C55.9896 310.127 61.3853 315.413 68.0359 315.407Z" fill="#FEC99E"/>
<path d="M56.5657 218.999L56.6349 303.603C56.6392 309.756 61.7494 314.759 68.0279 314.759C68.0322 314.759 68.0322 314.759 68.0365 314.759L154.278 314.691L154.247 280.261C154.247 280.221 154.252 280.18 154.26 280.141C154.71 277.748 156.83 276.01 159.305 276.008C159.31 276.008 159.31 276.008 159.31 276.008C160.729 276.008 162.092 276.589 163.053 277.602C166.402 281.13 171.14 282.965 176.064 282.631C184.264 282.079 190.724 275.585 191.096 267.527C191.295 263.201 189.746 259.084 186.739 255.935C183.684 252.742 179.374 250.911 174.913 250.911C174.909 250.911 174.909 250.911 174.904 250.911C170.413 250.914 166.09 252.768 163.035 255.998C162.075 257.013 160.712 257.596 159.292 257.597H159.288C156.813 257.597 154.693 255.863 154.239 253.473C154.23 253.433 154.226 253.393 154.226 253.352L154.2 218.922L118.892 218.95C117.23 219.4 116.079 220.877 116.079 222.569C116.079 223.605 116.52 224.601 117.291 225.3C120.847 228.538 122.89 233.126 122.894 237.885C122.898 242.561 121.02 246.933 117.611 250.198C114.11 253.549 109.493 255.269 104.591 255.058C95.7119 254.665 88.5551 247.81 87.945 239.112C87.5815 233.896 89.6022 228.869 93.4878 225.319C94.2537 224.618 94.6951 223.622 94.6951 222.586C94.6907 220.894 93.5354 219.419 91.8738 218.971L56.5657 218.999ZM68.0279 316.057C61.0355 316.057 55.3454 310.473 55.3368 303.604L55.2676 218.35C55.2676 218.178 55.3368 218.013 55.458 217.891C55.5791 217.769 55.7435 217.701 55.9166 217.701L91.9561 217.673C92.008 217.673 92.0642 217.679 92.1118 217.692C94.3965 218.26 95.9888 220.271 95.9932 222.584C95.9932 223.985 95.4003 225.331 94.3618 226.278C90.7704 229.559 88.9056 234.203 89.2431 239.021C89.8056 247.06 96.4259 253.398 104.647 253.761C109.195 253.969 113.474 252.363 116.715 249.26C119.865 246.243 121.6 242.204 121.596 237.886C121.592 233.491 119.705 229.254 116.417 226.261C115.378 225.316 114.781 223.97 114.781 222.57C114.781 220.256 116.369 218.242 118.654 217.671C118.705 217.659 118.757 217.652 118.809 217.652L154.849 217.624C155.204 217.624 155.498 217.914 155.498 218.273L155.524 253.288C155.887 255.037 157.458 256.299 159.288 256.299C159.288 256.299 159.288 256.299 159.292 256.299C160.357 256.298 161.378 255.863 162.092 255.106C165.389 251.619 170.058 249.617 174.9 249.613C174.904 249.613 174.909 249.613 174.913 249.613C179.729 249.613 184.38 251.59 187.673 255.039C190.931 258.447 192.606 262.903 192.39 267.587C191.991 276.304 185.008 283.329 176.15 283.927C170.846 284.283 165.727 282.304 162.114 278.496C161.395 277.74 160.374 277.306 159.31 277.306C157.475 277.308 155.904 278.573 155.545 280.323L155.576 315.34C155.576 315.511 155.506 315.677 155.385 315.798C155.264 315.921 155.1 315.989 154.927 315.989L68.0365 316.057C68.0322 316.057 68.0322 316.057 68.0279 316.057Z" fill="#333A43"/>
</g>
<path d="M155.108 26.5381C155.104 26.5381 155.1 26.5381 155.095 26.5381C154.736 26.5294 154.451 26.2352 154.459 25.8761L154.9 0.96999C154.909 0.615177 155.199 0.333916 155.55 0.333916C155.554 0.333916 155.558 0.333916 155.563 0.333916C155.922 0.338242 156.207 0.636795 156.199 0.995935L155.757 25.8977C155.749 26.2525 155.459 26.5381 155.108 26.5381Z" fill="#333A43"/>
<path d="M52.6741 86.0039C52.5573 86.0039 52.4405 85.9736 52.3367 85.9087L12.3164 61.6214C12.0092 61.4353 11.9097 61.0372 12.0958 60.73C12.2818 60.4228 12.6799 60.3276 12.9871 60.5136L53.0117 84.801C53.3189 84.987 53.4141 85.3851 53.228 85.6924C53.1069 85.8914 52.8948 86.0039 52.6741 86.0039Z" fill="#333A43"/>
<path d="M79.0277 53.6035C78.8632 53.6035 78.6988 53.5386 78.5733 53.4132L53.8014 28.9917C53.5461 28.7407 53.5461 28.3296 53.7971 28.0743C54.048 27.819 54.4591 27.8191 54.7144 28.07L79.4864 52.4915C79.7417 52.7425 79.7417 53.1535 79.4907 53.4088C79.3652 53.5386 79.1964 53.6035 79.0277 53.6035Z" fill="#333A43"/>
<path d="M255.001 67.6104C254.789 67.6104 254.581 67.5065 254.456 67.3161C254.261 67.0132 254.347 66.6108 254.65 66.4161L283.299 47.849C283.598 47.6543 284 47.7409 284.195 48.0437C284.39 48.3423 284.307 48.7447 284.004 48.9394L255.356 67.5065C255.243 67.5758 255.122 67.6104 255.001 67.6104Z" fill="#333A43"/>
<path d="M231.181 41.834C231.051 41.834 230.921 41.7951 230.805 41.7128C230.515 41.5051 230.445 41.0984 230.653 40.8085L250.843 12.4798C251.051 12.1855 251.457 12.1206 251.747 12.3283C252.037 12.536 252.106 12.9427 251.899 13.2327L231.713 41.5614C231.583 41.7388 231.384 41.834 231.181 41.834Z" fill="#333A43"/>
<path d="M67.0243 332.778V344.687L61.291 344.338L60.166 332.778H67.0243Z" fill="white"/>
<path d="M61.8834 343.724L66.3748 343.997V333.427H60.8796L61.8834 343.724ZM67.0239 345.336C67.0109 345.336 66.9979 345.336 66.9849 345.335L61.2517 344.986C60.9358 344.967 60.6762 344.719 60.6459 344.401L59.5166 332.841C59.4993 332.659 59.5598 332.477 59.681 332.342C59.8064 332.206 59.9796 332.129 60.1656 332.129H67.0239C67.3787 332.129 67.6729 332.42 67.6729 332.778V344.687C67.6729 344.866 67.5993 345.037 67.4652 345.16C67.3441 345.273 67.1883 345.336 67.0239 345.336Z" fill="#333A43"/>
<path d="M60.4333 359.539C62.7656 359.785 66.556 359.759 71.0344 359.184C72.9599 358.933 73.9248 355.259 73.2498 353.94C70.2469 348.076 69.8575 344.779 68.4512 340.708L66.8805 343.076L66.0368 341.037C65.8896 340.795 65.6387 340.637 65.3618 340.611L63.1636 340.406C62.705 340.363 62.1555 340.814 62.0733 341.268L60.628 343.076L59.3862 340.804L57.5948 355.588C57.5472 357.821 59.0746 359.392 60.4333 359.539Z" fill="white"/>
<path d="M58.2447 355.635C58.2144 357.573 59.5557 358.789 60.5034 358.889C63.1385 359.174 67.0457 359.04 70.953 358.538C71.5761 358.456 72.0218 357.772 72.2338 357.37C72.8266 356.241 72.9564 354.787 72.6752 354.237C70.5333 350.059 69.7069 347.182 68.9107 344.4C68.6944 343.647 68.4823 342.92 68.253 342.182L67.4222 343.434C67.2924 343.634 67.0587 343.745 66.8207 343.721C66.5828 343.698 66.3751 343.545 66.2842 343.324L65.4621 341.343C65.4231 341.294 65.3626 341.262 65.302 341.256L63.1039 341.051C63.0173 341.042 62.7361 341.242 62.7144 341.38C62.6928 341.487 62.6495 341.588 62.5803 341.673L61.1351 343.481C60.9966 343.651 60.7846 343.738 60.5683 343.722C60.3519 343.703 60.1616 343.576 60.0577 343.386L59.7894 342.894L58.2447 355.635ZM63.6491 360.334C62.4332 360.334 61.3169 360.282 60.3649 360.183C58.6688 360.001 56.8904 358.106 56.9466 355.574C56.9466 355.553 56.9466 355.531 56.9509 355.509L58.7466 340.726C58.7769 340.445 58.9889 340.22 59.2659 340.166C59.5471 340.115 59.824 340.246 59.9582 340.493L60.7284 341.908L61.4812 340.969C61.7106 340.261 62.5111 339.688 63.225 339.759L65.4188 339.964C65.9034 340.009 66.3448 340.285 66.5915 340.702C66.6088 340.73 66.6261 340.758 66.6347 340.787L67.0155 341.701L67.9112 340.348C68.0497 340.143 68.2876 340.033 68.5342 340.063C68.7809 340.094 68.9843 340.262 69.0665 340.495C69.4905 341.722 69.828 342.901 70.1568 344.042C70.94 346.764 71.7492 349.579 73.8305 353.644C74.3973 354.748 74.0469 356.712 73.3848 357.971C72.818 359.053 72.0088 359.711 71.1175 359.823C68.517 360.161 65.9035 360.334 63.6491 360.334Z" fill="#333A43"/>
<path d="M65.2112 357.747C62.0915 357.747 59.9452 357.05 59.8111 357.007C59.4736 356.895 59.2875 356.527 59.4 356.189C59.5125 355.848 59.8804 355.661 60.2179 355.774C60.2655 355.791 64.7352 357.228 70.0358 355.835C70.3776 355.744 70.7367 355.951 70.8276 356.298C70.9184 356.644 70.7108 356.998 70.3646 357.089C68.4954 357.578 66.7386 357.747 65.2112 357.747Z" fill="#333A43"/>
<path d="M67.9409 351.509H62.7096C62.3505 351.509 62.0605 351.218 62.0605 350.86C62.0605 350.501 62.3505 350.211 62.7096 350.211H67.9409C68.3001 350.211 68.59 350.501 68.59 350.86C68.59 351.218 68.3001 351.509 67.9409 351.509Z" fill="#333A43"/>
<path d="M24.8702 326.476L23.1784 341.132L17.8086 340.941V326.476H24.8702Z" fill="white"/>
<path d="M18.4583 340.316L22.6034 340.462L24.1439 327.126H18.4583V340.316ZM23.179 341.781C23.1703 341.781 23.1617 341.781 23.1573 341.781L17.7833 341.59C17.4371 341.578 17.1602 341.291 17.1602 340.942V326.477C17.1602 326.118 17.4501 325.828 17.8092 325.828H24.8708C25.0569 325.828 25.2343 325.907 25.3555 326.045C25.481 326.183 25.5372 326.367 25.5198 326.551L23.8237 341.207C23.7848 341.535 23.5078 341.781 23.179 341.781Z" fill="#333A43"/>
<path d="M24.9357 337.645C24.9357 337.645 25.1477 344.143 24.9357 346.761C24.7799 348.635 22.2617 354.294 20.8424 357.362C20.2583 358.621 19.1462 359.43 17.9087 359.486C16.4029 359.551 14.3044 359.629 12.6168 359.629C10.2932 359.633 8.69226 356.938 9.52304 354.419C10.2889 352.1 11.561 349.547 13.6682 346.408C15.1913 344.132 16.5846 337.392 16.5846 337.392H20.9636L22.2011 341.13L24.9357 337.645Z" fill="white"/>
<path d="M17.1127 338.042C16.745 339.691 15.5463 344.768 14.205 346.769C12.2232 349.726 10.9338 352.222 10.1376 354.623C9.77414 355.731 9.95158 356.981 10.605 357.885C11.1199 358.591 11.8295 358.98 12.6127 358.98H12.617C14.3045 358.98 16.4117 358.902 17.8786 358.837C18.8651 358.794 19.7738 358.123 20.2541 357.089C22.7118 351.78 24.183 347.997 24.2868 346.709C24.4253 345.005 24.382 341.575 24.3344 339.463L22.7118 341.531C22.5603 341.72 22.3224 341.81 22.0888 341.77C21.8508 341.729 21.6604 341.562 21.5825 341.334L20.4921 338.042H17.1127ZM12.6127 360.278C11.4228 360.278 10.3064 359.686 9.55346 358.647C8.64913 357.392 8.40681 355.739 8.90442 354.216C9.73952 351.7 11.0809 349.103 13.1275 346.047C14.5641 343.902 15.9358 337.327 15.9531 337.261C16.0137 336.96 16.2776 336.743 16.5848 336.743H20.9638C21.245 336.743 21.4916 336.923 21.5782 337.189L22.4349 339.778L24.4253 337.245C24.5941 337.03 24.8797 336.944 25.1393 337.029C25.3989 337.113 25.5763 337.352 25.5849 337.624C25.5936 337.891 25.7926 344.19 25.5806 346.814C25.4292 348.68 23.2397 353.727 21.431 357.635C20.7474 359.11 19.4104 360.071 17.9392 360.136C16.455 360.2 14.3305 360.278 12.617 360.278H12.6127Z" fill="#333A43"/>
<path d="M22.2828 349.612L22.2784 349.612L22.2828 349.612ZM12.3912 357.487C12.0364 357.487 11.7465 357.197 11.7422 356.843C11.7422 356.483 12.0278 356.189 12.3869 356.189L16.212 356.155C17.4106 356.159 18.1937 355.488 19.0678 353.684C19.6043 352.583 20.1539 351.321 20.5563 350.401C21.2183 348.874 21.2789 348.758 21.4519 348.613C21.7289 348.384 22.1356 348.423 22.3649 348.698C22.564 348.938 22.5597 349.28 22.3736 349.515C22.2828 349.679 22.0102 350.309 21.7462 350.919C21.3395 351.85 20.7856 353.126 20.2361 354.251C19.4313 355.912 18.3841 357.453 16.2206 357.453H16.2163L12.3999 357.487C12.3956 357.487 12.3956 357.487 12.3912 357.487Z" fill="#333A43"/>
<path d="M18.0601 352.194H13.2701C12.911 352.194 12.6211 351.904 12.6211 351.545C12.6211 351.187 12.911 350.896 13.2701 350.896H18.0601C18.4192 350.896 18.7091 351.187 18.7091 351.545C18.7091 351.904 18.4192 352.194 18.0601 352.194Z" fill="#333A43"/>
<path d="M76.227 213.717C76.227 213.717 75.6559 257.538 73.817 286.065C72.2549 310.228 69.412 329.573 68.5769 334.927C68.4341 335.832 67.7159 336.536 66.8072 336.648C65.3274 336.83 62.9822 336.987 60.6889 336.59C59.8711 336.448 59.222 335.823 59.0446 335.013C57.8893 329.769 53.5753 309.692 53.5753 301.959C53.5753 293.465 55.0984 291.336 55.2715 284.413C55.4013 279.23 53.6618 260.796 52.7834 251.857C52.6666 250.682 51.0354 250.487 50.646 251.602C47.8248 259.706 41.806 277.224 36.1722 295.204C35.8867 296.126 34.4544 303.983 34.1731 304.891C30.612 316.349 26.8086 327.262 25.6057 332.724C25.4586 333.397 24.9393 333.926 24.2643 334.068C22.7153 334.396 19.8292 334.77 17.207 333.817C16.5234 333.567 16.082 332.897 16.082 332.167C16.108 326.598 16.2465 302.394 16.7484 298.684C17.8085 290.905 23.8836 283.246 24.974 274.983C26.0644 266.722 26.7005 245.985 29.7034 233.548C32.7106 221.11 38.604 207.137 38.604 207.137L76.227 213.717Z" fill="#FB9946"/>
<path d="M51.6721 250.214C51.7456 250.214 51.8192 250.218 51.8927 250.227C52.7278 250.326 53.3466 250.956 53.4288 251.794C54.4154 261.789 56.0466 279.319 55.9211 284.43C55.8389 287.62 55.4842 289.763 55.1077 292.032C54.675 294.66 54.225 297.378 54.225 301.96C54.225 309.555 58.4005 329.073 59.6813 334.874C59.8024 335.432 60.2438 335.855 60.802 335.952C62.9828 336.331 65.2285 336.189 66.73 336.005C67.3444 335.929 67.842 335.446 67.9372 334.829C68.768 329.476 71.6108 310.137 73.1685 286.024C74.8777 259.564 75.4964 219.434 75.57 214.262L39.007 207.868C37.9556 210.419 32.9839 222.738 30.3358 233.702C28.3064 242.104 27.3717 254.21 26.6232 263.937C26.2727 268.481 25.9698 272.405 25.6193 275.069C25.0482 279.371 23.1659 283.502 21.3443 287.496C19.5745 291.38 17.9 295.047 17.3938 298.772C16.8918 302.474 16.7577 327.243 16.7317 332.171C16.7317 332.639 17.0129 333.055 17.4326 333.208C19.9163 334.113 22.6943 333.739 24.1308 333.434C24.5506 333.346 24.8794 333.013 24.9746 332.586C25.7838 328.914 27.7482 322.831 30.0198 315.787C31.1752 312.212 32.3694 308.515 33.555 304.699C33.6848 304.283 34.1305 302.004 34.5242 299.992C35.0521 297.285 35.4113 295.476 35.5541 295.011C41.1142 277.261 47.0119 260.062 50.0321 251.39C50.2874 250.666 50.9278 250.214 51.6721 250.214ZM63.7876 337.488C62.7664 337.488 61.6674 337.419 60.577 337.231C59.4996 337.043 58.6472 336.228 58.4135 335.154C57.1241 329.32 52.9269 309.686 52.9269 301.96C52.9269 297.271 53.3856 294.5 53.8269 291.82C54.1947 289.597 54.5451 287.497 54.623 284.398C54.7528 279.168 52.9269 259.944 52.135 251.922C52.1047 251.585 51.8235 251.526 51.7413 251.516C51.6547 251.505 51.3692 251.499 51.261 251.816C48.2408 260.482 42.3474 277.666 36.7959 295.399C36.6574 295.83 36.1988 298.173 35.7964 300.24C35.2641 302.954 34.9353 304.634 34.7925 305.085C33.6069 308.907 32.4126 312.607 31.2573 316.186C28.99 323.198 27.0386 329.254 26.2424 332.865C26.0391 333.788 25.3164 334.51 24.3991 334.705C22.8284 335.037 19.7779 335.443 16.987 334.428C16.0524 334.089 15.4293 333.179 15.4336 332.165C15.4682 325.223 15.6067 302.284 16.1086 298.597C16.6408 294.683 18.4322 290.755 20.163 286.958C21.9458 283.05 23.789 279.009 24.3299 274.9C24.6804 272.271 24.9789 268.363 25.3294 263.837C26.0823 254.064 27.0169 241.9 29.0722 233.397C32.0578 221.051 37.9469 207.027 38.0074 206.886C38.1243 206.608 38.4185 206.445 38.7171 206.499L76.3402 213.079C76.6517 213.134 76.8811 213.408 76.8767 213.727C76.8724 214.165 76.2839 257.89 74.4622 286.108C72.9045 310.275 70.0531 329.662 69.218 335.028C69.0362 336.215 68.0756 337.146 66.89 337.293C66.0419 337.397 64.9646 337.488 63.7876 337.488Z" fill="#333A43"/>
<path d="M48.2704 133.311C49.8281 131.922 51.5546 129.923 56.2537 128.863C60.4941 127.911 64.2672 129.975 64.8989 135.288C65.4138 139.627 61.208 141.796 59.5941 144.485C54.3671 153.183 62.3503 159.939 58.5772 168.332C54.9858 176.327 46.4877 172.98 37.9679 183.024C31.261 190.931 37.2885 192.312 28.4874 200.994C21.4604 207.921 17.7695 205 11.279 201.754C-0.0100766 196.111 -3.06494 180.04 3.94909 171.64C10.2492 164.091 9.16312 169.652 16.0387 162.379C22.8147 155.209 12.7545 151.564 22.3128 145.287C29.647 140.473 35.2072 143.007 37.838 142.253C43.2598 140.699 43.4458 137.616 48.2704 133.311Z" fill="#333A43"/>
<path d="M142.715 168.111L136.701 170.134C134.801 170.772 133.326 172.281 132.724 174.191L131.244 178.906C129.163 180.293 127.09 181.419 125.035 182.326C125.407 183.126 125.779 183.928 126.13 184.737C126.701 186.051 127.251 187.376 127.796 188.701C130.574 185.939 132.456 183.42 133.395 182.053C133.845 181.402 134.537 180.982 135.316 180.831C139.907 179.937 139.544 175.74 139.275 174.657C138.985 173.485 140.223 173.006 142.919 171.234C143.581 170.8 144.009 170.374 144.277 169.972C144.974 168.937 143.866 167.633 142.715 168.111Z" fill="white"/>
<path d="M142.715 168.112H142.719H142.715ZM125.9 182.647C126.199 183.297 126.467 183.883 126.727 184.478C127.177 185.514 127.61 186.549 128.025 187.548C130.426 185.06 132.066 182.841 132.863 181.686C133.395 180.913 134.221 180.383 135.19 180.194C136.545 179.931 137.527 179.331 138.115 178.412C138.925 177.144 138.816 175.503 138.643 174.813C138.293 173.402 139.405 172.701 141.24 171.541C141.633 171.293 142.075 171.014 142.564 170.692C143.1 170.34 143.494 169.977 143.741 169.61C143.966 169.274 143.767 168.982 143.697 168.901C143.554 168.722 143.282 168.579 142.962 168.711C142.949 168.717 142.936 168.722 142.923 168.727L136.908 170.75C135.212 171.32 133.879 172.68 133.343 174.386L131.863 179.101C131.815 179.243 131.725 179.365 131.603 179.447C129.76 180.675 127.843 181.75 125.9 182.647ZM127.796 189.351C127.757 189.351 127.713 189.346 127.67 189.338C127.458 189.295 127.281 189.149 127.198 188.949C126.675 187.684 126.121 186.338 125.537 184.996C125.208 184.238 124.862 183.49 124.447 182.601C124.373 182.443 124.364 182.262 124.425 182.098C124.485 181.935 124.611 181.803 124.771 181.732C126.787 180.842 128.778 179.752 130.69 178.492L132.105 173.997C132.763 171.895 134.407 170.221 136.493 169.519L142.49 167.503C143.273 167.188 144.16 167.416 144.705 168.078C145.246 168.741 145.294 169.627 144.818 170.334C144.476 170.844 143.957 171.33 143.278 171.777C142.78 172.104 142.33 172.387 141.932 172.638C140.188 173.741 139.79 174.045 139.902 174.501C140.136 175.443 140.253 177.475 139.21 179.11C138.423 180.341 137.155 181.135 135.441 181.469C134.805 181.592 134.269 181.931 133.931 182.422C133.036 183.721 131.11 186.324 128.254 189.161C128.133 189.284 127.969 189.351 127.796 189.351Z" fill="#333A43"/>
<path d="M129.378 181.182L131.486 184.433C131.966 185.171 132.044 186.098 131.698 186.906C130.157 190.497 124.952 200.328 112.901 204.239C98.0294 209.066 81.9373 197.676 81.9373 197.676C81.9373 197.676 83.7849 231.833 78.2464 236.265C67.8876 244.552 32.2766 240.57 28.5987 230.09C24.5746 218.613 35.4483 166.866 50.1471 161.027C59.9001 157.152 80.2758 158.003 87.7355 167.891C90.4442 171.482 95.6885 185.831 106.939 186.014C115.021 186.146 122.325 182.45 125.8 180.356C127.02 179.62 128.604 179.986 129.378 181.182Z" fill="white"/>
<path d="M63.4415 159.497C58.5174 159.497 53.8399 160.258 50.387 161.63C44.1994 164.087 37.6959 176.043 32.9795 193.612C28.9079 208.793 27.2896 224.382 29.2151 229.874C30.3011 232.97 34.6194 235.743 41.3782 237.68C53.2384 241.081 71.1306 241.128 77.8417 235.757C82.173 232.293 81.8008 207.118 81.2903 197.71L81.2211 196.371L82.3157 197.146C82.4715 197.258 98.3213 208.291 112.704 203.621C124.357 199.838 129.454 190.492 131.102 186.65C131.366 186.041 131.306 185.344 130.942 184.785L128.835 181.535C128.247 180.628 127.061 180.354 126.139 180.912C122.479 183.117 115.11 186.796 106.932 186.663C97.5597 186.51 92.2808 177.087 89.1307 171.457C88.3821 170.12 87.7331 168.965 87.2182 168.281C82.5667 162.11 72.5757 159.497 63.4415 159.497ZM59.3092 241.372C53.0611 241.372 46.4927 240.497 41.0191 238.928C33.8493 236.871 29.2194 233.808 27.9905 230.304C23.9794 218.872 34.6454 166.487 49.9066 160.423C60.1356 156.359 80.7451 157.541 88.2567 167.499C88.8235 168.253 89.4596 169.388 90.2644 170.824C93.2803 176.21 98.3256 185.224 106.954 185.365C114.824 185.511 121.929 181.933 125.469 179.8C126.996 178.88 128.956 179.331 129.926 180.829L132.033 184.079C132.63 185.002 132.729 186.154 132.297 187.162C130.579 191.167 125.265 200.909 113.107 204.856C100.152 209.06 86.5605 201.404 82.6533 198.926C82.9691 205.813 83.8561 232.61 78.6551 236.771C74.6656 239.961 67.2492 241.372 59.3092 241.372Z" fill="#333A43"/>
<path d="M91.7819 208.147L61.2031 208.499L71.8345 170.571H105.793L91.7819 208.147Z" fill="#333A43"/>
<path d="M71.4457 188.976C72.2592 189.877 70.6582 191.125 70.0178 192.148C69.6241 192.776 70.1173 193.223 70.801 192.937C72.7784 192.107 79.2949 189.238 80.7314 191.029C81.2377 191.657 80.9001 192.976 79.892 194.209C77.7804 196.79 71.2726 199.928 67.625 200.767C65.4615 201.265 61.9436 203.262 61.5672 203.16C59.9662 202.727 59.3605 199.502 59.8105 198.873C59.9186 198.72 62.7268 196.888 65.8293 192.416C67.4432 190.086 70.6928 188.144 71.4457 188.976Z" fill="white"/>
<path d="M70.9997 189.44H71.0041H70.9997ZM60.3294 199.28C60.2645 199.533 60.3164 200.548 60.7794 201.507C61.0217 202.017 61.3246 202.363 61.6318 202.497C61.9044 202.407 62.5795 202.095 63.1333 201.839C64.4877 201.214 66.1709 200.436 67.4776 200.135C71.2075 199.278 77.434 196.186 79.3854 193.798C80.2898 192.697 80.4542 191.719 80.2249 191.436C79.8311 190.941 78.1522 190.538 71.3675 193.403L71.0517 193.536C70.4502 193.788 69.8314 193.687 69.4853 193.276C69.2213 192.969 69.0829 192.421 69.468 191.803C69.6627 191.494 69.9223 191.181 70.1733 190.879C70.7098 190.23 71.1426 189.672 70.9825 189.433C70.4503 189.269 67.8843 190.592 66.3612 192.785C63.6785 196.65 61.2468 198.562 60.4463 199.19C60.3987 199.226 60.3597 199.256 60.3294 199.28ZM61.6015 203.814C61.528 203.814 61.4631 203.805 61.3982 203.787C60.5371 203.554 59.8188 202.748 59.3775 201.517C59.0183 200.504 58.8323 199.127 59.2823 198.496C59.3515 198.397 59.425 198.339 59.6414 198.169C60.4073 197.571 62.7266 195.75 65.2925 192.046C66.6685 190.062 69.23 188.236 70.7704 188.136C71.3805 188.097 71.7396 188.334 71.9257 188.541C72.9036 189.618 71.8608 190.875 71.1728 191.707C71.0127 191.902 70.857 192.089 70.7272 192.264L70.8613 192.207C75.1623 190.39 79.7619 188.783 81.2374 190.623C81.9557 191.517 81.6182 193.123 80.3937 194.621C78.2258 197.266 71.718 200.493 67.7675 201.4C66.5906 201.671 64.9074 202.449 63.6785 203.017C62.415 203.602 61.9391 203.814 61.6015 203.814Z" fill="#333A43"/>
<path d="M65.0809 203.035L60.6674 195.708C60.6674 195.708 51.6716 200.86 46.6739 198.664C37.9421 194.828 39.5949 181.425 41.0791 174.753C42.5633 168.082 49.573 162.379 49.573 162.379C49.573 162.379 36.2978 166.317 30.002 176.814C24.1606 186.549 20.4481 210.809 38.6387 214.839C50.5423 217.475 65.0809 203.035 65.0809 203.035Z" fill="white"/>
<path d="M41.7932 215.821C40.6811 215.821 39.5821 215.712 38.5003 215.473C36.0296 214.925 33.8445 214.017 32.0013 212.772C31.7027 212.571 31.6248 212.168 31.8282 211.871C32.0272 211.573 32.4339 211.496 32.7281 211.696C34.433 212.85 36.471 213.693 38.7816 214.205C48.4221 216.339 60.4425 206.935 63.8997 204.001C64.3627 203.606 64.4622 202.919 64.1334 202.403L61.1694 197.647C60.8535 197.154 60.2218 196.954 59.6723 197.182L59.5425 197.236C56.5785 198.462 50.4039 201.013 46.4144 199.258C37.9249 195.53 38.7773 183.468 40.0407 176.611C40.1056 176.258 40.4475 176.026 40.7936 176.09C41.1485 176.155 41.3821 176.493 41.3172 176.846C40.1229 183.326 39.2662 194.701 46.9336 198.07C50.4212 199.601 56.2453 197.193 59.0492 196.036L59.179 195.982C60.304 195.515 61.6065 195.924 62.2642 196.953L65.2281 201.709C65.9075 202.762 65.6954 204.177 64.7392 204.991C60.6588 208.454 50.9058 215.821 41.7932 215.821Z" fill="#333A43"/>
<path d="M53.2855 146.132C53.6013 146.159 53.8739 145.917 53.8566 145.6C53.7701 144.106 53.4325 141.288 54.921 140.106C56.8292 138.594 59.9966 136.305 61.1 137.858C62.0649 139.219 62.9779 141.928 65.4226 143.042C65.6563 143.149 65.6606 143.495 65.5437 143.723L64.9553 145.02C64.8212 145.277 64.8947 145.89 64.9943 146.163C65.2971 147.006 66.0111 148.768 65.838 149.122C65.5005 149.811 62.7096 150.931 62.7096 150.931L64.0899 159.438C64.1418 159.76 64.3279 160.301 64.6481 160.238L67.4044 160.582C67.7202 160.622 67.9236 160.941 67.8284 161.247C67.4303 162.512 65.9246 165.406 60.386 166.106C54.1119 166.898 51.4897 165.136 50.4469 163.895C50.0618 163.434 50.2739 162.726 50.8493 162.546C53.1946 161.808 58.4735 159.222 55.7562 151.292C55.6826 151.071 55.4922 150.907 55.2629 150.861C54.3931 150.684 51.983 150.083 51.5979 148.495C51.1955 146.817 52.221 146.039 53.2855 146.132Z" fill="white"/>
<path d="M53.1114 146.773C52.8085 146.773 52.5488 146.88 52.3801 147.074C52.1464 147.346 52.0945 147.785 52.2286 148.343C52.4277 149.159 53.6089 149.862 55.3916 150.225C55.846 150.317 56.2181 150.646 56.3695 151.082C57.434 154.19 57.4253 156.849 56.3479 158.984C55.0325 161.583 52.458 162.719 51.043 163.165C50.9522 163.193 50.9176 163.264 50.9089 163.303C50.8959 163.348 50.8916 163.414 50.9435 163.477C51.8435 164.547 54.258 166.229 60.3028 165.462C65.2658 164.835 66.7327 162.386 67.1567 161.205L64.6384 160.891C64.4393 160.901 64.2403 160.842 64.0716 160.725C63.6345 160.42 63.4874 159.796 63.4485 159.541L62.0682 151.036C62.0206 150.736 62.185 150.443 62.4663 150.33C63.6821 149.841 64.9024 149.195 65.2096 148.884C65.1577 148.47 64.7379 147.34 64.5518 146.837C64.4869 146.669 64.4307 146.515 64.3831 146.383C64.2706 146.074 64.1148 145.226 64.3788 144.721L64.9196 143.521C63.0417 142.563 62.0249 140.747 61.272 139.407C61.0254 138.965 60.7917 138.548 60.5667 138.234C60.4715 138.095 60.3504 138.025 60.1687 137.999C59.5672 137.916 58.2431 138.299 55.3224 140.615C54.232 141.481 54.3835 143.769 54.4744 145.135L54.5003 145.564C54.5219 145.895 54.3964 146.219 54.1585 146.451C53.9118 146.689 53.5743 146.81 53.2282 146.778C53.1892 146.775 53.1503 146.773 53.1114 146.773ZM57.408 166.955C53.1632 166.956 51.0257 165.589 49.9483 164.312C49.6324 163.932 49.5242 163.419 49.6627 162.94C49.8012 162.457 50.1733 162.078 50.6536 161.927C51.8738 161.542 54.0893 160.572 55.1883 158.399C56.1056 156.588 56.0883 154.268 55.1406 151.503C53.769 151.219 51.4109 150.48 50.9695 148.648C50.7359 147.68 50.8872 146.82 51.3978 146.228C51.8305 145.723 52.4709 145.454 53.1935 145.476L53.1806 145.221C53.0724 143.6 52.8907 140.887 54.5176 139.598C57.2653 137.42 59.0652 136.527 60.3503 136.714C60.8826 136.789 61.3239 137.055 61.6268 137.482C61.8908 137.851 62.1417 138.299 62.4057 138.772C63.1369 140.079 64.0499 141.705 65.6899 142.451C65.9322 142.562 66.1139 142.766 66.2048 143.026C66.313 143.338 66.2783 143.71 66.1182 144.022L65.5427 145.289C65.5081 145.405 65.5427 145.778 65.6033 145.942C65.6509 146.07 65.7072 146.22 65.7678 146.382C66.4601 148.24 66.6505 148.937 66.4211 149.407C66.0836 150.098 64.5649 150.852 63.4312 151.335L64.7293 159.334C64.7466 159.437 64.7769 159.535 64.8028 159.604L67.4812 159.938C67.8274 159.981 68.1302 160.172 68.3163 160.462C68.5024 160.753 68.55 161.111 68.4461 161.442C68.0221 162.788 66.3995 166 60.4628 166.75C59.3421 166.892 58.3253 166.955 57.408 166.955Z" fill="#333A43"/>
<path d="M238.228 142.475C238.228 142.475 249.479 155.024 275.41 161.351L277.331 179.77C277.331 179.77 243.564 171.429 228.709 151.995L238.228 142.475Z" fill="white"/>
<path d="M229.577 152.05C242.926 169.023 271.189 177.423 276.589 178.901L274.815 161.872C252.181 156.251 240.628 145.784 238.226 143.4L229.577 152.05ZM277.334 180.419C277.282 180.419 277.23 180.413 277.178 180.4C276.836 180.316 243.016 171.781 228.196 152.389C227.997 152.13 228.023 151.766 228.253 151.536L237.772 142.017C237.898 141.89 238.066 141.824 238.248 141.827C238.425 141.832 238.594 141.909 238.715 142.042C238.824 142.166 250.16 154.522 275.564 160.721C275.832 160.786 276.031 161.011 276.057 161.284L277.978 179.703C278 179.913 277.918 180.121 277.758 180.26C277.637 180.364 277.485 180.419 277.334 180.419Z" fill="#333A43"/>
<path d="M271.916 159.537L275.278 181.61L287.316 182.849C287.316 182.849 294.33 192.336 298.882 214.077C298.882 214.077 300.89 215.242 304.295 215.615C311.002 216.348 316.423 213.299 318.115 212.397C323.057 209.765 331.97 207.191 349.421 207.962C348.971 199.782 346.768 170.846 332.559 155.035C328.002 149.968 324.247 148.508 323.1 148.101C313.875 144.825 303.494 149.257 295.217 152.793C290.453 154.828 286.489 157.103 279.315 158.551C276.252 159.17 273.668 159.422 271.916 159.537Z" fill="#333A43"/>
<path d="M310.668 178.37C310.538 178.37 310.408 178.332 310.296 178.254L308.188 176.783C308.046 176.684 307.95 176.532 307.92 176.361C307.89 176.19 307.929 176.014 308.033 175.873C311.235 171.406 312.788 166.293 313.783 162.337C313.874 161.99 314.225 161.777 314.571 161.867C314.921 161.954 315.129 162.307 315.042 162.655C314.056 166.565 312.537 171.582 309.465 176.091L311.036 177.189C311.33 177.394 311.403 177.799 311.2 178.092C311.07 178.273 310.871 178.37 310.668 178.37Z" fill="#FFF4E9"/>
<path d="M330.468 190.155C330.377 190.155 330.291 190.137 330.204 190.099L328.158 189.182C327.829 189.035 327.686 188.651 327.829 188.324C327.976 187.997 328.361 187.851 328.69 187.997L330.273 188.707C334.635 182.966 334.548 174.447 334.548 174.359C334.544 174.001 334.83 173.706 335.185 173.7C335.189 173.7 335.193 173.7 335.198 173.7C335.552 173.7 335.838 173.983 335.847 174.338C335.851 174.721 335.946 183.806 330.97 189.916C330.845 190.071 330.658 190.155 330.468 190.155Z" fill="#FFF4E9"/>
<path d="M199.546 210.651L231.029 209.018C231.029 209.018 231.799 209.006 233.132 208.98L239.614 208.649C240.769 208.405 242.05 207.975 242.556 207.415C243.694 206.153 243.309 204.824 243.283 204.289C243.223 203.165 242.699 202.113 241.816 201.391C238.364 198.553 236.165 194.257 236.252 189.4C236.386 181.694 242.483 175.216 250.297 174.455C259.202 173.591 266.93 180.192 267.38 188.86C267.61 193.277 265.9 197.36 262.988 200.305C262.192 201.114 261.777 202.228 261.833 203.353C261.95 205.6 263.901 207.349 266.19 207.232L266.736 207.204V207.171L271.833 206.907C271.854 206.904 271.988 206.895 272.01 206.892L289.569 205.807C289.79 205.59 289.92 205.29 289.907 204.961L285.385 116.444L252.106 118.144C250.163 117.763 248.683 116.05 248.779 113.964C248.826 112.956 249.285 112 249.999 111.273C253.123 108.084 254.841 103.588 254.239 98.7723C253.305 91.291 246.788 85.5361 239.108 85.4106C229.987 85.2592 222.778 92.6973 223.228 101.485C223.453 105.903 225.569 109.784 228.766 112.415C229.645 113.138 230.173 114.189 230.229 115.314C230.328 117.214 229.082 118.871 227.308 119.412L194.029 121.113L195.609 152.004L195.635 152.003L195.665 152.634C195.76 154.451 197.006 156.07 198.806 156.502C200.381 156.878 201.987 156.34 202.986 155.174C205.954 151.698 210.48 149.517 215.573 149.706C223.141 149.985 229.476 155.725 230.372 163.101C231.458 171.989 224.647 179.783 215.69 180.241C211.164 180.472 206.989 178.78 203.99 175.893C203.648 175.564 203.263 175.275 202.813 175.11C199.702 173.964 196.872 176.268 197.019 179.095L197.058 179.85L197.032 179.852L198.612 210.744L199.546 210.696V210.651Z" fill="#FB9946"/>
<path d="M197.69 179.996L199.226 210.062L199.278 210.06C199.351 210.026 199.429 210.006 199.512 210.002L230.995 208.369C231.021 208.368 231.791 208.357 233.119 208.331L239.527 208.003C240.752 207.741 241.747 207.341 242.072 206.98C242.846 206.121 242.738 205.234 242.669 204.648C242.652 204.522 242.639 204.413 242.634 204.323C242.587 203.379 242.137 202.493 241.405 201.892C237.632 198.795 235.516 194.238 235.603 189.389C235.741 181.305 242.033 174.607 250.237 173.809C254.758 173.368 259.124 174.743 262.53 177.676C265.848 180.534 267.8 184.494 268.025 188.826C268.254 193.238 266.588 197.589 263.451 200.762C262.785 201.435 262.43 202.367 262.482 203.319C262.582 205.218 264.217 206.671 266.16 206.583L266.51 206.565C266.571 206.541 266.636 206.526 266.701 206.523L271.789 206.259C271.815 206.256 271.85 206.253 271.88 206.252L271.941 206.247L289.227 205.177C289.249 205.125 289.262 205.064 289.257 204.994L284.766 117.127L252.136 118.793C252.084 118.793 252.032 118.793 251.981 118.78C249.64 118.326 248.021 116.288 248.13 113.934C248.181 112.796 248.683 111.688 249.536 110.818C252.664 107.621 254.144 103.259 253.594 98.85C252.699 91.6802 246.468 86.1806 239.095 86.0595C234.833 85.9902 230.878 87.6128 227.957 90.6374C225.119 93.5754 223.669 97.4178 223.877 101.451C224.08 105.496 226.014 109.308 229.182 111.913C230.194 112.744 230.813 113.973 230.878 115.28C230.99 117.439 229.597 119.394 227.498 120.031C227.447 120.048 227.395 120.057 227.343 120.061L194.713 121.727L196.249 151.799C196.266 151.853 196.279 151.91 196.284 151.97L196.314 152.601C196.396 154.172 197.482 155.517 198.958 155.87C200.277 156.186 201.632 155.757 202.493 154.752C205.747 150.945 210.528 148.873 215.599 149.057C223.453 149.347 230.082 155.351 231.016 163.022C231.553 167.417 230.272 171.708 227.416 175.107C224.521 178.55 220.259 180.657 215.725 180.888C211.212 181.12 206.768 179.469 203.54 176.36C203.211 176.042 202.9 175.833 202.588 175.718C201.342 175.261 200.057 175.415 199.066 176.146C198.131 176.833 197.608 177.924 197.664 179.063L197.703 179.817C197.707 179.878 197.703 179.938 197.69 179.996ZM198.612 211.393C198.265 211.393 197.98 211.123 197.963 210.777L196.383 179.884C196.379 179.823 196.388 179.763 196.4 179.706L196.37 179.128C196.288 177.553 197.011 176.048 198.296 175.1C199.646 174.107 201.372 173.889 203.038 174.501C203.518 174.678 203.977 174.981 204.44 175.425C207.408 178.286 211.493 179.804 215.66 179.592C219.835 179.379 223.76 177.44 226.421 174.271C229.048 171.151 230.22 167.212 229.731 163.18C228.87 156.134 222.773 150.621 215.552 150.354C210.87 150.18 206.474 152.092 203.479 155.595C202.298 156.974 200.451 157.561 198.655 157.133C196.621 156.646 195.128 154.81 195.016 152.667L194.994 152.208C194.977 152.154 194.964 152.097 194.96 152.037L193.385 121.143C193.372 120.974 193.432 120.805 193.549 120.675C193.666 120.55 193.826 120.472 193.999 120.463L227.191 118.767C228.68 118.278 229.662 116.885 229.584 115.349C229.536 114.401 229.087 113.514 228.355 112.913C224.911 110.083 222.804 105.929 222.579 101.52C222.354 97.1192 223.933 92.935 227.022 89.7374C230.194 86.4532 234.495 84.6662 239.116 84.7614C247.13 84.8912 253.91 90.8797 254.884 98.6899C255.481 103.497 253.871 108.248 250.462 111.727C249.834 112.368 249.467 113.177 249.428 113.994C249.35 115.673 250.492 117.131 252.154 117.491L285.35 115.794C285.705 115.786 286.012 116.054 286.029 116.413L290.551 204.928C290.577 205.425 290.387 205.915 290.023 206.271C289.911 206.379 289.764 206.445 289.608 206.454L272.058 207.539C272.036 207.541 272.01 207.544 271.98 207.546L271.906 207.551L266.956 207.809C266.896 207.834 266.835 207.849 266.77 207.852L266.225 207.879C263.594 208.018 261.322 205.999 261.184 203.386C261.119 202.071 261.608 200.781 262.53 199.849C265.407 196.935 266.939 192.942 266.731 188.893C266.523 184.919 264.732 181.284 261.686 178.659C258.549 175.96 254.529 174.694 250.362 175.101C242.816 175.835 237.027 181.987 236.901 189.412C236.823 193.861 238.766 198.045 242.232 200.889C243.244 201.721 243.863 202.948 243.932 204.255C243.937 204.32 243.945 204.399 243.958 204.49C244.041 205.159 244.209 206.551 243.037 207.85C242.318 208.647 240.665 209.09 239.748 209.284C239.714 209.291 239.679 209.296 239.649 209.297L233.162 209.628C231.808 209.655 231.038 209.667 231.038 209.667L199.819 211.286C199.745 211.32 199.663 211.34 199.581 211.344L198.642 211.392C198.633 211.392 198.62 211.393 198.612 211.393Z" fill="#333A43"/>
<path d="M270.733 197.493C270.733 197.493 306.737 205.217 310.489 178.678L328.087 189.639C328.087 189.639 313.734 228.1 269.85 204.342C269.85 204.342 259.785 204.982 257.903 203.705C256.025 202.428 252.308 196.66 252.845 195.788L252.057 192.919C251.967 192.594 251.997 192.248 252.14 191.942C252.499 191.165 253.49 190.927 254.165 191.457L261.534 197.254L262.269 197.251C263.372 197.246 264.186 196.223 263.948 195.147L262.901 190.472C262.788 189.965 263.173 189.483 263.693 189.483L270.733 197.493Z" fill="white"/>
<path d="M253.4 196.126C253.4 196.126 253.4 196.126 253.4 196.126C253.4 196.126 253.4 196.126 253.4 196.126ZM269.851 203.692C269.959 203.692 270.067 203.719 270.162 203.77C284.42 211.491 296.998 213.398 307.552 209.442C320.373 204.635 326.171 192.487 327.279 189.9L310.979 179.746C309.897 185.88 306.968 190.649 302.269 193.932C290.365 202.243 271.396 198.299 270.595 198.127C270.461 198.098 270.335 198.026 270.245 197.921L263.534 190.282C263.529 190.297 263.533 190.313 263.538 190.33L264.581 195.005C264.736 195.711 264.572 196.44 264.118 197.005C263.668 197.57 262.997 197.896 262.27 197.899L261.539 197.903H261.534C261.392 197.903 261.249 197.853 261.136 197.763L253.763 191.967C253.599 191.838 253.387 191.792 253.188 191.84C252.984 191.889 252.816 192.025 252.729 192.215C252.651 192.381 252.634 192.57 252.681 192.747L253.469 195.615C253.512 195.759 253.499 195.91 253.443 196.045C253.439 197.015 256.493 201.961 258.268 203.167C259.505 204.007 266.004 203.935 269.812 203.693C269.825 203.693 269.838 203.692 269.851 203.692ZM296.176 212.745C288.137 212.746 279.284 210.159 269.708 205C267.627 205.127 259.44 205.532 257.541 204.241C255.909 203.134 252.002 197.732 252.179 195.817L251.431 193.091C251.301 192.618 251.344 192.113 251.552 191.668C251.807 191.117 252.292 190.72 252.885 190.578C253.478 190.438 254.088 190.571 254.568 190.946L261.759 196.604L262.266 196.601C262.595 196.6 262.902 196.452 263.105 196.195C263.308 195.939 263.386 195.609 263.313 195.288L262.27 190.613C262.17 190.178 262.274 189.729 262.556 189.381C262.832 189.034 263.248 188.834 263.694 188.834C263.88 188.834 264.057 188.914 264.183 189.054L271.075 196.899C273.178 197.306 290.737 200.404 301.529 192.866C306.167 189.625 308.967 184.821 309.845 178.587C309.88 178.369 310.018 178.182 310.213 178.089C310.416 177.997 310.646 178.01 310.832 178.127L328.429 189.088C328.693 189.251 328.802 189.576 328.693 189.866C328.637 190.018 322.869 205.085 308.006 210.657C304.294 212.05 300.343 212.745 296.176 212.745Z" fill="#333A43"/>
<path d="M311.334 131.986L313.005 144.783C313.208 146.098 314.203 147.155 315.514 147.448L317.081 147.799C317.838 147.969 317.95 148.531 317.574 149.212C315.904 152.221 313.476 153.607 300.244 153.745L298.025 153.566C297.129 153.493 296.861 152.312 297.635 151.861L299.755 150.627C302.46 149.657 302.222 145.513 302.412 144.222L302.46 130L311.334 131.986Z" fill="white"/>
<path d="M300.035 151.217L297.962 152.422C297.815 152.508 297.819 152.64 297.837 152.712C297.854 152.783 297.906 152.905 298.075 152.919L300.264 153.096C313.782 152.953 315.608 151.414 317.005 148.897C317.135 148.666 317.139 148.536 317.131 148.506C317.131 148.506 317.079 148.465 316.936 148.433L315.37 148.082C313.79 147.728 312.609 146.473 312.358 144.883L310.748 132.523L303.103 130.81L303.059 144.224C303.059 144.256 303.055 144.287 303.051 144.318C303.025 144.506 303.003 144.788 302.982 145.114C302.86 146.908 302.631 150.236 300.035 151.217ZM300.242 154.395C300.225 154.395 300.204 154.394 300.186 154.392L297.971 154.213C297.274 154.156 296.725 153.68 296.569 152.999C296.418 152.318 296.707 151.652 297.309 151.301L299.429 150.067C299.464 150.047 299.498 150.03 299.537 150.017C301.394 149.35 301.575 146.643 301.688 145.026C301.709 144.696 301.731 144.407 301.761 144.176L301.809 130.001C301.809 129.802 301.9 129.616 302.051 129.494C302.207 129.373 302.406 129.326 302.601 129.369L311.475 131.355C311.739 131.416 311.938 131.632 311.973 131.905L313.643 144.7C313.808 145.742 314.595 146.578 315.655 146.815L317.217 147.166C317.892 147.316 318.187 147.69 318.316 147.976C318.455 148.287 318.537 148.809 318.139 149.527C316.209 153.001 313.219 154.259 300.247 154.395H300.242Z" fill="#333A43"/>
<path d="M294.212 116.878C297.02 116.138 294.03 119.759 303.93 114.58C307.872 112.52 306.73 117.786 307.755 117.254C311.537 115.285 312.576 114.792 314.64 114.9C316.003 114.974 319.261 116.955 319.183 118.773C318.919 124.714 316.08 123.732 315.353 129.015C314.839 132.723 314.068 133.978 312.77 134.77C311.455 135.57 310.027 133.9 308.525 134.666C306.578 135.657 307.699 139.104 305.986 140.976C304.908 142.156 302.052 143.183 296.882 141.874C296.042 141.662 295.475 140.883 295.54 140.023C295.618 138.921 295.726 137.529 295.943 136.206C296.964 129.91 298.803 128.158 297.734 126.799C296.098 124.714 291.927 126.951 290.807 125.194C289.647 123.368 290.361 117.894 294.212 116.878Z" fill="#333A43"/>
<path d="M306.163 124.929L305.652 126.599C305.41 127.382 305.224 128.183 305.094 128.992C304.852 130.515 304.333 133.107 304.06 134.569C303.177 139.271 296.817 135.599 296.817 135.599L296.202 134.478L295.415 134.336C295.263 134.305 295.116 134.249 294.999 134.149C294.705 133.899 294.627 133.505 294.766 133.176C295.532 131.372 297.076 127.352 297.245 123.99C297.245 123.99 301.637 121.865 306.163 124.929Z" fill="white"/>
<path d="M297.296 135.123C298.343 135.69 300.883 136.77 302.32 136.105C302.899 135.841 303.259 135.296 303.419 134.452C303.497 134.05 303.592 133.561 303.691 133.033C303.955 131.674 304.28 129.983 304.453 128.892C304.587 128.053 304.782 127.218 305.028 126.408L305.396 125.21C302.043 123.168 298.888 124.05 297.863 124.435C297.603 127.728 296.201 131.454 295.362 133.427C295.336 133.487 295.336 133.583 295.418 133.652C295.435 133.669 295.474 133.686 295.535 133.695L296.318 133.842C296.509 133.877 296.673 133.998 296.768 134.167L297.296 135.123ZM301.234 137.608C299.031 137.608 296.617 136.235 296.491 136.161C296.387 136.101 296.305 136.014 296.249 135.91L295.777 135.062L295.297 134.972C295.02 134.92 294.773 134.807 294.579 134.643C294.077 134.219 293.912 133.526 294.168 132.921C294.843 131.328 296.431 127.265 296.595 123.959C296.608 123.721 296.747 123.509 296.963 123.406C297.153 123.315 301.744 121.155 306.526 124.392C306.759 124.552 306.863 124.846 306.781 125.119L306.27 126.785C306.041 127.542 305.859 128.317 305.734 129.095C305.556 130.208 305.232 131.912 304.968 133.28C304.864 133.803 304.773 134.288 304.695 134.69C304.457 135.962 303.838 136.838 302.861 137.287C302.363 137.517 301.805 137.608 301.234 137.608Z" fill="#333A43"/>
<path d="M306.068 130.407C306.068 130.407 307.293 126.396 309.006 127.326C310.72 128.261 309.262 132.644 306.068 130.407Z" fill="white"/>
<path d="M297.37 127.972H297.374H297.37ZM298.145 128.37C298.032 128.37 297.889 128.404 297.738 128.508C297.561 128.629 297.509 129.049 297.595 129.659C297.786 131.009 298.153 131.429 298.357 131.559C298.448 131.619 298.603 131.684 298.889 131.611C299.136 131.351 299.425 130.027 298.413 128.456C298.391 128.426 298.292 128.37 298.145 128.37ZM298.655 132.943C298.292 132.943 297.954 132.844 297.656 132.653C296.955 132.203 296.513 131.282 296.31 129.841C296.249 129.408 296.063 128.084 297.002 127.439C297.461 127.124 297.998 127.007 298.504 127.106C298.932 127.193 299.296 127.426 299.503 127.751C300.55 129.374 300.563 130.923 300.226 131.831C300.027 132.368 299.702 132.727 299.309 132.844C299.084 132.909 298.867 132.943 298.655 132.943Z" fill="#333A43"/>
<path d="M298.137 128.344C297.804 128.344 297.518 128.088 297.492 127.747C297.466 127.387 297.734 127.076 298.089 127.05L307.202 126.358C307.557 126.332 307.872 126.6 307.898 126.955C307.929 127.314 307.66 127.625 307.301 127.651L298.189 128.344C298.171 128.344 298.154 128.344 298.137 128.344Z" fill="#333A43"/>
<path d="M295.034 131.506H295.039C295.039 131.506 295.039 131.506 295.034 131.506ZM294.887 132.787C294.84 132.787 294.788 132.778 294.74 132.765C294.403 132.688 294.074 132.359 293.762 131.796C293.533 131.385 292.836 129.936 293.342 128.464C293.503 128.001 293.81 127.668 294.238 127.491C295.199 127.101 296.432 127.694 296.57 127.764C296.891 127.924 297.02 128.313 296.86 128.633C296.7 128.953 296.311 129.083 295.991 128.923C295.657 128.759 295.026 128.573 294.727 128.694C294.675 128.715 294.619 128.75 294.571 128.889C294.191 129.992 294.9 131.299 295.155 131.545C295.432 131.666 295.592 131.978 295.519 132.285C295.45 132.584 295.181 132.787 294.887 132.787Z" fill="#333A43"/>
<path d="M345.066 329.345L347.126 343.811L352.396 343.831L352.647 329.604L345.066 329.345Z" fill="white"/>
<path d="M347.689 343.164L351.761 343.18L351.986 330.231L345.816 330.021L347.689 343.164ZM352.397 344.48L347.122 344.46C346.802 344.459 346.53 344.221 346.482 343.903L344.422 329.437C344.396 329.246 344.453 329.054 344.582 328.912C344.712 328.769 344.898 328.687 345.089 328.697L352.669 328.955C353.024 328.967 353.301 329.261 353.297 329.615L353.046 343.843C353.042 344.197 352.752 344.48 352.397 344.48Z" fill="#333A43"/>
<path d="M346.95 357.643C349.018 357.864 352.099 357.95 356.214 357.587C357.685 357.457 358.723 356.094 358.485 354.636C357.849 350.71 356.062 343.784 353.254 340.607L351.861 342.587L351.039 340.541C350.905 340.32 347.413 340.174 347.339 340.589L347.127 342.587L345.141 340.364L345.254 347.662C345.262 348.468 345.189 349.274 345.024 350.063L344.505 352.586C344.189 354.103 344.579 355.713 345.639 356.842C346.054 357.288 346.513 357.595 346.95 357.643Z" fill="white"/>
<path d="M345.816 342.095L345.902 347.653C345.911 348.506 345.833 349.361 345.66 350.195L345.141 352.718C344.86 354.073 345.223 355.454 346.11 356.401C346.439 356.747 346.776 356.968 347.019 356.994C348.767 357.184 351.774 357.327 356.157 356.942C356.681 356.894 357.144 356.643 357.468 356.228C357.793 355.808 357.931 355.267 357.845 354.74C357.295 351.351 355.742 345.038 353.288 341.687L352.393 342.959C352.259 343.154 352.025 343.263 351.787 343.232C351.553 343.204 351.35 343.05 351.259 342.829L350.55 341.064C349.957 340.969 348.555 340.938 347.945 341.024L347.772 342.655C347.746 342.91 347.568 343.126 347.326 343.204C347.079 343.283 346.811 343.21 346.642 343.019L345.816 342.095ZM350.952 358.482C349.208 358.482 347.858 358.392 346.88 358.288C346.313 358.227 345.721 357.881 345.167 357.288C343.986 356.033 343.501 354.225 343.869 352.455L344.388 349.931C344.544 349.191 344.613 348.43 344.604 347.672L344.492 340.374C344.492 340.103 344.656 339.858 344.907 339.759C345.158 339.662 345.448 339.729 345.625 339.932L346.634 341.062L346.694 340.521C346.694 340.506 346.699 340.491 346.699 340.476C346.798 339.917 347.408 339.805 347.607 339.768C347.642 339.762 351.116 339.412 351.597 340.207C351.614 340.236 351.627 340.267 351.64 340.298L352.016 341.236L352.722 340.235C352.834 340.072 353.016 339.971 353.215 339.959C353.414 339.951 353.609 340.029 353.739 340.177C357.373 344.287 358.957 353.493 359.126 354.532C359.273 355.415 359.039 356.319 358.494 357.024C357.944 357.725 357.157 358.158 356.27 358.236C354.206 358.418 352.436 358.482 350.952 358.482Z" fill="#333A43"/>
<path d="M350.716 355.903C348.397 355.903 346.965 355.618 346.87 355.6C346.519 355.527 346.29 355.185 346.363 354.835C346.433 354.484 346.774 354.259 347.125 354.328C347.164 354.333 350.764 355.038 355.805 354.151C356.16 354.09 356.493 354.324 356.558 354.679C356.618 355.034 356.38 355.367 356.03 355.432C353.983 355.791 352.174 355.903 350.716 355.903Z" fill="#333A43"/>
<path d="M353.816 350.354H349.03C348.675 350.354 348.381 350.064 348.381 349.705C348.381 349.347 348.675 349.056 349.03 349.056H353.816C354.17 349.056 354.465 349.347 354.465 349.705C354.465 350.064 354.17 350.354 353.816 350.354Z" fill="#333A43"/>
<path d="M307.227 330.637L305.371 347.497L298.279 348.982L298.712 329.213L307.227 330.637Z" fill="white"/>
<path d="M299.344 329.976L298.946 348.179L304.779 346.958L306.514 331.175L299.344 329.976ZM298.28 349.631C298.129 349.631 297.981 349.579 297.865 349.481C297.713 349.354 297.627 349.166 297.631 348.968L298.064 329.198C298.068 329.01 298.155 328.832 298.297 328.713C298.444 328.593 298.635 328.542 298.821 328.572L307.332 329.996C307.674 330.053 307.912 330.365 307.873 330.707L306.017 347.568C305.986 347.847 305.779 348.074 305.506 348.132L298.414 349.617C298.371 349.626 298.323 349.631 298.28 349.631Z" fill="#333A43"/>
<path d="M308.369 355.536C308.525 352.582 308.529 347.142 306.729 344.519L301.056 346.539V345.328C301.056 344.937 300.779 344.615 300.425 344.595L297.257 344.413C296.08 344.346 294.903 344.59 293.822 345.12C290.641 346.684 280.966 350.695 279.625 355.207C279.227 356.536 280.269 357.868 281.654 357.907C284.839 357.998 292.498 358.098 306.24 357.626C307.382 357.587 308.308 356.683 308.369 355.536Z" fill="white"/>
<path d="M308.369 355.536H308.373H308.369ZM296.877 345.051C295.933 345.051 294.981 345.274 294.112 345.702C293.727 345.891 293.251 346.115 292.701 346.371C289.014 348.101 281.343 351.699 280.244 355.389C280.122 355.804 280.2 356.254 280.464 356.617C280.746 357.003 281.196 357.245 281.676 357.258C285.003 357.353 292.619 357.444 306.219 356.977C307.032 356.951 307.677 356.315 307.72 355.501C307.962 350.908 307.504 347.246 306.452 345.308L301.273 347.15C301.078 347.222 300.857 347.191 300.684 347.069C300.511 346.948 300.407 346.75 300.407 346.539V345.327C300.407 345.275 300.386 345.245 300.373 345.24L297.223 345.06C297.106 345.054 296.993 345.051 296.877 345.051ZM287.998 358.634C285.086 358.634 283.004 358.595 281.637 358.556C280.759 358.53 279.928 358.089 279.413 357.379C278.911 356.682 278.764 355.826 279.002 355.021C280.265 350.771 287.998 347.144 292.151 345.196C292.688 344.944 293.16 344.723 293.536 344.537C294.713 343.958 296.015 343.692 297.296 343.765L300.459 343.947C301.16 343.987 301.705 344.593 301.705 345.327V345.619L306.513 343.907C306.79 343.808 307.097 343.908 307.266 344.152C309.17 346.925 309.182 352.496 309.018 355.57C308.94 357.063 307.755 358.223 306.262 358.275C298.196 358.552 292.221 358.634 287.998 358.634Z" fill="#333A43"/>
<path d="M290.201 355.83C285.969 355.83 283.299 355.635 283.247 355.631C282.893 355.605 282.624 355.294 282.65 354.934C282.68 354.58 282.996 354.303 283.347 354.337C283.446 354.346 293.416 355.073 305.479 353.675C305.834 353.632 306.159 353.887 306.198 354.242C306.241 354.601 305.986 354.921 305.626 354.965C299.681 355.653 294.229 355.83 290.201 355.83Z" fill="#333A43"/>
<path d="M291.958 351.005C291.759 351.005 291.56 350.911 291.43 350.735C291.222 350.444 291.287 350.038 291.581 349.829L297.042 345.901C297.332 345.692 297.739 345.758 297.946 346.049C298.158 346.34 298.089 346.745 297.799 346.954L292.338 350.882C292.222 350.965 292.092 351.005 291.958 351.005Z" fill="#333A43"/>
<path d="M305.012 212.833C305.012 212.833 294.848 290.978 297.016 337.524L300.188 337.842C301.893 338.012 303.606 338.054 305.32 337.969L308.327 337.817C308.327 337.817 320.451 258.703 326.505 246.962C326.505 246.962 342.964 318.248 343.6 335.282C343.6 335.282 350.917 336.018 353.834 334.968C355.4 318.528 355.854 293.104 355.932 282.421C356.157 251.846 353.232 237.958 351.631 231.369C350.16 225.319 348.581 220.403 347.43 217.077L343.583 206.098L305.012 212.833Z" fill="#FB9946"/>
<path d="M297.639 336.935L300.253 337.196C301.919 337.363 303.61 337.404 305.285 337.321L307.764 337.196C308.92 329.718 320.087 257.994 325.925 246.664C326.05 246.422 326.314 246.28 326.582 246.317C326.855 246.351 327.076 246.55 327.136 246.815C327.301 247.521 343.263 316.818 344.223 334.685C345.872 334.821 350.766 335.146 353.228 334.478C354.993 315.567 355.257 285.775 355.283 282.416C355.495 253.458 352.942 239.501 350.999 231.522C349.835 226.724 348.425 221.935 346.815 217.29L343.15 206.831L305.596 213.39C304.761 219.973 295.688 292.796 297.639 336.935ZM303.606 338.66C302.438 338.66 301.274 338.603 300.123 338.487L296.951 338.17C296.631 338.138 296.38 337.877 296.367 337.555C294.221 291.484 304.268 213.532 304.372 212.749C304.407 212.468 304.623 212.243 304.904 212.194L343.47 205.458C343.782 205.401 344.089 205.583 344.193 205.882L348.044 216.863C349.667 221.549 351.086 226.377 352.263 231.216C354.219 239.262 356.793 253.323 356.581 282.425C356.555 285.815 356.283 316.088 354.478 335.03C354.457 335.28 354.292 335.494 354.054 335.578C351.034 336.666 343.838 335.959 343.535 335.928C343.211 335.896 342.964 335.63 342.951 335.306C342.384 320.09 328.936 260.523 326.31 249.028C320.165 265.143 309.084 337.158 308.967 337.916C308.92 338.221 308.669 338.45 308.357 338.465L305.35 338.617C304.77 338.646 304.186 338.66 303.606 338.66Z" fill="#333A43"/>
<path d="M326.328 248.754C326.021 248.754 325.748 248.534 325.687 248.22L324.748 242.993C324.35 241.578 323.212 240.516 321.771 240.219L320.188 239.892C319.837 239.82 319.612 239.476 319.686 239.125C319.755 238.774 320.101 238.547 320.452 238.621L322.035 238.947C323.965 239.347 325.488 240.775 326.008 242.676C326.016 242.695 326.021 242.714 326.025 242.733L326.968 247.99C327.029 248.343 326.795 248.68 326.445 248.744C326.406 248.75 326.367 248.754 326.328 248.754Z" fill="#333A43"/>
<path d="M347.188 239.778C347.153 239.778 347.119 239.775 347.08 239.769C337.552 238.181 335.665 230.818 335.587 230.506C335.501 230.157 335.717 229.806 336.063 229.722C336.414 229.638 336.764 229.851 336.847 230.199C336.92 230.49 338.647 237.048 347.296 238.489C347.647 238.548 347.889 238.883 347.828 239.236C347.777 239.553 347.5 239.778 347.188 239.778Z" fill="#333A43"/>
<path d="M304.557 233.604C304.306 233.604 304.068 233.458 303.96 233.213C303.817 232.884 303.969 232.502 304.298 232.359C309.122 230.264 309.01 225.784 309.01 225.739C308.997 225.381 309.274 225.079 309.633 225.066C309.975 225.054 310.29 225.331 310.303 225.689C310.308 225.743 310.446 231.105 304.812 233.55C304.73 233.586 304.644 233.604 304.557 233.604Z" fill="#333A43"/>
<path d="M309.801 82.6416C309.719 82.6416 309.632 82.6286 309.55 82.594L306.949 81.4993C306.621 81.3608 306.465 80.98 306.603 80.6468C306.742 80.318 307.123 80.1622 307.451 80.3007L310.056 81.3954C310.385 81.5339 310.541 81.9147 310.402 82.2435C310.299 82.4945 310.056 82.6416 309.801 82.6416Z" fill="#333A43"/>
<path d="M300.694 78.8164C300.611 78.8164 300.525 78.7991 300.443 78.7645L297.842 77.6698C297.513 77.5313 297.357 77.1505 297.496 76.8217C297.634 76.4885 298.015 76.3327 298.344 76.4712L300.949 77.5659C301.278 77.7044 301.433 78.0851 301.295 78.4183C301.191 78.665 300.949 78.8164 300.694 78.8164Z" fill="#333A43"/>
<path d="M305.298 76.9219C305.216 76.9219 305.129 76.9046 305.051 76.8743C304.718 76.7358 304.562 76.355 304.696 76.0262L305.778 73.417C305.912 73.0838 306.293 72.9281 306.626 73.0666C306.955 73.2007 307.115 73.5815 306.977 73.9103L305.899 76.5195C305.796 76.7704 305.553 76.9219 305.298 76.9219Z" fill="#333A43"/>
<path d="M301.519 86.0518C301.436 86.0518 301.354 86.0344 301.272 85.9998C300.939 85.8657 300.783 85.4849 300.922 85.1561L301.999 82.5469C302.138 82.2137 302.514 82.058 302.847 82.1964C303.18 82.3306 303.336 82.7113 303.198 83.0402L302.12 85.6494C302.016 85.9003 301.774 86.0518 301.519 86.0518Z" fill="#333A43"/>
<path d="M207.074 344.113C199.662 344.273 193.526 338.254 193.362 330.668C193.197 323.082 199.069 316.803 206.481 316.643C213.889 316.482 220.029 322.502 220.193 330.087C220.358 337.673 214.482 343.953 207.074 344.113ZM233.797 332.462L233.681 327.126L228.099 325.965C227.857 324.734 227.519 323.539 227.086 322.392L231.18 318.354L228.475 313.789L223.075 315.639C222.27 314.71 221.396 313.85 220.453 313.07L222.024 307.468L217.455 304.897L213.69 309.257C212.552 308.866 211.371 308.572 210.159 308.377L208.783 302.72L203.574 302.833L202.444 308.545C201.241 308.792 200.077 309.136 198.957 309.576L195.006 305.383L190.549 308.149L192.362 313.677C191.458 314.499 190.619 315.395 189.857 316.358L184.383 314.744L181.874 319.421L186.14 323.278C185.759 324.443 185.474 325.651 185.283 326.891L179.758 328.293L179.875 333.629L185.452 334.791C185.694 336.022 186.032 337.216 186.465 338.363L182.371 342.402L185.08 346.966L190.48 345.116C191.281 346.045 192.159 346.905 193.098 347.686L191.527 353.286L196.101 355.856L199.861 351.498C200.999 351.89 202.18 352.183 203.392 352.378L204.768 358.037L209.982 357.925L211.111 352.211C212.31 351.964 213.478 351.62 214.599 351.179L218.545 355.372L223.002 352.607L221.189 347.078C222.097 346.257 222.937 345.36 223.698 344.397L229.172 346.012L231.677 341.335L227.415 337.477C227.796 336.313 228.082 335.105 228.272 333.864L233.797 332.462Z" fill="#FEC99E"/>
<path d="M253.628 312.409C248.167 312.528 243.641 308.091 243.52 302.5C243.399 296.909 247.73 292.282 253.191 292.163C258.651 292.045 263.177 296.482 263.298 302.073C263.42 307.664 259.088 312.291 253.628 312.409ZM273.324 303.823L273.237 299.89L269.127 299.033C268.945 298.127 268.698 297.246 268.378 296.401L271.394 293.424L269.399 290.061L265.423 291.424C264.83 290.739 264.185 290.106 263.489 289.53L264.648 285.401L261.278 283.507L258.504 286.72C257.665 286.432 256.795 286.215 255.904 286.072L254.891 281.902L251.049 281.985L250.218 286.195C249.331 286.377 248.47 286.631 247.643 286.955L244.736 283.865L241.451 285.903L242.784 289.978C242.118 290.583 241.499 291.244 240.937 291.954L236.904 290.764L235.056 294.211L238.198 297.054C237.916 297.912 237.709 298.802 237.566 299.716L233.494 300.75L233.581 304.683L237.696 305.539C237.873 306.446 238.12 307.327 238.44 308.172L235.424 311.148L237.419 314.512L241.395 313.149C241.988 313.833 242.633 314.467 243.329 315.043L242.17 319.172L245.54 321.066L248.314 317.852C249.153 318.141 250.023 318.357 250.915 318.501L251.927 322.671L255.769 322.588L256.605 318.378C257.487 318.195 258.348 317.942 259.175 317.617L262.083 320.708L265.367 318.67L264.034 314.595C264.7 313.99 265.319 313.329 265.882 312.619L269.914 313.809L271.762 310.362L268.621 307.519C268.902 306.66 269.11 305.771 269.252 304.856L273.324 303.823Z" fill="white"/>
<path d="M295.324 240.311C295.294 240.311 295.268 240.309 295.233 240.305C294.878 240.256 294.632 239.929 294.679 239.573C294.74 239.138 294.796 238.717 294.844 238.311C294.891 237.954 295.22 237.708 295.571 237.745C295.925 237.789 296.176 238.113 296.133 238.469C296.081 238.881 296.029 239.309 295.969 239.751C295.921 240.076 295.644 240.311 295.324 240.311ZM293.373 250.513C293.325 250.513 293.273 250.507 293.221 250.495C292.871 250.41 292.659 250.059 292.745 249.711C293.148 248.037 293.52 246.339 293.84 244.665C293.909 244.313 294.251 244.08 294.597 244.15C294.952 244.217 295.181 244.557 295.112 244.909C294.787 246.604 294.415 248.322 294.004 250.017C293.931 250.314 293.667 250.513 293.373 250.513ZM290.439 260.474C290.365 260.474 290.292 260.463 290.222 260.437C289.885 260.319 289.708 259.949 289.824 259.611C290.387 258.003 290.919 256.35 291.404 254.697C291.508 254.353 291.867 254.158 292.213 254.259C292.555 254.359 292.749 254.72 292.65 255.064C292.157 256.737 291.62 258.411 291.049 260.039C290.958 260.306 290.707 260.474 290.439 260.474ZM286.497 270.079C286.402 270.079 286.307 270.058 286.216 270.016C285.891 269.862 285.757 269.474 285.909 269.151C286.64 267.619 287.341 266.032 287.994 264.434C288.128 264.102 288.509 263.944 288.842 264.08C289.175 264.215 289.331 264.594 289.197 264.926C288.535 266.546 287.821 268.155 287.081 269.709C286.969 269.943 286.739 270.079 286.497 270.079ZM281.473 279.163C281.352 279.163 281.231 279.13 281.123 279.061C280.824 278.869 280.733 278.467 280.928 278.165C281.833 276.745 282.72 275.255 283.555 273.736C283.732 273.423 284.126 273.308 284.437 273.482C284.753 273.655 284.866 274.05 284.693 274.364C283.84 275.906 282.945 277.42 282.019 278.864C281.897 279.058 281.685 279.163 281.473 279.163ZM275.299 287.501C275.147 287.501 274.996 287.449 274.875 287.344C274.602 287.111 274.572 286.7 274.806 286.429C275.905 285.148 276.986 283.795 278.012 282.407C278.224 282.118 278.631 282.059 278.92 282.271C279.206 282.485 279.267 282.891 279.055 283.179C278.012 284.592 276.913 285.971 275.788 287.275C275.662 287.424 275.48 287.501 275.299 287.501Z" fill="#FB9946"/>
<path d="M112.452 328.955C112.309 328.955 112.166 328.907 112.045 328.811C110.522 327.582 109.237 326.334 108.238 325.101C108.008 324.823 108.052 324.414 108.328 324.188C108.605 323.962 109.016 324.003 109.241 324.281C110.189 325.444 111.405 326.628 112.863 327.8C113.14 328.025 113.183 328.434 112.958 328.713C112.833 328.872 112.642 328.955 112.452 328.955ZM121.214 334.516C121.115 334.516 121.011 334.493 120.916 334.443C119.28 333.593 117.748 332.72 116.355 331.848C116.052 331.658 115.957 331.258 116.147 330.954C116.338 330.65 116.74 330.558 117.043 330.748C118.406 331.601 119.912 332.457 121.513 333.292C121.833 333.457 121.954 333.849 121.79 334.167C121.673 334.389 121.448 334.516 121.214 334.516ZM130.686 338.782C130.608 338.782 130.526 338.767 130.448 338.737C128.791 338.086 127.168 337.407 125.628 336.716C125.303 336.569 125.156 336.185 125.303 335.858C125.45 335.532 125.831 335.385 126.16 335.531C127.683 336.214 129.284 336.886 130.924 337.529C131.257 337.66 131.421 338.037 131.292 338.37C131.192 338.626 130.946 338.782 130.686 338.782ZM140.504 342.195C140.439 342.195 140.374 342.187 140.313 342.167C138.63 341.651 136.96 341.105 135.346 340.546C135.009 340.428 134.831 340.059 134.948 339.72C135.065 339.381 135.437 339.202 135.774 339.32C137.371 339.874 139.024 340.414 140.694 340.926C141.036 341.031 141.226 341.394 141.123 341.737C141.036 342.016 140.781 342.195 140.504 342.195ZM150.542 344.888C150.495 344.888 150.443 344.883 150.395 344.872C148.716 344.485 147.012 344.06 145.328 343.608C144.982 343.515 144.779 343.159 144.87 342.813C144.965 342.467 145.324 342.262 145.666 342.354C147.336 342.803 149.024 343.224 150.685 343.607C151.036 343.688 151.252 344.035 151.174 344.385C151.105 344.685 150.837 344.888 150.542 344.888ZM160.754 346.807C160.724 346.807 160.694 346.805 160.663 346.801C159.01 346.568 157.275 346.28 155.505 345.945C155.155 345.879 154.921 345.539 154.991 345.187C155.056 344.835 155.397 344.605 155.748 344.67C157.496 345.001 159.214 345.285 160.845 345.515C161.2 345.565 161.446 345.894 161.395 346.249C161.351 346.573 161.074 346.807 160.754 346.807ZM176.245 346.875C175.968 346.875 175.708 346.69 175.626 346.407C175.522 346.063 175.721 345.703 176.067 345.602C176.318 345.529 176.561 345.447 176.786 345.36C177.119 345.231 177.495 345.395 177.625 345.729C177.755 346.063 177.59 346.44 177.257 346.57C176.998 346.671 176.716 346.764 176.426 346.849C176.366 346.867 176.305 346.875 176.245 346.875ZM170.083 347.554C168.789 347.553 167.37 347.494 165.869 347.378C165.514 347.351 165.246 347.039 165.271 346.681C165.302 346.324 165.618 346.049 165.968 346.085C167.837 346.228 169.56 346.283 171.096 346.243C171.442 346.226 171.749 346.516 171.762 346.874C171.771 347.233 171.485 347.531 171.13 347.54C170.788 347.549 170.438 347.554 170.083 347.554Z" fill="#FB9946"/>
</svg>
