<svg width="40" height="40" viewBox="0 0 40 40" fill="none" xmlns="http://www.w3.org/2000/svg">
<rect width="40" height="40" rx="6" fill="#E25569"/>
<path d="M10.5859 30H16.5655C16.8891 30 17.1514 29.7377 17.1514 29.4141V28.7612C17.1514 27.4067 16.3943 26.2256 15.281 25.619C15.6764 25.1993 15.9195 24.6345 15.9195 24.0137C15.9195 22.7213 14.8681 21.6699 13.5757 21.6699C12.2834 21.6699 11.232 22.7213 11.232 24.0137C11.232 24.6345 11.4751 25.1993 11.8705 25.619C10.7571 26.2256 10 27.4067 10 28.7612V29.4141C10 29.7377 10.2623 30 10.5859 30ZM12.4039 24.0137C12.4039 23.3675 12.9296 22.8418 13.5757 22.8418C14.2219 22.8418 14.7476 23.3675 14.7476 24.0137C14.7476 24.6598 14.2219 25.1855 13.5757 25.1855C12.9296 25.1855 12.4039 24.6598 12.4039 24.0137ZM13.5757 26.3574C14.8311 26.3574 15.9796 27.3415 15.9796 28.8281H11.1719C11.1719 27.3493 12.3137 26.3574 13.5757 26.3574Z" fill="white"/>
<path d="M28.1296 25.619C28.525 25.1993 28.7681 24.6345 28.7681 24.0137C28.7681 22.7213 27.7167 21.6699 26.4243 21.6699C25.132 21.6699 24.0806 22.7213 24.0806 24.0137C24.0806 24.6345 24.3237 25.1993 24.7191 25.619C23.6058 26.2256 22.8486 27.4066 22.8486 28.7612V29.4141C22.8486 29.7377 23.111 30 23.4346 30H29.4141C29.7377 30 30 29.7377 30 29.4141V28.7612C30 27.4067 29.2429 26.2256 28.1296 25.619ZM25.2524 24.0137C25.2524 23.3675 25.7781 22.8418 26.4243 22.8418C27.0705 22.8418 27.5962 23.3675 27.5962 24.0137C27.5962 24.6598 27.0705 25.1855 26.4243 25.1855C25.7781 25.1855 25.2524 24.6598 25.2524 24.0137ZM28.8282 28.8281H24.0205C24.0205 27.3493 25.1623 26.3574 26.4243 26.3574C27.6796 26.3574 28.8282 27.3414 28.8282 28.8281Z" fill="white"/>
<path d="M23.5758 17.7441V17.0913C23.5758 15.7368 22.8186 14.5557 21.7053 13.9491C22.1007 13.5293 22.3438 12.9646 22.3438 12.3438C22.3438 11.0514 21.2924 10 20 10C18.7077 10 17.6563 11.0514 17.6563 12.3438C17.6563 12.9646 17.8994 13.5293 18.2947 13.9491C17.1815 14.5557 16.4243 15.7368 16.4243 17.0913V17.7441C16.4243 18.0677 16.6867 18.3301 17.0103 18.3301H22.9898C23.3134 18.3301 23.5758 18.0677 23.5758 17.7441ZM18.8281 12.3438C18.8281 11.6976 19.3538 11.1719 20 11.1719C20.6462 11.1719 21.1719 11.6976 21.1719 12.3438C21.1719 12.9899 20.6462 13.5156 20 13.5156C19.3538 13.5156 18.8281 12.9899 18.8281 12.3438ZM22.4039 17.1582H17.5962C17.5962 15.6793 18.7379 14.6875 20 14.6875C21.2553 14.6875 22.4039 15.6715 22.4039 17.1582Z" fill="white"/>
<path d="M22.3672 24.8066C21.6017 25.0581 20.7944 25.1856 19.968 25.1856C19.1706 25.1856 18.3897 25.0665 17.6471 24.8316C17.3384 24.7341 17.0092 24.905 16.9117 25.2135C16.8141 25.522 16.9851 25.8513 17.2937 25.9489C18.1507 26.2199 19.0505 26.3574 19.968 26.3574C20.9189 26.3574 21.8491 26.2102 22.7329 25.9199C23.0403 25.8189 23.2077 25.4878 23.1067 25.1804C23.0057 24.873 22.6746 24.7056 22.3672 24.8066Z" fill="white"/>
<path d="M14.5988 14.8558C13.9517 15.4796 13.4016 16.2048 12.9637 17.0112C12.51 17.847 12.1955 18.7347 12.0289 19.6498C11.9636 20.0085 12.2388 20.3408 12.6061 20.3408C12.8837 20.3408 13.1303 20.1425 13.1818 19.8597C13.3261 19.067 13.5993 18.2967 13.9936 17.5704C14.3742 16.8695 14.8514 16.2401 15.4121 15.6996C15.6451 15.475 15.6519 15.1041 15.4273 14.8711C15.2027 14.6381 14.8318 14.6313 14.5988 14.8558Z" fill="white"/>
<path d="M25.4013 14.8558C25.1683 14.6312 24.7973 14.6381 24.5728 14.8711C24.3482 15.1041 24.355 15.475 24.588 15.6996C25.1487 16.2401 25.626 16.8695 26.0065 17.5704C26.4009 18.2968 26.674 19.067 26.8183 19.8597C26.8762 20.1777 27.1809 20.3892 27.4996 20.3312C27.818 20.2733 28.0291 19.9682 27.9712 19.6498C27.8046 18.7347 27.4901 17.847 27.0364 17.0112C26.5985 16.2048 26.0484 15.4796 25.4013 14.8558Z" fill="white"/>
</svg>
