<svg width="56" height="56" viewBox="0 0 56 56" fill="none" xmlns="http://www.w3.org/2000/svg">
<rect width="56" height="56" rx="8" fill="#E25569" fill-opacity="0.1"/>
<g clip-path="url(#clip0)">
<path d="M28.0001 43.9844C13.7977 43.9701 6.65401 26.7222 16.6865 16.6707C22.642 10.4644 33.3583 10.4634 39.3138 16.6709C49.3462 26.7233 42.2016 43.9709 28.0001 43.9844ZM28.0001 14.4844C20.5562 14.4844 14.5001 20.5405 14.5001 27.9844C15.2417 45.8939 40.7612 45.8887 41.5001 27.9843C41.5001 20.5405 35.444 14.4844 28.0001 14.4844ZM33.8215 32.038L29.8722 28.0888C29.907 27.5055 29.6582 26.9481 29.2495 26.5863C29.2498 26.5733 29.2501 26.5601 29.2501 26.547V19.2345C29.1841 17.576 26.8155 17.5772 26.7501 19.2345V26.547C26.7501 26.5601 26.7503 26.5733 26.7507 26.5863C25.4435 27.7565 26.3303 29.9479 28.1044 29.8566L32.0536 33.8058C32.5418 34.294 33.3333 34.294 33.8214 33.8058C34.3096 33.3176 34.3096 32.5262 33.8215 32.038Z" fill="#E25569"/>
</g>
<defs>
<clipPath id="clip0">
<rect width="32" height="32" fill="white" transform="translate(12 12)"/>
</clipPath>
</defs>
</svg>
