<svg width="32" height="32" viewBox="0 0 32 32" fill="none" xmlns="http://www.w3.org/2000/svg">
<g clip-path="url(#clip0)">
<path d="M22.5643 7.17742C22.3576 7.67476 21.8709 8.00009 21.3323 8.00009H17.3323V21.3334C17.3323 22.0694 16.7349 22.6668 15.9989 22.6668C15.2629 22.6668 14.6656 22.0694 14.6656 21.3334V8.00009H10.6656C10.1269 8.00009 9.64028 7.67476 9.43362 7.17742C9.22695 6.67876 9.34162 6.10542 9.72295 5.72409L15.0563 0.390756C15.5776 -0.130577 16.4203 -0.130577 16.9416 0.390756L22.2749 5.72409C22.6563 6.10542 22.7709 6.67876 22.5643 7.17742Z" fill="#E25569"/>
<path d="M28 32.0001H4C1.79467 32.0001 0 30.2055 0 28.0002V22.6668C0 21.9308 0.597333 21.3335 1.33333 21.3335C2.06933 21.3335 2.66667 21.9308 2.66667 22.6668V28.0002C2.66667 28.7348 3.26533 29.3335 4 29.3335H28C28.7347 29.3335 29.3333 28.7348 29.3333 28.0002V22.6668C29.3333 21.9308 29.9307 21.3335 30.6667 21.3335C31.4027 21.3335 32 21.9308 32 22.6668V28.0002C32 30.2055 30.2053 32.0001 28 32.0001Z" fill="#E25569"/>
</g>
<defs>
<clipPath id="clip0">
<rect width="32" height="32" fill="white"/>
</clipPath>
</defs>
</svg>
