<svg width="56" height="56" viewBox="0 0 56 56" fill="none" xmlns="http://www.w3.org/2000/svg">
<rect width="56" height="56" rx="8" fill="#FA9648" fill-opacity="0.1"/>
<g clip-path="url(#clip0)">
<path d="M42.9961 34.0235C42.9961 32.3974 41.6732 31.0745 40.0471 31.0745H34.1131C35.9432 29.2209 34.6303 26.0549 32.0157 26.0549H28.9412V23.5287L30.9699 22.3782C31.9463 21.8246 32.6283 20.8888 32.8648 19.8316C35.1947 19.4275 36.9725 17.3926 36.9725 14.949V14.4471C36.9725 13.9273 36.5512 13.5059 36.0314 13.5059H32.9569V12.9412C32.9569 12.4214 32.5355 12 32.0157 12C30.4059 12 25.5976 12 23.9843 12C23.4645 12 23.0431 12.4214 23.0431 12.9412V13.5059H19.9686C19.4488 13.5059 19.0274 13.9273 19.0274 14.4471V14.949C19.0274 17.3971 20.8119 19.4351 23.148 19.8339C23.4039 20.9281 24.1154 21.8884 25.1293 22.4547L27.0588 23.5327V26.0549H23.9843C22.3582 26.0549 21.0353 27.3778 21.0353 29.0039C21.0353 30.3009 21.8773 31.4042 23.0431 31.798V34.0863H15.9529C15.165 34.0863 14.4244 34.393 13.8675 34.9499C12.315 36.5025 12.9514 39.1335 15.0118 39.8294V43.0588C15.0118 43.5786 15.4332 44 15.9529 44H40.0471C40.5668 44 40.9882 43.5786 40.9882 43.0588V36.8191C42.13 36.4361 42.9961 35.3512 42.9961 34.0235ZM35.0589 15.3882C34.8905 16.5604 34.0584 17.5213 32.9569 17.8762V15.3882H35.0589ZM20.9411 15.3882H23.0431V17.8762C21.9416 17.5213 21.1095 16.5604 20.9411 15.3882ZM24.9255 18.9368L24.9255 13.8824H31.0745C31.0745 19.2785 31.0746 18.9764 31.0744 19.0067C31.072 19.7164 30.6761 20.3809 30.0413 20.7408L27.9965 21.9004L26.0472 20.8114C25.3582 20.4264 24.9284 19.7084 24.9255 18.9368ZM23.9843 27.9373H32.0157C32.6039 27.9373 33.0823 28.4158 33.0823 29.0039C33.0823 29.5921 32.6039 30.0706 32.0157 30.0706H23.9843C23.3961 30.0706 22.9176 29.5921 22.9176 29.0039C22.9176 28.4158 23.3961 27.9373 23.9843 27.9373ZM15.1986 36.2809C15.3999 36.0796 15.6678 35.9686 15.9529 35.9686H23.0431V38.102H15.9529C15.0091 38.102 14.5285 36.951 15.1986 36.2809ZM16.8941 39.9843H23.0431V42.1176H16.8941V39.9843ZM24.9255 31.9529H31.0745V42.1176H24.9255C24.9255 41.0632 24.9255 32.8028 24.9255 31.9529ZM39.1059 42.1176H32.9569V36.9726H39.1059V42.1176ZM40.8015 34.7779C40.6002 34.9793 40.3322 35.0902 40.0471 35.0902H32.9569V32.9569H40.0471C40.9909 32.9569 41.4716 34.1078 40.8015 34.7779Z" fill="#FA9648" stroke="#FA9648" stroke-width="0.2"/>
</g>
<defs>
<clipPath id="clip0">
<rect width="32" height="32" fill="white" transform="translate(12 12)"/>
</clipPath>
</defs>
</svg>
