<svg width="32" height="32" viewBox="0 0 32 32" fill="none" xmlns="http://www.w3.org/2000/svg">
<path d="M28.3744 11.4462H27.606V7.73872C27.606 7.71561 27.6024 7.69232 27.5996 7.66869C27.5984 7.52161 27.5512 7.37705 27.4504 7.26248L21.2804 0.214601C21.2785 0.212792 21.2767 0.21215 21.2754 0.210224C21.2387 0.169136 21.1958 0.134936 21.1504 0.105404C21.137 0.096416 21.1235 0.0888871 21.1094 0.0809497C21.0702 0.0596472 21.0284 0.0417297 20.9856 0.0288314C20.9739 0.0257965 20.9635 0.0210107 20.9519 0.0179759C20.9053 0.00688685 20.8569 0 20.8079 0H5.6449C4.95254 0 4.39003 0.563146 4.39003 1.25492V11.4459H3.62174C2.63126 11.4459 1.82812 12.2487 1.82812 13.2396V22.5667C1.82812 23.5566 2.63126 24.3603 3.62174 24.3603H4.39003V30.7451C4.39003 31.437 4.95254 32 5.6449 32H26.3508C27.0425 32 27.6056 31.437 27.6056 30.7451V24.3603H28.374C29.3642 24.3603 30.1675 23.557 30.1675 22.5668V13.2399C30.1675 12.2488 29.3648 11.4462 28.3744 11.4462ZM5.6449 1.25492H20.1805V7.67522C20.1805 8.0219 20.4616 8.30269 20.8079 8.30269H26.3508V11.4462H5.6449V1.25492ZM18.3575 18.3646C17.1246 17.9351 16.3202 17.2531 16.3202 16.1734C16.3202 14.9071 17.3771 13.9383 19.1284 13.9383C19.9648 13.9383 20.5818 14.1142 21.0218 14.3126L20.6476 15.6666C20.3505 15.5238 19.822 15.3143 19.0953 15.3143C18.3685 15.3143 18.0163 15.6447 18.0163 16.0301C18.0163 16.5038 18.4348 16.7128 19.3925 17.0761C20.7025 17.5608 21.3192 18.2433 21.3192 19.2893C21.3192 20.5337 20.3612 21.5908 18.3241 21.5908C17.4765 21.5908 16.6397 21.3708 16.2212 21.1393L16.5623 19.752C17.0139 19.983 17.7078 20.2146 18.4232 20.2146C19.1946 20.2146 19.6014 19.8954 19.6014 19.4107C19.6017 18.9486 19.2494 18.6838 18.3575 18.3646ZM15.5176 20.0711V21.481H10.8813V14.0586H12.5667V20.0711H15.5176ZM5.49783 21.481H3.582L5.72906 17.7251L3.65874 14.0583H5.58595L6.23524 15.413C6.45551 15.8645 6.62079 16.2274 6.79717 16.6465H6.81858C6.99525 16.1728 7.13824 15.8425 7.32488 15.413L7.95264 14.0583H9.86853L7.77632 17.6807L9.97895 21.4803H8.04118L7.36912 20.1367C7.09429 19.6199 6.91798 19.2341 6.70869 18.8046H6.6868C6.53243 19.2341 6.34567 19.6199 6.1142 20.1367L5.49783 21.481ZM26.3508 30.4053H5.6449V24.3603H26.3508V30.4053H26.3508ZM26.3621 21.481L25.6903 20.1373C25.4151 19.6201 25.2389 19.2347 25.0296 18.8052H25.0083C24.8539 19.2347 24.6664 19.6201 24.4347 20.1373L23.819 21.481H21.9025L24.0496 17.7251L21.9794 14.0583H23.9066L24.5567 15.413C24.7767 15.8645 24.9415 16.2274 25.118 16.6465H25.14C25.3159 16.1728 25.4586 15.8425 25.6461 15.413L26.2736 14.0583H28.19L26.0977 17.6807L28.2999 21.4803H26.3621V21.481Z" fill="#2AB070"/>
</svg>
