<svg width="80" height="80" viewBox="0 0 80 80" fill="none" xmlns="http://www.w3.org/2000/svg">
<path d="M80.0002 40C80.0002 50.6612 75.8287 60.3495 69.0271 67.52C64.7447 72.0375 59.4157 75.5559 53.4287 77.6898C49.2312 79.1853 44.7119 80 40.0002 80C35.2884 80 30.7691 79.1853 26.5716 77.6898C20.5848 75.5559 15.2556 72.0375 10.9717 67.52C4.1715 60.3493 0 50.6612 0 40C0 17.9086 17.9086 0 40 0C62.0914 0 80.0002 17.9083 80.0002 40Z" fill="#8078BC" fill-opacity="0.1"/>
<path d="M55.8758 60H38.8219C38.1431 60 37.5927 59.4497 37.5927 58.7708V57.9771C37.5927 57.2983 38.1431 56.7479 38.8219 56.7479H55.8758C56.5546 56.7479 57.1049 57.2983 57.1049 57.9771V58.7708C57.1049 59.4497 56.5546 60 55.8758 60Z" fill="#5E54AC"/>
<path d="M55.8758 56.7479H52.2173C52.8961 56.7479 53.4464 57.2983 53.4464 57.9771V58.7708C53.4464 59.4497 52.8961 60 52.2173 60H55.8758C56.5546 60 57.1049 59.4497 57.1049 58.7708V57.9771C57.1049 57.2983 56.5546 56.7479 55.8758 56.7479Z" fill="#5E54AC"/>
<path d="M53.5879 56.7479H41.1098C40.5144 56.7479 40.0317 56.2653 40.0317 55.6699V54.5739C40.0317 53.9785 40.5144 53.4959 41.1098 53.4959H53.5878C54.1832 53.4959 54.6659 53.9785 54.6659 54.5739V55.6699C54.666 56.2653 54.1833 56.7479 53.5879 56.7479Z" fill="#8078BC"/>
<path d="M53.5879 53.4959H50.8237C51.4191 53.4959 51.9017 53.9785 51.9017 54.5739V55.6699C51.9017 56.2653 51.4191 56.7479 50.8237 56.7479H53.5879C54.1833 56.7479 54.6659 56.2653 54.6659 55.6699V54.5739C54.6659 53.9785 54.1833 53.4959 53.5879 53.4959Z" fill="#8078BC"/>
<path d="M51.2513 34.9593H43.4464C42.728 34.9593 42.1457 35.5417 42.1457 36.2601C42.1457 36.9785 42.7281 37.5608 43.4464 37.5608H51.2513C51.9697 37.5608 52.5521 36.9784 52.5521 36.2601C52.5521 35.5416 51.9697 34.9593 51.2513 34.9593Z" fill="#5E54AC"/>
<path d="M51.2513 37.5608H48.9749C49.6933 37.5608 50.2756 36.9784 50.2756 36.2601C50.2756 35.5416 49.6932 34.9593 48.9749 34.9593H51.2513C51.9697 34.9593 52.552 35.5417 52.552 36.2601C52.5521 36.9785 51.9697 37.5608 51.2513 37.5608Z" fill="#5E54AC"/>
<path d="M53.0399 37.5609H41.6578C41.2088 37.5609 40.8448 37.9249 40.8448 38.374V39.3496C40.8448 39.7986 41.2088 40.1626 41.6578 40.1626H53.0399C53.4889 40.1626 53.8529 39.7986 53.8529 39.3496V38.374C53.8529 37.925 53.4889 37.5609 53.0399 37.5609Z" fill="#8078BC"/>
<path d="M53.0399 40.1625H50.4383C50.8873 40.1625 51.2513 39.7985 51.2513 39.3495V38.3739C51.2513 37.9249 50.8874 37.5608 50.4383 37.5608H53.0399C53.4889 37.5608 53.8529 37.9248 53.8529 38.3739V39.3495C53.8529 39.7985 53.4889 40.1625 53.0399 40.1625Z" fill="#8078BC"/>
<path d="M51.9017 53.4959L50.7635 40.1625H43.9343L42.7961 53.4959H51.9017Z" fill="#5E54AC"/>
<path d="M47.3488 34.9593C49.5939 34.9593 51.4139 33.1393 51.4139 30.8942C51.4139 28.6492 49.5939 26.8292 47.3488 26.8292C45.1037 26.8292 43.2838 28.6492 43.2838 30.8942C43.2838 33.1393 45.1037 34.9593 47.3488 34.9593Z" fill="#5E54AC"/>
<path d="M49.3965 27.3831C49.7481 27.9846 49.9504 28.6839 49.9504 29.4308C49.9504 31.6759 48.1304 33.4959 45.8854 33.4959C45.1384 33.4959 44.4391 33.2935 43.8376 32.942C44.5427 34.1483 45.8507 34.9593 47.3487 34.9593C49.5938 34.9593 51.4138 33.1393 51.4138 30.8943C51.4139 29.3961 50.6028 28.0882 49.3965 27.3831Z" fill="#5E54AC"/>
<path d="M51.0793 43.8619C50.8833 48.1406 47.6138 51.5446 43.6091 51.5446C43.3921 51.5446 43.1775 51.534 42.9652 51.5144L42.7961 53.4958H51.9018L51.0793 43.8619Z" fill="#5E54AC"/>
<path d="M33.4642 25.0406C34.8561 25.0406 35.9845 23.9122 35.9845 22.5203C35.9845 21.1284 34.8561 20 33.4642 20C32.0722 20 30.9438 21.1284 30.9438 22.5203C30.9438 23.9122 32.0722 25.0406 33.4642 25.0406Z" fill="#FADBA3"/>
<path d="M34.656 20.2992C34.8467 20.6541 34.9553 21.0599 34.9553 21.491C34.9553 22.8829 33.8269 24.0113 32.4349 24.0113C32.0038 24.0113 31.5981 23.9028 31.2432 23.712C31.6685 24.5028 32.5035 25.0406 33.4642 25.0406C34.8562 25.0406 35.9846 23.9122 35.9846 22.5203C35.9846 21.5595 35.4467 20.7245 34.656 20.2992Z" fill="#FADBA3"/>
<path d="M37.0414 29.7561L38.5424 26.7541C38.6246 26.5897 38.6674 26.4084 38.6674 26.2246C38.6674 25.5708 38.1374 25.0407 37.4835 25.0407H29.4449C28.791 25.0407 28.261 25.5708 28.261 26.2246C28.261 26.4084 28.3038 26.5897 28.386 26.7541L29.887 29.7561H37.0414Z" fill="#FADBA3"/>
<path d="M37.4835 25.0406H35.9388C36.5927 25.0406 37.1228 25.5707 37.1228 26.2245C37.1228 26.4083 37.0799 26.5896 36.9977 26.754L35.4967 29.756H37.0414L38.5424 26.754C38.6246 26.5896 38.6674 26.4083 38.6674 26.2245C38.6674 25.5707 38.1374 25.0406 37.4835 25.0406Z" fill="#FADBA3"/>
<path d="M37.3667 32.3577H29.5617C28.8433 32.3577 28.261 31.7753 28.261 31.0569C28.261 30.3385 28.8434 29.7561 29.5617 29.7561H37.3666C38.085 29.7561 38.6674 30.3386 38.6674 31.0569C38.6674 31.7753 38.085 32.3577 37.3667 32.3577Z" fill="#E8C078"/>
<path d="M37.3667 37.561H29.5617C28.8433 37.561 28.261 36.9785 28.261 36.2602C28.261 35.5417 28.8434 34.9594 29.5617 34.9594H37.3666C38.085 34.9594 38.6674 35.5418 38.6674 36.2602C38.6674 36.9786 38.085 37.561 37.3667 37.561Z" fill="#E8C078"/>
<path d="M37.3666 29.756H35.0902C35.8087 29.756 36.391 30.3385 36.391 31.0568C36.391 31.7753 35.8086 32.3576 35.0902 32.3576H37.3666C38.0851 32.3576 38.6674 31.7752 38.6674 31.0568C38.6674 30.3385 38.085 29.756 37.3666 29.756Z" fill="#E8C078"/>
<path d="M37.3666 34.9594H35.0902C35.8087 34.9594 36.391 35.5418 36.391 36.2602C36.391 36.9786 35.8086 37.561 35.0902 37.561H37.3666C38.0851 37.561 38.6674 36.9785 38.6674 36.2602C38.6674 35.5417 38.085 34.9594 37.3666 34.9594Z" fill="#E8C078"/>
<path d="M39.1552 34.9594H27.7731C27.3241 34.9594 26.9601 34.5954 26.9601 34.1463V33.1707C26.9601 32.7217 27.3241 32.3577 27.7731 32.3577H39.1552C39.6042 32.3577 39.9682 32.7217 39.9682 33.1707V34.1463C39.9682 34.5954 39.6042 34.9594 39.1552 34.9594Z" fill="#FADBA3"/>
<path d="M39.1553 32.3578H36.5536C37.0026 32.3578 37.3666 32.7218 37.3666 33.1708V34.1464C37.3666 34.5954 37.0026 34.9595 36.5536 34.9595H39.1553C39.6042 34.9595 39.9682 34.5955 39.9682 34.1464V33.1708C39.9682 32.7218 39.6042 32.3578 39.1553 32.3578Z" fill="#FADBA3"/>
<path d="M42.8041 60H24.1242C23.4454 60 22.8951 59.4497 22.8951 58.7708V57.9771C22.8951 57.2983 23.4454 56.7479 24.1242 56.7479H42.8041C43.483 56.7479 44.0333 57.2983 44.0333 57.9771V58.7708C44.0333 59.4497 43.483 60 42.8041 60Z" fill="#EAB14D"/>
<path d="M42.8042 56.7479H39.1457C39.8245 56.7479 40.3748 57.2983 40.3748 57.9771V58.7708C40.3748 59.4497 39.8245 60 39.1457 60H42.8042C43.483 60 44.0333 59.4497 44.0333 58.7708V57.9771C44.0333 57.2983 43.483 56.7479 42.8042 56.7479Z" fill="#EAB14D"/>
<path d="M39.6973 53.4959L37.9507 48.2563C37.5638 47.0957 37.3666 45.8804 37.3666 44.6569V37.5609H33.4642H29.5617V44.6569C29.5617 45.8803 29.3644 47.0957 28.9776 48.2563L27.2311 53.4959H39.6973Z" fill="#FADBA3"/>
<path d="M40.5163 56.7479H26.4121C25.8167 56.7479 25.3341 56.2653 25.3341 55.6699V54.5739C25.3341 53.9785 25.8167 53.4959 26.4121 53.4959H40.5162C41.1116 53.4959 41.5942 53.9785 41.5942 54.5739V55.6699C41.5942 56.2653 41.1117 56.7479 40.5163 56.7479Z" fill="#E8C078"/>
<path d="M40.5163 53.4959H37.752C38.3474 53.4959 38.8301 53.9785 38.8301 54.5739V55.6699C38.8301 56.2653 38.3474 56.7479 37.752 56.7479H40.5163C41.1116 56.7479 41.5943 56.2653 41.5943 55.6699V54.5739C41.5942 53.9785 41.1116 53.4959 40.5163 53.4959Z" fill="#E8C078"/>
<path d="M37.9507 48.2563C37.5638 47.0957 37.3666 45.8804 37.3666 44.657V43.2096C36.2334 48.2756 32.8583 51.9512 28.8707 51.9512C28.5005 51.9512 28.1356 51.9189 27.7773 51.8574L27.2311 53.4959H39.6973L37.9507 48.2563Z" fill="#FADBA3"/>
</svg>
