<svg width="81" height="80" viewBox="0 0 81 80" fill="none" xmlns="http://www.w3.org/2000/svg">
<path opacity="0.1" d="M80.4287 40C80.4287 50.6612 76.2572 60.3495 69.4557 67.52C65.1733 72.0375 59.8443 75.5559 53.8573 77.6898C49.6598 79.1853 45.1405 80 40.4287 80C35.717 80 31.1977 79.1853 27.0002 77.6898C21.0133 75.5559 15.6842 72.0375 11.4003 67.52C4.60009 60.3493 0.428589 50.6612 0.428589 40C0.428589 17.9086 18.3372 0 40.4286 0C62.52 0 80.4287 17.9083 80.4287 40Z" fill="#F490C0"/>
<path d="M48.9905 36.4925L50.6962 37.883C51.309 38.3826 52.2048 38.319 52.7409 37.7378L56.034 34.1667C56.5969 33.5563 56.223 32.5687 55.3977 32.4772C43.3733 31.144 39.2834 43.4268 39.2834 43.4268L40.2627 44.7006L47.4045 41.5258C48.2364 41.1561 48.7902 40.3504 48.8373 39.4414L48.9905 36.4925Z" fill="#FFB655"/>
<path d="M46.6268 41.8717L40.2627 44.7007L39.2833 43.4268C39.2833 43.4268 41.892 35.5933 49.0671 33.1172C48.229 34.799 46.9351 37.9532 46.6268 41.8717Z" fill="#FFB655"/>
<path d="M31.0094 36.4925L29.3038 37.883C28.6909 38.3826 27.7951 38.319 27.2591 37.7378L23.9659 34.1667C23.4031 33.5563 23.777 32.5687 24.6023 32.4772C36.6266 31.144 40.7166 43.4268 40.7166 43.4268L39.7372 44.7006L32.5954 41.5258C31.7635 41.1561 31.2098 40.3504 31.1626 39.4414L31.0094 36.4925Z" fill="#FF3F62"/>
<path d="M33.373 41.8717L39.7372 44.7007L40.7166 43.4268C40.7166 43.4268 38.1079 35.5933 30.9327 33.1172C31.7709 34.799 33.0648 37.9532 33.373 41.8717Z" fill="#FF3F62"/>
<path d="M35.4016 32.4039L33.2779 32.98C32.5148 33.1871 31.7224 32.7643 31.4693 32.0153L29.9143 27.4132C29.6485 26.6266 30.392 25.8767 31.183 26.1289C42.7094 29.804 41.4473 42.6882 41.4473 42.6882L40.0343 43.4532L34.8024 37.6472C34.1929 36.9708 34.015 36.0097 34.3417 35.16L35.4016 32.4039Z" fill="#00DDC2"/>
<path d="M37.1144 35.0809C36.6495 36.6013 36.4034 38.0528 36.2782 39.2851L40.0343 43.4533L41.4473 42.6883C41.4473 42.6883 42.0502 36.5302 38.6137 31.5143C38.0081 32.6107 37.5059 33.8004 37.1144 35.0809Z" fill="#00DDC2"/>
<path d="M44.6591 32.404L46.7829 32.9801C47.546 33.1872 48.3383 32.7644 48.5915 32.0154L50.1464 27.4133C50.4122 26.6266 49.6687 25.8767 48.8776 26.1289C37.3513 29.804 38.6134 42.6883 38.6134 42.6883L40.0264 43.4533L45.2584 37.6472C45.8678 36.9708 46.0457 36.0097 45.719 35.1601L44.6591 32.404Z" fill="#FFE477"/>
<path d="M41.3078 31.7214C38.0271 36.6979 38.6136 42.6883 38.6136 42.6883L40.0266 43.4533L42.2459 40.9904C41.2145 37.9321 41.1898 34.0992 41.3078 31.7214Z" fill="#FFE477"/>
<path d="M58.3888 42.9562L52.7229 43.3253L55.037 41.2057C55.6242 40.6678 55.3025 39.6861 54.5105 39.6045C50.398 39.1807 45.4053 39.6168 43.301 40.2471C41.9667 40.6468 40.8421 41.411 40 42.3968C39.158 41.411 38.0335 40.6468 36.6991 40.2471C34.5947 39.6169 29.6021 39.1807 25.4895 39.6045C24.6974 39.6861 24.3757 40.6679 24.963 41.2057L27.277 43.3253L21.6112 42.9562C20.3185 42.8721 19.5238 44.3532 20.3165 45.3778C22.9988 48.8448 29.89 52.7863 32.6921 53.6256C35.4218 54.4432 38.2578 53.51 39.9999 51.4774C41.742 53.5099 44.5781 54.4431 47.3078 53.6256C50.1099 52.7863 57.001 48.8448 59.6835 45.3778C60.4762 44.3532 59.6815 42.8721 58.3888 42.9562ZM37.1592 47.7796C36.832 48.9349 35.6304 49.6064 34.475 49.2793C33.3197 48.9522 29.5618 46.8769 29.8888 45.7216C30.2157 44.5663 34.504 44.7685 35.6593 45.0955C36.8147 45.4225 37.4862 46.6243 37.1592 47.7796ZM45.5249 49.2793C44.3695 49.6064 43.1678 48.935 42.8407 47.7796C42.5137 46.6243 43.1852 45.4225 44.3405 45.0954C45.4958 44.7684 49.7839 44.5662 50.111 45.7215C50.4381 46.8769 46.6802 48.9523 45.5249 49.2793Z" fill="#F490C0"/>
<path d="M36.0591 49.1215C36.0592 49.1214 36.0593 49.1213 36.0594 49.1213C35.5872 49.3637 35.0259 49.4352 34.475 49.2793C33.3197 48.9523 29.5618 46.8769 29.8887 45.7215C30.0134 45.2809 30.7143 45.038 31.5975 44.9238C31.5976 44.9239 31.5971 44.9237 31.5973 44.9238C31.5973 44.9238 28.228 45.0842 27.8839 46.2886C27.2094 48.6499 34.3187 50.2863 36.0591 49.1215Z" fill="#F490C0"/>
<path d="M43.9407 49.1215C43.9406 49.1214 43.9405 49.1213 43.9405 49.1213C44.4127 49.3637 44.9739 49.4352 45.5248 49.2793C46.6802 48.9523 50.4381 46.8769 50.1111 45.7215C49.9864 45.2809 49.2856 45.038 48.4023 44.9238C48.4022 44.9239 48.4027 44.9237 48.4025 44.9238C48.4025 44.9238 51.7719 45.0842 52.1159 46.2886C52.7906 48.6499 45.6812 50.2863 43.9407 49.1215Z" fill="#F490C0"/>
<path d="M21.6111 42.9597C20.4358 42.8832 19.6725 44.1005 20.1392 45.0923L27.2769 43.3289L21.6111 42.9597Z" fill="#F490C0"/>
<path d="M58.3891 42.9597C59.5644 42.8832 60.3276 44.1005 59.8609 45.0923L52.7232 43.3289L58.3891 42.9597Z" fill="#F490C0"/>
<path d="M28.3718 52.8643C29.0386 52.8643 29.5791 52.3238 29.5791 51.657C29.5791 50.9903 29.0386 50.4498 28.3718 50.4498C27.705 50.4498 27.1645 50.9903 27.1645 51.657C27.1645 52.3238 27.705 52.8643 28.3718 52.8643Z" fill="#96C8EF"/>
<path d="M26.6824 51.9886C27.4412 51.9886 28.0563 51.3736 28.0563 50.6148C28.0563 49.8561 27.4412 49.241 26.6824 49.241C25.9237 49.241 25.3086 49.8561 25.3086 50.6148C25.3086 51.3736 25.9237 51.9886 26.6824 51.9886Z" fill="#B9D8F4"/>
<path d="M24.5311 50.8774C25.5011 50.8774 26.2874 50.0911 26.2874 49.1211C26.2874 48.1511 25.5011 47.3647 24.5311 47.3647C23.5611 47.3647 22.7748 48.1511 22.7748 49.1211C22.7748 50.0911 23.5611 50.8774 24.5311 50.8774Z" fill="#D1E7F8"/>
<path d="M51.682 52.8643C52.3488 52.8643 52.8893 52.3238 52.8893 51.657C52.8893 50.9903 52.3488 50.4498 51.682 50.4498C51.0153 50.4498 50.4748 50.9903 50.4748 51.657C50.4748 52.3238 51.0153 52.8643 51.682 52.8643Z" fill="#96C8EF"/>
<path d="M53.3705 51.9886C54.1293 51.9886 54.7444 51.3736 54.7444 50.6148C54.7444 49.8561 54.1293 49.241 53.3705 49.241C52.6118 49.241 51.9967 49.8561 51.9967 50.6148C51.9967 51.3736 52.6118 51.9886 53.3705 51.9886Z" fill="#B9D8F4"/>
<path d="M55.5227 50.8774C56.4927 50.8774 57.279 50.0911 57.279 49.1211C57.279 48.1511 56.4927 47.3647 55.5227 47.3647C54.5527 47.3647 53.7663 48.1511 53.7663 49.1211C53.7663 50.0911 54.5527 50.8774 55.5227 50.8774Z" fill="#D1E7F8"/>
<path d="M40.0265 44.9239C40.8337 44.9239 41.488 43.5835 41.488 41.9299C41.488 40.2764 40.8337 38.9359 40.0265 38.9359C39.2193 38.9359 38.5649 40.2764 38.5649 41.9299C38.5649 43.5835 39.2193 44.9239 40.0265 44.9239Z" fill="#96C8EF"/>
<path d="M40.0266 41.9299C40.0266 40.822 40.3205 39.8553 40.7572 39.3376C40.5422 39.0827 40.2928 38.936 40.0266 38.936C39.2195 38.936 38.5652 40.2765 38.5652 41.9299C38.5652 43.5834 39.2195 44.9239 40.0266 44.9239C40.2928 44.9239 40.5422 44.7772 40.7572 44.5223C40.3205 44.0046 40.0266 43.038 40.0266 41.9299Z" fill="#96C8EF"/>
</svg>
