<svg width="81" height="80" viewBox="0 0 81 80" fill="none" xmlns="http://www.w3.org/2000/svg">
<path d="M80.2859 40C80.2859 50.6612 76.1144 60.3495 69.3128 67.52C65.0304 72.0375 59.7014 75.5559 53.7144 77.6898C49.5169 79.1853 44.9976 80 40.2859 80C35.5741 80 31.0548 79.1853 26.8573 77.6898C20.8705 75.5559 15.5414 72.0375 11.2574 67.52C4.4572 60.3493 0.285706 50.6612 0.285706 40C0.285706 17.9086 18.1943 0 40.2857 0C62.3771 0 80.2859 17.9083 80.2859 40Z" fill="#EBF0FC"/>
<g clip-path="url(#clip0)">
<path d="M44.8104 23L60.0058 25.9555L55.8711 47.2137L40.6757 44.2582L44.8104 23Z" fill="white"/>
<path d="M45.3092 27.0406L44.935 26.8081L46.5376 24.2285L46.9402 24.3062L47.4503 27.2979L47.016 27.3719L46.6041 24.9562L45.3092 27.0406Z" fill="#CF3B00"/>
<path d="M46.9868 26.6694L45.6051 26.4008C45.4858 26.3776 45.4077 26.262 45.431 26.1426C45.4542 26.0232 45.5698 25.9452 45.6892 25.9684L47.0708 26.237C47.1902 26.2602 47.2683 26.3759 47.245 26.4952C47.2218 26.6146 47.1062 26.6927 46.9868 26.6694Z" fill="#CF3B00"/>
<path d="M55.3082 43.3722L55.6825 43.6047L54.0799 46.1844L53.6773 46.1066L53.1671 43.1149L53.6014 43.0408L54.0133 45.4566L55.3082 43.3722Z" fill="#CF3B00"/>
<path d="M53.6306 43.7433L55.0123 44.0119C55.1317 44.0351 55.2097 44.1508 55.1865 44.2701C55.1633 44.3895 55.0477 44.4676 54.9283 44.4443L53.5466 44.1757C53.4272 44.1525 53.3492 44.0369 53.3724 43.9175C53.3956 43.798 53.5113 43.7201 53.6306 43.7433Z" fill="#CF3B00"/>
<path d="M54.9821 32.983C54.073 31.6351 52.2433 31.2793 50.8953 32.1882C49.986 30.8405 48.1564 30.485 46.8085 31.3941C45.4606 32.3033 45.1048 34.1329 46.0137 35.4809L46.0133 35.4812L49.306 40.3628L49.3064 40.3625L49.3067 40.3629L54.1883 37.0702L54.188 37.0698C55.5358 36.1605 55.8913 34.3308 54.9821 32.983Z" fill="#CF3B00"/>
<path d="M20 35.7118L35.1954 32.7563L39.3301 54.0145L24.1347 56.97L20 35.7118Z" fill="white"/>
<path d="M21.9811 39.2706L21.547 39.1952L22.0666 36.2031L22.469 36.1243L24.0626 38.7071L23.6877 38.9384L22.4009 36.8529L21.9811 39.2706Z" fill="#FF4C04"/>
<path d="M23.3975 38.2982L22.0158 38.5668C21.8964 38.59 21.7808 38.512 21.7576 38.3926C21.7344 38.2732 21.8124 38.1575 21.9318 38.1343L23.3134 37.8657C23.4328 37.8425 23.5485 37.9205 23.5717 38.0399C23.5949 38.1593 23.517 38.275 23.3975 38.2982Z" fill="#FF4C04"/>
<path d="M37.3699 50.6674L37.804 50.7427L37.2844 53.7349L36.882 53.8136L35.2883 51.2309L35.6633 50.9995L36.9501 53.085L37.3699 50.6674Z" fill="#FF4C04"/>
<path d="M35.9536 51.6397L37.3352 51.3711C37.4546 51.3479 37.5703 51.4259 37.5935 51.5453C37.6167 51.6647 37.5387 51.7803 37.4193 51.8035L36.0376 52.0722C35.9182 52.0954 35.8026 52.0173 35.7794 51.898C35.7561 51.7786 35.8341 51.6629 35.9536 51.6397Z" fill="#FF4C04"/>
<path d="M25.292 45.6974L28.8012 40.4933L34.0054 44.0025L30.4962 49.2066L25.292 45.6974Z" fill="#FF4C04"/>
<g filter="url(#filter0_d)">
<path d="M40.1939 52.904H31.1689V27.6532H40.1939L42.6215 40.3766L40.1939 52.904Z" fill="white"/>
</g>
<path d="M40.194 27.6532H49.2183V52.904H40.194V27.6532Z" fill="white"/>
<path d="M32.6517 32.177L32.1715 31.994L33.4324 28.6836L33.9106 28.6831L35.1606 31.995L34.6798 32.1765L33.6705 29.5021L32.6517 32.177Z" fill="#5A5555"/>
<path d="M34.49 31.3789H32.8482C32.7064 31.3789 32.5913 31.2639 32.5913 31.1221C32.5913 30.9802 32.7064 30.8652 32.8482 30.8652H34.49C34.6319 30.8652 34.7469 30.9802 34.7469 31.1221C34.7469 31.2639 34.6319 31.3789 34.49 31.3789Z" fill="#5A5555"/>
<path d="M47.7355 48.6513L48.2157 48.8342L46.9548 52.1446L46.4766 52.1452L45.2266 48.8331L45.7075 48.6517L46.7167 51.326L47.7355 48.6513Z" fill="#464141"/>
<path d="M45.8972 49.4494H47.539C47.6808 49.4494 47.7959 49.5644 47.7959 49.7063C47.7959 49.8481 47.6808 49.9632 47.539 49.9632H45.8972C45.7553 49.9632 45.6403 49.8481 45.6403 49.7063C45.6403 49.5644 45.7553 49.4494 45.8972 49.4494Z" fill="#464141"/>
<path d="M40.194 47.2333L40.8056 40.3766L40.194 33.6851L35.3374 38.5418C33.9962 39.8829 33.9962 42.0572 35.3374 43.3984C36.4414 44.5024 38.1097 44.6966 39.4135 43.9829L38.8469 47.2332H40.194V47.2333Z" fill="#464141"/>
<path d="M41.5095 47.2333L40.9397 43.964C42.2483 44.6999 43.9362 44.5121 45.0499 43.3984C46.3908 42.0574 46.3911 39.8833 45.0503 38.5422L45.0507 38.5418L40.1941 33.6851V47.2332H41.5095V47.2333Z" fill="#464141"/>
</g>
<defs>
<filter id="filter0_d" x="22.1689" y="19.6532" width="29.4526" height="43.2508" filterUnits="userSpaceOnUse" color-interpolation-filters="sRGB">
<feFlood flood-opacity="0" result="BackgroundImageFix"/>
<feColorMatrix in="SourceAlpha" type="matrix" values="0 0 0 0 0 0 0 0 0 0 0 0 0 0 0 0 0 0 127 0"/>
<feOffset dy="1"/>
<feGaussianBlur stdDeviation="4.5"/>
<feColorMatrix type="matrix" values="0 0 0 0 0 0 0 0 0 0 0 0 0 0 0 0 0 0 0.15 0"/>
<feBlend mode="normal" in2="BackgroundImageFix" result="effect1_dropShadow"/>
<feBlend mode="normal" in="SourceGraphic" in2="effect1_dropShadow" result="shape"/>
</filter>
<clipPath id="clip0">
<rect width="40" height="40" fill="white" transform="translate(20 20)"/>
</clipPath>
</defs>
</svg>
