<svg width="80" height="80" viewBox="0 0 80 80" fill="none" xmlns="http://www.w3.org/2000/svg">
<path d="M80.0002 40C80.0002 50.6612 75.8287 60.3495 69.0271 67.52C64.7447 72.0375 59.4157 75.5559 53.4287 77.6898C49.2312 79.1853 44.7119 80 40.0002 80C35.2884 80 30.7691 79.1853 26.5716 77.6898C20.5848 75.5559 15.2556 72.0375 10.9717 67.52C4.1715 60.3493 0 50.6612 0 40C0 17.9086 17.9086 0 40 0C62.0914 0 80.0002 17.9083 80.0002 40Z" fill="#FEEFFC"/>
<path d="M54.4137 38.6206C53.7613 31.7102 48.2898 26.2387 41.3794 25.5862C40.462 25.4944 39.5379 25.4944 38.6206 25.5862C31.7102 26.2387 26.2387 31.7102 25.5862 38.6206C25.4944 39.538 25.4944 40.462 25.5862 41.3794C26.2387 48.2898 31.7102 53.7613 38.6206 54.4138C39.5379 54.5056 40.462 54.5056 41.3794 54.4138C48.2898 53.7613 53.7613 48.2898 54.4137 41.3794C54.5056 40.462 54.5056 39.538 54.4137 38.6206ZM50.9448 41.3794C50.3192 46.3803 46.3803 50.3192 41.3794 50.9448C40.4635 51.0645 39.5364 51.0645 38.6206 50.9448C33.6197 50.3192 29.6808 46.3803 29.0552 41.3794C28.9355 40.4636 28.9355 39.5364 29.0552 38.6206C29.6808 33.6197 33.6197 29.6808 38.6206 29.0552C39.5364 28.9355 40.4635 28.9355 41.3794 29.0552C46.3803 29.6808 50.3192 33.6197 50.9448 38.6206C51.0644 39.5364 51.0644 40.4636 50.9448 41.3794Z" fill="#804537"/>
<path d="M37.7036 44.2484L37.338 44.6136L33.2346 48.7173C32.5037 48.1522 31.8478 47.4963 31.2827 46.7654L35.3864 42.662L35.7516 42.3035C36.2012 43.1265 36.879 43.8019 37.7036 44.2484Z" fill="#7F6E5D"/>
<path d="M41.3794 44.6277V50.9448C40.4636 51.0645 39.5364 51.0645 38.6206 50.9448V44.6277C39.5209 44.8941 40.4791 44.8941 41.3794 44.6277Z" fill="#7F6E5D"/>
<path d="M48.7173 46.7654C48.1522 47.4963 47.4963 48.1522 46.7654 48.7173L42.662 44.6136L42.2964 44.2484C43.121 43.8019 43.7988 43.1265 44.2484 42.3035L44.6136 42.662L48.7173 46.7654Z" fill="#7F6E5D"/>
<path d="M51.0346 40C51.0361 40.4614 51.0062 40.9222 50.9448 41.3794H44.6277C44.8941 40.4791 44.8941 39.5209 44.6277 38.6206H50.9448C51.0062 39.0778 51.0361 39.5386 51.0346 40Z" fill="#7F6E5D"/>
<path d="M48.7173 33.2346L44.6136 37.338L44.2484 37.7036C43.8019 36.879 43.1265 36.2012 42.3035 35.7516L42.662 35.3864L46.7654 31.2827C47.4963 31.8478 48.1522 32.5037 48.7173 33.2346Z" fill="#7F6E5D"/>
<path d="M41.3794 29.0552V35.3723C40.4791 35.1059 39.5209 35.1059 38.6206 35.3723V29.0552C39.5364 28.9355 40.4636 28.9355 41.3794 29.0552Z" fill="#7F6E5D"/>
<path d="M37.6965 35.7516C36.8735 36.2012 36.1981 36.879 35.7516 37.7036L35.3864 37.338L31.2827 33.2346C31.8478 32.5037 32.5037 31.8478 33.2346 31.2827L37.338 35.3864L37.6965 35.7516Z" fill="#7F6E5D"/>
<path d="M35.1724 40C35.1712 40.4672 35.2383 40.9317 35.3723 41.3794H29.0552C28.9355 40.4636 28.9355 39.5364 29.0552 38.6206H35.3723C35.2383 39.0683 35.1712 39.5328 35.1724 40Z" fill="#7F6E5D"/>
<path d="M44.6277 38.6206C44.2627 37.3947 43.4271 36.3632 42.3035 35.7516H42.2964C42.0047 35.5942 41.6971 35.4672 41.3794 35.3723C40.4791 35.1059 39.5209 35.1059 38.6206 35.3723C38.3029 35.4672 37.9953 35.5942 37.7035 35.7516H37.6965C36.5729 36.3632 35.7373 37.3947 35.3723 38.6206C35.1059 39.5209 35.1059 40.4791 35.3723 41.3794C35.4672 41.6971 35.5942 42.0047 35.7516 42.2964V42.3035C36.3632 43.4271 37.3947 44.2627 38.6206 44.6277C39.5209 44.8941 40.4791 44.8941 41.3794 44.6277C42.6053 44.2627 43.6368 43.4271 44.2483 42.3035V42.2964C44.4058 42.0047 44.5328 41.6971 44.6277 41.3794C44.8941 40.4791 44.8941 39.5209 44.6277 38.6206ZM40 42.0691C38.8574 42.0691 37.9309 41.1426 37.9309 40C37.9309 38.8574 38.8574 37.9309 40 37.9309C41.1426 37.9309 42.0691 38.8574 42.0691 40C42.0654 41.1414 41.1413 42.0654 40 42.0691Z" fill="#804537"/>
<path d="M41.3794 21.3794V25.5862C40.462 25.4944 39.538 25.4944 38.6206 25.5862V21.3794C38.6206 20.6177 39.2383 20 40 20C40.7617 20 41.3794 20.6177 41.3794 21.3794Z" fill="#7F6E5D"/>
<path d="M30.7794 28.8275C30.0681 29.4147 29.4147 30.0681 28.8275 30.7794L25.8551 27.807C25.3162 27.2681 25.3162 26.394 25.8551 25.8551C26.394 25.3162 27.2681 25.3162 27.807 25.8551L30.7794 28.8275Z" fill="#7F6E5D"/>
<path d="M30.7861 28.8345L30.7794 28.8275L30.7861 28.8345Z" fill="#CC6F56"/>
<path d="M28.8345 30.7861L28.8275 30.7794L28.8345 30.7861Z" fill="#CC6F56"/>
<path d="M25.5173 40C25.5161 40.4605 25.5389 40.921 25.5862 41.3794H21.3794C20.6177 41.3794 20 40.7617 20 40C20 39.2383 20.6177 38.6206 21.3794 38.6206H25.5862C25.5389 39.079 25.5161 39.5395 25.5173 40Z" fill="#7F6E5D"/>
<path d="M30.7794 51.1725L27.807 54.1449C27.2681 54.6838 26.394 54.6838 25.8551 54.1449C25.3162 53.606 25.3162 52.7319 25.8551 52.193L28.8275 49.2206C29.4147 49.9319 30.0681 50.5853 30.7794 51.1725Z" fill="#7F6E5D"/>
<path d="M28.8345 49.2139L28.8275 49.2206L28.8345 49.2139Z" fill="#CC6F56"/>
<path d="M41.3794 54.4138V58.6206C41.3794 59.3823 40.7617 60 40 60C39.2383 60 38.6206 59.3823 38.6206 58.6206V54.4138C39.538 54.5056 40.462 54.5056 41.3794 54.4138Z" fill="#7F6E5D"/>
<path d="M54.1449 54.1449C53.6026 54.6759 52.7353 54.6759 52.193 54.1449L49.2206 51.1725C49.9319 50.5853 50.5853 49.9319 51.1725 49.2206L54.1449 52.193C54.6759 52.7353 54.6759 53.6026 54.1449 54.1449Z" fill="#7F6E5D"/>
<path d="M60 40C59.9979 40.7608 59.3814 41.377 58.6206 41.3794H54.4138C54.5056 40.462 54.5056 39.538 54.4138 38.6206H58.6206C59.3814 38.623 59.9979 39.2392 60 40Z" fill="#7F6E5D"/>
<path d="M54.1449 27.807L51.1725 30.7794C50.5853 30.0681 49.9319 29.4147 49.2206 28.8275L52.193 25.8551C52.7319 25.3162 53.606 25.3162 54.1449 25.8551C54.6838 26.394 54.6838 27.2681 54.1449 27.807Z" fill="#7F6E5D"/>
<path d="M49.2206 28.8275L49.2139 28.8345L49.2206 28.8275Z" fill="#CC6F56"/>
</svg>
