<svg width="81" height="80" viewBox="0 0 81 80" fill="none" xmlns="http://www.w3.org/2000/svg">
<path d="M80.8573 40C80.8573 50.6612 76.6858 60.3495 69.8842 67.52C65.6018 72.0375 60.2729 75.5559 54.2859 77.6898C50.0884 79.1853 45.5691 80 40.8573 80C36.1456 80 31.6263 79.1853 27.4288 77.6898C21.4419 75.5559 16.1128 72.0375 11.8289 67.52C5.02867 60.3493 0.857178 50.6612 0.857178 40C0.857178 17.9086 18.7658 0 40.8572 0C62.9486 0 80.8573 17.9083 80.8573 40Z" fill="#EBF0FC"/>
<path d="M44.9927 42.3751V42.4552L48.4222 45.9916C49.1763 46.7787 49.1763 48.0204 48.4222 48.8075L38.3868 59.1364C38.0301 59.5106 37.5359 59.7223 37.0187 59.7223C36.5019 59.7223 36.0077 59.5106 35.651 59.1364L25.6223 48.8075C24.8614 48.0228 24.8614 46.776 25.6223 45.9916L35.651 35.6624C36.0077 35.2885 36.5019 35.0768 37.0187 35.0768C37.5359 35.0768 38.0301 35.2885 38.3868 35.6624L38.9806 36.2763" fill="#CC4B4C"/>
<path d="M33.9496 44.8105C33.4282 45.3312 32.5834 45.3309 32.0626 44.8098C31.5415 44.2888 31.5415 43.4442 32.0626 42.9231C32.5834 42.4017 33.4282 42.4014 33.9496 42.9222C34.2001 43.1727 34.3409 43.5123 34.3409 43.8663C34.3409 44.2206 34.2001 44.5603 33.9496 44.8105Z" fill="#35495E"/>
<path d="M38.0438 47.4895C38.0438 48.2271 37.446 48.8249 36.7087 48.8249C35.971 48.8249 35.3733 48.2271 35.3733 47.4895C35.3733 46.7522 35.971 46.1544 36.7087 46.1544C37.446 46.1544 38.0438 46.7522 38.0438 47.4895Z" fill="#35495E"/>
<path d="M41.3227 52.0568C40.8032 52.5767 39.9607 52.5764 39.4409 52.0568C38.9213 51.5373 38.9213 50.6948 39.4409 50.1753C39.9607 49.6557 40.8032 49.6557 41.3227 50.1753C41.5756 50.423 41.718 50.762 41.718 51.1161C41.718 51.4701 41.5756 51.8091 41.3227 52.0568Z" fill="#35495E"/>
<path d="M40.9825 23.692H55.6619C56.7676 23.692 57.6638 24.5882 57.6638 25.6939V40.3732C57.6638 41.479 56.7676 42.3751 55.6619 42.3751H40.9825C39.8768 42.3751 38.9807 41.479 38.9807 40.3732V25.6939C38.9807 24.5882 39.8768 23.692 40.9825 23.692Z" fill="#4482C3"/>
<path d="M46.3205 27.6955C46.3205 28.4325 45.723 29.0299 44.986 29.0299C44.2489 29.0299 43.6515 28.4325 43.6515 27.6955C43.6515 26.9584 44.2489 26.361 44.986 26.361C45.723 26.361 46.3205 26.9584 46.3205 27.6955Z" fill="#2C3E50"/>
<path d="M46.3205 33.0334C46.3205 33.7704 45.723 34.3679 44.986 34.3679C44.2489 34.3679 43.6515 33.7704 43.6515 33.0334C43.6515 32.2964 44.2489 31.6989 44.986 31.6989C45.723 31.6989 46.3205 32.2964 46.3205 33.0334Z" fill="#2C3E50"/>
<path d="M46.3205 38.3717C46.3205 39.1087 45.723 39.7062 44.986 39.7062C44.2489 39.7062 43.6515 39.1087 43.6515 38.3717C43.6515 37.6346 44.2489 37.0372 44.986 37.0372C45.723 37.0372 46.3205 37.6346 46.3205 38.3717Z" fill="#2C3E50"/>
<path d="M52.9929 27.6955C52.9929 28.4325 52.3954 29.0299 51.6584 29.0299C50.9214 29.0299 50.3239 28.4325 50.3239 27.6955C50.3239 26.9584 50.9214 26.361 51.6584 26.361C52.3954 26.361 52.9929 26.9584 52.9929 27.6955Z" fill="#2C3E50"/>
<path d="M52.9929 33.0334C52.9929 33.7704 52.3954 34.3679 51.6584 34.3679C50.9214 34.3679 50.3239 33.7704 50.3239 33.0334C50.3239 32.2964 50.9214 31.6989 51.6584 31.6989C52.3954 31.6989 52.9929 32.2964 52.9929 33.0334Z" fill="#2C3E50"/>
<path d="M52.9929 38.3717C52.9929 39.1087 52.3954 39.7062 51.6584 39.7062C50.9214 39.7062 50.3239 39.1087 50.3239 38.3717C50.3239 37.6346 50.9214 37.0372 51.6584 37.0372C52.3954 37.0372 52.9929 37.6346 52.9929 38.3717Z" fill="#2C3E50"/>
</svg>
