<svg width="80" height="80" viewBox="0 0 80 80" fill="none" xmlns="http://www.w3.org/2000/svg">
<path d="M80.0002 40C80.0002 50.6612 75.8287 60.3495 69.0271 67.52C64.7447 72.0375 59.4157 75.5559 53.4287 77.6898C49.2312 79.1853 44.7119 80 40.0002 80C35.2884 80 30.7691 79.1853 26.5716 77.6898C20.5848 75.5559 15.2556 72.0375 10.9717 67.52C4.1715 60.3493 0 50.6612 0 40C0 17.9086 17.9086 0 40 0C62.0914 0 80.0002 17.9083 80.0002 40Z" fill="#EBF5E0"/>
<path d="M31.0345 20H48.2758C49.0378 20 49.6552 20.6177 49.6552 21.3794V28.2758C49.6552 29.0378 49.0378 29.6552 48.2758 29.6552H31.0345C30.2728 29.6552 29.6552 29.0378 29.6552 28.2758V21.3794C29.6552 20.6177 30.2728 20 31.0345 20Z" fill="#FF5364"/>
<path d="M32.4139 23.4482C32.1829 23.4506 31.9669 23.3362 31.8387 23.1442C31.7108 22.9523 31.6885 22.7087 31.7792 22.4966C31.8143 22.413 31.8634 22.3361 31.9241 22.269C32.2006 22.0139 32.6269 22.0139 32.9034 22.269C32.9642 22.3361 33.0133 22.413 33.0484 22.4966C33.139 22.7087 33.1168 22.9523 32.9889 23.1442C32.8607 23.3362 32.6446 23.4506 32.4139 23.4482Z" fill="#59474E"/>
<path d="M32.4139 27.5861C32.1829 27.5885 31.9669 27.4741 31.8387 27.2821C31.7108 27.0901 31.6885 26.8466 31.7792 26.6345C31.8143 26.5509 31.8634 26.474 31.9241 26.4069C32.2006 26.1517 32.6269 26.1517 32.9034 26.4069C32.9642 26.474 33.0133 26.5509 33.0484 26.6345C33.139 26.8466 33.1168 27.0901 32.9889 27.2821C32.8607 27.4741 32.6446 27.5885 32.4139 27.5861Z" fill="#59474E"/>
<path d="M36.5518 27.5861C36.3211 27.5885 36.1047 27.4741 35.9766 27.2821C35.8487 27.0901 35.8264 26.8466 35.9174 26.6345C35.9521 26.5509 36.0013 26.474 36.062 26.4069C36.3385 26.1517 36.7648 26.1517 37.0413 26.4069C37.1023 26.474 37.1512 26.5509 37.1863 26.6345C37.2772 26.8466 37.2546 27.0901 37.1268 27.2821C36.9989 27.4741 36.7825 27.5885 36.5518 27.5861Z" fill="#59474E"/>
<path d="M36.5518 23.4399C36.3211 23.4424 36.1047 23.3279 35.9766 23.136C35.8487 22.944 35.8264 22.7005 35.9174 22.4884C35.9521 22.4048 36.001 22.3276 36.062 22.2607C36.3385 22.0047 36.7651 22.0047 37.0413 22.2607C37.1023 22.3276 37.1515 22.4048 37.1863 22.4884C37.2772 22.7005 37.2546 22.944 37.1268 23.136C36.9989 23.3279 36.7825 23.4424 36.5518 23.4399Z" fill="#59474E"/>
<path d="M34.4788 25.513C34.2477 25.5154 34.0317 25.401 33.9035 25.209C33.7756 25.0171 33.7534 24.7736 33.844 24.5615C33.8791 24.4778 33.9279 24.4006 33.9889 24.3338C34.2654 24.0787 34.6918 24.0787 34.9683 24.3338C35.0293 24.4006 35.0784 24.4778 35.1132 24.5615C35.2042 24.7736 35.1816 25.0171 35.0537 25.209C34.9255 25.401 34.7095 25.5154 34.4788 25.513Z" fill="#59474E"/>
<path d="M42.7628 27.5861C42.5321 27.5885 42.3157 27.4741 42.1878 27.2821C42.0597 27.0901 42.0374 26.8466 42.1283 26.6345C42.1634 26.5509 42.2123 26.474 42.2733 26.4069C42.5498 26.1517 42.9758 26.1517 43.2526 26.4069C43.3133 26.474 43.3621 26.5509 43.3972 26.6345C43.4882 26.8466 43.4659 27.0901 43.3377 27.2821C43.2099 27.4741 42.9935 27.5885 42.7628 27.5861Z" fill="#59474E"/>
<path d="M46.9007 23.4399C46.67 23.4424 46.4536 23.3279 46.3257 23.136C46.1975 22.944 46.1753 22.7005 46.2662 22.4884C46.301 22.4048 46.3501 22.3276 46.4112 22.2607C46.6873 22.0047 47.114 22.0047 47.3905 22.2607C47.4515 22.3276 47.5003 22.4048 47.5351 22.4884C47.6261 22.7005 47.6038 22.944 47.4756 23.136C47.3477 23.3279 47.1314 23.4424 46.9007 23.4399Z" fill="#59474E"/>
<path d="M44.8276 25.513C44.5969 25.5154 44.3805 25.401 44.2527 25.209C44.1245 25.0171 44.1022 24.7736 44.1931 24.5615C44.2279 24.4778 44.2771 24.4006 44.3381 24.3338C44.6146 24.0787 45.0406 24.0787 45.3174 24.3338C45.3781 24.4006 45.4273 24.4778 45.4621 24.5615C45.553 24.7736 45.5307 25.0171 45.4026 25.209C45.2747 25.401 45.0583 25.5154 44.8276 25.513Z" fill="#59474E"/>
<path d="M39.3103 20H40.6897V29.6552H39.3103V20Z" fill="#FB7B76"/>
<path d="M41.3794 50.3448H58.6206C59.3823 50.3448 60 50.9622 60 51.7242V58.6206C60 59.3823 59.3823 60 58.6206 60H41.3794C40.6177 60 40 59.3823 40 58.6206V51.7242C40 50.9622 40.6177 50.3448 41.3794 50.3448Z" fill="#FF5364"/>
<path d="M42.7585 53.793C42.5278 53.7955 42.3117 53.681 42.1835 53.4891C42.0557 53.2971 42.0331 53.0536 42.124 52.8415C42.1591 52.7579 42.2083 52.681 42.269 52.6138C42.5455 52.3587 42.9718 52.3587 43.2483 52.6138C43.309 52.681 43.3581 52.7579 43.3932 52.8415C43.4839 53.0536 43.4616 53.2971 43.3337 53.4891C43.2056 53.681 42.9895 53.7955 42.7585 53.793Z" fill="#59474E"/>
<path d="M42.7585 57.9309C42.5278 57.9333 42.3117 57.8189 42.1835 57.627C42.0557 57.435 42.0331 57.1915 42.124 56.9794C42.1591 56.8958 42.2083 56.8188 42.269 56.7517C42.5455 56.4966 42.9718 56.4966 43.2483 56.7517C43.309 56.8188 43.3581 56.8958 43.3932 56.9794C43.4839 57.1915 43.4616 57.435 43.3337 57.627C43.2056 57.8189 42.9895 57.9333 42.7585 57.9309Z" fill="#59474E"/>
<path d="M46.8967 57.9309C46.6659 57.9333 46.4496 57.8189 46.3214 57.627C46.1935 57.435 46.1713 57.1915 46.2622 56.9794C46.297 56.8958 46.3461 56.8188 46.4069 56.7517C46.6833 56.4966 47.1097 56.4966 47.3862 56.7517C47.4472 56.8188 47.496 56.8958 47.5311 56.9794C47.6221 57.1915 47.5995 57.435 47.4716 57.627C47.3434 57.8189 47.1274 57.9333 46.8967 57.9309Z" fill="#59474E"/>
<path d="M46.8967 53.7848C46.6659 53.7872 46.4496 53.6728 46.3214 53.4808C46.1935 53.2889 46.1713 53.045 46.2622 52.8333C46.297 52.7493 46.3458 52.6724 46.4069 52.6056C46.6833 52.3495 47.11 52.3495 47.3862 52.6056C47.4472 52.6724 47.4963 52.7493 47.5311 52.8333C47.6221 53.045 47.5995 53.2889 47.4716 53.4808C47.3434 53.6728 47.1274 53.7872 46.8967 53.7848Z" fill="#59474E"/>
<path d="M44.8233 55.8578C44.5926 55.8603 44.3765 55.7458 44.2483 55.5539C44.1205 55.3619 44.0982 55.1184 44.1888 54.9063C44.2236 54.8227 44.2728 54.7455 44.3338 54.6786C44.6103 54.4235 45.0366 54.4235 45.3131 54.6786C45.3741 54.7455 45.423 54.8227 45.4581 54.9063C45.5487 55.1184 45.5264 55.3619 45.3985 55.5539C45.2704 55.7458 45.0543 55.8603 44.8233 55.8578Z" fill="#59474E"/>
<path d="M53.1076 57.9309C52.8769 57.9333 52.6606 57.8189 52.5327 57.627C52.4045 57.435 52.3822 57.1915 52.4732 56.9794C52.5083 56.8958 52.5571 56.8188 52.6178 56.7517C52.8946 56.4966 53.3206 56.4966 53.5971 56.7517C53.6582 56.8188 53.707 56.8958 53.7421 56.9794C53.833 57.1915 53.8108 57.435 53.6826 57.627C53.5547 57.8189 53.3383 57.9333 53.1076 57.9309Z" fill="#59474E"/>
<path d="M57.2455 53.7848C57.0148 53.7872 56.7984 53.6728 56.6706 53.4808C56.5424 53.2889 56.5201 53.045 56.6111 52.8333C56.6458 52.7493 56.695 52.6724 56.756 52.6056C57.0322 52.3495 57.4588 52.3495 57.7353 52.6056C57.7964 52.6724 57.8452 52.7493 57.88 52.8333C57.9709 53.045 57.9486 53.2889 57.8205 53.4808C57.6926 53.6728 57.4762 53.7872 57.2455 53.7848Z" fill="#59474E"/>
<path d="M55.1725 55.8578C54.9417 55.8603 54.7254 55.7458 54.5975 55.5539C54.4693 55.3619 54.4471 55.1184 54.538 54.9063C54.5728 54.8227 54.6219 54.7455 54.6826 54.6786C54.9594 54.4235 55.3855 54.4235 55.662 54.6786C55.723 54.7455 55.7721 54.8227 55.8069 54.9063C55.8979 55.1184 55.8756 55.3619 55.7474 55.5539C55.6195 55.7458 55.4032 55.8603 55.1725 55.8578Z" fill="#59474E"/>
<path d="M49.6552 50.3448H51.0345V60H49.6552V50.3448Z" fill="#FB7B76"/>
<path d="M41.3794 29.6552H48.2758C49.0378 29.6552 49.6552 30.2728 49.6552 31.0345V48.9655C49.6552 49.7272 49.0378 50.3448 48.2758 50.3448H41.3794C40.6177 50.3448 40 49.7272 40 48.9655V31.0345C40 30.2728 40.6177 29.6552 41.3794 29.6552Z" fill="#46B29D"/>
<path d="M45.513 45.5212C45.5154 45.7523 45.401 45.9683 45.209 46.0965C45.0171 46.2244 44.7736 46.2466 44.5615 46.156C44.4778 46.1209 44.4006 46.0721 44.3338 46.011C44.0787 45.7346 44.0787 45.3082 44.3338 45.0317C44.4006 44.9707 44.4778 44.9216 44.5615 44.8868C44.7736 44.7958 45.0171 44.8184 45.209 44.9463C45.401 45.0745 45.5154 45.2905 45.513 45.5212Z" fill="#59474E"/>
<path d="M43.4482 36.5518C43.4506 36.7825 43.3362 36.9989 43.1442 37.1268C42.9523 37.2546 42.7087 37.2772 42.4966 37.1863C42.413 37.1512 42.3361 37.1023 42.269 37.0413C42.0139 36.7648 42.0139 36.3385 42.269 36.062C42.3361 36.0013 42.413 35.9521 42.4966 35.9174C42.7087 35.8264 42.9523 35.8487 43.1442 35.9766C43.3362 36.1047 43.4506 36.3211 43.4482 36.5518Z" fill="#59474E"/>
<path d="M47.5861 32.414C47.5885 32.6447 47.4741 32.8607 47.2821 32.9889C47.0901 33.1168 46.8466 33.139 46.6345 33.0484C46.5509 33.0133 46.474 32.9642 46.4069 32.9035C46.1517 32.627 46.1517 32.2006 46.4069 31.9241C46.474 31.8634 46.5509 31.8143 46.6345 31.7792C46.8466 31.6885 47.0901 31.7108 47.2821 31.8387C47.4741 31.9669 47.5885 32.1829 47.5861 32.414Z" fill="#59474E"/>
<path d="M40 39.3103H49.6552V40.6897H40V39.3103Z" fill="#65DDB9"/>
<path d="M21.3794 20H28.2758C29.0378 20 29.6552 20.6177 29.6552 21.3794V38.6206C29.6552 39.3823 29.0378 40 28.2758 40H21.3794C20.6177 40 20 39.3823 20 38.6206V21.3794C20 20.6177 20.6177 20 21.3794 20Z" fill="#46B29D"/>
<path d="M23.4482 37.2415C23.4506 37.4722 23.3362 37.6883 23.1442 37.8165C22.9523 37.9443 22.7087 37.9669 22.4966 37.876C22.413 37.8409 22.3361 37.7917 22.269 37.731C22.0139 37.4545 22.0139 37.0282 22.269 36.7517C22.3361 36.691 22.413 36.6418 22.4966 36.6067C22.7087 36.5161 22.9523 36.5384 23.1442 36.6663C23.3362 36.7944 23.4506 37.0105 23.4482 37.2415Z" fill="#59474E"/>
<path d="M27.5861 37.2415C27.5885 37.4722 27.4741 37.6883 27.2821 37.8165C27.0901 37.9443 26.8466 37.9669 26.6345 37.876C26.5509 37.8409 26.474 37.7917 26.4069 37.731C26.1517 37.4545 26.1517 37.0282 26.4069 36.7517C26.474 36.691 26.5509 36.6418 26.6345 36.6067C26.8466 36.5161 27.0901 36.5384 27.2821 36.6663C27.4741 36.7944 27.5885 37.0105 27.5861 37.2415Z" fill="#59474E"/>
<path d="M27.5861 33.1033C27.5885 33.334 27.4741 33.5504 27.2821 33.6786C27.0901 33.8064 26.8466 33.8287 26.6345 33.7378C26.5509 33.703 26.474 33.6539 26.4069 33.5931C26.1517 33.3166 26.1517 32.8903 26.4069 32.6138C26.474 32.5528 26.5509 32.504 26.6345 32.4689C26.8466 32.3779 27.0901 32.4005 27.2821 32.5284C27.4741 32.6565 27.5885 32.8726 27.5861 33.1033Z" fill="#59474E"/>
<path d="M23.44 33.1033C23.4424 33.334 23.328 33.5504 23.136 33.6786C22.944 33.8064 22.7005 33.8287 22.4884 33.7378C22.4048 33.703 22.3276 33.6542 22.2608 33.5931C22.0047 33.3166 22.0047 32.89 22.2608 32.6138C22.3276 32.5528 22.4048 32.5037 22.4884 32.4689C22.7005 32.3779 22.944 32.4005 23.136 32.5284C23.328 32.6565 23.4424 32.8726 23.44 33.1033Z" fill="#59474E"/>
<path d="M23.4482 26.8924C23.4506 27.1231 23.3362 27.3395 23.1442 27.4673C22.9523 27.5955 22.7087 27.6178 22.4966 27.5269C22.413 27.4918 22.3361 27.4429 22.269 27.3822C22.0139 27.1054 22.0139 26.6794 22.269 26.4029C22.3361 26.3419 22.413 26.293 22.4966 26.2579C22.7087 26.167 22.9523 26.1893 23.1442 26.3174C23.3362 26.4453 23.4506 26.6617 23.4482 26.8924Z" fill="#59474E"/>
<path d="M27.5861 26.8924C27.5885 27.1231 27.4741 27.3395 27.2821 27.4673C27.0901 27.5955 26.8466 27.6178 26.6345 27.5269C26.5509 27.4918 26.474 27.4429 26.4069 27.3822C26.1517 27.1054 26.1517 26.6794 26.4069 26.4029C26.474 26.3419 26.5509 26.293 26.6345 26.2579C26.8466 26.167 27.0901 26.1893 27.2821 26.3174C27.4741 26.4453 27.5885 26.6617 27.5861 26.8924Z" fill="#59474E"/>
<path d="M23.4482 22.7585C23.4506 22.9895 23.3362 23.2056 23.1442 23.3337C22.9523 23.4616 22.7087 23.4839 22.4966 23.3932C22.413 23.3581 22.3361 23.309 22.269 23.2483C22.0139 22.9718 22.0139 22.5455 22.269 22.269C22.3361 22.2082 22.413 22.1591 22.4966 22.124C22.7087 22.0331 22.9523 22.0557 23.1442 22.1835C23.3362 22.3117 23.4506 22.5278 23.4482 22.7585Z" fill="#59474E"/>
<path d="M27.5861 22.7585C27.5885 22.9895 27.4741 23.2056 27.2821 23.3337C27.0901 23.4616 26.8466 23.4839 26.6345 23.3932C26.5509 23.3581 26.474 23.309 26.4069 23.2483C26.1517 22.9718 26.1517 22.5455 26.4069 22.269C26.474 22.2082 26.5509 22.1591 26.6345 22.124C26.8466 22.0331 27.0901 22.0557 27.2821 22.1835C27.4741 22.3117 27.5885 22.5278 27.5861 22.7585Z" fill="#59474E"/>
<path d="M25.513 24.8276C25.5154 25.0583 25.401 25.2747 25.209 25.4025C25.0171 25.5307 24.7736 25.553 24.5615 25.462C24.4778 25.4272 24.4006 25.3781 24.3338 25.3174C24.0787 25.0406 24.0787 24.6146 24.3338 24.3381C24.4006 24.277 24.4778 24.2279 24.5615 24.1931C24.7736 24.1022 25.0171 24.1245 25.209 24.2526C25.401 24.3805 25.5154 24.5969 25.513 24.8276Z" fill="#59474E"/>
<path d="M20 28.9655H29.6552V30.3448H20V28.9655Z" fill="#65DDB9"/>
</svg>
