<svg width="81" height="80" viewBox="0 0 81 80" fill="none" xmlns="http://www.w3.org/2000/svg">
<path d="M80.5716 40C80.5716 50.6612 76.4001 60.3495 69.5985 67.52C65.3161 72.0375 59.9871 75.5559 54.0001 77.6898C49.8026 79.1853 45.2833 80 40.5716 80C35.8598 80 31.3405 79.1853 27.143 77.6898C21.1562 75.5559 15.8271 72.0375 11.5431 67.52C4.74291 60.3493 0.571411 50.6612 0.571411 40C0.571411 17.9086 18.48 0 40.5714 0C62.6628 0 80.5716 17.9083 80.5716 40Z" fill="#F6F7FA"/>
<g clip-path="url(#clip0)">
<path d="M59.6346 52.5429C59.6346 56.6647 50.835 60.0001 39.9747 60.0001C29.114 60.0001 20.3144 56.6647 20.3144 52.5429C20.3144 50.4885 22.4976 48.6243 26.0432 47.2752C26.5797 48.0558 27.183 48.7885 27.8464 49.465C27.9685 49.5938 28.0905 49.7159 28.2193 49.8309C28.4634 50.075 28.7143 50.2987 28.9718 50.5157C28.9852 50.5294 28.992 50.5428 29.0057 50.5496C29.2361 50.7464 29.4665 50.9362 29.7106 51.1123C29.7662 51.1596 29.825 51.2026 29.887 51.2411C30.1311 51.4309 30.382 51.6072 30.6395 51.7766C30.6764 51.8019 30.7149 51.8245 30.7546 51.8444C30.9581 51.9869 31.1613 52.1089 31.3716 52.231C31.541 52.3393 31.7173 52.4342 31.8937 52.5291C32.1308 52.6649 32.375 52.7867 32.6258 52.902C32.8223 53.0037 33.0326 53.0918 33.2358 53.1868C33.5477 53.3222 33.8663 53.4443 34.1852 53.5597C34.3612 53.6207 34.5309 53.6817 34.707 53.736C34.9511 53.8172 35.1953 53.892 35.4461 53.9597C35.4604 53.9683 35.4766 53.9728 35.4934 53.9732C35.4989 53.9783 35.5062 53.9808 35.5138 53.9799C35.6765 54.0275 35.8459 54.0681 36.0155 54.1019C36.0271 54.1157 36.0457 54.1208 36.0628 54.1157C36.2322 54.1636 36.4043 54.202 36.5782 54.2307C36.642 54.2508 36.7079 54.2646 36.7748 54.2716C36.9579 54.3055 37.1409 54.3393 37.3308 54.3665C37.8514 54.4526 38.3765 54.5115 38.9036 54.5426C39.0052 54.5493 39.1068 54.5563 39.2017 54.5563C39.4592 54.5697 39.7168 54.5765 39.9747 54.5765C40.2322 54.5765 40.4898 54.5697 40.7473 54.5563C40.8422 54.5563 40.9439 54.5493 41.0458 54.5426C41.5728 54.5115 42.0977 54.4526 42.6186 54.3665C42.8084 54.3393 42.9915 54.3055 43.1743 54.2716C43.2411 54.2646 43.307 54.2508 43.3711 54.2307C43.5447 54.202 43.7168 54.1636 43.8862 54.1157C43.9033 54.1208 43.9219 54.1157 43.9338 54.1019C44.1032 54.0681 44.2725 54.0275 44.4352 53.9799C44.4428 53.9808 44.4501 53.9783 44.4556 53.9732C44.4724 53.9728 44.4886 53.9683 44.5032 53.9597C44.7541 53.892 44.9979 53.8172 45.242 53.736C45.4184 53.6817 45.5878 53.6207 45.7642 53.5597C46.0827 53.4443 46.4013 53.3222 46.7132 53.1868C46.9164 53.0918 47.1267 53.0037 47.3232 52.902C47.5741 52.7867 47.8182 52.6649 48.0556 52.5291C48.2317 52.4342 48.4081 52.3393 48.5774 52.231C48.7877 52.1089 48.9909 51.9869 49.1945 51.8444C49.2341 51.8245 49.2729 51.8019 49.3098 51.7766C49.5674 51.6072 49.8182 51.4309 50.062 51.2411C50.124 51.2026 50.1829 51.1596 50.2384 51.1123C50.4825 50.9362 50.7129 50.7464 50.9433 50.5496C50.9571 50.5428 50.9638 50.5294 50.9775 50.5157C51.2351 50.2987 51.4859 50.075 51.7297 49.8309C51.8588 49.7159 51.9806 49.5938 52.1026 49.465C52.766 48.7885 53.3693 48.0558 53.9061 47.2752C57.4515 48.6243 59.6346 50.4885 59.6346 52.5429Z" fill="#71C285"/>
<path d="M54.889 52.5429C54.889 49.9218 48.2115 47.7973 39.9747 47.7973C31.7375 47.7973 25.06 49.9218 25.06 52.5429C25.06 55.1636 31.7375 57.2884 39.9747 57.2884C48.2115 57.2884 54.889 55.1636 54.889 52.5429Z" fill="#4C8056"/>
<path d="M56.2177 42.4619C56.1634 42.6383 56.1094 42.8144 56.0483 42.9908C55.9397 43.3432 55.8109 43.689 55.6687 44.028C55.601 44.1974 55.5262 44.36 55.4518 44.5297C55.377 44.699 55.3025 44.8617 55.2214 45.0247C55.0993 45.2889 54.9635 45.5465 54.8213 45.804C54.7331 45.967 54.6382 46.1296 54.5433 46.2923C54.3468 46.6243 54.1365 46.9566 53.9061 47.2752C53.3694 48.0558 52.766 48.7885 52.1026 49.465C51.9806 49.5871 51.8588 49.7092 51.7297 49.8309H46.7538L43.3641 43.7296L46.7538 37.6282H53.5332L56.2177 42.4619Z" fill="white"/>
<path d="M51.7297 49.8309C51.4859 50.0683 51.2351 50.2987 50.9775 50.5157C50.9638 50.5294 50.9571 50.5428 50.9433 50.5496C50.7129 50.7464 50.4825 50.9362 50.2384 51.1123C50.1829 51.1596 50.124 51.2026 50.062 51.241C49.8182 51.4309 49.5674 51.6072 49.3098 51.7766C49.2729 51.8019 49.2341 51.8245 49.1945 51.8444C48.9961 51.9844 48.7901 52.1135 48.5774 52.231C48.4081 52.3393 48.2317 52.4342 48.0556 52.5291C47.8115 52.6579 47.5674 52.7867 47.3232 52.902C47.12 53.0037 46.9235 53.0918 46.7132 53.1868C46.4013 53.3222 46.0828 53.4443 45.7642 53.5597C45.5945 53.6274 45.4184 53.6817 45.242 53.736C44.9979 53.8172 44.7541 53.892 44.5032 53.9597C44.4886 53.9683 44.4724 53.9728 44.4556 53.9732L46.7538 49.8309H51.7297Z" fill="#35495E"/>
<path d="M35.4934 53.9732C35.4766 53.9728 35.4604 53.9683 35.4461 53.9597C35.1952 53.892 34.9511 53.8172 34.707 53.736C34.5309 53.6817 34.3545 53.6274 34.1852 53.5597C33.8663 53.4443 33.5477 53.3222 33.2358 53.1868C33.0259 53.0918 32.829 53.0037 32.6258 52.902C32.3817 52.7867 32.1375 52.6579 31.8937 52.5291C31.7173 52.4342 31.541 52.3393 31.3716 52.231C31.1592 52.1135 30.9532 51.9844 30.7546 51.8444C30.7149 51.8245 30.6764 51.8019 30.6395 51.7766C30.382 51.6072 30.1311 51.4309 29.887 51.241C29.825 51.2026 29.7662 51.1596 29.7106 51.1123C29.4665 50.9362 29.2361 50.7464 29.0057 50.5496C28.992 50.5428 28.9852 50.5294 28.9718 50.5157C28.7143 50.2987 28.4634 50.0683 28.2193 49.8309H33.1952L35.4934 53.9732Z" fill="#35495E"/>
<path d="M36.5849 43.7296L33.1952 49.8309H28.2193C28.0905 49.7092 27.9685 49.5871 27.8464 49.465C27.183 48.7885 26.5797 48.0558 26.0432 47.2752C25.8125 46.9566 25.6025 46.6243 25.4057 46.2923C25.3108 46.1296 25.2159 45.967 25.1277 45.804C24.9855 45.5465 24.85 45.2889 24.728 45.0247C24.6465 44.8617 24.572 44.699 24.4973 44.5297C24.4228 44.36 24.3483 44.1974 24.2806 44.028C24.1381 43.689 24.0093 43.3432 23.9007 42.9908C23.8399 42.8144 23.7856 42.6383 23.7313 42.4619L26.4158 37.6282H33.1952L36.5849 43.7296Z" fill="white"/>
<path d="M26.4158 37.6282L23.7313 42.4619C22.7914 39.3081 22.7914 35.9486 23.7313 32.7947L26.4158 37.6282Z" fill="#35495E"/>
<path d="M36.5849 31.5268L33.1952 37.6282H26.4158L23.7313 32.7947C24.561 29.9897 26.1079 27.4499 28.2193 25.4254H33.1952L36.5849 31.5268Z" fill="white"/>
<path d="M46.7538 37.6282L43.3641 43.7295H36.585L33.1952 37.6282L36.585 31.5268H43.3641L46.7538 37.6282Z" fill="#35495E"/>
<path d="M46.7538 49.8309L44.4556 53.9731C44.4502 53.9783 44.4428 53.9808 44.4352 53.9798C44.2658 54.0275 44.1032 54.068 43.9338 54.1019C43.9219 54.1156 43.9033 54.1208 43.8862 54.1156C43.7169 54.1629 43.5472 54.1968 43.3711 54.2307C43.307 54.2508 43.2411 54.2646 43.1743 54.2716C42.9915 54.3122 42.8017 54.3393 42.6186 54.3665C42.0977 54.4525 41.5728 54.5114 41.0458 54.5426C40.9509 54.5493 40.849 54.5563 40.7473 54.5563C40.4898 54.5697 40.2322 54.5764 39.9747 54.5764C39.7168 54.5764 39.4593 54.5697 39.2017 54.5563C39.1001 54.5563 38.9985 54.5493 38.9036 54.5426C38.3766 54.5114 37.8514 54.4525 37.3308 54.3665C37.1477 54.3393 36.9579 54.3122 36.7748 54.2716C36.7079 54.2646 36.642 54.2508 36.5782 54.2307C36.4019 54.1968 36.2325 54.1629 36.0628 54.1156C36.0457 54.1208 36.0271 54.1156 36.0155 54.1019C35.8459 54.068 35.6832 54.0275 35.5138 53.9798C35.5062 53.9808 35.4989 53.9783 35.4934 53.9731L33.1952 49.8309L36.585 43.7295H43.3641L46.7538 49.8309Z" fill="white"/>
<path d="M56.2177 32.7947L53.5332 37.6282H46.7538L43.3641 31.5268L46.7538 25.4254H51.7297C53.8411 27.4499 55.388 29.9897 56.2177 32.7947Z" fill="white"/>
<path d="M51.7297 25.4254H46.7538L44.4556 21.2835C47.1917 22.0266 49.6946 23.4517 51.7297 25.4254Z" fill="#35495E"/>
<path d="M35.4934 21.2835L33.1952 25.4254H28.2193C30.2547 23.4517 32.7573 22.0266 35.4934 21.2835Z" fill="#35495E"/>
<path d="M46.7538 25.4254L43.3641 31.5268H36.585L33.1952 25.4254L35.4934 21.2835C38.4266 20.4788 41.5224 20.4788 44.4556 21.2835L46.7538 25.4254Z" fill="white"/>
<path d="M56.9229 37.6282C56.9254 39.2654 56.688 40.894 56.2177 42.4619L53.5332 37.6282L56.2177 32.7947C56.688 34.3627 56.9254 35.9913 56.9229 37.6282Z" fill="#35495E"/>
<path d="M57.5873 36.9638V36.8906C57.5806 36.7341 57.5729 36.5775 57.5607 36.4359C57.5464 36.1869 57.5256 35.937 57.493 35.6507C57.4658 35.4121 57.4374 35.1689 57.4002 34.9498C57.3636 34.6941 57.3193 34.4313 57.2644 34.1973C57.1631 33.6611 57.0319 33.131 56.872 32.6095L56.8686 32.5973C56.8116 32.4136 56.7554 32.2305 56.6993 32.0679C56.5845 31.698 56.4515 31.3343 56.3004 30.9778C56.2427 30.8353 56.1817 30.6971 56.1201 30.5567L56.0746 30.4551C55.9956 30.2753 55.9168 30.1032 55.8387 29.9488C55.7099 29.6699 55.5677 29.3983 55.4191 29.1298C55.3276 28.9616 55.2299 28.7907 55.1271 28.6165C54.9351 28.2985 54.7371 27.9799 54.5283 27.6809C54.388 27.4776 54.247 27.279 54.1011 27.0858C53.6425 26.4648 53.1399 25.8774 52.5976 25.3278C52.4621 25.185 52.3263 25.0492 52.2058 24.9421C51.9604 24.7028 51.7075 24.4675 51.4487 24.2506C51.4288 24.231 51.4072 24.2121 51.3855 24.1938C51.1414 23.9857 50.896 23.787 50.6229 23.5835C50.5671 23.538 50.5085 23.4959 50.4481 23.4569C50.1997 23.2655 49.9455 23.0867 49.6894 22.9186C49.644 22.8871 49.597 22.8584 49.5481 22.8325C49.3541 22.6961 49.1527 22.5707 48.9448 22.4562C48.7678 22.3424 48.5829 22.242 48.3553 22.1172C48.1084 21.9872 47.8621 21.8575 47.6284 21.747C47.4346 21.65 47.246 21.5649 46.9857 21.4468C46.6604 21.3058 46.3281 21.1788 46.0184 21.0671C45.8313 20.9918 45.6372 20.9317 45.459 20.8773C45.217 20.7968 44.9756 20.722 44.7281 20.6543C44.6891 20.6396 44.6491 20.628 44.6082 20.6198C44.4346 20.5716 44.2692 20.5295 44.0949 20.495L44.0693 20.4895C43.9042 20.4431 43.7367 20.4053 43.5676 20.3763C43.4761 20.3482 43.3824 20.3277 43.2875 20.3152C43.1126 20.278 42.9311 20.2475 42.7351 20.2219C42.191 20.1315 41.643 20.0699 41.0925 20.0372C40.9826 20.0299 40.8639 20.0232 40.8038 20.0244C40.6225 20.0095 40.4492 20.0095 40.3134 20.0101C40.1037 19.9966 39.8935 19.9966 39.6838 20.0101C39.502 20.0101 39.3271 20.0101 39.2023 20.0238C39.0851 20.0238 38.9664 20.0311 38.8636 20.0388C38.3045 20.0714 37.7476 20.1337 37.195 20.2252C37.0207 20.2508 36.8413 20.278 36.6661 20.3152C36.5926 20.3229 36.52 20.3378 36.4495 20.3601C36.2548 20.3973 36.0671 20.4361 35.8797 20.4883L35.8562 20.4944C35.6921 20.5276 35.5321 20.5667 35.368 20.6122C35.3301 20.6198 35.2932 20.6305 35.2575 20.6448C34.9978 20.7126 34.7451 20.7919 34.5117 20.8712C34.3167 20.9307 34.1226 20.9912 33.9572 21.0583C33.6258 21.1782 33.2935 21.3052 32.9066 21.4739C32.7079 21.5639 32.5193 21.6494 32.3383 21.7403C32.0915 21.8569 31.8455 21.9863 31.5547 22.1395C31.371 22.2393 31.1858 22.343 31.0475 22.4297C30.8269 22.5521 30.6127 22.6854 30.4055 22.8298C30.3591 22.8548 30.3136 22.8822 30.27 22.9118C30.0075 23.0839 29.7533 23.2631 29.5052 23.4541C29.4396 23.4971 29.3762 23.5435 29.3154 23.593C29.0573 23.7803 28.8116 23.9814 28.5696 24.1895C28.5486 24.2079 28.5278 24.2262 28.5086 24.2454C28.2132 24.4947 27.9697 24.7199 27.757 24.9308C27.6212 25.0574 27.4967 25.1841 27.3679 25.3131C26.8232 25.8643 26.3182 26.4532 25.8568 27.0757C25.7081 27.2729 25.5672 27.4703 25.4301 27.6702C25.2181 27.9738 25.02 28.2924 24.8201 28.6192C24.7219 28.7874 24.6242 28.9583 24.5348 29.1203C24.384 29.3913 24.2418 29.6626 24.121 29.925C24.0349 30.0971 23.9565 30.2692 23.8772 30.449L23.8317 30.5506C23.7701 30.691 23.709 30.8292 23.6553 30.9623C23.5089 31.3047 23.3807 31.655 23.2711 32.0111C23.1976 32.2 23.1353 32.3932 23.0838 32.5894L23.0798 32.6034C22.922 33.1179 22.7926 33.6406 22.6919 34.1695C22.633 34.4252 22.5891 34.688 22.5564 34.9254C22.5238 35.1628 22.4887 35.406 22.456 35.6806C22.4271 35.9309 22.406 36.1808 22.3917 36.4149C22.3795 36.5714 22.3721 36.728 22.3654 36.8845V36.9577C22.3584 37.1808 22.3517 37.3978 22.3517 37.6221C22.3517 37.8467 22.3584 38.0636 22.3654 38.2867V38.3618C22.3727 38.5177 22.3795 38.6737 22.3917 38.8146C22.406 39.0633 22.4271 39.3136 22.4594 39.5998C22.4866 39.8384 22.5153 40.0817 22.5525 40.3008C22.5891 40.5562 22.633 40.8192 22.688 41.0533C22.789 41.5907 22.9196 42.122 23.0792 42.645V42.6572C23.1363 42.8409 23.1924 43.024 23.2485 43.1867C23.3633 43.5565 23.4963 43.9203 23.6474 44.2767C23.7048 44.4192 23.7658 44.5574 23.8277 44.6978L23.8729 44.7994C23.9522 44.9792 24.031 45.1513 24.1088 45.306C24.2379 45.5846 24.3801 45.8562 24.5287 46.1247C24.6202 46.2929 24.7176 46.4638 24.818 46.6331C25.0505 47.0259 25.2696 47.3646 25.4805 47.6548C26.0368 48.4647 26.6624 49.2249 27.3502 49.9267C27.4857 50.0695 27.6212 50.2053 27.742 50.3124C27.988 50.5517 28.2404 50.787 28.5 51.0039C28.5196 51.0238 28.5406 51.043 28.5623 51.0607C28.8064 51.2688 29.0518 51.4675 29.3249 51.671C29.3807 51.7162 29.439 51.7586 29.4991 51.7977C29.7478 51.989 30.002 52.1678 30.2584 52.336C30.3045 52.3674 30.3518 52.3964 30.4009 52.4226C30.5944 52.559 30.7955 52.6842 31.003 52.7983C31.1797 52.9121 31.3649 53.0125 31.5925 53.1373C31.8394 53.2682 32.0863 53.3976 32.3188 53.5075C32.5132 53.6051 32.7024 53.6906 32.9621 53.8084C33.2874 53.9493 33.6197 54.0763 33.9294 54.188C34.1165 54.2634 34.3106 54.3238 34.4888 54.3778C34.7308 54.4587 34.9722 54.5331 35.2197 54.6009C35.2584 54.6158 35.2987 54.6271 35.3396 54.6356C35.5132 54.6836 35.6786 54.7257 35.8529 54.7602L35.8764 54.7663C36.0424 54.8123 36.2108 54.8499 36.3808 54.8783C36.4723 54.9063 36.566 54.9268 36.6609 54.9393C36.8358 54.9765 37.0174 55.007 37.2133 55.0327C37.7565 55.123 38.3039 55.1843 38.8532 55.2173C38.9625 55.2246 39.0729 55.228 39.1623 55.2307C39.4336 55.2457 39.7046 55.2524 39.9713 55.2524C40.2377 55.2524 40.5136 55.2457 40.744 55.2322C40.8612 55.2322 40.9799 55.2246 41.083 55.2173C41.6414 55.1837 42.1974 55.1212 42.7492 55.0293C42.9234 55.0037 43.1032 54.9765 43.278 54.9393C43.351 54.9317 43.423 54.9167 43.4932 54.8944C43.6875 54.8572 43.8752 54.8184 44.0626 54.7663L44.0861 54.7602C44.2503 54.7272 44.4102 54.6878 44.5743 54.6424C44.6122 54.635 44.6491 54.6241 44.6848 54.6097C44.9445 54.542 45.1975 54.4626 45.4306 54.3833C45.6259 54.3238 45.8197 54.2634 45.9851 54.1962C46.3165 54.0763 46.6488 53.9493 47.0345 53.7812C47.2338 53.6906 47.423 53.6051 47.6034 53.5142C47.8499 53.3976 48.0968 53.2682 48.3876 53.115C48.5713 53.0153 48.7566 52.9115 48.8948 52.8248C49.1151 52.7028 49.329 52.5694 49.5353 52.4254C49.582 52.4004 49.6272 52.3726 49.6711 52.3427C49.9333 52.1706 50.1874 51.9917 50.4365 51.8004C50.5018 51.7589 50.5649 51.7134 50.6257 51.6649C50.8838 51.4779 51.1292 51.2764 51.3712 51.0683C51.3922 51.05 51.4133 51.0317 51.4322 51.0128C51.6919 50.7931 51.9449 50.5605 52.1698 50.3402C52.1786 50.3326 52.1862 50.324 52.1942 50.3158L52.1997 50.3109C52.3312 50.1916 52.4578 50.0671 52.5753 49.9429C53.2622 49.2426 53.8875 48.4839 54.4435 47.6759C54.6638 47.3722 54.8829 47.0332 55.1176 46.6365C55.2159 46.4687 55.3135 46.2978 55.4029 46.1357C55.5534 45.8644 55.6959 45.5932 55.8164 45.331C55.9025 45.1586 55.9812 44.9865 56.0606 44.8068L56.106 44.7051C56.1677 44.5648 56.2287 44.4265 56.2821 44.2938C56.4322 43.941 56.5641 43.5812 56.6773 43.215C56.7411 43.0313 56.7975 42.8482 56.8537 42.6667L56.8576 42.6523C57.0157 42.1378 57.1451 41.6151 57.2455 41.0865C57.3044 40.8308 57.3486 40.5678 57.381 40.3307C57.4136 40.0933 57.449 39.8497 57.4814 39.5754C57.5107 39.3252 57.5317 39.0749 57.5452 38.8412C57.558 38.6852 57.5647 38.5293 57.5723 38.3734C57.5723 38.37 57.5723 38.3014 57.5723 38.298C57.579 38.0749 57.5857 37.858 57.5857 37.6337C57.5857 37.4094 57.594 37.1869 57.5873 36.9638ZM54.3086 37.6282L55.9663 34.6455C55.9995 34.8134 56.034 34.9843 56.0584 35.1607C56.0938 35.3733 56.1182 35.5925 56.1472 35.8427C56.1732 36.067 56.1927 36.2922 56.2061 36.532C56.2183 36.6718 56.2244 36.8113 56.2321 37.0066C56.2388 37.2168 56.2449 37.4201 56.2449 37.6309C56.2449 37.8418 56.2388 38.0453 56.2305 38.309C56.2244 38.4484 56.2177 38.5882 56.2055 38.7429C56.1927 38.9672 56.1732 39.1924 56.1433 39.4533C56.1182 39.6669 56.0938 39.8857 56.0551 40.1171C56.0319 40.2757 55.9989 40.4445 55.9656 40.6132L54.3086 37.6282ZM53.0111 27.8933C53.1469 28.0754 53.2784 28.2579 53.4112 28.4511C53.6065 28.7303 53.7874 29.0221 53.9577 29.3046C54.0489 29.4627 54.1405 29.6199 54.2287 29.7792C54.3642 30.0227 54.4911 30.2659 54.6159 30.5338C54.6925 30.687 54.7624 30.8402 54.832 30.9995L54.8781 31.1032C54.9339 31.2293 54.9894 31.3526 55.045 31.4896C55.1866 31.8286 55.3032 32.1478 55.4084 32.4856C55.4347 32.5634 55.4585 32.6428 55.4835 32.7209L53.1338 36.9504H47.1532L45.4584 33.8997L44.1398 31.5268L45.4578 29.1542L47.1526 26.1035H51.4526C51.5076 26.1578 51.5619 26.2067 51.6202 26.2683C52.1216 26.7764 52.5866 27.3193 53.0111 27.8933ZM42.9649 43.0518H36.9841L35.2892 40.0011L33.971 37.6282L35.2886 35.2556L36.9835 32.2049H42.9643L44.6592 35.2556L45.9784 37.6282L44.6604 40.0011L42.9649 43.0518ZM46.4828 22.7138C46.665 22.7965 46.8386 22.8737 47.0297 22.9701C47.2597 23.0785 47.488 23.1993 47.7504 23.3375C47.9042 23.4208 48.0602 23.5035 48.2482 23.6223C48.4389 23.7278 48.6238 23.8441 48.802 23.9701C48.8289 23.9891 48.9043 24.0345 48.9342 24.0495C49.1768 24.2088 49.4126 24.3748 49.6433 24.5536C49.6711 24.5747 49.7407 24.6278 49.7712 24.6445C49.7801 24.6513 49.8289 24.69 49.8393 24.6961C49.8621 24.7129 49.8832 24.7333 49.907 24.7504H47.1532L45.8881 22.4678C46.08 22.5411 46.2753 22.6189 46.4828 22.7138ZM36.2459 21.7937C36.3979 21.751 36.5489 21.722 36.7714 21.6753C36.7934 21.6683 36.8163 21.6631 36.8391 21.6598C36.8666 21.657 36.8941 21.6527 36.9212 21.6466C37.0756 21.6122 37.2359 21.5893 37.4431 21.5588C37.9417 21.4761 38.4443 21.4196 38.9487 21.3897C39.029 21.3845 39.1141 21.3784 39.2566 21.3757C39.3991 21.3729 39.538 21.3647 39.7311 21.3628C39.8111 21.358 39.8981 21.358 39.9747 21.358C40.0513 21.358 40.1385 21.358 40.2661 21.3647C40.4071 21.3647 40.5474 21.3647 40.7473 21.3784C40.8334 21.3784 40.9188 21.3845 41.0024 21.3906C41.5234 21.4217 42.0424 21.4806 42.5575 21.5667C42.7119 21.5893 42.8722 21.6122 43.0266 21.6466C43.0537 21.6527 43.0812 21.657 43.1087 21.6598C43.1544 21.6674 43.1996 21.6781 43.2441 21.6915C43.4022 21.722 43.5533 21.751 43.7052 21.7937L43.7269 21.7992C43.7522 21.8078 43.7779 21.8145 43.8041 21.8197C43.8719 21.8331 43.9399 21.8529 44.0077 21.8691L45.9784 25.4254L45.4306 26.412L42.9649 30.849H36.9841L34.5187 26.4111L33.971 25.4254L35.9435 21.8697C36.0112 21.8535 36.0793 21.8337 36.147 21.8203C36.1733 21.8154 36.1989 21.8084 36.2243 21.7998L36.2459 21.7937ZM30.2123 24.6079C30.2428 24.5911 30.2721 24.5722 30.2999 24.5509C30.5303 24.372 30.7662 24.206 31.0558 24.018C31.0854 24.0034 31.114 23.9863 31.1412 23.9674C31.3319 23.8331 31.53 23.7092 31.7344 23.5966C31.8827 23.5008 32.0387 23.4181 32.2251 23.3171C32.4549 23.1966 32.6835 23.0757 32.9261 22.9607C33.1043 22.8709 33.2779 22.7937 33.5031 22.6894C33.6798 22.6128 33.869 22.5444 34.0543 22.473L32.7961 24.7477H30.0374C30.068 24.7245 30.0951 24.7022 30.1269 24.6799L30.2123 24.6079ZM24.5488 32.4652C24.6465 32.1493 24.7631 31.8307 24.9089 31.4813C24.9605 31.3541 25.016 31.2308 25.0716 31.1045L25.1177 31.0007C25.1854 30.8414 25.2574 30.6882 25.3429 30.5167C25.4588 30.2674 25.5861 30.0239 25.7231 29.777C25.8085 29.6199 25.9001 29.4627 25.9861 29.3135C26.1616 29.0221 26.3429 28.7303 26.5412 28.4471C26.6709 28.2579 26.8009 28.0754 26.9401 27.889C27.3636 27.3177 27.8269 26.7767 28.3264 26.2701C28.3798 26.2167 28.4408 26.1584 28.4964 26.1035H32.7961L34.4906 29.1542L35.8092 31.5268L34.4916 33.8997L32.7967 36.9504H26.8153L24.4616 32.7139C24.4866 32.6367 24.5137 32.5561 24.5488 32.4652ZM23.9828 40.6111C23.9495 40.443 23.915 40.2721 23.8906 40.096C23.8555 39.883 23.8311 39.6642 23.8018 39.414C23.7762 39.1897 23.7563 38.9645 23.7429 38.7246C23.7313 38.5888 23.7246 38.446 23.717 38.2501C23.7103 38.0426 23.7042 37.839 23.7042 37.6282C23.7042 37.4173 23.7103 37.2141 23.7185 36.9504C23.7246 36.81 23.7307 36.6703 23.7435 36.5153C23.7563 36.2907 23.7762 36.0658 23.8058 35.8045C23.8311 35.5912 23.8555 35.3721 23.894 35.1408C23.9172 34.9824 23.9504 34.8134 23.9834 34.6446L25.6404 37.6282L23.9828 40.6111ZM26.5928 46.8767C26.3975 46.6054 26.2004 46.3023 25.9916 45.9493C25.9001 45.7927 25.8085 45.6353 25.7203 45.4747C25.5849 45.2312 25.4579 44.988 25.3334 44.7201C25.2568 44.5669 25.1869 44.4137 25.117 44.2544L25.071 44.1507C25.0154 44.0246 24.9599 43.901 24.904 43.7643C24.7624 43.4253 24.6459 43.1061 24.5409 42.7683C24.5144 42.6905 24.4905 42.6111 24.4655 42.533L26.8153 38.3062H32.7961L34.4906 41.3569L35.8092 43.7295L34.4916 46.1025L32.7967 49.1531H28.4958C28.4415 49.0988 28.3874 49.05 28.3304 48.9905C27.6914 48.3378 27.1097 47.631 26.5928 46.8779V46.8767ZM33.4665 52.5462C33.2846 52.4635 33.1113 52.3854 32.9178 52.2887C32.6881 52.1806 32.4598 52.0601 32.198 51.9219C32.0442 51.8382 31.8882 51.7555 31.7006 51.6371C31.5098 51.5313 31.3252 51.4153 31.1473 51.2893C31.1186 51.2697 31.0454 51.2255 31.0115 51.2099C30.7689 51.0506 30.533 50.8846 30.3026 50.7055C30.2761 50.6854 30.2022 50.6304 30.1729 50.6133C30.1641 50.6072 30.1168 50.5694 30.1052 50.5633C30.0823 50.5462 30.0612 50.5261 30.0374 50.509H32.7933L34.0582 52.7894C33.8733 52.7156 33.6737 52.6378 33.4665 52.5462ZM43.7031 53.4626C43.5514 53.5053 43.4001 53.5346 43.1779 53.5813C43.1557 53.5883 43.1331 53.5935 43.1099 53.5969C43.0824 53.5996 43.0549 53.6039 43.0281 53.6097C42.8734 53.6445 42.7135 53.6674 42.506 53.6979C42.0073 53.7806 41.5047 53.8367 41.0003 53.8666C40.9204 53.8721 40.8349 53.8782 40.7122 53.8789C40.2096 53.9063 39.7058 53.9063 39.2032 53.8789C39.1169 53.8789 39.0314 53.8727 38.9481 53.8666C38.4269 53.8355 37.9078 53.7766 37.393 53.6906C37.2383 53.668 37.0784 53.6451 36.924 53.6106C36.8968 53.6045 36.8694 53.6002 36.8419 53.5975C36.7961 53.5899 36.7507 53.5792 36.7061 53.5658C36.5483 53.5352 36.397 53.5063 36.2453 53.4635L36.2236 53.458C36.1983 53.4495 36.1724 53.4428 36.1461 53.4376C36.0784 53.4242 36.0106 53.4043 35.9429 53.3882L33.971 49.8309L34.5187 48.8446L36.9841 44.4076H42.9649L45.4306 48.8452L45.9784 49.8309L44.0055 53.3869C43.9378 53.4031 43.87 53.4226 43.8023 53.4364C43.776 53.4413 43.7501 53.448 43.7248 53.4565L43.7031 53.4626ZM49.7322 50.65C49.7022 50.6664 49.6742 50.6847 49.6473 50.7055C49.4169 50.8846 49.1807 51.0506 48.8954 51.2359C48.8643 51.2514 48.8341 51.2694 48.8054 51.2893C48.6147 51.4235 48.4169 51.5474 48.2128 51.66C48.0645 51.7555 47.9085 51.8382 47.7221 51.9386C47.4929 52.0601 47.2643 52.1806 47.0202 52.296C46.8414 52.3854 46.6677 52.4635 46.4441 52.5673C46.2671 52.6439 46.0779 52.7122 45.8929 52.7833L47.1532 50.509H49.9116C49.8811 50.5322 49.8539 50.5544 49.8222 50.5767L49.7322 50.65ZM55.4008 42.7915C55.3032 43.1073 55.1866 43.4259 55.041 43.775C54.9894 43.9026 54.9339 44.0259 54.8781 44.1519L54.832 44.2556C54.7642 44.4149 54.6925 44.5681 54.6071 44.7399C54.4911 44.9892 54.3636 45.2328 54.2265 45.4793C54.1414 45.6368 54.0499 45.7939 53.9611 45.9471C53.7496 46.3039 53.5543 46.6081 53.3507 46.8916C52.8335 47.6429 52.2522 48.3481 51.6132 48.9993C51.5643 49.0506 51.5143 49.1016 51.4627 49.1531H47.1532L45.4584 46.1025L44.1398 43.7295L45.4578 41.3569L47.1526 38.3062H53.1332L55.4817 42.5339C55.4557 42.6191 55.4313 42.6984 55.4002 42.7915H55.4008Z" fill="#2C3E50"/>
</g>
<defs>
<clipPath id="clip0">
<rect width="40" height="40" fill="white" transform="translate(20 20)"/>
</clipPath>
</defs>
</svg>
