<svg width="83" height="120" viewBox="0 0 83 120" fill="none" xmlns="http://www.w3.org/2000/svg">
<path d="M53.0411 114.174C52.1494 114.174 51.2309 114.137 50.2819 114.061C23.5225 111.927 11.6803 110.872 7.07348 100.789C2.38462 90.5257 -6.17322 40.0764 7.07348 18.5749C15.9504 4.165 24.8228 6.86646e-05 36.2173 6.86646e-05C41.827 6.86646e-05 48.0457 1.00922 55.1809 2.30022C77.3048 6.30911 83.3878 13.0157 82.3082 37.0389C81.2289 61.0628 82.9879 73.3129 81.0726 84.788C80.684 87.1155 77.2935 114.174 53.0411 114.174ZM20.3511 92.919C18.5261 92.919 17.0466 94.3982 17.0466 96.2232C17.0466 98.0482 18.5261 99.5277 20.3511 99.5277C22.1759 99.5277 23.6554 98.0482 23.6554 96.2232C23.6554 94.3982 22.1759 92.919 20.3511 92.919ZM65.4654 74.3724C64.2249 74.3724 63.2193 75.3783 63.2193 76.6187C63.2193 77.8593 64.2249 78.8652 65.4654 78.8652C66.7063 78.8652 67.7119 77.8593 67.7119 76.6187C67.7119 75.3783 66.7063 74.3724 65.4654 74.3724ZM29.5301 15.2001C27.705 15.2001 26.2258 16.6799 26.2258 18.5044C26.2258 20.3289 27.705 21.8086 29.5301 21.8086C31.3548 21.8086 32.8343 20.3289 32.8343 18.5044C32.8343 16.6799 31.3548 15.2001 29.5301 15.2001Z" fill="#FFF4E9"/>
<path d="M20.3514 99.5277C18.5264 99.5277 17.0469 98.0482 17.0469 96.2232C17.0469 94.3981 18.5264 92.9189 20.3514 92.9189C22.1761 92.9189 23.6556 94.3981 23.6556 96.2232C23.6556 98.0482 22.1761 99.5277 20.3514 99.5277Z" fill="#F4D9BB"/>
<path d="M65.4648 78.8658C64.2244 78.8658 63.2188 77.8599 63.2188 76.6192C63.2188 75.3788 64.2244 74.373 65.4648 74.373C66.7057 74.373 67.7113 75.3788 67.7113 76.6192C67.7113 77.8599 66.7057 78.8658 65.4648 78.8658Z" fill="#F4D9BB"/>
<path d="M29.5308 21.8087C27.7058 21.8087 26.2266 20.3289 26.2266 18.5044C26.2266 16.6799 27.7058 15.2002 29.5308 15.2002C31.3556 15.2002 32.8351 16.6799 32.8351 18.5044C32.8351 20.3289 31.3556 21.8087 29.5308 21.8087Z" fill="#F4D9BB"/>
<path d="M66.0153 49.9434C66.3835 65.7346 48.9633 77.5146 34.2827 72.023C30.6827 70.6764 27.4308 68.4525 24.9311 65.5265C19.629 59.3191 17.5843 50.5122 20.3371 42.7335C25.6207 27.8052 45.8101 20.7664 58.0388 31.9248C63.0976 36.5402 65.8593 43.2494 66.0153 49.9434Z" fill="#FB9946"/>
<path d="M42.458 120C42.3966 120 42.3342 119.989 42.2738 119.965C42.0151 119.863 41.888 119.571 41.9899 119.312C42.9059 116.987 42.4494 114.61 41.9665 112.093C41.5105 109.719 41.0391 107.263 41.8022 104.825C43.0635 100.794 43.7386 96.6608 43.8081 92.5394C43.8516 89.9589 43.5013 87.3852 43.1626 84.8966C42.9389 83.253 42.7074 81.5536 42.5871 79.8493C42.4846 78.4003 42.5279 76.9062 42.5697 75.4615C42.5919 74.6924 42.615 73.8974 42.615 73.1283C42.615 72.8503 42.8402 72.625 43.1183 72.625C43.3962 72.625 43.6216 72.8503 43.6216 73.1283C43.6216 73.912 43.5982 74.7145 43.5758 75.4907C43.5348 76.9107 43.4923 78.3792 43.5912 79.7784C43.7092 81.4501 43.9385 83.1332 44.1599 84.7607C44.5039 87.287 44.8595 89.899 44.8145 92.5562C44.7435 96.774 44.053 101.003 42.7627 105.125C42.0752 107.322 42.5025 109.548 42.955 111.903C43.444 114.45 43.9495 117.084 42.9266 119.682C42.8483 119.88 42.6588 120 42.458 120Z" fill="#23282E"/>
<path d="M44.9022 75.2455H40.6328L41.4253 72.9957H44.1097L44.9022 75.2455Z" fill="#FB9946"/>
<path d="M43.1051 73.6225C40.4199 73.6225 37.7737 73.1587 35.2936 72.2308C31.5586 70.8338 28.2536 68.5372 25.7357 65.5896C25.2729 65.0478 24.8283 64.4788 24.414 63.8982C24.2525 63.672 24.3051 63.3576 24.5313 63.1963C24.7573 63.0345 25.0719 63.0871 25.2334 63.3136C25.6308 63.8705 26.0573 64.4164 26.5013 64.936C28.9084 67.7541 32.0707 69.9505 35.6462 71.2881C40.434 73.0791 45.8755 73.0575 50.9688 71.2277C55.8857 69.4611 60.1656 66.1646 63.0207 61.9461C63.1762 61.7161 63.4892 61.6557 63.7198 61.8115C63.9498 61.9673 64.0102 62.28 63.8544 62.5103C60.8808 66.9042 56.4255 70.3368 51.3091 72.1749C48.6241 73.1398 45.8443 73.6225 43.1051 73.6225Z" fill="#23282E"/>
<path d="M64.2433 61.4517C64.157 61.4517 64.0694 61.4295 63.9897 61.3827C63.7496 61.2423 63.6688 60.934 63.8092 60.6942C64.4849 59.5393 65.0519 58.3288 65.4951 57.0932C65.5889 56.8315 65.8776 56.6956 66.1388 56.7912C66.4005 56.8843 66.5364 57.1712 66.4426 57.4329C65.9785 58.7265 65.3848 59.9943 64.6782 61.2025C64.5846 61.3626 64.4162 61.4517 64.2433 61.4517Z" fill="#23282E"/>
<path d="M66.8022 54.7786C66.7692 54.7786 66.736 54.7761 66.7028 54.7686C66.4302 54.7132 66.2533 54.449 66.3082 54.1772C66.6029 52.705 66.7345 51.1976 66.6992 49.6901C66.5777 44.4733 64.8443 39.3546 61.8181 35.2803C61.6523 35.0563 61.6988 34.7417 61.922 34.5757C62.1448 34.4096 62.4603 34.4574 62.6262 34.6814C65.7754 38.9193 67.5793 44.2418 67.7056 49.6675C67.7426 51.2479 67.6044 52.8308 67.2952 54.3735C67.2471 54.6126 67.037 54.7786 66.8022 54.7786Z" fill="#23282E"/>
<path d="M60.9606 33.9267C60.8212 33.9267 60.6825 33.8688 60.5831 33.7581C60.0489 33.1516 59.4781 32.5728 58.8867 32.0317C58.6814 31.8455 58.6668 31.5259 58.8543 31.3221C59.0415 31.1157 59.3598 31.1006 59.5652 31.2893C60.183 31.8531 60.7792 32.4596 61.3374 33.0912C61.5216 33.2976 61.5019 33.6172 61.2936 33.8009C61.1979 33.8865 61.0789 33.9267 60.9606 33.9267Z" fill="#23282E"/>
<path d="M22.4106 59.8989C22.2183 59.8989 22.0349 59.7882 21.9511 59.6015C19.4199 53.9581 19.1 47.8126 21.0506 42.3038C23.4124 35.6299 28.9886 30.0482 35.9671 27.3756C42.5786 24.8414 49.6479 25.1736 55.362 28.2841C55.6061 28.4174 55.6962 28.7245 55.5633 28.9686C55.4302 29.2127 55.1244 29.3008 54.8806 29.1699C49.4257 26.1978 42.6634 25.8858 36.3272 28.3143C29.6205 30.8862 24.2643 36.2389 21.9996 42.6385C20.1359 47.9057 20.4446 53.7819 22.8694 59.1895C22.9834 59.4432 22.8699 59.7411 22.6162 59.8546C22.5492 59.8846 22.4795 59.8989 22.4106 59.8989Z" fill="#23282E"/>
<path d="M35.6614 32.8771C35.2612 32.8771 34.8825 32.6355 34.7257 32.2404C34.5204 31.7245 34.773 31.1406 35.2894 30.9343C36.3869 30.4989 37.5342 30.1566 38.7001 29.9151C39.2455 29.8018 39.777 30.1541 39.8892 30.6977C40.0014 31.2413 39.6509 31.7748 39.1066 31.8855C38.0556 32.1045 37.0213 32.4115 36.0328 32.8041C35.911 32.8544 35.7852 32.8771 35.6614 32.8771Z" fill="#E07419"/>
<path d="M25.6099 59.4134C25.2417 59.4134 24.8869 59.2108 24.71 58.8595C23.912 57.2746 23.3241 55.5809 22.9625 53.8294C21.3584 46.0482 24.4794 38.0052 30.9141 33.3395C31.3643 33.0149 31.9934 33.113 32.3198 33.566C32.6462 34.014 32.5458 34.6431 32.0956 34.9703C26.3004 39.1704 23.4894 46.4131 24.9342 53.4217C25.2601 55.0021 25.7896 56.5272 26.508 57.9541C26.7582 58.4498 26.5584 59.0556 26.0619 59.3057C25.9167 59.3789 25.7621 59.4134 25.6099 59.4134Z" fill="#E07419"/>
<path d="M71.0129 45.8272C70.7658 45.8272 70.5502 45.646 70.5152 45.3943C69.9281 41.1866 68.3227 37.2205 65.8726 33.9213C65.707 33.6973 65.7536 33.3828 65.9765 33.2167C66.1993 33.0506 66.5151 33.0984 66.6807 33.3198C69.2312 36.7549 70.902 40.8821 71.5122 45.2559C71.5505 45.5302 71.3585 45.7844 71.0832 45.8221C71.0595 45.8272 71.0361 45.8272 71.0129 45.8272Z" fill="#23282E"/>
<path d="M17.0464 39.5107C16.9827 39.5107 16.9183 39.4981 16.8559 39.473C16.5984 39.3673 16.4754 39.0729 16.5806 38.8162C18.2002 34.8576 20.868 31.2916 24.2953 28.5083C24.5115 28.3321 24.8284 28.3649 25.0035 28.5813C25.1789 28.7977 25.1459 29.1148 24.9303 29.2884C21.6333 31.9686 19.0682 35.3936 17.5122 39.1962C17.4324 39.3924 17.2444 39.5107 17.0464 39.5107Z" fill="#23282E"/>
<path d="M30.42 76.1043C30.3513 76.1043 30.2814 76.0902 30.2144 76.0603C26.3112 74.3113 22.8369 71.5275 20.1668 68.0098C19.9989 67.7886 20.042 67.4728 20.2634 67.3047C20.4849 67.1368 20.8007 67.1798 20.9688 67.4013C23.537 70.7848 26.8765 73.4614 30.6261 75.1415C30.8798 75.2552 30.9933 75.5532 30.8796 75.8066C30.796 75.9936 30.6123 76.1043 30.42 76.1043Z" fill="#23282E"/>
</svg>
