<svg width="110" height="120" viewBox="0 0 110 120" fill="none" xmlns="http://www.w3.org/2000/svg">
<path d="M64.5783 106.884C63.8045 106.884 63.0065 106.852 62.1824 106.786C38.9352 104.932 28.6495 104.016 24.6467 95.2562C20.574 86.341 13.139 42.5161 24.6467 23.8379C32.3571 11.3202 40.0654 7.70216 49.9641 7.70216C54.837 7.70216 60.2389 8.5788 66.4365 9.70029C85.6569 13.1828 90.9408 19.0088 90.0029 39.8775C89.0651 60.7468 90.5932 71.3884 88.9295 81.3567C88.5907 83.3786 85.646 106.884 64.5783 106.884ZM30.5777 84.7316C28.9905 84.7316 27.7073 86.0168 27.7073 87.602C27.7073 89.1874 28.9905 90.4726 30.5777 90.4726C32.1626 90.4726 33.448 89.1874 33.448 87.602C33.448 86.0168 32.1626 84.7316 30.5777 84.7316ZM79.3215 82.6259C78.2438 82.6259 77.3694 83.4995 77.3694 84.5773C77.3694 85.655 78.2438 86.5286 79.3215 86.5286C80.3993 86.5286 81.2716 85.655 81.2716 84.5773C81.2716 83.4995 80.3993 82.6259 79.3215 82.6259ZM44.1535 20.9063C42.5685 20.9063 41.2831 22.1918 41.2831 23.7767C41.2831 25.3616 42.5685 26.6471 44.1535 26.6471C45.7406 26.6471 47.0238 25.3616 47.0238 23.7767C47.0238 22.1918 45.7406 20.9063 44.1535 20.9063Z" fill="#FFF4E9"/>
<path d="M30.5774 90.4725C28.9903 90.4725 27.707 89.1873 27.707 87.6019C27.707 86.0168 28.9903 84.7315 30.5774 84.7315C32.1624 84.7315 33.4478 86.0168 33.4478 87.6019C33.4478 89.1873 32.1624 90.4725 30.5774 90.4725Z" fill="#F4D9BB"/>
<path d="M79.3213 86.5285C78.2436 86.5285 77.3691 85.6549 77.3691 84.5772C77.3691 83.4994 78.2436 82.6259 79.3213 82.6259C80.3991 82.6259 81.2714 83.4994 81.2714 84.5772C81.2714 85.6549 80.3991 86.5285 79.3213 86.5285Z" fill="#F4D9BB"/>
<path d="M44.1536 26.647C42.5687 26.647 41.2832 25.3615 41.2832 23.7766C41.2832 22.1917 42.5687 20.9062 44.1536 20.9062C45.7407 20.9062 47.0239 22.1917 47.0239 23.7766C47.0239 25.3615 45.7407 26.647 44.1536 26.647Z" fill="#CDE1EB"/>
<path d="M46.2183 99.4808C46.0521 99.4808 45.8925 99.3859 45.8204 99.225L26.7378 57.3925C26.6394 57.1717 26.7356 56.9138 26.9542 56.8132C27.175 56.7127 27.4351 56.8089 27.5335 57.0297L46.6161 98.8621C46.7145 99.0816 46.6183 99.3411 46.3997 99.4412C46.3407 99.4681 46.2773 99.4808 46.2183 99.4808Z" fill="#23282E"/>
<path d="M59.493 99.4808C59.434 99.4808 59.3728 99.4683 59.3138 99.4417C59.093 99.342 58.9968 99.0827 59.0952 98.8628L77.0432 59.2912C77.1438 59.0713 77.4017 58.9738 77.6225 59.0737C77.8411 59.1734 77.9395 59.4324 77.839 59.6523L59.8909 99.2242C59.8188 99.3855 59.6592 99.4808 59.493 99.4808Z" fill="#23282E"/>
<path d="M70.8739 109.099H35.7015C34.2586 109.099 33.0781 107.919 33.0781 106.476V101.351C33.0781 99.9084 34.2586 98.7279 35.7015 98.7279H70.8739C72.3167 98.7279 73.4972 99.9084 73.4972 101.351V106.476C73.4972 107.919 72.3167 109.099 70.8739 109.099Z" fill="white"/>
<path d="M25.9272 119.206C25.8857 119.206 25.8441 119.2 25.8048 119.188C23.3039 118.46 21.7583 115.976 22.2086 113.412C22.2502 113.174 22.4775 113.016 22.7136 113.057C22.9519 113.098 23.1115 113.325 23.07 113.563C22.6983 115.687 23.9772 117.745 26.0497 118.349C26.2814 118.416 26.4147 118.659 26.347 118.891C26.2901 119.082 26.1152 119.206 25.9272 119.206Z" fill="#23282E"/>
<path d="M51.0082 97.0759C50.7983 97.0759 50.6147 96.9265 50.5776 96.7143L46.5398 73.7602C46.4982 73.5224 46.6578 73.2957 46.8961 73.2539C47.1344 73.2115 47.3596 73.3711 47.4011 73.6087L51.4389 96.5628C51.4804 96.8006 51.3208 97.0273 51.0847 97.0691C51.0585 97.0737 51.0323 97.0759 51.0082 97.0759Z" fill="#23282E"/>
<path d="M54.6623 97.255L54.612 97.2522C54.3737 97.2246 54.201 97.008 54.2272 96.768L56.8856 73.6347C56.914 73.3946 57.1304 73.2234 57.3709 73.2503C57.6092 73.2779 57.7819 73.4945 57.7556 73.7346L55.0973 96.8678C55.0711 97.0908 54.8831 97.255 54.6623 97.255Z" fill="#23282E"/>
<path d="M73.0861 118.544C72.8653 118.544 72.6773 118.379 72.6511 118.155C72.6248 117.915 72.7975 117.699 73.038 117.672C75.2416 117.428 76.9031 115.572 76.9031 113.354C76.9031 113.113 77.0976 112.917 77.3403 112.917C77.5808 112.917 77.7775 113.113 77.7775 113.354C77.7775 116.018 75.7816 118.248 73.1342 118.542L73.0861 118.544Z" fill="#23282E"/>
<path d="M107.157 36.2703C107.157 54.6621 83.1687 69.5738 53.5796 69.5738C23.9883 69.5738 0 54.6621 0 36.2703C0 17.8763 23.9883 2.96474 53.5796 2.96474C83.1687 2.96474 107.157 17.8763 107.157 36.2703Z" fill="#FB9946"/>
<path d="M55.3056 68.5296C40.9144 68.5296 27.3779 65.0418 17.1906 58.7086C6.93774 52.3361 1.29102 43.8408 1.29102 34.7881C1.29102 25.7354 6.93774 17.2401 17.1906 10.8676C27.3779 4.5344 40.9144 1.04756 55.3056 1.04756C60.7381 1.04756 66.0985 1.54818 71.2402 2.5363C71.4763 2.58221 71.6316 2.81176 71.5857 3.04786C71.5398 3.28397 71.3124 3.44135 71.0741 3.39545C65.987 2.41606 60.6835 1.92201 55.3056 1.92201C26.0051 1.92201 2.16546 16.6652 2.16546 34.7881C2.16546 52.911 26.0051 67.6551 55.3056 67.6551C84.6084 67.6551 108.448 52.911 108.448 34.7881C108.448 22.5393 97.5349 11.3835 79.965 5.67338C79.7355 5.59906 79.6109 5.35202 79.6852 5.12248C79.7596 4.89293 80.0044 4.76615 80.2361 4.84048C98.1776 10.673 109.322 22.148 109.322 34.7881C109.322 43.8408 103.676 52.3361 93.4228 58.7086C83.2355 65.0418 69.699 68.5296 55.3056 68.5296Z" fill="#23282E"/>
<path d="M32.2874 102.468C32.2874 101.636 31.9004 99.7804 34.7315 99.1801C38.4675 98.3876 46.2676 98.9713 52.6729 98.9713C59.71 98.9713 67.5888 98.5507 71.2528 99.4809C73.4498 100.039 73.0607 101.744 73.0607 102.468H32.2874Z" fill="#FB9946"/>
<path d="M38.4976 115.691H35.3867C33.6991 115.691 32.3262 114.318 32.3262 112.63V101.366C32.3262 99.6786 33.6991 98.3057 35.3867 98.3057H53.855C54.0955 98.3057 54.2923 98.5013 54.2923 98.7429C54.2923 98.9843 54.0955 99.1801 53.855 99.1801H35.3867C34.18 99.1801 33.2006 100.161 33.2006 101.366V112.63C33.2006 113.836 34.18 114.816 35.3867 114.816H38.4976C38.738 114.816 38.9348 115.012 38.9348 115.254C38.9348 115.495 38.738 115.691 38.4976 115.691Z" fill="#23282E"/>
<path d="M71.0932 115.691H42.1599C41.9172 115.691 41.7227 115.495 41.7227 115.254C41.7227 115.012 41.9172 114.816 42.1599 114.816H71.0932C72.2977 114.816 73.2793 113.836 73.2793 112.63V101.366C73.2793 101.065 73.2181 100.774 73.0979 100.499C73.0017 100.277 73.1022 100.02 73.323 99.9232C73.5438 99.8263 73.8018 99.9278 73.9002 100.149C74.0685 100.535 74.1537 100.944 74.1537 101.366V112.63C74.1537 114.318 72.7809 115.691 71.0932 115.691Z" fill="#23282E"/>
<path d="M73.4981 100.761C73.3298 100.761 73.1702 100.663 73.0981 100.499C72.7483 99.6975 71.9613 99.1801 71.0934 99.1801H57.9548C57.7121 99.1801 57.5176 98.9842 57.5176 98.7429C57.5176 98.5013 57.7121 98.3056 57.9548 98.3056H71.0934C72.3089 98.3056 73.4107 99.029 73.9004 100.149C73.9966 100.37 73.8938 100.628 73.673 100.725C73.6162 100.749 73.5571 100.761 73.4981 100.761Z" fill="#23282E"/>
<path d="M32.7626 107.435H27.529C27.2885 107.435 27.0918 107.24 27.0918 106.998C27.0918 106.757 27.2885 106.561 27.529 106.561H32.7626C33.0031 106.561 33.1998 106.757 33.1998 106.998C33.1998 107.24 33.0031 107.435 32.7626 107.435Z" fill="#23282E"/>
<path d="M27.8752 98.8286C27.6763 98.8286 27.4752 98.8776 27.2893 98.9751C26.6095 99.3325 26.205 100.279 26.1045 101.059C25.9165 102.541 26.5701 104.07 27.1997 105.549C27.2194 105.597 27.2412 105.644 27.2609 105.691C27.3943 105.437 27.5582 105.159 27.7397 104.853C27.8818 104.617 28.0129 104.394 28.0588 104.29C28.5354 103.184 28.8568 102.176 29.0426 101.208C29.1279 100.76 29.2 100.24 29.082 99.7761C28.9836 99.3968 28.7256 99.0901 28.3758 98.9346C28.2162 98.8638 28.0458 98.8286 27.8752 98.8286ZM27.3178 107.423C27.1407 107.423 26.9745 107.315 26.9068 107.14V107.138C26.7559 106.736 26.581 106.326 26.3952 105.892C25.7503 104.38 25.0201 102.666 25.2387 100.949C25.3612 99.973 25.8596 98.739 26.8827 98.2012C27.4621 97.8958 28.1354 97.8722 28.73 98.135C29.3268 98.3997 29.764 98.9182 29.928 99.5581C30.0897 100.189 30.0067 100.83 29.9018 101.373C29.7028 102.404 29.364 103.472 28.8612 104.636C28.7934 104.792 28.66 105.016 28.4917 105.3C28.2622 105.686 27.7288 106.582 27.7331 106.854C27.8031 107.074 27.6894 107.312 27.4708 107.395C27.4205 107.414 27.3681 107.423 27.3178 107.423Z" fill="#23282E"/>
<path d="M27.2609 108.43C27.2412 108.477 27.2194 108.525 27.1997 108.573C26.5701 110.051 25.9165 111.58 26.1045 113.062C26.205 113.842 26.6095 114.789 27.2893 115.146C27.6304 115.326 28.0282 115.341 28.3758 115.187C28.7256 115.031 28.9836 114.725 29.082 114.345C29.2 113.882 29.1279 113.361 29.0426 112.914C28.8568 111.945 28.5354 110.937 28.0588 109.832C28.0129 109.727 27.8796 109.505 27.7397 109.268C27.5582 108.962 27.3943 108.684 27.2609 108.43ZM27.8752 116.168C27.5364 116.168 27.1954 116.085 26.8827 115.92C25.8596 115.383 25.3612 114.148 25.2387 113.173C25.0201 111.456 25.7503 109.742 26.3952 108.229C26.581 107.796 26.7559 107.386 26.9068 106.983V106.982C26.992 106.756 27.2456 106.642 27.4708 106.727C27.6894 106.809 27.8031 107.048 27.7331 107.268C27.7288 107.539 28.2622 108.436 28.4917 108.821C28.66 109.105 28.7934 109.329 28.8612 109.486C29.364 110.65 29.7028 111.717 29.9018 112.749C30.0067 113.292 30.0897 113.932 29.928 114.563C29.764 115.203 29.3268 115.722 28.73 115.986C28.4567 116.107 28.166 116.168 27.8752 116.168Z" fill="#23282E"/>
<path d="M22.9954 99.4808C22.9539 99.4808 22.9123 99.4751 22.873 99.4633C22.6391 99.3956 22.5079 99.1529 22.5735 98.9212C23.3037 96.4218 25.7871 94.8766 28.3514 95.3248C28.5897 95.3665 28.7471 95.593 28.7056 95.8309C28.664 96.0687 28.4388 96.2274 28.2005 96.1861C26.0734 95.8132 24.0185 97.0951 23.4129 99.1658C23.3583 99.3569 23.1834 99.4808 22.9954 99.4808Z" fill="#23282E"/>
<path d="M22.9951 120C22.9535 120 22.912 119.994 22.8727 119.982C20.9992 119.436 19.8405 117.576 20.1772 115.655C20.2187 115.417 20.4461 115.259 20.6844 115.3C20.9205 115.341 21.08 115.568 21.0385 115.806C20.7783 117.287 21.6725 118.722 23.1153 119.143C23.347 119.21 23.4804 119.453 23.4126 119.685C23.358 119.876 23.1831 120 22.9951 120Z" fill="#23282E"/>
<path d="M21.9745 96.6093C21.9352 96.6093 21.8936 96.6036 21.8521 96.5918C21.6204 96.5242 21.487 96.2814 21.5548 96.0496C22.0882 94.2203 23.907 93.0892 25.7827 93.4171C26.021 93.4589 26.1806 93.6853 26.1391 93.9232C26.0975 94.161 25.8702 94.3202 25.6319 94.2784C24.1934 94.0266 22.803 94.8932 22.3942 96.2945C22.3374 96.4853 22.1647 96.6093 21.9745 96.6093Z" fill="#23282E"/>
<path d="M42.6801 104.387C41.1476 104.387 39.9037 105.633 39.9037 107.164C39.9037 108.695 41.1476 109.941 42.6801 109.941C44.2104 109.941 45.4565 108.695 45.4565 107.164C45.4565 105.633 44.2104 104.387 42.6801 104.387ZM42.6801 110.815C40.6667 110.815 39.0293 109.177 39.0293 107.164C39.0293 105.15 40.6667 103.512 42.6801 103.512C44.6935 103.512 46.3309 105.15 46.3309 107.164C46.3309 109.177 44.6935 110.815 42.6801 110.815Z" fill="#23282E"/>
<path d="M52.9125 104.387C51.3823 104.387 50.1362 105.633 50.1362 107.164C50.1362 108.695 51.3823 109.941 52.9125 109.941C54.445 109.941 55.6889 108.695 55.6889 107.164C55.6889 105.633 54.445 104.387 52.9125 104.387ZM52.9125 110.815C50.8991 110.815 49.2617 109.177 49.2617 107.164C49.2617 105.15 50.8991 103.512 52.9125 103.512C54.926 103.512 56.5634 105.15 56.5634 107.164C56.5634 109.177 54.926 110.815 52.9125 110.815Z" fill="#23282E"/>
<path d="M63.1879 104.387C61.6576 104.387 60.4116 105.633 60.4116 107.164C60.4116 108.695 61.6576 109.941 63.1879 109.941C64.7204 109.941 65.9665 108.695 65.9665 107.164C65.9665 105.633 64.7204 104.387 63.1879 104.387ZM63.1879 110.815C61.1745 110.815 59.5371 109.177 59.5371 107.164C59.5371 105.15 61.1745 103.512 63.1879 103.512C65.2013 103.512 66.8409 105.15 66.8409 107.164C66.8409 109.177 65.2013 110.815 63.1879 110.815Z" fill="#23282E"/>
<path d="M17.2397 5.9227C17.102 5.9227 16.9664 5.8571 16.8812 5.73468C16.7434 5.53574 16.7915 5.26249 16.9905 5.12477C21.0304 2.31997 25.8333 0.551395 30.8833 0.0114241C31.1216 -0.0148091 31.338 0.160076 31.3642 0.400549C31.3904 0.638836 31.2155 0.855262 30.9751 0.881495C26.0716 1.40616 21.4086 3.12227 17.4889 5.84399C17.4124 5.89645 17.3272 5.9227 17.2397 5.9227Z" fill="#23282E"/>
<path d="M90.1056 5.91389C90.0182 5.91389 89.9329 5.88767 89.8564 5.8352C85.9367 3.11348 81.2737 1.39738 76.3702 0.872712C76.1298 0.846479 75.9549 0.63004 75.9811 0.389567C76.0074 0.15128 76.2238 -0.0236135 76.4621 0.00261974C81.512 0.542591 86.3149 2.31117 90.3549 5.11596C90.5538 5.25369 90.6019 5.52696 90.4642 5.7259C90.3789 5.84832 90.2434 5.91389 90.1056 5.91389Z" fill="#23282E"/>
<path d="M22.8256 16.217C22.4562 16.217 22.1129 15.9788 21.9927 15.6093C21.8462 15.148 22.0998 14.6562 22.5589 14.5097C23.7962 14.114 25.0817 13.8232 26.3781 13.6462C26.8568 13.5806 27.2984 13.9172 27.3618 14.396C27.4274 14.8726 27.0929 15.3142 26.6141 15.3798C25.4183 15.5415 24.2335 15.8082 23.0923 16.1755C23.0049 16.2039 22.9131 16.217 22.8256 16.217Z" fill="#E07419"/>
<path d="M8.18108 39.4621C7.75042 39.4621 7.3766 39.1429 7.31539 38.7057C6.13926 30.0465 10.1661 21.4572 17.577 16.8204C17.9858 16.5647 18.5258 16.6893 18.7816 17.0981C19.0374 17.5091 18.9127 18.049 18.5039 18.3048C11.6767 22.5765 7.96464 30.4902 9.04896 38.4696C9.11454 38.9483 8.7779 39.3878 8.29914 39.4533C8.25979 39.4599 8.22043 39.4621 8.18108 39.4621Z" fill="#E07419"/>
<path d="M18.9025 65.8442C18.8653 65.8442 18.8281 65.8392 18.7888 65.8292C14.0405 64.5544 9.58743 62.0271 5.91693 58.5207C5.74204 58.3524 5.73546 58.0769 5.90161 57.9021C6.06775 57.7272 6.3454 57.7206 6.52029 57.8868C10.0859 61.2938 14.4078 63.748 19.0161 64.9847C19.2501 65.0472 19.3878 65.287 19.3244 65.5203C19.2719 65.7155 19.097 65.8442 18.9025 65.8442Z" fill="#23282E"/>
</svg>
