<svg width="106" height="120" viewBox="0 0 106 120" fill="none" xmlns="http://www.w3.org/2000/svg">
<path d="M62.6212 106.76C61.8806 106.76 61.117 106.73 60.3283 106.667C38.0814 104.892 28.2382 104.015 24.4077 95.6326C20.5102 87.101 13.3951 45.1618 24.4077 27.2872C31.7864 15.3081 39.163 11.8458 48.6358 11.8458C53.299 11.8458 58.4685 12.6847 64.3995 13.7579C82.7928 17.0905 87.8493 22.6659 86.9518 42.6366C86.0543 62.608 87.5167 72.7918 85.9246 82.3311C85.6024 84.2661 82.7824 106.76 62.6212 106.76ZM32.1755 91.8374C30.6588 91.8374 29.4286 93.0674 29.4286 94.5845C29.4286 96.1015 30.6588 97.3312 32.1755 97.3312C33.6922 97.3312 34.9224 96.1015 34.9224 94.5845C34.9224 93.0674 33.6922 91.8374 32.1755 91.8374ZM76.73 83.5458C75.6986 83.5458 74.8618 84.3817 74.8618 85.4131C74.8618 86.4445 75.6986 87.2805 76.73 87.2805C77.7614 87.2805 78.5982 86.4445 78.5982 85.4131C78.5982 84.3817 77.7614 83.5458 76.73 83.5458ZM43.0772 24.4818C41.5584 24.4818 40.3303 25.7119 40.3303 27.2286C40.3303 28.7454 41.5584 29.9755 43.0772 29.9755C44.5939 29.9755 45.8241 28.7454 45.8241 27.2286C45.8241 25.7119 44.5939 24.4818 43.0772 24.4818Z" fill="#FFF4E9"/>
<path d="M32.1766 97.3312C30.6598 97.3312 29.4297 96.1015 29.4297 94.5845C29.4297 93.0674 30.6598 91.8375 32.1766 91.8375C33.6933 91.8375 34.9234 93.0674 34.9234 94.5845C34.9234 96.1015 33.6933 97.3312 32.1766 97.3312Z" fill="#F4D9BB"/>
<path d="M76.7295 87.2804C75.6981 87.2804 74.8613 86.4444 74.8613 85.4131C74.8613 84.3817 75.6981 83.5457 76.7295 83.5457C77.7609 83.5457 78.5977 84.3817 78.5977 85.4131C78.5977 86.4444 77.7609 87.2804 76.7295 87.2804Z" fill="#F4D9BB"/>
<path d="M43.0769 29.9754C41.5581 29.9754 40.3301 28.7453 40.3301 27.2286C40.3301 25.7118 41.5581 24.4817 43.0769 24.4817C44.5937 24.4817 45.8238 25.7118 45.8238 27.2286C45.8238 28.7453 44.5937 29.9754 43.0769 29.9754Z" fill="#CDE1EB"/>
<path d="M55.7651 113.438L48.5852 113.739C47.0371 113.754 45.7483 112.625 45.5308 111.147C45.4973 110.923 45.5015 110.695 45.5203 110.469L45.7567 107.651C45.7504 107.045 46.2421 106.549 46.8529 106.543L55.6982 106.458C56.3091 106.452 56.8091 106.939 56.8153 107.545L56.8613 112.33C56.8655 112.936 56.376 113.432 55.7651 113.438Z" fill="white"/>
<path d="M45.0534 105.952C44.8944 105.952 44.7417 105.861 44.6726 105.707L26.4131 65.6743C26.3169 65.4641 26.409 65.2159 26.6203 65.1199C26.8295 65.0241 27.0784 65.1168 27.1746 65.327L45.4341 105.36C45.5303 105.57 45.4362 105.818 45.227 105.914C45.1705 105.94 45.1119 105.952 45.0534 105.952Z" fill="#23282E"/>
<path d="M57.7555 105.952C57.699 105.952 57.6404 105.94 57.584 105.915C57.3727 105.819 57.2806 105.571 57.3748 105.361L74.5505 67.4917C74.6468 67.281 74.8936 67.1877 75.1049 67.2835C75.3141 67.3789 75.4083 67.6268 75.3121 67.8373L58.1384 105.706C58.0672 105.861 57.9145 105.952 57.7555 105.952Z" fill="#23282E"/>
<path d="M51.5622 108.743C50.0957 108.743 48.9032 109.935 48.9032 111.4C48.9032 112.866 50.0957 114.058 51.5622 114.058C53.0267 114.058 54.2191 112.866 54.2191 111.4C54.2191 109.935 53.0267 108.743 51.5622 108.743ZM51.5622 114.895C49.6354 114.895 48.0664 113.327 48.0664 111.4C48.0664 109.473 49.6354 107.906 51.5622 107.906C53.489 107.906 55.056 109.473 55.056 111.4C55.056 113.327 53.489 114.895 51.5622 114.895Z" fill="#23282E"/>
<path d="M45.0527 106.684C45.0527 105.124 47.8958 103.86 51.4042 103.86C54.9126 103.86 57.7578 105.124 57.7578 106.684H45.0527Z" fill="#FB9946"/>
<path d="M54.8273 118.033H48.1871C46.7938 118.033 45.6285 116.823 45.48 115.218L44.6369 106.193C44.6138 105.963 44.7833 105.759 45.0134 105.737C45.2436 105.717 45.4486 105.885 45.4695 106.115L46.3126 115.141C46.4214 116.312 47.2289 117.196 48.1871 117.196H54.8273C55.708 117.196 56.4402 116.381 56.5302 115.301L57.3399 105.499C57.3587 105.269 57.5574 105.095 57.7917 105.117C58.0219 105.136 58.1934 105.338 58.1745 105.568L57.3629 115.37C57.2373 116.888 56.1473 118.033 54.8273 118.033Z" fill="#23282E"/>
<path d="M45.5074 120C45.4697 120 45.43 119.995 45.3902 119.983C42.999 119.286 41.5199 116.909 41.9488 114.455C41.9885 114.228 42.2082 114.076 42.4341 114.115C42.6622 114.155 42.8128 114.372 42.7731 114.6C42.4174 116.633 43.6434 118.602 45.6245 119.18C45.8463 119.244 45.9739 119.477 45.9091 119.699C45.8568 119.881 45.6894 120 45.5074 120Z" fill="#23282E"/>
<path d="M57.7559 106.475C57.5258 106.475 57.3375 106.287 57.3375 106.056C57.3375 105.363 56.4568 104.643 55.0384 104.179C54.8187 104.107 54.6994 103.87 54.7706 103.651C54.8438 103.432 55.0802 103.311 55.2999 103.384C57.1262 103.982 58.1743 104.956 58.1743 106.056C58.1743 106.287 57.9881 106.475 57.7559 106.475Z" fill="#23282E"/>
<path d="M45.0532 106.475C44.821 106.475 44.6348 106.287 44.6348 106.056C44.6348 104.238 47.6076 102.814 51.4047 102.814C51.6369 102.814 51.8231 103.001 51.8231 103.232C51.8231 103.463 51.6369 103.651 51.4047 103.651C48.5992 103.651 45.4716 104.638 45.4716 106.056C45.4716 106.287 45.2833 106.475 45.0532 106.475Z" fill="#23282E"/>
<path d="M49.6359 103.651C49.4371 103.651 49.2593 103.508 49.2238 103.305L45.3618 81.3382C45.3221 81.1106 45.4727 80.8936 45.7007 80.8536C45.9288 80.8129 46.1463 80.9658 46.1861 81.1932L50.048 103.16C50.0878 103.387 49.9371 103.604 49.7091 103.644C49.684 103.648 49.6589 103.651 49.6359 103.651Z" fill="#23282E"/>
<path d="M53.1341 103.822L53.086 103.819C52.8558 103.793 52.6906 103.585 52.7178 103.356L55.2596 81.2179C55.2868 80.9881 55.4939 80.8245 55.724 80.8501C55.9542 80.8764 56.1173 81.0837 56.0922 81.3134L53.5483 103.451C53.5232 103.665 53.3433 103.822 53.1341 103.822Z" fill="#23282E"/>
<path d="M56.5613 119.747C56.352 119.747 56.1701 119.589 56.1471 119.375C56.1219 119.145 56.2872 118.938 56.5173 118.913C58.6261 118.679 60.2161 116.902 60.2161 114.78C60.2161 114.549 60.4023 114.362 60.6345 114.362C60.8646 114.362 61.0529 114.549 61.0529 114.78C61.0529 117.329 59.1429 119.464 56.6094 119.745L56.5613 119.747Z" fill="#23282E"/>
<path d="M55.3258 19.5173C58.6271 31.6721 47.3906 44.1198 34.9764 42.6721C31.9324 42.3165 28.9889 41.2161 26.4952 39.4295C21.2044 35.6366 17.9387 29.2077 18.5851 22.6595C19.8236 10.0946 34.1103 0.787079 45.7086 7.09045C50.5057 9.69715 53.9262 14.3624 55.3258 19.5173Z" fill="#FB9946"/>
<path d="M37.7953 42.7726C37.128 42.7726 36.4606 42.7329 35.7974 42.6555C32.6363 42.2873 29.6363 41.1409 27.1217 39.3375C26.6593 39.0049 26.2053 38.6492 25.7744 38.2789C25.5987 38.1283 25.5798 37.8647 25.7305 37.6889C25.879 37.5132 26.1447 37.4944 26.3204 37.645C26.7325 37.9986 27.1677 38.3396 27.6091 38.6576C30.0087 40.3773 32.8748 41.4735 35.8958 41.8249C39.9418 42.2957 44.1447 41.2413 47.7347 38.8542C51.2012 36.5488 53.8833 33.1827 55.2849 29.3751C55.3644 29.1576 55.6071 29.0467 55.8226 29.1262C56.0402 29.2078 56.151 29.4483 56.0715 29.6638C54.6071 33.6366 51.81 37.1492 48.1991 39.5509C45.0297 41.6576 41.3999 42.7726 37.7953 42.7726Z" fill="#23282E"/>
<path d="M56.0594 28.7935C56.0196 28.7935 55.9799 28.7872 55.9401 28.7767C55.7184 28.7098 55.5928 28.4776 55.6577 28.2558C55.9589 27.2328 56.1682 26.1888 56.2748 25.1491C56.2979 24.919 56.5029 24.7537 56.733 24.7767C56.9631 24.7997 57.1305 25.0068 57.1075 25.2349C56.9945 26.3248 56.7769 27.4211 56.4589 28.4943C56.4066 28.6763 56.2393 28.7935 56.0594 28.7935Z" fill="#23282E"/>
<path d="M56.763 23.1386C56.5391 23.1386 56.355 22.9629 56.3446 22.7391C56.2923 21.5445 56.1061 20.352 55.7902 19.1951C54.7002 15.1804 52.3843 11.5528 49.2651 8.97959C49.0872 8.83105 49.0621 8.56745 49.2085 8.38963C49.3571 8.2118 49.6186 8.18671 49.7985 8.33316C53.0475 11.0173 55.4638 14.7955 56.5977 18.9754C56.9283 20.193 57.1249 21.4462 57.1814 22.7014C57.1898 22.9315 57.0119 23.1282 56.7818 23.1386H56.763Z" fill="#23282E"/>
<path d="M48.2574 8.11137C48.1758 8.11137 48.0921 8.08628 48.021 8.03607C47.4917 7.66996 46.9394 7.33105 46.3787 7.02561C46.1758 6.91473 46.1005 6.66158 46.2113 6.45865C46.3222 6.25572 46.5754 6.18041 46.7783 6.29128C47.3641 6.60928 47.9436 6.96493 48.4959 7.34777C48.6862 7.47957 48.7343 7.74108 48.6025 7.92936C48.521 8.04861 48.3912 8.11137 48.2574 8.11137Z" fill="#23282E"/>
<path d="M19.3755 24.2244H19.3734C19.1432 24.2223 18.955 24.034 18.957 23.8039C18.9591 23.2641 18.9884 22.7202 19.0407 22.1888C19.5951 16.5654 22.8483 11.1762 27.7437 7.77037C32.3818 4.54233 37.9236 3.44819 42.9467 4.76618C43.1705 4.82476 43.3044 5.05488 43.2458 5.27663C43.1873 5.50048 42.9571 5.63437 42.7354 5.57579C37.9488 4.32056 32.66 5.36868 28.2207 8.45656C23.524 11.7244 20.4027 16.8875 19.8734 22.2704C19.8232 22.7767 19.796 23.2934 19.7939 23.8081C19.7918 24.0382 19.6056 24.2244 19.3755 24.2244Z" fill="#23282E"/>
<path d="M28.3757 12.1575C28.1142 12.1575 27.8569 12.0361 27.6937 11.8081C27.4239 11.4315 27.5117 10.9085 27.8883 10.6407C28.6561 10.0926 29.4804 9.60725 30.3381 9.19721C30.7565 8.99846 31.2544 9.17419 31.4552 9.5926C31.654 10.0089 31.4762 10.5089 31.0599 10.7077C30.2879 11.0759 29.5494 11.511 28.8611 12.0027C28.7126 12.1073 28.5431 12.1575 28.3757 12.1575Z" fill="#E07419"/>
<path d="M25.6619 34.6241C25.4255 34.6241 25.1912 34.5236 25.026 34.3312C24.1034 33.2538 23.323 32.0529 22.708 30.7621C19.9736 25.032 20.8544 18.1951 24.9548 13.3458C25.2519 12.9922 25.7812 12.9483 26.1347 13.2474C26.4862 13.5445 26.5301 14.0738 26.2331 14.4252C22.5573 18.7746 21.7665 24.9044 24.2184 30.0424C24.7707 31.2014 25.4695 32.2768 26.2979 33.2433C26.5971 33.5927 26.5573 34.122 26.2059 34.4211C26.049 34.5571 25.8544 34.6241 25.6619 34.6241Z" fill="#E07419"/>
<path d="M55.3783 10.2998C55.2548 10.2998 55.1314 10.2433 55.0477 10.1387C54.1816 9.03197 53.2046 8.02778 52.1439 7.1533C51.9661 7.00476 51.941 6.74116 52.0875 6.56333C52.2339 6.38551 52.4975 6.3604 52.6774 6.50684C53.7841 7.42107 54.803 8.4692 55.7067 9.62192C55.849 9.80393 55.8176 10.0675 55.6356 10.2098C55.5582 10.2705 55.4682 10.2998 55.3783 10.2998Z" fill="#23282E"/>
<path d="M15.329 20.8206C15.3081 20.8206 15.2871 20.8185 15.2662 20.8164C15.0382 20.783 14.8792 20.5696 14.9127 20.3415C15.4106 16.965 16.7976 13.693 18.921 10.8792C19.0591 10.6951 19.3227 10.6595 19.5068 10.7976C19.6909 10.9377 19.7286 11.1993 19.5884 11.3834C17.5486 14.0863 16.2181 17.2244 15.7411 20.4629C15.7097 20.6721 15.5319 20.8206 15.329 20.8206Z" fill="#23282E"/>
<path d="M88.7414 19.6115C92.0427 31.7664 80.8062 44.2141 68.392 42.7664C65.348 42.4128 62.4045 41.3103 59.9107 39.5237C54.6199 35.7308 51.3563 29.3019 52.0007 22.7559C53.2413 10.1889 67.5258 0.883408 79.1242 7.18468C83.9234 9.79139 87.3418 14.4588 88.7414 19.6115Z" fill="#FB9946"/>
<path d="M89.4735 28.8877C89.4337 28.8877 89.3939 28.8814 89.3542 28.8709C89.1324 28.8061 89.0069 28.5718 89.0718 28.35C89.3751 27.327 89.5822 26.2831 89.6889 25.2454C89.7119 25.0153 89.917 24.8458 90.1471 24.8709C90.3772 24.8961 90.5446 25.1011 90.5216 25.3312C90.4086 26.4191 90.191 27.5153 89.8751 28.5885C89.8207 28.7705 89.6534 28.8877 89.4735 28.8877Z" fill="#23282E"/>
<path d="M90.179 23.2327C89.9551 23.2327 89.771 23.057 89.7606 22.8331C89.7083 21.6386 89.5221 20.4461 89.2083 19.2892C88.1183 15.2745 85.8003 11.6469 82.6811 9.07368C82.5032 8.92723 82.4781 8.66363 82.6246 8.48371C82.7731 8.30589 83.0367 8.2808 83.2145 8.42724C86.4656 11.1114 88.8798 14.8917 90.0158 19.0695C90.3463 20.2871 90.5409 21.5403 90.5974 22.7955C90.6079 23.0256 90.428 23.2223 90.1978 23.2327H90.179Z" fill="#23282E"/>
<path d="M81.6715 8.2056C81.5899 8.2056 81.5083 8.1805 81.435 8.13029C80.9057 7.76418 80.3534 7.42527 79.7928 7.11983C79.5898 7.01104 79.5145 6.7558 79.6254 6.55287C79.7363 6.34994 79.9894 6.27463 80.1923 6.38551C80.7802 6.7035 81.3577 7.05915 81.91 7.442C82.1003 7.5738 82.1484 7.83531 82.0166 8.02569C81.9351 8.14284 81.8053 8.2056 81.6715 8.2056Z" fill="#23282E"/>
<path d="M54.3928 31.7181C54.2338 31.7181 54.0811 31.6261 54.0121 31.4713C52.6878 28.534 52.1501 25.3583 52.4535 22.2829C53.0079 16.6595 56.261 11.2703 61.1564 7.86448C65.7966 4.63643 71.3364 3.54229 76.3594 4.86029C76.5832 4.92096 76.7172 5.14899 76.6586 5.37284C76.6 5.59669 76.372 5.72848 76.1481 5.6699C71.3615 4.41467 66.0727 5.46488 61.6355 8.55066C56.9388 11.8185 53.8175 16.9837 53.2861 22.3645C52.9974 25.2934 53.512 28.3248 54.7735 31.1261C54.8698 31.3374 54.7756 31.5863 54.5643 31.6805C54.5078 31.7056 54.4493 31.7181 54.3928 31.7181Z" fill="#23282E"/>
<path d="M61.7908 12.2537C61.5293 12.2537 61.272 12.1303 61.1088 11.9022C60.841 11.5257 60.9268 11.0048 61.3034 10.7349C62.0712 10.1868 62.8954 9.70141 63.7553 9.29136C64.1716 9.09262 64.6716 9.26834 64.8704 9.68675C65.0691 10.1031 64.8913 10.6031 64.475 10.8018C63.7051 11.17 62.9645 11.6052 62.2762 12.0968C62.1298 12.2014 61.9582 12.2537 61.7908 12.2537Z" fill="#E07419"/>
<path d="M59.0754 34.7181C58.8411 34.7181 58.6068 34.6198 58.4395 34.4253C57.5169 33.3499 56.7365 32.1491 56.1214 30.8583C53.3871 25.1282 54.27 18.2913 58.3683 13.4398C58.6675 13.0863 59.1947 13.0423 59.5482 13.3415C59.9018 13.6407 59.9457 14.1679 59.6466 14.5214C55.9708 18.8687 55.18 24.9984 57.6319 30.1365C58.1842 31.2955 58.885 32.3709 59.7114 33.3374C60.0127 33.6868 59.9708 34.2161 59.6194 34.5173C59.4625 34.6512 59.2679 34.7181 59.0754 34.7181Z" fill="#E07419"/>
<path d="M92.1474 15.2893C91.9821 15.2893 91.8252 15.1909 91.7583 15.0257C90.5031 11.8834 88.503 9.12188 85.9779 7.0382C85.8001 6.88966 85.775 6.62606 85.9215 6.44823C86.07 6.27041 86.3336 6.2453 86.5114 6.39174C89.1432 8.56539 91.2269 11.4441 92.5365 14.716C92.6223 14.9294 92.5177 15.1742 92.3022 15.26C92.252 15.2788 92.1997 15.2893 92.1474 15.2893Z" fill="#23282E"/>
<path d="M59.3908 4.31425C59.259 4.31425 59.1272 4.2515 59.0477 4.13435C58.9159 3.94397 58.9619 3.68456 59.1523 3.55276C61.9557 1.60505 65.2904 0.377012 68.7946 0.00253344C69.0227 -0.0225711 69.2298 0.144798 69.2549 0.372832C69.28 0.602958 69.1126 0.810064 68.8825 0.835168C65.5184 1.195 62.3176 2.37283 59.6293 4.23895C59.5561 4.28916 59.4724 4.31425 59.3908 4.31425Z" fill="#23282E"/>
<path d="M53.9537 50.4191C53.1985 67.2094 33.8511 78.4504 18.6649 71.5558C14.941 69.865 11.6502 67.2684 9.20879 63.9807C4.03095 57.007 2.49957 47.5091 5.98702 39.4526C12.6774 23.9881 34.621 17.9818 46.7926 30.712C51.8282 35.9777 54.2738 43.2999 53.9537 50.4191Z" fill="#FB9946"/>
<path d="M29.6236 73.8342C26.1947 73.8342 22.8349 73.1321 19.7742 71.7425C15.929 69.9967 12.6026 67.3319 10.1549 64.036C9.70513 63.4308 9.27625 62.7973 8.88085 62.153C8.75951 61.9563 8.82018 61.6986 9.01684 61.5774C9.21349 61.4565 9.4729 61.5176 9.59215 61.7145C9.97709 62.3381 10.3913 62.9513 10.8265 63.5371C13.1905 66.7193 16.4039 69.2934 20.1194 70.9804C25.0985 73.2404 30.9039 73.6147 36.4709 72.0342C41.8412 70.5089 46.6467 67.3057 49.9981 63.0151C50.1404 62.8333 50.4019 62.8009 50.586 62.9431C50.768 63.0854 50.7994 63.3484 50.6571 63.5304C47.1969 67.9597 42.2387 71.2656 36.6989 72.8392C34.3579 73.5041 31.973 73.8342 29.6236 73.8342Z" fill="#23282E"/>
<path d="M51.2763 62.3914C51.1947 62.3914 51.1131 62.3679 51.0399 62.3188C50.8495 62.1889 50.7993 61.9286 50.9311 61.7376C51.7345 60.5552 52.429 59.302 52.9918 58.0196C53.0839 57.8062 53.3307 57.712 53.542 57.8041C53.7533 57.8961 53.8516 58.143 53.7575 58.3543C53.1759 59.6849 52.4562 60.9824 51.6215 62.2083C51.542 62.3273 51.4102 62.3914 51.2763 62.3914Z" fill="#23282E"/>
<path d="M54.4748 55.4923C54.4393 55.4923 54.4016 55.4881 54.366 55.4777C54.1422 55.417 54.0104 55.1869 54.0711 54.963C54.4937 53.4149 54.7447 51.8145 54.8158 50.2057C55.0669 44.6325 53.592 39.0488 50.661 34.486C50.5376 34.2914 50.5941 34.032 50.7886 33.9065C50.9811 33.783 51.2405 33.8395 51.3661 34.0341C54.3891 38.7412 55.91 44.4986 55.6527 50.2434C55.5773 51.9128 55.3158 53.576 54.8786 55.1848C54.8284 55.371 54.659 55.4923 54.4748 55.4923Z" fill="#23282E"/>
<path d="M49.7871 32.9337C49.6616 32.9337 49.5381 32.8772 49.4565 32.7705C48.9294 32.0864 48.3645 31.4253 47.7724 30.806C47.6134 30.6387 47.6176 30.3751 47.785 30.2161C47.9524 30.055 48.2181 30.0613 48.3771 30.2286C48.99 30.8688 49.5758 31.5529 50.1197 32.26C50.2599 32.4441 50.2264 32.7056 50.0423 32.8458C49.967 32.9044 49.8771 32.9337 49.7871 32.9337Z" fill="#23282E"/>
<path d="M6.98005 57.7078C6.81059 57.7078 6.64952 57.6032 6.58885 57.4338C4.32106 51.2873 4.42566 44.7726 6.88382 39.0927C9.86291 32.2098 16.16 26.7161 23.7291 24.3918C30.8985 22.1931 38.3442 23.0529 44.1538 26.7517C44.3484 26.8772 44.4069 27.1345 44.2835 27.3312C44.158 27.5257 43.9007 27.5822 43.704 27.4588C38.1015 23.8918 30.909 23.0655 23.9738 25.1931C16.637 27.4441 10.5345 32.7642 7.6537 39.4253C5.27921 44.9065 5.1809 51.1994 7.37337 57.1451C7.45287 57.3605 7.34198 57.6011 7.12441 57.6806C7.07839 57.6995 7.02817 57.7078 6.98005 57.7078Z" fill="#23282E"/>
<path d="M23.0438 29.8667C22.6903 29.8667 22.3618 29.6407 22.2467 29.2851C22.1066 28.8457 22.3492 28.3729 22.7886 28.2328C23.9727 27.8541 25.2007 27.5759 26.4434 27.4064C26.9016 27.3436 27.3221 27.6658 27.3848 28.124C27.4476 28.5821 27.1254 29.0027 26.6693 29.0654C25.5229 29.2223 24.389 29.4775 23.299 29.8269C23.2154 29.8541 23.1275 29.8667 23.0438 29.8667Z" fill="#E07419"/>
<path d="M10.4481 57.3082C10.1196 57.3082 9.81001 57.1157 9.67612 56.7957C8.95227 55.0739 8.45436 53.2559 8.20122 51.3877C7.0757 43.1011 10.9293 34.8814 18.0213 30.4462C18.4126 30.2014 18.9293 30.3186 19.1741 30.7119C19.4188 31.1031 19.2996 31.6198 18.9084 31.8646C12.3749 35.9525 8.82256 43.5278 9.86022 51.1617C10.0945 52.8835 10.5506 54.5613 11.218 56.1471C11.3979 56.5718 11.1971 57.0634 10.7724 57.2433C10.6657 57.2873 10.5548 57.3082 10.4481 57.3082Z" fill="#E07419"/>
<path d="M59.5947 46.2956C59.3772 46.2956 59.1931 46.1283 59.1784 45.9065C58.8583 41.3793 57.4358 37.032 55.0634 33.3353C54.9399 33.1408 54.9964 32.8835 55.191 32.7579C55.3834 32.6324 55.6428 32.6889 55.7684 32.8835C58.2161 36.6973 59.6826 41.1806 60.0132 45.8479C60.0299 46.0781 59.8542 46.2789 59.624 46.2956H59.5947Z" fill="#23282E"/>
<path d="M0.420527 46.5132L0.376602 46.5111C0.146475 46.4881 -0.0208973 46.2831 0.00211529 46.053C0.466552 41.5446 2.11511 37.1241 4.76784 33.2705C4.89754 33.0801 5.15905 33.032 5.34942 33.1638C5.5398 33.2935 5.58791 33.555 5.45611 33.7454C2.88288 37.4839 1.28456 41.7684 0.83477 46.1387C0.81385 46.3542 0.631824 46.5132 0.420527 46.5132Z" fill="#23282E"/>
<path d="M72.0944 58.0342C71.4731 71.8351 55.5713 81.0747 43.088 75.4077C40.0274 74.0179 37.3223 71.8836 35.3161 69.1813C31.0608 63.4489 29.8014 55.643 32.6675 49.0195C38.1675 36.3103 56.2031 31.3709 66.2074 41.8354C70.3475 46.1639 72.3559 52.1827 72.0944 58.0342Z" fill="#FB9946"/>
<path d="M52.0949 77.3547C49.2664 77.3547 46.4944 76.7754 43.9693 75.629C40.7978 74.1886 38.053 71.9903 36.0341 69.2712C35.6639 68.7725 35.3103 68.2499 34.9818 67.7183C34.8605 67.5214 34.9233 67.2637 35.1199 67.1426C35.3166 67.021 35.5739 67.0827 35.6952 67.2794C36.009 67.7907 36.35 68.293 36.7057 68.7723C38.6408 71.3777 41.2705 73.4852 44.3145 74.8671C48.3898 76.7175 53.1451 77.0233 57.7036 75.7292C62.1032 74.4796 66.0384 71.8562 68.7832 68.3419C68.9255 68.1597 69.1891 68.1277 69.3711 68.2698C69.5531 68.412 69.5845 68.675 69.4422 68.8572C66.5886 72.5102 62.5007 75.2365 57.9317 76.5342C56.0007 77.0826 54.0342 77.3547 52.0949 77.3547Z" fill="#23282E"/>
<path d="M69.8919 67.9495C69.8124 67.9495 69.7287 67.9259 69.6576 67.8769C69.4672 67.7468 69.417 67.4867 69.5467 67.2955C70.2057 66.3277 70.7727 65.3033 71.235 64.2512C71.3271 64.0392 71.5739 63.9436 71.7852 64.0357C71.9965 64.1286 72.0948 64.3752 72.0007 64.5869C71.5195 65.6863 70.9275 66.756 70.2392 67.7664C70.1576 67.8855 70.0258 67.9495 69.8919 67.9495Z" fill="#23282E"/>
<path d="M72.5238 62.2789C72.4862 62.2789 72.4506 62.2741 72.413 62.264C72.1891 62.2032 72.0573 61.9732 72.1201 61.7502C72.4653 60.4839 72.6703 59.1722 72.7289 57.8563C72.9339 53.2893 71.7247 48.7161 69.3251 44.9776C69.2016 44.783 69.2582 44.5236 69.4527 44.4002C69.6452 44.2747 69.9046 44.3311 70.0301 44.5257C72.5218 48.4086 73.777 53.1554 73.5657 57.8918C73.5029 59.2726 73.2875 60.645 72.9255 61.9703C72.8753 62.1565 72.7079 62.2789 72.5238 62.2789Z" fill="#23282E"/>
<path d="M68.6705 43.7371C68.545 43.7371 68.4215 43.6806 68.3379 43.5739C67.9069 43.0132 67.4445 42.4714 66.9592 41.9651C66.8002 41.7977 66.8065 41.5341 66.9717 41.373C67.1391 41.214 67.4048 41.2203 67.5638 41.3877C68.068 41.9149 68.5533 42.4797 69.001 43.0634C69.1433 43.2454 69.1077 43.509 68.9257 43.6492C68.8483 43.7078 68.7584 43.7371 68.6705 43.7371Z" fill="#23282E"/>
<path d="M33.483 64.0992C33.3114 64.0992 33.1524 63.9946 33.0897 63.8256C31.2194 58.7559 31.3072 53.3814 33.3365 48.6952C35.7926 43.0174 40.9851 38.486 47.2278 36.5696C53.142 34.7558 59.2822 35.4671 64.0772 38.5194C64.2739 38.6429 64.3303 38.9023 64.2069 39.0968C64.0814 39.2914 63.8241 39.3479 63.6274 39.2245C59.0416 36.3039 53.1525 35.6282 47.4725 37.3709C41.4621 39.2161 36.4641 43.5717 34.1043 49.0278C32.1608 53.5153 32.0792 58.668 33.8742 63.536C33.9558 63.7528 33.8449 63.9933 33.6273 64.0733C33.5792 64.0908 33.5311 64.0992 33.483 64.0992Z" fill="#23282E"/>
<path d="M46.6864 41.2914C46.3328 41.2914 46.0044 41.0634 45.8893 40.7098C45.7492 40.2684 45.9918 39.7977 46.4312 39.6575C47.4123 39.3416 48.4332 39.1115 49.4604 38.9713C49.9207 38.9086 50.3412 39.2307 50.404 39.6889C50.4647 40.1471 50.1446 40.5676 49.6864 40.6303C48.7533 40.7579 47.8308 40.9651 46.9437 41.2496C46.858 41.2768 46.7722 41.2914 46.6864 41.2914Z" fill="#E07419"/>
<path d="M36.3338 63.8459C36.0074 63.8459 35.6978 63.6537 35.5618 63.3336C34.9614 61.907 34.5513 60.3982 34.34 58.8501C33.407 51.9819 36.6015 45.168 42.4802 41.4902C42.8714 41.2454 43.3882 41.3647 43.6329 41.7559C43.8777 42.1492 43.7606 42.6639 43.3673 42.9107C38.0472 46.2392 35.1538 52.4066 35.999 58.6263C36.1894 60.0279 36.5618 61.3934 37.1057 62.6844C37.2835 63.1104 37.0848 63.6011 36.658 63.7804C36.5513 63.8248 36.4425 63.8459 36.3338 63.8459Z" fill="#E07419"/>
<path d="M76.7304 54.7204C76.5129 54.7204 76.3288 54.5509 76.312 54.3312C76.0505 50.622 74.8852 47.0614 72.9438 44.0341C72.8183 43.8396 72.8748 43.5802 73.0693 43.4546C73.2639 43.3312 73.5212 43.3856 73.6468 43.5802C75.6656 46.7266 76.8769 50.4233 77.1468 54.2727C77.1635 54.5028 76.9898 54.7015 76.7597 54.7183L76.7304 54.7204Z" fill="#23282E"/>
<path d="M101.586 48.5843C105.535 63.1239 92.0939 78.0124 77.2445 76.2812C73.6043 75.8567 70.0834 74.5402 67.1022 72.4017C60.7737 67.8649 56.8679 60.1764 57.6398 52.3437C59.121 37.3144 76.2089 26.1825 90.0835 33.7202C95.822 36.8395 99.912 42.4211 101.586 48.5843Z" fill="#FB9946"/>
<path d="M80.6177 76.3184C79.8227 76.3184 79.0277 76.2728 78.2369 76.1808C74.4712 75.7415 70.8959 74.3739 67.898 72.2258C67.3478 71.8314 66.808 71.4071 66.2913 70.9647C66.1176 70.8144 66.0967 70.5502 66.2473 70.3747C66.398 70.1996 66.6616 70.1791 66.8373 70.3295C67.3352 70.7563 67.8562 71.1653 68.3854 71.5456C71.2683 73.6113 74.7076 74.9268 78.3353 75.3496C83.193 75.9151 88.2411 74.6492 92.5508 71.7829C96.7119 69.0163 99.9315 64.9753 101.616 60.4044C101.695 60.1868 101.936 60.0759 102.151 60.1554C102.369 60.237 102.48 60.4776 102.4 60.6931C100.655 65.4299 97.3227 69.6157 93.0152 72.4797C89.239 74.9902 84.9127 76.3184 80.6177 76.3184Z" fill="#23282E"/>
<path d="M102.462 59.599C102.423 59.599 102.383 59.5927 102.343 59.5801C102.121 59.5153 101.994 59.283 102.061 59.0613C102.423 57.8353 102.672 56.5801 102.801 55.3312C102.824 55.101 103.032 54.9337 103.26 54.9567C103.49 54.9818 103.657 55.1868 103.634 55.4169C103.5 56.7161 103.241 58.0236 102.862 59.2977C102.81 59.4797 102.642 59.599 102.462 59.599Z" fill="#23282E"/>
<path d="M103.306 52.8334C103.083 52.8334 102.898 52.6576 102.888 52.4338C102.825 51.0007 102.601 49.5677 102.223 48.1785C100.915 43.3605 98.1327 39.007 94.3901 35.917C94.2122 35.7706 94.1871 35.507 94.3335 35.327C94.4821 35.1492 94.7457 35.1241 94.9235 35.2706C98.798 38.4693 101.679 42.9756 103.03 47.9589C103.426 49.4087 103.658 50.9003 103.725 52.3961C103.733 52.6283 103.555 52.8229 103.325 52.8334H103.306Z" fill="#23282E"/>
<path d="M93.1328 34.8583C93.0492 34.8583 92.9676 34.8353 92.8944 34.7851C92.2584 34.3458 91.5973 33.9378 90.9236 33.5717C90.7207 33.4608 90.6454 33.2077 90.7563 33.0048C90.8671 32.8019 91.1203 32.7265 91.3232 32.8374C92.022 33.2161 92.7102 33.6408 93.3713 34.0968C93.5617 34.2286 93.6077 34.4881 93.4759 34.6784C93.3964 34.7956 93.2646 34.8583 93.1328 34.8583Z" fill="#23282E"/>
<path d="M63.3669 67.7178C63.2435 67.7178 63.12 67.6628 63.0384 67.5571C59.415 62.9211 57.7183 57.3207 58.2643 51.7872C58.9254 45.0864 62.8041 38.6617 68.6409 34.601C74.1682 30.7537 80.7728 29.4503 86.7582 31.0215C86.982 31.0801 87.1159 31.3081 87.0573 31.5319C86.9967 31.7558 86.7686 31.8897 86.5448 31.8311C80.7979 30.3206 74.4464 31.58 69.118 35.2872C63.4799 39.2098 59.7351 45.4086 59.097 51.8688C58.5719 57.1868 60.2058 62.5762 63.6974 67.0419C63.8397 67.2239 63.8062 67.4869 63.6242 67.6291C63.5489 67.689 63.4568 67.7178 63.3669 67.7178Z" fill="#23282E"/>
<path d="M69.3488 39.6177C69.0873 39.6177 68.8321 39.4964 68.6668 39.2683C68.3991 38.8918 68.4869 38.3687 68.8614 38.101C69.7735 37.4503 70.7505 36.875 71.7693 36.3876C72.1857 36.1888 72.6857 36.3667 72.8844 36.783C73.0832 37.2014 72.9074 37.6993 72.489 37.898C71.5601 38.3436 70.6668 38.8688 69.8342 39.4629C69.6877 39.5675 69.5183 39.6177 69.3488 39.6177Z" fill="#E07419"/>
<path d="M66.1037 66.49C65.8673 66.49 65.633 66.3909 65.4677 66.1978C64.3736 64.9208 63.4489 63.4969 62.7187 61.9653C59.476 55.1701 60.5221 47.0613 65.384 41.3081C65.6811 40.9567 66.2104 40.9107 66.5618 41.2098C66.9154 41.509 66.9593 42.0362 66.6623 42.3897C62.2229 47.6408 61.2689 55.0425 64.2292 61.2446C64.8965 62.6433 65.7396 63.9436 66.7397 65.1088C67.0388 65.4597 66.9991 65.9879 66.6476 66.2888C66.4907 66.4239 66.2961 66.49 66.1037 66.49Z" fill="#E07419"/>
<path d="M105.16 43.5822C104.995 43.5822 104.838 43.4838 104.771 43.3206C103.262 39.5487 100.865 36.2328 97.8334 33.7307C97.6556 33.5842 97.6305 33.3206 97.7769 33.1428C97.9234 32.965 98.187 32.9399 98.3669 33.0863C101.505 35.6763 103.988 39.1073 105.549 43.0089C105.635 43.2244 105.53 43.4671 105.315 43.5529C105.264 43.5738 105.212 43.5822 105.16 43.5822Z" fill="#23282E"/>
</svg>
