<svg width="82" height="120" viewBox="0 0 82 120" fill="none" xmlns="http://www.w3.org/2000/svg">
<path d="M52.7635 113.573C51.8748 113.573 50.9611 113.537 50.0174 113.461C23.3995 111.338 11.6191 110.289 7.03646 100.258C2.372 90.0494 -6.14082 39.8655 7.03646 18.477C15.8665 4.14296 24.6912 -6.86646e-05 36.0263 -6.86646e-05C41.6062 -6.86646e-05 47.7919 1.00378 54.8913 2.28799C76.8981 6.27579 82.9487 12.9472 81.8747 36.8439C80.8008 60.7415 82.5506 72.9272 80.6456 84.3419C80.2601 86.6572 76.8881 113.573 52.7635 113.573ZM20.244 92.4301C18.4288 92.4301 16.9571 93.9016 16.9571 95.717C16.9571 97.5324 18.4288 99.0041 20.244 99.0041C22.0594 99.0041 23.5322 97.5324 23.5322 95.717C23.5322 93.9016 22.0594 92.4301 20.244 92.4301ZM70.1291 73.9811C68.895 73.9811 67.8936 74.9817 67.8936 76.2156C67.8936 77.4497 68.895 78.4503 70.1291 78.4503C71.3632 78.4503 72.3621 77.4497 72.3621 76.2156C72.3621 74.9817 71.3632 73.9811 70.1291 73.9811ZM29.3749 15.12C27.56 15.12 26.088 16.592 26.088 18.4069C26.088 20.2218 27.56 21.6938 29.3749 21.6938C31.1898 21.6938 32.6618 20.2218 32.6618 18.4069C32.6618 16.592 31.1898 15.12 29.3749 15.12Z" fill="#FFF4E9"/>
<path d="M20.2439 99.0041C18.4287 99.0041 16.957 97.5323 16.957 95.7169C16.957 93.9015 18.4287 92.43 20.2439 92.43C22.0593 92.43 23.532 93.9015 23.532 95.7169C23.532 97.5323 22.0593 99.0041 20.2439 99.0041Z" fill="#F4D9BB"/>
<path d="M70.13 78.4502C68.8959 78.4502 67.8945 77.4497 67.8945 76.2155C67.8945 74.9816 68.8959 73.981 70.13 73.981C71.3641 73.981 72.363 74.9816 72.363 76.2155C72.363 77.4497 71.3641 78.4502 70.13 78.4502Z" fill="#F4D9BB"/>
<path d="M29.3748 21.6937C27.5598 21.6937 26.0879 20.2217 26.0879 18.4068C26.0879 16.5919 27.5598 15.12 29.3748 15.12C31.1897 15.12 32.6616 16.5919 32.6616 18.4068C32.6616 20.2217 31.1897 21.6937 29.3748 21.6937Z" fill="#CDE1EB"/>
<path d="M47.8679 114.053L39.2765 114.414C37.424 114.432 35.8795 113.081 35.6216 111.312C35.5816 111.044 35.5866 110.771 35.6091 110.501L35.892 107.129C35.8845 106.404 36.4703 105.81 37.2012 105.803L47.7853 105.702C48.5163 105.694 49.1145 106.277 49.1221 107.002L49.1771 112.728C49.1846 113.453 48.5989 114.046 47.8679 114.053Z" fill="white"/>
<path d="M49.4976 105.972C49.4976 107.838 46.0956 109.351 41.8975 109.351C37.6995 109.351 34.2949 107.838 34.2949 105.972C34.2949 104.105 37.6995 102.592 41.8975 102.592C46.0956 102.592 49.4976 104.105 49.4976 105.972Z" fill="white"/>
<path d="M35.0472 105.096C34.8569 105.096 34.6742 104.987 34.5891 104.803L12.7405 56.9005C12.6259 56.6476 12.7368 56.3523 12.9883 56.2371C13.2397 56.1219 13.5368 56.2321 13.6517 56.4849L35.5003 104.387C35.6154 104.639 35.5053 104.936 35.2525 105.051C35.1874 105.081 35.1148 105.096 35.0472 105.096Z" fill="#23282E"/>
<path d="M74.3795 42.2086C74.8927 64.1551 50.683 80.5261 30.2809 72.8944C25.2767 71.0229 20.7582 67.9321 17.2846 63.8657C9.9158 55.2385 7.07427 42.9997 10.9001 32.1903C18.2426 11.4452 46.2997 1.66218 63.2948 17.1678C70.3241 23.5813 74.1642 32.9062 74.3795 42.2086Z" fill="#FB9946"/>
<path d="M42.5429 74.9173C38.8355 74.9173 35.1831 74.2772 31.7561 72.9962C26.5992 71.0664 22.0334 67.8947 18.5563 63.8238C17.9177 63.0765 17.3034 62.2902 16.7298 61.4869C16.5694 61.2619 16.6214 60.9492 16.8465 60.7885C17.0715 60.6278 17.3839 60.6798 17.5449 60.9051C18.1014 61.6849 18.6979 62.4479 19.3175 63.1734C22.684 67.1154 27.1074 70.1877 32.109 72.0585C38.8054 74.5635 46.4155 74.534 53.54 71.9751C60.4117 69.5058 66.3946 64.8982 70.3849 59.0009C70.5401 58.7718 70.8505 58.712 71.0809 58.8669C71.3087 59.0219 71.3687 59.333 71.2135 59.5621C67.1056 65.6339 60.9474 70.377 53.878 72.9176C50.168 74.2504 46.3279 74.9173 42.5429 74.9173Z" fill="#23282E"/>
<path d="M71.9196 58.0046C71.8345 58.0046 71.7468 57.982 71.6667 57.9345C71.4289 57.7943 71.3488 57.4889 71.489 57.2511C72.4327 55.6339 73.2263 53.9392 73.8471 52.2144C73.9398 51.954 74.2277 51.8188 74.488 51.9115C74.7483 52.0041 74.8835 52.292 74.7884 52.5523C74.1475 54.3372 73.3289 56.087 72.3526 57.7567C72.26 57.9144 72.0923 58.0046 71.9196 58.0046Z" fill="#23282E"/>
<path d="M75.4733 48.7297C75.4408 48.7297 75.4083 48.7247 75.3757 48.7197C75.1053 48.6646 74.9276 48.4017 74.9827 48.1289C75.3957 46.0711 75.581 43.9608 75.5309 41.853C75.3607 34.5608 72.9375 27.4063 68.7068 21.7112C68.5441 21.4909 68.5892 21.178 68.812 21.0128C69.0323 20.8476 69.3477 20.8926 69.5129 21.1154C73.8637 26.9757 76.357 34.3305 76.5322 41.8305C76.5823 44.0109 76.3921 46.1963 75.964 48.3266C75.9164 48.5644 75.7086 48.7297 75.4733 48.7297Z" fill="#23282E"/>
<path d="M67.3572 19.7511C67.217 19.7511 67.0793 19.6936 66.9817 19.5809C66.2332 18.7348 65.4346 17.9237 64.6085 17.1702C64.4032 16.9825 64.3907 16.667 64.576 16.4618C64.7612 16.259 65.0791 16.244 65.2844 16.4292C66.1355 17.2077 66.9591 18.0464 67.7302 18.92C67.9154 19.1253 67.8954 19.4432 67.6876 19.626C67.5925 19.7086 67.4748 19.7511 67.3572 19.7511Z" fill="#23282E"/>
<path d="M13.782 55.8442C13.5907 55.8442 13.4083 55.734 13.3249 55.5488C9.82825 47.7509 9.38615 39.2671 12.0797 31.657C15.3428 22.4373 23.0488 14.727 32.6942 11.0296C41.8263 7.52994 51.5893 7.98553 59.4798 12.2837C59.7226 12.4164 59.8127 12.7193 59.6801 12.9621C59.5474 13.205 59.2445 13.2951 59.0016 13.1624C51.369 9.00688 41.9114 8.56881 33.0521 11.9658C23.6772 15.5581 16.1902 23.0431 13.0235 31.99C10.4163 39.3573 10.8479 47.5782 14.2384 55.1383C14.3518 55.3911 14.2389 55.689 13.9865 55.8016C13.9199 55.8317 13.8506 55.8442 13.782 55.8442Z" fill="#23282E"/>
<path d="M32.1988 18.0914C31.8008 18.0914 31.4253 17.8536 31.2676 17.4606C31.0649 16.9474 31.3152 16.3642 31.8284 16.1614C33.3329 15.5631 34.9049 15.0924 36.5021 14.7645C37.0453 14.6519 37.5735 14.9998 37.6837 15.5431C37.7963 16.0838 37.4483 16.6145 36.9051 16.7246C35.4231 17.03 33.9637 17.4681 32.5694 18.0214C32.4467 18.0689 32.3215 18.0914 32.1988 18.0914Z" fill="#E07419"/>
<path d="M18.2282 54.9731C17.862 54.9731 17.509 54.7703 17.333 54.4199C16.2396 52.2495 15.434 49.9314 14.9386 47.5282C12.7407 36.8665 17.0171 25.8493 25.8333 19.4583C26.2814 19.1329 26.9073 19.2331 27.2327 19.6812C27.5556 20.1292 27.4555 20.7551 27.0074 21.078C18.8285 27.0084 14.8608 37.232 16.9 47.1227C17.3601 49.3531 18.1076 51.506 19.1217 53.5212C19.3705 54.0143 19.1717 54.6151 18.6778 54.8654C18.5334 54.938 18.3794 54.9731 18.2282 54.9731Z" fill="#E07419"/>
<path d="M81.3259 36.2907C81.0806 36.2907 80.8653 36.108 80.8302 35.8576C80.0092 29.9798 77.7662 24.4349 74.3416 19.8238C74.1764 19.601 74.2215 19.2881 74.4443 19.1229C74.6671 18.9576 74.98 19.0027 75.1452 19.2255C78.6699 23.9718 80.978 29.6744 81.8216 35.7199C81.8591 35.9928 81.6689 36.2456 81.396 36.2857C81.371 36.2882 81.3484 36.2907 81.3259 36.2907Z" fill="#23282E"/>
<path d="M6.32875 27.509C6.26567 27.509 6.20132 27.4965 6.13924 27.4715C5.8834 27.3688 5.76075 27.0759 5.86563 26.8181C8.10386 21.3483 11.7908 16.4217 16.5283 12.5741C16.7431 12.3989 17.0585 12.4314 17.2325 12.6467C17.407 12.862 17.3742 13.1774 17.1597 13.3502C12.552 17.0951 8.96702 21.8815 6.79238 27.1986C6.71302 27.3913 6.52601 27.509 6.32875 27.509Z" fill="#23282E"/>
<path d="M46.7441 117.279H38.7985C37.1338 117.279 35.7419 116.032 35.5592 114.378L34.5503 105.276C34.5178 105.001 34.7181 104.754 34.9909 104.723C35.2663 104.692 35.5141 104.891 35.5442 105.166L36.553 114.267C36.6807 115.413 37.6445 116.277 38.7985 116.277H46.7441C47.8005 116.277 48.6766 115.484 48.7793 114.431L49.7506 104.546C49.7556 104.492 49.7706 104.438 49.7931 104.388L70.3455 59.0748C70.4581 58.8229 70.756 58.7113 71.0063 58.8257C71.2592 58.9398 71.3718 59.2365 71.2567 59.4883L50.7394 104.727L49.7756 114.529C49.6229 116.097 48.3186 117.279 46.7441 117.279Z" fill="#23282E"/>
<path d="M36.0229 119.929C35.9754 119.929 35.9278 119.923 35.8827 119.909C33.0214 119.075 31.2491 116.231 31.7647 113.295C31.8123 113.022 32.0702 112.841 32.343 112.888C32.6159 112.936 32.7986 113.195 32.7511 113.468C32.3255 115.9 33.7924 118.257 36.1631 118.948C36.4285 119.025 36.5811 119.303 36.5035 119.569C36.4385 119.787 36.2407 119.929 36.0229 119.929Z" fill="#23282E"/>
<path d="M42.6482 109.101C38.1047 109.101 34.5449 107.396 34.5449 105.221C34.5449 103.045 38.1047 101.341 42.6482 101.341C42.9236 101.341 43.1489 101.565 43.1489 101.841C43.1489 102.118 42.9236 102.342 42.6482 102.342C39.2887 102.342 35.5463 103.524 35.5463 105.221C35.5463 106.917 39.2887 108.1 42.6482 108.1C46.0052 108.1 49.7476 106.917 49.7476 105.221C49.7476 104.391 48.6937 103.53 46.9965 102.974C46.7336 102.888 46.591 102.605 46.6761 102.342C46.7612 102.08 47.044 101.937 47.3069 102.023C49.4948 102.739 50.749 103.905 50.749 105.221C50.749 107.396 47.1917 109.101 42.6482 109.101Z" fill="#23282E"/>
<path d="M40.5325 102.342C40.2922 102.342 40.0819 102.171 40.0394 101.928L35.4157 75.6432C35.3682 75.3708 35.5509 75.1112 35.8238 75.0634C36.0942 75.0161 36.3545 75.1973 36.4021 75.4697L41.0257 101.754C41.0733 102.027 40.8905 102.286 40.6177 102.334C40.5901 102.339 40.5601 102.342 40.5325 102.342Z" fill="#23282E"/>
<path d="M43.9684 109.049L43.9109 109.046C43.6355 109.014 43.4378 108.766 43.4703 108.491L47.2603 75.4993C47.2929 75.2247 47.5407 75.0277 47.8136 75.0592C48.0889 75.0908 48.2867 75.3389 48.2542 75.6137L44.4641 108.606C44.4366 108.861 44.2188 109.049 43.9684 109.049Z" fill="#23282E"/>
<path d="M48.2682 120C48.0179 120 47.8001 119.81 47.7725 119.554C47.7425 119.28 47.9403 119.032 48.2156 119.001C50.739 118.722 52.6415 116.596 52.6415 114.057C52.6415 113.78 52.8643 113.556 53.1422 113.556C53.4176 113.556 53.6429 113.78 53.6429 114.057C53.6429 117.107 51.3573 119.66 48.3258 119.997L48.2682 120Z" fill="#23282E"/>
</svg>
